<svg width="36" height="36" viewBox="0 0 36 36" fill="none" xmlns="http://www.w3.org/2000/svg">
<g>
<path stroke="black" fill-rule="evenodd" clip-rule="evenodd" d="M18 3.375C13.6508 3.375 10.125 6.90076 10.125 11.25C10.125 15.5992 13.6508 19.125 18 19.125C18.5005 19.125 18.9901 19.0783 19.4646 18.9891C19.4873 18.984 19.5101 18.9796 19.5331 18.9759C21.7221 18.5439 23.5853 17.2049 24.7147 15.3666C24.76 15.2415 24.8274 15.1242 24.9151 15.021C25.5271 13.9011 25.875 12.6162 25.875 11.25C25.875 6.90076 22.3492 3.375 18 3.375ZM27.0658 15.7635C27.7437 14.4046 28.125 12.8718 28.125 11.25C28.125 5.65812 23.5919 1.125 18 1.125C12.4081 1.125 7.875 5.65812 7.875 11.25C7.875 12.8797 8.26004 14.4195 8.94412 15.7834L2.39156 27.5787C2.19752 27.928 2.20331 28.354 2.40678 28.6979C2.61026 29.0418 2.98087 29.2519 3.38044 29.25L9.48778 29.2205L9.48803 29.2205L12.5338 34.3263C12.7483 34.6858 13.1446 34.8965 13.5625 34.8733C13.9805 34.85 14.3509 34.5966 14.5242 34.2155L18.0001 26.5688L21.4758 34.2155C21.6491 34.5966 22.0195 34.85 22.4375 34.8733C22.8554 34.8965 23.2517 34.6858 23.4662 34.3263L26.512 29.2205H26.5122L32.6196 29.25C33.0189 29.2519 33.3893 29.042 33.5928 28.6985C33.7964 28.355 33.8026 27.9293 33.6092 27.58L27.0658 15.7635ZM25.6607 17.8706C24.328 19.4113 22.5384 20.5457 20.5026 21.0633L19.2358 23.8502L22.6348 31.328L24.5798 28.0676L24.5799 28.0674C24.7805 27.7313 25.0652 27.4534 25.4061 27.261C25.7468 27.0687 26.1318 26.9685 26.5231 26.9705C26.5232 26.9705 26.5233 26.9705 26.5233 26.9705L30.7109 26.9907L25.6607 17.8706ZM16.9836 23.3678L17.8897 21.3744C14.8799 21.3423 12.185 19.9969 10.351 17.8841L5.29206 26.9907L9.47666 26.9705C9.47674 26.9705 9.47682 26.9705 9.4769 26.9705C9.86818 26.9685 10.2532 27.0687 10.5939 27.261C10.9348 27.4534 11.2195 27.7313 11.4201 28.0674L11.4202 28.0676L13.3652 31.328L16.9687 23.4004C16.9735 23.3894 16.9784 23.3786 16.9836 23.3678ZM18 7.875C16.136 7.875 14.625 9.38604 14.625 11.25C14.625 13.114 16.136 14.625 18 14.625C19.864 14.625 21.375 13.114 21.375 11.25C21.375 9.38604 19.864 7.875 18 7.875ZM12.375 11.25C12.375 8.1434 14.8934 5.625 18 5.625C21.1066 5.625 23.625 8.1434 23.625 11.25C23.625 14.3566 21.1066 16.875 18 16.875C14.8934 16.875 12.375 14.3566 12.375 11.25Z" />
</g>
</svg>