<svg width="357" height="238" viewBox="0 0 357 238" fill="none" xmlns="http://www.w3.org/2000/svg">
<path d="M308.191 164.85C309.953 164.85 311.529 164.85 313.082 164.85C313.383 164.85 313.708 164.804 314.009 164.874C314.357 164.943 314.658 165.106 314.982 165.222C314.704 165.477 314.472 165.941 314.148 165.988C311.9 166.359 309.674 166.847 307.403 166.893C305.92 166.939 305.224 167.682 304.343 168.82C306.708 168.82 308.886 168.82 311.065 168.82C311.135 168.936 311.204 169.052 311.251 169.168C310.926 169.446 310.648 169.864 310.277 169.957C308.747 170.329 307.218 170.677 305.665 170.909C304.714 171.048 303.741 171.002 302.767 170.955C302.049 170.932 301.678 171.303 301.145 171.745C300.31 172.418 299.175 172.72 298.155 173.161C298.085 173.068 298.016 172.975 297.946 172.859C297.923 173.161 297.877 173.439 297.853 173.741C297.668 175.691 296.949 176.689 295.002 176.898C293.426 177.06 291.456 177.339 290.297 176.596C287.771 174.925 285.036 175.157 282.347 174.902C276.83 174.368 271.268 173.973 265.728 173.555C265.079 173.509 264.407 173.578 263.758 173.439C263.387 173.369 263.062 172.998 262.738 172.743C263.085 172.534 263.433 172.116 263.781 172.116C266.91 172.162 270.039 172.232 273.168 172.418C277.248 172.65 281.327 172.952 285.406 173.253C286.403 173.323 287.377 173.439 288.373 173.532C288.42 173.393 288.489 173.253 288.536 173.114C288.188 172.928 287.84 172.627 287.469 172.58C285.731 172.464 283.993 172.441 282.254 172.325C276.622 171.977 271.013 171.582 265.403 171.234C261.278 170.979 257.152 170.7 253.049 170.468C247.857 170.166 242.642 169.864 237.45 169.586C237.149 169.563 236.847 169.586 236.546 169.586C235.248 172.928 233.533 173.95 230.033 173.462C227.622 173.137 226.556 171.93 226.208 168.959C224.725 168.913 223.195 168.75 221.689 168.889C221.271 168.936 220.761 169.841 220.622 170.421C220.043 172.766 218.652 173.648 216.357 173.021C215.384 172.766 214.897 172.07 214.619 171.187C214.457 170.723 214.41 170.212 214.318 169.771C195.126 169.075 176.143 166.498 157.043 165.059C156.858 168.054 156.302 168.588 153.52 168.657C150.368 168.75 149.789 168.193 149.348 164.688C137.458 163.69 125.544 162.692 113.537 161.693C113.236 163.04 112.865 164.525 111.382 165.059C110.339 165.431 109.11 165.593 108.021 165.477C105.471 165.198 104.451 163.899 104.243 160.997C103.733 160.997 103.2 160.997 102.69 160.997C101.623 164.34 100.163 165.199 96.5705 164.618C94.6235 164.316 93.8586 163.063 93.9513 160.254C90.9149 160.022 87.8785 159.813 84.8421 159.581C80.2296 159.233 75.5939 158.954 71.0045 158.467C69.3125 158.281 68.4085 158.838 67.7827 160.463C68.3622 160.533 68.8953 160.626 69.4516 160.695C76.2197 161.322 82.9647 161.925 89.7328 162.552C89.8951 162.575 90.0805 162.529 90.1964 162.599C90.5209 162.831 90.799 163.086 91.1235 163.341C90.799 163.527 90.4514 163.852 90.1269 163.852C86.6501 163.806 83.1733 163.829 79.6965 163.597C73.7628 163.179 67.8522 162.622 61.9417 162.065C60.4351 161.925 58.9748 161.438 57.4682 161.229C56.402 161.09 55.2894 161.229 54.2464 161.067C51.2564 160.602 50.5147 160.858 50.1438 156.935C49.1935 156.888 48.2431 156.888 47.2928 156.795C45.8789 156.679 45.4385 156.192 45.4385 154.822C45.4617 146.466 45.4849 138.109 45.5313 129.752C45.5544 123.647 45.624 117.519 45.6471 111.414C45.6471 110.95 45.5081 110.346 45.2067 110.044C41.8922 106.864 38.5313 103.731 35.1704 100.62C34.6373 100.133 33.942 99.8075 33.3161 99.4361C32.0181 98.6469 31.9718 97.347 33.2698 96.5113C34.591 95.6524 35.9353 94.84 37.4419 93.9114C36.1207 92.9365 34.9155 92.008 33.6638 91.1027C31.8327 89.7563 29.9552 88.4564 28.1241 87.0868C26.8725 86.1815 26.942 85.3226 28.2632 84.487C29.1903 83.9067 30.1639 83.3495 31.3228 82.6531C30.1639 81.9568 29.1903 81.2836 28.1473 80.7497C24.4619 78.8926 20.7533 77.1052 17.0679 75.2946C16.7203 75.1321 16.3726 74.9697 16.0481 74.7375C15.3064 74.2036 15.2368 73.4608 15.9786 72.9037C17.5547 71.7198 19.1308 70.5359 20.7997 69.4914C21.2864 69.1896 22.1904 69.2128 22.7699 69.4217C26.2003 70.652 29.6539 71.8359 33.0148 73.2983C41.0346 76.7802 48.7531 80.9122 56.2861 85.3458C57.0742 85.8101 57.7464 85.9494 58.5113 85.4619C62.4284 82.9549 66.7397 82.5139 71.329 82.6299C84.4945 83.0013 97.6599 83.1638 110.825 83.3263C120.259 83.4192 129.67 83.3727 139.103 83.3727C141.352 83.3727 143.577 83.3727 146.01 83.3727C146.01 82.9549 146.01 82.6067 146.01 82.2353C146.01 77.7784 145.964 73.3447 146.08 68.8878C146.126 67.4254 146.474 65.9166 146.961 64.547C147.54 62.8757 148.352 61.274 149.209 59.7419C149.487 59.2312 150.206 58.6741 150.762 58.6277C154.285 58.3027 157.832 57.9081 161.378 57.9081C178.252 57.9313 195.126 58.0242 212 58.1634C218.073 58.2099 224.122 58.442 230.195 58.5813C231.563 58.6045 232.003 59.0223 231.98 60.3919C231.91 66.3576 231.818 72.3001 231.748 78.2659C231.748 78.6837 231.748 79.1016 231.748 79.6122C234.205 79.7283 236.592 79.7979 238.957 79.9372C242.92 80.1461 246.884 80.3783 250.847 80.6568C252.702 80.7961 253.119 81.3068 253.049 83.1638C252.98 84.8119 252.841 86.4601 252.725 88.3171C264.847 88.5492 276.83 88.7581 288.906 88.9903C289.022 88.201 289.138 87.5743 289.185 86.9243C289.231 86.2744 289.185 85.6244 289.185 84.8352C287.655 84.6959 286.102 84.5102 284.549 84.3941C280.168 84.0691 275.787 83.7442 271.383 83.4424C269.877 83.3495 269.367 82.9549 269.506 81.4693C269.784 78.5909 270.132 75.7124 270.549 72.8572C271.569 65.8701 272.635 58.9063 273.678 51.9191C273.91 50.3639 274.258 49.9925 275.857 50.0389C286.658 50.3175 297.483 50.596 308.284 50.8978C310.3 50.9442 312.294 51.0603 314.31 51.1531C316.002 51.2227 316.396 51.9424 316.025 53.5673C315.631 55.285 315.423 57.026 315.214 58.7902C314.612 63.456 314.078 68.1218 313.476 72.7876C312.989 76.4553 312.433 80.1229 311.969 83.7906C311.691 86.0422 311.621 86.1119 309.304 85.9726C305.804 85.7405 302.304 85.5083 298.781 85.2994C298.526 85.2762 298.247 85.2994 297.83 85.2994C297.83 86.5529 297.784 87.7368 297.853 88.9207C297.877 89.501 298.155 89.9884 298.92 90.0349C301.307 90.1973 303.671 90.4527 306.059 90.6384C308.631 90.8241 311.227 90.9634 313.8 91.1259C315.237 91.2187 315.933 92.0312 315.91 93.6329C315.817 99.4825 315.678 105.309 315.631 111.159C315.516 123.995 315.446 136.832 315.353 149.692C315.33 151.967 315.33 154.265 315.168 156.54C315.121 157.306 314.774 158.211 314.264 158.769C312.479 160.695 310.555 162.483 308.678 164.316C308.539 164.363 308.446 164.525 308.191 164.85ZM200.48 141.846C200.48 141.196 200.48 140.709 200.48 140.198C200.48 128.174 200.48 116.126 200.526 104.102C200.526 102.872 200.109 102.64 198.997 102.616C192.391 102.57 185.785 102.5 179.179 102.338C169.328 102.106 159.5 101.781 149.649 101.456C148.514 101.409 148.189 101.757 148.189 102.872C148.259 108.791 148.305 114.71 148.282 120.63C148.259 126.317 148.166 132.004 148.073 137.691C148.05 138.527 148.259 139.037 149.186 139.084C156.116 139.479 163.07 139.85 170 140.245C175.007 140.523 180.013 140.802 185.02 141.08C189.957 141.359 194.894 141.614 199.831 141.869C199.993 141.916 200.179 141.869 200.48 141.846ZM200.48 96.2327C200.48 95.7917 200.48 95.5364 200.48 95.281C200.596 91.8455 200.712 88.41 200.851 84.9512C201.036 79.6587 201.245 74.3661 201.407 69.0735C201.454 67.5647 201.245 67.4022 199.762 67.379C195.937 67.3094 192.113 67.2165 188.288 67.1701C176.05 67.054 163.788 66.9379 151.55 66.8219C151.133 66.8219 150.693 66.8219 150.298 66.7058C149.997 66.613 149.603 66.3344 149.58 66.1023C149.557 65.8701 149.858 65.4987 150.113 65.313C150.345 65.1505 150.669 65.0809 150.971 65.0577C154.633 64.9184 158.295 64.7095 161.957 64.7095C174.984 64.7791 187.987 64.9416 201.013 65.0577C201.291 65.0577 201.732 65.0113 201.825 64.8256C202.659 63.5024 203.424 62.1561 204.235 60.7865C200.712 60.7865 197.444 60.7865 194.152 60.7865C187.431 60.8097 180.709 60.8562 173.987 60.8329C173.176 60.8329 172.643 60.9722 172.249 61.7383C172.017 62.1793 171.53 62.481 171.136 62.8525C171.02 62.7828 170.904 62.7132 170.788 62.6435C170.858 62.0168 170.927 61.39 170.997 60.7633C170.997 60.7633 170.951 60.7169 170.927 60.7169C164.391 60.6937 157.878 60.6937 151.342 60.6937C151.11 60.6937 150.739 60.8329 150.669 60.9954C149.835 63.4096 148.282 65.5916 148.305 68.3075C148.328 74.8536 148.328 81.3764 148.305 87.9225C148.305 89.8259 148.189 91.7062 148.073 93.6097C148.027 94.5614 148.375 94.8864 149.348 94.8864C155.954 94.9792 162.56 95.0953 169.166 95.281C175.192 95.4435 181.219 95.6756 187.222 95.8845C191.58 96.0006 195.96 96.1167 200.48 96.2327ZM72.3257 100.202C72.3489 100.133 72.3025 100.249 72.3025 100.365C72.1403 118.703 72.0012 137.018 71.839 155.356C71.839 156.238 72.3257 156.447 72.9747 156.494C77.8654 156.911 82.7329 157.329 87.6236 157.677C91.6566 157.979 95.7129 158.188 99.746 158.444C100.465 158.49 101.183 158.56 101.786 158.629C101.925 158.49 101.971 158.467 101.994 158.42C102.157 151.897 102.319 145.351 102.412 138.829C102.412 138.55 101.925 138.039 101.623 137.993C99.6301 137.761 97.6367 137.621 95.6202 137.505C90.5673 137.18 85.5375 136.879 80.4846 136.53C80.0674 136.507 79.6502 136.275 79.2329 136.136C79.1866 135.997 79.1634 135.881 79.117 135.741C79.6038 135.463 80.0905 134.929 80.5541 134.952C85.6766 135.091 90.8222 135.3 95.9447 135.556C98.0771 135.648 100.21 135.927 102.365 136.113C102.412 135.904 102.458 135.788 102.458 135.672C102.597 124.297 102.736 112.923 102.921 101.572C102.945 100.574 102.597 100.365 101.647 100.365C96.7328 100.365 91.8421 100.272 86.9282 100.249C82.1071 100.179 77.2859 100.202 72.3257 100.202ZM242.132 139.27C241.9 148.741 241.692 158.049 241.46 167.45C244.311 167.613 247.023 167.775 249.758 167.914C253.721 168.123 257.685 168.309 261.672 168.541C265.566 168.773 269.436 169.052 273.33 169.307C277.109 169.563 280.863 169.841 284.642 170.073C288.791 170.329 292.963 170.537 297.135 170.723C298.781 170.793 299.012 170.491 299.012 168.843C299.012 160.486 299.012 152.13 299.012 143.796C299.012 142.311 299.012 142.311 297.483 142.218C292.638 141.962 287.771 141.684 282.926 141.475C276.946 141.196 270.966 141.034 265.009 140.732C261.115 140.546 257.245 140.175 253.35 139.92C249.642 139.664 246.003 139.479 242.132 139.27ZM104.984 100.574C104.984 112.505 104.984 124.274 104.984 136.182C118.683 137.111 132.242 138.016 145.964 138.945C145.964 137.854 145.964 137.018 145.964 136.159C145.987 127.872 146.01 119.608 146.01 111.321C146.01 108.652 145.964 105.982 145.964 103.313C145.964 102.222 145.64 101.595 144.365 101.711C143.484 101.781 142.603 101.548 141.722 101.525C129.878 101.2 118.011 100.875 106.166 100.55C105.749 100.55 105.309 100.574 104.984 100.574ZM69.7992 156.053C69.7992 155.751 69.7992 155.356 69.7992 154.985C69.9151 147.719 70.1006 140.453 70.1469 133.188C70.2165 122.556 70.1701 111.925 70.2165 101.293C70.2165 100.156 69.7065 99.8308 68.6635 99.8075C61.8722 99.5986 55.104 99.3433 48.1504 99.1112C48.1504 117.658 48.1504 136.182 48.1504 154.66C55.3358 155.124 62.5212 155.588 69.7992 156.053ZM225.652 103.498C225.049 124.46 224.424 145.212 223.821 166.15C228.99 166.568 234.112 166.986 239.212 167.404C239.675 146.094 240.139 125.11 240.602 104.056C235.688 103.87 230.775 103.684 225.652 103.498ZM299.151 123.462C280.284 122.347 261.509 121.233 242.642 120.119C242.503 125.272 242.364 130.263 242.248 135.254C242.202 137.343 242.202 137.389 244.288 137.482C249.178 137.738 254.069 137.97 258.983 138.179C271.546 138.736 284.132 139.246 296.694 139.78C297.483 139.804 298.271 139.78 299.151 139.78C299.151 134.256 299.151 128.847 299.151 123.462ZM103.941 158.722C117.872 159.813 131.663 160.881 145.454 161.972C145.57 154.962 145.686 148.021 145.802 140.941C132.08 140.152 118.474 139.362 104.845 138.596C104.544 145.235 104.243 151.967 103.941 158.722ZM299.337 106.214C280.516 105.564 261.741 104.914 242.665 104.241C242.665 108.605 242.665 112.807 242.665 117.008C242.665 117.937 243.361 117.937 243.94 117.983C245.562 118.099 247.185 118.146 248.784 118.239C253.165 118.494 257.569 118.749 261.95 119.005C266.655 119.283 271.337 119.585 276.042 119.84C281.234 120.142 286.45 120.397 291.642 120.676C294.168 120.815 296.694 120.955 299.337 121.094C299.337 116.08 299.337 111.182 299.337 106.214ZM170.533 149.112C168.053 148.857 165.805 148.624 163.557 148.416C158.875 147.998 154.192 147.603 149.51 147.162C148.073 147.023 147.888 147.092 147.842 148.578C147.749 152.594 147.726 156.61 147.61 160.649C147.587 161.67 147.981 162.158 148.954 162.227C151.226 162.413 153.497 162.599 155.769 162.784C159.918 163.133 164.067 163.458 168.216 163.806C172.828 164.177 177.441 164.525 182.053 164.897C185.901 165.198 189.748 165.477 193.596 165.756C195.775 165.918 197.954 166.081 200.272 166.243C200.272 161.113 200.272 156.053 200.272 150.899C196.887 150.76 193.503 150.714 190.119 150.458C187.338 150.249 184.556 151.062 181.775 150.04C180.547 149.599 179.086 149.831 177.765 149.553C174.636 148.926 171.924 149.623 169.374 151.572C167.057 153.36 164.53 154.869 162.073 156.47C161.447 156.888 160.822 157.492 159.547 156.935C162.884 153.731 166.686 151.596 170.533 149.112ZM222.477 103.731C215.94 103.452 209.497 103.197 203.007 102.918C202.96 103.591 202.891 104.148 202.891 104.682C202.775 116.544 202.659 128.406 202.543 140.291C202.52 141.846 202.589 141.846 204.166 141.916C209.52 142.148 214.874 142.403 220.228 142.705C222.222 142.821 222.222 142.844 222.222 140.825C222.291 130.588 222.361 120.328 222.43 110.091C222.5 107.955 222.477 105.843 222.477 103.731ZM313.568 99.4361C313.592 99.4361 313.476 99.4129 313.383 99.4826C309.605 101.386 305.827 103.289 302.072 105.239C301.794 105.379 301.562 105.959 301.562 106.33C301.353 126.851 301.191 147.394 301.029 167.914C301.029 168.286 301.075 168.634 301.098 169.145C301.608 168.704 302.026 168.425 302.373 168.077C305.688 164.502 308.979 160.927 312.247 157.329C312.525 157.028 312.665 156.517 312.688 156.076C312.85 146.767 312.966 137.436 313.128 128.127C313.244 120.815 313.429 113.526 313.568 106.214C313.615 103.939 313.568 101.688 313.568 99.4361ZM203.656 67.4718C203.447 77.1284 203.238 86.7386 203.03 96.4184C209.636 96.5577 216.102 96.6738 222.546 96.8131C222.546 86.9243 222.546 77.1981 222.546 67.4718C216.149 67.4718 209.937 67.4718 203.656 67.4718ZM202.381 144.284C202.381 151.712 202.381 159.07 202.381 166.452C203.447 166.522 204.49 166.591 205.533 166.661C210.354 166.939 215.152 167.218 219.973 167.45C221.155 167.52 221.573 167.079 221.596 165.895C221.758 159.326 221.92 152.756 222.106 146.187C222.129 145.235 221.828 144.934 220.877 144.934C216.172 144.841 211.467 144.678 206.762 144.516C205.348 144.446 203.934 144.353 202.381 144.284ZM313.87 52.8245C311.853 52.8245 309.929 52.8477 308.006 52.8245C298.966 52.662 289.926 52.4995 280.91 52.337C279.473 52.3138 278.059 52.337 276.622 52.4531C276.274 52.4763 275.695 52.9637 275.648 53.2887C275.046 56.9332 274.489 60.6008 273.979 64.2684C273.423 68.3539 272.913 72.4626 272.38 76.5481C272.171 78.1034 272.009 79.6587 271.824 81.2836C272.403 81.3764 272.844 81.4693 273.307 81.4925C278.175 81.7478 283.019 81.9335 287.887 82.2121C294.794 82.6067 301.678 83.0478 308.562 83.4888C309.28 83.5352 309.628 83.4424 309.744 82.6531C310.069 80.4479 310.532 78.2427 310.833 76.0374C311.529 70.9538 312.178 65.8701 312.85 60.7865C313.151 58.2563 313.499 55.7029 313.87 52.8245ZM246.049 95.9542C246.072 96.0702 246.096 96.1631 246.142 96.2792C249.178 96.4184 252.215 96.5577 255.274 96.6738C262.529 96.9756 269.784 97.2773 277.016 97.5327C281.837 97.7184 286.658 97.8809 291.479 97.9505C294.562 97.9969 297.691 98.2058 300.681 97.6719C303.045 97.2541 305.201 95.8381 307.473 94.8632C309.049 94.19 310.625 93.54 312.502 92.7276C311.969 92.6812 311.784 92.6579 311.621 92.6347C307.496 92.4258 303.37 92.2169 299.244 92.008C294.469 91.7526 289.695 91.4276 284.92 91.2652C277.016 90.9866 269.112 90.7777 261.185 90.592C260.35 90.5688 259.47 90.6616 258.705 90.9634C254.463 92.6115 250.245 94.306 246.049 95.9542ZM48.1968 97.0452C66.4615 97.3934 84.5408 97.7416 102.666 98.113C102.666 97.347 102.666 96.5809 102.666 95.8149C102.666 95.0257 102.666 94.2364 102.666 93.4007C102.017 93.4007 101.554 93.4007 101.09 93.4007C85.6997 93.3543 70.286 93.6793 54.8954 92.5187C52.9948 92.3794 51.0478 92.5883 49.1239 92.7508C48.7994 92.774 48.2663 93.2847 48.22 93.6097C48.1272 94.7007 48.1968 95.8149 48.1968 97.0452ZM200.411 144.26C182.957 143.262 165.573 142.264 148.12 141.266C148.073 142.241 148.05 143.123 147.981 144.005C147.911 144.934 148.351 145.328 149.255 145.398C152.825 145.607 156.418 145.862 159.987 146.094C164.994 146.419 170 146.721 174.984 147.069C182.633 147.58 190.282 148.114 197.954 148.648C198.742 148.694 199.53 148.648 200.387 148.648C200.411 147.092 200.411 145.723 200.411 144.26ZM63.4019 90.3598C63.4251 90.4295 63.4483 90.5223 63.4483 90.592C63.9582 90.6152 64.4913 90.6848 65.0013 90.6848C73.1138 90.8241 81.2263 90.9402 89.3388 91.1027C92.9315 91.1723 96.5242 91.2187 100.117 91.4509C102.157 91.5901 104.034 91.4741 105.61 90.0116C105.981 89.6867 106.445 89.4777 106.885 89.1992C108.623 88.1082 110.339 87.0172 112.077 85.903C103.2 85.7637 94.3917 85.6244 85.607 85.4619C82.5243 85.4155 79.4415 85.2762 76.3356 85.1369C75.0144 85.0905 73.786 84.7655 72.627 86.0422C71.8158 86.9475 70.3324 87.2261 69.1502 87.76C67.2264 88.6653 65.3026 89.501 63.4019 90.3598ZM145.825 93.2383C144.249 93.3775 142.835 93.5632 141.421 93.5865C132.544 93.6561 123.666 93.7025 114.789 93.7257C111.892 93.7257 108.994 93.6329 106.097 93.6097C105.471 93.6097 104.637 93.54 104.613 94.4686C104.59 95.7685 104.706 97.0684 104.753 98.3219C118.451 99.3201 132.126 98.2755 145.802 99.8075C145.825 97.6255 145.825 95.4667 145.825 93.2383ZM242.92 102.013C261.788 102.64 280.585 103.266 299.453 103.893C299.453 103.15 299.453 102.616 299.453 102.082C299.453 101.525 299.453 100.968 299.453 100.388C280.469 99.7379 261.718 99.1111 242.92 98.4612C242.92 99.7379 242.92 100.806 242.92 102.013ZM107.047 91.3812C120.143 91.3812 133.007 91.3812 145.941 91.3812C145.941 89.4313 145.941 87.6439 145.941 85.8101C145.732 85.7869 145.57 85.7405 145.431 85.7405C135.742 85.7405 126.031 85.7405 116.342 85.7405C116.064 85.7405 115.739 85.8333 115.507 85.9958C113.908 86.994 112.332 88.0386 110.756 89.0599C109.574 89.8027 108.392 90.5456 107.047 91.3812ZM148.375 97.1148C148.305 97.5559 148.282 97.9041 148.212 98.2291C148.05 99.2272 148.282 99.7379 149.464 99.6682C150.878 99.5754 152.315 99.6451 153.752 99.6915C163.394 99.97 173.037 100.341 182.679 100.574C195.937 100.875 209.195 101.084 222.523 101.34C222.569 100.736 222.639 99.9236 222.708 98.9719C197.907 98.3683 173.199 97.7416 148.375 97.1148ZM55.2894 87.3189C54.5941 86.9243 54.061 86.6225 53.5279 86.3208C48.6604 83.6977 43.8392 80.9122 38.879 78.498C33.8029 76.0374 28.5413 73.9018 23.3493 71.6966C22.7467 71.4413 21.8659 71.2091 21.3792 71.4645C20.2898 71.9984 19.3394 72.8572 18.2269 73.6697C18.8063 73.9715 19.1772 74.1804 19.5481 74.3661C24.7401 77.0356 30.0248 79.5658 35.1009 82.4674C39.1803 84.7887 42.9816 87.5975 46.922 90.1509C47.2696 90.3598 47.8259 90.5688 48.1273 90.4527C50.4915 89.4545 52.8325 88.3867 55.2894 87.3189ZM250.986 83.2567C244.728 84.928 238.609 86.5297 232.49 88.2011C232.142 88.2939 231.632 88.6653 231.586 88.9439C231.331 90.708 231.169 92.4722 231.006 94.19C237.427 92.2401 243.639 90.3598 249.851 88.4796C250.569 88.2707 250.986 87.8296 250.986 87.0636C250.986 85.8101 250.986 84.5334 250.986 83.2567ZM203.98 64.8488C210.285 65.2202 216.566 65.6148 222.871 65.963C223.126 65.9862 223.543 65.7541 223.682 65.522C224.4 64.1756 225.026 62.7828 225.722 61.3204C219.278 61.1579 212.95 60.9954 206.622 60.8561C206.344 60.8561 205.927 61.0419 205.788 61.274C205.139 62.4811 204.56 63.7113 203.98 64.8488ZM45.9485 97.6719C45.9485 96.2327 45.9021 94.9096 45.9717 93.6097C46.0412 92.5187 45.6471 91.7758 44.7432 91.1955C41.4286 89.0367 38.1141 86.8547 34.7996 84.6959C34.5446 84.5334 34.1969 84.3245 33.9651 84.3709C32.5976 84.7655 31.2301 85.2298 29.793 85.694C35.2168 89.7099 40.4783 93.6329 45.9485 97.6719ZM45.8789 107.421C45.8789 105.1 45.9021 103.011 45.8558 100.945C45.8558 100.597 45.5544 100.156 45.2531 99.9236C43.3293 98.438 41.3823 97.022 39.4816 95.5828C38.0446 96.3024 36.6307 97.0452 35.4254 97.6487C38.8326 100.829 42.2399 104.032 45.8789 107.421ZM225.026 80.9818C226.023 79.2408 226.95 77.5695 227.924 75.9214C228.179 75.5035 228.434 74.9232 228.828 74.7607C229.523 74.459 229.523 73.9947 229.546 73.3912C229.732 69.3985 229.917 65.3827 230.102 61.2972C229.5 61.2972 228.781 61.2508 228.039 61.3204C227.808 61.3436 227.483 61.599 227.39 61.8079C226.741 63.5721 226.116 65.3595 225.559 67.1469C224.934 69.2592 224.285 71.3948 225.165 73.7626C225.304 73.484 225.42 73.3447 225.49 73.1822C226.116 71.6966 226.695 70.1878 227.367 68.7254C227.53 68.4004 227.993 68.2147 228.318 67.9825C228.457 68.4236 228.619 68.8878 228.735 69.3289C228.758 69.4217 228.688 69.561 228.642 69.6539C227.506 72.0912 226.371 74.5286 225.235 76.966C225.096 77.2677 225.003 77.6159 224.98 77.9409C225.003 78.9158 225.026 79.8908 225.026 80.9818ZM240.579 101.873C240.649 101.456 240.788 101.038 240.811 100.62C240.927 98.5308 240.788 98.3683 238.748 98.2987C235.503 98.1826 232.281 98.0898 229.036 98.0433C226.208 98.0201 226.092 98.2058 226.232 101.061C226.232 101.131 226.301 101.2 226.394 101.386C231.03 101.549 235.712 101.711 240.579 101.873ZM225.049 91.1955C226.185 90.4759 227.275 89.7331 228.387 89.0831C229.036 88.7117 229.291 88.2707 229.291 87.5047C229.314 84.1388 229.384 80.7961 229.43 77.4302C229.43 77.1981 229.384 76.966 229.361 76.7106C227.993 78.9855 226.672 81.1907 225.374 83.4192C225.189 83.7441 225.049 84.1388 225.049 84.487C225.049 86.7154 225.049 88.8974 225.049 91.1955ZM246.188 82.1657C246.165 82.0728 246.142 81.98 246.119 81.8871C241.298 81.8871 236.453 81.8871 231.516 81.8871C231.516 83.3959 231.516 84.8816 231.516 86.4136C231.725 86.4136 231.933 86.4601 232.096 86.4136C236.801 84.9976 241.483 83.5817 246.188 82.1657ZM232.165 95.8381C232.165 95.9774 232.188 96.1399 232.188 96.2792C234.089 96.2792 236.013 96.5345 237.867 96.2095C240.301 95.7917 242.735 95.0721 245.076 94.2364C248.112 93.1454 251.079 91.7991 254.069 90.5456C254.023 90.4063 253.999 90.2438 253.953 90.1045C252.377 90.3366 250.755 90.4295 249.225 90.8473C245.516 91.8455 241.854 93.0061 238.169 94.0971C236.175 94.7007 234.182 95.2578 232.165 95.8381ZM313.568 94.5614C310.277 96.0702 307.078 97.5094 303.903 98.9719C301.353 100.156 301.353 100.179 301.585 102.988C301.585 103.011 301.608 103.057 301.724 103.243C302.535 102.872 303.37 102.523 304.181 102.106C306.916 100.69 309.628 99.204 312.363 97.788C313.962 96.9523 313.986 96.9755 313.684 95.1417C313.661 95.0024 313.615 94.8399 313.568 94.5614ZM70.1933 85.1369C67.3191 84.487 64.7927 84.6959 62.3126 86.2047C60.2497 87.4582 57.9782 88.3635 55.7994 89.4081C55.0577 89.7563 54.2928 90.0813 53.551 90.4063C53.5742 90.5224 53.5974 90.6152 53.5974 90.7312C55.1967 90.7312 56.796 90.7312 58.4185 90.7312C58.7199 90.7312 59.0212 90.6384 59.2993 90.4991C62.4053 88.9903 65.5112 87.4814 68.6171 85.9726C69.1039 85.7172 69.6138 85.4619 70.1933 85.1369ZM224.818 98.6237C224.957 96.7202 226.394 96.0238 227.854 95.3971C228.179 95.2578 228.526 95.1881 228.804 95.0024C229.059 94.8167 229.407 94.4918 229.43 94.2364C229.5 93.2151 229.453 92.1937 229.453 90.7312C227.877 91.7294 226.556 92.5187 225.258 93.3543C225.142 93.4472 225.049 93.6793 225.049 93.8418C224.957 95.4435 224.887 97.0452 224.818 98.6237ZM291.039 88.6189C292.847 87.9225 294.307 86.8779 295.721 85.3691C292.105 85.0673 291.247 85.6708 291.039 88.6189ZM228.549 169.005C228.781 170.654 229.546 171.071 231.957 171.234C231.655 170.63 231.354 170.004 231.006 169.307C230.288 169.238 229.477 169.121 228.549 169.005ZM66.4383 158.327C64.8158 157.933 64.19 158.235 63.286 159.952C65.094 160.161 65.4648 159.952 66.4383 158.327ZM58.6967 157.794C58.6967 158.536 58.6967 159.117 58.6967 160.092C59.647 159.418 60.4119 158.885 61.1768 158.351C61.1536 158.258 61.1304 158.165 61.1073 158.095C60.3424 157.979 59.5775 157.886 58.6967 157.794ZM292.685 174.809C293.218 173.161 292.87 172.859 290.784 173.114C290.923 174.205 291.642 174.646 292.685 174.809ZM106.955 161.345C106.839 161.461 106.723 161.577 106.63 161.67C107.001 162.204 107.372 162.761 107.835 163.411C108.345 162.668 108.693 162.204 109.064 161.647C108.276 161.554 107.604 161.461 106.955 161.345ZM52.6471 157.585C52.3226 158.699 52.9948 158.931 53.5742 158.931C54.0378 158.931 54.5014 158.536 54.9881 158.327C54.9418 158.188 54.8954 158.049 54.8722 157.933C54.1537 157.817 53.412 157.701 52.6471 157.585ZM151.712 164.641C151.596 164.734 151.504 164.827 151.388 164.92C151.643 165.384 151.898 165.848 152.13 166.336C152.593 165.918 153.057 165.5 153.752 164.897C152.825 164.781 152.269 164.711 151.712 164.641ZM96.2692 160.765C96.4778 161.392 96.6632 161.902 96.9182 162.668C97.4513 161.856 97.7758 161.345 98.1467 160.765C97.544 160.765 97.0341 160.765 96.2692 160.765ZM295.373 88.0385C294.817 88.5028 294.377 88.8974 293.844 89.3617C294.539 89.3617 295.002 89.3617 295.512 89.3617C295.466 88.9671 295.42 88.6189 295.373 88.0385Z" fill="#343434" fill-opacity="0.9" class="svg-elem-1 table-1"></path>
<path d="M287.353 178.386C286.959 178.456 286.589 178.618 286.195 178.595C281.953 178.479 277.711 178.456 273.493 178.201C267.953 177.876 262.413 177.342 256.897 176.947C251.079 176.529 245.284 176.181 239.466 175.763C239.049 175.74 238.655 175.485 238.238 175.345C238.238 175.229 238.238 175.113 238.215 174.997C238.563 174.858 238.91 174.603 239.258 174.603C241.831 174.556 244.427 174.463 247 174.533C251.357 174.672 255.715 174.835 260.072 175.113C263.526 175.345 266.979 175.763 270.433 176.065C274.049 176.39 277.665 176.622 281.257 176.947C282.95 177.086 284.618 177.295 286.31 177.527C286.704 177.574 287.075 177.852 287.446 178.015C287.4 178.154 287.377 178.27 287.353 178.386Z" fill="#343434" fill-opacity="0.9" class="svg-elem-2 table-2"></path>
<path d="M182.493 170.52C188.682 171.03 194.871 171.518 201.059 172.028C205.834 172.423 210.586 172.794 215.361 173.235C217.122 173.398 218.884 173.677 220.622 173.978C220.97 174.025 221.248 174.396 221.572 174.605C221.225 174.791 220.877 175.139 220.553 175.116C217.516 175.023 214.457 174.93 211.42 174.744C207.225 174.512 203.03 174.234 198.834 173.909C193.99 173.514 189.169 173.073 184.324 172.609C182.609 172.446 180.871 172.284 179.156 172.052C178.785 172.005 178.437 171.611 178.089 171.378C178.437 171.146 178.785 170.728 179.156 170.682C180.268 170.589 181.381 170.659 182.516 170.659C182.493 170.636 182.493 170.589 182.493 170.52Z" fill="#343434" fill-opacity="0.9" class="svg-elem-3 table-3"></path>
<path d="M149.719 174.373C142.997 173.863 136.252 173.398 129.53 172.818C124.617 172.4 119.703 171.866 114.789 171.379C113.838 171.286 112.888 171.1 111.938 170.868C111.683 170.799 111.474 170.427 111.266 170.195C111.544 170.032 111.822 169.754 112.1 169.754C114.951 169.847 117.802 169.893 120.653 170.102C126.007 170.474 131.338 170.938 136.693 171.402C141.769 171.843 146.822 172.307 151.898 172.841C152.431 172.888 152.918 173.375 153.404 173.654C152.871 173.839 152.361 174.095 151.805 174.164C151.11 174.257 150.414 174.188 149.719 174.188C149.742 174.257 149.719 174.304 149.719 174.373Z" fill="#343434" fill-opacity="0.9" class="svg-elem-4 table-4"></path>
<path d="M187.987 176.55C188.358 176.457 188.729 176.272 189.076 176.295C194.825 176.574 200.55 176.782 206.275 177.154C210.934 177.456 215.569 177.92 220.205 178.361C221.688 178.5 223.172 178.756 224.632 179.081C225.026 179.173 225.351 179.614 225.722 179.893C225.281 180.055 224.864 180.404 224.447 180.38C221.434 180.241 218.443 180.102 215.453 179.87C210.03 179.452 204.629 179.034 199.205 178.57C196.053 178.291 192.924 177.989 189.772 177.641C189.169 177.572 188.589 177.247 187.987 177.038C187.987 176.875 187.987 176.713 187.987 176.55Z" fill="#343434" fill-opacity="0.9" class="svg-elem-5 table-5"></path>
<path d="M146.404 168.43C145.894 168.476 145.361 168.616 144.851 168.569C137.689 168.058 130.55 167.548 123.411 167.014C121.418 166.875 119.424 166.666 117.431 166.434C117.014 166.387 116.62 166.016 116.226 165.807C116.643 165.575 117.083 165.11 117.5 165.134C122.275 165.273 127.073 165.459 131.848 165.714C135.232 165.9 138.616 166.201 142 166.526C143.136 166.642 144.272 166.944 145.384 167.246C145.825 167.362 146.172 167.757 146.566 168.012C146.474 168.151 146.45 168.291 146.404 168.43Z" fill="#343434" fill-opacity="0.9" class="svg-elem-6 table-6"></path>
<path d="M279.287 182.775C275.231 182.52 270.943 182.241 266.678 181.963C263.642 181.777 260.605 181.568 257.546 181.359C256.85 181.313 256.155 181.266 255.483 181.104C255.135 181.011 254.857 180.663 254.556 180.431C254.88 180.129 255.181 179.618 255.529 179.595C256.526 179.502 257.546 179.549 258.542 179.618C265.311 180.129 272.079 180.64 278.847 181.173C279.728 181.243 280.608 181.359 281.466 181.545C281.698 181.591 281.86 181.986 282.069 182.218C281.837 182.404 281.605 182.729 281.35 182.775C280.747 182.822 280.122 182.775 279.287 182.775Z" fill="#343434" fill-opacity="0.9" class="svg-elem-7 table-7"></path>
<path d="M79.9742 168.171C73.7855 167.474 67.5737 166.801 61.385 166.035C60.8287 165.965 60.3188 165.362 59.7856 165.014C60.3419 164.758 60.8982 164.294 61.4313 164.317C63.077 164.34 64.7227 164.526 66.3684 164.712C70.6796 165.223 75.014 165.756 79.3252 166.29C80.1596 166.383 81.0172 166.499 81.8285 166.708C82.1762 166.801 82.4543 167.172 82.7556 167.405C82.4079 167.567 82.0834 167.822 81.7126 167.869C81.1563 167.938 80.5537 167.892 79.9742 167.892C79.9974 167.985 79.9974 168.078 79.9742 168.171Z" fill="#343434" fill-opacity="0.9" class="svg-elem-8 table-8"></path>
<path d="M304.459 172.906C305.525 172.953 306.406 172.953 307.287 173.069C307.565 173.115 307.82 173.417 308.075 173.626C307.866 173.904 307.704 174.322 307.426 174.415C305.154 175.274 302.767 175.367 300.38 175.181C299.939 175.135 299.568 174.508 299.174 174.16C299.568 173.858 299.962 173.394 300.38 173.324C301.77 173.092 303.207 173.022 304.459 172.906Z" fill="#343434" fill-opacity="0.9" class="svg-elem-9 table-9"></path>
<path d="M200.48 141.848C200.178 141.871 199.993 141.894 199.808 141.894C194.871 141.639 189.933 141.384 184.996 141.105C179.99 140.827 174.983 140.548 169.977 140.269C163.046 139.875 156.093 139.48 149.162 139.109C148.235 139.062 148.05 138.528 148.05 137.716C148.143 132.029 148.235 126.342 148.258 120.655C148.282 114.735 148.235 108.816 148.166 102.897C148.143 101.782 148.49 101.434 149.626 101.481C159.477 101.806 169.305 102.107 179.155 102.363C185.761 102.525 192.367 102.595 198.973 102.641C200.109 102.641 200.526 102.897 200.503 104.127C200.457 116.151 200.48 128.199 200.457 140.223C200.48 140.711 200.48 141.221 200.48 141.848Z" fill="#F7F7F7" class="svg-elem-10 table-10"></path>
<path d="M200.48 96.2342C195.937 96.0949 191.579 96.0021 187.222 95.8628C181.195 95.6771 175.192 95.4217 169.166 95.2592C162.56 95.0735 155.954 94.9575 149.348 94.8646C148.398 94.8414 148.027 94.5396 148.073 93.5879C148.189 91.7076 148.305 89.8042 148.305 87.9007C148.328 81.3547 148.328 74.8318 148.305 68.2857C148.305 65.593 149.835 63.411 150.669 60.9737C150.716 60.8112 151.11 60.6719 151.341 60.6719C157.878 60.6719 164.391 60.6951 170.927 60.6951C170.95 60.6951 170.974 60.7415 170.997 60.7415C170.927 61.3683 170.858 61.995 170.788 62.6218C170.904 62.6914 171.02 62.7611 171.136 62.8307C171.507 62.4593 172.017 62.1575 172.248 61.7165C172.642 60.9504 173.176 60.8112 173.987 60.8112C180.709 60.8344 187.43 60.7879 194.152 60.7647C197.42 60.7647 200.712 60.7647 204.235 60.7647C203.424 62.1343 202.659 63.5039 201.824 64.8038C201.708 64.9895 201.291 65.0359 201.013 65.0359C187.987 64.9199 174.984 64.7574 161.957 64.6877C158.295 64.6645 154.633 64.8966 150.97 65.0359C150.669 65.0359 150.321 65.1288 150.113 65.2913C149.858 65.477 149.557 65.8484 149.58 66.0805C149.603 66.3126 150.02 66.5912 150.298 66.684C150.692 66.8001 151.133 66.8001 151.55 66.8001C163.788 66.9162 176.05 67.009 188.288 67.1483C192.112 67.1947 195.937 67.2876 199.761 67.3572C201.222 67.3804 201.453 67.5429 201.407 69.0518C201.245 74.3443 201.036 79.6369 200.851 84.9294C200.735 88.365 200.596 91.8005 200.48 95.2592C200.48 95.5378 200.48 95.8163 200.48 96.2342ZM167.288 74.53C166.894 74.414 166.639 74.2283 166.431 74.2747C166.152 74.3211 165.874 74.5532 165.619 74.7157C161.007 77.7798 156.881 81.4475 153.242 85.6258C153.033 85.858 152.802 86.1133 152.732 86.3919C152.639 86.7169 152.709 87.1115 152.709 87.4597C153.057 87.39 153.474 87.4364 153.706 87.2507C154.494 86.6472 155.235 85.9508 155.977 85.2776C159.407 82.1207 162.838 78.9405 166.245 75.7603C166.593 75.4585 166.848 75.0639 167.288 74.53ZM162.861 71.141C162.745 71.0017 162.629 70.8856 162.513 70.7463C162.05 70.932 161.517 71.0249 161.123 71.3034C160.08 72.023 159.037 72.7658 158.109 73.6247C156.51 75.1104 154.957 76.6656 153.451 78.2673C153.219 78.5227 153.312 79.0798 153.265 79.5208C153.636 79.428 154.076 79.428 154.331 79.2191C156.927 76.9674 159.477 74.6925 162.027 72.3944C162.351 72.0462 162.56 71.5588 162.861 71.141Z" fill="#F7F7F7" class="svg-elem-11 table-11"></path>
<path d="M72.3256 100.205C77.2858 100.205 82.107 100.182 86.9281 100.205C91.842 100.228 96.7327 100.321 101.647 100.321C102.574 100.321 102.921 100.553 102.921 101.528C102.759 112.903 102.62 124.277 102.458 135.628C102.458 135.744 102.411 135.837 102.365 136.069C100.233 135.883 98.1002 135.628 95.9446 135.512C90.8221 135.257 85.6997 135.071 80.554 134.908C80.0904 134.885 79.6037 135.419 79.117 135.698C79.1633 135.837 79.1865 135.953 79.2328 136.092C79.6501 136.232 80.0673 136.464 80.4845 136.487C85.5374 136.835 90.5672 137.114 95.6201 137.462C97.6135 137.601 99.63 137.74 101.623 137.949C101.925 137.973 102.411 138.483 102.411 138.785C102.296 145.331 102.133 151.854 101.994 158.377C101.994 158.4 101.948 158.423 101.786 158.586C101.183 158.539 100.464 158.446 99.7459 158.4C95.7128 158.145 91.6566 157.936 87.6235 157.634C82.7328 157.286 77.8653 156.868 72.9746 156.45C72.3256 156.404 71.8389 156.172 71.8389 155.313C72.0011 136.974 72.1634 118.659 72.3024 100.321C72.3024 100.251 72.3488 100.135 72.3256 100.205ZM97.1963 140.712C96.3386 141.013 95.6896 141.13 95.1797 141.455C92.8155 143.033 90.4513 144.635 88.1798 146.352C85.9315 148.024 83.7295 149.788 81.5739 151.599C81.1567 151.947 81.0176 152.597 80.6467 153.293C82.1765 153.084 96.779 142.058 97.1963 140.712ZM87.2758 140.41C87.2526 140.294 87.2295 140.155 87.2063 140.039C86.7891 140.039 86.3255 139.899 85.9778 140.062C82.6401 141.687 79.6269 143.845 77.0077 146.469C76.7295 146.747 76.7064 147.327 76.5673 147.768C76.9845 147.699 77.4017 147.629 77.8189 147.536C77.9348 147.513 78.0275 147.42 78.1203 147.351C80.948 145.285 83.7527 143.195 86.5804 141.106C86.8586 140.944 87.0672 140.665 87.2758 140.41ZM100.441 110.581C100.488 110.581 100.511 110.581 100.557 110.581C100.557 109.165 100.627 107.726 100.511 106.31C100.488 105.939 99.9313 105.59 99.6068 105.219C99.3519 105.59 98.9114 105.939 98.8883 106.31C98.7028 109.351 98.587 112.392 98.5174 115.433C98.5174 115.827 99.0042 116.222 99.2823 116.64C99.5605 116.315 100.07 116.013 100.117 115.665C100.302 113.947 100.349 112.253 100.441 110.581Z" fill="#F7F7F7" class="svg-elem-12 table-12"></path>
<path d="M242.132 139.273C246.002 139.506 249.641 139.691 253.304 139.923C257.198 140.179 261.069 140.55 264.963 140.736C270.943 141.038 276.923 141.2 282.88 141.479C287.724 141.688 292.591 141.989 297.436 142.221C298.966 142.291 298.966 142.291 298.966 143.8C298.966 152.157 298.966 160.513 298.966 168.847C298.966 170.472 298.734 170.773 297.088 170.727C292.916 170.565 288.767 170.332 284.595 170.077C280.817 169.845 277.062 169.566 273.284 169.311C269.39 169.056 265.519 168.777 261.625 168.545C257.661 168.313 253.698 168.127 249.711 167.918C246.976 167.779 244.264 167.616 241.413 167.454C241.691 158.03 241.9 148.744 242.132 139.273ZM270.989 149C270.989 148.953 270.989 148.907 270.989 148.86C273.191 148.86 275.393 148.93 277.595 148.837C279.356 148.768 281.164 148.582 282.346 146.934C282.787 146.307 283.088 145.587 282.439 145.1C282.092 144.821 281.211 144.821 280.817 145.077C279.542 145.889 278.174 146.098 276.737 146.075C274.489 146.075 272.264 146.121 270.015 146.052C267.095 145.959 264.151 145.819 261.231 145.634C260.35 145.587 259.678 145.17 259.261 144.264C259.122 143.962 258.38 143.684 257.986 143.777C256.92 144.009 256.618 145.262 257.36 146.307C258.171 147.468 259.4 147.978 260.721 148.118C264.151 148.489 267.559 148.721 270.989 149ZM290.042 151.971C289.926 151.739 289.81 151.46 289.764 151.46C289.439 151.507 289.068 151.53 288.836 151.716C286.194 153.967 283.552 156.219 280.933 158.494C279.75 159.538 278.592 160.629 277.502 161.767C277.294 161.976 277.409 162.51 277.363 162.904C277.664 162.858 278.082 162.904 278.29 162.719C282.022 159.422 285.731 156.103 289.416 152.783C289.648 152.574 289.833 152.249 290.042 151.971ZM291.827 158.331C291.687 158.169 291.548 157.937 291.432 157.937C291.108 157.96 290.737 158.006 290.505 158.192C288.512 159.887 286.542 161.604 284.618 163.392C284.34 163.647 284.363 164.204 284.27 164.645C284.664 164.576 285.197 164.645 285.476 164.413C287.515 162.602 289.485 160.722 291.479 158.842C291.618 158.726 291.687 158.54 291.827 158.331Z" fill="#F7F7F7" class="svg-elem-13 table-13"></path>
<path d="M104.984 100.574C105.332 100.574 105.749 100.574 106.166 100.574C118.01 100.899 129.878 101.201 141.722 101.549C142.603 101.572 143.507 101.805 144.364 101.735C145.639 101.619 145.964 102.246 145.964 103.337C145.964 106.006 146.01 108.676 146.01 111.345C146.01 119.632 145.987 127.896 145.964 136.183C145.964 137.019 145.964 137.877 145.964 138.968C132.242 138.04 118.682 137.135 104.984 136.206C104.984 124.275 104.984 112.506 104.984 100.574ZM141.374 109.743C141.421 109.743 141.467 109.743 141.49 109.743C141.49 108.583 141.56 107.422 141.444 106.285C141.397 105.89 140.864 105.542 140.54 105.147C140.215 105.472 139.868 105.774 139.59 106.145C139.474 106.308 139.52 106.586 139.52 106.819C139.52 108.908 139.474 110.997 139.543 113.063C139.566 113.573 140.007 114.409 140.354 114.456C141.235 114.595 141.282 113.69 141.328 113.086C141.421 111.995 141.374 110.881 141.374 109.743Z" fill="#F7F7F7" class="svg-elem-14 table-14"></path>
<path d="M69.799 156.055C62.5209 155.59 55.3355 155.103 48.1733 154.639C48.1733 136.161 48.1733 117.637 48.1733 99.0898C55.1037 99.322 61.8951 99.5773 68.6864 99.7862C69.7294 99.8094 70.2393 100.134 70.2393 101.272C70.193 111.903 70.2393 122.535 70.1698 133.167C70.1235 140.432 69.938 147.698 69.8221 154.964C69.799 155.381 69.799 155.753 69.799 156.055ZM67.8983 110.023H67.9215C67.9215 109.188 67.9678 108.329 67.8983 107.493C67.8751 107.145 67.6202 106.797 67.4579 106.472C67.2029 106.797 66.7857 107.098 66.7394 107.47C66.5076 109.188 66.3454 110.905 66.2063 112.623C66.1599 113.296 66.2063 113.993 66.299 114.689C66.3222 114.875 66.6003 115.13 66.8321 115.176C66.9712 115.223 67.2725 114.991 67.342 114.805C67.5043 114.457 67.6202 114.085 67.6434 113.714C67.7824 112.484 67.8288 111.253 67.8983 110.023ZM51.8819 109.791C52.9481 109.698 57.1203 104.15 57.3984 102.525C55.8223 102.572 51.9051 107.702 51.8819 109.791Z" fill="#F7F7F7" class="svg-elem-15 table-15"></path>
<path d="M225.652 103.5C230.774 103.686 235.688 103.871 240.602 104.057C240.139 125.111 239.675 146.096 239.211 167.405C234.112 166.988 228.99 166.57 223.821 166.152C224.447 145.214 225.049 124.461 225.652 103.5Z" fill="#F7F7F7" class="svg-elem-16 table-16"></path>
<path d="M299.151 123.464C299.151 128.849 299.151 134.258 299.151 139.782C298.27 139.782 297.482 139.806 296.694 139.782C284.131 139.249 271.545 138.715 258.983 138.181C254.092 137.972 249.178 137.74 244.287 137.484C242.224 137.368 242.201 137.345 242.248 135.256C242.363 130.265 242.503 125.298 242.642 120.121C261.509 121.235 280.284 122.35 299.151 123.464ZM272.797 131.89C272.797 131.82 272.797 131.774 272.82 131.704C274.814 131.704 276.83 131.751 278.823 131.681C280.052 131.635 281.164 131.078 281.582 129.917C281.813 129.29 281.79 128.176 281.373 127.735C280.747 127.062 280.052 127.781 279.426 128.269C278.893 128.687 278.151 129.105 277.525 129.081C272.542 128.988 267.582 128.826 262.598 128.617C261.324 128.571 259.933 128.501 259.469 126.83C259.4 126.574 258.704 126.273 258.357 126.342C258.009 126.412 257.592 126.876 257.499 127.247C257.267 128.246 257.522 129.244 258.426 129.801C259.261 130.312 260.188 130.845 261.138 130.962C265.032 131.356 268.926 131.588 272.797 131.89Z" fill="#F7F7F7" class="svg-elem-17 table-17"></path>
<path d="M103.941 158.723C104.243 151.968 104.544 145.236 104.845 138.574C118.498 139.363 132.103 140.129 145.802 140.919C145.686 147.999 145.57 154.939 145.454 161.95C131.663 160.882 117.872 159.814 103.941 158.723ZM125.243 153.268C125.683 153.036 125.984 152.92 126.216 152.757C127.862 151.573 129.531 150.366 131.176 149.183C132.706 148.068 134.236 146.977 135.719 145.793C135.974 145.585 135.997 145.074 136.136 144.702C135.766 144.702 135.302 144.586 135.024 144.749C131.64 146.583 128.372 148.625 125.637 151.365C125.358 151.643 125.08 152.015 124.964 152.386C124.848 152.595 125.103 152.897 125.243 153.268ZM126.007 143.774C125.892 143.635 125.752 143.472 125.637 143.333C121.418 145.167 117.756 147.859 114.511 151.318C115.021 151.457 115.554 151.55 115.878 151.318C118.961 149.206 121.998 147.047 125.034 144.888C125.428 144.61 125.683 144.145 126.007 143.774Z" fill="#F7F7F7" class="svg-elem-18 table-18"></path>
<path d="M299.337 106.216C299.337 111.183 299.337 116.081 299.337 121.118C296.694 120.979 294.168 120.84 291.641 120.7C286.449 120.422 281.234 120.143 276.042 119.865C271.337 119.609 266.655 119.308 261.95 119.029C257.569 118.774 253.165 118.495 248.784 118.263C247.162 118.17 245.539 118.124 243.94 118.008C243.36 117.961 242.665 117.984 242.665 117.033C242.688 112.831 242.665 108.63 242.665 104.266C261.741 104.892 280.516 105.566 299.337 106.216ZM273.956 114.735C273.956 114.665 273.979 114.595 273.979 114.526C274.281 114.526 274.605 114.526 274.906 114.526C276.645 114.549 278.383 114.642 280.006 113.829C280.887 113.388 281.628 112.831 281.582 111.763C281.559 111.322 281.35 110.696 281.002 110.51C280.678 110.324 279.913 110.394 279.658 110.672C278.221 112.181 276.413 112.135 274.605 112.042C271.476 111.879 268.347 111.763 265.241 111.438C263.317 111.253 261.138 111.601 259.84 109.465C259.724 109.256 258.821 109.28 258.45 109.512C257.731 109.953 257.569 111.253 258.241 111.879C259.029 112.599 260.026 113.388 261.022 113.504C265.334 114.062 269.645 114.34 273.956 114.735Z" fill="#F7F7F7" class="svg-elem-19 table-19"></path>
<path d="M170.533 149.112C166.686 151.596 162.861 153.732 159.547 156.958C160.821 157.515 161.447 156.912 162.073 156.494C164.53 154.892 167.056 153.384 169.374 151.596C171.924 149.646 174.613 148.927 177.765 149.577C179.086 149.855 180.546 149.6 181.775 150.064C184.556 151.085 187.338 150.273 190.119 150.482C193.503 150.737 196.887 150.784 200.271 150.923C200.271 156.076 200.271 161.113 200.271 166.267C197.953 166.104 195.775 165.942 193.596 165.779C189.748 165.501 185.901 165.222 182.053 164.92C177.44 164.572 172.828 164.201 168.215 163.829C164.066 163.504 159.917 163.156 155.768 162.808C153.497 162.622 151.225 162.437 148.954 162.251C147.957 162.181 147.563 161.694 147.61 160.672C147.725 156.657 147.749 152.641 147.841 148.602C147.888 147.116 148.073 147.046 149.51 147.186C154.192 147.627 158.874 148.021 163.556 148.439C165.828 148.625 168.076 148.857 170.533 149.112ZM183.096 157.144C183.119 157.144 183.119 157.144 183.142 157.144C183.166 156.61 183.189 156.076 183.235 155.542C183.305 154.823 183.142 154.15 182.308 154.103C181.427 154.057 181.01 154.614 181.01 155.496C181.01 156.726 181.01 157.956 181.01 159.187C181.01 159.883 181.265 160.278 182.007 160.255C182.702 160.255 183.096 159.93 183.096 159.233C183.119 158.537 183.096 157.84 183.096 157.144ZM188.427 156.982C188.427 156.401 188.427 155.821 188.427 155.241C188.45 154.614 188.52 153.848 187.662 153.825C186.851 153.801 186.596 154.475 186.573 155.194C186.503 156.54 186.434 157.887 186.434 159.256C186.434 159.767 186.434 160.44 187.222 160.417C187.94 160.371 188.473 160.069 188.45 159.21C188.404 158.444 188.427 157.724 188.427 156.982Z" fill="#F7F7F7" class="svg-elem-20 table-20"></path>
<path d="M222.477 103.734C222.477 105.846 222.5 107.959 222.477 110.071C222.407 120.308 222.338 130.568 222.268 140.805C222.245 142.825 222.245 142.802 220.275 142.685C214.92 142.407 209.566 142.152 204.212 141.896C202.613 141.827 202.566 141.827 202.589 140.271C202.705 128.41 202.821 116.548 202.937 104.663C202.937 104.129 203.007 103.595 203.053 102.898C209.52 103.2 215.963 103.456 222.477 103.734ZM216.589 114.783C216.427 114.505 216.334 114.18 216.218 114.157C215.94 114.134 215.593 114.203 215.407 114.389C213.808 115.874 212.209 117.383 210.702 118.962C210.424 119.264 210.54 119.96 210.47 120.447C210.98 120.308 211.629 120.331 211.954 120.006C213.344 118.637 214.665 117.174 215.987 115.712C216.218 115.433 216.381 115.108 216.589 114.783ZM208.245 114.783C208.338 114.876 208.43 114.946 208.546 115.039C208.824 114.946 209.195 114.946 209.381 114.76C211.142 112.996 212.904 111.209 214.619 109.375C214.781 109.189 214.619 108.702 214.596 108.353C214.295 108.423 213.877 108.4 213.692 108.586C212.046 110.211 210.401 111.835 208.824 113.507C208.523 113.832 208.43 114.366 208.245 114.783Z" fill="#F7F7F7" class="svg-elem-21 table-21"></path>
<path d="M313.569 99.4397C313.569 101.691 313.615 103.966 313.569 106.218C313.43 113.53 313.244 120.819 313.128 128.131C312.966 137.439 312.85 146.771 312.688 156.079C312.688 156.497 312.526 157.031 312.248 157.333C308.979 160.931 305.688 164.506 302.373 168.08C302.049 168.429 301.632 168.707 301.099 169.148C301.052 168.638 301.006 168.266 301.029 167.918C301.191 147.398 301.377 126.854 301.562 106.334C301.562 105.963 301.771 105.382 302.072 105.243C305.827 103.293 309.605 101.39 313.383 99.4861C313.476 99.4165 313.615 99.4164 313.569 99.4397ZM310.834 133.772C310.648 133.54 310.509 133.122 310.254 133.052C309.999 132.982 309.559 133.191 309.397 133.4C308.006 135.281 306.638 137.184 305.364 139.134C305.155 139.459 305.363 140.086 305.387 140.573C305.827 140.411 306.476 140.387 306.708 140.086C308.052 138.229 309.327 136.302 310.602 134.398C310.671 134.236 310.718 134.05 310.834 133.772ZM305.085 149.789C305.201 149.928 305.317 150.044 305.456 150.183C305.92 149.905 306.522 149.742 306.801 149.348C308.099 147.583 309.35 145.773 310.579 143.939C311.019 143.266 310.95 142.639 310.046 142.059C308.122 144.496 306.082 146.794 305.085 149.789ZM310.926 151.994C310.834 151.924 310.718 151.855 310.625 151.785C310.231 152.11 309.791 152.388 309.443 152.76C308.423 153.874 307.403 154.988 306.476 156.149C305.618 157.24 304.83 158.377 304.089 159.538C303.926 159.793 304.066 160.234 304.066 160.583C304.39 160.443 304.807 160.397 305.016 160.142C306.824 157.936 308.632 155.731 310.37 153.479C310.648 153.085 310.718 152.505 310.926 151.994ZM304.46 115.039C304.529 115.132 304.622 115.224 304.691 115.317C305.155 115.062 305.711 114.923 306.082 114.551C307.635 113.042 309.142 111.487 310.602 109.909C310.857 109.63 310.81 109.096 310.903 108.702C310.509 108.771 309.976 108.702 309.721 108.934C308.145 110.466 306.615 112.044 305.132 113.646C304.807 114.017 304.691 114.575 304.46 115.039ZM304.946 122.258C305.062 122.328 305.178 122.397 305.294 122.49C305.688 122.188 306.175 121.933 306.499 121.538C307.635 120.169 308.724 118.776 309.814 117.383C309.976 117.174 310.138 116.919 310.161 116.664C310.185 116.362 310.022 116.037 309.953 115.712C309.652 115.782 309.211 115.758 309.049 115.967C307.82 117.453 306.592 118.939 305.479 120.494C305.132 120.958 305.109 121.654 304.946 122.258ZM304.691 130.708C304.807 130.94 304.969 131.358 305.016 131.358C305.364 131.265 305.781 131.149 305.966 130.893C307.264 129.152 308.539 127.365 309.814 125.577C309.883 125.485 309.976 125.369 309.953 125.276C309.907 124.951 309.814 124.649 309.744 124.324C309.489 124.417 309.118 124.417 308.979 124.603C307.705 126.181 306.453 127.783 305.224 129.408C304.993 129.756 304.9 130.22 304.691 130.708Z" fill="#F7F7F7" class="svg-elem-22 table-22"></path>
<path d="M203.656 67.4727C209.937 67.4727 216.126 67.4727 222.523 67.4727C222.523 77.1989 222.523 86.9251 222.523 96.8139C216.08 96.6746 209.613 96.5585 203.007 96.4192C203.239 86.7394 203.447 77.1293 203.656 67.4727Z" fill="#F7F7F7" class="svg-elem-23 table-23"></path>
<path d="M202.381 144.285C203.934 144.355 205.348 144.448 206.762 144.494C211.467 144.657 216.172 144.819 220.877 144.912C221.851 144.935 222.152 145.214 222.106 146.165C221.92 152.735 221.758 159.304 221.596 165.873C221.573 167.057 221.156 167.498 219.973 167.428C215.152 167.196 210.354 166.918 205.533 166.639C204.49 166.593 203.47 166.5 202.381 166.43C202.381 159.049 202.381 151.69 202.381 144.285Z" fill="#F7F7F7" class="svg-elem-24 table-24"></path>
<path d="M313.869 52.8278C313.499 55.7062 313.174 58.2597 312.826 60.8131C312.154 65.8967 311.505 70.9804 310.81 76.064C310.509 78.2692 310.045 80.4745 309.72 82.6797C309.605 83.4457 309.257 83.5618 308.538 83.5154C301.654 83.0743 294.747 82.6333 287.863 82.2387C283.019 81.9601 278.151 81.7512 273.284 81.5191C272.82 81.4958 272.38 81.403 271.8 81.3101C271.986 79.6852 272.171 78.1299 272.357 76.5747C272.867 72.4892 273.376 68.3805 273.956 64.295C274.466 60.6274 275.022 56.9597 275.625 53.3153C275.671 52.9671 276.227 52.5028 276.598 52.4796C278.012 52.3636 279.449 52.3403 280.886 52.3636C289.926 52.5028 298.966 52.6885 307.982 52.851C309.906 52.8742 311.83 52.8278 313.869 52.8278ZM288.049 54.4063C288.049 54.4759 288.049 54.5456 288.049 54.6152C285.545 54.6152 283.019 54.6152 280.515 54.6152C278.777 54.6152 278.128 55.1491 277.896 56.8436C277.525 59.4899 277.224 62.113 276.83 64.7593C276.274 68.543 275.625 72.3035 275.068 76.064C274.86 77.4568 275.208 77.8282 276.598 77.9442C279.797 78.1764 282.996 78.3389 286.194 78.5246C290.575 78.8031 294.979 79.1281 299.36 79.3835C301.631 79.5227 303.903 79.6156 306.174 79.7084C307.055 79.7549 307.519 79.3138 307.658 78.4317C308.075 75.8783 308.608 73.3481 308.956 70.7947C309.512 66.8252 309.952 62.8326 310.509 58.8632C310.833 56.5419 310.3 55.7991 307.936 55.5205C307.519 55.4741 307.101 55.3348 306.684 55.3116C300.449 55.033 294.26 54.7081 288.049 54.4063Z" fill="#F7F7F7" class="svg-elem-25 table-25"></path>
<path d="M246.049 95.9562C250.268 94.2848 254.463 92.5903 258.682 90.9886C259.447 90.6868 260.351 90.6172 261.162 90.6172C269.066 90.8029 276.993 91.0118 284.897 91.2904C289.671 91.4529 294.446 91.7779 299.221 92.0332C303.347 92.2421 307.473 92.451 311.598 92.6599C311.784 92.6599 311.946 92.6832 312.479 92.7528C310.602 93.542 309.026 94.2152 307.449 94.8884C305.201 95.8633 303.022 97.2793 300.658 97.6971C297.668 98.231 294.516 98.0221 291.456 97.9757C286.635 97.9061 281.814 97.7436 276.993 97.5579C269.738 97.3025 262.483 96.9776 255.251 96.699C252.215 96.5829 249.178 96.4436 246.119 96.3044C246.096 96.1883 246.072 96.0722 246.049 95.9562Z" fill="#F7F7F7" class="svg-elem-26 table-26"></path>
<path d="M48.1965 97.0485C48.1965 95.8182 48.1269 94.704 48.2428 93.5898C48.266 93.2648 48.7991 92.7541 49.1468 92.7309C51.0706 92.5684 53.0176 92.3595 54.9183 92.4988C70.3088 93.6594 85.6994 93.3344 101.113 93.3808C101.577 93.3808 102.04 93.3808 102.689 93.3808C102.689 94.2165 102.689 95.0058 102.689 95.795C102.689 96.561 102.689 97.3271 102.689 98.0931C84.5405 97.7681 66.4612 97.3967 48.1965 97.0485Z" fill="#F7F7F7" class="svg-elem-27 table-27"></path>
<path d="M200.41 144.264C200.41 145.726 200.41 147.096 200.41 148.604C199.576 148.604 198.765 148.651 197.977 148.604C190.328 148.094 182.679 147.56 175.007 147.026C170 146.678 164.994 146.376 160.01 146.051C156.441 145.819 152.848 145.587 149.279 145.355C148.375 145.308 147.934 144.914 148.004 143.962C148.073 143.08 148.096 142.198 148.143 141.223C165.573 142.267 182.957 143.265 200.41 144.264Z" fill="#F7F7F7" class="svg-elem-28 table-28"></path>
<path d="M63.4019 90.3611C65.3025 89.5022 67.2263 88.6665 69.127 87.8076C70.3091 87.2737 71.7925 86.972 72.6038 86.0899C73.7627 84.79 74.9912 85.115 76.3123 85.1846C79.3951 85.3239 82.4778 85.4399 85.5838 85.5096C94.3685 85.672 103.176 85.8113 112.054 85.9506C110.315 87.0416 108.577 88.1559 106.862 89.2469C106.444 89.5254 105.958 89.7111 105.587 90.0593C104.011 91.5217 102.133 91.6378 100.094 91.4985C96.5009 91.2664 92.9082 91.22 89.3155 91.1503C81.203 90.9878 73.0905 90.8718 64.978 90.7325C64.4681 90.7325 63.935 90.6629 63.425 90.6396C63.425 90.5236 63.4019 90.4307 63.4019 90.3611Z" fill="#F7F7F7" class="svg-elem-29 table-29"></path>
<path d="M145.825 93.2383C145.825 95.4899 145.825 97.6255 145.825 99.7843C132.15 98.2755 118.474 99.2969 104.776 98.2987C104.729 97.0452 104.59 95.7453 104.637 94.4453C104.66 93.5168 105.471 93.5865 106.12 93.5865C109.018 93.6097 111.915 93.7025 114.812 93.7025C123.69 93.6793 132.567 93.6329 141.444 93.5633C142.835 93.5633 144.249 93.3543 145.825 93.2383Z" fill="#F7F7F7" class="svg-elem-30 table-30"></path>
<path d="M242.92 102.013C242.92 100.805 242.92 99.7377 242.92 98.4609C261.718 99.1109 280.469 99.7377 299.453 100.388C299.453 100.968 299.453 101.525 299.453 102.082C299.453 102.616 299.453 103.15 299.453 103.893C280.585 103.266 261.787 102.639 242.92 102.013Z" fill="#F7F7F7" class="svg-elem-31 table-31"></path>
<path d="M107.047 91.383C108.368 90.5473 109.573 89.8045 110.755 89.0617C112.355 88.0403 113.931 87.0189 115.507 85.9976C115.739 85.8583 116.063 85.7422 116.341 85.7422C126.03 85.7422 135.742 85.7422 145.431 85.7422C145.57 85.7422 145.732 85.7886 145.941 85.8118C145.941 87.6457 145.941 89.4331 145.941 91.383C133.03 91.383 120.143 91.383 107.047 91.383Z" fill="#F7F7F7" class="svg-elem-32 table-32"></path>
<path d="M148.374 97.1172C173.175 97.7439 197.907 98.3707 222.708 98.9975C222.639 99.926 222.569 100.762 222.523 101.365C209.172 101.11 195.914 100.901 182.679 100.599C173.036 100.367 163.394 100.019 153.752 99.7171C152.315 99.6706 150.901 99.601 149.464 99.6939C148.282 99.7635 148.05 99.2296 148.212 98.2546C148.282 97.9064 148.328 97.5582 148.374 97.1172Z" fill="#F7F7F7" class="svg-elem-33 table-33"></path>
<path d="M55.2891 87.3205C52.8322 88.3883 50.4911 89.4561 48.1038 90.431C47.7793 90.5703 47.223 90.3614 46.8985 90.1293C42.9581 87.5758 39.1568 84.7671 35.0774 82.4458C30.0013 79.5441 24.7166 77.0371 19.5246 74.3444C19.1537 74.1587 18.7828 73.9498 18.2034 73.648C19.3159 72.8356 20.2663 71.9767 21.3557 71.4428C21.8656 71.1875 22.7232 71.4196 23.3258 71.6749C28.5179 73.9034 33.7794 76.0158 38.8555 78.4763C43.8389 80.8905 48.6369 83.676 53.5044 86.2991C54.0838 86.6009 54.5938 86.9259 55.2891 87.3205Z" fill="#F7F7F7" class="svg-elem-34 table-34"></path>
<path d="M250.986 83.2617C250.986 84.5384 250.986 85.8151 250.986 87.0919C250.986 87.8579 250.569 88.2757 249.851 88.5078C243.639 90.3881 237.427 92.2683 231.006 94.2182C231.192 92.5005 231.331 90.7131 231.586 88.9721C231.632 88.6703 232.142 88.3222 232.49 88.2293C238.586 86.5348 244.728 84.9098 250.986 83.2617Z" fill="#F7F7F7" class="svg-elem-35 table-35"></path>
<path d="M203.98 64.852C204.559 63.7146 205.139 62.4843 205.811 61.2772C205.95 61.0451 206.367 60.8594 206.646 60.8594C212.973 60.9987 219.301 61.1611 225.745 61.3236C225.049 62.7861 224.4 64.1788 223.705 65.5252C223.589 65.7573 223.172 65.9894 222.894 65.9662C216.589 65.618 210.285 65.2466 203.98 64.852Z" fill="#F7F7F7" class="svg-elem-36 table-36"></path>
<path d="M45.9485 97.677C40.4783 93.6379 35.2168 89.715 29.793 85.6991C31.2532 85.2348 32.5976 84.7706 33.9651 84.376C34.1969 84.3063 34.5446 84.5384 34.7996 84.7009C38.1141 86.8597 41.4286 89.0418 44.7432 91.2006C45.6471 91.7809 46.018 92.5469 45.9716 93.6147C45.9021 94.9147 45.9485 96.2378 45.9485 97.677Z" fill="#F7F7F7" class="svg-elem-37 table-37"></path>
<path d="M45.8788 107.425C42.2398 104.035 38.8325 100.832 35.4021 97.6519C36.6074 97.0484 38.0213 96.3055 39.4584 95.5859C41.3822 97.0251 43.3292 98.4412 45.2298 99.9268C45.5311 100.159 45.8325 100.6 45.8325 100.948C45.902 103.014 45.8788 105.103 45.8788 107.425Z" fill="#F7F7F7" class="svg-elem-38 table-38"></path>
<path d="M225.026 80.9851C225.026 79.8941 225.003 78.9192 225.049 77.9675C225.049 77.6425 225.165 77.2943 225.304 76.9925C226.44 74.5552 227.576 72.1178 228.712 69.6804C228.758 69.5876 228.828 69.4483 228.804 69.3554C228.688 68.8912 228.526 68.4502 228.387 68.0091C228.063 68.2644 227.576 68.4269 227.437 68.7519C226.765 70.2143 226.185 71.7232 225.559 73.2088C225.49 73.3713 225.397 73.5338 225.235 73.7891C224.354 71.4214 225.003 69.2858 225.629 67.1734C226.162 65.3628 226.811 63.5986 227.46 61.8344C227.53 61.6255 227.877 61.3702 228.109 61.347C228.828 61.2773 229.569 61.3238 230.172 61.3238C229.986 65.4092 229.778 69.4251 229.616 73.4177C229.592 74.0213 229.569 74.4855 228.897 74.7873C228.503 74.973 228.248 75.5301 227.993 75.9479C226.95 77.5961 226.023 79.2442 225.026 80.9851Z" fill="#F7F7F7" class="svg-elem-39 table-39"></path>
<path d="M240.579 101.875C235.711 101.712 231.006 101.55 226.37 101.387C226.278 101.202 226.208 101.132 226.208 101.062C226.046 98.2071 226.185 98.0214 229.013 98.0446C232.258 98.091 235.503 98.1839 238.725 98.3C240.764 98.3696 240.903 98.5553 240.787 100.621C240.787 101.062 240.672 101.457 240.579 101.875Z" fill="#F7F7F7" class="svg-elem-40 table-40"></path>
<path d="M225.049 91.196C225.049 88.898 225.026 86.716 225.072 84.5107C225.072 84.1393 225.212 83.7447 225.397 83.4429C226.695 81.2145 228.016 79.0092 229.384 76.7344C229.407 76.9665 229.453 77.1986 229.453 77.454C229.407 80.8199 229.337 84.1625 229.314 87.5284C229.314 88.2712 229.036 88.7355 228.41 89.1069C227.274 89.7336 226.208 90.4764 225.049 91.196Z" fill="#F7F7F7" class="svg-elem-41 table-41"></path>
<path d="M246.188 82.1653C241.483 83.5813 236.801 84.9973 232.096 86.4132C231.933 86.4597 231.725 86.4132 231.516 86.4132C231.516 84.8812 231.516 83.3956 231.516 81.8867C236.453 81.8867 241.274 81.8867 246.119 81.8867C246.142 81.9796 246.165 82.0724 246.188 82.1653Z" fill="#F7F7F7" class="svg-elem-42 table-42"></path>
<path d="M232.165 95.8391C234.158 95.2587 236.175 94.7016 238.168 94.0981C241.854 93.0071 245.516 91.8696 249.225 90.8483C250.754 90.4304 252.377 90.3376 253.953 90.1055C253.999 90.2447 254.022 90.4072 254.069 90.5465C251.079 91.7768 248.135 93.1464 245.076 94.2374C242.734 95.0731 240.324 95.7927 237.867 96.2105C236.036 96.5123 234.089 96.2801 232.188 96.2801C232.188 96.1408 232.188 96.0016 232.165 95.8391Z" fill="#F7F7F7" class="svg-elem-43 table-43"></path>
<path d="M313.568 94.5625C313.638 94.8411 313.661 94.9803 313.684 95.1428C313.986 96.9766 313.962 96.9534 312.363 97.7891C309.628 99.2051 306.916 100.691 304.181 102.107C303.37 102.525 302.535 102.873 301.724 103.244C301.631 103.058 301.608 103.012 301.585 102.989C301.33 100.18 301.33 100.157 303.903 98.973C307.078 97.5105 310.277 96.0713 313.568 94.5625Z" fill="#F7F7F7" class="svg-elem-44 table-44"></path>
<path d="M70.1932 85.1409C69.5906 85.4659 69.1038 85.7212 68.5939 85.9766C65.488 87.4854 62.3821 88.9943 59.2761 90.5031C58.998 90.6424 58.6967 90.7352 58.3953 90.7352C56.796 90.7584 55.1967 90.7352 53.5742 90.7352C53.551 90.6192 53.5278 90.5263 53.5278 90.4103C54.2695 90.0853 55.0344 89.7603 55.7762 89.4121C57.9549 88.3675 60.2264 87.4622 62.2893 86.2087C64.7926 84.6999 67.3191 84.4909 70.1932 85.1409Z" fill="#F7F7F7" class="svg-elem-45 table-45"></path>
<path d="M224.817 98.6229C224.887 97.0212 224.956 95.4195 225.049 93.841C225.049 93.6785 225.142 93.4232 225.258 93.3535C226.556 92.5179 227.854 91.7054 229.453 90.7305C229.453 92.1929 229.499 93.2143 229.43 94.2357C229.407 94.5142 229.059 94.816 228.804 95.0017C228.526 95.1874 228.178 95.257 227.854 95.3963C226.394 96.0463 224.956 96.7194 224.817 98.6229Z" fill="#F7F7F7" class="svg-elem-46 table-46"></path>
<path d="M291.039 88.6204C291.247 85.6724 292.082 85.0688 295.721 85.3706C294.307 86.8795 292.847 87.924 291.039 88.6204Z" fill="#F7F7F7" class="svg-elem-47 table-47"></path>
<path d="M228.549 169.008C229.476 169.124 230.288 169.217 231.006 169.31C231.354 170.029 231.655 170.656 231.957 171.236C229.523 171.097 228.781 170.656 228.549 169.008Z" fill="#F7F7F7" class="svg-elem-48 table-48"></path>
<path d="M66.4379 158.33C65.4876 159.955 65.1168 160.164 63.2856 159.955C64.1896 158.237 64.7923 157.935 66.4379 158.33Z" fill="#F7F7F7" class="svg-elem-49 table-49"></path>
<path d="M58.6968 157.797C59.5544 157.89 60.3193 157.983 61.1074 158.075C61.1305 158.168 61.1537 158.261 61.1769 158.331C60.412 158.865 59.6471 159.422 58.6968 160.072C58.6968 159.12 58.6968 158.54 58.6968 157.797Z" fill="#F7F7F7" class="svg-elem-50 table-50"></path>
<path d="M292.684 174.814C291.641 174.628 290.923 174.21 290.784 173.119C292.893 172.864 293.241 173.166 292.684 174.814Z" fill="#F7F7F7" class="svg-elem-51 table-51"></path>
<path d="M106.954 161.348C107.627 161.441 108.276 161.557 109.064 161.673C108.693 162.207 108.345 162.694 107.835 163.437C107.372 162.764 107.001 162.23 106.63 161.696C106.723 161.58 106.838 161.464 106.954 161.348Z" fill="#F7F7F7" class="svg-elem-52 table-52"></path>
<path d="M52.6472 157.586C53.4121 157.702 54.1306 157.818 54.8723 157.934C54.9187 158.073 54.9651 158.213 54.9882 158.329C54.5247 158.538 54.0611 158.932 53.5744 158.932C52.9949 158.932 52.3227 158.7 52.6472 157.586Z" fill="#F7F7F7" class="svg-elem-53 table-53"></path>
<path d="M151.712 164.645C152.268 164.714 152.825 164.784 153.752 164.877C153.057 165.48 152.593 165.898 152.129 166.316C151.874 165.852 151.619 165.387 151.388 164.9C151.48 164.83 151.596 164.737 151.712 164.645Z" fill="#F7F7F7" class="svg-elem-54 table-54"></path>
<path d="M96.269 160.77C97.0339 160.77 97.5439 160.77 98.1465 160.77C97.7756 161.373 97.4511 161.861 96.918 162.673C96.6631 161.907 96.4777 161.396 96.269 160.77Z" fill="#F7F7F7" class="svg-elem-55 table-55"></path>
<path d="M295.373 88.0391C295.443 88.6194 295.466 88.9444 295.512 89.3622C295.002 89.3622 294.539 89.3622 293.843 89.3622C294.376 88.898 294.817 88.5265 295.373 88.0391Z" fill="#F7F7F7" class="svg-elem-56 table-56"></path>
<path d="M167.288 74.5322C166.847 75.0661 166.592 75.4607 166.268 75.7624C162.861 78.9426 159.43 82.0996 156 85.2798C155.258 85.9529 154.516 86.6493 153.728 87.2529C153.496 87.4386 153.056 87.3921 152.732 87.4618C152.732 87.1136 152.662 86.719 152.755 86.394C152.824 86.1154 153.079 85.8601 153.265 85.628C156.904 81.4496 161.006 77.782 165.642 74.7179C165.897 74.5554 166.152 74.3233 166.453 74.2768C166.639 74.2304 166.894 74.4161 167.288 74.5322Z" fill="#343434" fill-opacity="0.9" class="svg-elem-57 table-57"></path>
<path d="M162.861 71.1444C162.583 71.5622 162.374 72.0497 162.003 72.3747C159.454 74.6728 156.904 76.9476 154.308 79.1993C154.053 79.4314 153.589 79.4082 153.242 79.5011C153.288 79.0832 153.195 78.5029 153.427 78.2476C154.934 76.6459 156.487 75.0906 158.086 73.605C159.013 72.7461 160.056 72.0033 161.099 71.2837C161.493 71.0051 162.026 70.9123 162.49 70.7266C162.629 70.8891 162.745 71.0283 162.861 71.1444Z" fill="#343434" fill-opacity="0.9" class="svg-elem-58 table-58"></path>
<path d="M97.1962 140.711C96.779 142.057 82.1533 153.083 80.6235 153.292C80.9944 152.573 81.1566 151.923 81.5507 151.598C83.7063 149.81 85.9083 148.023 88.1566 146.352C90.4513 144.657 92.7923 143.055 95.1565 141.454C95.6896 141.129 96.3386 141.013 97.1962 140.711Z" fill="#343434" fill-opacity="0.9" class="svg-elem-59 table-59"></path>
<path d="M87.2759 140.408C87.0441 140.663 86.8587 140.942 86.5805 141.127C83.7759 143.216 80.9481 145.282 78.1203 147.372C78.0276 147.441 77.9349 147.534 77.819 147.557C77.4018 147.65 76.9846 147.697 76.5674 147.789C76.7065 147.348 76.7064 146.768 77.0078 146.489C79.6269 143.843 82.617 141.708 85.9779 140.083C86.3024 139.92 86.7891 140.059 87.2064 140.059C87.2295 140.152 87.2527 140.292 87.2759 140.408Z" fill="#343434" fill-opacity="0.9" class="svg-elem-60 table-60"></path>
<path d="M100.441 110.581C100.348 112.275 100.302 113.97 100.116 115.641C100.07 115.989 99.5833 116.291 99.282 116.616C99.0039 116.221 98.5171 115.804 98.5171 115.409C98.5634 112.368 98.7025 109.327 98.8879 106.286C98.9111 105.915 99.3515 105.567 99.6065 105.195C99.931 105.567 100.487 105.892 100.51 106.286C100.626 107.702 100.557 109.142 100.557 110.558C100.51 110.558 100.487 110.557 100.441 110.581Z" fill="#343434" fill-opacity="0.9" class="svg-elem-61 table-61"></path>
<path d="M270.99 148.999C267.559 148.721 264.152 148.488 260.745 148.14C259.423 148.001 258.195 147.467 257.384 146.33C256.642 145.285 256.943 144.032 258.009 143.799C258.404 143.707 259.145 143.985 259.284 144.287C259.702 145.192 260.374 145.61 261.254 145.656C264.175 145.842 267.119 145.981 270.039 146.074C272.288 146.144 274.513 146.097 276.761 146.097C278.198 146.097 279.566 145.912 280.84 145.099C281.234 144.844 282.115 144.844 282.463 145.123C283.112 145.61 282.834 146.353 282.37 146.956C281.188 148.604 279.38 148.767 277.619 148.86C275.417 148.953 273.215 148.883 271.013 148.883C270.99 148.906 270.99 148.953 270.99 148.999Z" fill="#343434" fill-opacity="0.9" class="svg-elem-62 table-62"></path>
<path d="M290.042 151.968C289.834 152.246 289.672 152.571 289.417 152.78C285.708 156.1 281.999 159.419 278.291 162.715C278.082 162.901 277.688 162.831 277.364 162.901C277.41 162.506 277.294 161.996 277.503 161.764C278.592 160.626 279.751 159.535 280.933 158.491C283.552 156.192 286.172 153.941 288.837 151.712C289.069 151.527 289.44 151.48 289.764 151.457C289.811 151.457 289.927 151.736 290.042 151.968Z" fill="#343434" fill-opacity="0.9" class="svg-elem-63 table-63"></path>
<path d="M291.827 158.328C291.688 158.537 291.595 158.723 291.456 158.839C289.463 160.696 287.493 162.576 285.453 164.41C285.198 164.642 284.665 164.573 284.248 164.642C284.363 164.224 284.34 163.644 284.595 163.389C286.519 161.624 288.489 159.907 290.483 158.189C290.714 158.003 291.085 157.957 291.41 157.934C291.572 157.934 291.688 158.166 291.827 158.328Z" fill="#343434" fill-opacity="0.9" class="svg-elem-64 table-64"></path>
<path d="M141.375 109.748C141.375 110.863 141.421 111.977 141.351 113.091C141.305 113.718 141.236 114.6 140.378 114.461C140.03 114.414 139.59 113.555 139.567 113.068C139.474 110.979 139.52 108.913 139.544 106.824C139.544 106.592 139.497 106.313 139.613 106.15C139.891 105.779 140.239 105.477 140.563 105.152C140.888 105.524 141.421 105.872 141.467 106.29C141.583 107.427 141.514 108.588 141.514 109.748C141.444 109.748 141.398 109.748 141.375 109.748Z" fill="#343434" fill-opacity="0.9" class="svg-elem-65 table-65"></path>
<path d="M67.898 110.024C67.8284 111.255 67.7589 112.485 67.6662 113.715C67.643 114.087 67.5271 114.458 67.3649 114.806C67.2722 114.992 66.994 115.201 66.8549 115.178C66.6463 115.108 66.345 114.876 66.3218 114.69C66.2291 114.017 66.1828 113.32 66.2291 112.624C66.3682 110.906 66.5073 109.165 66.7622 107.471C66.8086 107.123 67.2258 106.798 67.4808 106.473C67.643 106.821 67.898 107.146 67.9212 107.494C67.9907 108.33 67.9443 109.189 67.9443 110.024C67.9212 110.024 67.9212 110.024 67.898 110.024Z" fill="#343434" fill-opacity="0.9" class="svg-elem-66 table-66"></path>
<path d="M51.8818 109.789C51.905 107.7 55.8222 102.57 57.3983 102.523C57.1202 104.148 52.9481 109.696 51.8818 109.789Z" fill="#343434" fill-opacity="0.9" class="svg-elem-67 table-67"></path>
<path d="M272.797 131.89C268.926 131.588 265.032 131.356 261.161 130.962C260.234 130.869 259.284 130.312 258.449 129.801C257.545 129.244 257.29 128.246 257.522 127.248C257.615 126.876 258.032 126.412 258.38 126.342C258.704 126.273 259.423 126.574 259.492 126.83C259.956 128.501 261.347 128.571 262.621 128.617C267.582 128.826 272.565 128.988 277.548 129.081C278.174 129.105 278.916 128.687 279.449 128.269C280.075 127.781 280.77 127.039 281.396 127.735C281.813 128.176 281.836 129.29 281.605 129.917C281.164 131.078 280.052 131.635 278.846 131.681C276.853 131.751 274.837 131.704 272.843 131.704C272.82 131.774 272.82 131.82 272.797 131.89Z" fill="#343434" fill-opacity="0.9" class="svg-elem-68 table-68"></path>
<path d="M125.242 153.267C125.103 152.919 124.848 152.617 124.918 152.408C125.033 152.037 125.312 151.666 125.59 151.387C128.325 148.625 131.593 146.605 134.977 144.771C135.278 144.609 135.719 144.748 136.09 144.725C135.951 145.096 135.951 145.607 135.672 145.816C134.189 146.977 132.659 148.091 131.129 149.205C129.484 150.412 127.838 151.596 126.169 152.78C125.984 152.919 125.682 153.035 125.242 153.267Z" fill="#343434" fill-opacity="0.9" class="svg-elem-69 table-69"></path>
<path d="M126.007 143.777C125.683 144.148 125.428 144.613 125.034 144.891C121.997 147.073 118.961 149.209 115.878 151.321C115.554 151.553 115.021 151.46 114.511 151.321C117.733 147.862 121.395 145.17 125.636 143.336C125.752 143.475 125.868 143.614 126.007 143.777Z" fill="#343434" fill-opacity="0.9" class="svg-elem-70 table-70"></path>
<path d="M273.956 114.733C269.668 114.338 265.357 114.06 261.069 113.526C260.072 113.41 259.075 112.598 258.287 111.901C257.615 111.298 257.777 109.974 258.496 109.533C258.867 109.324 259.771 109.278 259.887 109.487C261.185 111.623 263.363 111.274 265.287 111.46C268.393 111.762 271.522 111.901 274.651 112.064C276.482 112.156 278.29 112.226 279.704 110.694C279.959 110.439 280.724 110.346 281.049 110.532C281.373 110.717 281.605 111.344 281.628 111.785C281.674 112.853 280.91 113.41 280.052 113.851C278.429 114.64 276.691 114.547 274.953 114.547C274.651 114.547 274.327 114.547 274.026 114.547C273.956 114.594 273.956 114.663 273.956 114.733Z" fill="#343434" fill-opacity="0.9" class="svg-elem-71 table-71"></path>
<path d="M183.096 157.149C183.096 157.845 183.096 158.542 183.096 159.215C183.096 159.934 182.702 160.236 182.006 160.236C181.242 160.236 180.987 159.865 181.01 159.168C181.033 157.938 181.01 156.708 181.01 155.478C181.01 154.595 181.427 154.038 182.308 154.085C183.142 154.131 183.304 154.804 183.235 155.524C183.189 156.058 183.165 156.592 183.142 157.126C183.119 157.149 183.119 157.149 183.096 157.149Z" fill="#343434" fill-opacity="0.9" class="svg-elem-72 table-72"></path>
<path d="M188.427 156.982C188.427 157.724 188.404 158.444 188.427 159.187C188.474 160.069 187.917 160.371 187.199 160.394C186.411 160.44 186.411 159.767 186.411 159.233C186.434 157.887 186.48 156.541 186.55 155.171C186.596 154.451 186.851 153.778 187.639 153.801C188.497 153.825 188.427 154.591 188.404 155.217C188.427 155.821 188.427 156.401 188.427 156.982Z" fill="#343434" fill-opacity="0.9" class="svg-elem-73 table-73"></path>
<path d="M216.589 114.779C216.381 115.104 216.219 115.452 215.987 115.708C214.666 117.147 213.368 118.609 211.954 120.002C211.629 120.327 210.98 120.304 210.47 120.443C210.54 119.932 210.424 119.259 210.702 118.957C212.209 117.379 213.808 115.893 215.407 114.384C215.593 114.199 215.94 114.152 216.219 114.152C216.334 114.152 216.427 114.501 216.589 114.779Z" fill="#343434" fill-opacity="0.9" class="svg-elem-74 table-74"></path>
<path d="M208.245 114.782C208.43 114.364 208.523 113.83 208.824 113.528C210.423 111.857 212.046 110.209 213.692 108.607C213.877 108.421 214.294 108.445 214.596 108.375C214.619 108.723 214.781 109.234 214.619 109.396C212.904 111.23 211.142 113.018 209.38 114.782C209.195 114.968 208.824 114.967 208.546 115.06C208.43 114.944 208.337 114.875 208.245 114.782Z" fill="#343434" fill-opacity="0.9" class="svg-elem-75 table-75"></path>
<path d="M310.833 133.773C310.74 134.052 310.694 134.238 310.578 134.4C309.303 136.304 308.028 138.23 306.684 140.087C306.452 140.412 305.826 140.436 305.363 140.575C305.339 140.087 305.108 139.461 305.339 139.136C306.614 137.186 307.982 135.282 309.373 133.402C309.535 133.17 309.998 132.984 310.23 133.054C310.485 133.124 310.647 133.541 310.833 133.773Z" fill="#343434" fill-opacity="0.9" class="svg-elem-76 table-76"></path>
<path d="M305.085 149.789C306.058 146.794 308.121 144.496 310.022 142.082C310.926 142.639 310.995 143.289 310.555 143.962C309.327 145.796 308.098 147.607 306.777 149.371C306.476 149.766 305.896 149.928 305.433 150.207C305.34 150.044 305.224 149.928 305.085 149.789Z" fill="#343434" fill-opacity="0.9" class="svg-elem-77 table-77"></path>
<path d="M310.926 151.994C310.74 152.505 310.648 153.085 310.346 153.503C308.608 155.755 306.8 157.983 304.992 160.165C304.784 160.397 304.366 160.467 304.042 160.606C304.042 160.258 303.903 159.817 304.065 159.562C304.807 158.401 305.595 157.24 306.452 156.173C307.38 154.989 308.399 153.898 309.419 152.784C309.767 152.412 310.207 152.134 310.601 151.809C310.717 151.855 310.81 151.925 310.926 151.994Z" fill="#343434" fill-opacity="0.9" class="svg-elem-78 table-78"></path>
<path d="M304.458 115.04C304.69 114.576 304.806 114.019 305.131 113.648C306.614 112.046 308.144 110.467 309.72 108.935C309.952 108.703 310.508 108.773 310.902 108.703C310.809 109.121 310.833 109.655 310.601 109.91C309.141 111.512 307.634 113.044 306.081 114.553C305.71 114.901 305.154 115.063 304.69 115.319C304.621 115.226 304.551 115.133 304.458 115.04Z" fill="#343434" fill-opacity="0.9" class="svg-elem-79 table-79"></path>
<path d="M304.946 122.257C305.108 121.677 305.131 120.98 305.479 120.493C306.591 118.938 307.82 117.452 309.048 115.966C309.211 115.781 309.628 115.804 309.952 115.711C310.022 116.036 310.184 116.338 310.161 116.663C310.161 116.895 309.976 117.173 309.813 117.382C308.724 118.775 307.635 120.191 306.499 121.537C306.174 121.909 305.711 122.164 305.293 122.489C305.178 122.396 305.062 122.327 304.946 122.257Z" fill="#343434" fill-opacity="0.9" class="svg-elem-80 table-80"></path>
<path d="M304.691 130.708C304.877 130.22 304.97 129.733 305.248 129.384C306.476 127.759 307.728 126.158 309.003 124.579C309.142 124.394 309.513 124.394 309.768 124.301C309.837 124.626 309.93 124.928 309.976 125.253C309.999 125.345 309.907 125.461 309.837 125.554C308.562 127.342 307.311 129.129 305.989 130.87C305.804 131.125 305.387 131.218 305.039 131.334C304.993 131.381 304.807 130.94 304.691 130.708Z" fill="#343434" fill-opacity="0.9" class="svg-elem-81 table-81"></path>
<path d="M288.049 54.4062C294.261 54.708 300.449 55.033 306.661 55.3348C307.079 55.358 307.496 55.4741 307.913 55.5437C310.277 55.8222 310.81 56.5883 310.486 58.8864C309.929 62.8558 309.489 66.8484 308.933 70.8178C308.562 73.3713 308.052 75.9015 307.635 78.4549C307.496 79.337 307.032 79.7548 306.151 79.7316C303.88 79.6388 301.608 79.5459 299.337 79.4066C294.956 79.1281 290.552 78.8263 286.171 78.5477C282.973 78.3388 279.774 78.1763 276.575 77.9674C275.185 77.8746 274.86 77.5032 275.046 76.0872C275.579 72.3035 276.228 68.543 276.807 64.7825C277.201 62.1594 277.503 59.5131 277.873 56.8668C278.105 55.1723 278.754 54.6384 280.493 54.6384C282.996 54.6384 285.522 54.6384 288.026 54.6384C288.049 54.5455 288.049 54.4759 288.049 54.4062ZM308.516 57.4936C307.449 57.4472 306.731 57.3775 306.012 57.3775C297.645 57.1454 289.277 56.9365 280.91 56.6579C279.844 56.6347 279.589 57.1222 279.519 58.0043C279.426 59.1185 279.311 60.2327 279.148 61.3469C278.43 66.1288 277.711 70.9339 276.946 75.9943C286.519 76.5746 295.953 77.155 305.641 77.7353C306.592 70.9339 307.542 64.2718 308.516 57.4936Z" fill="#343434" fill-opacity="0.9" class="svg-elem-82 table-82"></path>
<path d="M308.515 57.4923C307.542 64.2705 306.591 70.9094 305.618 77.6876C295.929 77.1072 286.496 76.5269 276.923 75.9466C277.688 70.8862 278.429 66.1043 279.125 61.2992C279.287 60.185 279.403 59.0708 279.496 57.9565C279.565 57.0744 279.82 56.587 280.886 56.6102C289.254 56.8887 297.621 57.0977 305.989 57.3298C306.73 57.3994 307.449 57.4458 308.515 57.4923ZM288.072 60.0225C288.072 60.0921 288.072 60.1385 288.049 60.2082C287.353 60.2082 286.635 60.1154 285.963 60.2314C285.267 60.3475 284.015 60.6957 284.015 60.9278C284.039 62.0885 285.128 61.9724 285.939 62.042C290.32 62.3438 294.701 62.5991 299.082 62.8545C299.962 62.9009 300.843 62.8545 301.724 62.7848C301.956 62.7616 302.141 62.5295 302.35 62.3902C302.188 62.1581 302.072 61.7867 301.863 61.6938C301.26 61.4617 300.635 61.2296 299.986 61.1599C296.045 60.7421 292.058 60.3939 288.072 60.0225ZM294.121 67.2417C294.121 67.2185 294.121 67.1721 294.121 67.1489C295.234 67.1489 296.37 67.2185 297.482 67.1025C297.853 67.056 298.154 66.5221 298.479 66.1971C298.154 65.965 297.83 65.5704 297.482 65.5472C295.141 65.3615 292.777 65.2686 290.436 65.1293C288.674 65.0133 286.913 64.7347 285.128 64.7115C284.479 64.7115 283.367 65.2222 283.297 65.64C283.158 66.731 284.294 66.615 284.966 66.6614C288.049 66.8935 291.085 67.056 294.121 67.2417Z" fill="#F7F7F7" class="svg-elem-83 table-83"></path>
<path d="M288.071 60.0234C292.058 60.3948 296.045 60.743 300.032 61.1609C300.681 61.2305 301.306 61.4394 301.909 61.6948C302.118 61.7876 302.234 62.1358 302.396 62.3911C302.187 62.5304 301.979 62.7858 301.77 62.7858C300.889 62.8554 300.008 62.9018 299.128 62.8554C294.747 62.6001 290.366 62.3215 285.985 62.043C285.174 61.9965 284.108 62.0894 284.062 60.9287C284.062 60.6966 285.29 60.3716 286.009 60.2324C286.681 60.1163 287.399 60.2091 288.095 60.2091C288.071 60.1395 288.071 60.0699 288.071 60.0234Z" fill="#343434" fill-opacity="0.9" class="svg-elem-84 table-84"></path>
<path d="M294.122 67.2409C291.085 67.0552 288.049 66.8927 285.012 66.6374C284.34 66.591 283.181 66.707 283.344 65.616C283.39 65.2214 284.526 64.6875 285.175 64.6875C286.936 64.6875 288.698 64.9893 290.483 65.1053C292.824 65.2678 295.188 65.3607 297.529 65.5232C297.876 65.5464 298.201 65.941 298.525 66.1731C298.201 66.4981 297.876 67.032 297.529 67.0784C296.416 67.1945 295.304 67.1249 294.168 67.1249C294.122 67.1945 294.122 67.2177 294.122 67.2409Z" fill="#343434" fill-opacity="0.9" class="svg-elem-85 table-85"></path>
</svg>
