<svg width="147" height="150" viewBox="0 0 147 150" fill="none" xmlns="http://www.w3.org/2000/svg">
<g clip-path="url(#clip0_233_1439)">
<path fill-rule="evenodd" clip-rule="evenodd" d="M88.688 81.4027C88.7421 81.8001 88.4612 82.1557 88.0637 82.2184C87.6642 82.2811 87.2959 81.9884 87.2418 81.591L84.805 65.384C84.7697 65.1331 84.8446 64.8612 85.0131 64.6521L95.3343 51.4126L79.118 49.0661C78.6477 48.9929 78.2461 48.6939 78.038 48.2631L71.2898 34.5467L63.2493 49.0369C62.9892 49.499 62.5293 49.8105 62.0049 49.8775L46.8998 51.7032L58.2968 64.2965C58.5715 64.6102 58.7046 65.0075 58.663 65.4048L56.8048 81.2982L71.1212 75.0245C71.3938 74.899 71.7101 74.8991 71.9765 75.0455L87.067 83.4104C87.4207 83.5987 87.556 84.0587 87.3666 84.4142C87.1773 84.7697 86.734 84.8953 86.3802 84.707L71.4999 76.9903L55.8622 84.3515C55.469 84.5397 55.0111 84.4978 54.6636 84.2259C54.314 83.975 54.1268 83.5569 54.1726 83.1386L55.8102 65.7604L42.5134 51.5715C42.1118 51.1365 41.987 50.5091 42.1888 49.9508C42.3927 49.3924 42.888 48.9931 43.4769 48.9199L60.7605 46.6675L69.983 30.3183C70.2743 29.7976 70.83 29.4839 71.423 29.5006C72.0161 29.5195 72.5508 29.8667 72.8088 30.4041L80.325 46.3224L97.8022 49.2732C98.2371 49.3422 98.6013 49.637 98.7594 50.049C98.9176 50.461 98.8468 50.9273 98.57 51.2703L86.7902 65.5513L88.688 81.4027Z" fill="#343434" fill-opacity="0.9"/>
<path fill-rule="evenodd" clip-rule="evenodd" d="M130.283 81.4855C130.337 81.899 130.058 82.2553 129.659 82.3124C129.26 82.3693 128.892 82.0843 128.838 81.6851L127.1 70.651C127.063 70.3944 127.138 70.1236 127.307 69.9098L133.866 61.3903L123.459 59.942C122.989 59.8693 122.586 59.5685 122.379 59.1394L118.175 50.6756L113.173 59.7253C112.915 60.1872 112.452 60.4993 111.929 60.5649L102.583 61.674L109.663 69.5676C109.939 69.8669 110.072 70.266 110.029 70.6653L108.785 80.8582L117.95 76.895C118.224 76.7666 118.541 76.7812 118.806 76.9236L129.057 82.6972C129.412 82.8825 129.547 83.3246 129.357 83.6809C129.168 84.0373 128.726 84.1799 128.371 83.9946L118.336 78.8623L107.833 83.8947C107.44 84.0658 106.984 84.0231 106.635 83.7665C106.284 83.5099 106.097 83.0964 106.143 82.6688L107.179 71.0359L98.2072 61.5357C97.8044 61.0995 97.6795 60.4736 97.8823 59.9148C98.0851 59.356 98.5831 58.9582 99.1704 58.8841L110.686 57.3574L116.86 46.453C117.15 45.9326 117.705 45.619 118.299 45.6375C118.892 45.6546 119.426 46.0025 119.685 46.54L124.671 57.202L136.328 59.2376C136.762 59.3046 137.126 59.6013 137.285 60.0133C137.443 60.4253 137.37 60.8899 137.095 61.2335L129.082 70.8364L130.283 81.4855Z" fill="#343434" fill-opacity="0.9"/>
<path fill-rule="evenodd" clip-rule="evenodd" d="M34.2088 82.4621C34.2628 82.8753 33.9833 83.2319 33.5847 83.2888C33.1861 83.3459 32.8173 83.0608 32.7634 82.6616L31.0257 71.6275C30.9888 71.3709 31.064 71.0999 31.2328 70.886L37.7921 62.3669L27.3843 60.9184C26.9148 60.8456 26.5119 60.5449 26.3048 60.1158L22.1002 51.652L17.0985 60.7017C16.8403 61.1636 16.3779 61.4759 15.8544 61.5414L6.50914 62.6506L13.589 70.5439C13.8642 70.8434 13.9976 71.2426 13.955 71.6416L12.711 81.8347L21.8761 77.8716C22.1499 77.7432 22.4662 77.7574 22.7315 77.9L32.9833 83.6737C33.3379 83.859 33.4727 84.3009 33.2826 84.6575C33.0939 85.0138 32.6514 85.1565 32.2967 84.971L22.262 79.8389L11.7591 84.8711C11.3662 85.0422 10.9094 84.9996 10.5604 84.743C10.2101 84.4865 10.0228 84.073 10.0682 83.6454L11.1052 72.0125L2.13294 62.5123C1.73008 62.0761 1.60526 61.4502 1.80811 60.8914C2.01095 60.3326 2.50884 59.9348 3.09611 59.8607L14.6118 58.3339L20.7853 47.4295C21.076 46.9092 21.6307 46.5955 22.2251 46.6141C22.818 46.6312 23.3514 46.979 23.611 47.5165L28.5972 58.1785L40.2533 60.2142C40.6873 60.2812 41.0519 60.5776 41.2108 60.9896C41.3682 61.4016 41.2959 61.8665 41.0207 62.2101L33.0074 71.8128L34.2088 82.4621Z" fill="#343434" fill-opacity="0.9"/>
<path fill-rule="evenodd" clip-rule="evenodd" d="M60.4694 120.574C60.5234 120.97 60.2432 121.343 59.8448 121.399C59.4453 121.445 59.0784 121.162 59.0244 120.766L57.594 112.023C57.5579 111.752 57.6322 111.48 57.801 111.277L62.6988 104.845L54.8591 103.791C54.3898 103.717 53.987 103.417 53.7799 102.988L50.7052 96.8463L47.0443 103.491C46.7866 103.952 46.3252 104.265 45.8007 104.33L38.9998 105.125L44.1733 110.926C44.449 111.231 44.5819 111.627 44.5391 112.035L43.5712 119.692L50.452 116.762C50.7266 116.638 51.0428 116.649 51.3084 116.785L59.4183 121.411C59.7728 121.603 59.9078 122.044 59.7176 122.406C59.5285 122.757 59.0863 122.893 58.7306 122.7L50.8437 118.73L42.6112 122.723C42.2185 122.904 41.7616 122.859 41.4116 122.598C41.0627 122.35 40.8758 121.92 40.9208 121.49L41.6918 112.408L34.6321 104.98C34.2303 104.544 34.1054 103.917 34.3079 103.359C34.5105 102.8 35.0079 102.402 35.5954 102.328L44.5582 101.124L49.3829 92.6299C49.6744 92.1096 50.228 91.7951 50.8223 91.8132C51.4154 91.8321 51.9488 92.1795 52.2077 92.7157L56.0758 101.055L65.1545 102.682C65.5878 102.75 65.9536 103.045 66.1111 103.457C66.2698 103.869 66.1978 104.335 65.922 104.678L59.5747 112.204L60.4694 120.574Z" fill="#343434" fill-opacity="0.9"/>
<path fill-rule="evenodd" clip-rule="evenodd" d="M104.582 120.73C104.636 121.126 104.356 121.499 103.957 121.556C103.558 121.601 103.191 121.318 103.137 120.923L101.706 112.18C101.67 111.908 101.745 111.637 101.913 111.433L106.811 105.001L98.9716 103.947C98.5023 103.873 98.0994 103.574 97.8923 103.144L94.8176 97.0025L91.1567 103.647C90.899 104.109 90.4375 104.421 89.913 104.487L83.1122 105.282L88.2857 111.083C88.5615 111.388 88.6943 111.784 88.6515 112.191L87.6836 119.848L94.5644 116.919C94.839 116.794 95.1552 116.806 95.4209 116.941L103.531 121.567C103.885 121.76 104.02 122.201 103.83 122.563C103.641 122.913 103.199 123.049 102.843 122.857L94.9561 118.887L86.7236 122.879C86.3309 123.06 85.8739 123.015 85.5239 122.755C85.175 122.506 84.9882 122.076 85.0332 121.646L85.8041 112.564L78.7444 105.137C78.3426 104.7 78.2177 104.074 78.4202 103.515C78.6228 102.956 79.1203 102.558 79.7078 102.485L88.6706 101.28L93.4953 92.7862C93.7868 92.2659 94.3405 91.9513 94.9347 91.9695C95.5278 91.9883 96.0612 92.336 96.3201 92.8722L100.188 101.211L109.267 102.839C109.7 102.906 110.066 103.202 110.224 103.613C110.382 104.025 110.31 104.491 110.034 104.835L103.687 112.361L104.582 120.73Z" fill="#343434" fill-opacity="0.9"/>
<path fill-rule="evenodd" clip-rule="evenodd" d="M86.0122 64.5721C86.393 64.6975 86.5949 65.1158 86.4617 65.5131C86.3285 65.8895 85.9124 66.0779 85.5316 65.9524C85.5316 65.9524 79.857 64.4048 72.6613 62.209C71.0174 61.728 69.3007 61.1634 67.5548 60.5987C66.4333 60.2432 65.2992 59.867 64.1756 59.4592C61.3019 58.4261 58.4615 57.3155 55.8333 56.2762C48.8437 53.5095 43.4313 51.1904 43.4313 51.1904C43.0526 51.0566 42.8507 50.6384 42.9839 50.2578C43.1171 49.8751 43.5333 49.6743 43.912 49.806C43.912 49.806 49.5844 51.3745 56.7718 53.5786C59.4706 54.4067 62.3818 55.3142 65.27 56.3013C66.402 56.6882 67.5195 57.1064 68.6244 57.5205C70.3453 58.1646 72.0267 58.813 73.6227 59.4508C80.6061 62.251 86.0122 64.5721 86.0122 64.5721Z" fill="#343434" fill-opacity="0.9"/>
<path fill-rule="evenodd" clip-rule="evenodd" d="M128.306 69.8254C128.686 69.9679 128.888 70.3815 128.755 70.7665C128.623 71.1513 128.206 71.3509 127.825 71.2225C127.825 71.2225 123.926 70.2817 118.977 68.8846C117.847 68.5709 116.673 68.2145 115.477 67.8439C114.71 67.6015 113.934 67.345 113.168 67.0742C111.212 66.3585 109.286 65.57 107.508 64.8273C102.764 62.8471 99.1269 61.1521 99.1269 61.1521C98.7453 61.0181 98.5454 60.6005 98.6773 60.2184C98.8107 59.8364 99.2262 59.6339 99.6064 59.7679C99.6064 59.7679 103.505 60.7131 108.445 62.1302C110.297 62.6619 112.291 63.2479 114.264 63.9136C115.036 64.1745 115.796 64.4667 116.548 64.756C117.717 65.208 118.856 65.6642 119.937 66.1219C124.675 68.1291 128.306 69.8254 128.306 69.8254Z" fill="#343434" fill-opacity="0.9"/>
<path fill-rule="evenodd" clip-rule="evenodd" d="M32.2311 70.802C32.6112 70.9446 32.8127 71.3581 32.6793 71.743C32.5474 72.1278 32.1303 72.3275 31.7502 72.1991C31.7502 72.1991 27.8506 71.2583 22.9014 69.8611C21.7722 69.5475 20.5977 69.1911 19.4019 68.8204C18.6344 68.5781 17.8585 68.3216 17.0925 68.0507C15.1363 67.3351 13.2113 66.5466 11.4325 65.8039C6.6889 63.8237 3.05177 62.1287 3.05177 62.1287C2.67018 61.9947 2.47019 61.577 2.60212 61.195C2.73546 60.8129 3.15107 60.6105 3.53125 60.7445C3.53125 60.7445 7.4294 61.6897 12.3702 63.1067C14.2213 63.6385 16.2158 64.2242 18.189 64.89C18.9607 65.1509 19.7211 65.4432 20.4729 65.7326C21.6418 66.1845 22.7808 66.6406 23.8617 67.0982C28.5997 69.1055 32.2311 70.802 32.2311 70.802Z" fill="#343434" fill-opacity="0.9"/>
<path fill-rule="evenodd" clip-rule="evenodd" d="M58.8013 111.192C59.1817 111.328 59.3831 111.747 59.2503 112.12C59.1175 112.504 58.7011 112.708 58.3207 112.572C58.3207 112.572 55.209 111.916 51.2509 110.876C50.3495 110.638 49.4153 110.367 48.4632 110.073C47.8532 109.88 47.2354 109.688 46.6288 109.473C45.0757 108.896 43.5586 108.252 42.1541 107.642C38.4019 106.009 35.5513 104.59 35.5513 104.59C35.172 104.456 34.9706 104.038 35.1034 103.656C35.2362 103.274 35.6526 103.072 36.0319 103.205C36.0319 103.205 39.1425 103.876 43.0916 104.945C44.5682 105.344 46.1561 105.787 47.7249 106.312C48.3383 106.515 48.9393 106.753 49.5335 106.988C50.4597 107.354 51.359 107.727 52.2109 108.104C55.9586 109.756 58.8013 111.192 58.8013 111.192Z" fill="#343434" fill-opacity="0.9"/>
<path fill-rule="evenodd" clip-rule="evenodd" d="M102.913 111.353C103.293 111.489 103.495 111.907 103.362 112.28C103.229 112.665 102.813 112.868 102.432 112.733C102.432 112.733 99.3204 112.076 95.3623 111.036C94.4608 110.798 93.5267 110.527 92.5746 110.233C91.9646 110.041 91.3467 109.848 90.7401 109.633C89.187 109.056 87.67 108.412 86.2655 107.802C82.5134 106.169 79.6627 104.75 79.6627 104.75C79.2834 104.616 79.0819 104.198 79.2147 103.817C79.3475 103.434 79.7639 103.232 80.1432 103.365C80.1432 103.365 83.2539 104.036 87.203 105.105C88.6796 105.504 90.2675 105.948 91.8363 106.472C92.4497 106.676 93.0507 106.913 93.6449 107.148C94.5711 107.514 95.4703 107.887 96.3222 108.264C100.07 109.916 102.913 111.353 102.913 111.353Z" fill="#343434" fill-opacity="0.9"/>
<path fill-rule="evenodd" clip-rule="evenodd" d="M70.6452 31.1129C70.6431 30.7093 70.9698 30.3789 71.3715 30.3789C71.7751 30.3768 72.1018 30.7031 72.1039 31.1088C72.1039 31.1088 72.5305 37.0039 72.8759 44.549C72.955 46.2722 73.0153 48.0811 73.059 49.9256C73.0881 51.1092 73.1173 52.3095 73.111 53.5099C73.0965 56.5756 73.0007 59.6414 72.8988 62.4646C72.6262 70.0139 72.2495 75.9111 72.2495 75.9111C72.2516 76.3294 71.925 76.6431 71.5234 76.6431C71.1197 76.6431 70.793 76.3294 70.7909 75.9111C70.7909 75.9111 70.3747 70.0138 70.0542 62.4854C69.9335 59.6413 69.817 56.5862 69.7837 53.5205C69.7691 52.3201 69.79 51.1217 69.8108 49.936C69.8441 48.0915 69.8919 46.2827 69.9606 44.5574C70.256 37.0123 70.6452 31.1129 70.6452 31.1129Z" fill="#343434" fill-opacity="0.9"/>
<path fill-rule="evenodd" clip-rule="evenodd" d="M117.521 47.2434C117.519 46.8386 117.846 46.5092 118.248 46.5078C118.65 46.5057 118.978 46.8342 118.979 47.2377C118.979 47.2377 119.4 51.2452 119.738 56.4001C119.816 57.5748 119.873 58.8065 119.915 60.0638C119.944 60.8722 119.971 61.6905 119.963 62.5074C119.946 64.6001 119.846 66.6901 119.741 68.6146C119.461 73.7753 119.08 77.7811 119.08 77.7811C119.082 78.1945 118.755 78.5224 118.352 78.5224C117.949 78.5224 117.621 78.1944 117.62 77.7954C117.62 77.7954 117.213 73.7754 116.899 68.6289C116.782 66.6901 116.668 64.6101 116.637 62.5188C116.624 61.7019 116.647 60.8836 116.668 60.0753C116.704 58.8165 116.753 57.5848 116.823 56.4087C117.126 51.2523 117.521 47.2434 117.521 47.2434Z" fill="#343434" fill-opacity="0.9"/>
<path fill-rule="evenodd" clip-rule="evenodd" d="M21.4465 48.22C21.4444 47.8151 21.7714 47.4858 22.1742 47.4844C22.5757 47.4823 22.9033 47.8108 22.9048 48.2143C22.9048 48.2143 23.3261 52.2217 23.6637 57.3767C23.7418 58.5514 23.7985 59.783 23.841 61.0404C23.8694 61.8487 23.8963 62.667 23.8892 63.4839C23.8721 65.5767 23.7715 67.6666 23.6665 69.5912C23.387 74.7519 23.0055 78.7577 23.0055 78.7577C23.0076 79.1711 22.6806 79.499 22.2777 79.499C21.8749 79.499 21.5472 79.171 21.5458 78.7717C21.5458 78.7717 21.1387 74.7518 20.8252 69.6053C20.7075 67.6665 20.594 65.5865 20.5627 63.4952C20.5501 62.6783 20.5727 61.8602 20.5939 61.0518C20.6294 59.7931 20.6791 58.5612 20.7486 57.385C21.0522 52.2287 21.4465 48.22 21.4465 48.22Z" fill="#343434" fill-opacity="0.9"/>
<path fill-rule="evenodd" clip-rule="evenodd" d="M50.0447 93.4149C50.0426 93.0111 50.3699 92.6809 50.7717 92.6797C51.1746 92.6797 51.502 93.0053 51.5031 93.4102C51.5031 93.4102 51.9208 96.5784 52.2561 100.678C52.3327 101.61 52.3889 102.586 52.4317 103.585C52.4576 104.226 52.4846 104.876 52.4778 105.524C52.4587 107.185 52.3574 108.843 52.2505 110.37C51.9669 114.476 51.5831 117.642 51.5831 117.642C51.5852 118.049 51.2579 118.378 50.8561 118.378C50.4532 118.378 50.1257 118.05 50.1246 117.654C50.1246 117.654 49.7194 114.476 49.4088 110.381C49.2917 108.843 49.1803 107.196 49.15 105.535C49.1387 104.886 49.1612 104.238 49.1837 103.596C49.2197 102.596 49.2693 101.621 49.3402 100.687C49.6485 96.5853 50.0447 93.4149 50.0447 93.4149Z" fill="#343434" fill-opacity="0.9"/>
<path fill-rule="evenodd" clip-rule="evenodd" d="M94.1559 93.5748C94.1538 93.171 94.4812 92.8409 94.883 92.8398C95.2859 92.8398 95.6133 93.1655 95.6145 93.5703C95.6145 93.5703 96.0321 96.7383 96.3675 100.838C96.444 101.77 96.5002 102.746 96.5429 103.745C96.5688 104.386 96.5958 105.035 96.5891 105.684C96.5699 107.345 96.4687 109.003 96.3618 110.53C96.0782 114.636 95.6944 117.802 95.6944 117.802C95.6965 118.21 95.3691 118.538 94.9673 118.538C94.5644 118.538 94.237 118.21 94.2359 117.814C94.2359 117.814 93.8307 114.636 93.5201 110.541C93.4031 109.003 93.2917 107.356 93.2613 105.695C93.2501 105.046 93.2725 104.398 93.295 103.756C93.331 102.756 93.3805 101.78 93.4514 100.847C93.7598 96.7452 94.1559 93.5748 94.1559 93.5748Z" fill="#343434" fill-opacity="0.9"/>
<path fill-rule="evenodd" clip-rule="evenodd" d="M97.3632 49.81C97.7419 49.672 98.1602 49.8664 98.2996 50.247C98.4369 50.6276 98.2413 51.048 97.8626 51.1881C97.8626 51.1881 92.6936 53.5158 86.0078 56.3055C84.4804 56.9412 82.8699 57.5894 81.2239 58.2335C80.1647 58.6476 79.0931 59.0659 78.009 59.4507C75.2414 60.4315 72.4468 61.3515 69.8582 62.167C62.9622 64.3837 57.5165 65.9523 57.5165 65.9523C57.1378 66.0987 56.7196 65.8894 56.5822 65.513C56.4449 65.1366 56.6384 64.7183 57.0171 64.572C57.0171 64.572 62.1922 62.2507 68.8843 59.4903C71.398 58.4531 74.1177 57.3426 76.8707 56.3096C77.9486 55.906 79.0369 55.5338 80.1127 55.1657C81.7858 54.5948 83.4318 54.0491 85.0111 53.5513C91.9155 51.3681 97.3632 49.81 97.3632 49.81Z" fill="#343434" fill-opacity="0.9"/>
<path fill-rule="evenodd" clip-rule="evenodd" d="M135.888 59.7708C136.267 59.6325 136.686 59.8293 136.823 60.2085C136.961 60.5891 136.766 61.0096 136.388 61.1479C136.388 61.1479 132.919 62.853 128.386 64.8559C127.352 65.3121 126.262 65.7682 125.142 66.2201C124.424 66.5095 123.695 66.8033 122.956 67.0599C121.063 67.7299 119.15 68.3145 117.372 68.8419C112.629 70.2676 108.884 71.2082 108.884 71.2082C108.505 71.3509 108.086 71.1512 107.949 70.7806C107.811 70.3956 108.007 69.9679 108.384 69.8398C108.384 69.8398 111.858 68.1433 116.399 66.1632C118.101 65.4219 119.941 64.6336 121.816 63.9208C122.55 63.6428 123.295 63.3961 124.031 63.1537C125.177 62.776 126.305 62.4209 127.388 62.1016C132.142 60.7059 135.888 59.7708 135.888 59.7708Z" fill="#343434" fill-opacity="0.9"/>
<path fill-rule="evenodd" clip-rule="evenodd" d="M39.8136 60.7474C40.1923 60.6091 40.6109 60.8058 40.7484 61.185C40.886 61.5657 40.6917 61.9861 40.313 62.1244C40.313 62.1244 36.8446 63.8295 32.3109 65.8325C31.2768 66.2887 30.1874 66.7448 29.0668 67.1967C28.349 67.4861 27.6199 67.7798 26.8808 68.0365C24.9885 68.7065 23.0748 69.2908 21.2974 69.8183C16.5538 71.2439 12.8089 72.1848 12.8089 72.1848C12.4301 72.3274 12.0117 72.1277 11.8741 71.7572C11.7365 71.3722 11.9323 70.9445 12.3096 70.8163C12.3096 70.8163 15.7836 69.1199 20.3243 67.1397C22.0266 66.3984 23.8664 65.61 25.7417 64.8972C26.4751 64.6192 27.2198 64.3727 27.956 64.1303C29.1022 63.7525 30.2299 63.3975 31.3137 63.0782C36.0672 61.6825 39.8136 60.7474 39.8136 60.7474Z" fill="#343434" fill-opacity="0.9"/>
<path fill-rule="evenodd" clip-rule="evenodd" d="M64.7153 103.208C65.0934 103.07 65.5133 103.266 65.6506 103.646C65.7879 104.026 65.5932 104.448 65.215 104.586C65.215 104.586 62.5028 106.013 58.9183 107.67C58.1035 108.047 57.2425 108.419 56.3557 108.784C55.7874 109.021 55.2122 109.258 54.6236 109.462C53.1201 109.982 51.5952 110.435 50.1772 110.83C46.3834 111.905 43.3942 112.572 43.3942 112.572C43.0161 112.708 42.5975 112.515 42.459 112.131C42.3217 111.758 42.5164 111.328 42.8945 111.192C42.8945 111.192 45.6136 109.779 49.2048 108.145C50.5463 107.534 51.9981 106.889 53.4859 106.319C54.0666 106.096 54.6597 105.906 55.2449 105.718C56.1587 105.425 57.0557 105.155 57.92 104.916C61.7251 103.869 64.7153 103.208 64.7153 103.208Z" fill="#343434" fill-opacity="0.9"/>
<path fill-rule="evenodd" clip-rule="evenodd" d="M108.826 103.368C109.204 103.23 109.624 103.426 109.761 103.806C109.899 104.186 109.704 104.608 109.326 104.746C109.326 104.746 106.614 106.173 103.029 107.83C102.214 108.207 101.353 108.579 100.467 108.944C99.8983 109.181 99.3232 109.418 98.7346 109.622C97.231 110.142 95.706 110.595 94.288 110.99C90.4942 112.065 87.5051 112.732 87.5051 112.732C87.127 112.868 86.7083 112.675 86.5699 112.291C86.4326 111.918 86.6273 111.488 87.0055 111.352C87.0055 111.352 89.7245 109.939 93.3157 108.305C94.6572 107.695 96.109 107.049 97.5968 106.479C98.1775 106.256 98.7706 106.066 99.3558 105.878C100.27 105.585 101.167 105.315 102.031 105.076C105.836 104.029 108.826 103.368 108.826 103.368Z" fill="#343434" fill-opacity="0.9"/>
<path fill-rule="evenodd" clip-rule="evenodd" d="M87.3211 83.6439C87.552 83.9785 87.471 84.4387 87.1401 84.6687C86.8113 84.8987 86.3555 84.815 86.1246 84.4804C86.1246 84.4804 82.5101 80.0053 78.0508 74.1499C77.0312 72.8115 75.9824 71.3893 74.9233 69.9464C74.2449 69.0053 73.5561 68.0644 72.8965 67.1024C71.2109 64.6347 69.5962 62.1253 68.1104 59.7831C64.1568 53.5868 61.202 48.641 61.202 48.641C60.971 48.3106 61.0521 47.8526 61.3809 47.6205C61.7118 47.3883 62.1655 47.4699 62.3965 47.8024C62.3965 47.8024 66.0026 52.2923 70.4411 58.1561C72.1099 60.3686 73.8994 62.7526 75.6245 65.1784C76.2987 66.1404 76.9459 67.1233 77.5868 68.0853C78.5793 69.5701 79.5408 71.0549 80.4418 72.4769C84.3746 78.6878 87.3211 83.6439 87.3211 83.6439Z" fill="#343434" fill-opacity="0.9"/>
<path fill-rule="evenodd" clip-rule="evenodd" d="M129.312 82.9283C129.543 83.2562 129.462 83.7124 129.131 83.9406C128.801 84.183 128.347 84.0974 128.116 83.7694C128.116 83.7694 125.554 80.7898 122.422 76.8551C121.707 75.9571 120.979 75.002 120.247 74.0185C119.776 73.3911 119.301 72.7494 118.854 72.0794C117.711 70.3972 116.638 68.6724 115.655 67.0615C113.031 62.7633 111.124 59.329 111.124 59.329C110.895 58.9969 110.976 58.5393 111.305 58.3083C111.635 58.0759 112.091 58.1571 112.32 58.4893C112.32 58.4893 114.875 61.4688 117.984 65.422C119.151 66.9046 120.399 68.5155 121.582 70.1693C122.044 70.8249 122.48 71.4806 122.908 72.1507C123.576 73.177 124.218 74.1894 124.812 75.1729C127.416 79.4784 129.312 82.9283 129.312 82.9283Z" fill="#343434" fill-opacity="0.9"/>
<path fill-rule="evenodd" clip-rule="evenodd" d="M33.2368 83.9009C33.4681 84.2288 33.3872 84.6849 33.0567 84.913C32.7262 85.1554 32.2723 85.07 32.0411 84.7421C32.0411 84.7421 29.4791 81.7624 26.347 77.8278C25.6321 76.9298 24.9044 75.9746 24.1724 74.9909C23.7015 74.3638 23.2262 73.7221 22.7794 73.052C21.6361 71.3699 20.5636 69.645 19.5806 68.0341C16.9563 63.736 15.0498 60.3017 15.0498 60.3017C14.82 59.9695 14.9008 59.5119 15.2299 59.281C15.5605 59.0486 16.0158 59.1298 16.2456 59.4619C16.2456 59.4619 18.8004 62.4415 21.9098 66.3946C23.0758 67.8772 24.3242 69.4882 25.5072 71.1418C25.9697 71.7976 26.4052 72.4533 26.8336 73.1233C27.5017 74.1497 28.1429 75.1619 28.7373 76.1456C31.3417 80.451 33.2368 83.9009 33.2368 83.9009Z" fill="#343434" fill-opacity="0.9"/>
<path fill-rule="evenodd" clip-rule="evenodd" d="M59.6731 121.64C59.9039 121.968 59.8229 122.432 59.4931 122.658C59.1633 122.895 58.7075 122.816 58.4768 122.477C58.4768 122.477 56.3824 120.181 53.8356 117.082C53.2571 116.381 52.6697 115.634 52.0822 114.854C51.7052 114.356 51.3248 113.848 50.9715 113.327C50.0677 111.981 49.2349 110.601 48.4741 109.312C46.4371 105.858 44.9977 103.094 44.9977 103.094C44.7669 102.762 44.848 102.305 45.1777 102.073C45.5075 101.842 45.9621 101.923 46.1929 102.255C46.1929 102.255 48.2794 104.564 50.8037 107.672C51.7479 108.837 52.7552 110.092 53.6983 111.416C54.0675 111.925 54.4085 112.456 54.745 112.988C55.2683 113.802 55.7668 114.617 56.226 115.408C58.2438 118.869 59.6731 121.64 59.6731 121.64Z" fill="#343434" fill-opacity="0.9"/>
<path fill-rule="evenodd" clip-rule="evenodd" d="M103.785 121.796C104.016 122.124 103.935 122.588 103.605 122.815C103.275 123.052 102.819 122.973 102.589 122.633C102.589 122.633 100.494 120.337 97.9474 117.238C97.369 116.537 96.7815 115.791 96.194 115.01C95.817 114.513 95.4365 114.004 95.0832 113.483C94.1795 112.138 93.3467 110.758 92.5859 109.468C90.5489 106.014 89.1095 103.25 89.1095 103.25C88.8788 102.918 88.9598 102.462 89.2895 102.23C89.6193 101.998 90.074 102.079 90.3047 102.411C90.3047 102.411 92.3912 104.72 94.9155 107.828C95.8598 108.993 96.867 110.249 97.8101 111.572C98.1792 112.081 98.5202 112.613 98.8567 113.144C99.38 113.959 99.8786 114.773 100.338 115.565C102.356 119.025 103.785 121.796 103.785 121.796Z" fill="#343434" fill-opacity="0.9"/>
<path fill-rule="evenodd" clip-rule="evenodd" d="M78.7376 47.2241C78.9623 46.8895 79.4159 46.8018 79.7489 47.0277C80.0839 47.2535 80.1713 47.7094 79.9445 48.0461C79.9445 48.0461 77.129 52.9625 73.3564 59.1421C72.4949 60.5578 71.571 62.0217 70.6159 63.5065C70.002 64.4685 69.382 65.4304 68.7327 66.3924C67.0722 68.8182 65.3451 71.1814 63.7366 73.3771C59.4541 79.2117 55.9708 83.666 55.9708 83.666C55.746 84.0006 55.2923 84.0843 54.9594 83.8752C54.6244 83.6451 54.537 83.185 54.7618 82.8504C54.7618 82.8504 57.5896 77.936 61.381 71.7669C62.8064 69.4665 64.3566 66.957 65.9756 64.5102C66.6102 63.5483 67.2719 62.6072 67.9274 61.6871C68.9449 60.2441 69.9583 58.8327 70.9405 57.5005C75.2438 51.6827 78.7376 47.2241 78.7376 47.2241Z" fill="#343434" fill-opacity="0.9"/>
<path fill-rule="evenodd" clip-rule="evenodd" d="M123.077 58.096C123.303 57.7609 123.757 57.6724 124.09 57.8991C124.424 58.1258 124.512 58.5821 124.286 58.9171C124.286 58.9171 122.48 62.3314 119.986 66.6138C119.418 67.5875 118.803 68.5997 118.162 69.6261C117.751 70.2819 117.334 70.9378 116.888 71.5936C115.749 73.2329 114.545 74.8294 113.419 76.3121C110.414 80.2325 107.943 83.1977 107.943 83.1977C107.717 83.5398 107.264 83.6253 106.93 83.3972C106.597 83.1692 106.509 82.713 106.734 82.3851C106.734 82.3851 108.552 78.978 111.064 74.7012C112.006 73.1046 113.033 71.3938 114.132 69.7117C114.562 69.0559 115.02 68.4144 115.473 67.7871C116.178 66.8177 116.881 65.8653 117.571 64.9715C120.596 61.0525 123.077 58.096 123.077 58.096Z" fill="#343434" fill-opacity="0.9"/>
<path fill-rule="evenodd" clip-rule="evenodd" d="M27.0032 59.0686C27.2287 58.7336 27.6827 58.6451 28.0161 58.8717C28.3494 59.0984 28.4373 59.5546 28.2118 59.8896C28.2118 59.8896 26.406 63.304 23.9122 67.5865C23.3434 68.5602 22.7292 69.5723 22.088 70.5988C21.6766 71.2546 21.2595 71.9104 20.8141 72.566C19.675 74.2056 18.4707 75.8021 17.3443 77.2848C14.3399 81.2052 11.8688 84.1703 11.8688 84.1703C11.6433 84.5124 11.1893 84.598 10.856 84.3698C10.5226 84.1419 10.4347 83.6856 10.6602 83.3577C10.6602 83.3577 12.4773 79.9506 14.9895 75.6739C15.9314 74.0772 16.9586 72.3665 18.0579 70.6843C18.4877 70.0285 18.9459 69.387 19.3984 68.7597C20.1034 67.7903 20.807 66.838 21.4965 65.9441C24.5222 62.0252 27.0032 59.0686 27.0032 59.0686Z" fill="#343434" fill-opacity="0.9"/>
<path fill-rule="evenodd" clip-rule="evenodd" d="M54.4784 101.947C54.7034 101.612 55.1581 101.524 55.4913 101.75C55.8244 101.978 55.9121 102.434 55.6871 102.768C55.6871 102.768 54.3287 105.516 52.4008 108.963C51.9619 109.743 51.4848 110.546 50.9817 111.361C50.6598 111.892 50.3323 112.412 49.9778 112.933C49.0685 114.233 48.0962 115.489 47.1835 116.643C44.7436 119.742 42.7212 122.038 42.7212 122.038C42.495 122.377 42.0414 122.456 41.7083 122.23C41.3752 122.003 41.2874 121.551 41.5125 121.212C41.5125 121.212 42.881 118.475 44.8291 115.048C45.5572 113.758 46.3529 112.39 47.2217 111.055C47.5605 110.535 47.9285 110.038 48.292 109.54C48.8592 108.764 49.4252 108.019 49.9846 107.317C52.447 104.236 54.4784 101.947 54.4784 101.947Z" fill="#343434" fill-opacity="0.9"/>
<path fill-rule="evenodd" clip-rule="evenodd" d="M98.5902 102.1C98.8153 101.765 99.27 101.676 99.6031 101.903C99.9363 102.13 100.024 102.586 99.7989 102.921C99.7989 102.921 98.4406 105.668 96.5127 109.115C96.0738 109.896 95.5966 110.699 95.0936 111.513C94.7717 112.045 94.4442 112.565 94.0897 113.085C93.1804 114.386 92.208 115.641 91.2953 116.795C88.8554 119.894 86.833 122.19 86.833 122.19C86.6068 122.529 86.1533 122.608 85.8202 122.382C85.4871 122.156 85.3992 121.703 85.6243 121.364C85.6243 121.364 86.9928 118.627 88.9409 115.2C89.669 113.911 90.4648 112.542 91.3336 111.208C91.6724 110.687 92.0403 110.19 92.4038 109.692C92.971 108.916 93.5371 108.171 94.0964 107.47C96.5589 104.389 98.5902 102.1 98.5902 102.1Z" fill="#343434" fill-opacity="0.9"/>
<path fill-rule="evenodd" clip-rule="evenodd" d="M61.7994 48.2201L69.7379 59.636L43.6729 50.4973L61.7994 48.2201ZM57.2672 65.2615L70.3247 60.4934L70.5119 60.7444L55.3673 83.2669L57.2672 65.2615ZM71.5191 75.9058L71.4754 62.1455L86.7241 84.0616L71.5191 75.9058ZM85.773 65.2615L71.4691 60.2426V60.0751L97.6132 50.4973L85.773 65.2615ZM79.3411 47.6323L71.4671 59.335L71.3734 31.1055L79.3411 47.6323Z" fill="#343434" fill-opacity="0.9"/>
<path fill-rule="evenodd" clip-rule="evenodd" d="M111.724 58.9094L117.135 66.6916L99.3667 60.4619L111.724 58.9094ZM108.634 70.5265L117.535 67.2761L117.663 67.4473L107.339 82.8008L108.634 70.5265ZM118.35 77.7827L118.32 68.4024L128.715 83.3426L118.35 77.7827ZM128.067 70.5265L118.315 67.105V66.991L136.138 60.4619L128.067 70.5265ZM123.682 58.5087L118.314 66.4864L118.25 47.2422L123.682 58.5087Z" fill="#343434" fill-opacity="0.9"/>
<path fill-rule="evenodd" clip-rule="evenodd" d="M15.6489 59.8857L21.0606 67.6682L3.29199 61.4382L15.6489 59.8857ZM12.5593 71.5031L21.4607 68.2527L21.5883 68.4236L11.2642 83.7774L12.5593 71.5031ZM22.2748 78.7593L22.2451 69.3788L32.6401 84.3192L22.2748 78.7593ZM31.9919 71.5031L22.2408 68.0815V67.9676L40.0633 61.4382L31.9919 71.5031ZM27.6072 59.4852L22.2394 67.4628L22.1756 48.2188L27.6072 59.4852Z" fill="#343434" fill-opacity="0.9"/>
<path fill-rule="evenodd" clip-rule="evenodd" d="M45.5956 102.674L49.889 108.849L35.792 103.906L45.5956 102.674ZM43.1444 111.891L50.2064 109.312L50.3076 109.448L42.1169 121.629L43.1444 111.891ZM50.8524 117.648L50.8288 110.206L59.0759 122.059L50.8524 117.648ZM58.5616 111.891L50.8254 109.176V109.086L64.9651 103.906L58.5616 111.891ZM55.0828 102.357L50.8243 108.686L50.7736 93.418L55.0828 102.357Z" fill="#343434" fill-opacity="0.9"/>
<path fill-rule="evenodd" clip-rule="evenodd" d="M89.7078 102.831L94.0013 109.005L79.9043 104.062L89.7078 102.831ZM87.2567 112.047L94.3186 109.468L94.4199 109.604L86.2291 121.785L87.2567 112.047ZM94.9647 117.804L94.9411 110.362L103.188 122.215L94.9647 117.804ZM102.674 112.047L94.9376 109.333V109.242L109.077 104.062L102.674 112.047ZM99.1951 102.513L94.9365 108.842L94.8859 93.5742L99.1951 102.513Z" fill="#343434" fill-opacity="0.9"/>
<path fill-rule="evenodd" clip-rule="evenodd" d="M69.5049 0.744751C69.4987 0.341144 69.8191 0.00643298 70.2207 0.000159288C70.6244 -0.00820563 70.9552 0.313934 70.9636 0.719632C70.9636 0.719632 71.4131 3.23533 71.7939 6.52484C71.8813 7.2714 71.9479 8.04937 72.002 8.85031C72.0353 9.36266 72.0685 9.88132 72.0685 10.3999C72.0685 11.7321 71.9854 13.0558 71.8959 14.2855C71.6545 17.5833 71.3049 20.1158 71.3049 20.1158C71.3132 20.5194 70.9927 20.8541 70.589 20.8624C70.1874 20.8687 69.8545 20.5466 69.8482 20.1409C69.8482 20.1409 69.4092 17.6231 69.0534 14.3357C68.9202 13.1102 68.7891 11.7906 68.7412 10.4606C68.7225 9.93988 68.7392 9.42127 68.7537 8.90892C68.7787 8.10589 68.8183 7.32578 68.8786 6.57712C69.145 3.27716 69.5049 0.744751 69.5049 0.744751Z" fill="#343434" fill-opacity="0.9"/>
<path fill-rule="evenodd" clip-rule="evenodd" d="M110.531 6.95628C110.769 6.63005 111.224 6.5588 111.551 6.7972C111.876 7.03769 111.946 7.49575 111.707 7.82198C111.707 7.82198 110.344 10.3858 108.409 13.5916C107.97 14.3194 107.491 15.068 106.99 15.825C106.667 16.3102 106.34 16.8018 105.985 17.2723C105.077 18.4769 104.108 19.6269 103.198 20.6851C100.764 23.5229 98.7535 25.6121 98.7535 25.6121C98.5163 25.9384 98.0606 26.0094 97.736 25.771C97.4093 25.5326 97.3385 25.0725 97.5778 24.7462C97.5778 24.7462 98.9512 22.1888 100.905 18.9996C101.633 17.8076 102.43 16.5319 103.3 15.2981C103.639 14.8151 104.006 14.3528 104.368 13.897C104.934 13.1859 105.498 12.5021 106.057 11.8601C108.513 9.03689 110.531 6.95628 110.531 6.95628Z" fill="#343434" fill-opacity="0.9"/>
<path fill-rule="evenodd" clip-rule="evenodd" d="M127.935 29.1364C128.26 28.898 128.715 28.9711 128.953 29.2973C129.19 29.6256 129.117 30.0837 128.792 30.3221C128.792 30.3221 127.698 31.6228 126.098 33.1996C125.74 33.553 125.353 33.9022 124.945 34.2493C124.685 34.471 124.42 34.6948 124.135 34.8914C123.403 35.3974 122.633 35.8261 121.909 36.2192C119.942 37.2836 118.378 37.9424 118.378 37.9424C118.051 38.1808 117.595 38.1077 117.358 37.7815C117.121 37.4553 117.193 36.9951 117.518 36.7567C117.518 36.7567 118.623 35.4643 120.236 33.9084C120.829 33.3375 121.472 32.7333 122.177 32.1875C122.45 31.9763 122.743 31.7921 123.032 31.6101C123.488 31.3257 123.935 31.0644 124.381 30.8302C126.366 29.7846 127.935 29.1364 127.935 29.1364Z" fill="#343434" fill-opacity="0.9"/>
<path fill-rule="evenodd" clip-rule="evenodd" d="M28.9606 6.94011C28.7671 6.5846 28.894 6.13906 29.2456 5.94249C29.5994 5.748 30.0426 5.87559 30.2382 6.22901C30.2382 6.22901 31.9279 8.45836 33.9443 11.453C34.4041 12.1326 34.8619 12.8562 35.3177 13.6049C35.6111 14.0838 35.9066 14.5688 36.1708 15.0728C36.8534 16.3589 37.4568 17.6785 38.0061 18.9081C39.4794 22.2039 40.4699 24.8222 40.4699 24.8222C40.6655 25.1777 40.5386 25.6232 40.1849 25.8198C39.8332 26.0143 39.3878 25.8867 39.1943 25.5333C39.1943 25.5333 37.5129 23.2977 35.5194 20.2905C34.7745 19.1696 33.9838 17.9546 33.2596 16.6915C32.9787 16.198 32.7249 15.6877 32.4773 15.1837C32.0882 14.3974 31.724 13.6237 31.3932 12.873C29.9407 9.56254 28.9606 6.94011 28.9606 6.94011Z" fill="#343434" fill-opacity="0.9"/>
<path fill-rule="evenodd" clip-rule="evenodd" d="M5.14781 29.1824C4.7899 28.9983 4.64845 28.5569 4.83156 28.1952C5.01468 27.8355 5.45374 27.6934 5.81165 27.8774C5.81165 27.8774 7.62826 28.3541 9.95258 29.1801C10.4749 29.3662 11.0096 29.5796 11.5527 29.8138C11.9002 29.9644 12.2498 30.1171 12.587 30.299C13.4505 30.7696 14.2642 31.309 15.0175 31.8213C17.0525 33.2057 18.5112 34.3957 18.5112 34.3957C18.8711 34.5798 19.0127 35.021 18.8296 35.3807C18.6465 35.7425 18.2074 35.8847 17.8474 35.7007C17.8474 35.7007 16.0329 35.2112 13.7231 34.3643C12.8699 34.0527 11.9585 33.7055 11.0741 33.2768C10.7287 33.1116 10.3999 32.9152 10.0753 32.7207C9.56758 32.4154 9.08275 32.1058 8.62703 31.7901C6.5982 30.3806 5.14781 29.1824 5.14781 29.1824Z" fill="#343434" fill-opacity="0.9"/>
<path fill-rule="evenodd" clip-rule="evenodd" d="M13.192 105.599C13.5207 105.368 13.9764 105.452 14.2074 105.787C14.4405 106.121 14.3593 106.581 14.0305 106.811C14.0305 106.811 12.5968 108.317 10.5846 110.137C10.1309 110.555 9.64401 110.952 9.1342 111.37C8.8075 111.621 8.47665 111.893 8.12708 112.123C7.22606 112.73 6.28966 113.253 5.40944 113.733C3.0414 115.051 1.14781 115.908 1.14781 115.908C0.81903 116.138 0.363342 116.055 0.132365 115.72C-0.0986128 115.386 -0.0195699 114.925 0.309209 114.695C0.309209 114.695 1.75129 113.19 3.77598 111.412C4.52718 110.743 5.34288 110.032 6.21477 109.384C6.55395 109.133 6.91187 108.903 7.2677 108.693C7.8233 108.338 8.37055 108.024 8.9095 107.732C11.2963 106.456 13.192 105.599 13.192 105.599Z" fill="#343434" fill-opacity="0.9"/>
<path fill-rule="evenodd" clip-rule="evenodd" d="M15.1005 147.697C14.8508 148.031 14.393 148.073 14.0767 147.822C13.7583 147.571 13.7021 147.111 13.9497 146.797C13.9497 146.797 15.6019 144.016 17.8992 140.545C18.4215 139.75 18.9876 138.934 19.5785 138.119C19.9573 137.575 20.3401 137.052 20.7521 136.53C21.805 135.233 22.9162 133.957 23.9587 132.807C26.7409 129.712 29.0257 127.433 29.0257 127.433C29.2733 127.119 29.7332 127.056 30.0495 127.307C30.3658 127.558 30.422 128.018 30.1744 128.332C30.1744 128.332 28.5117 131.113 26.1977 134.564C25.3321 135.86 24.3874 137.261 23.374 138.6C22.9766 139.123 22.5542 139.625 22.1359 140.127C21.4846 140.9 20.8332 141.653 20.1965 142.343C17.3915 145.417 15.1005 147.697 15.1005 147.697Z" fill="#343434" fill-opacity="0.9"/>
<path fill-rule="evenodd" clip-rule="evenodd" d="M59.2292 134.29C59.3374 133.893 59.741 133.684 60.1281 133.788C60.5172 133.893 60.744 134.291 60.6358 134.688C60.6358 134.688 60.4923 136.695 60.1032 139.309C60.0158 139.916 59.9013 140.522 59.7702 141.129C59.6849 141.526 59.5975 141.944 59.4789 142.321C59.173 143.346 58.7901 144.307 58.4238 145.228C57.4313 147.653 56.524 149.473 56.524 149.473C56.4158 149.849 56.0122 150.079 55.6251 149.975C55.236 149.87 55.0112 149.473 55.1194 149.075C55.1194 149.075 55.2735 147.047 55.6855 144.454C55.8395 143.492 56.0163 142.446 56.2744 141.421C56.3763 141.024 56.5095 140.648 56.6427 140.25C56.8487 139.665 57.0651 139.079 57.294 138.536C58.3115 136.089 59.2292 134.29 59.2292 134.29Z" fill="#343434" fill-opacity="0.9"/>
<path fill-rule="evenodd" clip-rule="evenodd" d="M107.464 129.458C107.249 129.124 107.351 128.663 107.691 128.454C108.032 128.224 108.483 128.329 108.698 128.684C108.698 128.684 110.702 131.11 113.124 134.352C113.675 135.083 114.231 135.878 114.786 136.673C115.144 137.196 115.504 137.739 115.837 138.283C116.686 139.684 117.462 141.106 118.172 142.445C120.07 146.021 121.397 148.886 121.397 148.886C121.612 149.22 121.51 149.68 121.171 149.889C120.829 150.098 120.38 149.994 120.163 149.659C120.163 149.659 118.17 147.234 115.769 143.971C114.872 142.758 113.915 141.441 113.024 140.061C112.676 139.517 112.358 138.973 112.042 138.429C111.551 137.572 111.085 136.736 110.658 135.92C108.781 132.323 107.464 129.458 107.464 129.458Z" fill="#343434" fill-opacity="0.9"/>
<path fill-rule="evenodd" clip-rule="evenodd" d="M124.349 103.114C124.032 102.863 123.98 102.403 124.23 102.089C124.48 101.775 124.937 101.713 125.254 101.963C125.254 101.963 128.319 103.887 132.148 106.522C133.02 107.108 133.919 107.756 134.826 108.425C135.411 108.864 135.999 109.304 136.57 109.764C138.024 110.956 139.425 112.21 140.713 113.381C144.154 116.497 146.724 119.049 146.724 119.049C147.04 119.3 147.093 119.76 146.843 120.073C146.593 120.387 146.135 120.45 145.819 120.199C145.819 120.199 142.758 118.254 138.948 115.619C137.521 114.615 135.989 113.549 134.503 112.399C133.923 111.939 133.363 111.457 132.812 110.997C131.95 110.265 131.118 109.534 130.337 108.802C126.91 105.665 124.349 103.114 124.349 103.114Z" fill="#343434" fill-opacity="0.9"/>
</g>
<defs>
<clipPath id="clip0_233_1439">
<rect width="147" height="150" fill="white"/>
</clipPath>
</defs>
</svg>
