<svg width="172" height="141" viewBox="0 0 172 141" fill="none" xmlns="http://www.w3.org/2000/svg">
<path fill-rule="evenodd" clip-rule="evenodd" d="M134.71 78.0563C134.64 78.5172 134.209 78.8323 133.744 78.7596C133.282 78.6868 132.963 78.2502 133.033 77.7893C133.911 71.022 137.847 64.6427 142.99 60.4465C148.903 55.5954 156.395 53.7036 162.814 56.8325C166.088 58.4334 168.32 61.538 169.472 65.4916C170.769 69.9304 170.678 75.5337 169.216 81.0883C168.146 85.1632 166.343 89.2624 163.84 92.8523C161.347 96.4421 158.154 99.571 154.354 101.803C149.671 104.543 145.483 105.878 141.635 106.435C134.153 107.527 128.044 105.659 122.117 106.023C114.478 106.508 108.47 106.023 103.402 104.18C99.4447 102.748 96.0513 100.468 92.9047 97.1454C92.5756 96.83 92.578 96.2723 92.912 95.957C93.246 95.6174 93.7834 95.6174 94.1125 95.957C97.9053 99.6681 101.989 101.851 106.963 102.87C111.186 103.719 116.042 103.767 121.894 103.185C127.708 102.627 133.766 104.301 141.093 103.04C144.544 102.433 148.286 101.148 152.445 98.6007C155.756 96.5875 158.483 93.7981 160.662 90.6449C162.903 87.3946 164.554 83.7562 165.566 80.0936C166.914 75.2425 167.161 70.3671 166.117 66.4377C165.321 63.43 163.799 60.9802 161.364 59.6947C156.029 56.8568 149.693 58.5304 144.537 62.4114C139.645 66.1225 135.778 71.8226 134.71 78.0563Z" fill="#343434" fill-opacity="0.9"/>
<path fill-rule="evenodd" clip-rule="evenodd" d="M86.1639 53.5332C86.2559 53.9941 85.9582 54.4551 85.4983 54.5279C85.0408 54.6249 84.593 54.3338 84.5011 53.8729C83.8258 50.8895 82.1121 44.9711 80.9818 40.3383C80.3065 37.5731 79.8636 35.2203 79.8829 34.1045C79.9168 32.3338 80.8099 30.9996 82.2089 30.0779C83.6902 29.0834 85.8468 28.5985 88.1293 28.647C89.9954 28.7197 91.7599 28.9622 93.2823 29.2775C94.9064 29.5928 96.2498 30.0052 97.1381 30.2963C99.0357 28.4529 104.181 24.3537 113.311 23.3593C118.193 22.8256 124.239 23.2379 131.535 25.3724C138.663 27.5555 143.641 31.2908 147.417 35.5598C151.38 40.0714 154.001 45.165 156.506 49.531C158.498 52.9996 160.381 56.0074 162.927 57.7538C163.319 57.9964 163.431 58.53 163.174 58.9181C162.92 59.3304 162.395 59.4273 162.003 59.1848C159.164 57.4141 156.917 54.3336 154.591 50.6953C151.973 46.5961 149.228 41.7934 145.224 37.5972C141.657 33.8375 137.058 30.6115 130.542 28.8651C123.792 26.9974 118.225 26.7308 113.72 27.1916C103.555 28.2589 98.9606 33.4254 98.9606 33.4254C98.4717 34.0318 97.6512 34.2258 96.9444 33.9105C96.9444 33.9105 95.1727 33.1341 92.5659 32.5035C91.2177 32.1882 89.6493 31.8971 87.9865 31.7758C86.6528 31.6788 85.3627 31.8003 84.3365 32.2126C83.3925 32.6007 82.664 33.2313 82.5962 34.2258C82.5333 35.2203 82.8818 37.3062 83.3586 39.8288C84.2566 44.5101 85.6459 50.5255 86.1639 53.5332Z" fill="#343434" fill-opacity="0.9"/>
<path fill-rule="evenodd" clip-rule="evenodd" d="M118.164 25.6635C117.835 26.003 117.298 26.003 116.964 25.6635C116.632 25.3481 116.63 24.8144 116.959 24.4748C118.312 22.8497 120.173 20.6425 122.189 18.508C123.46 17.1982 124.777 15.9126 126.023 14.8211C127.243 13.7539 128.405 12.8807 129.363 12.3228C130.198 11.8134 130.937 11.5223 131.488 11.4253C134.415 10.9645 136.298 11.3524 137.435 13.5839C137.866 14.4329 138.22 15.6216 138.355 17.2952C138.503 19.1629 138.45 21.6613 138.222 25.0571C138.232 25.5179 137.857 25.9059 137.389 25.9302C136.92 25.9302 136.535 25.5421 136.528 25.0812C136.111 20.788 135.639 18.0228 135.017 16.3006C134.795 15.67 134.55 15.2819 134.238 15.0151C134.076 14.8938 133.868 14.9424 133.64 14.9424C133.234 14.9424 132.779 15.0394 132.258 15.1849C131.798 15.282 131.167 15.7186 130.353 16.2765C129.332 16.9556 128.129 17.8288 126.868 18.7747C126.013 19.4296 125.13 20.1089 124.247 20.8123C121.979 22.5587 119.752 24.3294 118.164 25.6635Z" fill="#343434" fill-opacity="0.9"/>
<path fill-rule="evenodd" clip-rule="evenodd" d="M132.091 22.2684C131.336 22.9476 130.455 23.6509 129.613 24.3543C128.526 25.2275 127.512 25.9308 126.975 26.4402C126.711 26.8283 126.181 26.9253 125.796 26.6827C125.409 26.4159 125.312 25.8825 125.576 25.4944C126.026 24.4999 127.04 22.7293 128.241 21.0556C128.754 20.3279 129.291 19.6486 129.814 19.0908C130.809 18.0478 131.663 17.4173 131.663 17.4173C132.145 16.9321 132.861 16.7622 133.505 16.9805C134.151 17.1988 134.613 17.781 134.698 18.4602C134.698 18.4602 134.703 19.8911 134.647 21.3465C134.592 22.8261 134.48 24.233 134.48 24.233C134.538 24.6939 134.209 25.1306 133.744 25.1791C133.28 25.2519 132.856 24.9123 132.796 24.4514C132.796 24.4514 132.454 23.4569 132.091 22.2684Z" fill="#343434" fill-opacity="0.9"/>
<path fill-rule="evenodd" clip-rule="evenodd" d="M90.24 37.1584C90.3949 37.7405 90.5474 38.3712 90.6951 39.0261C91.0775 40.7483 91.4066 42.5676 91.6947 43.9744C91.8956 44.9446 91.9803 45.6722 92.0819 45.8905C92.3506 46.2786 92.2562 46.7879 91.8714 47.0547C91.4865 47.3215 90.9564 47.2488 90.6902 46.8607C90.3199 46.4483 88.9548 43.9014 87.7712 41.2333C87.2508 40.0448 86.774 38.8564 86.4327 37.8619C85.9777 36.5036 85.7695 35.5332 85.7695 35.5332C85.5856 34.9268 85.7138 34.2721 86.1083 33.787C86.5029 33.3019 87.1128 33.0591 87.7373 33.1077C87.7373 33.1077 90.0101 33.4473 92.3288 34.6601C93.7375 35.412 95.1413 36.4065 96.1022 37.7648C96.4217 38.1044 96.4024 38.6623 96.0611 38.9776C95.7174 39.2929 95.1801 39.2686 94.8606 38.929C94.0425 38.2741 93.0453 37.8861 92.0529 37.5708C91.4308 37.3768 90.8161 37.2797 90.24 37.1584Z" fill="#343434" fill-opacity="0.9"/>
<path fill-rule="evenodd" clip-rule="evenodd" d="M84.1723 51.0602C84.4434 50.6721 84.9734 50.5752 85.3534 50.842C85.7359 51.1088 85.8254 51.6423 85.5543 52.0304C83.7342 54.9653 82.6886 59.5011 82.4683 64.6434C82.3981 66.3413 82.4175 68.112 82.5361 69.9069C82.6111 71.0469 82.7394 72.2111 82.8798 73.3754C83.2235 76.2133 83.7874 79.0757 84.7314 81.8893C86.1062 85.9643 88.1418 89.8938 91.2738 93.2168C91.6151 93.5321 91.632 94.0656 91.3101 94.4052C90.9882 94.7448 90.4508 94.7691 90.112 94.4537C86.3192 91.2762 83.526 87.3467 81.6478 83.0777C80.3432 80.1185 79.4767 76.9897 79.0434 73.8849C78.8643 72.5994 78.7844 71.3139 78.7627 70.0526C78.7264 68.0879 78.8353 66.1715 79.0918 64.3281C79.8736 58.7493 81.7978 53.9951 84.1723 51.0602Z" fill="#343434" fill-opacity="0.9"/>
<path fill-rule="evenodd" clip-rule="evenodd" d="M71.7406 102.07C71.2734 102.022 70.9249 101.633 70.9588 101.148C70.9951 100.687 71.4017 100.348 71.8689 100.372C71.8689 100.372 76.0538 100.324 81.4416 101.148C83.2497 101.415 85.1787 101.803 87.1296 102.313C88.381 102.628 89.6275 103.04 90.8594 103.477C91.8179 103.865 92.803 104.132 93.7882 104.326C95.3638 104.641 96.9492 104.787 98.5104 104.811C103.835 104.86 108.785 103.647 111.3 103.841C111.769 103.841 112.145 104.229 112.142 104.69C112.137 105.151 111.755 105.539 111.288 105.539C109.869 105.636 107.749 106.339 105.193 106.994C103.201 107.503 100.982 107.989 98.6532 108.207C96.8451 108.352 94.979 108.352 93.1298 108.086C91.8905 107.892 90.6658 107.552 89.4605 107.091C88.059 106.509 86.6141 105.999 85.1957 105.514C83.6805 105.005 82.1992 104.568 80.7954 104.156C75.7198 102.725 71.7406 102.07 71.7406 102.07Z" fill="#343434" fill-opacity="0.9"/>
<path fill-rule="evenodd" clip-rule="evenodd" d="M132.023 105.586C131.73 105.222 131.791 104.688 132.156 104.373C132.522 104.082 133.054 104.155 133.347 104.518C135.647 106.92 136.383 109.2 136.349 111.14C136.295 114.269 134.023 116.501 131.665 117.544C129.939 118.199 128.209 118.32 126.529 117.883C125.055 117.519 123.612 116.743 122.257 115.676C120.964 114.633 119.73 113.323 118.588 111.819C117.111 109.879 115.79 107.647 114.57 105.343C114.318 104.931 114.432 104.421 114.826 104.155C115.221 103.912 115.746 104.009 115.998 104.421C117.254 106.046 118.59 107.599 119.953 109.03C121.381 110.509 122.857 111.795 124.346 112.765C125.37 113.42 126.401 113.881 127.439 114.124C128.412 114.366 129.4 114.39 130.411 114.051C131.791 113.663 133.2 112.596 133.495 110.873C133.742 109.442 133.408 107.672 132.023 105.586Z" fill="#343434" fill-opacity="0.9"/>
<path fill-rule="evenodd" clip-rule="evenodd" d="M62.8874 103.307C62.5994 103.21 62.2145 103.113 61.8732 103.04C58.233 102.167 50.5893 100.469 43.0715 94.5746C38.054 90.6452 33.1115 84.7994 29.4373 76.1644C25.0587 65.6859 26.8934 55.0862 31.5624 46.0873C36.8075 35.9969 45.5742 27.9684 52.5087 24.5968C52.925 24.3785 53.4357 24.5483 53.6487 24.9607C53.8617 25.373 53.6947 25.9067 53.2759 26.1007C46.7675 29.5693 38.6929 37.5008 33.9804 47.3001C29.977 55.6198 28.411 65.3221 32.6589 74.7576C36.1636 82.665 40.806 87.9286 45.4435 91.5185C52.4046 96.9275 59.4117 98.5526 62.7616 99.4016C63.933 99.6926 64.7487 99.9593 65.1384 100.178C65.516 100.396 65.7605 100.663 65.9129 100.881C66.1284 101.196 66.4091 101.9 66.5664 102.943C66.7552 104.204 66.8859 106.169 66.9586 108.473C67.1159 113.543 67.0094 120.237 66.8327 124.215C66.6705 127.684 67.9969 129.867 69.8292 130.861C72.0922 132.098 75.0451 131.589 75.9092 129.357C76.7201 127.247 77.9037 124.846 79.2422 122.396C82.7154 116.065 87.1884 109.419 88.2703 107.309C88.476 106.896 88.9843 106.727 89.4055 106.921C89.8266 107.139 90.0009 107.648 89.7952 108.061C88.9045 109.977 85.4989 115.531 82.4661 121.28C80.8203 124.409 79.2833 127.587 78.3563 130.255C77.0468 134.014 72.2883 135.373 68.4762 133.456C65.7871 132.098 63.5482 129.09 63.6353 124.118C63.7007 120.746 63.6571 115.435 63.4828 110.826C63.3739 108.037 63.219 105.514 62.9939 103.913C62.9649 103.695 62.9237 103.476 62.8874 103.307ZM79.2736 21.9529C78.8065 21.9529 78.441 21.5406 78.4628 21.0798C78.4822 20.6189 78.8767 20.255 79.3462 20.255C81.9627 20.1094 84.7897 20.0367 87.9072 20.255C89.0182 20.3277 90.151 20.4492 91.3176 20.6432C92.0558 20.7402 92.8086 20.8614 93.5637 21.0312C95.3403 21.4435 97.1581 22.0014 99.0291 22.6805C101.57 23.578 104.143 24.7181 106.876 26.0036C107.317 26.1492 107.546 26.6343 107.389 27.0951C107.232 27.5317 106.745 27.7502 106.305 27.6046C103.565 26.9012 100.97 26.416 98.4796 25.9309C96.6788 25.5671 94.9482 25.2761 93.2902 24.9365C91.8041 24.6454 90.3833 24.2815 89.0109 23.9904C87.5127 23.6509 86.0968 23.2871 84.7171 22.996C82.788 22.5837 80.9994 22.2197 79.2736 21.9529Z" fill="#343434" fill-opacity="0.9"/>
<path fill-rule="evenodd" clip-rule="evenodd" d="M57.4504 28.1856C57.8788 28.3796 58.0749 28.8649 57.8861 29.3015C57.6997 29.7381 57.1987 29.9321 56.7703 29.738C52.9412 28.2584 50.62 24.7656 49.5961 20.6907C48.6352 16.8825 48.9112 12.565 50.1069 8.99938C51.8132 4.17249 55.6302 1.79533 59.7353 1.14043C61.8241 0.776592 63.9928 0.897823 65.9557 1.33443C68.3035 1.86805 70.3657 2.86268 71.7405 4.02695C75.6398 7.42275 77.3413 11.7161 77.5398 15.8395C77.7891 20.9575 75.7874 25.7357 73.3065 27.943C72.9701 28.2826 72.4327 28.2826 72.1084 27.943C71.7817 27.6034 71.7889 27.0698 72.1253 26.7302C74.0835 24.6685 75.3687 20.4237 74.8265 16.0577C74.4126 12.7347 72.8587 9.33881 69.5089 6.79196C68.4681 5.96727 66.9094 5.38523 65.1836 5.0699C63.6467 4.75458 61.9693 4.70607 60.3404 4.94862C57.4456 5.40948 54.6718 6.86487 53.3502 10.2122C52.1134 13.1956 51.6608 16.834 52.215 20.157C52.7911 23.5771 54.391 26.6817 57.4504 28.1856Z" fill="#343434" fill-opacity="0.9"/>
<path fill-rule="evenodd" clip-rule="evenodd" d="M59.2058 4.05347C58.7967 4.27177 58.2812 4.12638 58.0537 3.71404C57.8262 3.30169 57.9738 2.79213 58.3828 2.54957C62.7807 -0.288348 67.4836 -0.579227 71.5378 0.803349C73.3265 1.40974 74.9675 2.40404 76.4053 3.64108C77.3565 4.46577 78.2133 5.41189 78.9322 6.45488C80.2344 8.37109 81.1299 10.6026 81.493 13.0039C81.8028 15.0414 81.7447 17.2244 81.2001 19.4317C80.5297 22.1726 79.1742 24.9619 76.9329 27.6542C76.6594 28.0423 76.1293 28.1395 75.7493 27.8485C75.3693 27.5817 75.2846 27.0479 75.5581 26.6598C77.5598 23.4581 78.4045 20.3048 78.4602 17.3941C78.4868 16.0843 78.3198 14.8474 78.0415 13.6589C77.6082 11.8154 76.7828 10.1661 75.7566 8.68646C74.3406 6.64898 72.4842 4.97533 70.2719 3.95659C67.0237 2.45274 63.1583 2.18578 59.2058 4.05347Z" fill="#343434" fill-opacity="0.9"/>
<path fill-rule="evenodd" clip-rule="evenodd" d="M57.3853 33.1379C56.9521 33.3077 56.4559 33.0893 56.2792 32.677C56.1025 32.2404 56.3107 31.7311 56.7463 31.5613C56.7463 31.5613 58.8158 30.2514 62.3907 29.1599C63.1265 28.9173 63.9229 28.7476 64.7773 28.6021C65.3001 28.505 65.8398 28.4079 66.4014 28.3837C67.689 28.3109 69.0614 28.3595 70.4895 28.5535C72.4161 28.7961 74.3718 29.3054 76.4146 30.0089C76.8721 30.1059 77.1698 30.5668 77.0778 31.0276C76.9834 31.4642 76.5357 31.7796 76.0782 31.6826C74.0692 31.5613 72.2055 31.7069 70.4047 31.8524C69.3204 31.9495 68.2942 32.0948 67.3018 32.1919C66.5878 32.2646 65.8955 32.3133 65.2347 32.3375C64.0899 32.4346 63.0467 32.4829 62.1051 32.5557C59.1885 32.7983 57.3853 33.1379 57.3853 33.1379Z" fill="#343434" fill-opacity="0.9"/>
<path fill-rule="evenodd" clip-rule="evenodd" d="M39.8229 119.047C39.6002 119.459 39.0846 119.605 38.6732 119.386C38.2617 119.144 38.1092 118.634 38.3319 118.222C39.5373 115.651 40.9847 113.492 42.5095 111.794C43.894 110.266 45.368 109.15 46.7743 108.471C50.5066 106.676 52.9754 107.38 54.4252 108.835C55.4902 109.902 56.0663 111.528 56.1268 113.468C56.1897 115.384 55.6959 117.591 54.8222 119.629C53.5176 122.418 51.8741 124.965 50.1968 127.051C47.4907 130.423 44.7847 132.63 43.7415 133.163C41.3719 134.401 39.2541 134.449 37.6639 133.697C35.7784 132.824 34.5367 130.908 34.6359 128.531C34.6287 128.07 35.0038 127.682 35.4709 127.658C35.9405 127.658 36.3254 128.046 36.3326 128.507C36.4343 130.01 37.2669 131.175 38.5086 131.611C39.576 131.975 40.9048 131.708 42.3401 130.762C43.2017 130.204 45.2664 128.021 47.4181 124.941C48.8074 122.976 50.2258 120.648 51.286 118.077C51.7507 117.034 52.0798 115.942 52.2517 114.899C52.4284 113.807 52.4671 112.789 52.2057 111.964C51.77 110.606 50.4267 110.315 47.9724 111.261C46.5177 111.794 44.9686 112.886 43.4583 114.39C42.19 115.675 40.9459 117.228 39.8229 119.047Z" fill="#343434" fill-opacity="0.9"/>
<path fill-rule="evenodd" clip-rule="evenodd" d="M57.2618 114.057C57.2521 113.596 57.6248 113.208 58.0944 113.184C58.5615 113.184 58.9488 113.547 58.9585 114.033C58.9585 114.033 59.1812 115.512 59.0093 117.865C58.927 118.981 58.7479 120.242 58.4018 121.673C58.1694 122.595 57.8451 123.589 57.4239 124.584C57.1674 125.214 56.8769 125.845 56.5163 126.452C55.7006 127.834 54.6477 129.216 53.3431 130.502C51.69 132.151 49.6665 133.631 47.2025 134.941C46.8153 135.184 46.2852 135.087 46.0238 134.698C45.76 134.31 45.8616 133.777 46.2489 133.534C48.1779 131.86 49.5939 130.09 50.8259 128.368C51.7505 127.058 52.4669 125.772 53.1495 124.535C53.9458 123.128 54.6501 121.794 55.1923 120.557C56.8213 116.846 57.2618 114.057 57.2618 114.057Z" fill="#343434" fill-opacity="0.9"/>
<path fill-rule="evenodd" clip-rule="evenodd" d="M22.103 112.063C22.0449 111.578 22.3765 111.166 22.8412 111.093C23.3059 111.044 23.7295 111.384 23.7851 111.845C24.6202 116.575 24.199 120.067 23.1582 122.493C22.3402 124.409 21.0864 125.671 19.6922 126.422C16.4464 128.169 12.1575 127.005 9.06902 123.342C7.88301 121.862 6.96325 120.334 6.30973 118.782C5.57877 117.036 5.15763 115.289 4.96884 113.64C4.42909 108.886 5.72159 104.811 6.96569 103.113C8.54864 101.027 11.1724 99.4016 14.2197 100.178C16.0253 100.639 18.0391 101.948 19.9778 104.714C20.2659 105.102 20.1981 105.635 19.8302 105.926C19.4599 106.217 18.9249 106.145 18.6393 105.781C16.8676 103.719 15.2169 102.749 13.7428 102.531C11.8089 102.24 10.3131 103.452 9.45389 104.835C8.58012 106.217 8.01615 109.444 8.62852 113.106C8.85119 114.465 9.2554 115.847 9.86292 117.254C10.4027 118.515 11.0973 119.777 12.0365 120.989C14.2075 123.924 17.5671 124.894 19.7382 122.542C21.4422 120.698 22.4636 117.302 22.103 112.063Z" fill="#343434" fill-opacity="0.9"/>
<path fill-rule="evenodd" clip-rule="evenodd" d="M3.91104 101.413C4.14098 101.001 4.65892 100.856 5.06798 101.098C5.47461 101.316 5.61985 101.85 5.38991 102.238C4.24021 104.882 3.81179 107.453 3.68835 109.903C3.59879 111.649 3.76337 113.323 4.04414 114.9C4.26924 116.161 4.53064 117.374 4.94938 118.538C5.24225 119.338 5.55451 120.115 5.9442 120.842C6.9874 122.807 8.32588 124.505 10.0178 125.766C10.422 126.009 10.5551 126.518 10.3179 126.931C10.0807 127.319 9.56028 127.464 9.15607 127.221C6.49845 125.984 4.17729 123.923 2.48786 121.279C1.42287 119.581 0.633802 117.665 0.234433 115.579C0.0819461 114.778 0.0117634 113.954 0.00208173 113.129C-0.0148612 111.94 0.0698405 110.728 0.321564 109.491C0.87584 106.774 2.04492 104.057 3.91104 101.413Z" fill="#343434" fill-opacity="0.9"/>
<path fill-rule="evenodd" clip-rule="evenodd" d="M57.4121 99.6188C57.676 99.2307 58.206 99.1338 58.5909 99.4006C58.9782 99.6674 59.075 100.201 58.8112 100.589C58.8112 100.589 58.3876 102.02 57.5356 103.888C57.3492 104.276 57.1314 104.688 56.8869 105.101C56.732 105.367 56.5723 105.634 56.3786 105.877C55.8873 106.507 55.3233 107.041 54.7618 107.55C53.571 108.618 52.4914 109.37 51.7992 109.733C51.4483 110.049 50.9109 110.025 50.6011 109.661C50.2913 109.321 50.3252 108.787 50.6762 108.472C51.0223 107.963 51.3708 107.09 51.9008 106.022C52.1042 105.61 52.3026 105.198 52.5447 104.761C52.7698 104.373 52.9973 103.96 53.2684 103.572C53.4427 103.33 53.6387 103.087 53.8348 102.869C54.147 102.53 54.4592 102.19 54.7787 101.899C56.2479 100.516 57.4121 99.6188 57.4121 99.6188Z" fill="#343434" fill-opacity="0.9"/>
<path fill-rule="evenodd" clip-rule="evenodd" d="M40.9579 90.4525C41.1878 90.0402 41.7058 89.8947 42.1124 90.1372C42.5214 90.3555 42.6666 90.8892 42.4367 91.2773C42.4367 91.2773 41.0982 94.4062 39.4983 98.1416C39.0893 99.0876 38.6609 100.058 38.23 101.052C37.7484 102.144 37.2836 103.235 36.8262 104.254C36.3058 105.418 35.8193 106.486 35.4393 107.383C35.1706 108.014 34.931 108.547 34.8197 108.96C34.1928 111.021 34.4929 112.477 35.4659 113.398C36.7778 114.66 38.8279 115.169 40.6335 115.072C41.0982 114.999 41.5267 115.315 41.592 115.776C41.6574 116.236 41.3354 116.673 40.8707 116.746C38.506 117.304 35.6668 117.013 33.6724 115.606C31.7409 114.247 30.6227 111.87 31.2447 108.111C31.4021 107.334 31.7627 106.17 32.3508 104.812C32.9148 103.502 33.6796 102.023 34.5268 100.494C35.3037 99.1119 36.1606 97.705 36.9884 96.3952C39.0893 93.0964 40.9579 90.4525 40.9579 90.4525Z" fill="#343434" fill-opacity="0.9"/>
<path fill-rule="evenodd" clip-rule="evenodd" d="M144 117.57C144.221 117.133 144.736 116.987 145.148 117.206C145.561 117.424 145.719 117.933 145.498 118.346C144.165 121.402 144.678 124.943 146.522 128.194C147.563 130.037 149.09 131.735 151.007 133.287C152.689 134.646 154.648 135.883 156.993 136.829C160.004 138.066 163.523 138.939 167.662 139.06C168.129 139.036 168.524 139.4 168.546 139.861C168.565 140.346 168.2 140.734 167.732 140.758C163.259 141.268 159.312 140.952 155.916 139.982C153.055 139.157 150.591 137.872 148.592 136.319C147.684 135.592 146.885 134.815 146.181 133.991C145.036 132.632 144.121 131.201 143.485 129.722C141.677 125.477 141.829 121.014 144 117.57Z" fill="#343434" fill-opacity="0.9"/>
<path fill-rule="evenodd" clip-rule="evenodd" d="M163.617 120.287C164.022 120.506 164.16 121.039 163.925 121.452C163.69 121.84 163.17 121.985 162.765 121.743C159.544 120.118 156.702 119.438 154.381 119.39C152.854 119.366 151.593 119.657 150.639 120.166C149.705 120.676 149.17 121.476 149.175 122.422C149.165 123.513 149.623 124.556 150.283 125.527C150.961 126.521 151.898 127.443 152.951 128.316C154.834 129.844 157.119 131.154 159.343 132.076C161.037 132.779 162.669 133.288 164.041 133.458C166.631 133.822 168.417 133.507 169.281 132.464C170.266 131.251 169.913 129.408 168.502 127.394C168.214 127.006 168.279 126.473 168.649 126.182C169.02 125.89 169.552 125.963 169.84 126.327C172.27 129.141 172.522 131.979 171.232 133.919C170.116 135.593 167.647 136.708 163.775 136.563C161.788 136.466 159.278 135.884 156.768 134.889C154.563 133.992 152.358 132.779 150.525 131.324C149.431 130.451 148.473 129.48 147.708 128.462C146.287 126.57 145.505 124.459 145.634 122.301C145.864 119.293 148.257 116.77 152.488 116.576C155.419 116.455 159.287 117.425 163.617 120.287Z" fill="#343434" fill-opacity="0.9"/>
<path fill-rule="evenodd" clip-rule="evenodd" d="M131.118 120.839C130.658 120.936 130.21 120.621 130.116 120.16C130.024 119.699 130.319 119.263 130.779 119.166C130.779 119.166 132.304 118.39 134.705 117.832C135.216 117.686 135.76 117.613 136.339 117.565C136.697 117.516 137.067 117.492 137.443 117.492C138.355 117.541 139.284 117.711 140.204 117.953C141.61 118.341 142.893 118.899 144.106 119.651C144.546 119.821 144.772 120.306 144.612 120.743C144.45 121.203 143.961 121.422 143.523 121.252C142.496 121.106 141.497 121.179 140.437 121.203C139.919 121.228 139.422 121.276 138.912 121.3C138.396 121.325 137.893 121.397 137.394 121.373C136.518 121.373 135.693 121.276 134.933 121.203C132.66 121.009 131.118 120.839 131.118 120.839Z" fill="#343434" fill-opacity="0.9"/>
<path fill-rule="evenodd" clip-rule="evenodd" d="M143.218 123.873C143.622 123.654 144.143 123.776 144.378 124.188C144.612 124.6 144.474 125.11 144.07 125.352C142.49 126.492 140.149 127.39 137.508 128.093C136.046 128.457 134.507 128.748 132.968 128.966C131.806 129.136 130.649 129.257 129.543 129.306C128.749 129.355 127.979 129.379 127.256 129.379C124.213 129.33 121.909 129.039 121.376 128.918C118.728 128.287 117.32 127.196 116.828 126.104C116.073 124.406 116.901 122.32 119.452 121.423C119.88 121.229 120.382 121.423 120.575 121.859C120.769 122.272 120.578 122.781 120.152 122.975C119.319 123.46 118.816 124.067 118.874 124.673C118.898 124.916 119.183 125.037 119.505 125.231C120.04 125.522 120.822 125.668 121.863 125.74C122.298 125.789 123.998 125.692 126.302 125.571C127.243 125.546 128.279 125.498 129.371 125.449C130.358 125.425 131.39 125.401 132.433 125.352C133.965 125.304 135.514 125.255 137 125.11C139.425 124.916 141.64 124.6 143.218 123.873Z" fill="#343434" fill-opacity="0.9"/>
<path fill-rule="evenodd" clip-rule="evenodd" d="M144.689 128.145C145.125 127.975 145.616 128.194 145.788 128.63C145.958 129.067 145.742 129.576 145.307 129.746C143.058 130.862 140.553 131.808 137.939 132.487C136.228 132.923 134.495 133.263 132.783 133.481C130.963 133.7 129.179 133.797 127.519 133.748C124.162 133.627 121.315 132.948 119.507 132.147C117.607 131.226 116.218 129.576 115.773 128.048C115.39 126.738 115.557 125.574 116.325 124.943C116.661 124.676 117.087 124.434 117.668 124.385C118.13 124.313 118.566 124.628 118.639 125.089C118.711 125.55 118.394 125.986 117.932 126.059C117.678 126.132 117.624 126.35 117.634 126.568C117.649 126.932 117.888 127.296 118.176 127.708C118.689 128.436 119.556 129.042 120.572 129.333C121.466 129.625 122.622 129.746 123.966 129.843C125.07 129.916 126.285 129.891 127.584 129.891C129.124 129.916 130.772 129.891 132.471 129.794C134.088 129.722 135.736 129.625 137.385 129.455C139.921 129.188 142.409 128.824 144.689 128.145Z" fill="#343434" fill-opacity="0.9"/>
<path fill-rule="evenodd" clip-rule="evenodd" d="M150.731 71.2846C151.073 70.9692 151.61 70.9935 151.929 71.3331C152.251 71.6727 152.232 72.2062 151.891 72.5215C151.891 72.5215 151.402 73.613 150.763 75.4322C150.562 75.9901 150.405 76.6208 150.155 77.2999C149.979 77.7851 149.732 78.2702 149.521 78.8038C149.318 79.3132 149.073 79.7983 148.882 80.3805C148.65 81.0596 148.403 81.7145 148.248 82.5149C148.272 82.9758 147.909 83.364 147.442 83.3883C146.975 83.4125 146.576 83.0485 146.554 82.5876C146.275 81.6417 146.135 80.817 146.05 79.9195C145.99 79.2889 146.007 78.6825 146.058 78.1003C146.118 77.3969 146.254 76.742 146.457 76.1599C146.573 75.8203 146.728 75.4807 146.893 75.1896C147.169 74.7045 147.452 74.2681 147.764 73.88C148.137 73.4191 148.478 73.0552 148.836 72.7399C149.959 71.7212 150.731 71.2846 150.731 71.2846Z" fill="#343434" fill-opacity="0.9"/>
<path fill-rule="evenodd" clip-rule="evenodd" d="M157.595 72.6429C157.196 72.4004 157.07 71.8669 157.315 71.4546C157.559 71.0665 158.082 70.945 158.481 71.1876C158.481 71.1876 159.154 71.3575 160.275 71.8911C160.631 72.0609 160.967 72.2792 161.362 72.5461C161.693 72.7644 162.003 73.0553 162.323 73.3706C162.514 73.5647 162.703 73.783 162.86 74.0256C163.138 74.4622 163.366 74.9473 163.53 75.4809C163.678 75.966 163.801 76.427 163.855 76.9606C163.93 77.6883 163.964 78.3674 163.879 79.1678C163.968 79.6287 163.671 80.0652 163.211 80.1622C162.751 80.2592 162.306 79.944 162.214 79.4831C161.843 78.7797 161.393 78.2945 160.955 77.7366C160.778 77.5183 160.589 77.3485 160.422 77.1302C160.168 76.8149 159.885 76.5483 159.67 76.233C159.343 75.7479 159.123 75.2627 158.876 74.8504C158.067 73.492 157.595 72.6429 157.595 72.6429Z" fill="#343434" fill-opacity="0.9"/>
</svg>
