<svg width="144" height="163" viewBox="0 0 144 163" fill="none" xmlns="http://www.w3.org/2000/svg">
<g clip-path="url(#clip0_233_1523)">
<path fill-rule="evenodd" clip-rule="evenodd" d="M45.6852 79.3061C47.6318 80.2016 49.7979 79.7209 51.847 78.8035C56.4208 76.7505 60.4534 72.3822 61.162 71.7051C61.7517 71.1591 63.7586 70.0671 66.1297 69.0187C68.757 67.883 71.8306 66.7472 73.6219 66.354C74.8588 66.0701 76.3384 66.1794 77.7761 66.4852C80.4896 67.0749 83.0402 68.3417 83.0402 68.3417C83.1244 68.3854 83.2049 68.4291 83.2811 68.4946C83.2811 68.4946 95.146 77.0781 103.896 83.281C108.237 86.3825 111.791 88.8725 112.703 89.3748C116.194 91.3187 120.233 91.1221 122.218 91.8428C122.887 92.0831 123.402 92.4107 123.759 92.8257C124.377 93.5028 124.759 94.595 124.767 95.9054C124.777 97.6091 124.221 99.7494 123.165 101.715C121.722 104.402 119.375 106.717 116.517 107.197C112.208 107.94 108.04 107.023 103.859 105.101C96.2344 101.584 88.538 94.7259 79.6241 89.5932C79.2535 89.3967 79.1218 88.9379 79.3302 88.5666C79.5388 88.1953 80.0089 88.0644 80.3795 88.261C89.3451 93.1316 97.1408 99.7493 104.783 103.047C108.537 104.664 112.246 105.472 116.056 104.729C118.15 104.314 119.741 102.48 120.76 100.47C121.424 99.1815 121.832 97.7837 121.927 96.5824C121.99 95.7961 121.978 95.0972 121.629 94.7259C121.379 94.442 120.872 94.4202 120.269 94.3328C118.774 94.0707 116.779 93.9179 114.713 93.3937C113.547 93.0879 112.364 92.6728 111.223 92.0612C110.073 91.4497 104.832 87.8896 99.0424 83.849C91.2812 78.4542 82.5117 72.2076 81.3633 71.3995C80.8883 71.1592 79.0146 70.3073 77.04 69.8924C76.1169 69.6958 75.1694 69.5867 74.3757 69.7614C72.9928 70.0672 70.776 70.8535 68.672 71.7271C66.3187 72.6881 64.0881 73.6927 63.5206 74.2169C62.7366 74.9376 58.227 79.6337 53.1932 81.8178C50.0495 83.1938 46.7175 83.5869 43.8049 81.9488C43.3686 81.7085 42.9376 81.2717 42.7163 80.5291C42.4015 79.4589 42.5374 77.1437 43.5776 74.1951C44.806 70.6787 47.2353 66.0921 51.2858 61.5884C52.2494 60.5182 59.3756 55.7873 66.2642 52.2555C70.6085 50.0277 74.8597 48.2913 77.4044 48.1253C80.3826 47.9331 89.0662 48.2281 96.808 48.7654C102.478 49.1585 107.642 49.6826 109.713 50.209C110.126 50.3094 110.38 50.7245 110.28 51.1351C110.179 51.5457 109.762 51.7969 109.349 51.6986C106.924 51.1417 100.22 50.7179 93.5 50.4732C86.8081 50.2308 80.1017 50.172 77.5783 50.3926C75.2424 50.5936 71.4029 52.3583 67.4524 54.4879C61.028 57.9497 54.3367 62.4446 53.4481 63.4711C51.0205 66.2668 49.2438 69.0843 48.005 71.6179C46.5461 74.5883 45.8436 77.1438 45.7463 78.76C45.7359 78.9348 45.6981 79.1532 45.6852 79.3061ZM45.6832 79.3496C45.6731 79.5025 45.6907 79.6336 45.7883 79.59C45.9302 79.5463 45.8274 79.4369 45.6832 79.3496Z" fill="#343434" fill-opacity="0.9"/>
<path fill-rule="evenodd" clip-rule="evenodd" d="M111.252 50.6895C112.055 51.9475 113.676 54.1362 115.514 58.1462C116.349 59.9656 117.21 62.1584 118.052 64.8012C119.158 68.2521 120.23 72.4675 121.154 77.6221C121.836 81.4225 122.408 85.7252 122.883 90.6176C122.941 91.0326 122.646 91.4256 122.224 91.4693C121.803 91.5348 121.414 91.2509 121.357 90.8141C120.173 84.1525 118.815 78.6266 117.508 73.9963C115.931 68.4268 114.331 64.2115 112.932 60.9769C111.149 56.8598 109.666 54.3743 108.763 52.876C108.207 51.9543 107.867 51.3055 107.748 50.8599C107.556 50.1457 107.654 49.5997 107.92 49.1672C108.108 48.8592 108.372 48.5623 108.806 48.3526C109.521 48.0097 111.979 47.1338 114.987 46.164C120.997 44.2267 129.202 41.8154 129.202 41.8154C129.603 41.6778 130.043 41.8896 130.182 42.2893C130.321 42.689 130.108 43.1237 129.706 43.2635C129.706 43.2635 119.79 47.1687 113.983 49.5516C112.883 50.0015 111.937 50.3924 111.252 50.6895Z" fill="#343434" fill-opacity="0.9"/>
<path fill-rule="evenodd" clip-rule="evenodd" d="M142.958 87.911C143.356 87.7581 143.8 87.9548 143.95 88.3698C144.1 88.7629 143.899 89.1998 143.501 89.3526C143.501 89.3526 141.094 90.7067 137.828 92.2138C137.089 92.5632 136.307 92.8908 135.496 93.2184C134.978 93.4149 134.451 93.6334 133.911 93.8081C132.535 94.245 131.13 94.5945 129.805 94.8784C126.905 95.5118 124.43 95.8176 123.294 95.7521C122.869 95.7521 122.507 95.4462 122.486 95.0094C122.465 94.5944 122.792 94.2231 123.217 94.2012C124.122 94.0483 125.831 93.3277 127.945 92.4322C128.71 92.1046 129.51 91.777 130.349 91.4276C131.143 91.1218 131.954 90.794 132.779 90.4882C133.307 90.3135 133.842 90.1606 134.372 89.9859C135.201 89.7457 136.013 89.5272 136.795 89.3307C140.27 88.457 142.958 87.911 142.958 87.911Z" fill="#343434" fill-opacity="0.9"/>
<path fill-rule="evenodd" clip-rule="evenodd" d="M110.299 106.365C110.144 105.972 110.34 105.513 110.736 105.36C111.132 105.208 111.579 105.404 111.734 105.797C112.253 106.933 112.784 109.183 112.931 111.323C113.038 112.896 112.885 114.381 112.481 115.386C112.121 116.259 110.957 118.181 109.541 119.535C108.373 120.671 106.983 121.326 105.742 121.283C103.795 121.173 101.274 120.649 98.5017 119.754C96.3968 119.055 94.1405 118.159 91.8681 117.133C88.6339 115.669 85.3735 113.944 82.4255 112.328C78.5715 110.187 75.2934 108.156 73.3573 106.889C72.99 106.671 72.8658 106.212 73.0801 105.841C73.2944 105.492 73.7665 105.36 74.1338 105.579C76.1622 106.627 79.6118 108.243 83.5893 110.013C86.6142 111.367 89.9462 112.765 93.187 114.053C95.4172 114.949 97.6026 115.779 99.6187 116.456C102.072 117.308 104.254 117.985 105.98 118.159C106.259 118.181 106.549 118.05 106.843 117.897C107.268 117.635 107.693 117.308 108.085 116.936C109.071 116.019 109.911 114.905 110.21 114.337C110.674 113.464 110.814 111.978 110.801 110.515C110.787 108.877 110.594 107.239 110.299 106.365Z" fill="#343434" fill-opacity="0.9"/>
<path fill-rule="evenodd" clip-rule="evenodd" d="M100.698 118.859C100.701 118.422 101.048 118.094 101.473 118.094C101.898 118.094 102.242 118.444 102.239 118.859C102.308 120.082 102.171 121.895 101.277 123.38C100.516 124.669 99.2003 125.673 97.038 126.045C95.3296 126.307 93.9361 126.547 90.8226 125.957C89.3707 125.673 87.5253 125.215 85.0773 124.428C83.6039 123.948 81.9067 123.358 79.9506 122.594C78.4448 122.004 76.7922 121.305 74.9556 120.497C73.1613 119.711 71.2036 118.815 69.049 117.811C66.421 116.587 63.529 115.19 60.2874 113.595C59.8957 113.442 59.7122 112.984 59.8779 112.59C60.0434 112.219 60.4957 112.023 60.8874 112.197C64.0974 113.333 66.9905 114.338 69.6069 115.255C72.938 116.456 75.8097 117.461 78.2984 118.335C80.5044 119.121 82.4069 119.82 84.054 120.41C86.4211 121.283 88.2572 121.96 89.75 122.441C93.6348 123.686 94.9951 123.642 96.7677 123.533C98.1183 123.468 99.0089 122.965 99.5685 122.244C100.39 121.174 100.634 119.798 100.698 118.859Z" fill="#343434" fill-opacity="0.9"/>
<path fill-rule="evenodd" clip-rule="evenodd" d="M34.6413 54.6483C31.2328 53.4034 19.7073 48.3428 11.9213 45.3199C9.49156 44.3764 7.43764 43.6294 6.12198 43.2821C5.70834 43.186 5.4525 42.7731 5.55097 42.3603C5.64944 41.9496 6.06527 41.6963 6.4787 41.7946C8.35701 42.1877 11.7114 43.2645 15.5228 44.5969C23.5398 47.4013 33.6015 51.3284 35.9735 51.9924C36.6159 52.1759 37.3841 52.8944 37.4595 54.4604C37.5522 56.3846 36.746 60.5759 35.3686 65.8921C34.6108 68.8188 33.6903 72.0949 32.6562 75.524C31.7216 78.6255 30.7031 81.8361 29.646 85.025C25.2306 98.37 20.4118 111.3 19.9293 113.178C19.0385 116.564 16.787 118.682 12.4429 118.333C9.5531 118.115 5.60789 116.673 0.388572 113.572C0.0193269 113.353 -0.109468 112.895 0.101309 112.523C0.312087 112.152 0.782873 112.021 1.15212 112.239C6.15033 114.926 9.8652 116.127 12.5673 116.236C15.4993 116.324 16.9998 114.904 17.498 112.611C17.8842 110.885 21.4516 99.7461 25.2511 87.5587C26.2799 84.2607 27.332 80.8751 28.3479 77.5989C29.0517 75.3274 29.744 73.0779 30.3926 70.9593C32.1808 65.084 33.6321 59.9557 34.1989 56.7363C34.3286 56.0002 34.6081 55.1332 34.6413 54.6483ZM34.6444 54.5479C34.6422 54.3557 34.5842 54.2485 34.4349 54.2704C34.282 54.2966 34.5251 54.4583 34.6444 54.5479Z" fill="#343434" fill-opacity="0.9"/>
<path fill-rule="evenodd" clip-rule="evenodd" d="M36.1691 55.4237C35.7603 55.5394 35.3337 55.3035 35.2168 54.8973C35.1 54.491 35.3372 54.0673 35.746 53.9515C37.452 53.3422 41.6489 52.1234 46.9398 50.9964C48.3799 50.6884 49.8993 50.4046 51.4708 50.1447C52.4667 49.9787 53.4819 49.8169 54.5122 49.6968C57.0427 49.4019 59.6421 49.2251 62.1879 49.129C66.3865 48.9717 70.4109 49.1005 73.7747 49.4412C74.1996 49.4587 74.5315 49.8149 74.5152 50.2364C74.4989 50.6579 74.1409 50.9878 73.716 50.9725C71.4456 51.0402 68.8996 51.2955 66.1968 51.6166C64.2467 51.8481 62.236 52.1409 60.1997 52.4205C58.1952 52.6979 56.1822 53.0079 54.2041 53.2547C51.6835 53.5692 49.232 53.8184 46.9739 54.0674C41.9139 54.6243 37.8558 55.0655 36.1691 55.4237Z" fill="#343434" fill-opacity="0.9"/>
<path fill-rule="evenodd" clip-rule="evenodd" d="M21.8487 102.389C21.5162 102.127 21.4614 101.647 21.7265 101.319C21.9913 100.97 22.4764 100.926 22.8089 101.188C24.2996 102.28 29.6391 104.77 36.1703 107.719C39.2069 109.073 42.4959 110.536 45.7799 111.978C47.9449 112.939 50.1069 113.878 52.1872 114.817C54.4383 115.822 56.5955 116.783 58.5721 117.678C62.996 119.666 66.4909 121.195 68.0637 121.61C72.2478 122.767 76.2486 123.291 79.5401 123.401C83.1933 123.532 85.9395 123.248 86.9947 122.724C87.3675 122.505 87.8361 122.658 88.0409 123.007C88.2458 123.379 88.1095 123.859 87.7367 124.056C86.6101 124.733 83.6034 125.388 79.5366 125.541C76.0758 125.65 71.8427 125.366 67.3729 124.449C65.4886 124.056 60.9056 122.374 55.3456 120.015C53.8657 119.404 52.3191 118.705 50.7377 117.984C48.5084 116.957 46.2092 115.865 43.9245 114.73C40.8391 113.201 37.786 111.628 34.9694 110.121C28.4922 106.67 23.2848 103.612 21.8487 102.389Z" fill="#343434" fill-opacity="0.9"/>
<path fill-rule="evenodd" clip-rule="evenodd" d="M57.3076 118.181C57.7219 118.269 57.9806 118.684 57.885 119.099C57.7894 119.492 57.3755 119.754 56.9612 119.667C54.7952 119.317 52.3267 120.671 50.799 122.593C49.5167 124.209 48.9923 126.35 50.4436 128.294C50.7341 128.709 51.1799 128.971 51.6902 129.168C52.2533 129.408 52.907 129.539 53.6215 129.626C55.6143 129.845 58.0331 129.582 60.4807 128.927C64.5125 127.879 68.6133 125.957 70.8901 123.336C71.1488 122.986 71.6328 122.943 71.9701 123.183C72.3075 123.445 72.3712 123.926 72.1123 124.253C70.525 126.612 67.835 128.731 64.7872 130.303C62.8652 131.308 60.8051 132.094 58.805 132.575C56.3691 133.164 54.0136 133.296 52.1054 132.924C50.1045 132.531 48.5576 131.57 47.6474 130.172C45.5698 126.765 46.4496 123.27 48.836 120.89C51.0926 118.618 54.5719 117.351 57.3076 118.181Z" fill="#343434" fill-opacity="0.9"/>
<path fill-rule="evenodd" clip-rule="evenodd" d="M48.2459 123.708C48.671 123.708 49.0202 124.036 49.0255 124.473C49.0305 124.888 48.6896 125.237 48.2646 125.237C45.7489 125.521 43.5171 125.434 41.5847 125.019C39.8409 124.647 38.3769 123.992 37.214 123.206C36.3795 122.638 35.7083 122.004 35.2069 121.327C34.5467 120.432 34.1541 119.471 34.0469 118.51C33.8904 117.134 34.2034 115.758 35.2236 114.557C35.7305 113.967 36.3731 113.399 37.2347 112.94C38.5059 112.263 40.1783 111.739 42.3544 111.521C42.7705 111.433 43.1791 111.695 43.2661 112.11C43.3534 112.525 43.0861 112.918 42.6701 113.006C40.8588 113.596 39.5458 114.338 38.5884 115.125C37.5028 115.998 37.1211 117.003 37.3386 117.964C37.4694 118.554 37.8587 119.099 38.3725 119.645C38.8776 120.192 39.5036 120.716 40.2794 121.196C41.1221 121.699 42.0841 122.179 43.2074 122.572C44.68 123.096 46.3364 123.533 48.2459 123.708Z" fill="#343434" fill-opacity="0.9"/>
<path fill-rule="evenodd" clip-rule="evenodd" d="M35.5325 116.545C35.952 116.479 36.349 116.763 36.4182 117.178C36.4877 117.593 36.2035 117.986 35.7839 118.052C33.9957 118.598 32.4242 118.772 31.0235 118.729C30.2259 118.685 29.5054 118.554 28.8395 118.379C27.49 118.008 26.4319 117.309 25.6325 116.523C25.2074 116.108 24.8657 115.627 24.6131 115.147C23.9309 113.793 23.7795 112.286 24.2485 110.866C24.5355 110.014 24.9971 109.162 25.7385 108.441C26.9181 107.284 28.643 106.323 31.0402 106.017C31.4521 105.908 31.8719 106.17 31.9772 106.563C32.0822 106.978 31.8332 107.393 31.4213 107.502C29.6604 108.179 28.5263 109.184 27.8403 110.254C27.5539 110.713 27.4267 111.172 27.344 111.652C27.228 112.307 27.4051 112.919 27.7225 113.509C27.9843 113.989 28.3467 114.47 28.87 114.841C29.3848 115.234 29.9821 115.584 30.7244 115.846C32.0207 116.304 33.5838 116.632 35.5325 116.545Z" fill="#343434" fill-opacity="0.9"/>
<path fill-rule="evenodd" clip-rule="evenodd" d="M25.5444 110.079C25.8972 109.838 26.3763 109.926 26.6137 110.275C26.851 110.625 26.7574 111.105 26.4046 111.345C26.4046 111.345 26.0484 111.804 25.3026 112.437C25.0475 112.656 24.7644 112.809 24.4171 113.005C24.1081 113.18 23.7659 113.267 23.3918 113.355C23.1542 113.42 22.9032 113.464 22.648 113.442C22.1801 113.42 21.7036 113.333 21.2475 113.136C20.9405 112.983 20.6464 112.874 20.371 112.634C19.8281 112.175 19.3391 111.76 18.9424 110.996C18.6307 110.712 18.6127 110.21 18.9019 109.904C19.1912 109.598 19.6791 109.576 19.9906 109.86C20.4275 110.057 20.7923 110.035 21.1899 110.079C21.4873 110.122 21.7363 110.035 22.0089 110.035C22.2678 110.035 22.5047 109.948 22.7445 109.948C23.1014 109.948 23.4199 110.035 23.7331 110.035C24.8197 110.057 25.5444 110.079 25.5444 110.079Z" fill="#343434" fill-opacity="0.9"/>
<path fill-rule="evenodd" clip-rule="evenodd" d="M22.0254 135.088C22.209 134.694 22.6692 134.541 23.0527 134.716C23.4363 134.891 23.5987 135.35 23.4154 135.743C23.4154 135.743 22.5604 138.495 21.2531 142.011C20.9562 142.798 20.6243 143.606 20.2682 144.458C20.0401 144.982 19.8087 145.528 19.5447 146.052C18.8684 147.406 18.1176 148.695 17.4094 149.896C15.5116 153.107 13.8935 155.509 13.8935 155.509C13.71 155.902 13.2497 156.055 12.8662 155.88C12.4827 155.684 12.3202 155.247 12.5038 154.854C12.5038 154.854 13.3708 152.102 14.7008 148.607C15.197 147.297 15.7443 145.921 16.3742 144.545C16.6202 143.999 16.8987 143.497 17.174 142.972C17.604 142.186 18.0383 141.4 18.4745 140.679C20.3972 137.468 22.0254 135.088 22.0254 135.088Z" fill="#343434" fill-opacity="0.9"/>
<path fill-rule="evenodd" clip-rule="evenodd" d="M59.0137 140.614C59.1144 140.221 59.5315 139.959 59.9445 140.068C60.3577 140.155 60.6111 140.57 60.5105 140.985C60.5105 140.985 60.5806 142.47 60.4527 144.436C60.4243 144.895 60.3722 145.332 60.3006 145.79C60.2551 146.096 60.2085 146.402 60.1267 146.686C59.9159 147.429 59.6247 148.149 59.3412 148.804C58.5629 150.639 57.8255 151.928 57.8255 151.928C57.7249 152.343 57.3077 152.583 56.8945 152.474C56.4815 152.387 56.2279 151.972 56.3288 151.557C56.3288 151.557 56.2707 150.071 56.4242 148.106C56.48 147.385 56.5516 146.62 56.7123 145.856C56.7747 145.572 56.8719 145.266 56.9681 144.982C57.1202 144.545 57.2818 144.13 57.4605 143.715C58.2666 141.903 59.0137 140.614 59.0137 140.614Z" fill="#343434" fill-opacity="0.9"/>
<path fill-rule="evenodd" clip-rule="evenodd" d="M73.044 140.83C73.0293 140.415 73.3621 140.044 73.7872 140.044C74.212 140.022 74.5689 140.35 74.5839 140.765C74.5839 140.765 75.1103 143.56 75.5793 147.164C75.6857 147.994 75.7725 148.868 75.8446 149.742C75.8908 150.309 75.9369 150.877 75.9472 151.445C75.9732 152.93 75.9119 154.394 75.8422 155.748C75.6554 159.395 75.3378 162.191 75.3378 162.191C75.3527 162.628 75.0197 162.977 74.5949 162.999C74.17 162.999 73.8129 162.672 73.7981 162.257C73.7981 162.257 73.2838 159.483 72.8414 155.857C72.6763 154.503 72.5122 153.04 72.4348 151.576C72.4045 151.008 72.4104 150.419 72.4168 149.851C72.4264 148.977 72.4528 148.103 72.5012 147.273C72.7141 143.626 73.044 140.83 73.044 140.83Z" fill="#343434" fill-opacity="0.9"/>
<path fill-rule="evenodd" clip-rule="evenodd" d="M98.2872 135.718C98.1188 135.325 98.2993 134.866 98.6896 134.692C99.08 134.539 99.5336 134.714 99.7019 135.107C99.7019 135.107 101.012 137.051 102.535 139.693C102.879 140.305 103.215 140.938 103.546 141.593C103.758 142.008 103.971 142.445 104.152 142.882C104.615 144.018 104.994 145.176 105.334 146.246C106.25 149.151 106.789 151.444 106.789 151.444C106.957 151.815 106.777 152.274 106.386 152.449C105.996 152.601 105.542 152.427 105.374 152.034C105.374 152.034 104.074 150.09 102.577 147.425C102.021 146.442 101.435 145.372 100.924 144.258C100.725 143.821 100.56 143.384 100.396 142.948C100.141 142.249 99.9083 141.572 99.7066 140.916C98.8134 137.99 98.2872 135.718 98.2872 135.718Z" fill="#343434" fill-opacity="0.9"/>
<path fill-rule="evenodd" clip-rule="evenodd" d="M117.627 129.955C117.415 129.584 117.543 129.103 117.912 128.907C118.281 128.688 118.752 128.819 118.964 129.191C118.964 129.191 121.274 132.336 124.064 136.486C124.7 137.447 125.345 138.451 125.989 139.478C126.403 140.133 126.821 140.81 127.208 141.509C128.198 143.278 129.109 145.069 129.941 146.751C132.164 151.229 133.74 154.81 133.74 154.81C133.952 155.182 133.824 155.641 133.455 155.859C133.086 156.056 132.615 155.924 132.404 155.575C132.404 155.575 130.103 152.408 127.337 148.236C126.3 146.686 125.193 144.982 124.159 143.235C123.755 142.557 123.382 141.859 123.013 141.182C122.44 140.09 121.894 139.041 121.392 138.015C119.191 133.515 117.627 129.955 117.627 129.955Z" fill="#343434" fill-opacity="0.9"/>
<path fill-rule="evenodd" clip-rule="evenodd" d="M114.353 19.5842C114.601 19.2413 115.083 19.1627 115.428 19.4095C115.773 19.6564 115.852 20.1348 115.603 20.4777C115.603 20.4777 114.804 22.3058 113.559 24.6101C113.279 25.1299 112.969 25.654 112.634 26.187C112.42 26.5277 112.203 26.8707 111.956 27.1939C111.323 28.0239 110.627 28.7947 109.969 29.5024C108.19 31.4201 106.707 32.7656 106.707 32.7656C106.459 33.1085 105.977 33.1849 105.632 32.9381C105.287 32.6935 105.208 32.2129 105.457 31.87C105.457 31.87 106.268 30.0463 107.532 27.7596C107.999 26.9143 108.512 26.0143 109.104 25.1538C109.334 24.8196 109.593 24.5052 109.849 24.195C110.251 23.7101 110.654 23.2514 111.059 22.8233C112.863 20.9188 114.353 19.5842 114.353 19.5842Z" fill="#343434" fill-opacity="0.9"/>
<path fill-rule="evenodd" clip-rule="evenodd" d="M94.7287 0.46166C94.8973 0.0750697 95.351 -0.104046 95.7413 0.0619479C96.1316 0.230126 96.3119 0.682317 96.1433 1.06891C96.1433 1.06891 94.9384 4.9217 93.1907 9.79667C92.7922 10.9084 92.3524 12.0617 91.8875 13.2345C91.5891 13.9881 91.2864 14.7502 90.9506 15.4972C90.0916 17.4105 89.1553 19.2823 88.276 21.0121C85.9293 25.6271 83.9455 29.148 83.9455 29.148C83.7771 29.5345 83.3232 29.7158 82.9329 29.5477C82.5426 29.3795 82.3625 28.9297 82.5309 28.5409C82.5309 28.5409 83.7483 24.6925 85.5194 19.8306C86.1829 18.0069 86.9122 16.0454 87.7238 14.1125C88.0412 13.3567 88.3916 12.6163 88.7384 11.8825C89.2784 10.7424 89.8222 9.63296 90.3628 8.58239C92.7344 3.97607 94.7287 0.46166 94.7287 0.46166Z" fill="#343434" fill-opacity="0.9"/>
<path fill-rule="evenodd" clip-rule="evenodd" d="M54.6142 14.3458C54.5281 13.933 54.7962 13.5268 55.2125 13.4416C55.629 13.3565 56.0369 13.6229 56.1231 14.0357C56.1231 14.0357 56.9317 15.8354 57.7917 18.2772C57.9852 18.8254 58.1627 19.402 58.3293 20.0004C58.4357 20.3826 58.5428 20.7693 58.6148 21.1646C58.7995 22.178 58.8962 23.1959 58.9742 24.146C59.1852 26.7167 59.1735 28.6889 59.1735 28.6889C59.2597 29.1017 58.9916 29.5079 58.5753 29.5931C58.159 29.6783 57.7509 29.4119 57.6647 28.9991C57.6647 28.9991 56.8669 27.1949 56.0339 24.7509C55.7262 23.8467 55.4083 22.8749 55.1732 21.8702C55.0815 21.4814 55.0255 21.0838 54.9705 20.6906C54.8844 20.0747 54.8176 19.4763 54.7758 18.8975C54.5901 16.3158 54.6142 14.3458 54.6142 14.3458Z" fill="#343434" fill-opacity="0.9"/>
<path fill-rule="evenodd" clip-rule="evenodd" d="M23.7305 13.2448C23.5312 12.8714 23.6745 12.4083 24.0499 12.2095C24.4255 12.0129 24.8923 12.1549 25.0915 12.5284C25.0915 12.5284 27.0461 15.2782 29.3844 18.9366C29.9165 19.7687 30.4515 20.6512 30.9842 21.562C31.326 22.1452 31.6715 22.7371 31.9851 23.3464C32.7876 24.9037 33.5096 26.4938 34.1676 27.9768C35.9268 31.9366 37.135 35.084 37.135 35.084C37.3341 35.4553 37.1911 35.9204 36.8154 36.117C36.44 36.3157 35.9732 36.1737 35.7739 35.8002C35.7739 35.8002 33.8294 33.0417 31.5152 29.3745C30.6497 28.0029 29.7286 26.5157 28.8804 24.9824C28.5492 24.3839 28.2496 23.7679 27.9544 23.1585C27.494 22.2106 27.059 21.2737 26.6638 20.3695C24.9266 16.3944 23.7305 13.2448 23.7305 13.2448Z" fill="#343434" fill-opacity="0.9"/>
<path fill-rule="evenodd" clip-rule="evenodd" d="M114.792 91.4053C114.918 91.7984 114.691 92.2354 114.285 92.3664C113.879 92.4756 113.447 92.2572 113.32 91.8641C112.318 89.2431 110.512 86.4037 108.605 83.8483C107.417 82.2539 106.179 80.7905 105.04 79.5893C104.085 78.6064 103.217 77.82 102.498 77.3832C101.346 76.6187 100.022 75.9636 98.634 75.2865C96.637 74.3473 94.4954 73.4519 92.379 72.7093C87.9072 71.1367 83.6332 70.132 81.4384 70.2412C81.0159 70.2849 80.6344 69.979 80.5869 69.564C80.5394 69.149 80.8438 68.7778 81.2665 68.7341C83.5848 68.3191 88.2835 68.734 93.21 69.9571C95.5275 70.525 97.8885 71.2676 100.055 72.185C101.636 72.8402 103.097 73.6483 104.392 74.4783C105.276 75.068 106.38 76.0727 107.501 77.4269C108.637 78.781 109.832 80.4847 110.919 82.3194C112.634 85.2461 114.091 88.5223 114.792 91.4053Z" fill="#343434" fill-opacity="0.9"/>
<path fill-rule="evenodd" clip-rule="evenodd" d="M114.056 91.6233C113.351 91.3831 112.648 91.0992 111.963 90.7279C109.186 89.199 82.2594 69.8912 82.2594 69.8912C82.2594 69.8912 81.9161 69.7166 81.3525 69.4764C85.4312 69.0396 96.883 71.7042 103.445 75.9196C106.516 77.9071 112.169 85.5951 114.056 91.6233Z" fill="#343434" fill-opacity="0.9"/>
</g>
<defs>
<clipPath id="clip0_233_1523">
<rect width="144" height="163" fill="white"/>
</clipPath>
</defs>
</svg>
