<svg width="168" height="150" viewBox="0 0 168 150" fill="none" xmlns="http://www.w3.org/2000/svg">
<g clip-path="url(#clip0_233_1551)">
<path fill-rule="evenodd" clip-rule="evenodd" d="M94.7465 6.75887C95.2724 6.04369 95.8906 5.34713 96.6117 4.68879C100.303 1.31887 106.732 -1.17812 117.217 0.577956C117.707 0.643203 118.051 1.0933 117.985 1.58189C117.919 2.07048 117.469 2.41406 116.98 2.34881C109.605 1.61427 104.549 2.89856 101.179 5.02216C99.6433 5.98966 98.4874 7.13811 97.6477 8.33143C98.159 8.81874 98.6178 9.39654 99.0008 10.0411C100.739 12.966 100.65 16.8995 97.1083 18.5964C96.1233 19.0656 95.2265 19.0488 94.4559 18.703C93.6358 18.3349 92.854 17.5456 92.4677 16.2781C92.2069 15.4228 92.1109 14.2763 92.2566 12.9851C91.831 13.9501 91.4955 15.1031 91.2174 16.3872C90.6208 19.1406 90.3427 22.456 90.298 25.9836C90.1898 34.5451 91.4636 44.3067 93.595 50.3395C93.7748 50.7983 93.5478 51.3182 93.088 51.4967C92.6284 51.6776 92.1092 51.4508 91.9293 50.992C89.3037 44.9006 87.1838 34.9019 86.8133 26.0351C86.6217 21.4454 86.9286 17.1605 87.7706 13.8576C88.3404 11.6229 89.2013 9.81453 90.262 8.54629C91.6282 6.95563 93.2311 6.47316 94.7465 6.75887ZM95.8646 12.7053C95.8281 12.9627 95.8049 13.2133 95.7939 13.4554C95.7717 13.9455 95.8126 14.3923 95.8942 14.7777C95.8952 14.7815 95.896 14.7856 95.8968 14.7899C96.3384 14.2284 96.1953 13.4268 95.8646 12.7053ZM95.969 15.1498C96.0065 15.3093 96.0529 15.4261 96.1172 15.355C96.2004 15.2632 96.1139 15.1888 95.969 15.1498Z" fill="#343434" fill-opacity="0.9" class="x-1 box-1"></path>
<path fill-rule="evenodd" clip-rule="evenodd" d="M32.433 34.613C33.781 33.2444 35.7613 32.258 38.4385 32.2657C40.3586 32.3166 42.4034 33.0966 44.3184 34.5799C47.2474 36.8457 49.993 40.707 51.662 45.1699C53.8199 50.9402 54.2447 57.6459 51.4101 62.8911C51.1953 63.3346 50.6602 63.5207 50.2157 63.3066C49.7712 63.0925 49.5849 62.5573 49.7998 62.1138C51.888 57.2585 50.8699 51.4092 48.5891 46.4442C47.1637 43.3424 45.2094 40.6076 43.101 38.7114C41.5384 37.3045 39.9263 36.3513 38.3668 36.3411C37.0787 36.3054 36.0846 36.6877 35.3748 37.2969C35.6281 37.6588 35.8422 38.0181 36.0167 38.3724C36.6174 39.5907 36.6929 40.7708 36.4643 41.645C36.1272 42.9321 35.1548 43.8114 33.4378 43.8853C32.1444 43.9388 31.1774 43.243 30.5992 42.063C30.0388 40.9186 29.9932 39.0376 30.7405 37.1949C30.7492 37.1745 30.7579 37.1541 30.7666 37.1312C29.7135 36.4099 28.3507 35.9053 26.709 35.8976C24.5457 35.8849 21.965 36.6469 19.0054 38.6859C18.6117 38.9841 18.0503 38.9051 17.7526 38.5126C17.4545 38.1201 17.5321 37.5594 17.9256 37.2612C23.6106 32.5588 28.453 32.7219 31.6902 34.2256C31.9477 34.3454 32.1952 34.4754 32.433 34.613ZM33.8788 40.3935C33.8729 40.498 33.8882 40.5643 33.9576 40.5363C34.0584 40.4929 33.9971 40.4394 33.8788 40.3935ZM33.2995 40.3732C33.2865 40.3961 33.2743 40.419 33.2577 40.4318C33.1962 40.4828 33.0467 40.6331 33.1385 40.6433C33.2985 40.6637 33.3368 40.5541 33.2995 40.3732Z" fill="#343434" fill-opacity="0.9" class="x-2 box-2"></path>
<path fill-rule="evenodd" clip-rule="evenodd" d="M45.4177 101.995C45.2227 102.449 44.6964 102.658 44.2429 102.464C43.7893 102.268 43.5795 101.743 43.7745 101.289C43.7745 101.289 45.8163 96.2045 50.4035 90.5412C52.3999 88.0766 54.8821 85.5151 57.8762 83.206C53.7513 80.7311 43.419 74.5148 34.2449 68.8897C27.2535 64.6002 20.9414 60.6497 18.478 59.1026C16.5595 60.3719 12.3789 63.2902 8.7296 66.9043C6.91872 68.6961 5.22291 70.6484 4.04892 72.6695L38.9716 99.737C39.3673 100.03 39.4492 100.591 39.1543 100.986C38.8593 101.381 38.2984 101.462 37.9027 101.169L0.717276 74.5938C0.0482439 74.0942 -0.185228 73.1997 0.155412 72.4401C1.38656 69.5856 3.5687 66.7488 6.01009 64.2205C11.1462 58.9064 17.39 54.9712 17.39 54.9712C18.0506 54.5608 18.8886 54.5608 19.5479 54.9763C19.5479 54.9763 27.4327 59.9106 36.3054 65.6146C47.9303 73.0901 61.2599 81.8653 61.2599 81.8653C61.6766 82.1253 61.9315 82.5815 61.9366 83.0734C61.9414 83.5653 61.696 84.0267 61.2846 84.2943C57.5889 86.6136 54.58 89.4019 52.2129 92.0704C47.6072 97.2647 45.4177 101.995 45.4177 101.995Z" fill="#343434" fill-opacity="0.9" class="x-3 box-3"></path>
<path fill-rule="evenodd" clip-rule="evenodd" d="M13.5205 82.5602C13.5256 82.0658 13.9306 81.6707 14.424 81.6758C14.9178 81.6809 15.3143 82.0862 15.3089 82.5781C15.3089 82.5781 15.7815 98.8976 16.1624 108.369C16.289 111.516 16.3691 113.859 16.5036 114.442L54.1871 146.681C54.5757 146.984 54.6441 147.548 54.3397 147.935C54.0353 148.322 53.4726 148.391 53.084 148.088C53.084 148.088 44.8375 142.162 35.8655 135.372C32.0391 132.477 28.0846 129.429 24.5833 126.617C22.6354 125.053 20.8319 123.556 19.2672 122.208C16.9397 120.2 15.1329 118.502 14.1023 117.404C13.1602 116.397 12.7571 115.587 12.6897 115.235C12.5343 114.391 12.4807 110.262 12.6068 105.173C12.8436 95.6123 13.5205 82.5602 13.5205 82.5602Z" fill="#343434" fill-opacity="0.9" class="x-4 box-4"></path>
<path fill-rule="evenodd" clip-rule="evenodd" d="M60.2582 82.2224C60.2582 82.2224 82.5853 75.8888 104.939 69.6316C127.291 63.3771 149.663 57.204 149.663 57.204C150.022 57.1072 150.401 57.1148 150.755 57.227C151.403 57.4283 152.571 58.2822 153.848 59.7222C156.013 62.1639 158.93 66.3744 160.715 69.9043C161.923 72.2925 162.559 74.4564 162.457 75.746C162.344 77.1861 161.621 78.0832 160.482 78.4987C159.252 78.9421 147.546 82.9742 133.106 87.6639C119.567 92.063 103.625 97.0381 91.751 100.41C84.4023 102.495 78.5893 103.948 75.8149 104.289C74.6649 104.432 73.8905 104.348 73.5417 104.192C73.1362 104.011 72.8999 103.746 72.7711 103.463C71.0388 99.6658 68.9669 96.1409 66.9935 93.1513C63.2314 87.4523 59.8352 83.6955 59.8352 83.6955C59.6213 83.4661 59.5433 83.1399 59.63 82.8391C59.7165 82.5384 59.9548 82.3039 60.2582 82.2224ZM74.745 101.827C75.2311 101.776 76.1984 101.659 77.1555 101.45C82.8806 100.199 94.8956 96.3831 108.014 92.0451C116.553 89.2211 125.553 86.1678 133.592 83.4304C145.609 79.3397 155.467 75.9448 158.341 74.9355C157.842 72.3384 154.971 67.6819 152.491 64.3456C151.629 63.1834 150.812 62.1817 150.133 61.4961C150.034 61.3941 149.915 61.2871 149.804 61.1877C145.473 62.3117 125.605 67.455 105.718 72.5372C86.597 77.4231 67.4635 82.2504 62.1604 83.5859C63.5092 85.0973 66.0397 88.0666 68.7673 91.9457C70.7864 94.8156 72.9089 98.1825 74.745 101.827Z" fill="#343434" fill-opacity="0.9" class="x-5 box-5"></path>
<path fill-rule="evenodd" clip-rule="evenodd" d="M145.743 121.18C145.851 120.519 146.023 119.39 146.128 118.299C147.141 107.712 147.954 80.3311 147.954 80.3311C147.96 79.8392 148.367 79.4442 148.86 79.4493C149.354 79.4569 149.749 79.8621 149.742 80.3566C149.742 80.3566 149.789 107.878 149.073 118.539C148.94 120.53 148.758 121.975 148.572 122.627C148.259 123.733 147.482 124.004 147.135 124.062C143.869 124.6 137.608 126.313 129.885 128.571C119.745 131.54 107.132 135.514 95.4677 139.181C90.6377 140.7 85.9655 142.15 81.7063 143.476C69.7648 147.194 61.0612 149.911 61.0612 149.911C60.4991 150.092 59.8834 149.995 59.405 149.649C58.9265 149.302 58.6436 148.747 58.6436 148.158C58.6436 148.158 58.7198 139.571 58.8706 128.637C59.1347 109.466 59.5956 83.0889 59.5956 83.0889C59.5956 82.5944 59.9962 82.1943 60.4899 82.1943C60.9834 82.1943 61.3842 82.5944 61.3842 83.0889C61.3842 83.0889 61.8451 109.466 62.1092 128.637C62.2102 135.977 62.2778 142.26 62.3115 145.596C66.3561 144.238 75.1385 141.32 85.647 137.996C93.7211 135.442 102.819 132.667 111.545 130.108C126.096 125.841 139.629 122.212 145.743 121.18Z" fill="#343434" fill-opacity="0.9" class="x-6 box-6"></path>
<path fill-rule="evenodd" clip-rule="evenodd" d="M80.4123 102.336C80.1385 101.926 80.2498 101.371 80.6603 101.098C81.0711 100.825 81.6269 100.937 81.9007 101.345C83.0589 102.915 84.3579 103.909 85.8274 104.327C87.2494 104.73 88.8191 104.518 90.5764 103.799C91.2409 103.529 94.4615 102.306 99.1292 100.639C101.629 99.7444 104.541 98.7249 107.696 97.657C109.539 97.0326 111.463 96.3929 113.439 95.7684C115.333 95.1695 117.274 94.5858 119.226 94.0149C123.156 92.8629 127.125 91.7542 130.872 90.7372C138.354 88.7084 144.927 87.0722 148.502 86.2795C148.978 86.1546 149.469 86.4375 149.595 86.9141C149.722 87.3907 149.437 87.8801 148.96 88.0075C144.94 89.2411 137.088 92.0244 128.41 95.0344C125.716 95.9698 122.944 96.9204 120.181 97.8482C118.332 98.4675 116.489 99.0818 114.673 99.6552C111.433 100.675 108.295 101.615 105.427 102.459C98.0167 104.635 92.4342 106.154 91.531 106.445C89.0883 107.207 86.9513 107.245 85.092 106.532C83.274 105.833 81.6943 104.47 80.4123 102.336Z" fill="#343434" fill-opacity="0.9" class="x-7 box-7"></path>
<path fill-rule="evenodd" clip-rule="evenodd" d="M146.73 121.722C148.33 120.118 151.594 114.827 154.998 108.947C159.119 101.831 163.388 93.8437 164.911 89.9875C165.105 89.4956 165.266 88.9807 165.353 88.6851C164.38 87.8083 162.537 86.5314 160.542 85.2213C156.564 82.6115 151.99 79.9047 151.99 79.9047C151.559 79.6625 151.405 79.1171 151.646 78.6864C151.888 78.2582 152.433 78.1027 152.864 78.3449C152.864 78.3449 158.82 81.4925 163.203 84.1814C165.169 85.387 166.818 86.5212 167.563 87.2501C167.748 87.4336 167.904 87.7012 167.976 88.0785C168.043 88.4302 167.975 89.1336 167.681 90.1047C166.913 92.6458 164.581 97.863 161.768 103.498C158.701 109.643 155.073 116.285 152.41 120.485C151.115 122.527 150 124.015 149.276 124.709C149.114 124.864 148.462 125.282 147.312 125.782C145.061 126.76 140.309 128.621 134.116 130.803C129.104 132.569 123.143 134.542 116.836 136.507C111.151 138.281 105.181 140.032 99.3626 141.607C84.612 145.601 70.8369 148.425 65.0138 147.543C64.5244 147.479 64.1789 147.03 64.243 146.541C64.307 146.052 64.7564 145.708 65.2458 145.771C69.829 146.271 79.2927 144.12 90.2215 140.995C97.9518 138.783 106.392 136.056 114.363 133.367C120.072 131.442 125.532 129.523 130.318 127.833C137.351 125.346 142.909 123.33 145.532 122.247C146.032 122.04 146.547 121.806 146.73 121.722Z" fill="#343434" fill-opacity="0.9" class="x-8 box-8"></path>
<path fill-rule="evenodd" clip-rule="evenodd" d="M152.427 79.125C152.427 79.125 164.338 85.7874 166.643 88.1475C167.916 89.4499 151.906 119.54 147.931 123.284C146.429 124.701 79.99 148.598 65.1299 146.656C81.2841 141.454 134.734 124.401 146.904 122.548C147.916 122.392 148.499 99.0407 148.73 87.1433C137.146 90.2094 93.7107 104.166 91.0538 105.122C86.8648 106.628 83.6135 105.522 81.1566 101.842C96.2348 97.9932 130.985 86.4093 148.848 80.3433C150.133 79.9075 151.33 79.4997 152.427 79.125Z" fill="#343434" fill-opacity="0.9" class="x-9 box-9"></path>
<path fill-rule="evenodd" clip-rule="evenodd" d="M145.975 121.434C146.066 120.894 146.215 119.928 146.302 118.985C146.905 112.417 147.317 97.9249 147.529 88.673C142.751 89.9856 134.572 92.4528 125.907 95.1213C110.254 99.9461 93.0191 105.431 91.3762 106.015C89.0506 106.843 86.9864 106.922 85.1663 106.308C83.3488 105.696 81.7556 104.386 80.404 102.344C80.2412 102.1 80.207 101.791 80.3121 101.519C80.417 101.243 80.6484 101.039 80.9327 100.966C87.3658 99.3547 97.3837 96.3498 108.144 92.9753C122.609 88.436 138.412 83.2239 148.662 79.7958L152.246 78.5979C152.396 78.5444 152.562 78.5597 152.7 78.6387C152.7 78.6387 158.582 81.8883 162.903 84.6461C164.796 85.8542 166.392 86.9756 167.105 87.6969C167.243 87.8371 167.371 88.0869 167.362 88.4717C167.354 88.7827 167.252 89.2695 167.05 89.899C166.249 92.4069 163.843 97.5401 160.981 103.089C156.415 111.943 150.679 121.835 148.509 123.899C148.268 124.128 146.461 124.959 143.479 126.121C134.951 129.445 116.412 136.031 99.2132 141.09C84.5419 145.408 70.8242 148.568 64.9772 147.824C64.4309 147.753 64.0071 147.312 63.957 146.764C63.907 146.216 64.2441 145.706 64.7687 145.538C75.2393 142.145 101.37 133.722 121.79 127.748C132.343 124.661 141.382 122.237 145.975 121.434ZM148.554 121.264C150.763 118.325 154.4 112.16 157.798 105.936C161.307 99.5077 164.552 93.0135 165.68 89.8608C165.885 89.2873 166.013 88.6782 166.053 88.4717C165.138 87.5924 163.072 86.2033 160.819 84.7811C157.304 82.5612 153.331 80.2826 152.371 79.7347L149.034 80.8892C138.81 84.4141 123.048 89.7792 108.616 94.4536C98.5523 97.7134 89.1343 100.637 82.6872 102.372C83.6001 103.443 84.6149 104.174 85.7534 104.549C87.2178 105.031 88.8707 104.906 90.7314 104.228C92.3741 103.629 109.604 97.9937 125.259 93.0492C134.932 89.9958 144.005 87.205 148.432 86.0173C148.786 85.923 149.163 86.002 149.451 86.2288C149.739 86.4531 149.904 86.8023 149.897 87.1668C149.742 96.3141 149.397 112.221 148.784 119.209C148.713 120.01 148.636 120.7 148.554 121.264ZM141.898 124.87C137.01 126.045 130.166 127.959 122.507 130.194C106.711 134.802 87.4717 140.805 74.731 144.837C81.2629 143.743 89.7561 141.585 98.6192 139.049C115.177 134.313 132.997 128.204 141.898 124.87Z" fill="#343434" fill-opacity="0.9" class="x-10 box-10"></path>
<path fill-rule="evenodd" clip-rule="evenodd" d="M150.548 58.2744C150.995 58.4834 151.187 59.0161 150.977 59.4646C150.767 59.9107 150.234 60.1018 149.788 59.8928C149.788 59.8928 141.969 56.6228 132.705 52.629C129.017 51.0386 125.105 49.336 121.37 47.6717C118 46.1705 114.771 44.7152 111.985 43.4128C109.282 42.1512 106.989 41.0476 105.358 40.2549C105.245 43.5224 105.05 48.9868 104.822 54.4513C104.463 63.0736 104.022 71.6832 104.022 71.6832C104.017 72.1777 103.612 72.5728 103.118 72.5676C102.624 72.56 102.228 72.1573 102.234 71.6628C102.234 71.6628 101.99 63.0456 101.827 54.4182C101.664 45.7933 101.583 37.1735 101.583 37.1735C101.59 36.5134 101.932 35.9042 102.491 35.5525C103.05 35.2033 103.749 35.1625 104.346 35.4404C104.346 35.4404 108.237 37.148 113.716 39.7299C116.499 41.0425 119.682 42.5946 122.99 44.2284C126.657 46.038 130.466 47.9572 134.045 49.7795C143.038 54.3519 150.548 58.2744 150.548 58.2744Z" fill="#343434" fill-opacity="0.9" class="x-11 box-11"></path>
<path fill-rule="evenodd" clip-rule="evenodd" d="M18.6658 57.5644C18.1848 57.674 17.7046 57.3732 17.5941 56.8941C17.4836 56.4124 17.7847 55.9332 18.2657 55.8236C18.2657 55.8236 29.3657 52.7652 43.5826 49.1026C46.8364 48.2667 50.2555 47.4154 53.7438 46.5666C55.9877 46.0212 58.2576 45.4681 60.5373 44.9584C66.3608 43.6535 72.204 42.4479 77.6147 41.3469C91.9996 38.4235 103.321 36.3233 103.321 36.3233C103.802 36.2137 104.283 36.5145 104.393 36.9962C104.504 37.4753 104.202 37.9545 103.722 38.0666C103.722 38.0666 92.6171 41.1098 78.3944 44.7418C73.0447 46.1079 67.2602 47.5683 61.45 48.9293C59.1757 49.4646 56.892 49.9565 54.6346 50.4433C51.1249 51.1977 47.6764 51.9215 44.3825 52.5842C29.9899 55.4821 18.6658 57.5644 18.6658 57.5644Z" fill="#343434" fill-opacity="0.9" class="x-12 box-12"></path>
</g>
<defs>
<clipPath id="clip0_233_1551">
<rect width="168" height="150" fill="white" class="x-13 box-13"></rect>
</clipPath>
</defs>
</svg>
