<svg width="219" height="136" viewBox="0 0 219 136" fill="none" xmlns="http://www.w3.org/2000/svg">
<g clip-path="url(#clip0_387_859)">
<path fill-rule="evenodd" clip-rule="evenodd" d="M208.608 49.3307C207.116 49.2995 205.18 49.2995 202.884 49.3307C179.825 49.7056 121.974 53.4234 117.217 53.9232C116.501 54.2981 115.118 55.1729 113.194 56.4225C105.281 61.5773 88.7372 73.0117 72.253 84.5085C55.7626 96.0364 39.3223 107.627 31.7621 113.281C30.3389 114.344 29.2379 115.187 28.5279 115.75C29.216 116.312 30.6611 117.437 32.0718 118.093C32.9382 118.499 33.8954 118.905 34.9151 119.249C36.9451 119.967 39.2316 120.592 41.5963 120.998C47.1671 121.967 59.3285 123.528 73.5198 125.247C105.741 129.121 148.39 133.807 148.39 133.807C148.99 133.869 149.431 134.4 149.372 134.994C149.309 135.588 148.771 136.056 148.171 135.994C148.171 135.994 105.421 132.089 73.1257 128.715C58.8218 127.246 46.5635 125.841 40.9426 124.966C34.8807 123.997 29.2785 121.748 26.4728 119.655C23.9048 117.718 23.4763 115.5 24.3334 113.969C24.5304 113.625 26.2101 112.094 29.1535 109.845C36.6699 104.065 52.9913 92.225 69.4598 80.5408C85.9283 68.8878 102.541 57.4223 110.489 52.2675C112.609 50.8929 114.148 49.9556 114.937 49.5495C115.54 49.237 115.981 49.1121 116.2 49.0808C118.493 48.7372 179.05 45.3945 202.84 45.3008C207.201 45.3008 210.366 45.3945 211.783 45.6132C213.375 45.8631 213.979 46.7689 214.11 47.1438C214.326 47.7374 214.323 48.3622 213.873 49.0183C213.275 49.8618 205.333 58.7968 195.287 69.9499C177.032 90.2566 151.815 118.03 151.815 118.03C151.414 118.468 150.72 118.53 150.27 118.124C149.816 117.718 149.775 117.03 150.176 116.562C150.176 116.562 181.101 81.1656 198.796 60.7026C203.047 55.7978 206.531 51.7675 208.608 49.3307ZM116.973 53.9546C116.97 53.9546 116.97 53.9546 116.97 53.9546H116.973Z" fill="#343434" fill-opacity="0.9"/>
<path fill-rule="evenodd" clip-rule="evenodd" d="M208.695 62.4219C207.985 62.2657 207.153 62.0784 206.315 61.9222C203.997 61.4535 201.67 61.0786 201.67 61.0786C201.07 61.0161 200.641 60.4849 200.71 59.8601C200.782 59.2665 201.326 58.8291 201.927 58.9228C201.927 58.9228 206.809 59.2978 209.612 59.7664C210.913 59.9851 211.839 60.36 212.12 60.61C212.299 60.7349 212.978 61.641 212.214 62.8594C211.911 63.3593 211.185 64.3277 210.106 65.6711C207.867 68.5141 204.082 73.1689 199.393 78.6673C196.077 82.5725 192.336 86.915 188.376 91.32C185.924 94.0692 183.378 96.8497 180.823 99.5989C178.242 102.348 175.643 105.066 173.109 107.69C160.444 120.812 149.615 131.684 149.615 131.684C149.206 132.121 148.511 132.152 148.064 131.746C147.62 131.34 147.592 130.622 148.001 130.184C148.001 130.184 157.917 118.5 169.847 104.723C172.23 101.973 174.698 99.1304 177.207 96.2875C179.693 93.507 182.205 90.6953 184.698 88.0085C188.717 83.6348 192.655 79.4796 196.162 75.7619C201.098 70.5447 205.223 66.2645 207.638 63.609C208.042 63.1404 208.395 62.7656 208.695 62.4219ZM210.319 62.9216C210.322 62.9216 210.322 62.9216 210.322 62.9216H210.319Z" fill="#343434" fill-opacity="0.9"/>
<path fill-rule="evenodd" clip-rule="evenodd" d="M145.819 121.344C146.423 121.406 146.864 121.938 146.807 122.531C146.751 123.156 146.216 123.593 145.616 123.531C145.616 123.531 133.573 122.906 117.155 121.875C111.277 121.531 104.843 121.125 98.1994 120.625C93.5263 120.313 88.75 119.938 83.9987 119.532C79.2067 119.126 74.4398 118.657 69.8198 118.22C56.0914 116.908 43.6736 115.658 35.8163 115.158C32.851 114.971 30.552 114.846 29.0912 114.877C28.45 114.877 28.0215 114.877 27.8432 114.939C27.3052 115.221 26.6421 115.002 26.3668 114.471C26.0915 113.94 26.3074 113.284 26.8454 113.003C27.399 112.69 29.6792 112.44 33.2795 112.409C38.6282 112.346 47.1142 112.565 57.1079 113.003C61.7842 113.19 66.7888 113.44 71.9499 113.752C76.8013 114.065 81.7903 114.377 86.7731 114.752C89.9448 115.002 93.1103 115.314 96.2414 115.627C101.105 116.095 105.878 116.564 110.423 117.064C130.282 119.282 145.819 121.344 145.819 121.344Z" fill="#343434" fill-opacity="0.9"/>
<path fill-rule="evenodd" clip-rule="evenodd" d="M145.841 128.968C146.441 129.062 146.876 129.593 146.807 130.186C146.738 130.78 146.194 131.217 145.594 131.155C145.594 131.155 129.741 129.968 109.544 128.093C104.924 127.687 100.079 127.187 95.1496 126.687C91.9748 126.344 88.7655 126.031 85.5625 125.625C77.3831 124.625 69.2223 123.501 61.6621 122.438C43.0197 119.814 28.0902 117.44 25.8256 116.909C25.2313 116.784 24.8465 116.221 24.9654 115.628C25.0811 115.034 25.6598 114.628 26.2509 114.753C28.5312 115.159 43.5202 116.409 62.1657 118.221C69.7603 118.939 77.9585 119.752 86.1443 120.658C89.3504 121.033 92.5503 121.439 95.7127 121.845C100.63 122.47 105.456 123.126 110.048 123.751C130.132 126.562 145.841 128.968 145.841 128.968Z" fill="#343434" fill-opacity="0.9"/>
<path fill-rule="evenodd" clip-rule="evenodd" d="M213.119 68.5116C213.541 68.0742 214.236 68.0742 214.67 68.5116C215.102 68.9178 215.111 69.6052 214.689 70.0426C214.689 70.0426 206.941 78.8525 196.835 89.9118C194.52 92.4424 192.071 95.0666 189.556 97.7221C187.939 99.4404 186.303 101.159 184.627 102.877C180.351 107.188 175.991 111.437 171.94 115.342C161.167 125.746 152.553 133.743 152.553 133.743C152.131 134.149 151.436 134.181 151.005 133.743C150.57 133.337 150.561 132.619 150.983 132.213C150.983 132.213 158.746 123.402 168.881 112.374C172.691 108.219 176.823 103.752 181.045 99.3778C182.7 97.6596 184.389 95.9725 186.059 94.3167C188.659 91.7549 191.224 89.2246 193.695 86.8503C204.492 76.4782 213.119 68.5116 213.119 68.5116Z" fill="#343434" fill-opacity="0.9"/>
<path fill-rule="evenodd" clip-rule="evenodd" d="M46.2976 54.8632C44.1894 56.4565 35.9943 62.4549 27.7178 68.297C22.5474 71.9522 17.3456 75.5763 13.6641 78.1068C21.2149 78.7316 34.1488 79.825 44.5679 80.856C52.5128 81.637 59.0033 82.4181 60.6204 82.8555C61.2084 83.0117 61.565 83.6051 61.4179 84.1674C61.2709 84.761 60.6766 85.1361 60.0886 84.9799C58.4902 84.605 52.1218 84.2301 44.3395 83.7928C28.5779 82.918 7.09544 82.0431 7.09544 82.0431C6.15081 81.9806 5.34688 81.3245 5.08726 80.4185C4.82452 79.5125 5.16858 78.5442 5.93805 78.0131C5.93805 78.0131 15.3187 71.0776 24.8245 64.267C33.7328 57.8626 42.7568 51.6143 43.8109 50.8333C44.1049 50.5834 44.8369 50.2085 46.0505 50.0523C47.9742 49.7711 51.981 49.6149 57.0576 49.5837C74.4864 49.49 104.805 50.6146 104.805 50.6146C105.409 50.6146 105.894 51.1143 105.888 51.7391C105.878 52.3327 105.381 52.8327 104.777 52.8015C104.777 52.8015 80.6359 53.1451 63.1008 53.7387C57.2547 53.9261 52.1531 54.1449 48.9501 54.4261C47.652 54.551 46.1131 54.3321 46.2538 54.8007C46.2632 54.8319 46.2788 54.8632 46.2976 54.8632ZM46.2976 54.8632C46.4853 54.707 46.6261 54.6133 46.7136 54.5508C46.6354 54.6133 46.404 54.9257 46.2976 54.8632Z" fill="#343434" fill-opacity="0.9"/>
<path fill-rule="evenodd" clip-rule="evenodd" d="M7.1518 86.4479C6.54811 86.4166 6.09144 85.8855 6.13523 85.2919C6.17589 84.6983 6.70138 84.2298 7.30194 84.261C7.30194 84.261 13.0949 84.0421 20.5268 84.0734C22.2222 84.1046 23.9956 84.136 25.8036 84.1985C26.9672 84.2297 28.1433 84.2921 29.3162 84.3858C32.3159 84.6357 35.2968 84.9795 38.0556 85.3544C45.4219 86.2917 51.1334 87.2911 51.1334 87.2911C51.7371 87.3224 52.1938 87.8535 52.1532 88.4471C52.1094 89.0407 51.587 89.5093 50.9833 89.478C50.9833 89.478 45.1904 89.6656 37.7616 89.6031C34.9778 89.5719 31.9749 89.5407 28.9721 89.3532C27.796 89.2908 26.6262 89.1657 25.4689 89.072C23.6672 88.8845 21.9062 88.6658 20.2265 88.4471C12.8602 87.4474 7.1518 86.4479 7.1518 86.4479Z" fill="#343434" fill-opacity="0.9"/>
<path fill-rule="evenodd" clip-rule="evenodd" d="M7.12361 90.914C6.51992 90.8515 6.07891 90.3204 6.13521 89.7268C6.19464 89.102 6.72954 88.6646 7.33323 88.7271C7.33323 88.7271 12.6444 88.6334 19.4633 88.7896C21.0178 88.8521 22.6412 88.9143 24.299 89.0081C25.3625 89.0705 26.4385 89.1645 27.5114 89.2582C30.2546 89.5706 32.9759 89.9765 35.4939 90.4139C42.222 91.5073 47.4206 92.6008 47.4206 92.6008C48.0243 92.6633 48.4653 93.1946 48.4059 93.7882C48.3496 94.3818 47.8116 94.8189 47.211 94.7877C47.211 94.7877 41.8998 94.8503 35.0841 94.6629C32.5317 94.5692 29.7822 94.4753 27.0328 94.2254C25.9568 94.1629 24.8871 94.0068 23.8298 93.8819C22.1845 93.6632 20.5768 93.4133 19.0441 93.1634C12.316 92.0387 7.12361 90.914 7.12361 90.914Z" fill="#343434" fill-opacity="0.9"/>
<path fill-rule="evenodd" clip-rule="evenodd" d="M59.1904 67.1694C58.5868 67.1694 58.1175 66.6381 58.1426 66.0446C58.1676 65.451 58.6775 64.9825 59.2812 64.9825C59.2812 64.9825 61.9649 64.5137 65.5401 64.1701C66.344 64.0764 67.176 64.0451 68.0362 64.0139C68.5867 64.0139 69.1435 63.9826 69.6971 64.0139C71.1203 64.1076 72.5216 64.3265 73.8228 64.5765C77.3542 65.1701 79.9911 65.8572 79.9911 65.8572C80.5979 65.8885 81.0671 66.3884 81.0421 67.0132C81.0171 67.6068 80.5072 68.0754 79.9004 68.0441C79.9004 68.0441 77.2135 68.5127 73.6446 68.8251C72.3277 68.9501 70.9139 69.0437 69.4876 69.0125C68.9308 69.0125 68.3803 68.9502 67.8329 68.8877C66.9758 68.794 66.15 68.6688 65.3587 68.5439C61.8241 67.8878 59.1904 67.1694 59.1904 67.1694Z" fill="#343434" fill-opacity="0.9"/>
<path fill-rule="evenodd" clip-rule="evenodd" d="M64.5077 60.3758C63.9041 60.3758 63.4349 59.8449 63.4599 59.2513C63.485 58.6577 63.9948 58.1893 64.5985 58.1893C64.5985 58.1893 67.2822 57.7208 70.8575 57.3771C71.6613 57.2834 72.4934 57.2522 73.3535 57.2209C73.904 57.2209 74.4608 57.1897 75.0144 57.2209C76.4376 57.3146 77.8389 57.5333 79.1401 57.7832C82.6715 58.3765 85.3084 59.0637 85.3084 59.0637C85.9152 59.0949 86.3844 59.5948 86.3594 60.2196C86.3344 60.8132 85.8246 61.2818 85.2177 61.2505C85.2177 61.2505 82.5308 61.7192 78.9619 62.0316C77.645 62.1565 76.2312 62.2504 74.8049 62.2192C74.2481 62.2192 73.6976 62.1566 73.1502 62.0941C72.2931 62.0004 71.4674 61.8755 70.676 61.7506C67.1415 61.0945 64.5077 60.3758 64.5077 60.3758Z" fill="#343434" fill-opacity="0.9"/>
<path fill-rule="evenodd" clip-rule="evenodd" d="M57.9331 11.8107C57.7423 12.3418 57.5734 13.1852 57.32 13.8725C56.1877 16.9653 54.6988 21.9327 53.1693 27.3062C49.7755 39.2091 46.2065 53.0179 46.2065 53.0179C46.0751 53.6115 45.4871 53.9863 44.8959 53.8301C44.3048 53.7051 43.9357 53.1114 44.0671 52.5179C44.0671 52.5179 47.5297 34.8354 50.6232 22.0577C51.671 17.7152 52.6939 13.935 53.5009 11.5919C54.092 9.87366 54.727 8.74904 55.1148 8.37415C55.2963 8.1867 55.5965 7.93677 56.047 7.74932C56.5474 7.49939 57.5672 7.21835 59.0435 6.93718C61.768 6.43732 66.3065 5.78101 71.9649 5.12494C75.806 4.71881 80.1632 4.25031 84.8207 3.84418C93.2003 3.15687 102.537 2.53193 111.508 2.00083C132.553 0.751179 151.574 0.00157362 151.574 0.00157362C152.177 -0.0296675 152.703 0.40777 152.743 1.00135C152.787 1.62618 152.331 2.12597 151.727 2.18846C151.727 2.18846 140.667 3.28196 126.084 4.75029C118.171 5.53132 109.228 6.43707 100.454 7.31183C94.561 7.90541 88.7463 8.49911 83.3756 8.99897C76.8007 9.62379 70.8952 10.1237 66.3409 10.6236C63.0879 10.9985 60.5418 11.2795 58.9591 11.5919C58.5743 11.6544 58.1239 11.7794 57.9331 11.8107ZM57.955 11.7481C58.0645 11.6856 58.2209 11.5606 58.2741 11.5294C58.3054 11.4981 58.4273 11.4358 58.3741 11.4046C58.2083 11.2796 58.077 11.467 57.955 11.7481Z" fill="#343434" fill-opacity="0.9"/>
<path fill-rule="evenodd" clip-rule="evenodd" d="M150.726 3.78208C151.051 3.28222 151.73 3.12614 152.24 3.43855C152.75 3.7822 152.9 4.43809 152.575 4.96919C152.575 4.96919 150.557 9.0306 147.802 15.1851C146.866 17.247 145.859 19.559 144.771 22.0271C144.12 23.4954 143.444 24.995 142.728 26.557C141.702 28.7439 140.614 30.9931 139.578 33.305C137.742 37.3976 135.981 41.5527 134.755 45.7078C134.63 46.3014 134.048 46.6763 133.454 46.5514C132.863 46.4264 132.484 45.8328 132.612 45.2392C133.207 40.8029 134.201 36.2105 135.581 31.8055C136.51 28.8063 137.573 25.901 138.768 23.183C139.269 22.0584 139.819 20.9649 140.37 19.9027C141.255 18.2157 142.146 16.5909 143.041 15.1226C147.189 8.21827 150.726 3.78208 150.726 3.78208Z" fill="#343434" fill-opacity="0.9"/>
<path fill-rule="evenodd" clip-rule="evenodd" d="M63.4203 17.2488C62.8135 17.28 62.2974 16.8113 62.2661 16.1865C62.2349 15.5929 62.7009 15.0932 63.3046 15.0619C63.3046 15.0619 68.8597 14.1559 76.1697 13.2811C77.8181 13.0624 79.5478 12.9062 81.3276 12.75C82.4599 12.6562 83.611 12.5313 84.7683 12.5001C87.6804 12.3751 90.6175 12.375 93.4014 12.375C98.7939 12.4062 103.539 12.5936 106.367 12.6249C106.97 12.5936 107.496 13.0625 107.536 13.6561C107.58 14.2497 107.124 14.7805 106.52 14.8118C103.714 15.2491 99.0129 15.999 93.6422 16.6551C90.8771 16.9675 87.9525 17.28 85.0436 17.4987C83.8862 17.5612 82.729 17.5922 81.5904 17.6235C79.8043 17.6547 78.0652 17.6549 76.4074 17.6549C69.038 17.5612 63.4203 17.2488 63.4203 17.2488Z" fill="#343434" fill-opacity="0.9"/>
<path fill-rule="evenodd" clip-rule="evenodd" d="M63.3604 26.0269C62.7567 26.0269 62.2656 25.527 62.2656 24.9334C62.2656 24.3086 62.7567 23.84 63.3604 23.84C63.3604 23.84 65.456 23.2151 68.3368 22.7465C68.9749 22.6216 69.6381 22.5279 70.3262 22.4967C70.7641 22.4342 71.2083 22.4029 71.6556 22.4341C72.8004 22.4654 73.9234 22.6214 74.9712 22.7777C77.8427 23.2463 79.9477 23.84 79.9477 23.84C80.5514 23.84 81.0425 24.3086 81.0425 24.9334C81.0425 25.527 80.5514 26.0269 79.9477 26.0269C79.9477 26.0269 77.8427 26.5891 74.9712 27.0578C73.9234 27.214 72.8004 27.3702 71.6556 27.4327C71.2083 27.4327 70.7641 27.4014 70.3262 27.3702C69.6381 27.3077 68.9749 27.214 68.3368 27.1203C65.456 26.6204 63.3604 26.0269 63.3604 26.0269Z" fill="#343434" fill-opacity="0.9"/>
<path fill-rule="evenodd" clip-rule="evenodd" d="M123.698 69.0423C123.094 69.011 122.641 68.4799 122.685 67.8863C122.731 67.2927 123.257 66.824 123.861 66.8865C123.861 66.8865 128.021 66.5742 133.485 66.543C134.718 66.543 136.003 66.5741 137.326 66.6366C138.168 66.6679 139.022 66.7302 139.876 66.824C142.034 67.0426 144.183 67.4176 146.206 67.8237C150.301 68.6048 153.779 69.5108 155.668 70.1668C156.26 70.2918 156.638 70.8543 156.51 71.4479C156.382 72.0415 155.8 72.4161 155.209 72.2912C153.285 72.1037 149.794 72.1663 145.75 72.0413C143.71 72.0101 141.552 71.9476 139.406 71.7914C138.559 71.7289 137.717 71.604 136.885 71.479C135.581 71.3228 134.317 71.1354 133.113 70.9167C127.749 69.9795 123.698 69.0423 123.698 69.0423Z" fill="#343434" fill-opacity="0.9"/>
<path fill-rule="evenodd" clip-rule="evenodd" d="M122.391 78.9479C121.796 79.1041 121.214 78.729 121.086 78.1354C120.958 77.5419 121.333 76.9482 121.924 76.8233C121.924 76.8233 124.461 75.6986 128.381 74.7926C129.216 74.6051 130.104 74.4802 131.049 74.3865C131.63 74.324 132.234 74.2617 132.847 74.2617C134.317 74.2617 135.837 74.4492 137.364 74.7303C139.629 75.1677 141.799 75.886 143.892 76.8233C144.474 76.9795 144.821 77.6045 144.661 78.1669C144.505 78.7604 143.901 79.1041 143.316 78.9479C141.233 78.7292 139.166 78.8853 137.06 78.979C135.647 79.0727 134.27 79.2291 132.935 79.2603C131.452 79.2915 130.051 79.1976 128.768 79.1663C124.98 79.0414 122.391 78.9479 122.391 78.9479Z" fill="#343434" fill-opacity="0.9"/>
<path fill-rule="evenodd" clip-rule="evenodd" d="M131.668 61.549C131.208 61.1429 131.161 60.4556 131.555 59.9869C131.953 59.5496 132.647 59.4871 133.104 59.8933C133.104 59.8933 134.843 60.5804 138.03 60.7991C138.865 60.8303 139.785 60.7991 140.826 60.7991C141.418 60.7991 142.043 60.8305 142.709 60.8305C143.842 60.8305 145.04 60.8928 146.397 60.7991C147.611 60.7054 148.856 60.6741 150.257 60.4241C150.823 60.2054 151.455 60.4866 151.668 61.049C151.88 61.6425 151.593 62.2675 151.027 62.4862C149.037 63.6734 147.264 64.517 145.509 65.0481C144.036 65.5167 142.65 65.7664 141.374 65.7977C140.776 65.7977 140.207 65.7666 139.666 65.6729C138.737 65.5479 137.902 65.3291 137.148 65.0792C136.222 64.7355 135.446 64.3918 134.777 64.0169C132.594 62.7047 131.668 61.549 131.668 61.549Z" fill="#343434" fill-opacity="0.9"/>
<path fill-rule="evenodd" clip-rule="evenodd" d="M98.7526 87.9782C98.1521 87.9157 97.7235 87.3848 97.7955 86.76C97.8674 86.1664 98.4116 85.7603 99.0122 85.8227C99.0122 85.8227 104.233 85.8227 110.93 86.1352C112.456 86.2289 114.048 86.3226 115.675 86.4476C116.716 86.5413 117.773 86.6349 118.824 86.7911C121.511 87.1347 124.173 87.6032 126.638 88.0719C133.222 89.3215 138.299 90.5089 138.299 90.5089C138.899 90.6026 139.331 91.1336 139.259 91.7271C139.187 92.352 138.64 92.7583 138.039 92.6958C138.039 92.6958 132.819 92.6645 126.128 92.3208C123.626 92.1959 120.923 92.0083 118.227 91.7271C117.176 91.6334 116.128 91.4774 115.093 91.2899C113.482 91.04 111.909 90.7899 110.407 90.4775C103.823 89.2278 98.7526 87.9782 98.7526 87.9782Z" fill="#343434" fill-opacity="0.9"/>
<path fill-rule="evenodd" clip-rule="evenodd" d="M82.7429 95.8187C82.1416 95.7637 81.711 95.2133 81.7833 94.62C81.8556 94.0264 82.4045 93.5767 83.003 93.663C83.003 93.663 90.787 93.9674 100.727 94.6704C103 94.8538 105.371 95.0408 107.795 95.2613C109.348 95.416 110.924 95.5717 112.494 95.79C116.502 96.2924 120.488 96.9191 124.178 97.5342C134.005 99.1744 141.644 100.666 141.644 100.666C142.247 100.753 142.678 101.303 142.606 101.897C142.533 102.49 141.989 102.94 141.386 102.853C141.386 102.853 133.6 102.517 123.668 101.783C119.943 101.512 115.912 101.166 111.895 100.726C110.328 100.571 108.762 100.352 107.213 100.103C104.805 99.7582 102.453 99.4151 100.204 99.013C90.3813 97.3732 82.7429 95.8187 82.7429 95.8187Z" fill="#343434" fill-opacity="0.9"/>
<path fill-rule="evenodd" clip-rule="evenodd" d="M82.7404 106.134C82.1399 106.072 81.7113 105.541 81.7833 104.916C81.8552 104.323 82.3995 103.917 83.0001 103.979C83.0001 103.979 88.2205 103.979 94.9174 104.291C96.4439 104.385 98.0359 104.479 99.6625 104.604C100.704 104.698 101.761 104.791 102.812 104.947C105.499 105.291 108.161 105.759 110.626 106.228C117.21 107.478 122.287 108.665 122.287 108.665C122.887 108.759 123.319 109.29 123.247 109.883C123.175 110.508 122.628 110.915 122.027 110.852C122.027 110.852 116.807 110.821 110.116 110.477C107.614 110.352 104.911 110.165 102.215 109.883C101.164 109.79 100.116 109.634 99.0807 109.446C97.4698 109.196 95.8965 108.946 94.3951 108.634C87.8108 107.384 82.7404 106.134 82.7404 106.134Z" fill="#343434" fill-opacity="0.9"/>
</g>
<defs>
<clipPath id="clip0_387_859">
<rect width="210" height="136" fill="white" transform="translate(5)"/>
</clipPath>
</defs>
</svg>
