<svg width="235" height="142" viewBox="0 0 235 142" fill="none" xmlns="http://www.w3.org/2000/svg">
<path fill-rule="evenodd" clip-rule="evenodd" d="M154.84 42.88C154.206 42.9459 153.644 42.4515 153.586 41.8252C153.528 41.199 153.996 40.6388 154.63 40.5729C154.63 40.5729 164.989 38.991 178.258 37.2442C181.293 36.8487 184.478 36.486 187.728 36.1235C189.818 35.8927 191.932 35.6622 194.051 35.4974C199.466 35.036 204.888 34.7062 209.908 34.4095C223.265 33.6515 233.741 33.322 233.741 33.322C234.375 33.289 234.937 33.7505 234.995 34.3767C235.053 35.0029 234.585 35.5632 233.951 35.6291C233.951 35.6291 223.589 37.2112 210.317 38.8921C205.329 39.5183 199.939 40.2103 194.53 40.7377C192.414 40.9354 190.293 41.1002 188.195 41.2321C184.935 41.4957 181.734 41.6936 178.678 41.8584C165.317 42.5505 154.84 42.88 154.84 42.88Z" fill="#343434"/>
<path fill-rule="evenodd" clip-rule="evenodd" d="M181.099 56.1281C180.465 56.1957 179.902 55.7089 179.845 55.0827C179.787 54.4565 180.255 53.8886 180.888 53.821C180.888 53.821 187.579 52.5722 196.202 51.2535C198.17 50.9556 200.235 50.695 202.345 50.437C203.702 50.2735 205.074 50.1109 206.452 50.014C209.974 49.7263 213.499 49.5695 216.765 49.4334C225.475 49.1032 232.283 49.1074 232.283 49.1074C232.918 49.0724 233.479 49.5265 233.537 50.1528C233.596 50.8116 233.127 51.3469 232.493 51.4145C232.493 51.4145 225.799 52.6629 217.174 53.916C213.939 54.382 210.446 54.9006 206.931 55.2543C205.556 55.3841 204.177 55.481 202.813 55.5456C200.692 55.7048 198.611 55.8005 196.622 55.8677C187.907 56.1647 181.099 56.1281 181.099 56.1281Z" fill="#343434"/>
<path fill-rule="evenodd" clip-rule="evenodd" d="M43.6343 91.5945C44.7585 91.3309 47.5298 90.2762 50.4084 89.1226C52.919 88.1339 55.4625 87.0465 56.9163 86.2555C57.5734 85.8929 58.2071 85.9917 58.7826 86.1235C59.4104 86.2883 60.1033 86.8158 60.5353 87.9034C60.8559 88.6944 60.9932 90.9026 60.3973 93.4404C59.9555 95.352 59.1322 97.4614 57.8851 99.2082C56.4745 101.186 54.5726 102.735 52.2309 103.295C48.8937 103.987 45.9983 102.438 44.1623 99.9333C42.6476 97.8569 41.819 95.352 41.9056 93.8688C41.9895 92.4516 42.6371 91.6275 43.6343 91.5945ZM58.774 90.6718C58.8211 90.6388 58.8685 90.6387 58.9165 90.6058C58.8698 90.6387 58.8224 90.6388 58.774 90.6718ZM55.8832 89.5842C55.9164 89.4524 55.9704 89.3206 55.8954 89.3206C55.7423 89.3535 55.7834 89.4524 55.8832 89.5842ZM44.3621 93.7369C44.4724 93.6709 44.5291 93.6382 44.425 93.6052C44.3467 93.5723 44.3358 93.638 44.3621 93.7369ZM44.4033 93.8688C44.4833 94.0666 44.6318 94.3301 44.7147 94.5608C45.1842 95.7803 46.3075 97.2965 47.7089 98.3182C48.6402 99.0104 49.7609 99.3399 50.9503 98.9114C52.5466 98.3511 53.4411 96.7692 54.1999 95.2531C54.7912 94.0337 55.2379 92.7813 55.5204 91.6937C54.2622 92.0233 52.8703 92.3858 51.4823 92.6824C48.6221 93.2757 45.8396 93.737 44.4033 93.8688Z" fill="#343434"/>
<path fill-rule="evenodd" clip-rule="evenodd" d="M86.8908 77.2233C86.9678 75.7732 89.4827 71.8842 92.1694 68.786C93.5422 67.204 94.9726 65.8527 96.0303 65.0946C96.7882 64.5343 97.493 64.2707 97.9845 64.1718C99.4601 63.8422 101.15 64.2047 102.695 65.0286C103.962 65.6878 105.115 66.7094 105.904 67.8629C107.405 70.0712 107.652 72.7081 106.184 74.7186C105.491 75.6414 104.322 76.5971 102.725 77.3221C100.571 78.2779 97.6929 79.0359 95.019 79.3985C91.7295 79.8269 88.8068 79.6623 87.8142 79.0361C87.0597 78.5417 86.7081 77.9484 86.8908 77.2233ZM98.8109 68.9837C98.8099 68.9837 98.8085 68.9837 98.8072 68.9837C98.8085 68.9837 98.8095 68.9837 98.8109 68.9837ZM89.6134 76.8609C89.6792 76.8609 89.7441 76.8609 89.8046 76.8609C91.6512 76.762 94.6658 75.872 97.4055 74.7514C99.4765 73.8945 101.392 72.9716 102.03 71.884C102.064 71.851 101.992 71.7851 101.985 71.7192C101.97 71.5873 101.902 71.4554 101.843 71.3236C101.606 70.7963 101.176 70.3019 100.681 69.9064C100.105 69.4121 99.4864 68.9177 98.8586 68.9837C98.6561 69.0825 98.1791 69.3133 97.8252 69.544C96.671 70.3021 95.2363 71.3896 93.8625 72.6091C92.4663 73.8286 91.1251 75.081 90.2076 76.1686C89.988 76.4323 89.7829 76.6632 89.6134 76.8609Z" fill="#343434"/>
<path fill-rule="evenodd" clip-rule="evenodd" d="M116.366 39.3904C116.348 39.2256 116.307 39.1594 116.222 39.1924C116.221 39.1924 116.22 39.1924 116.22 39.1924C115.95 38.731 116.021 38.1378 116.42 37.7752C116.883 37.3138 117.614 37.347 118.052 37.8084C118.298 38.0391 118.708 39.2586 118.96 41.2691C119.544 45.9492 120.171 55.9026 120.594 66.8449C120.868 73.931 121.093 81.4126 121.163 88.1032C121.204 91.9923 121.167 95.6179 121.128 98.716C121.056 104.55 120.916 108.604 120.913 109.329C120.866 113.086 120.402 115.92 119.418 117.832C118.189 120.205 116.326 121.49 113.532 121.523L92.2004 123.6C91.565 123.633 91.0152 123.171 90.9737 122.512C90.9319 121.886 91.4142 121.326 92.0496 121.293C93.7934 121.128 103.138 119.249 108.913 118.228C110.994 117.865 112.63 117.601 113.338 117.535C114.421 117.469 115.098 116.909 115.519 115.953C116.181 114.437 116.288 112.262 116.165 109.394C116.14 108.669 116.026 104.583 115.965 98.716C115.932 95.6179 115.899 91.9923 115.927 88.1032C115.973 81.874 116.128 74.9528 116.247 68.2952C116.378 60.9124 116.536 53.8591 116.54 48.4868C116.543 45.0921 116.508 42.3564 116.39 40.6755C116.357 40.1812 116.402 39.654 116.366 39.3904ZM116.366 39.3904C116.313 39.3244 116.123 39.2254 116.22 39.1924C116.261 39.2583 116.31 39.3244 116.366 39.3904Z" fill="#343434"/>
<path fill-rule="evenodd" clip-rule="evenodd" d="M117.856 40.5742C118.489 40.6401 118.945 41.2335 118.874 41.8597C118.803 42.4859 118.231 42.9472 117.599 42.8813C114.896 42.7165 111.956 43.3758 109.268 44.3316C106.156 45.4192 103.423 46.9681 101.92 48.2535C99.5856 50.1651 96.4331 54.9772 93.5304 59.9869C92.2544 62.1622 91.0393 64.4035 89.9852 66.4799C88.7068 69.0177 87.6441 71.2918 87.1786 73.0056C85.9332 77.2573 85.0233 83.0579 84.3464 88.595C83.4925 95.6152 83.0138 102.141 83.1228 104.613C83.181 105.239 82.7139 105.8 82.0798 105.865C81.4454 105.898 80.8831 105.437 80.8245 104.811C80.4713 102.306 80.2152 95.5492 80.4963 88.2982C80.7231 82.4316 81.3417 76.3015 82.3333 71.7532C82.8038 69.7757 83.8299 67.0729 85.2853 64.1396C86.3849 61.9314 87.7248 59.5583 89.171 57.3171C92.6287 51.8789 96.6757 46.9353 99.4032 44.9907C101.286 43.6724 104.6 42.1233 108.335 41.2005C111.46 40.4424 114.844 40.0798 117.856 40.5742Z" fill="#343434"/>
<path fill-rule="evenodd" clip-rule="evenodd" d="M62.7419 131.937C61.4471 131.772 60.5319 131.146 59.907 130.322C58.8542 128.905 58.6504 126.796 58.8381 125.411C58.8973 124.785 59.4606 124.291 60.0947 124.357C60.7287 124.423 61.1952 124.983 61.136 125.609C61.0952 126.4 61.216 127.455 61.6979 128.312C62.0061 128.839 62.546 129.169 63.3743 129.136C64.7059 129.07 65.4012 128.279 65.8045 127.323C66.3622 126.005 66.3925 124.39 66.3935 123.137C66.4126 117.897 68.1409 112.195 71.1581 108.141C73.6407 104.779 77.026 102.604 80.9594 102.241C85.8399 101.846 89.43 103.823 91.7976 107.119C93.0654 108.866 93.9685 111.074 94.4652 113.513C95.069 116.479 95.0759 119.841 94.5304 123.236C93.6211 128.542 91.4658 133.849 88.0756 137.375C85.4699 140.111 82.1936 141.858 78.2585 141.99C74.4999 142.121 70.9968 141.067 68.2766 139.287C65.3308 137.375 63.2907 134.706 62.7419 131.937ZM65.1942 131.805C65.8746 133.75 67.5925 135.464 69.8225 136.716C72.1184 137.969 74.9994 138.628 78.0251 138.331C81.5892 138.002 84.239 135.793 86.15 132.794C88.0282 129.894 89.1574 126.202 89.6058 122.511C90.1286 118.589 89.7589 114.766 88.4562 111.832C87.1805 108.965 84.8832 107.02 81.3027 107.218C78.0205 107.383 75.3789 109.657 73.4586 112.689C71.5002 115.787 70.2436 119.611 69.9911 123.269C69.8472 125.28 69.4584 128.015 68.0784 129.795C67.3663 130.718 66.4402 131.476 65.1942 131.805Z" fill="#343434"/>
<path fill-rule="evenodd" clip-rule="evenodd" d="M87.9163 120.4C88.1431 120.993 87.8439 121.653 87.2486 121.883C86.6538 122.114 85.9865 121.817 85.7596 121.224C84.6334 119.049 83.2273 118.027 81.7946 118.126C81.2761 118.159 80.832 118.489 80.3619 118.818C79.638 119.378 79.0674 120.268 78.5677 121.389C77.9271 122.608 77.8168 124.026 77.8049 125.344C77.7894 127.058 77.9448 128.607 78.3452 129.398C78.8903 130.551 79.8974 131.211 80.9706 131.079C82.2367 130.914 83.4831 130.057 84.0968 128.409C84.2535 127.783 84.8819 127.42 85.4992 127.585C86.1165 127.717 86.4901 128.343 86.3334 128.969C85.8946 132.035 83.9121 133.814 81.7999 134.54C79.1804 135.462 76.2527 134.408 74.3617 131.738C73.5798 130.552 72.6646 128.145 72.583 125.41C72.5194 123.268 73.0218 120.96 74.1392 118.983C76.3547 115.555 79.289 113.841 81.9707 114.204C84.3921 114.567 86.8645 116.346 87.9163 120.4Z" fill="#343434"/>
<path fill-rule="evenodd" clip-rule="evenodd" d="M82.6485 103.755C83.1651 104.151 83.2819 104.876 82.9096 105.371C82.5369 105.898 81.8153 106.03 81.2988 105.634C78.6947 103.953 75.4951 105.799 72.5619 108.666C68.7845 112.391 65.5622 118.158 65.0993 122.773C64.804 125.376 63.1399 127.024 60.7221 127.98C59.0066 128.672 56.8276 128.969 54.6798 129.002C52.6535 129.068 50.6638 128.903 49.2416 128.804C46.4914 128.606 42.7993 128.277 38.745 127.717C35.4282 127.288 31.8741 126.761 28.3874 126.167C18.7656 124.552 9.7169 122.674 7.69653 121.817C7.09968 121.619 6.79549 120.927 7.01737 120.334C7.23959 119.74 7.90427 119.444 8.50112 119.674C10.2291 120.202 16.9734 120.927 24.7704 121.685C29.6506 122.147 34.9255 122.575 39.6609 122.937C43.4715 123.234 46.9203 123.498 49.5132 123.564C51.6211 123.695 55.114 124.058 57.8656 123.531C58.5721 123.399 59.2285 123.234 59.7289 122.904C60.0094 122.707 60.2563 122.476 60.3172 122.114C61.2838 116.708 65.4219 110.05 70.2488 106.095C74.5783 102.536 79.338 101.119 82.6485 103.755Z" fill="#343434"/>
<path fill-rule="evenodd" clip-rule="evenodd" d="M59.9821 125.575C61.4398 124.982 62.4907 124.026 62.7086 122.444C63.9932 113.216 75.4761 99.9996 81.974 104.713C81.6988 104.713 81.4177 104.713 81.1312 104.746C73.4643 105.273 68.4945 114.798 68.1923 123.202C68.0935 125.938 67.5984 130.255 63.7473 130.552C63.6304 130.552 63.5106 130.552 63.3878 130.552C60.3353 130.585 59.8277 127.388 59.9821 125.575Z" fill="#343434"/>
<path fill-rule="evenodd" clip-rule="evenodd" d="M4.71407 117.598C5.32146 117.796 5.65956 118.456 5.46862 119.049C5.27768 119.675 4.62946 120.005 4.02174 119.807C3.01106 119.51 2.13141 118.587 1.49472 117.071C0.808316 115.456 0.375075 113.083 0.161088 110.315C-0.435442 102.635 0.711527 92.1214 2.17618 88.1005C3.0318 85.7604 4.84411 83.4532 7.19401 81.278C11.4444 77.3559 17.5256 73.7964 22.0095 70.9619C22.37 70.7312 22.8262 70.105 23.4642 69.314C24.5615 67.8968 25.9235 65.9522 27.4833 63.711C31.3788 58.0751 36.3779 50.5276 41.135 44.4302C45.2145 39.1898 49.2131 35.0371 52.0921 33.6198C53.1278 33.0925 55.0316 32.631 57.5971 32.4003C62.2729 31.9389 69.4276 31.9059 77.094 32.1695C92.4424 32.6969 109.831 34.3449 113.282 35.2678C113.9 35.4326 114.278 36.0587 114.125 36.6849C113.972 37.3111 113.346 37.6737 112.728 37.5089C109.294 36.7508 92.1402 36.0588 77.04 36.1577C69.5955 36.2236 62.6591 36.4543 58.1397 37.0805C56.3573 37.3112 55.0145 37.5418 54.3037 37.9373C52.5704 38.8601 50.4911 41.1015 48.1435 43.903C43.8332 49.0775 38.9417 56.2623 34.7074 62.3267C31.8061 66.4795 29.1882 70.1379 27.318 72.3791C26.1536 73.7634 25.1758 74.6863 24.5296 75.0818C20.7591 77.29 15.8516 79.9598 11.8556 82.959C9.10277 85.0025 6.75089 87.1446 5.7682 89.5176C4.42765 92.6817 3.17106 100.46 2.97386 107.151C2.87905 110.38 3.01008 113.347 3.54669 115.423C3.83541 116.511 4.0889 117.401 4.71407 117.598Z" fill="#343434"/>
<path fill-rule="evenodd" clip-rule="evenodd" d="M99.1853 38.6984C99.795 38.5336 100.439 38.8633 100.623 39.4895C100.807 40.0828 100.462 40.7419 99.8523 40.9067C98.2619 41.5659 96.2757 42.9832 94.3907 44.6641C92.7074 46.1473 91.1776 47.894 90.2611 49.5419C89.5417 50.7614 88.6499 52.607 87.5382 54.7493C86.9584 55.837 86.3372 57.0565 85.6386 58.276C84.0235 61.0775 82.151 64.0767 80.2698 66.8452C76.851 71.9209 73.3505 76.1396 71.0378 77.392C70.5022 77.7546 69.7878 77.5898 69.4434 77.0624C69.0991 76.5021 69.2545 75.8099 69.7901 75.4473C70.8709 74.6234 72.0452 72.7779 73.3999 70.4379C74.8198 67.9989 76.2904 65.0324 77.8113 62.0002C78.7828 60.0886 79.7481 58.1441 80.7225 56.2985C81.4283 54.9801 82.1437 53.7277 82.8291 52.5742C84.2148 50.2341 85.4921 48.2894 86.4119 47.0041C87.816 45.1584 89.9256 43.2797 92.2508 41.8295C94.6949 40.2804 97.2597 39.0939 99.1853 38.6984Z" fill="#343434"/>
<path fill-rule="evenodd" clip-rule="evenodd" d="M66.0182 74.5868C66.6506 74.5209 67.2254 74.9822 67.3008 75.6084C67.3762 76.2347 66.9242 76.828 66.2918 76.894C64.492 77.2895 59.5344 77.553 53.4301 77.4212C51.8098 77.3882 50.118 77.3224 48.3843 77.2235C47.2782 77.1576 46.1566 77.0586 45.0363 76.9268C42.2255 76.5972 39.4124 76.103 36.7402 75.6416C31.7293 74.6858 27.3017 73.6309 24.3925 72.9717C23.7617 72.8729 23.3212 72.3126 23.4091 71.6534C23.4973 71.0272 24.081 70.5989 24.7118 70.6978C27.6754 70.8296 32.1997 70.8953 37.2593 71.159C39.9562 71.2909 42.7868 71.4229 45.5884 71.6865C46.7027 71.7854 47.8069 71.9503 48.8963 72.0821C50.6003 72.3128 52.2582 72.5764 53.8417 72.8401C59.6015 73.7629 64.2595 74.6528 66.0182 74.5868Z" fill="#343434"/>
<path fill-rule="evenodd" clip-rule="evenodd" d="M81.5014 58.4718C82.092 58.2081 82.7649 58.5049 83.0036 59.0981C83.2419 59.6914 82.9562 60.3504 82.3656 60.6141C82.3656 60.6141 77.8198 63.119 71.8233 66.1183C70.4587 66.7774 69.0167 67.4698 67.532 68.1289C66.5789 68.5574 65.6143 68.9858 64.6293 69.3813C62.1079 70.3371 59.5493 71.1938 57.1694 71.9849C50.8091 74.0283 45.7853 75.3799 45.7853 75.3799C45.1951 75.6435 44.5218 75.3468 44.2835 74.7535C44.0448 74.1603 44.3306 73.5012 44.9212 73.2375C44.9212 73.2375 49.4771 70.7327 55.4852 67.7994C57.733 66.6788 60.1653 65.525 62.6577 64.4703C63.6315 64.0748 64.6254 63.7125 65.6078 63.3499C67.1386 62.7896 68.6441 62.2951 70.0956 61.8336C76.4737 59.7902 81.5014 58.4718 81.5014 58.4718Z" fill="#343434"/>
<path fill-rule="evenodd" clip-rule="evenodd" d="M90.017 45.089C90.6524 45.1549 91.134 45.6822 91.0916 46.3414C91.0494 46.9676 90.499 47.462 89.8636 47.3961C89.8636 47.3961 83.9757 47.6597 76.4111 47.6597C74.687 47.6597 72.8842 47.6268 71.0433 47.5609C69.8611 47.5279 68.6648 47.495 67.472 47.3961C64.4206 47.1654 61.3885 46.7699 58.5801 46.4074C51.0833 45.4515 45.2767 44.4298 45.2767 44.4298C44.6413 44.3969 44.1596 43.8365 44.2018 43.2103C44.2443 42.5841 44.7944 42.0898 45.4297 42.1227C45.4297 42.1227 51.3196 41.8921 58.8786 41.9251C61.7105 41.9251 64.7653 41.9579 67.8216 42.1227C69.0164 42.1886 70.2074 42.3205 71.3844 42.4523C73.2171 42.6171 75.0086 42.8148 76.7172 43.0455C84.2144 44.0672 90.017 45.089 90.017 45.089Z" fill="#343434"/>
<path fill-rule="evenodd" clip-rule="evenodd" d="M80.2687 44.5627C80.8636 44.332 81.5309 44.6286 81.7584 45.2219C81.9859 45.8151 81.6876 46.4743 81.0928 46.705C81.0928 46.705 74.604 49.9019 66.1627 53.6591C64.2355 54.5161 62.2036 55.4061 60.1197 56.263C58.7808 56.8233 57.4258 57.3834 56.0514 57.8778C52.537 59.1961 48.9842 60.3496 45.6868 61.4373C36.8986 64.3047 29.9542 66.2823 29.9542 66.2823C29.3593 66.513 28.6917 66.2163 28.4645 65.6231C28.237 65.0298 28.5353 64.3377 29.1302 64.1399C29.1302 64.1399 35.6278 60.9759 44.0809 57.2186C47.2525 55.8344 50.6849 54.3184 54.1716 52.9671C55.5355 52.4068 56.9182 51.9452 58.2854 51.4509C60.4127 50.6928 62.5055 50.0009 64.5154 49.3417C73.3198 46.5402 80.2687 44.5627 80.2687 44.5627Z" fill="#343434"/>
<path fill-rule="evenodd" clip-rule="evenodd" d="M64.4356 43.4755C65.0404 43.2777 65.6932 43.6074 65.892 44.2006C66.0909 44.8268 65.7613 45.486 65.1562 45.6837C65.1562 45.6837 61.8362 47.4307 57.3833 49.4412C56.3759 49.9026 55.3129 50.331 54.212 50.7595C53.5075 51.0561 52.7937 51.3196 52.0629 51.5503C50.1894 52.1106 48.2908 52.5723 46.5213 52.9678C41.7652 54.0225 38.0461 54.6157 38.0461 54.6157C37.4413 54.8135 36.7885 54.4836 36.5897 53.8574C36.3908 53.2642 36.7204 52.6052 37.3255 52.4074C37.3255 52.4074 40.6557 50.6607 45.1166 48.6832C46.7761 47.9581 48.569 47.2 50.4188 46.5409C51.1401 46.2772 51.8779 46.0794 52.6074 45.8817C53.7465 45.5851 54.8622 45.2884 55.9423 45.0577C60.7152 44.036 64.4356 43.4755 64.4356 43.4755Z" fill="#343434"/>
<path fill-rule="evenodd" clip-rule="evenodd" d="M39.8459 89.5841C40.4809 89.617 40.9563 90.1774 40.9072 90.8036C40.8578 91.4628 40.3025 91.9241 39.6677 91.8912C39.6677 91.8912 35.0466 92.1548 29.0313 92.1548C27.67 92.1548 26.2481 92.1219 24.7907 92.056C23.8584 92.023 22.9139 91.9901 21.9727 91.8912C19.5767 91.6275 17.1965 91.2319 14.974 90.8364C10.1237 89.9466 6.12153 88.9579 4.47416 88.4305C3.85064 88.2987 3.45098 87.7056 3.582 87.0793C3.7127 86.4531 4.32503 86.0576 4.94822 86.1894C6.62127 86.3542 10.6274 86.2553 15.4174 86.3542C17.6613 86.3871 20.0567 86.453 22.4444 86.6178C23.3847 86.6837 24.318 86.8155 25.2394 86.9474C26.681 87.1122 28.0835 87.343 29.4204 87.5737C35.3363 88.5954 39.8459 89.5841 39.8459 89.5841Z" fill="#343434"/>
<path fill-rule="evenodd" clip-rule="evenodd" d="M32.0343 93.9999C32.67 93.9669 33.2165 94.4612 33.2537 95.0875C33.2909 95.7466 32.8049 96.274 32.1692 96.307C32.1692 96.307 28.5726 97.1309 23.2295 97.5594C22.0954 97.6582 20.8935 97.691 19.6286 97.691C18.8464 97.691 18.0425 97.6913 17.227 97.6253C15.2893 97.4606 13.2884 97.1308 11.2743 96.6694C8.29556 96.0102 5.39159 95.0875 2.59363 93.9999C1.97603 93.8351 1.60007 93.2086 1.75513 92.5824C1.90986 91.9562 2.53734 91.5936 3.15494 91.7584C6.00096 92.088 8.91282 92.1211 11.8273 92.22C13.7973 92.253 15.7281 92.286 17.5846 92.352C18.3687 92.4179 19.1338 92.4837 19.8801 92.5496C21.0936 92.6814 22.2449 92.8133 23.3332 92.9451C28.4979 93.6043 32.0343 93.9999 32.0343 93.9999Z" fill="#343434"/>
<path fill-rule="evenodd" clip-rule="evenodd" d="M40.648 101.021C41.284 100.988 41.8272 101.482 41.8605 102.109C41.8937 102.768 41.4042 103.295 40.7682 103.328C39.5106 103.526 34.846 104.152 28.9502 104.449C27.4381 104.514 25.8543 104.548 24.2273 104.548C23.1883 104.515 22.1335 104.514 21.0778 104.449C18.4197 104.251 15.7531 103.921 13.2287 103.493C8.44596 102.669 4.24919 101.548 1.56876 100.362C0.964654 100.164 0.637091 99.5048 0.837909 98.9115C1.03873 98.3183 1.69221 97.9886 2.29664 98.1864C4.04211 98.5819 6.36634 98.7469 9.05138 98.8787C11.1995 98.9776 13.5359 99.0106 15.9674 99.0435C17.4927 99.0765 19.0432 99.0764 20.5919 99.1423C22.1513 99.2082 23.7032 99.3401 25.2156 99.4719C27.3953 99.6367 29.4779 99.8673 31.3926 100.065C36.0443 100.559 39.5751 100.988 40.648 101.021Z" fill="#343434"/>
<path fill-rule="evenodd" clip-rule="evenodd" d="M54.9385 115.258C55.5683 115.159 56.1566 115.62 56.2521 116.246C56.3472 116.873 55.9133 117.466 55.2836 117.565C53.7893 117.894 47.1076 118.059 38.8267 117.795C36.7493 117.729 34.5782 117.597 32.3639 117.466C30.9417 117.367 29.5031 117.268 28.069 117.103C24.4125 116.708 20.7751 116.18 17.396 115.62C9.68692 114.368 3.39308 113.049 1.42703 112.555C0.800872 112.456 0.386726 111.83 0.502937 111.204C0.618819 110.577 1.2216 110.182 1.84776 110.281C3.83817 110.511 10.1814 110.709 17.8777 111.138C21.2811 111.336 24.9369 111.533 28.5856 111.863C30.016 111.995 31.4405 112.159 32.8485 112.357C35.0394 112.621 37.1823 112.884 39.229 113.181C42.8351 113.708 46.1068 114.203 48.7777 114.565C51.9246 115.027 54.1471 115.324 54.9385 115.258Z" fill="#343434"/>
<path fill-rule="evenodd" clip-rule="evenodd" d="M10.3898 121.72C10.3012 121.093 10.7413 120.5 11.3718 120.401C12.0026 120.335 12.5866 120.764 12.6751 121.39C13.2667 123.598 14.285 125.213 15.4602 126.499C16.7198 127.883 18.3073 128.674 19.9905 129.234C21.0325 129.597 22.1218 129.794 23.2267 129.959C24.3789 130.124 25.5377 130.256 26.6919 130.289C29.4711 130.355 32.1348 130.025 34.1528 129.3C35.2856 128.872 36.2219 128.509 36.7598 127.916C37.1394 127.421 37.863 127.322 38.3743 127.685C38.8855 128.08 38.9922 128.806 38.6123 129.3C37.4021 131.376 33.6765 133.651 29.1189 134.738C27.4889 135.134 25.7612 135.298 24.0293 135.265C23.278 135.265 22.5264 135.2 21.789 135.068C19.8654 134.738 18.0097 134.046 16.3899 133.024C15.2245 132.299 14.1533 131.409 13.2812 130.289C11.6055 128.147 10.4586 125.378 10.3898 121.72Z" fill="#343434"/>
<path fill-rule="evenodd" clip-rule="evenodd" d="M112.468 41.8595C112.417 41.2333 112.891 40.673 113.526 40.6071C114.161 40.5742 114.717 41.0353 114.768 41.6615C115.189 43.8039 115.531 46.4077 115.736 49.2092C115.858 50.8571 115.923 52.5379 115.943 54.1858C115.956 55.2735 115.946 56.2952 115.905 57.3169C115.86 58.4046 115.795 59.4594 115.687 60.4152C115.34 63.5462 114.825 65.9191 114.628 66.7101C113.912 69.2809 112.614 71.2257 110.763 72.3463C108.943 73.4669 106.759 73.9611 104.427 73.5326C103.792 73.4667 103.316 72.9065 103.364 72.2803C103.413 71.6541 103.968 71.1596 104.603 71.2255C106.206 71.1596 107.573 70.5335 108.625 69.5448C109.542 68.6879 110.021 67.4354 110.155 65.9193C110.225 65.2931 110.247 63.7439 110.358 61.6675C110.406 60.7776 110.457 59.7889 110.558 58.7672C110.763 56.6579 111.052 54.3509 111.35 51.9779C111.814 48.3195 112.387 44.6939 112.468 41.8595Z" fill="#343434"/>
<path fill-rule="evenodd" clip-rule="evenodd" d="M117.931 97.2638C117.393 96.9013 117.233 96.2093 117.574 95.649C117.915 95.1217 118.628 94.9567 119.166 95.2863C119.166 95.2863 121.172 96.4068 124.108 97.033C125.62 97.3626 127.379 97.5275 129.245 97.3298C130.014 97.2309 134.875 96.44 141.939 95.3194C145.687 94.7262 150.043 94.0341 154.736 93.3419C157.488 92.9464 160.354 92.5507 163.28 92.1552C166.099 91.7927 168.971 91.4301 171.846 91.1005C177.714 90.4413 183.585 89.8811 189.021 89.3537C203.48 88.0024 214.826 87.0798 214.826 87.0798C215.457 86.9809 216.036 87.4423 216.117 88.0685C216.197 88.6948 215.75 89.2878 215.119 89.3537C215.119 89.3537 201.141 91.7928 184.446 94.4295C180.452 95.0557 176.306 95.7148 172.153 96.2751C169.401 96.6706 166.649 97.033 163.938 97.3626C157.803 98.0877 151.902 98.681 146.768 99.1754C137.264 100.098 130.387 100.593 129.455 100.626C127.228 100.659 125.161 100.296 123.407 99.7689C120.106 98.7471 117.931 97.2638 117.931 97.2638Z" fill="#343434"/>
<path fill-rule="evenodd" clip-rule="evenodd" d="M216.276 5.80364C214.305 5.60588 210.73 5.50694 205.954 5.40807C195.449 5.21032 179.252 5.24347 161.502 5.27643C150.643 5.27643 139.204 5.24327 128.13 5.24327C116.185 5.27623 104.666 5.30932 94.7582 5.37524C81.9585 5.47411 71.8587 5.63897 67.0268 5.9356C66.0886 5.96856 65.1194 6.06731 64.6996 6.13322C64.592 6.36393 64.4014 6.82529 64.303 7.22079C63.7499 9.36311 63.4724 12.9228 63.3341 16.746C63.0253 25.3152 63.4407 35.2688 63.4407 35.2688C63.4776 35.895 62.991 36.4554 62.3553 36.4884C61.7196 36.5213 61.1735 36.0267 61.1369 35.4005C61.1369 35.4005 59.9778 19.4157 60.6941 10.385C60.8772 8.07791 61.2071 6.1992 61.6591 5.04565C62.0304 4.08985 62.5637 3.52955 63.0658 3.23292C63.3058 3.10109 64.1367 2.87038 65.523 2.73854C68.3819 2.44192 74.331 2.07937 82.3002 1.74978C93.9457 1.28836 109.922 0.793853 126.844 0.464266C136.647 0.266514 146.766 0.101785 156.541 0.0358676C166.401 -0.0300497 175.911 0.00310208 184.392 0.0690194C196.38 0.200854 206.318 0.464266 212.305 0.793853C215.206 0.958646 217.228 1.12363 218.181 1.32138C219.51 1.58505 220.093 2.27712 220.272 2.57375C220.444 2.83742 220.777 3.76033 220.885 5.27643C221.07 7.88016 221.116 13.3841 221.043 20.3055C220.788 44.4642 219.254 86.4864 219.254 86.4864C219.241 87.1126 218.713 87.6401 218.076 87.6071C217.439 87.6071 216.933 87.0799 216.946 86.4207C216.946 86.4207 217.058 59.8559 216.927 36.8508C216.854 24.2276 216.713 12.659 216.39 7.22079C216.362 6.72641 216.318 6.2321 216.276 5.80364Z" fill="#343434"/>
<path fill-rule="evenodd" clip-rule="evenodd" d="M127.549 2.83715C127.545 2.21093 128.059 1.68359 128.696 1.68359C129.333 1.68359 129.853 2.21093 129.856 2.83715C129.856 2.83715 130.576 15.4933 131.177 31.676C131.314 35.3674 131.422 39.2565 131.506 43.2115C131.56 45.7493 131.614 48.32 131.614 50.8908C131.613 57.4826 131.482 64.0415 131.342 70.1388C130.968 86.2886 130.414 98.9777 130.414 98.9777C130.418 99.6039 129.904 100.131 129.267 100.131C128.63 100.131 128.11 99.6368 128.107 98.9777C128.107 98.9777 127.406 86.3215 126.845 70.1388C126.633 64.0744 126.426 57.5157 126.349 50.924C126.319 48.3532 126.343 45.7825 126.368 43.2447C126.406 39.2896 126.469 35.4005 126.563 31.7091C126.977 15.5264 127.549 2.83715 127.549 2.83715Z" fill="#343434"/>
<path fill-rule="evenodd" clip-rule="evenodd" d="M188.641 106.162C188.726 106.788 188.283 107.348 187.652 107.447C187.021 107.546 186.439 107.085 186.354 106.458C185.719 103.855 184.687 102.438 183.512 101.91C183.233 101.778 182.95 101.877 182.677 101.943C181.911 102.108 181.419 102.932 181.053 103.921C180.249 105.832 180.037 107.612 180.047 109.26C180.059 111.205 180.402 112.918 181.206 114.171C181.657 114.929 182.646 115.192 183.581 114.5C184.628 113.742 185.65 112.424 186.396 110.216C186.54 109.589 187.161 109.194 187.781 109.326C188.401 109.491 188.788 110.117 188.645 110.743C188.104 114.896 186.306 117.137 184.566 118.225C181.995 119.807 179.2 118.851 177.497 116.84C176.035 114.995 174.901 112.391 174.806 109.359C174.734 107.052 175.323 104.514 176.602 101.877C178.211 98.9767 180.836 97.3948 183.28 97.8233C184.118 97.988 184.96 98.2516 185.697 98.8448C187.159 100.064 188.525 102.306 188.641 106.162Z" fill="#343434"/>
<path fill-rule="evenodd" clip-rule="evenodd" d="M167.4 111.831C167.4 111.831 167.401 111.831 167.403 111.831C167.423 111.864 167.441 111.864 167.458 111.864C167.494 111.864 167.518 111.832 167.518 111.799C167.518 111.799 167.515 111.799 167.509 111.799C167.567 111.7 167.598 111.436 167.63 111.304C168.016 109.623 168.543 107.217 169.456 104.647C170.214 102.504 171.192 100.263 172.469 98.2196C174.265 95.3851 176.548 92.9131 179.508 91.6607C180.071 91.3641 180.77 91.5619 181.067 92.1222C181.364 92.7155 181.148 93.4076 180.584 93.7042C178.359 95.1214 176.919 97.4613 175.811 99.9992C174.964 101.944 174.402 104.02 173.939 105.965C173.35 108.437 172.979 110.711 172.744 112.26C171.971 116.314 168.962 117.566 166.306 116.907C164.22 116.38 162.064 114.468 161.686 111.271C161.356 107.81 161.756 104.416 162.831 101.417C164.043 98.0219 165.954 95.1542 168.203 93.2426C168.655 92.8142 169.386 92.8144 169.834 93.2758C170.283 93.7042 170.279 94.4621 169.827 94.8906C168.201 96.7692 167.043 99.4391 166.427 102.405C165.9 104.943 165.862 107.745 166.476 110.513C166.579 111.04 166.85 111.403 167.152 111.667C167.213 111.733 167.317 111.798 167.4 111.831ZM167.4 111.831C167.381 111.798 167.479 111.766 167.509 111.799C167.494 111.832 167.477 111.831 167.458 111.864C167.441 111.864 167.421 111.831 167.4 111.831Z" fill="#343434"/>
<path fill-rule="evenodd" clip-rule="evenodd" d="M180.046 92.6836C173.228 96.2761 171.08 107.119 170.186 111.766C169.407 115.853 164.72 114.964 164.081 110.91C163.029 104.219 165.418 97.6271 169.014 94.0676C172.697 93.6062 176.411 93.145 180.046 92.6836Z" fill="#343434"/>
<path fill-rule="evenodd" clip-rule="evenodd" d="M118.698 109.525C118.067 109.624 117.482 109.195 117.393 108.536C117.303 107.91 117.742 107.316 118.372 107.25C118.372 107.25 124.331 105.734 132.046 104.119C133.806 103.757 135.653 103.395 137.544 103.065C138.759 102.867 139.988 102.636 141.225 102.471C144.39 102.076 147.562 101.779 150.505 101.549C158.356 100.889 164.497 100.659 164.497 100.659C165.127 100.56 165.712 100.988 165.802 101.647C165.892 102.274 165.453 102.867 164.823 102.933C164.823 102.933 158.858 104.416 151.14 105.998C148.247 106.591 145.122 107.218 141.969 107.712C140.736 107.877 139.496 108.042 138.27 108.174C136.361 108.371 134.49 108.569 132.698 108.701C124.839 109.294 118.698 109.525 118.698 109.525Z" fill="#343434"/>
<path fill-rule="evenodd" clip-rule="evenodd" d="M117.439 114.37C117.041 113.876 117.121 113.118 117.618 112.722C118.115 112.327 118.842 112.425 119.24 112.92C120.895 114.469 122.733 115.227 124.595 115.688C125.533 115.886 126.469 115.952 127.41 115.952C128.351 115.952 129.277 115.82 130.201 115.655C131.339 115.457 132.467 115.227 133.537 114.798C134.278 114.535 135.005 114.238 135.689 113.842C137.498 112.788 139.096 111.47 140.123 109.69C140.365 109.097 141.039 108.833 141.628 109.063C142.217 109.327 142.5 109.986 142.258 110.58C141.711 112.722 140.587 114.601 139.105 116.282C138.119 117.402 136.942 118.325 135.65 119.116C134.261 119.94 132.72 120.533 131.123 120.863C130.262 121.028 129.379 121.061 128.502 121.028C127.185 120.995 125.868 120.797 124.614 120.335C121.812 119.314 119.273 117.435 117.439 114.37Z" fill="#343434"/>
<path fill-rule="evenodd" clip-rule="evenodd" d="M185.873 92.6177C185.44 92.1562 185.469 91.3982 185.937 90.9697C186.404 90.5413 187.135 90.5743 187.567 91.0357C192.819 96.0454 195.01 101.681 195.452 106.889C195.794 110.943 195.027 114.733 193.786 117.831C192.647 120.665 191.034 122.907 189.561 124.324C187.935 125.807 185.739 126.796 183.227 127.125C180.309 127.488 176.986 127.059 173.977 125.741C169.395 123.731 165.478 119.841 164.834 114.172C164.723 113.546 165.141 112.953 165.768 112.821C166.396 112.722 166.995 113.151 167.106 113.777C168.167 118.161 171.617 120.797 175.395 121.984C177.357 122.577 179.415 122.742 181.303 122.544C183.177 122.346 184.865 121.72 185.965 120.567C187.039 119.545 188.095 117.864 189 115.82C190.097 113.348 190.944 110.349 190.996 107.053C191.067 102.505 189.829 97.4955 185.873 92.6177Z" fill="#343434"/>
<path fill-rule="evenodd" clip-rule="evenodd" d="M217.097 93.5407C217.729 93.4748 218.304 93.9361 218.38 94.5623C218.456 95.1885 218.004 95.7819 217.372 95.8478C217.372 95.8478 214.04 96.9024 209.615 97.9241C208.616 98.1878 207.569 98.3856 206.489 98.5833C205.797 98.7151 205.097 98.8141 204.391 98.8801C202.578 99.0778 200.767 99.1107 199.082 99.1437C194.544 99.2096 191.057 99.0117 191.057 99.0117C190.425 99.0776 189.85 98.6163 189.774 97.9901C189.698 97.3639 190.15 96.8035 190.782 96.7046C190.782 96.7046 194.121 95.6831 198.546 94.6614C200.189 94.2989 201.96 93.9034 203.763 93.6727C204.467 93.5738 205.176 93.5077 205.876 93.4747C206.971 93.4088 208.038 93.376 209.065 93.3431C213.613 93.3101 217.097 93.5407 217.097 93.5407Z" fill="#343434"/>
<path fill-rule="evenodd" clip-rule="evenodd" d="M180.362 124.916C150.605 129.728 97.9923 138.165 92.3707 139.121C79.3511 141.362 56.6856 143.043 38.4552 141.131C27.457 139.978 16.3395 139.582 12.3268 137.671C8.50629 135.825 10.7979 133.551 19.5885 131.804C25.6157 133.913 33.2866 132.134 36.5698 129.695C38.3887 129.563 40.3047 129.431 42.3192 129.332C43.6344 129.266 50.4438 128.31 59.9961 126.926C60.1739 128.64 61.0065 130.584 63.3876 130.551C63.5104 130.551 63.6303 130.551 63.7471 130.551C64.0444 135.693 70.6003 140.637 78.1419 140.175C86.1977 139.648 90.8395 131.31 92.0681 122.872C92.0882 122.74 92.107 122.576 92.1251 122.444C94.4859 122.279 110.777 119.675 113.435 119.543C114.576 119.478 115.494 119.148 116.22 118.555C118.679 118.192 121.056 117.829 123.323 117.467C127.923 119.444 133.248 118.324 137.035 115.456C141.967 114.731 145.19 114.27 145.844 114.204C148.034 114.006 157.321 114.369 166.135 114.764C167.767 121.455 174.505 124.883 180.362 124.916ZM191.936 115.424C197.703 115.457 204.015 115.555 207.921 115.984C212.181 116.445 213.329 119.379 200.016 121.719C198.228 122.015 192.651 122.938 184.91 124.191C186.012 123.795 186.985 123.202 187.763 122.444C189.274 120.994 190.862 118.522 191.936 115.424Z" fill="#343434"/>
</svg>
