<svg width="358" height="356" viewBox="0 0 358 356" fill="none" xmlns="http://www.w3.org/2000/svg">
<path d="M49.8929 306.185C51.4638 306.588 53.1106 306.586 54.6803 306.179L54.795 306.17C54.7086 304.727 54.8312 303.279 55.159 301.871L55.0156 301.836C50.5907 303.206 46.0022 300.624 42.1258 298.088C38.2493 295.552 33.7971 292.844 29.2938 293.945C25.7241 294.822 23.0445 298.094 22.2415 301.681C21.4384 305.269 22.2932 309.076 23.9374 312.368C25.5815 315.66 27.9637 318.513 30.3899 321.277C33.6446 324.998 37.0549 328.663 41.1255 331.477C45.1961 334.291 50.0272 336.222 54.973 336.116C59.8736 336.006 64.8474 333.661 67.4251 329.507C63.9723 327.078 61.4642 323.195 59.3792 319.408C58.8288 318.417 58.2951 317.393 57.7912 316.347L57.4817 316.391C56.2182 316.717 54.9175 316.877 53.6121 316.867C51.1625 316.847 48.7394 316.354 46.4762 315.417C45.4362 315 44.427 314.51 43.4565 313.951C41.1896 312.617 39.0733 311.043 37.1434 309.257C36.3099 308.581 35.6102 307.755 35.0817 306.821C34.8246 306.349 34.6874 305.821 34.6818 305.284C34.6762 304.747 34.8027 304.217 35.0497 303.74C35.9204 302.305 37.9499 302.158 39.5995 302.495C41.1377 302.848 42.6347 303.36 44.067 304.022C45.0318 304.438 45.9981 304.872 46.9794 305.26C47.9252 305.644 48.8991 305.954 49.8929 306.185Z" fill="#EAEAEA"/>
<path d="M67.4243 329.51C68.4993 330.278 69.6808 330.886 70.9307 331.315C78.1654 333.77 85.7604 329.37 92.1327 325.16C123.48 304.411 153.997 284.22 182.48 259.682L182.559 259.63C192.654 275.083 203.78 289.989 217.473 302.337C232.349 315.755 250.537 326.077 270.346 329.033C277.413 330.086 284.734 330.181 291.604 328.211C297.96 326.389 303.904 322.666 307.674 317.275C307.978 316.839 308.274 316.379 308.55 315.917C308.861 315.401 309.146 314.88 309.404 314.35C312.443 308.269 312.645 301.172 310.872 294.457C309.694 289.999 307.722 285.79 305.05 282.032C303.852 280.322 302.488 278.734 300.98 277.29C298.56 274.997 295.737 273.201 292.502 272.492C288.318 271.563 283.983 272.543 279.721 272.967C266.733 274.194 253.782 270.282 243.644 262.072C238.696 258.069 234.585 253.128 231.549 247.533C228.513 241.939 226.611 235.8 225.951 229.469L225.915 229.255C221.402 229.999 216.797 230.368 212.238 230.688C211.286 230.756 210.314 230.814 209.334 230.852C193.084 240.883 172.012 244.544 153.476 239.956C149.227 238.898 145.086 237.446 141.107 235.617L140.977 235.902C116.468 253.176 91.9586 270.448 67.449 287.718C62.3615 291.297 56.9415 295.349 55.2872 301.346C55.2369 301.522 55.1934 301.698 55.1563 301.874C54.8285 303.282 54.7059 304.73 54.7919 306.173C54.9814 309.637 56.2175 313.096 57.788 316.349C58.2919 317.395 58.8258 318.421 59.376 319.41C61.462 323.199 63.9714 327.081 67.4243 329.51Z" fill="#FF6900"/>
<path d="M104.725 148.365C109.291 142.826 114.774 138.11 120.935 134.425L120.876 134.328L129.413 123.148C119.855 128.373 111.856 136.04 106.231 145.368C105.661 146.319 105.113 147.307 104.611 148.311L104.725 148.365Z" fill="#FF6900"/>
<path d="M129.413 123.144L120.876 134.323L120.935 134.42C125.616 131.594 130.619 129.336 135.836 127.695L135.818 127.632L142.859 117.803L142.858 117.797C140.708 118.355 138.592 119.038 136.521 119.84C134.082 120.786 131.708 121.89 129.413 123.144Z" fill="#FF6900"/>
<path d="M142.859 117.806L135.818 127.635L135.836 127.698C141.948 125.75 148.299 124.649 154.711 124.427L154.705 124.274L160.92 115.895L160.922 115.837C154.836 115.592 148.748 116.254 142.857 117.8L142.859 117.806Z" fill="#FF6900"/>
<path d="M173.464 111.82C174.753 110.932 175.726 109.657 176.243 108.18C176.374 107.782 176.471 107.373 176.53 106.957C177.274 101.728 172.611 97.5505 169.257 93.4654C165.817 89.1927 163.478 84.1416 162.443 78.755C161.408 73.3681 161.71 67.81 163.322 62.5668L163.34 62.5462C170.329 68.0978 179.068 70.9777 187.988 70.669L187.99 70.6945C187.375 81.5119 188.464 92.4582 193.629 101.979C193.704 102.114 193.779 102.254 193.859 102.389C194.038 102.713 194.223 103.037 194.42 103.353C199.759 112.215 209.196 118.981 219.502 119.013C225.191 119.032 230.835 117.081 236.437 116.066C239.981 115.423 243.508 115.152 247.017 115.994C260.048 119.119 265.176 135.288 276.571 142.34C282.845 146.226 290.689 147.013 297.961 145.707C305.233 144.401 311.998 141.144 318.363 137.413C323.056 134.661 327.698 131.514 330.74 127.01C333.771 122.527 334.898 116.393 332.297 111.649L332.205 111.695C331.079 118.001 324.228 122.147 317.838 121.807C311.448 121.466 305.709 117.596 301.399 112.866C297.088 108.136 293.894 102.514 290.147 97.3251C286.401 92.1358 281.864 87.2133 275.946 84.7743C265.746 80.5649 253.971 84.5867 243.154 82.4371C230.144 79.8467 220.711 69.0019 211.276 59.67C204.569 53.0409 197.235 46.806 188.583 43.0431C179.931 39.2802 169.75 38.2423 161.095 42C152.44 45.7577 145.93 54.9517 146.949 64.3258C147.507 69.4657 150.127 74.1369 151.422 79.1487C152.938 85.024 152.594 91.2113 153.456 97.2209C153.716 99.0729 154.139 100.898 154.721 102.675C156.083 106.762 158.409 110.454 162.094 112.521C165.579 114.477 170.359 114.056 173.464 111.82Z" fill="#EAEAEA"/>
<path d="M154.706 124.273L154.711 124.426C161.056 124.18 167.403 124.855 173.554 126.429L173.604 126.242L178.531 119.246L178.615 118.932C177.772 118.705 176.933 118.49 176.081 118.296C176.089 118.314 176.097 118.34 176.105 118.358C171.173 116.874 166.071 116.027 160.924 115.836L160.922 115.893L154.706 124.273Z" fill="#FF6900"/>
<path d="M173.603 126.241L173.554 126.428C175.55 126.94 177.518 127.555 179.451 128.269C183.228 129.656 186.883 131.357 190.377 133.354L190.545 133.053L194.93 125.724L194.963 125.664C194.555 125.428 194.141 125.199 193.728 124.976C190.785 123.395 187.737 122.017 184.605 120.854C182.639 120.128 180.642 119.487 178.613 118.932L178.529 119.245L173.603 126.241Z" fill="#FF6900"/>
<path d="M190.546 133.056L190.378 133.356C195.012 135.99 199.301 139.188 203.147 142.879L207.635 134.757L207.658 134.73C203.766 131.26 199.509 128.221 194.963 125.667L194.93 125.727L190.546 133.056Z" fill="#FF6900"/>
<path d="M207.635 134.761L203.147 142.883C206.923 146.524 210.233 150.619 213.005 155.073L213.223 154.935L218.097 146.783L218.327 146.617C217.66 145.687 216.969 144.771 216.253 143.87C215.863 143.371 215.467 142.878 215.058 142.387C212.79 139.651 210.316 137.092 207.657 134.733L207.635 134.761Z" fill="#FF6900"/>
<path d="M213.223 154.933L213.005 155.071C215.801 159.57 218.086 164.366 219.817 169.372L220.023 169.305L225.923 160.317L226.047 160.262C223.977 155.446 221.389 150.869 218.329 146.613L218.099 146.778L213.223 154.933Z" fill="#FF6900"/>
<path d="M220.022 169.301L219.817 169.368C221.637 174.625 222.956 180.043 223.758 185.548L223.96 185.519L230.829 176.865C229.941 171.15 228.333 165.571 226.044 160.26L225.921 160.316L220.022 169.301Z" fill="#FF6900"/>
<path d="M223.959 185.521L223.757 185.55C224.042 187.462 224.277 189.416 224.461 191.412L224.475 191.437C227.205 189.488 229.617 187.127 231.624 184.44L231.569 184.393C231.46 181.873 231.213 179.361 230.831 176.867L223.959 185.521Z" fill="#FF6900"/>
<path d="M316.54 296.363C321.458 298.545 325.803 301.837 329.234 305.981C331.597 308.819 333.473 312.028 334.788 315.478C335.289 316.817 335.611 318.56 334.506 319.471C333.667 320.162 332.438 319.978 331.375 319.755C329.246 319.303 327.124 318.834 325.008 318.347C322.264 317.713 319.531 317.048 316.807 316.349C314.338 315.713 311.877 315.053 309.425 314.37L309.405 314.358C309.147 314.889 308.862 315.409 308.552 315.925C308.275 316.388 307.979 316.845 307.675 317.284L308 317.507C315.281 321.295 322.556 325.083 329.926 328.685C332.768 330.077 335.878 331.473 338.977 330.865C343.862 329.907 346.489 324.414 346.928 319.452C347.521 312.625 345.418 305.768 342.038 299.81C338.658 293.853 334.06 288.685 329.309 283.741C325.749 280.037 321.907 276.317 317.039 274.645C314.373 273.759 311.532 273.526 308.757 273.966C305.983 274.407 303.354 275.507 301.093 277.175L300.981 277.299C302.489 278.743 303.852 280.331 305.05 282.041C307.723 285.799 309.697 290.008 310.876 294.465L310.913 294.456C312.844 294.916 314.728 295.555 316.54 296.363Z" fill="#EAEAEA"/>
<path d="M192.706 70.1732C191.147 70.4447 189.571 70.6089 187.989 70.665C179.069 70.9737 170.33 68.0938 163.341 62.5422C162.578 61.9322 161.84 61.2878 161.126 60.6083" stroke="#EAEAEA" stroke-width="2.10336" stroke-linecap="round" stroke-linejoin="round"/>
<path d="M163.322 62.5614C161.71 67.8041 161.409 73.3621 162.443 78.7487C163.477 84.1352 165.817 89.1859 169.256 93.4586C172.61 97.5424 177.273 101.721 176.529 106.951C176.469 107.366 176.374 107.775 176.242 108.173C175.725 109.651 174.752 110.925 173.464 111.814C170.359 114.049 165.578 114.47 162.092 112.516C158.406 110.45 156.079 106.757 154.719 102.671C154.138 100.894 153.714 99.0685 153.454 97.2165C152.592 91.2069 152.935 85.0219 151.42 79.1443C150.126 74.1325 147.505 69.4622 146.947 64.3214C145.929 54.9472 152.446 45.7591 161.093 41.9956C169.74 38.2321 179.93 39.2822 188.581 43.0387C197.233 46.7953 204.567 53.0365 211.274 59.6656C220.71 68.9971 230.142 79.8423 243.152 82.4327C253.969 84.5823 265.744 80.5605 275.944 84.7694C281.864 87.2088 286.393 92.1323 290.146 97.3206C293.892 102.51 297.085 108.125 301.397 112.862C305.709 117.598 311.445 121.468 317.836 121.802C324.227 122.136 331.077 117.997 332.203 111.691" stroke="#EAEAEA" stroke-width="2.10336" stroke-linecap="round" stroke-linejoin="round"/>
<path d="M332.265 111.6C332.273 111.618 332.287 111.636 332.295 111.655C334.896 116.399 333.769 122.532 330.738 127.015C327.696 131.519 323.054 134.668 318.361 137.418C311.996 141.148 305.223 144.4 297.959 145.712C290.695 147.025 282.844 146.231 276.569 142.345C265.174 135.293 260.047 119.124 247.015 115.999C243.508 115.157 239.98 115.428 236.435 116.071C230.832 117.086 225.19 119.036 219.5 119.018C209.194 118.986 199.757 112.22 194.419 103.358C194.221 103.041 194.036 102.718 193.857 102.394C193.777 102.26 193.702 102.119 193.628 101.984C188.461 92.4635 187.371 81.5177 187.988 70.6997" stroke="#EAEAEA" stroke-width="2.10336" stroke-linecap="round" stroke-linejoin="round"/>
<path d="M178.854 74.4853C179.078 74.1478 179.384 73.8717 179.742 73.6827C180.1 73.4937 180.5 73.3976 180.905 73.4034C181.31 73.4091 181.707 73.5163 182.06 73.7149C182.413 73.914 182.71 74.1981 182.925 74.5419" stroke="#EAEAEA" stroke-width="2.10336" stroke-linecap="round" stroke-linejoin="round"/>
<path d="M171.712 76.1232C171.407 75.8663 171.052 75.6737 170.671 75.5575C170.289 75.4418 169.888 75.4042 169.491 75.4482C169.095 75.4918 168.711 75.6159 168.364 75.8123C168.016 76.0087 167.713 76.2736 167.471 76.5909" stroke="#EAEAEA" stroke-width="2.10336" stroke-linecap="round" stroke-linejoin="round"/>
<path d="M171.644 71.288C170.66 70.7477 169.517 70.5713 168.416 70.7899C167.314 71.0085 166.325 71.6082 165.622 72.4833" stroke="#EAEAEA" stroke-width="2.10336" stroke-linecap="round" stroke-linejoin="round"/>
<path d="M176.293 80.8828C175.6 81.0752 174.995 81.5018 174.581 82.0897C174.379 82.3843 174.26 82.7286 174.239 83.0859C174.217 83.4427 174.294 83.7987 174.46 84.1156C174.641 84.4226 174.928 84.6525 175.268 84.7615C175.607 84.87 175.975 84.8493 176.3 84.7041" stroke="#EAEAEA" stroke-width="2.10336" stroke-linecap="round" stroke-linejoin="round"/>
<path d="M185.782 88.8569C185.902 89.5151 185.831 90.1939 185.578 90.8128C185.323 91.4312 184.897 91.9642 184.35 92.3482C183.802 92.7323 183.155 92.9508 182.487 92.9782C181.819 93.0055 181.156 92.8404 180.579 92.5027" stroke="#EAEAEA" stroke-width="2.10336" stroke-linecap="round" stroke-linejoin="round"/>
<path d="M236.41 116.042C236.417 116.048 236.424 116.06 236.437 116.066C246.51 126.363 254.197 136.849 260.033 150.011C265.881 163.193 268.361 178.154 265.203 192.217C262.044 206.28 252.805 219.257 239.699 225.267C235.306 227.211 230.67 228.552 225.918 229.255C221.405 229.999 216.8 230.368 212.241 230.688C211.289 230.756 210.317 230.814 209.337 230.853C204.269 231.034 199.023 230.564 195.43 227.165C193.905 225.702 192.789 223.866 192.189 221.84C190.819 217.479 191.314 212.239 191.991 207.549C192.166 206.152 192.448 204.77 192.835 203.417C193.244 201.862 194.091 200.457 195.274 199.369C198.121 196.923 202.339 197.479 206.088 197.497C212.703 197.465 219.139 195.343 224.476 191.435C227.206 189.486 229.617 187.126 231.624 184.439C233.593 181.834 235.117 178.924 236.137 175.823C240.225 163.264 235.341 148.326 224.622 140.609C222.843 139.332 220.647 138.195 218.544 138.82C216.442 139.445 214.459 141.58 216.29 143.836" stroke="#EAEAEA" stroke-width="2.10336" stroke-linecap="round" stroke-linejoin="round"/>
<path d="M154.644 102.706C136.003 105.37 118.127 111.914 102.173 121.917C91.4846 128.56 81.2656 137.35 77.322 149.304C72.2995 164.503 78.6312 181.299 87.9597 194.31C91.394 199.096 95.4699 203.762 100.961 205.89C103.458 206.843 106.162 207.117 108.799 206.685C111.605 206.228 114.204 204.945 115.943 202.791C116.214 202.459 116.462 202.109 116.686 201.743C119.901 196.434 117.416 189.518 113.688 184.48C113.559 184.307 113.424 184.131 113.289 183.956C109.341 178.879 104.17 174.504 102.021 168.448C99.6855 161.878 101.421 154.636 104.613 148.314C105.115 147.312 105.663 146.323 106.233 145.372C111.857 136.044 119.857 128.376 129.415 123.152C131.71 121.898 134.085 120.794 136.523 119.848C138.594 119.046 140.71 118.364 142.861 117.805C148.752 116.259 154.84 115.597 160.926 115.842C166.073 116.033 171.175 116.88 176.107 118.364C176.099 118.345 176.091 118.319 176.083 118.302C175.211 116.143 174.338 113.984 173.466 111.824C173.458 111.805 173.45 111.779 173.442 111.761" stroke="#EAEAEA" stroke-width="2.10336" stroke-linecap="round" stroke-linejoin="round"/>
<path d="M225.954 229.468C226.613 235.799 228.516 241.939 231.551 247.533C234.588 253.127 238.698 258.068 243.647 262.071C253.784 270.282 266.736 274.193 279.723 272.966C283.986 272.542 288.32 271.562 292.505 272.491C295.74 273.199 298.562 274.996 300.983 277.289C302.491 278.733 303.854 280.322 305.052 282.031C307.725 285.789 309.697 289.998 310.876 294.456C312.648 301.173 312.447 308.268 309.407 314.349C309.149 314.879 308.864 315.4 308.554 315.916C308.278 316.378 307.981 316.835 307.678 317.274C303.907 322.665 297.963 326.388 291.607 328.21C284.74 330.179 277.417 330.085 270.35 329.032C250.538 326.076 232.35 315.752 217.474 302.336C203.78 289.986 192.655 275.082 182.56 259.629C181.689 258.3 180.827 256.965 179.972 255.625" stroke="#EAEAEA" stroke-width="2.10336" stroke-linecap="round" stroke-linejoin="round"/>
<path d="M182.481 259.676C153.997 284.215 123.481 304.407 92.1335 325.155C85.7612 329.365 78.1659 333.768 70.9314 331.309C69.6816 330.881 68.5 330.273 67.425 329.505C63.9722 327.076 61.4641 323.194 59.3791 319.406C58.8287 318.415 58.295 317.391 57.7912 316.346C56.2206 313.092 54.9845 309.633 54.795 306.169C54.709 304.725 54.8316 303.277 55.1594 301.87C55.1965 301.694 55.2404 301.518 55.2903 301.342C56.9447 295.346 62.3651 291.293 67.4521 287.714C91.9614 270.439 116.471 253.167 140.98 235.898" stroke="#EAEAEA" stroke-width="2.10336" stroke-linecap="round" stroke-linejoin="round"/>
<path d="M231.571 184.391C231.461 181.871 231.214 179.358 230.832 176.865C229.944 171.15 228.336 165.571 226.047 160.26C223.977 155.444 221.389 150.868 218.329 146.612C217.662 145.681 216.971 144.766 216.255 143.864C215.865 143.365 215.469 142.872 215.06 142.381C212.792 139.645 210.317 137.086 207.659 134.728C203.766 131.258 199.51 128.219 194.964 125.665C194.556 125.429 194.143 125.2 193.729 124.977C190.786 123.396 187.738 122.018 184.607 120.855C182.64 120.129 180.643 119.488 178.614 118.933C177.772 118.705 176.933 118.49 176.081 118.295C176.074 118.29 176.074 118.29 176.068 118.29" stroke="#EAEAEA" stroke-width="2.10336" stroke-linecap="round" stroke-linejoin="round"/>
<path d="M209.386 230.824C209.367 230.832 209.356 230.846 209.337 230.854C193.087 240.884 172.015 244.545 153.479 239.957C149.23 238.9 145.089 237.447 141.111 235.618C127.654 229.474 116.385 219.381 108.799 206.681C108.772 206.643 108.748 206.605 108.726 206.565" stroke="#EAEAEA" stroke-width="2.10336" stroke-linecap="round" stroke-linejoin="round"/>
<path d="M224.461 191.412C224.278 189.415 224.044 187.46 223.757 185.549C222.956 180.044 221.636 174.627 219.817 169.369C218.085 164.364 215.8 159.567 213.004 155.069C210.234 150.615 206.922 146.52 203.146 142.879C199.301 139.188 195.011 135.989 190.377 133.356C186.883 131.359 183.228 129.658 179.45 128.271C177.518 127.557 175.55 126.942 173.554 126.43C167.402 124.856 161.055 124.181 154.71 124.427C148.299 124.649 141.948 125.75 135.835 127.698C130.618 129.339 125.616 131.596 120.934 134.424C114.773 138.109 109.29 142.823 104.724 148.363" stroke="#EAEAEA" stroke-width="2.10336" stroke-linecap="round" stroke-linejoin="round"/>
<path d="M178.308 213.191C174.912 212.094 171.336 211.656 167.775 211.9C166.18 212.013 164.321 212.465 163.723 213.949C163.554 214.481 163.532 215.05 163.66 215.594C163.789 216.138 164.062 216.637 164.451 217.039C165.239 217.834 166.195 218.441 167.249 218.817C175.107 222.14 183.542 222.081 192.068 221.883" stroke="#EAEAEA" stroke-width="2.10336" stroke-linecap="round" stroke-linejoin="round"/>
<path d="M178.308 213.19C179.249 213.55 180.184 213.904 181.125 214.265C180.205 213.858 179.265 213.499 178.308 213.19Z" stroke="#EAEAEA" stroke-width="2.10336" stroke-linecap="round" stroke-linejoin="round"/>
<path d="M178.988 206.003C176.563 205.259 174.095 204.666 171.596 204.228C169.583 203.876 167.451 203.635 165.535 204.354C164.734 204.653 163.913 205.234 163.813 206.085C163.67 207.348 165.087 208.156 166.272 208.605C170.279 210.128 174.291 211.656 178.308 213.187" stroke="#EAEAEA" stroke-width="2.10336" stroke-linecap="round" stroke-linejoin="round"/>
<path d="M178.988 206.007L184.011 207.776C182.361 207.115 180.687 206.525 178.988 206.007Z" stroke="#EAEAEA" stroke-width="2.10336" stroke-linecap="round" stroke-linejoin="round"/>
<path d="M192.632 203.361C188.974 200.603 188.34 195.303 185.318 191.857C184.969 191.412 184.511 191.065 183.988 190.851C183.724 190.747 183.435 190.724 183.159 190.787C182.882 190.85 182.631 190.995 182.438 191.202C182.156 191.672 182.072 192.234 182.204 192.765C182.725 197.056 184.169 201.183 186.436 204.862C183.599 201.337 179.737 198.779 175.385 197.54C173.145 196.912 170.713 196.663 168.52 197.435C167.265 197.879 165.974 198.989 166.23 200.303C166.463 201.472 167.753 202.054 168.875 202.444C172.244 203.635 175.615 204.823 178.987 206.009" stroke="#EAEAEA" stroke-width="2.10336" stroke-linecap="round" stroke-linejoin="round"/>
<path d="M125.633 190.188C129.639 190.225 133.613 190.913 137.398 192.225C138.599 192.641 139.949 193.326 140.124 194.583C140.152 195.063 140.037 195.54 139.795 195.955C139.553 196.37 139.194 196.705 138.763 196.918C137.894 197.327 136.944 197.535 135.983 197.526C131.545 197.76 127.112 197.234 122.704 196.706C128.097 197.39 133.293 199.172 137.971 201.94C139.263 202.707 140.681 203.936 140.369 205.404C140.174 206.332 139.318 206.98 138.438 207.317C136.189 208.181 133.67 207.565 131.341 206.937C126.209 205.56 121.076 204.178 115.943 202.792L115.728 202.732" stroke="#EAEAEA" stroke-width="2.10336" stroke-linecap="round" stroke-linejoin="round"/>
<path d="M125.626 190.182C124.703 190.209 123.779 190.232 122.855 190.26C123.776 190.2 124.7 190.172 125.626 190.182Z" stroke="#EAEAEA" stroke-width="2.10336" stroke-linecap="round" stroke-linejoin="round"/>
<path d="M125.624 190.184L125.632 190.184" stroke="#EAEAEA" stroke-width="2.10336" stroke-linecap="round" stroke-linejoin="round"/>
<path d="M113.783 184.405C114.711 184.357 120.589 176.629 122.796 175.486C123.33 175.215 124.008 174.982 124.506 175.313C125.14 175.742 124.992 176.705 124.743 177.427C123.843 180.027 122.562 182.479 120.942 184.704C123.364 183.706 125.982 183.276 128.595 183.446C131.208 183.615 133.748 184.38 136.021 185.682C136.654 186.007 137.203 186.475 137.622 187.05C137.825 187.341 137.942 187.683 137.959 188.038C137.975 188.392 137.891 188.744 137.716 189.053C137.219 189.789 136.192 189.888 135.301 189.914C132.077 190.001 128.861 190.094 125.631 190.182" stroke="#EAEAEA" stroke-width="2.10336" stroke-linecap="round" stroke-linejoin="round"/>
<path d="M310.912 294.448C312.843 294.908 314.726 295.546 316.539 296.355C321.457 298.536 325.802 301.828 329.233 305.973C331.596 308.81 333.472 312.019 334.787 315.469C335.288 316.809 335.61 318.552 334.505 319.462C333.666 320.154 332.437 319.97 331.374 319.747C329.245 319.295 327.123 318.826 325.007 318.339C322.264 317.705 319.53 317.039 316.806 316.341C314.337 315.704 311.876 315.045 309.424 314.361" stroke="#EAEAEA" stroke-width="2.10336" stroke-linecap="round" stroke-linejoin="round"/>
<path d="M327.414 324.571C326.612 322.496 325.81 320.418 325.009 318.338C324.23 316.305 323.446 314.271 322.659 312.235C320.621 306.943 318.581 301.651 316.539 296.356C316.193 295.445 315.84 294.528 315.487 293.617" stroke="#EAEAEA" stroke-width="2.10336" stroke-linecap="round" stroke-linejoin="round"/>
<path d="M315.173 317.294C315.723 316.989 316.266 316.672 316.808 316.34C318.847 315.102 320.801 313.731 322.659 312.235C325.024 310.338 327.224 308.243 329.234 305.973C330.178 304.915 331.077 303.818 331.931 302.684" stroke="#EAEAEA" stroke-width="2.10336" stroke-linecap="round" stroke-linejoin="round"/>
<path d="M67.511 329.382C67.4862 329.427 67.4575 329.47 67.4254 329.51C64.8476 333.664 59.8738 336.009 54.9733 336.12C50.0276 336.228 45.1965 334.297 41.1257 331.481C37.0549 328.664 33.6444 325.002 30.3901 321.281C27.9634 318.516 25.5749 315.659 23.9376 312.372C22.3003 309.086 21.4397 305.28 22.2406 301.689C23.0415 298.097 25.7222 294.827 29.2925 293.953C33.7958 292.851 38.2485 295.565 42.1249 298.095C46.0013 300.625 50.5916 303.212 55.0179 301.843" stroke="#EAEAEA" stroke-width="2.10336" stroke-linecap="round" stroke-linejoin="round"/>
<path d="M57.4822 316.393C56.2188 316.719 54.918 316.879 53.6126 316.869C51.163 316.849 48.74 316.357 46.4763 315.42C45.4367 315.002 44.4276 314.512 43.4566 313.953C41.1901 312.619 39.0739 311.046 37.1439 309.259C36.3099 308.584 35.6107 307.757 35.0818 306.823C34.8247 306.351 34.6875 305.824 34.6819 305.287C34.6768 304.749 34.8033 304.219 35.0503 303.743C35.9209 302.308 37.9504 302.16 39.6 302.497C41.1382 302.851 42.6353 303.363 44.0676 304.024C45.0323 304.44 45.9986 304.875 46.9799 305.262C47.9258 305.647 48.9001 305.956 49.8939 306.188C51.4649 306.59 53.1121 306.588 54.6818 306.182" stroke="#EAEAEA" stroke-width="2.10336" stroke-linecap="round" stroke-linejoin="round"/>
<path d="M55.327 319.181C54.7553 318.409 54.1846 317.643 53.6129 316.871C51.628 314.205 49.6468 311.539 47.6683 308.873L44.0696 304.024C43.5841 303.374 43.1055 302.725 42.6204 302.075" stroke="#EAEAEA" stroke-width="2.10336" stroke-linecap="round" stroke-linejoin="round"/>
<path d="M51.52 304.23C50.9759 304.886 50.4353 305.535 49.893 306.191C49.1527 307.086 48.4059 307.981 47.6656 308.875C46.2609 310.569 44.8575 312.262 43.4561 313.956C42.8278 314.708 42.1999 315.465 41.578 316.217" stroke="#EAEAEA" stroke-width="2.10336" stroke-linecap="round" stroke-linejoin="round"/>
<path d="M194.379 103.385C197.808 110.061 197.825 118.231 193.911 124.635" stroke="#EAEAEA" stroke-width="2.10336" stroke-linecap="round" stroke-linejoin="round"/>
<path d="M193.775 102.442C195.008 105.461 194.661 109.088 192.601 111.619C191.765 112.617 190.73 113.43 189.561 114.003C188.392 114.577 187.116 114.899 185.815 114.948C185.583 114.963 185.351 114.966 185.12 114.957C184.696 114.938 184.274 114.89 183.857 114.813C180.65 114.216 177.378 111.326 176.373 108.226" stroke="#EAEAEA" stroke-width="2.10336" stroke-linecap="round" stroke-linejoin="round"/>
<path d="M184.665 115.095C183.147 115.765 182.886 118.214 184.227 119.196C184.487 119.381 184.785 119.505 185.099 119.555C186.372 119.756 187.852 118.854 187.997 117.521C188.127 116.266 187.017 115.134 185.815 114.947C185.584 114.912 185.35 114.915 185.12 114.956C184.963 114.983 184.81 115.03 184.665 115.094" stroke="#EAEAEA" stroke-width="2.10336" stroke-linecap="round" stroke-linejoin="round"/>
<path d="M178.531 119.246L173.603 126.241" stroke="#EAEAEA" stroke-width="2.10336" stroke-linecap="round" stroke-linejoin="round"/>
<path d="M194.931 125.727L190.546 133.055" stroke="#EAEAEA" stroke-width="2.10336" stroke-linecap="round" stroke-linejoin="round"/>
<path d="M160.922 115.891L154.705 124.271" stroke="#EAEAEA" stroke-width="2.10336" stroke-linecap="round" stroke-linejoin="round"/>
<path d="M207.635 134.754L203.147 142.876" stroke="#EAEAEA" stroke-width="2.10336" stroke-linecap="round" stroke-linejoin="round"/>
<path d="M218.097 146.781L213.223 154.934" stroke="#EAEAEA" stroke-width="2.10336" stroke-linecap="round" stroke-linejoin="round"/>
<path d="M225.923 160.32L220.022 169.307" stroke="#EAEAEA" stroke-width="2.10336" stroke-linecap="round" stroke-linejoin="round"/>
<path d="M230.831 176.871L223.96 185.525" stroke="#EAEAEA" stroke-width="2.10336" stroke-linecap="round" stroke-linejoin="round"/>
<path d="M142.859 117.809L135.819 127.638" stroke="#EAEAEA" stroke-width="2.10336" stroke-linecap="round" stroke-linejoin="round"/>
<path d="M129.419 123.141L129.413 123.147L120.876 134.327" stroke="#EAEAEA" stroke-width="2.10336" stroke-linecap="round" stroke-linejoin="round"/>
<path d="M247.147 288.916C247.623 287.189 247.841 285.4 247.794 283.609" stroke="#EAEAEA" stroke-width="2.10336" stroke-linecap="round" stroke-linejoin="round"/>
<path d="M244.342 304.764C246.693 304.851 249.01 305.347 251.189 306.231" stroke="#EAEAEA" stroke-width="2.10336" stroke-linecap="round" stroke-linejoin="round"/>
<path d="M279.346 297.494C279.52 295.681 279.694 293.868 279.868 292.055" stroke="#EAEAEA" stroke-width="2.10336" stroke-linecap="round" stroke-linejoin="round"/>
<path d="M273.578 307.867C275.039 309.084 276.5 310.301 277.961 311.519" stroke="#EAEAEA" stroke-width="2.10336" stroke-linecap="round" stroke-linejoin="round"/>
<path d="M260.681 320.544C261.862 319.466 262.893 318.234 263.749 316.883" stroke="#EAEAEA" stroke-width="2.10336" stroke-linecap="round" stroke-linejoin="round"/>
<path d="M226.083 294.397C226.285 292.039 226.486 289.682 226.688 287.324" stroke="#EAEAEA" stroke-width="2.10336" stroke-linecap="round" stroke-linejoin="round"/>
<path d="M291.937 285.086L297.939 289.551" stroke="#EAEAEA" stroke-width="2.10336" stroke-linecap="round" stroke-linejoin="round"/>
<path d="M67.8086 303.698C67.8479 301.366 67.8863 299.035 67.9248 296.703" stroke="#EAEAEA" stroke-width="2.10336" stroke-linecap="round" stroke-linejoin="round"/>
<path d="M80.1149 314.575C82.8625 314.504 85.6101 314.432 88.3581 314.361" stroke="#EAEAEA" stroke-width="2.10336" stroke-linecap="round" stroke-linejoin="round"/>
<path d="M84.4469 306.437C84.3046 303.736 84.1623 301.034 84.0195 298.333C84.0145 298.27 84.0094 298.204 84.0008 298.141" stroke="#EAEAEA" stroke-width="2.10336" stroke-linecap="round" stroke-linejoin="round"/>
<path d="M87.6601 284.554L95.665 283.203" stroke="#EAEAEA" stroke-width="2.10336" stroke-linecap="round" stroke-linejoin="round"/>
<path d="M108.249 305.925C108.284 303.586 107.969 301.254 107.316 299.007" stroke="#EAEAEA" stroke-width="2.10336" stroke-linecap="round" stroke-linejoin="round"/>
<path d="M111.465 289.236C114.136 288.842 116.806 288.45 119.478 288.059" stroke="#EAEAEA" stroke-width="2.10336" stroke-linecap="round" stroke-linejoin="round"/>
<path d="M134.278 30.9072L134.422 36.7236L129.711 40.1395L135.287 41.8008L137.081 47.3366L140.384 42.5461L146.203 42.5514L142.667 37.9298L144.471 32.3975L138.983 34.3312L134.278 30.9072Z" fill="#FF6900" stroke="#FF6900" stroke-width="2.10336" stroke-linecap="round" stroke-linejoin="round"/>
<path d="M204.316 10.0342L201.411 13.0869L197.248 12.424L199.253 16.1312L197.336 19.8847L201.482 19.1229L204.459 22.1063L205.016 17.9281L208.774 16.0182L204.972 14.1977L204.316 10.0342Z" fill="#EAEAEA"/>
<path d="M223.09 51.3416C223.972 50.1454 224.854 48.9497 225.736 47.7539" stroke="#EAEAEA" stroke-width="2.10336" stroke-linecap="round" stroke-linejoin="round"/>
<path d="M226.913 51.2622C225.599 50.0274 224.285 48.7926 222.97 47.5588" stroke="#EAEAEA" stroke-width="2.10336" stroke-linecap="round" stroke-linejoin="round"/>
<path d="M147.909 20.755C148.37 18.921 149.148 17.1825 150.208 15.6172" stroke="#EAEAEA" stroke-width="2.10336" stroke-linecap="round" stroke-linejoin="round"/>
<path d="M151.939 19.9325L146.695 16.5413" stroke="#EAEAEA" stroke-width="2.10336" stroke-linecap="round" stroke-linejoin="round"/>
<path d="M303.75 76.1484C301.487 77.0065 299.439 78.3498 297.75 80.0842" stroke="#FF6900" stroke-width="2.10336" stroke-linecap="round" stroke-linejoin="round"/>
<path d="M303.189 80.3809C301.484 78.5381 299.779 76.6944 298.074 74.8501" stroke="#FF6900" stroke-width="2.10336" stroke-linecap="round" stroke-linejoin="round"/>
<path d="M65.2841 205.87L61.6549 209.683L56.4564 208.855L58.9609 213.484L56.5672 218.172L61.7444 217.221L65.4638 220.947L66.1583 215.729L70.8512 213.344L66.1031 211.069L65.2841 205.87Z" fill="#EAEAEA"/>
<path d="M53.1213 189.718L53.1914 192.568L50.8845 194.241L53.6155 195.054L54.4941 197.765L56.1115 195.419L58.9616 195.422L57.2306 193.158L58.1132 190.449L55.4258 191.396L53.1213 189.718Z" stroke="#FF6900" stroke-width="2.10336" stroke-linecap="round" stroke-linejoin="round"/>
<path d="M345.705 223.693C346.587 222.497 347.469 221.301 348.352 220.105" stroke="#EAEAEA" stroke-width="2.10336" stroke-linecap="round" stroke-linejoin="round"/>
<path d="M349.527 223.618L345.584 219.914" stroke="#EAEAEA" stroke-width="2.10336" stroke-linecap="round" stroke-linejoin="round"/>
<path d="M138.012 319.658C140.592 317.723 142.687 315.215 144.132 312.332" stroke="#EAEAEA" stroke-width="2.10336" stroke-linecap="round" stroke-linejoin="round"/>
<path d="M146.757 321.041C143.759 318.02 140.761 315 137.763 311.979" stroke="#EAEAEA" stroke-width="2.10336" stroke-linecap="round" stroke-linejoin="round"/>
<path d="M192.204 294.196L184.473 290.157" stroke="#EAEAEA" stroke-width="2.10336" stroke-linecap="round" stroke-linejoin="round"/>
<path d="M191.806 287.43C189.741 290.117 187.676 292.803 185.611 295.49" stroke="#EAEAEA" stroke-width="2.10336" stroke-linecap="round" stroke-linejoin="round"/>
</svg>
