<svg width="155" height="159" viewBox="0 0 155 159" fill="none" xmlns="http://www.w3.org/2000/svg">
<path fill-rule="evenodd" clip-rule="evenodd" d="M145.302 19.9638C145.337 19.4005 145.381 18.8258 145.433 18.2437C145.455 17.7181 145.898 17.3099 146.42 17.3288C146.946 17.3452 147.359 17.7787 147.35 18.3043C147.364 18.811 147.37 19.3021 147.37 19.7823C147.468 23.6542 147.922 26.8832 148.898 29.201C149.744 31.2087 151.062 32.3577 153.138 32.2292C153.964 32.2101 154.7 32.7511 154.93 33.545C155.157 34.3392 154.82 35.1861 154.112 35.6095C151.489 37.2769 149.785 38.8573 148.784 41.2695C148.086 42.9558 147.722 45.0243 147.605 47.754C147.597 48.2946 147.583 48.8505 147.561 49.4253C147.561 49.4526 147.558 49.4778 147.558 49.5043C147.493 50.6915 146.486 51.6065 145.299 51.565C144.109 51.5196 143.176 50.529 143.198 49.3417C143.226 48.4117 143.272 47.5421 143.341 46.7216C143.409 44.4229 143.275 42.4794 142.791 40.6532C142.14 38.1881 140.879 35.9387 138.628 33.3147C138.152 32.8003 138.045 32.044 138.357 31.4165C138.669 30.7888 139.336 30.4181 140.034 30.4861C141.601 30.6979 142.728 29.7605 143.579 27.8474C144.407 25.9873 144.984 23.3743 145.302 19.9638ZM145.977 37.7798C146.787 36.5776 147.783 35.5453 149 34.5926C148.198 34.0178 147.528 33.254 146.984 32.3013C146.543 31.5374 146.193 30.6415 145.92 29.6281C145.761 30.0099 145.589 30.3616 145.406 30.6868C144.757 31.8249 143.967 32.6337 143.048 33.1519C144.336 34.7171 145.285 36.2259 145.977 37.7798Z" fill="#343434" fill-opacity="0.9"/>
<path fill-rule="evenodd" clip-rule="evenodd" d="M82.9858 15.1873C83.0186 14.7869 83.0572 14.379 83.1035 13.9628C83.1268 13.4397 83.5668 13.0315 84.0918 13.0473C84.6149 13.0637 85.0298 13.4984 85.0202 14.0215C85.0358 14.3628 85.0453 14.6966 85.053 15.0221C85.1727 17.7168 85.5355 19.9525 86.2458 21.5559C86.7728 22.7434 87.5738 23.4103 88.811 23.3089C89.6371 23.2898 90.3725 23.8321 90.6003 24.6244C90.83 25.4197 90.4941 26.268 89.7838 26.6897C88.066 27.8129 86.9619 28.8695 86.3134 30.4702C85.8405 31.6337 85.6127 33.0638 85.5491 34.9581C85.5452 35.2836 85.5395 35.6199 85.5296 35.964C85.5296 35.9722 85.5296 35.983 85.5296 35.9934H85.5269C85.5269 36.0207 85.5269 36.0466 85.5241 36.0734C85.4585 37.2606 84.4529 38.176 83.2639 38.1306C82.0749 38.0853 81.1407 37.0981 81.1639 35.9106C81.1666 35.8833 81.1666 35.8573 81.1677 35.8305C81.1929 35.1424 81.2314 34.4967 81.2855 33.891C81.3337 32.4155 81.2546 31.1508 80.9516 29.9554C80.5289 28.2825 79.7124 26.7457 78.2126 24.9474C77.7397 24.4322 77.6317 23.6775 77.9444 23.0503C78.257 22.4233 78.9229 22.0524 79.6217 22.1191C80.5288 22.2579 81.1735 21.7027 81.687 20.6007C82.2834 19.3255 82.7196 17.5352 82.984 15.1873H82.9858ZM83.8563 26.663C84.2172 26.2333 84.6187 25.8359 85.0646 25.4595C84.6882 25.0914 84.362 24.6539 84.0841 24.1469C83.9181 23.8455 83.7694 23.5171 83.6401 23.1621C83.2946 23.7492 82.8951 24.2136 82.4434 24.571C83.0032 25.2729 83.4702 25.9639 83.8563 26.663Z" fill="#343434" fill-opacity="0.9"/>
<path fill-rule="evenodd" clip-rule="evenodd" d="M5.21692 47.5193C5.24973 47.1189 5.28832 46.7111 5.33464 46.2948C5.35781 45.7717 5.79789 45.3632 6.3229 45.3794C6.84597 45.3958 7.26096 45.8304 7.25131 46.3533C7.26676 46.6949 7.2764 47.0284 7.28413 47.3539C7.4038 50.0489 7.76667 52.2845 8.47697 53.888C9.00391 55.0752 9.80492 55.7423 11.0422 55.6409C11.8683 55.6218 12.6037 56.1642 12.8314 56.9565C13.0611 57.7515 12.7253 58.6 12.015 59.0214C10.2971 60.1447 9.19307 61.2013 8.54453 62.8023C8.07164 63.9657 7.84388 65.3956 7.78018 67.2901C7.77633 67.6156 7.77052 67.952 7.76087 68.296C7.76087 68.3042 7.76087 68.315 7.76087 68.3254H7.75895C7.75895 68.3527 7.75896 68.3787 7.75704 68.4055C7.69142 69.5927 6.6858 70.5081 5.49681 70.4627C4.30783 70.4173 3.37362 69.4299 3.39678 68.2427C3.3987 68.2153 3.3987 68.1894 3.40064 68.1626C3.42572 67.4741 3.46434 66.8287 3.51838 66.2231C3.56664 64.7475 3.4875 63.4826 3.18446 62.2874C2.76175 60.6146 1.94528 59.0775 0.44554 57.2791C-0.0273518 56.7643 -0.135426 56.0093 0.177262 55.3823C0.48995 54.7554 1.15586 54.3844 1.85458 54.4511C2.76175 54.59 3.40642 54.0347 3.91985 52.9328C4.51627 51.6573 4.95249 49.8673 5.21692 47.5193ZM6.08743 58.995C6.44837 58.5654 6.84984 58.1676 7.29571 57.7916C6.91933 57.4235 6.59313 56.9857 6.31519 56.479C6.14919 56.1773 6.00055 55.8492 5.87123 55.4942C5.52573 56.0812 5.12619 56.5456 4.67453 56.9031C5.23428 57.6047 5.70139 58.2959 6.08743 58.995Z" fill="#343434" fill-opacity="0.9"/>
<path fill-rule="evenodd" clip-rule="evenodd" d="M59.0116 2.14041C59.0445 1.7403 59.0831 1.33213 59.1294 0.915896C59.1527 0.392799 59.5926 -0.015405 60.1176 0.000446441C60.6407 0.0168445 61.0557 0.451516 61.046 0.974613C61.0614 1.31597 61.0712 1.6497 61.0789 1.9752C61.1985 4.66995 61.5614 6.90587 62.2717 8.50933C62.7987 9.69682 63.5997 10.3637 64.8369 10.2623C65.663 10.2432 66.3984 10.7853 66.6262 11.5775C66.8559 12.3729 66.52 13.2211 65.8097 13.6428C64.0918 14.766 62.9878 15.8226 62.3393 17.4234C61.8664 18.5868 61.6386 20.0169 61.5749 21.9112C61.5711 22.2367 61.5653 22.573 61.5555 22.9174C61.5555 22.9256 61.5555 22.9364 61.5555 22.9465H61.5528C61.5528 22.9738 61.5528 22.9998 61.55 23.0265C61.4844 24.2138 60.4788 25.1291 59.2898 25.0838C58.1008 25.0384 57.1666 24.0512 57.1898 22.8637C57.1925 22.8364 57.1925 22.8105 57.1936 22.7837C57.2188 22.0955 57.2573 21.4498 57.3114 20.8441C57.3596 19.3686 57.2804 18.1039 56.9774 16.9085C56.5547 15.2356 55.7383 13.6988 54.2385 11.9005C53.7656 11.3853 53.6575 10.6306 53.9702 10.0034C54.2829 9.37645 54.9488 9.00552 55.6475 9.07221C56.5547 9.21104 57.1994 8.65606 57.7128 7.55411C58.3092 6.27889 58.7455 4.48833 59.0099 2.14041H59.0116ZM59.8822 13.6161C60.2431 13.1865 60.6446 12.789 61.0905 12.4127C60.7141 12.0445 60.3878 11.607 60.1099 11.1001C59.9439 10.7986 59.7953 10.4705 59.666 10.1155C59.3205 10.7025 58.9209 11.1667 58.4693 11.5242C59.029 12.226 59.4961 12.917 59.8822 13.6161Z" fill="#343434" fill-opacity="0.9"/>
<path fill-rule="evenodd" clip-rule="evenodd" d="M20.0878 121.765C19.8296 122.229 19.2448 122.393 18.7831 122.147C18.3214 121.874 18.1562 121.3 18.4144 120.835C18.4144 120.835 21.4349 115.287 23.954 110.177C25.3927 107.252 26.6701 104.492 27.0858 103.016C27.3183 102.196 27.1952 101.076 26.9436 99.8187C26.4239 97.2223 25.2697 94.0792 24.4245 91.2369C23.6914 88.7226 23.2183 86.3995 23.4125 84.7597C24.9141 72.0512 26.8479 59.5889 27.0913 47.5363C27.2582 39.228 26.6154 31.1383 24.3889 23.2945C23.8774 21.4908 24.6324 19.687 26.5388 18.4298C28.4616 17.1727 31.7849 16.4892 35.4829 17.3911C39.9139 18.4843 44.9685 21.8459 48.3739 29.2797C49.8454 32.5046 50.5511 36.0303 50.8301 39.6378C51.2075 44.5299 50.7836 49.5314 50.5757 53.8223C50.4088 57.2385 50.3049 60.1626 51.1063 62.0757C51.3388 62.6496 51.9351 62.7318 52.679 62.7045C53.6883 62.6499 54.8973 62.3491 56.2922 61.7752C59.29 60.5727 63.0071 58.3315 67.2439 55.1066C69.0711 53.7127 91.7513 35.5382 109.653 23.1304C118.477 17.0085 126.207 12.3351 129.828 11.4879C133.203 10.7227 137.101 13.2917 136.721 18.7304C136.505 21.846 134.77 26.0548 130.145 30.9742C128.488 32.7506 123.233 38.1348 117.454 44.0654C108.523 53.1936 98.3431 63.5516 98.3431 63.5516C97.9766 63.9343 97.3694 63.9342 96.9892 63.5789C96.6063 63.2236 96.5953 62.595 96.9618 62.2124L128.061 29.0611C131.092 25.7268 132.708 22.8024 133.345 20.3974C134.377 16.5165 132.651 14.1389 130.575 14.6309C127.161 15.4781 120.003 20.179 111.737 26.0823C94.0707 38.7087 71.6558 57.1017 69.8533 58.4956C64.0821 62.9504 59.1478 65.6561 55.5428 66.6127C51.0735 67.8152 48.2097 66.5307 47.061 63.743C46.2677 61.8299 46.0462 59.1515 46.1255 55.9812C46.2459 51.3624 46.957 45.5957 46.5604 39.9384C46.3443 36.8501 45.7973 33.7893 44.5555 31.0017C42.4412 26.2736 39.5583 23.4857 36.6727 22.0919C33.7624 20.6707 30.9069 20.6708 29.1427 21.4634C28.8227 21.6 28.5437 21.7641 28.3358 21.9827C28.2319 22.0647 28.0897 22.1466 28.1252 22.2833C30.3243 30.4823 30.9042 38.9819 30.5787 47.6455C30.1219 59.78 27.9146 72.2972 26.1559 85.0877C25.9644 86.4815 26.402 88.4219 26.9737 90.499C27.7751 93.4506 28.8746 96.7029 29.3478 99.3812C29.6487 101.076 29.6925 102.579 29.3506 103.672C28.9731 104.902 28.0103 107.006 26.826 109.357C24.0552 114.85 20.0878 121.765 20.0878 121.765Z" fill="#343434" fill-opacity="0.9"/>
<path fill-rule="evenodd" clip-rule="evenodd" d="M106.56 85.5791C106.168 85.9344 105.561 85.9072 105.206 85.4972C104.85 85.1146 104.877 84.5135 105.271 84.1582C107.107 82.1358 108.461 80.0311 109.533 77.9267C110.307 76.3962 110.862 74.866 111.292 73.3628C111.669 72.051 111.896 70.7391 112.044 69.4819C112.202 68.1427 112.262 66.8308 112.17 65.601C112.003 63.3326 111.456 61.2282 110.381 59.5064C109.224 57.6753 107.632 56.1722 105.496 55.4069C104.984 55.2429 104.681 54.7237 104.82 54.2318C104.96 53.7125 105.487 53.4119 105.996 53.5485C109.462 54.1771 112.194 56.2267 114.073 59.1237C114.847 60.2989 115.433 61.6381 115.851 63.0866C116.395 64.9723 116.625 67.0495 116.466 69.2086C116.387 70.2471 116.196 71.3129 115.909 72.3788C115.512 73.8819 114.951 75.3852 114.166 76.861C112.49 80.004 109.976 82.9828 106.56 85.5791Z" fill="#343434" fill-opacity="0.9"/>
<path fill-rule="evenodd" clip-rule="evenodd" d="M114.905 101.238C114.473 101.539 113.874 101.429 113.57 101.019C113.264 100.582 113.37 99.9808 113.802 99.6802C115.569 98.1497 116.855 96.1818 117.867 94.05C118.526 92.6835 118.999 91.2078 119.374 89.7319C119.689 88.5021 119.88 87.245 120.017 86.0152C120.156 84.7307 120.219 83.5008 120.156 82.3256C119.932 77.9801 118.056 74.3998 113.488 74.4271C112.96 74.4818 112.495 74.0991 112.449 73.5525C112.402 73.0332 112.793 72.5687 113.321 72.514C117.864 71.7214 121.001 73.9079 122.859 77.3515C123.573 78.6633 124.038 80.221 124.287 81.8882C124.505 83.364 124.541 84.9219 124.355 86.5071C124.18 87.9829 123.811 89.4861 123.28 90.9346C122.656 92.629 121.833 94.2689 120.788 95.7721C119.218 98.0131 117.257 99.8989 114.905 101.238Z" fill="#343434" fill-opacity="0.9"/>
<path fill-rule="evenodd" clip-rule="evenodd" d="M57.8568 155.081C58.2042 154.917 58.888 154.616 59.4077 154.288C62.523 152.293 67.1237 148.112 72.2658 144.367C74.7521 142.591 77.3697 140.896 79.99 139.585C84.1694 137.535 88.2585 135.376 92.189 133.217C98.5921 129.664 104.552 126.029 109.653 122.367C117.057 117.037 122.67 111.681 125.08 106.515C126.587 103.29 126.89 100.065 126.373 97.3322C125.714 93.8339 123.772 91.101 121.316 90.1991C120.813 90.0352 120.545 89.4886 120.717 88.9693C120.887 88.4774 121.431 88.204 121.931 88.368C125.02 89.3519 127.695 92.5495 128.698 96.8403C129.44 100.038 129.243 103.782 127.634 107.636C125.266 113.266 119.582 119.333 111.841 125.291C106.743 129.227 100.753 133.135 94.265 136.879C90.3126 139.175 86.1661 141.361 81.9429 143.493C77.4764 145.679 73.0508 149.041 69.2106 151.992C65.6056 154.78 62.4848 157.212 60.3267 158.278C57.9279 159.453 56.1774 159.098 55.2529 157.923C51.8066 153.55 47.4357 148.931 43.0184 144.504C34.8155 136.278 26.4349 128.817 23.1773 125.318C22.808 124.936 22.819 124.334 23.1964 123.952C23.5766 123.596 24.1838 123.596 24.5531 123.979C27.9584 127.341 36.6837 134.365 45.2038 142.236C49.7524 146.417 54.2299 150.872 57.8568 155.081Z" fill="#343434" fill-opacity="0.9"/>
</svg>
