<svg width="209" height="150" viewBox="0 0 209 150" fill="none" xmlns="http://www.w3.org/2000/svg">
<g clip-path="url(#clip0_387_718)">
<path fill-rule="evenodd" clip-rule="evenodd" d="M164.615 19.5592C164.674 22.2269 164.372 29.8399 163.954 39.3071C163.23 55.6715 161.985 77.3715 160.713 88.6607C160.506 90.5151 160.538 92.5321 160.395 93.8009C157.486 93.313 149.773 91.7189 139.711 89.7018C126.812 87.0992 110.179 83.7157 94.7229 80.5924C74.7003 76.5257 56.6596 72.8818 51.3174 71.7756L55.8552 5.5373C55.9038 4.88663 55.4368 4.33362 54.8108 4.30109C54.1848 4.23602 53.6366 4.72409 53.5879 5.34223L47.4576 73.1748C47.383 74.1183 48.0188 74.964 48.9399 75.1592C48.9399 75.1592 94.3661 85.2771 127.454 92.3369C146.095 96.306 160.905 99.2341 161.849 99.169C162.449 99.1365 163.114 98.9414 163.717 98.3232C164.041 97.9979 164.557 97.1846 164.885 95.7857C165.459 93.3782 166.056 88.0752 166.578 81.3082C167.557 68.6526 168.355 50.6613 168.761 37.1273C169.079 26.5214 169.082 18.5506 168.852 17.6071C168.748 17.1842 168.514 16.6313 167.885 16.1759C167.509 15.8831 166.643 15.4926 165.293 15.1347C161.936 14.2238 154.68 12.9226 145.42 11.5236C113.448 6.64357 57.3797 0.00658765 57.3797 0.00658765C56.7569 -0.0584796 56.1893 0.36433 56.1082 1.015C56.0271 1.63314 56.4682 2.18634 57.091 2.28394C57.091 2.28394 84.5543 6.12278 111.95 10.2871C131.92 13.3452 151.849 16.5335 161.012 18.5832C162.407 18.9085 163.804 19.2989 164.615 19.5592ZM160.305 94.4192C160.191 94.9398 160.009 95.1999 159.698 95.1023C159.263 94.9396 159.935 94.5819 160.305 94.4192Z" fill="#343434" fill-opacity="0.9"/>
<path fill-rule="evenodd" clip-rule="evenodd" d="M53.6239 32.3421C53.4131 31.724 52.7611 31.4311 52.1708 31.6263C51.5805 31.8541 51.2723 32.5047 51.4831 33.0903C51.4831 33.0903 52.9817 39.1739 55.2035 46.8844C55.7095 48.6412 56.2739 50.4632 56.8772 52.3176C57.26 53.5213 57.6524 54.7253 58.0936 55.929C59.2223 58.9546 60.4679 61.9477 61.642 64.7131C64.7688 72.0982 67.4448 77.7589 67.4448 77.7589C67.6556 78.3445 68.3075 78.6697 68.8979 78.442C69.4882 78.2468 69.7963 77.5963 69.5855 77.0107C69.5855 77.0107 68.0707 70.9268 65.8132 63.2163C64.9667 60.3534 64.0325 57.2302 62.9751 54.1721C62.5632 52.9683 62.0994 51.797 61.642 50.6258C60.9284 48.8039 60.2051 47.0148 59.4818 45.3556C56.316 37.9704 53.6239 32.3421 53.6239 32.3421Z" fill="#343434" fill-opacity="0.9"/>
<path fill-rule="evenodd" clip-rule="evenodd" d="M76.1114 3.06538C75.8682 2.47977 75.2 2.18684 74.6227 2.44711C74.0453 2.67485 73.7728 3.35792 74.0129 3.94353C74.0129 3.94353 77.7754 14.5822 82.8678 28.0511C84.0322 31.1418 85.2875 34.3627 86.5914 37.6485C87.4282 39.7307 88.2781 41.8779 89.1733 43.9926C91.4665 49.3607 93.8765 54.6962 96.1243 59.6087C102.102 72.7198 107.019 82.9027 107.019 82.9027C107.263 83.4883 107.931 83.7487 108.508 83.521C109.086 83.2607 109.361 82.6098 109.118 82.0242C109.118 82.0242 105.339 71.3858 100.211 57.9169C98.2812 52.8417 96.1794 47.376 93.9575 41.9755C93.0883 39.8608 92.1671 37.746 91.2589 35.6638C89.8447 32.443 88.437 29.2873 87.0617 26.2942C81.0449 13.2157 76.1114 3.06538 76.1114 3.06538Z" fill="#343434" fill-opacity="0.9"/>
<path fill-rule="evenodd" clip-rule="evenodd" d="M92.6078 5.27828C92.3613 4.69267 91.6898 4.43228 91.1157 4.66001C90.5384 4.92028 90.2724 5.60368 90.5222 6.15675C90.5222 6.15675 94.3625 16.7302 99.5587 30.069C100.746 33.1271 102.024 36.3153 103.354 39.5361C104.207 41.6508 105.07 43.7329 105.984 45.815C108.316 51.1506 110.765 56.4212 113.049 61.3012C119.127 74.2821 124.119 84.335 124.119 84.335C124.369 84.9206 125.037 85.1808 125.614 84.9205C126.192 84.6928 126.458 84.0097 126.208 83.4241C126.208 83.4241 122.348 72.8831 117.119 59.5443C115.154 54.5341 113.01 49.1335 110.746 43.7655C109.86 41.6833 108.926 39.6013 108.002 37.5517C106.562 34.3634 105.131 31.2402 103.733 28.2796C97.6191 15.2987 92.6078 5.27828 92.6078 5.27828Z" fill="#343434" fill-opacity="0.9"/>
<path fill-rule="evenodd" clip-rule="evenodd" d="M127.502 10.1903C127.246 9.60474 126.571 9.34454 126.001 9.60481C125.426 9.86507 125.17 10.5483 125.426 11.1339C125.426 11.1339 128.835 20.3408 133.477 31.9879C134.541 34.6556 135.686 37.4211 136.879 40.2515C137.645 42.0734 138.42 43.8952 139.244 45.7171C141.352 50.3694 143.574 54.9241 145.65 59.1534C151.171 70.4101 155.725 79.1292 155.725 79.1292C155.981 79.6823 156.652 79.9426 157.226 79.6824C157.797 79.4546 158.057 78.7712 157.801 78.1856C157.801 78.1856 154.372 68.9786 149.695 57.3641C147.937 52.9721 146.02 48.2547 143.98 43.6024C143.182 41.7806 142.335 39.9586 141.498 38.1693C140.198 35.4039 138.897 32.7036 137.629 30.1334C132.073 18.8768 127.502 10.1903 127.502 10.1903Z" fill="#343434" fill-opacity="0.9"/>
<path fill-rule="evenodd" clip-rule="evenodd" d="M144.145 12.6614C143.85 12.1083 143.159 11.913 142.608 12.2058C142.053 12.4986 141.846 13.1819 142.144 13.7349C142.144 13.7349 144.538 19.5259 147.892 26.8459C148.657 28.5051 149.491 30.2293 150.363 31.9862C150.921 33.1248 151.492 34.2636 152.105 35.3698C153.678 38.2002 155.362 40.998 156.935 43.5356C161.138 50.4002 164.632 55.573 164.632 55.573C164.93 56.1586 165.618 56.3538 166.172 56.061C166.724 55.7682 166.931 55.0526 166.633 54.4995C166.633 54.4995 164.223 48.7086 160.837 41.4536C159.565 38.7208 158.177 35.7925 156.672 32.897C156.082 31.7584 155.446 30.6525 154.817 29.5789C153.837 27.8871 152.858 26.2277 151.891 24.6661C147.655 17.8666 144.145 12.6614 144.145 12.6614Z" fill="#343434" fill-opacity="0.9"/>
<path fill-rule="evenodd" clip-rule="evenodd" d="M53.481 81.1786C55.6671 81.6341 74.4052 86.2215 94.311 91.069C109.686 94.8103 125.748 98.7793 135.427 101.284C136.987 101.675 138.375 102.033 139.569 102.358C137.035 104.18 133.51 106.62 130.221 108.865C127.408 110.784 124.762 112.541 122.991 113.55C122.598 113.745 122.138 113.973 121.881 114.103C121.479 114.038 120.71 113.94 119.977 113.777C115.618 112.932 106.549 110.849 95.842 108.377C69.4491 102.293 33.1859 93.7365 33.1859 93.7365C32.5793 93.5738 31.9599 93.9317 31.8042 94.5498C31.6485 95.168 32.0182 95.7864 32.6247 95.949C32.6247 95.949 68.57 105.839 94.804 112.639C105.518 115.437 114.619 117.681 118.991 118.592C121.002 119.048 122.271 119.145 122.572 119.08C123.539 118.95 126.864 117.161 130.74 114.656C137.6 110.199 146.545 103.659 147.064 103.041C147.635 102.326 147.81 101.577 147.59 100.699C147.493 100.341 147.269 99.6576 146.422 99.1045C146.231 98.9744 145.774 98.7467 145.037 98.519C143.662 98.0635 140.714 97.2828 136.672 96.3068C126.941 93.8993 110.772 90.2555 95.2776 86.872C74.1879 82.2522 54.3405 78.1854 53.5686 78.1203C53.3221 78.0878 52.9263 78.1205 52.4333 78.3157C51.6905 78.6411 50.3152 79.487 48.6448 80.6582C43.1372 84.5297 34.026 91.8823 34.026 91.8823C33.5297 92.2727 33.4422 92.9883 33.8249 93.4763C34.2109 93.9643 34.9277 94.0621 35.4207 93.6717C35.4207 93.6717 41.2981 89.2468 46.5138 85.6031C48.8589 83.9764 51.0645 82.48 52.5274 81.6666C52.8809 81.4714 53.2864 81.2762 53.481 81.1786Z" fill="#343434" fill-opacity="0.9"/>
<path fill-rule="evenodd" clip-rule="evenodd" d="M-3.49255 107.171C-4.01476 107.529 -4.15747 108.212 -3.81041 108.732C-3.46335 109.285 -2.75621 109.415 -2.234 109.058C-2.234 109.058 4.98288 105.023 14.0519 99.5577C16.1245 98.3214 18.2783 96.9876 20.458 95.6212C21.8625 94.7103 23.2799 93.8318 24.6682 92.8883C28.2198 90.4483 31.6937 87.943 34.8983 85.6006C43.4354 79.3542 49.9615 74.2466 49.9615 74.2466C50.4837 73.9213 50.6232 73.2056 50.2761 72.685C49.9291 72.1645 49.2252 72.0018 48.703 72.3597C48.703 72.3597 41.4926 76.4263 32.4462 81.892C29.047 83.9416 25.3914 86.1864 21.7976 88.5614C20.3931 89.4723 19.0146 90.4159 17.6555 91.3919C15.5407 92.8559 13.481 94.3524 11.5349 95.7839C3.02051 102.063 -3.49255 107.171 -3.49255 107.171Z" fill="#343434" fill-opacity="0.9"/>
<path fill-rule="evenodd" clip-rule="evenodd" d="M101.547 135.803C100.584 135.77 97.1491 134.859 92.0794 133.623C87.1297 132.419 80.7496 130.825 73.6527 129.036C67.8499 127.572 61.5639 126.01 55.1967 124.449C49.6308 123.05 44.0032 121.651 38.5735 120.317C17.6848 115.176 -0.24234 110.752 -0.24234 110.752C-0.848892 110.589 -1.47493 110.947 -1.6371 111.565C-1.80252 112.184 -1.44574 112.802 -0.839188 112.964C-0.839188 112.964 19.3391 119.048 41.7976 125.49C51.3629 128.223 61.3368 131.02 70.341 133.428C78.771 135.673 86.3513 137.592 91.914 138.894C97.454 140.195 101.152 140.813 101.985 140.748C102.524 140.715 103.581 140.39 104.989 139.642C108.203 137.885 114.415 133.656 121.586 128.45C139.05 115.795 162.371 97.5109 162.371 97.5109C162.877 97.1205 162.977 96.4047 162.604 95.8842C162.228 95.3962 161.515 95.2985 161.012 95.6564C161.012 95.6564 136.948 112.867 119.098 124.872C113.169 128.873 107.94 132.289 104.509 134.274C103.283 134.99 101.839 135.673 101.547 135.803Z" fill="#343434" fill-opacity="0.9"/>
<path fill-rule="evenodd" clip-rule="evenodd" d="M5.55025 119.375C4.9437 119.179 4.31766 119.537 4.14899 120.155C3.97708 120.741 4.33069 121.391 4.93399 121.554C4.93399 121.554 24.5738 127.638 46.4452 134.047C55.764 136.747 65.4818 139.545 74.2556 141.92C84.142 144.588 92.8283 146.768 98.3618 147.971C102.118 148.785 104.622 149.078 105.361 148.947C106.12 148.85 107.703 148.167 109.805 146.866C112.919 144.914 117.606 141.628 122.851 137.691C137.979 126.402 157.914 110.135 159.017 109.224C160.814 107.76 161.712 106.133 162.166 104.409C162.76 102.132 162.52 99.5615 162.818 96.731C162.899 96.1129 162.458 95.5275 161.835 95.4624C161.212 95.3648 160.645 95.8203 160.564 96.4384C160.158 99.1387 160.308 101.546 159.649 103.693C159.273 104.897 158.582 106.003 157.262 107.012C156.13 107.858 135.608 123.213 120.188 133.982C114.956 137.658 110.327 140.782 107.246 142.603C105.974 143.352 105.102 143.872 104.648 143.938C104.249 144.003 103.136 143.71 101.43 143.384C97.8558 142.636 92.2574 141.27 85.5043 139.578C80.6584 138.374 75.2222 137.008 69.5232 135.544C61.7354 133.592 53.4643 131.51 45.5403 129.492C24.2754 124.124 5.55025 119.375 5.55025 119.375Z" fill="#343434" fill-opacity="0.9"/>
<path fill-rule="evenodd" clip-rule="evenodd" d="M79.8062 114.72C77.8146 116.509 74.6132 118.754 72.4043 120.153C71.9827 120.413 71.5448 120.771 71.2074 121.031C71.2561 121.031 71.2885 121.031 71.2853 121.064C71.2755 121.194 71.1588 121.194 70.9739 121.162C70.802 121.259 70.682 121.292 70.6366 121.162C70.6236 121.129 70.6301 121.097 70.6495 121.097C70.3284 120.999 69.9295 120.869 69.5435 120.804C67.5098 120.413 64.3116 119.73 60.7826 118.982C54.9247 117.713 48.1813 116.217 44.448 115.078C44.0782 114.98 43.702 114.85 43.3647 114.72C45.6287 112.442 50.7243 109.092 50.7243 109.092C51.2628 108.766 51.4379 108.083 51.1135 107.53C50.7924 106.977 50.0918 106.814 49.5534 107.14C49.5534 107.14 43.9939 110.165 41.2985 112.41C40.439 113.126 39.8681 113.809 39.6118 114.33C39.281 114.98 39.3458 115.598 39.5145 116.086C39.628 116.379 40.0919 116.997 41.1071 117.518C42.5018 118.234 45.6092 119.372 49.3426 120.543C54.9377 122.333 61.9471 124.252 66.407 125.358C69.1964 126.009 71.162 126.269 71.5415 126.237C72.0183 126.204 73.3158 125.716 74.8954 124.708C77.38 123.146 81.0971 120.348 83.3189 118.169C84.6942 116.835 85.5376 115.598 85.7387 114.883C85.9301 114.199 85.9041 113.614 85.7289 113.126C85.5797 112.703 85.1872 111.922 84.0877 111.402C83.1405 110.914 81.0355 110.263 78.3012 109.612C69.4851 107.498 53.8576 104.927 53.8576 104.927C53.2446 104.797 52.6413 105.188 52.5116 105.806C52.3818 106.424 52.7743 107.042 53.3873 107.172C53.3873 107.172 72.3849 112.085 79.8062 114.72ZM71.2074 121.031C71.1361 121.031 71.0356 121.097 70.9999 121.097C70.9285 121.097 70.7177 121.064 70.6495 121.097C70.7728 121.129 70.8798 121.162 70.9739 121.162C71.0453 121.129 71.1231 121.097 71.2074 121.031Z" fill="#343434" fill-opacity="0.9"/>
<path fill-rule="evenodd" clip-rule="evenodd" d="M107.22 144.847C106.692 144.521 105.988 144.684 105.65 145.205C105.316 145.725 105.472 146.441 106.001 146.766C106.001 146.766 109.971 149.434 113.377 149.922C114.943 150.15 116.396 149.889 117.493 149.043C119.199 147.742 131.696 139.511 150.191 128.255C154.1 125.88 158.271 123.374 162.653 120.739C166.649 118.332 170.83 115.827 175.137 113.256C183.081 108.474 191.466 103.432 200.223 98.4864C203.875 96.3717 205.254 93.834 204.962 91.9145C204.68 90.0601 202.792 87.9778 198.446 87.2296C196.266 86.8717 191.676 86.3188 186.756 85.7983C178.491 84.9199 169.315 84.0413 169.315 84.0413C168.693 83.9763 168.125 84.4319 168.05 85.0501C167.976 85.6682 168.42 86.2536 169.043 86.3187C169.043 86.3187 180.444 88.0106 189.211 89.4421C192.86 90.0277 196.046 90.5807 197.732 90.9385C198.932 91.1988 199.85 91.5567 200.489 91.9797C200.729 92.1098 200.934 92.2398 200.956 92.435C200.979 92.6627 200.739 92.7931 200.531 93.0208C200.016 93.6064 199.208 94.1594 198.164 94.6799C189.215 99.3973 180.557 104.082 172.52 108.8C166.623 112.248 161.06 115.697 155.874 118.983C148.167 123.863 141.32 128.45 135.533 132.451C124.165 140.259 116.941 145.725 115.686 146.799C114.972 147.384 113.879 147.319 112.773 147.091C110.052 146.538 107.22 144.847 107.22 144.847Z" fill="#343434" fill-opacity="0.9"/>
<path fill-rule="evenodd" clip-rule="evenodd" d="M162.264 95.5928C161.712 95.2674 161.025 95.4953 160.726 96.0484C160.428 96.6014 160.635 97.2847 161.187 97.5775C162.724 98.521 164.239 98.1954 165.718 96.829C166.763 95.853 167.784 94.2265 168.744 92.0468C170.515 88.0452 172.118 82.0914 173.35 75.2269C173.937 71.9735 174.427 68.4922 174.81 64.946C175.056 62.7012 175.267 60.3915 175.394 58.0816C175.653 53.3967 175.679 48.7118 175.536 44.2872C175.261 35.9261 174.333 28.4761 172.899 23.5635C172.241 21.3187 171.466 19.5618 170.587 18.4557C169.315 16.829 167.862 16.2759 166.253 16.9266C165.663 17.1543 165.352 17.805 165.559 18.3906C165.767 18.9762 166.419 19.3014 167.009 19.0736C167.629 18.911 168.057 19.3342 168.472 19.9848C169.098 20.9609 169.542 22.4248 169.925 24.3118C170.901 29.1267 171.083 36.2839 170.879 44.2872C170.768 48.6467 170.515 53.2015 170.217 57.7562C170.068 60.0336 169.935 62.2785 169.769 64.4908C169.513 67.9719 169.211 71.3554 168.855 74.5762C168.115 81.1805 167.155 86.939 165.825 90.9081C165.219 92.73 164.602 94.1289 163.85 94.9748C163.36 95.5279 162.864 95.853 162.264 95.5928Z" fill="#343434" fill-opacity="0.9"/>
<path fill-rule="evenodd" clip-rule="evenodd" d="M106.611 145.822C106.611 145.822 113.633 150.279 116.591 147.904C119.549 145.529 155.332 120.544 199.192 96.5665C204.427 93.7035 204.382 90.32 198.089 89.0837C192.299 87.9776 169.179 85.1797 169.179 85.1797C167.24 93.248 164.69 98.1931 161.725 96.5665C161.716 96.5665 161.706 96.5665 161.693 96.5665C161.103 101.186 162.047 105.025 158.141 108.116C156.549 109.385 116.208 140.877 106.611 145.822Z" fill="#343434" fill-opacity="0.9"/>
</g>
<defs>
<clipPath id="clip0_387_718">
<rect width="209" height="150" fill="white" transform="matrix(-1 0 0 1 209 0)"/>
</clipPath>
</defs>
</svg>
