<svg width="401" height="435" viewBox="0 0 401 435" fill="none" xmlns="http://www.w3.org/2000/svg">
<path d="M275.425 175.864C281.257 176.532 286.981 178.969 291.144 182.944L291.144 182.946L291.233 183.033C292.853 184.581 294.212 186.381 295.258 188.363L295.258 188.362C298.173 193.912 298.414 200.519 297.618 206.779C296.274 217.363 292.178 227.474 286.726 236.662C281.274 245.85 274.476 254.17 267.399 262.193C264.669 265.286 261.658 268.434 257.709 269.171C256.575 269.374 255.414 269.393 254.273 269.227L254.27 269.227C251.777 268.9 249.309 267.864 246.933 266.83C245.169 266.061 243.329 265.196 241.733 264.111C240.138 263.025 238.8 261.729 238.024 260.1C237.88 259.796 237.756 259.482 237.654 259.162L237.558 258.839C236.744 255.805 238.025 252.619 239.405 249.68L239.406 249.68C240.887 246.522 242.463 243.412 244.137 240.349L244.42 239.834L243.857 240.004C241.319 240.77 237.659 241.676 235.043 241.72C232.426 241.764 229.755 241.182 227.611 239.717C226.09 238.678 225.661 237.665 224.929 235.927C224.647 235.259 224.321 234.486 223.872 233.575C223.852 233.525 223.831 233.473 223.812 233.426L223.811 233.425C223.762 233.307 223.714 233.191 223.668 233.074C221.708 228.038 221.081 222.584 221.844 217.241L221.922 216.725L221.923 216.722C222.55 212.529 223.868 208.472 225.822 204.716L226.221 203.969C230.991 195.257 238.731 188.456 247.324 183.4L248.158 182.916C255.866 178.502 264.536 175.318 273.37 175.701L273.371 175.701C274.054 175.728 274.741 175.781 275.423 175.864L275.425 175.864ZM290.675 186.776C290.361 186.403 289.805 186.354 289.432 186.668C289.059 186.981 289.01 187.538 289.323 187.912C292.982 192.272 294.247 198.334 293.879 204.173C293.556 209.291 292.106 214.265 290.494 219.255L289.796 221.394C289.644 221.857 289.897 222.357 290.36 222.509C290.823 222.661 291.321 222.409 291.474 221.946C293.334 216.271 295.256 210.396 295.641 204.285C296.027 198.164 294.719 191.596 290.675 186.776Z" fill="#EAEAEA" stroke="#EAEAEA" stroke-width="0.480429"/>
<path d="M351.788 155.728C357.675 154.769 363.905 154.16 369.784 155.231C375.231 156.222 380.302 159.045 382.332 164.389C383.283 167.686 383.171 171.823 382.358 176.364C381.545 180.904 380.035 185.827 378.213 190.681C374.57 200.39 369.69 209.798 366.674 215.273C363.162 221.646 359.314 227.828 355.152 233.797L355.085 233.813C344.842 236.086 333.753 233.863 324.951 228.132C316.15 222.402 309.678 213.297 306.771 203.194C303.871 193.119 304.977 182.555 308.581 172.686C316.685 168.054 325.009 163.818 333.758 160.587L333.758 160.587C339.598 158.393 345.635 156.765 351.787 155.727L351.788 155.728Z" fill="#FF6900" stroke="#EAEAEA" stroke-width="0.480429"/>
<path d="M262.035 310.428C260.934 321.321 258.192 332.145 252.817 341.641C247.316 351.364 238.904 359.635 228.556 363.77C220.112 367.143 210.807 367.663 201.661 367.626L201.405 367.625C201.328 367.625 201.251 367.624 201.174 367.624L201.173 367.624C194.076 367.575 186.794 367.184 180.472 364.088L180.472 364.088C179.63 363.678 178.783 363.165 178.121 362.532C177.459 361.901 176.991 361.162 176.882 360.293L176.882 360.292C176.705 358.902 177.541 357.51 178.687 356.59C179.612 355.847 180.704 355.351 181.826 354.844C182.093 354.723 182.362 354.6 182.629 354.475L182.63 354.476C192.289 349.954 199.172 340.009 200.028 329.372C200.233 329.206 200.439 329.041 200.648 328.875C206.594 328.213 212.492 326.79 218.267 325.38C230.627 322.377 242.745 318.455 254.521 313.648C257.041 312.62 259.545 311.544 262.035 310.428ZM250.69 335.974C250.264 335.735 249.726 335.888 249.488 336.313C240.533 352.334 222.453 362.829 204.106 362.656C203.619 362.651 203.221 363.043 203.216 363.53L203.216 363.531C203.212 364.018 203.603 364.417 204.09 364.422L204.091 364.422C223.082 364.601 241.76 353.76 251.029 337.176C251.267 336.751 251.114 336.212 250.689 335.974L250.69 335.974Z" fill="#ED5725" stroke="#EAEAEA" stroke-width="0.480429"/>
<path d="M216.175 280.055C218.26 279.878 220.258 280.056 221.528 280.966L221.529 280.966C222.754 281.841 223.288 283.431 223.382 285.171C223.465 286.688 223.211 288.274 222.832 289.494L222.663 289.993C221.75 292.469 220.125 294.611 218.349 296.625L217.581 297.481C208.033 307.919 196.393 316.122 184.467 323.855L182.08 325.396C180.355 326.507 178.627 327.61 176.897 328.705L176.896 328.706C172.1 331.765 167.245 334.834 161.818 336.361C160.581 336.706 159.28 336.912 158.3 336.284L158.299 336.284C157.484 335.763 157.16 334.876 157.153 333.839C157.147 332.929 157.387 331.932 157.727 331.045L157.879 330.672C160.759 323.987 165.637 318.374 170.694 313.077C171.923 311.79 173.165 310.516 174.42 309.256L174.421 309.257C181.593 302.064 189.194 295.314 197.183 289.043C201.304 285.804 205.613 282.662 210.589 281.178L210.59 281.178C212.006 280.753 214.103 280.232 216.175 280.055ZM211.278 298.888C210.943 298.533 210.384 298.517 210.03 298.851C199.276 309.007 187.063 317.495 173.798 324.033C173.388 324.235 173.205 324.713 173.36 325.132L173.397 325.216C173.612 325.653 174.141 325.833 174.578 325.618C188.002 319.001 200.36 310.413 211.242 300.136C211.596 299.802 211.613 299.243 211.278 298.888Z" fill="#FF6900" stroke="#EAEAEA" stroke-width="0.480429"/>
<path d="M290.144 166.799C292.932 166.934 295.659 167.671 298.136 168.959C300.608 170.243 302.775 172.046 304.488 174.244L304.61 174.453C302.867 175.478 301.131 176.516 299.404 177.568C296.729 179.195 294.065 180.837 291.412 182.493L291.402 182.498C287.198 178.524 281.475 176.084 275.645 175.386C275.362 174.598 275.08 173.79 274.802 172.969L275.042 172.891L275.099 172.872L275.141 172.828C277.06 170.801 279.394 169.212 281.983 168.172C284.572 167.131 287.357 166.663 290.144 166.799Z" fill="#EAEAEA" stroke="#EAEAEA" stroke-width="0.480429"/>
<path d="M235.036 146.348C235.176 146.934 235.358 147.508 235.581 148.068L235.581 148.069C235.71 148.4 235.772 148.753 235.762 149.108C235.753 149.458 235.673 149.804 235.529 150.124C235.337 150.436 235.065 150.691 234.74 150.862L234.739 150.862C234.373 151.058 233.99 151.22 233.596 151.348L233.59 151.35C233.09 151.528 232.577 151.697 232.076 151.767C231.577 151.837 231.108 151.806 230.688 151.601L230.68 151.598L230.612 151.559L230.601 151.551L230.588 151.544L230.402 151.424C229.989 151.122 229.718 150.66 229.539 150.106C229.357 149.542 229.279 148.902 229.238 148.282C230.165 148.399 231.107 148.276 231.973 147.924L232.163 147.844C232.472 147.724 232.78 147.62 233.088 147.51C233.396 147.4 233.702 147.285 233.985 147.147C234.389 146.952 234.755 146.703 235.036 146.348Z" fill="#FF6900" stroke="#EAEAEA" stroke-width="0.480429"/>
<path d="M233.566 138.391C233.922 138.343 234.238 138.385 234.497 138.563C234.755 138.741 234.907 139.021 234.991 139.374C235.055 139.64 235.077 139.933 235.08 140.229L235.078 140.524C235.063 141.251 235.147 142.179 235.178 143.049C235.21 143.941 235.188 144.788 234.983 145.432L234.983 145.432L234.901 145.649C234.68 146.147 234.289 146.457 233.774 146.707C233.516 146.833 233.231 146.941 232.926 147.05L231.977 147.392L231.965 147.398C231.051 147.81 230.033 147.935 229.045 147.758C228.881 147.718 228.721 147.664 228.568 147.594L228.568 147.594C227.737 147.213 227.158 146.443 226.623 145.608L226.395 145.247L226.389 145.237C226.02 144.704 225.733 144.118 225.537 143.5C225.469 143.284 225.437 143.059 225.442 142.834L225.459 142.609C225.498 142.316 225.6 142.034 225.757 141.784C226.148 141.347 226.651 141.026 227.211 140.855L227.221 140.851L227.231 140.847C228.98 140.137 230.726 139.428 232.468 138.721C232.829 138.574 233.206 138.439 233.566 138.391Z" fill="#FF6900" stroke="#EAEAEA" stroke-width="0.480429"/>
<path d="M225.742 81.8061L225.743 81.8062C226.21 81.8711 226.574 82.186 226.819 82.6451C227.066 83.1059 227.178 83.6888 227.147 84.221C227.115 84.7735 226.994 85.3165 226.89 85.8958C226.789 86.4652 226.707 87.0598 226.777 87.6657L226.875 88.4952L227.233 87.7414C227.728 86.7008 228.44 85.7785 229.32 85.0369C230.2 84.2953 231.229 83.7497 232.337 83.4399L232.338 83.441C233.193 83.2089 234.108 83.1795 234.702 83.6761C235.094 84.0053 235.272 84.4901 235.291 85.0435C235.307 85.5293 235.2 86.0523 235.02 86.5258L234.939 86.7251C233.391 90.3048 229.515 92.1421 225.711 93.5952L225.71 93.595L224.956 93.8774L209.217 99.733C208.289 100.079 207.288 100.481 206.432 101.037C205.573 101.594 204.842 102.316 204.475 103.308C203.926 104.793 204.387 106.425 204.824 107.838L204.824 107.839C206.237 112.362 207.792 116.836 209.489 121.261L209.231 121.361L209.135 121.397L209.096 121.492C208.759 122.296 208.261 123.021 207.633 123.625C206.986 124.16 206.059 124.362 205.408 123.968C205.194 123.822 205.029 123.616 204.936 123.374C204.848 123.144 204.829 122.893 204.88 122.653C205.038 122.461 205.186 122.262 205.322 122.054L204.997 121.717C204.732 121.877 204.535 122.13 204.444 122.425C204.145 122.779 203.817 123.085 203.475 123.265C203.131 123.446 202.79 123.496 202.445 123.362C202.214 123.242 202.016 123.07 201.867 122.858L201.806 122.763C201.67 122.537 201.591 122.28 201.577 122.018L201.576 121.905C201.599 121.232 201.7 120.563 201.879 119.913L201.881 119.905L201.882 119.896C202.572 116.421 201.324 112.895 200.285 109.609C199.238 106.297 198.378 102.727 199.628 99.5939L199.628 99.5929C200.709 96.8758 203.239 94.9432 205.963 93.7387C207.324 93.137 208.746 92.6885 210.191 92.2729C211.631 91.8589 213.105 91.475 214.543 91.0098C215.325 90.7572 216.179 90.3936 216.855 89.877C217.532 89.359 218.054 88.6687 218.112 87.7686C218.143 87.2834 218.028 86.8216 217.86 86.3863C217.693 85.9541 217.464 85.5289 217.262 85.129C216.869 84.3548 216.578 83.6764 216.739 82.9964L216.777 82.86C216.99 82.2143 217.602 81.8553 218.343 81.7995C219.085 81.7437 219.894 82.0015 220.407 82.5215C221.477 83.6056 221.683 85.2692 221.839 86.9024L221.886 87.4009L222.245 87.0518C222.703 86.6077 222.96 86.0466 223.146 85.4753C223.239 85.1896 223.317 84.8956 223.391 84.6091C223.466 84.3201 223.537 84.0392 223.621 83.7683C223.785 83.2418 224.076 82.7048 224.452 82.3238C224.828 81.9441 225.266 81.7382 225.742 81.8061Z" fill="#EAEAEA" stroke="#EAEAEA" stroke-width="0.480429"/>
<path d="M215.937 118.875C216.244 118.86 216.547 118.939 216.866 119.063C217.025 119.125 217.184 119.196 217.348 119.271L217.848 119.495C218.306 119.685 218.786 119.815 219.275 119.886C218.944 120.337 218.702 120.848 218.567 121.393C218.441 121.9 218.41 122.426 218.473 122.944L218.506 123.166C218.61 123.755 218.835 124.316 219.167 124.813L219.167 124.814C219.413 125.181 219.715 125.508 220.06 125.782C219.212 125.982 218.326 125.977 217.477 125.761L217.478 125.761C215.416 125.203 213.814 123.092 214.086 121.004C214.154 120.485 214.373 119.957 214.702 119.557C215.03 119.157 215.454 118.898 215.937 118.875Z" fill="#EAEAEA" stroke="#EAEAEA" stroke-width="0.480429"/>
<path d="M197.035 243.418C202.541 243.155 208.259 244.046 212.815 247.054C212.489 247.489 212.163 247.929 211.838 248.367L211.837 248.367C201.26 262.66 190.123 275.875 180.537 290.734L180.035 290.407L179.973 290.368L179.9 290.369C174.538 290.441 169.252 291.65 164.392 293.915C159.531 296.18 155.205 299.45 151.7 303.51L151.699 303.511C151.355 303.913 150.996 304.322 150.598 304.628C150.203 304.931 149.791 305.115 149.34 305.097C148.776 305.074 148.323 304.748 147.959 304.244C147.595 303.737 147.34 303.075 147.183 302.448C145.548 295.922 147.139 288.994 149.538 282.645C150.712 279.534 152.089 276.505 153.661 273.575L153.661 273.574C157.194 266.871 161.903 260.857 167.561 255.821C175.744 248.664 186.193 243.936 197.035 243.418Z" fill="#FF6900" stroke="#EAEAEA" stroke-width="0.480429"/>
<path d="M235.055 151.355C239.707 160.504 238.386 171.851 233.827 181.103C229.823 189.226 223.617 196.005 217.005 202.282C216.051 203.185 215.092 204.08 214.127 204.964C205.7 212.697 196.914 220.009 187.771 226.904C183.241 226.992 178.71 226.809 174.201 226.364C175.467 221.978 176.733 217.594 178.001 213.211L178.215 213.136L178.233 213.13L178.249 213.121C188.138 207.783 197.402 201.81 205.952 194.503L205.952 194.504C208.725 192.138 211.426 189.656 213.965 187.032C217.383 183.559 220.442 179.748 223.092 175.658L223.093 175.656C227.568 168.627 230.565 160.487 230.701 152.136C231.171 152.307 231.664 152.318 232.144 152.251C232.698 152.174 233.252 151.99 233.752 151.812L233.752 151.811C234.144 151.682 234.524 151.522 234.89 151.331L235.055 151.355Z" fill="#FF6900" stroke="#EAEAEA" stroke-width="0.480429"/>
<path d="M204.653 122.558C204.577 122.86 204.596 123.178 204.708 123.469C204.82 123.761 205.019 124.01 205.278 124.183C206.049 124.652 207.096 124.393 207.79 123.815C208.444 123.187 208.962 122.431 209.313 121.595" stroke="#EAEAEA" stroke-width="1.39565" stroke-linecap="round" stroke-linejoin="round"/>
<path d="M204.653 122.55C204.819 122.35 204.974 122.142 205.117 121.925C204.886 122.064 204.719 122.288 204.653 122.55Z" stroke="#EAEAEA" stroke-width="1.39565" stroke-linecap="round" stroke-linejoin="round"/>
<path d="M217.307 138.707C217.288 138.664 217.264 138.618 217.244 138.576C214.521 132.96 212.039 127.235 209.798 121.401C208.071 116.911 206.489 112.367 205.052 107.768C204.611 106.343 204.183 104.79 204.699 103.392C205.384 101.539 207.445 100.649 209.299 99.9591L225.039 94.1032C225.291 94.0099 225.543 93.917 225.796 93.8199C229.592 92.3701 233.567 90.5048 235.16 86.821C235.635 85.7274 235.775 84.2643 234.857 83.4926C234.166 82.9149 233.144 82.9731 232.275 83.2094C231.133 83.5284 230.073 84.0889 229.166 84.8531C228.259 85.6172 227.526 86.5667 227.017 87.6384C226.885 86.5003 227.325 85.3784 227.388 84.235C227.451 83.0917 226.909 81.7255 225.777 81.5684C224.627 81.4039 223.74 82.5867 223.392 83.6972C223.044 84.8077 222.912 86.0702 222.079 86.8796C221.925 85.2629 221.712 83.5114 220.578 82.3532C219.443 81.195 217.054 81.2475 216.549 82.7851C216.003 84.45 217.985 86.0026 217.872 87.7535C217.767 89.3676 216.01 90.2841 214.469 90.7818C211.602 91.7092 208.619 92.3028 205.865 93.5198C203.112 94.7368 200.517 96.705 199.404 99.5051C198.12 102.727 199.004 106.375 200.055 109.683C201.105 112.991 202.32 116.449 201.646 119.851C201.462 120.52 201.358 121.209 201.334 121.902C201.328 122.249 201.42 122.591 201.599 122.888C201.778 123.186 202.036 123.427 202.345 123.584C203.204 123.927 204.026 123.307 204.656 122.55" stroke="#EAEAEA" stroke-width="1.39565" stroke-linecap="round" stroke-linejoin="round"/>
<path d="M220.761 115.624C221.724 115.855 222.639 114.898 222.751 113.918C222.863 112.938 222.426 111.986 221.998 111.095C220.482 107.949 218.966 104.803 217.45 101.659C219.53 100.278 221.899 99.3907 224.375 99.0645" stroke="#EAEAEA" stroke-width="1.39565" stroke-linecap="round" stroke-linejoin="round"/>
<path d="M224.177 105.619C224.044 104.775 223.618 104.005 222.974 103.445" stroke="#EAEAEA" stroke-width="1.39565" stroke-linecap="round" stroke-linejoin="round"/>
<path d="M214.283 108.742C213.932 108.027 213.58 107.311 213.228 106.594" stroke="#EAEAEA" stroke-width="1.39565" stroke-linecap="round" stroke-linejoin="round"/>
<path d="M223.911 118.498C222.664 119.431 221.109 119.853 219.561 119.68C219.004 119.625 218.458 119.488 217.941 119.273C217.284 118.998 216.636 118.601 215.925 118.636C214.792 118.691 213.995 119.851 213.849 120.974C213.559 123.197 215.254 125.408 217.416 125.994C218.459 126.26 219.555 126.224 220.578 125.889C221.695 125.536 222.701 124.898 223.497 124.038" stroke="#EAEAEA" stroke-width="1.39565" stroke-linecap="round" stroke-linejoin="round"/>
<path d="M220.566 125.845C220.089 125.544 219.68 125.145 219.366 124.676C219.051 124.207 218.839 123.677 218.742 123.121C218.644 122.565 218.664 121.995 218.8 121.446C218.935 120.898 219.184 120.385 219.531 119.939" stroke="#EAEAEA" stroke-width="1.39565" stroke-linecap="round" stroke-linejoin="round"/>
<path d="M232.389 133.913C231.303 132.064 230.201 130.173 229.749 128.079C229.297 125.985 229.6 123.603 231.051 122.026C231.925 121.084 233.175 120.44 233.685 119.262C234.194 118.084 233.808 116.724 233.415 115.5C231.117 108.361 228.818 101.222 226.519 94.0859" stroke="#EAEAEA" stroke-width="1.39565" stroke-linecap="round" stroke-linejoin="round"/>
<path d="M213.754 145.278C212.163 144.668 211.992 142.283 213.029 140.932C214.022 139.635 215.665 139.061 217.233 138.576L217.437 138.516C222.421 136.998 227.407 135.48 232.396 133.963C232.845 133.825 233.289 133.691 233.738 133.553C235.196 133.109 236.751 132.661 238.224 133.067C239.697 133.473 240.943 135.081 240.377 136.502C240.421 136.434 240.462 136.367 240.505 136.304C240.627 136.118 240.75 135.932 240.868 135.746" stroke="#EAEAEA" stroke-width="1.39565" stroke-linecap="round" stroke-linejoin="round"/>
<path d="M240.586 136.343C253.946 134.995 265.266 124.262 269.462 111.497C273.657 98.7317 271.482 84.4789 265.755 72.3221C264.856 70.4095 263.86 68.5096 263.474 66.4289C263.089 64.3483 263.416 62.018 264.876 60.4947C265.222 60.1409 265.612 59.8325 266.036 59.577C266.999 59.0388 268.019 58.6126 269.079 58.307C272.38 57.2268 275.678 56.1462 278.974 55.065C280.671 54.5082 282.367 53.9523 284.063 53.3973C285.432 52.9478 286.939 52.4971 288.282 53.0277C290.068 53.7315 290.798 55.8184 291.299 57.6726C296.086 75.4417 298.603 94.1801 295.214 112.26C292.062 129.065 283.299 145.28 269.458 155.146C268.406 155.893 267.322 156.609 266.211 157.283" stroke="#EAEAEA" stroke-width="1.39565" stroke-linecap="round" stroke-linejoin="round"/>
<path d="M269.527 155.27C270.795 160.858 272.586 167.172 274.503 172.822C274.82 173.764 275.144 174.693 275.467 175.594" stroke="#EAEAEA" stroke-width="1.39565" stroke-linecap="round" stroke-linejoin="round"/>
<path d="M267.623 31.1108C270.519 29.7457 276.614 44.1352 278.899 54.7763" stroke="#EAEAEA" stroke-width="1.39565" stroke-linecap="round" stroke-linejoin="round"/>
<path d="M261.011 34.5189C264.535 33.2457 268.988 43.6554 271.389 47.2873C269.583 41.975 265.613 32.2567 267.626 31.1084" stroke="#EAEAEA" stroke-width="1.39565" stroke-linecap="round" stroke-linejoin="round"/>
<path d="M255.149 38.1061C256.841 37.2356 264.046 45.2123 267.149 49.7423C264.379 44.9914 258.66 35.489 261.012 34.5203" stroke="#EAEAEA" stroke-width="1.39565" stroke-linecap="round" stroke-linejoin="round"/>
<path d="M266.198 59.0741C266.15 59.0756 266.098 59.0769 266.051 59.074C261.579 59.1594 254.077 55.7379 254.85 53.165C254.919 51.9415 261.697 53.2052 264.824 54.6053C260.828 50.4279 252.084 40.9575 254.797 38.2662C254.837 38.2273 254.877 38.1912 254.922 38.1543" stroke="#EAEAEA" stroke-width="1.39565" stroke-linecap="round" stroke-linejoin="round"/>
<path d="M144.338 101.873C146.701 98.7581 149.619 95.4945 151.115 91.8798C151.485 90.9766 151.651 89.6276 150.73 89.3065C150.084 89.0775 149.44 89.6028 148.954 90.0814L141.173 94.814C141.071 87.2912 142.529 73.7128 138.669 74.1174C135.479 74.0713 137.004 88.3299 136.077 94.6881C135.53 90.8996 134.048 86.7186 132.822 83.0951C131.597 79.4717 129.704 73.1327 127.635 73.9339C124.598 75.1093 129.306 88.8394 132.006 95.8893C129.382 90.2347 125.956 84.9891 121.834 80.3142C121.207 79.603 120.322 78.8399 119.431 79.1568C118.729 79.405 118.4 80.2619 118.505 80.9966C118.667 81.7253 118.987 82.4102 119.442 83.0013C124.034 90.0083 127.739 97.558 130.472 105.478" stroke="#EAEAEA" stroke-width="1.39565" stroke-linecap="round" stroke-linejoin="round"/>
<path d="M213.985 145.52C213.948 145.536 213.907 145.553 213.871 145.564C203.11 149.981 191.464 154.262 180.116 151.719C171.199 149.719 163.526 143.53 158.669 135.781C153.811 128.032 151.594 118.837 151.176 109.7C151.038 106.609 150.564 102.735 147.623 101.771C146.534 101.485 145.385 101.521 144.317 101.876L144.316 101.88C143.938 101.981 143.562 102.099 143.195 102.214C139.025 103.531 134.851 104.849 130.675 106.171C129.758 106.457 128.847 106.748 127.929 107.038C129.311 118.079 130.7 129.161 133.561 139.916C136.28 150.127 140.51 160.277 148.041 167.684C156.469 175.968 168.44 180.062 180.246 180.354C190.818 180.617 201.285 178.031 211.105 174.047C212.251 173.582 213.386 173.099 214.511 172.597" stroke="#EAEAEA" stroke-width="1.39565" stroke-linecap="round" stroke-linejoin="round"/>
<path d="M217.154 202.434C217.157 202.443 217.157 202.447 217.16 202.456C218.335 206.968 219.997 212.192 221.362 216.643" stroke="#EAEAEA" stroke-width="1.39565" stroke-linecap="round" stroke-linejoin="round"/>
<path d="M211.158 174.227C211.875 178.548 212.747 182.428 213.642 186.716" stroke="#EAEAEA" stroke-width="1.39565" stroke-linecap="round" stroke-linejoin="round"/>
<path d="M235.121 145.749C235.156 145.67 235.186 145.589 235.212 145.507C235.651 144.133 235.286 141.97 235.318 140.532C235.334 139.741 235.283 138.815 234.629 138.369C233.975 137.922 233.103 138.206 232.375 138.502C230.632 139.212 228.886 139.921 227.138 140.628C226.528 140.815 225.982 141.166 225.559 141.644C225.379 141.928 225.262 142.248 225.218 142.581C225.174 142.915 225.203 143.254 225.304 143.575C225.508 144.217 225.806 144.824 226.189 145.377C226.785 146.335 227.439 147.346 228.465 147.816C228.635 147.893 228.812 147.954 228.993 147.998C230.03 148.185 231.1 148.053 232.061 147.62C233.337 147.126 234.617 146.889 235.121 145.749Z" stroke="#EAEAEA" stroke-width="1.39565" stroke-linecap="round" stroke-linejoin="round"/>
<path d="M228.981 148.065C229.056 149.453 229.286 151.086 230.47 151.753C230.506 151.779 230.545 151.801 230.586 151.818C231.54 152.283 232.673 151.933 233.673 151.577C234.079 151.445 234.474 151.276 234.851 151.074C235.219 150.881 235.528 150.59 235.743 150.235C235.903 149.882 235.99 149.501 236.001 149.115C236.011 148.728 235.944 148.343 235.803 147.982C235.517 147.263 235.3 146.519 235.153 145.759" stroke="#EAEAEA" stroke-width="1.39565" stroke-linecap="round" stroke-linejoin="round"/>
<path d="M230.471 151.535C230.473 151.613 230.47 151.687 230.468 151.764C230.417 160.188 227.416 168.422 222.89 175.53C220.249 179.607 217.201 183.405 213.794 186.865C211.261 189.484 208.566 191.96 205.796 194.324C197.266 201.619 188.013 207.58 178.134 212.912" stroke="#EAEAEA" stroke-width="1.39565" stroke-linecap="round" stroke-linejoin="round"/>
<path d="M235.21 151.136C239.975 160.391 238.639 171.877 234.039 181.21C230.018 189.369 223.786 196.173 217.17 202.456C216.215 203.36 215.255 204.255 214.288 205.141C205.835 212.897 197.022 220.231 187.849 227.146" stroke="#EAEAEA" stroke-width="1.39565" stroke-linecap="round" stroke-linejoin="round"/>
<path d="M177.804 213.04C176.5 217.558 175.195 222.075 173.89 226.59C178.516 227.059 183.167 227.248 187.816 227.158" stroke="#EAEAEA" stroke-width="1.39565" stroke-linecap="round" stroke-linejoin="round"/>
<path d="M223.652 233.664C223.581 233.497 223.511 233.33 223.444 233.161C221.405 227.923 220.798 222.236 221.685 216.687C222.358 212.186 223.822 207.842 226.011 203.854C230.962 194.809 239.089 187.825 248.039 182.708C255.768 178.282 264.483 175.075 273.38 175.461C274.069 175.488 274.762 175.542 275.452 175.626C281.371 176.303 287.187 178.788 291.4 182.855L291.399 182.859C293.038 184.425 294.413 186.246 295.471 188.251C298.419 193.864 298.656 200.529 297.857 206.81C296.507 217.435 292.396 227.577 286.932 236.784C281.468 245.992 274.659 254.326 267.58 262.352C264.857 265.436 261.795 268.653 257.754 269.408C256.593 269.615 255.406 269.634 254.239 269.465C251.706 269.133 249.209 268.082 246.836 267.05C243.305 265.509 239.408 263.565 237.808 260.202C237.609 259.784 237.448 259.349 237.327 258.901C236.486 255.771 237.812 252.508 239.188 249.577C240.671 246.415 242.25 243.301 243.927 240.234C249.405 230.19 255.87 220.719 263.224 211.959" stroke="#EAEAEA" stroke-width="1.39565" stroke-linecap="round" stroke-linejoin="round"/>
<path d="M223.657 233.676C225.267 236.943 225.294 238.424 227.482 239.923C229.67 241.421 232.394 242.007 235.051 241.967C237.707 241.928 241.389 241.008 243.929 240.241" stroke="#EAEAEA" stroke-width="1.39565" stroke-linecap="round" stroke-linejoin="round"/>
<path d="M274.968 172.663C276.91 170.611 279.273 169.003 281.895 167.95C284.516 166.897 287.334 166.423 290.157 166.56C292.979 166.698 295.738 167.444 298.246 168.747C300.755 170.05 302.952 171.88 304.688 174.111" stroke="#EAEAEA" stroke-width="1.39565" stroke-linecap="round" stroke-linejoin="round"/>
<path d="M382.562 164.303C380.492 158.845 375.326 155.987 369.83 154.987C363.908 153.907 357.65 154.523 351.755 155.482C345.588 156.523 339.536 158.155 333.682 160.354C324.884 163.604 316.519 167.866 308.383 172.52C307.23 173.179 306.081 173.847 304.935 174.523C303.122 175.587 301.319 176.665 299.524 177.758C296.85 179.385 294.187 181.026 291.535 182.681" stroke="#EAEAEA" stroke-width="1.39565" stroke-linecap="round" stroke-linejoin="round"/>
<path d="M182.367 325.813C187.499 329.039 193.891 329.287 199.752 328.703C200.024 328.678 200.292 328.648 200.561 328.614C206.514 327.957 212.42 326.531 218.22 325.115C230.569 322.115 242.677 318.197 254.442 313.393C257.089 312.313 259.718 311.185 262.33 310.01C271.26 306.001 279.938 301.454 288.317 296.394C293.677 293.15 298.902 289.693 303.99 286.023C309.194 282.271 314.233 278.296 319.105 274.097C324.504 269.438 329.666 264.524 334.593 259.354C338.411 255.35 342.072 251.204 345.576 246.916C348.954 242.78 352.171 238.521 355.226 234.142C359.441 228.112 363.331 221.862 366.883 215.419C372.918 204.458 386.433 177.741 382.558 164.343" stroke="#EAEAEA" stroke-width="1.39565" stroke-linecap="round" stroke-linejoin="round"/>
<path d="M223.104 233.247C219.873 238.211 216.544 242.477 213.159 246.985C212.783 247.485 212.406 247.993 212.029 248.501C201.389 262.878 190.213 276.127 180.6 291.062C179.493 292.776 178.409 294.515 177.349 296.279C175.035 300.273 174.843 304.578 174.228 309.05" stroke="#EAEAEA" stroke-width="1.39565" stroke-linecap="round" stroke-linejoin="round"/>
<path d="M213.243 247.054C213.215 247.037 213.188 247.016 213.162 246.998C208.514 243.838 202.644 242.913 197.024 243.181C186.12 243.702 175.621 248.458 167.404 255.645C161.723 260.701 156.997 266.736 153.45 273.465C151.873 276.403 150.492 279.443 149.314 282.563C146.911 288.926 145.299 295.912 146.952 302.51C147.275 303.797 148.006 305.286 149.331 305.341C150.386 305.383 151.199 304.471 151.883 303.67C155.366 299.636 159.664 296.386 164.494 294.136C169.325 291.884 174.577 290.684 179.905 290.612" stroke="#EAEAEA" stroke-width="1.39565" stroke-linecap="round" stroke-linejoin="round"/>
<path d="M262.35 309.691C262.338 309.806 262.329 309.926 262.317 310.041C261.242 321.095 258.49 332.107 253.026 341.76C247.504 351.521 239.053 359.835 228.646 363.993C220.156 367.384 210.812 367.904 201.661 367.867C201.497 367.864 201.337 367.867 201.172 367.865C194.075 367.816 186.743 367.426 180.367 364.304C178.661 363.472 176.881 362.203 176.644 360.323C176.452 358.818 177.355 357.351 178.536 356.402C179.718 355.453 181.157 354.902 182.529 354.258C192.141 349.758 198.985 339.84 199.798 329.25C200.048 329.048 200.298 328.847 200.553 328.645C200.582 328.623 200.611 328.597 200.641 328.576" stroke="#FF6900" stroke-width="1.39565" stroke-linecap="round" stroke-linejoin="round"/>
<path d="M182.209 325.598C194.963 317.407 207.551 308.802 217.758 297.643C219.824 295.377 221.827 292.954 222.887 290.077C223.845 287.492 224.295 282.645 221.668 280.771C218.979 278.843 213.368 280.091 210.52 280.948C205.496 282.449 201.155 285.615 197.034 288.853C189.038 295.131 181.429 301.888 174.251 309.087C172.994 310.35 171.75 311.624 170.519 312.912C165.461 318.21 160.556 323.85 157.658 330.577C156.806 332.562 156.351 335.325 158.168 336.488C159.245 337.179 160.648 336.938 161.881 336.594C167.348 335.056 172.231 331.964 177.024 328.91C178.751 327.812 180.48 326.707 182.209 325.598Z" stroke="#EAEAEA" stroke-width="1.39565" stroke-linecap="round" stroke-linejoin="round"/>
<path d="M308.377 172.548C304.745 182.469 303.618 193.109 306.54 203.264C309.463 213.419 315.969 222.573 324.822 228.337C333.675 234.101 344.829 236.338 355.138 234.05" stroke="#EAEAEA" stroke-width="1.39565" stroke-linecap="round" stroke-linejoin="round"/>
<path d="M334.829 259.336L334.581 259.338C323.479 259.513 312.539 252.843 307.615 242.882C307.588 242.833 307.568 242.793 307.545 242.746" stroke="#EAEAEA" stroke-width="1.39565" stroke-linecap="round" stroke-linejoin="round"/>
<path d="M304.172 286.078C304.105 286.06 304.043 286.042 303.977 286.019C299.194 284.614 294.739 282.269 290.873 279.12C287.007 275.97 283.807 272.081 281.461 267.68" stroke="#EAEAEA" stroke-width="1.39565" stroke-linecap="round" stroke-linejoin="round"/>
<path d="M281.504 267.6C291.723 261.328 300.503 252.968 307.273 243.068" stroke="#EAEAEA" stroke-width="1.39565" stroke-linecap="round" stroke-linejoin="round"/>
<path d="M306.107 253.88C306.399 253.274 306.643 252.646 306.837 252.001C307.048 251.323 307.202 250.628 307.296 249.924" stroke="#EAEAEA" stroke-width="1.39565" stroke-linecap="round" stroke-linejoin="round"/>
<path d="M304.773 251.516C305.459 251.681 306.149 251.847 306.835 252.008C307.232 252.105 307.625 252.202 308.023 252.295" stroke="#EAEAEA" stroke-width="1.39565" stroke-linecap="round" stroke-linejoin="round"/>
<path d="M288.97 271.865C288.993 271.404 289.023 270.941 289.051 270.477C289.093 269.776 289.13 269.075 289.171 268.375" stroke="#EAEAEA" stroke-width="1.39565" stroke-linecap="round" stroke-linejoin="round"/>
<path d="M287.199 270.419C287.814 270.44 288.435 270.461 289.051 270.478C289.801 270.505 290.551 270.53 291.304 270.552" stroke="#EAEAEA" stroke-width="1.39565" stroke-linecap="round" stroke-linejoin="round"/>
<path d="M237.707 260.259C234.459 262.669 231.003 265.377 229.986 269.292C229.319 271.85 229.813 274.553 230.322 277.144C231.548 283.412 232.855 289.662 234.244 295.895C234.725 298.063 235.305 300.379 236.986 301.83C238.997 303.563 241.939 303.522 244.591 303.392C246.789 303.281 249.252 303.046 250.678 301.368C251.772 300.077 251.949 298.27 252.081 296.587C252.767 287.793 253.452 278.997 254.136 270.199" stroke="#EAEAEA" stroke-width="1.39565" stroke-linecap="round" stroke-linejoin="round"/>
<path d="M153.311 273.389C145.542 269.924 135.99 272.934 129.971 278.941C123.952 284.948 120.941 293.366 119.384 301.728C119.166 295.864 113.087 291.468 107.22 291.418C101.352 291.368 95.9405 294.63 91.5729 298.544C94.7881 294.102 93.1853 287.247 88.8047 283.945C84.424 280.643 78.107 280.657 73.208 283.128C75.5881 281.077 77.3337 278.389 78.2406 275.379C79.1471 272.369 79.1768 269.162 78.3265 266.135C77.4762 263.107 75.7807 260.385 73.4393 258.287C71.0979 256.19 68.2076 254.803 65.1075 254.291C67.5345 252.866 69.5705 250.861 71.0322 248.455C72.4944 246.049 73.3374 243.318 73.4859 240.505C73.6344 237.692 73.0836 234.886 71.8827 232.338C70.6817 229.79 68.8683 227.579 66.6049 225.903C70.2136 228.75 76.0933 226.774 78.2717 222.73C80.4501 218.687 79.5281 213.535 77.1221 209.62C80.7182 212.422 86.3672 212.102 89.6238 208.918C89.9807 208.574 90.304 208.196 90.5895 207.79C92.9436 204.522 93.0345 199.687 90.6139 196.425C91.7364 196.831 92.932 196.992 94.1213 196.9C95.3702 196.822 96.5857 196.467 97.68 195.861C98.7748 195.255 99.7206 194.412 100.45 193.395C101.179 192.378 101.673 191.211 101.896 189.979C102.119 188.747 102.066 187.481 101.74 186.272" stroke="#EAEAEA" stroke-width="1.39565" stroke-linecap="round" stroke-linejoin="round"/>
<path d="M37.8845 307.926C29.3832 314.073 24.6821 325.147 26.2397 335.545C27.8429 346.221 35.9644 355.654 46.2824 358.811C56.6003 361.969 68.6035 358.7 75.8929 350.743C69.7207 359.588 75.3841 373.5 85.627 376.873C95.8698 380.245 107.795 373.863 112.179 364.012C110.461 375.263 119.367 387.036 130.659 388.44C141.951 389.843 153.448 380.605 154.521 369.268C156.484 380.418 167.337 389.285 178.644 388.988C189.952 388.692 200.305 379.252 201.665 368.022" stroke="#EAEAEA" stroke-width="1.39565" stroke-linecap="round" stroke-linejoin="round"/>
<path d="M37.9021 307.925C38.1407 307.774 38.3773 307.609 38.6002 307.434C38.3665 307.595 38.1305 307.755 37.9021 307.925Z" stroke="#EAEAEA" stroke-width="1.39565" stroke-linecap="round" stroke-linejoin="round"/>
<path d="M101.437 186.238C99.3368 182.169 91.4919 185.34 88.2766 189.633C87.8563 190.185 87.5106 190.79 87.248 191.432C82.5042 188.865 76.1651 191.181 73.3029 195.58C72.425 196.894 71.9064 198.415 71.7982 199.991C69.73 199.057 67.4174 198.812 65.1999 199.291C62.9829 199.77 60.9779 200.948 59.4805 202.653C57.9831 204.357 57.0719 206.498 56.8812 208.76C56.69 211.022 57.2296 213.286 58.4198 215.22C54.4079 212.743 48.6189 213.744 45.6682 217.422C42.7174 221.1 42.9992 226.97 46.2861 230.36C40.0465 229.38 33.3918 233.297 31.2118 239.221C29.0318 245.144 31.5562 252.451 36.9382 255.762C20.5836 260.544 10.4642 280.387 16.194 296.448C17.8257 301.028 20.6762 305.355 24.8847 307.789C28.8432 310.081 34.1117 310.376 37.9165 307.918" stroke="#EAEAEA" stroke-width="1.39565" stroke-linecap="round" stroke-linejoin="round"/>
<path d="M159.74 394.747C158.633 396.082 157.939 397.711 157.743 399.435C157.547 401.159 157.857 402.904 158.635 404.455C160.271 407.501 164.015 409.305 167.379 408.52C170.744 407.734 173.339 404.335 173.057 400.891C172.829 398.108 170.658 393.391 168.1 391.944C165.388 390.409 161.49 392.663 159.74 394.747Z" stroke="#343434" stroke-width="1.39565" stroke-linecap="round" stroke-linejoin="round"/>
<path d="M107.832 387.224C107.47 387.82 107.24 388.488 107.161 389.181C107.08 389.875 107.152 390.577 107.369 391.241C107.713 392.092 108.319 392.812 109.098 393.297C109.877 393.782 110.79 394.007 111.705 393.94C115.699 393.609 116.788 389.021 115.295 385.878C113.549 382.196 109.407 384.51 107.832 387.224Z" stroke="#343434" stroke-width="1.39565" stroke-linecap="round" stroke-linejoin="round"/>
<path d="M232.978 264.5L235.921 290.148C236.192 292.519 236.513 295.015 237.95 296.92C239.357 298.785 241.665 299.8 243.976 300.13C246.288 300.46 248.637 300.187 250.955 299.909" stroke="#EAEAEA" stroke-width="1.39565" stroke-linecap="round" stroke-linejoin="round"/>
<path d="M253.291 276.616C249.049 276.151 244.973 274.708 241.381 272.402" stroke="#EAEAEA" stroke-width="1.39565" stroke-linecap="round" stroke-linejoin="round"/>
<path d="M252.978 282.977C248.929 282.466 245.055 281.016 241.665 278.742" stroke="#EAEAEA" stroke-width="1.39565" stroke-linecap="round" stroke-linejoin="round"/>
<path d="M252.492 288.425C248.495 288.556 244.564 287.374 241.302 285.059" stroke="#EAEAEA" stroke-width="1.39565" stroke-linecap="round" stroke-linejoin="round"/>
<path d="M129.55 118.125L151.14 114.231" stroke="#EAEAEA" stroke-width="1.39565" stroke-linecap="round" stroke-linejoin="round"/>
<path d="M266.557 74.2542L292.604 64.3269" stroke="#EAEAEA" stroke-width="1.39565" stroke-linecap="round" stroke-linejoin="round"/>
<path d="M173.522 201.27L176.221 196.47" stroke="#EAEAEA" stroke-width="1.39565" stroke-linecap="round" stroke-linejoin="round"/>
<path d="M172.356 198.023L177.714 200.038" stroke="#EAEAEA" stroke-width="1.39565" stroke-linecap="round" stroke-linejoin="round"/>
<path d="M178.602 108.374L180.499 101.499" stroke="#EAEAEA" stroke-width="1.39565" stroke-linecap="round" stroke-linejoin="round"/>
<path d="M176.035 103.828L183.785 106.161" stroke="#EAEAEA" stroke-width="1.39565" stroke-linecap="round" stroke-linejoin="round"/>
<path d="M190.597 86.8892L192.632 78.0044" stroke="#EAEAEA" stroke-width="1.39565" stroke-linecap="round" stroke-linejoin="round"/>
<path d="M187.879 81.1886C190.797 82.065 193.839 82.4625 196.884 82.3664" stroke="#EAEAEA" stroke-width="1.39565" stroke-linecap="round" stroke-linejoin="round"/>
<path d="M344.009 143.632L344.068 136.762" stroke="#EAEAEA" stroke-width="1.39565" stroke-linecap="round" stroke-linejoin="round"/>
<path d="M339.736 140.704L347.943 140.996" stroke="#EAEAEA" stroke-width="1.39565" stroke-linecap="round" stroke-linejoin="round"/>
<path d="M371.467 121.582L372.991 125.608C373.037 125.73 373.045 125.863 373.013 125.989C372.982 126.115 372.912 126.228 372.814 126.313C372.716 126.399 372.594 126.452 372.465 126.466C372.336 126.48 372.206 126.453 372.092 126.391L368.318 124.32C368.208 124.26 368.083 124.233 367.958 124.244C367.833 124.255 367.713 124.303 367.615 124.382L364.259 127.074C364.158 127.155 364.034 127.203 363.905 127.212C363.775 127.221 363.646 127.19 363.535 127.123C363.423 127.056 363.335 126.957 363.282 126.838C363.229 126.719 363.213 126.587 363.237 126.459L364.037 122.229C364.061 122.105 364.047 121.978 363.998 121.862C363.949 121.746 363.866 121.648 363.761 121.579L360.164 119.218C360.055 119.146 359.971 119.044 359.922 118.923C359.874 118.802 359.863 118.669 359.893 118.543C359.922 118.416 359.989 118.301 360.085 118.214C360.182 118.127 360.302 118.071 360.431 118.055L364.699 117.511C364.824 117.495 364.94 117.443 365.035 117.361C365.13 117.278 365.198 117.169 365.231 117.048L366.364 112.895C366.398 112.769 366.47 112.658 366.57 112.574C366.669 112.491 366.792 112.441 366.921 112.429C367.051 112.418 367.181 112.447 367.293 112.511C367.406 112.576 367.496 112.674 367.551 112.792L369.389 116.685C369.443 116.798 369.529 116.894 369.637 116.958C369.744 117.023 369.869 117.054 369.994 117.049L374.291 116.845C374.421 116.839 374.549 116.873 374.659 116.942C374.769 117.012 374.855 117.112 374.906 117.232C374.957 117.351 374.97 117.484 374.943 117.611C374.916 117.738 374.852 117.854 374.757 117.943L371.626 120.893C371.535 120.979 371.471 121.091 371.442 121.213C371.414 121.336 371.423 121.464 371.467 121.582Z" fill="#FF6900"/>
<path d="M173.765 72.5806L174.322 75.3569C174.339 75.4408 174.33 75.5276 174.296 75.6058C174.262 75.684 174.205 75.7504 174.132 75.7947C174.059 75.8396 173.974 75.8611 173.889 75.8562C173.804 75.8514 173.722 75.8206 173.655 75.7678L171.428 74.0206C171.363 73.9694 171.285 73.9387 171.203 73.9324C171.12 73.9262 171.038 73.9445 170.966 73.985L168.5 75.3719C168.426 75.4134 168.341 75.4313 168.255 75.4233C168.171 75.4149 168.09 75.3808 168.026 75.3256C167.96 75.27 167.914 75.1961 167.892 75.1137C167.87 75.0313 167.875 74.9443 167.904 74.864L168.875 72.2053C168.903 72.1275 168.908 72.0432 168.888 71.963C168.869 71.8827 168.826 71.8102 168.765 71.7544L166.684 69.8356C166.621 69.7776 166.578 69.7019 166.559 69.6183C166.541 69.535 166.548 69.448 166.581 69.3691C166.613 69.2902 166.669 69.2228 166.741 69.1765C166.812 69.1301 166.897 69.1071 166.982 69.1103L169.809 69.2146C169.892 69.2173 169.973 69.1956 170.042 69.1521C170.113 69.1092 170.168 69.0457 170.202 68.9712L171.382 66.3985C171.418 66.3209 171.476 66.2562 171.55 66.2128C171.623 66.1695 171.709 66.1497 171.793 66.1564C171.879 66.1626 171.96 66.1951 172.026 66.2495C172.092 66.3035 172.14 66.3763 172.164 66.4585L172.939 69.1813C172.962 69.2606 173.008 69.3318 173.071 69.3853C173.134 69.4388 173.211 69.4721 173.293 69.4819L176.103 69.8105C176.188 69.8203 176.268 69.8561 176.332 69.9129C176.395 69.9697 176.441 70.0443 176.461 70.1278C176.481 70.2108 176.475 70.2976 176.444 70.3777C176.413 70.4572 176.359 70.5253 176.288 70.5731L173.94 72.1528C173.872 72.1987 173.819 72.2638 173.788 72.3402C173.757 72.4162 173.749 72.5 173.765 72.5806Z" fill="#FF6900"/>
<mask id="path-77-inside-1_2037_1332" fill="white">
<path fill-rule="evenodd" clip-rule="evenodd" d="M73.4275 258.296C71.0862 256.198 68.1964 254.812 65.0964 254.3L65.0966 254.299C67.5231 252.874 69.5589 250.869 71.021 248.463C72.4831 246.057 73.3257 243.325 73.4742 240.513C73.6227 237.7 73.0718 234.895 71.871 232.346C70.7101 229.883 68.977 227.735 66.8179 226.081C70.439 228.679 76.1228 226.695 78.2602 222.74C80.4422 218.701 79.5183 213.545 77.1105 209.631C80.7068 212.433 86.3551 212.113 89.6112 208.928C89.9682 208.584 90.2915 208.206 90.5768 207.8C92.9318 204.532 93.0217 199.699 90.6012 196.436C91.7233 196.841 92.9189 197.003 94.1085 196.911C95.3565 196.832 96.572 196.477 97.6658 195.871C98.76 195.265 99.7058 194.423 100.435 193.407C101.164 192.39 101.658 191.223 101.881 189.992C102.105 188.76 102.052 187.494 101.727 186.285L101.405 186.238C99.3042 182.169 91.4616 185.339 88.2466 189.633C87.8264 190.185 87.4804 190.789 87.2182 191.432C82.4753 188.865 76.1372 191.181 73.2755 195.58C72.3975 196.892 71.8789 198.413 71.7711 199.99C69.7031 199.054 67.3899 198.806 65.1721 199.284C62.9538 199.762 60.9483 200.94 59.4498 202.645C57.9513 204.349 57.0397 206.491 56.8484 208.754C56.6572 211.016 57.197 213.281 58.3881 215.215C54.378 212.737 48.5851 213.742 45.6388 217.417C42.6925 221.092 42.9713 226.964 46.2566 230.353C40.018 229.374 33.3632 233.285 31.1847 239.213C29.0062 245.141 31.5308 252.443 36.9103 255.753C20.5583 260.534 10.4406 280.375 16.1695 296.435C17.8003 301.017 20.6506 305.342 24.859 307.774C28.8157 310.063 34.0843 310.361 37.8885 307.903C29.3858 314.052 24.6841 325.13 26.2419 335.531C27.8453 346.211 35.9641 355.646 46.2876 358.805C56.6111 361.964 68.6122 358.693 75.9026 350.733C69.7293 359.581 75.394 373.494 85.6383 376.872C95.8825 380.249 107.81 373.861 112.195 364.007C110.476 375.261 119.383 387.038 130.677 388.442C141.971 389.846 153.471 380.605 154.543 369.265C156.507 380.419 167.361 389.292 178.67 388.991C189.979 388.69 200.334 379.252 201.694 368.018L201.695 367.893C201.663 367.892 201.631 367.892 201.6 367.891C201.568 367.892 201.536 367.891 201.504 367.891L201.439 367.891C201.361 367.891 201.284 367.891 201.206 367.891C194.11 367.842 186.777 367.452 180.4 364.33C178.694 363.499 176.914 362.229 176.677 360.349C176.485 358.843 177.392 357.377 178.569 356.428C179.516 355.664 180.635 355.159 181.75 354.655C182.022 354.532 182.293 354.41 182.562 354.284C192.175 349.784 199.019 339.865 199.832 329.275C200.061 329.087 200.295 328.901 200.529 328.715L200.586 328.67C200.317 328.704 200.049 328.734 199.777 328.759C193.916 329.342 187.524 329.094 182.392 325.869L182.23 325.615C180.5 326.725 178.772 327.828 177.046 328.927C172.254 331.98 167.37 335.073 161.903 336.611C160.671 336.955 159.268 337.195 158.191 336.504C156.373 335.341 156.828 332.579 157.68 330.594C160.578 323.867 165.483 318.227 170.542 312.928C171.772 311.641 173.016 310.367 174.273 309.104L174.247 309.078C174.343 308.377 174.429 307.68 174.514 306.988L174.515 306.987C174.974 303.264 175.417 299.676 177.368 296.309C178.427 294.545 179.511 292.806 180.618 291.093L179.914 290.634C174.585 290.706 169.333 291.906 164.503 294.157C159.673 296.408 155.375 299.657 151.892 303.692C151.208 304.493 150.396 305.405 149.341 305.363C148.016 305.307 147.285 303.818 146.961 302.532C145.308 295.934 146.921 288.948 149.324 282.585C150.501 279.464 151.883 276.425 153.46 273.487L153.294 273.398C145.526 269.933 135.974 272.945 129.955 278.949C123.937 284.954 120.925 293.374 119.369 301.735C119.151 295.873 113.07 291.475 107.207 291.426C101.343 291.376 95.928 294.638 91.5606 298.551C94.7778 294.109 93.1723 287.259 88.7925 283.953C84.4127 280.646 78.094 280.664 73.1965 283.135C75.5761 281.084 77.3222 278.396 78.2285 275.387C79.1349 272.377 79.1651 269.17 78.3144 266.143C77.4641 263.116 75.7691 260.394 73.4275 258.296ZM37.8885 307.903C38.1095 307.737 38.3399 307.579 38.5701 307.423L38.5706 307.422L38.586 307.412C38.3633 307.587 38.1269 307.752 37.8885 307.903ZM143.588 324.292C140.96 320.555 136.833 317.509 132.141 317.274C127.916 317.063 123.413 319.664 122.051 323.696C120.809 322.27 119.22 321.178 117.429 320.53C115.203 319.725 112.781 319.648 110.509 320.309C108.238 320.971 106.236 322.337 104.791 324.211C103.346 326.085 102.534 328.37 102.471 330.737C102.461 331.092 102.741 331.388 103.096 331.398C103.45 331.407 103.746 331.127 103.755 330.772C103.811 328.678 104.53 326.655 105.809 324.997C107.087 323.338 108.859 322.129 110.869 321.544C112.879 320.959 115.023 321.027 116.993 321.739C118.962 322.452 120.655 323.772 121.827 325.508C121.975 325.728 122.243 325.834 122.502 325.775C122.76 325.717 122.956 325.506 122.995 325.243C123.587 321.251 127.895 318.349 132.077 318.559C136.251 318.768 140.055 321.503 142.537 325.032C142.741 325.323 143.142 325.393 143.432 325.189C143.722 324.984 143.792 324.583 143.588 324.292ZM53.2564 300.45C53.4391 300.754 53.3413 301.149 53.0374 301.332C51.3716 302.336 50.0106 303.775 49.1006 305.494C48.1905 307.214 47.7658 309.149 47.8715 311.092C47.9771 313.036 48.6099 314.914 49.7009 316.526C50.7925 318.137 52.3019 319.421 54.0665 320.24C54.873 320.614 55.8183 320.836 56.6672 320.797C57.5115 320.758 58.1959 320.467 58.6229 319.887C58.7978 319.65 59.111 319.563 59.3831 319.674C59.6556 319.786 59.8179 320.068 59.7763 320.36C59.3894 323.09 59.7886 325.875 60.9282 328.387C62.0672 330.899 63.8983 333.034 66.2072 334.541C68.5156 336.048 71.2058 336.865 73.9615 336.896C76.7167 336.927 79.4236 336.17 81.7633 334.715C82.0647 334.527 82.4612 334.62 82.6483 334.921C82.8359 335.223 82.7437 335.619 82.4423 335.807C79.8947 337.391 76.9478 338.215 73.9479 338.182C70.9477 338.148 68.019 337.259 65.5057 335.618C62.9919 333.977 60.998 331.653 59.7577 328.918C58.7293 326.649 58.2542 324.176 58.3628 321.702C57.8502 321.94 57.2879 322.056 56.7275 322.082C55.6338 322.132 54.4831 321.85 53.5267 321.406C51.5502 320.489 49.8598 319.052 48.6378 317.247C47.4153 315.442 46.7067 313.338 46.5881 311.162C46.47 308.985 46.9456 306.817 47.9652 304.892C48.9845 302.966 50.5088 301.355 52.3741 300.23C52.678 300.048 53.0732 300.146 53.2564 300.45ZM56.1651 257.204C55.8285 257.09 55.4642 257.271 55.3508 257.607C55.2374 257.944 55.418 258.309 55.7541 258.422C56.7677 258.765 57.6692 259.377 58.3626 260.193C59.056 261.009 59.5149 261.997 59.6904 263.054C59.8659 264.11 59.7513 265.194 59.3589 266.19C58.967 267.185 58.3117 268.056 57.4634 268.708C57.2645 268.861 57.1724 269.115 57.2283 269.36C57.2839 269.605 57.477 269.795 57.7224 269.847C59.2087 270.161 60.5719 270.903 61.6432 271.981C62.715 273.059 63.4487 274.427 63.7546 275.916C64.0605 277.406 63.9254 278.952 63.3654 280.365C62.8053 281.778 61.8454 282.996 60.6025 283.87C60.3126 284.074 60.2425 284.476 60.4469 284.766C60.6509 285.057 61.0515 285.127 61.3419 284.923C62.789 283.905 63.9074 282.486 64.56 280.84C65.2121 279.194 65.3696 277.393 65.0136 275.658C64.6571 273.924 63.8022 272.33 62.5542 271.074C61.5889 270.103 60.4208 269.366 59.1399 268.913C59.7448 268.26 60.2256 267.497 60.5548 266.662C61.0324 265.449 61.1716 264.13 60.9581 262.843C60.7441 261.558 60.1856 260.353 59.341 259.36C58.4969 258.367 57.3989 257.622 56.1651 257.204Z"/>
</mask>
<path fill-rule="evenodd" clip-rule="evenodd" d="M73.4275 258.296C71.0862 256.198 68.1964 254.812 65.0964 254.3L65.0966 254.299C67.5231 252.874 69.5589 250.869 71.021 248.463C72.4831 246.057 73.3257 243.325 73.4742 240.513C73.6227 237.7 73.0718 234.895 71.871 232.346C70.7101 229.883 68.977 227.735 66.8179 226.081C70.439 228.679 76.1228 226.695 78.2602 222.74C80.4422 218.701 79.5183 213.545 77.1105 209.631C80.7068 212.433 86.3551 212.113 89.6112 208.928C89.9682 208.584 90.2915 208.206 90.5768 207.8C92.9318 204.532 93.0217 199.699 90.6012 196.436C91.7233 196.841 92.9189 197.003 94.1085 196.911C95.3565 196.832 96.572 196.477 97.6658 195.871C98.76 195.265 99.7058 194.423 100.435 193.407C101.164 192.39 101.658 191.223 101.881 189.992C102.105 188.76 102.052 187.494 101.727 186.285L101.405 186.238C99.3042 182.169 91.4616 185.339 88.2466 189.633C87.8264 190.185 87.4804 190.789 87.2182 191.432C82.4753 188.865 76.1372 191.181 73.2755 195.58C72.3975 196.892 71.8789 198.413 71.7711 199.99C69.7031 199.054 67.3899 198.806 65.1721 199.284C62.9538 199.762 60.9483 200.94 59.4498 202.645C57.9513 204.349 57.0397 206.491 56.8484 208.754C56.6572 211.016 57.197 213.281 58.3881 215.215C54.378 212.737 48.5851 213.742 45.6388 217.417C42.6925 221.092 42.9713 226.964 46.2566 230.353C40.018 229.374 33.3632 233.285 31.1847 239.213C29.0062 245.141 31.5308 252.443 36.9103 255.753C20.5583 260.534 10.4406 280.375 16.1695 296.435C17.8003 301.017 20.6506 305.342 24.859 307.774C28.8157 310.063 34.0843 310.361 37.8885 307.903C29.3858 314.052 24.6841 325.13 26.2419 335.531C27.8453 346.211 35.9641 355.646 46.2876 358.805C56.6111 361.964 68.6122 358.693 75.9026 350.733C69.7293 359.581 75.394 373.494 85.6383 376.872C95.8825 380.249 107.81 373.861 112.195 364.007C110.476 375.261 119.383 387.038 130.677 388.442C141.971 389.846 153.471 380.605 154.543 369.265C156.507 380.419 167.361 389.292 178.67 388.991C189.979 388.69 200.334 379.252 201.694 368.018L201.695 367.893C201.663 367.892 201.631 367.892 201.6 367.891C201.568 367.892 201.536 367.891 201.504 367.891L201.439 367.891C201.361 367.891 201.284 367.891 201.206 367.891C194.11 367.842 186.777 367.452 180.4 364.33C178.694 363.499 176.914 362.229 176.677 360.349C176.485 358.843 177.392 357.377 178.569 356.428C179.516 355.664 180.635 355.159 181.75 354.655C182.022 354.532 182.293 354.41 182.562 354.284C192.175 349.784 199.019 339.865 199.832 329.275C200.061 329.087 200.295 328.901 200.529 328.715L200.586 328.67C200.317 328.704 200.049 328.734 199.777 328.759C193.916 329.342 187.524 329.094 182.392 325.869L182.23 325.615C180.5 326.725 178.772 327.828 177.046 328.927C172.254 331.98 167.37 335.073 161.903 336.611C160.671 336.955 159.268 337.195 158.191 336.504C156.373 335.341 156.828 332.579 157.68 330.594C160.578 323.867 165.483 318.227 170.542 312.928C171.772 311.641 173.016 310.367 174.273 309.104L174.247 309.078C174.343 308.377 174.429 307.68 174.514 306.988L174.515 306.987C174.974 303.264 175.417 299.676 177.368 296.309C178.427 294.545 179.511 292.806 180.618 291.093L179.914 290.634C174.585 290.706 169.333 291.906 164.503 294.157C159.673 296.408 155.375 299.657 151.892 303.692C151.208 304.493 150.396 305.405 149.341 305.363C148.016 305.307 147.285 303.818 146.961 302.532C145.308 295.934 146.921 288.948 149.324 282.585C150.501 279.464 151.883 276.425 153.46 273.487L153.294 273.398C145.526 269.933 135.974 272.945 129.955 278.949C123.937 284.954 120.925 293.374 119.369 301.735C119.151 295.873 113.07 291.475 107.207 291.426C101.343 291.376 95.928 294.638 91.5606 298.551C94.7778 294.109 93.1723 287.259 88.7925 283.953C84.4127 280.646 78.094 280.664 73.1965 283.135C75.5761 281.084 77.3222 278.396 78.2285 275.387C79.1349 272.377 79.1651 269.17 78.3144 266.143C77.4641 263.116 75.7691 260.394 73.4275 258.296ZM37.8885 307.903C38.1095 307.737 38.3399 307.579 38.5701 307.423L38.5706 307.422L38.586 307.412C38.3633 307.587 38.1269 307.752 37.8885 307.903ZM143.588 324.292C140.96 320.555 136.833 317.509 132.141 317.274C127.916 317.063 123.413 319.664 122.051 323.696C120.809 322.27 119.22 321.178 117.429 320.53C115.203 319.725 112.781 319.648 110.509 320.309C108.238 320.971 106.236 322.337 104.791 324.211C103.346 326.085 102.534 328.37 102.471 330.737C102.461 331.092 102.741 331.388 103.096 331.398C103.45 331.407 103.746 331.127 103.755 330.772C103.811 328.678 104.53 326.655 105.809 324.997C107.087 323.338 108.859 322.129 110.869 321.544C112.879 320.959 115.023 321.027 116.993 321.739C118.962 322.452 120.655 323.772 121.827 325.508C121.975 325.728 122.243 325.834 122.502 325.775C122.76 325.717 122.956 325.506 122.995 325.243C123.587 321.251 127.895 318.349 132.077 318.559C136.251 318.768 140.055 321.503 142.537 325.032C142.741 325.323 143.142 325.393 143.432 325.189C143.722 324.984 143.792 324.583 143.588 324.292ZM53.2564 300.45C53.4391 300.754 53.3413 301.149 53.0374 301.332C51.3716 302.336 50.0106 303.775 49.1006 305.494C48.1905 307.214 47.7658 309.149 47.8715 311.092C47.9771 313.036 48.6099 314.914 49.7009 316.526C50.7925 318.137 52.3019 319.421 54.0665 320.24C54.873 320.614 55.8183 320.836 56.6672 320.797C57.5115 320.758 58.1959 320.467 58.6229 319.887C58.7978 319.65 59.111 319.563 59.3831 319.674C59.6556 319.786 59.8179 320.068 59.7763 320.36C59.3894 323.09 59.7886 325.875 60.9282 328.387C62.0672 330.899 63.8983 333.034 66.2072 334.541C68.5156 336.048 71.2058 336.865 73.9615 336.896C76.7167 336.927 79.4236 336.17 81.7633 334.715C82.0647 334.527 82.4612 334.62 82.6483 334.921C82.8359 335.223 82.7437 335.619 82.4423 335.807C79.8947 337.391 76.9478 338.215 73.9479 338.182C70.9477 338.148 68.019 337.259 65.5057 335.618C62.9919 333.977 60.998 331.653 59.7577 328.918C58.7293 326.649 58.2542 324.176 58.3628 321.702C57.8502 321.94 57.2879 322.056 56.7275 322.082C55.6338 322.132 54.4831 321.85 53.5267 321.406C51.5502 320.489 49.8598 319.052 48.6378 317.247C47.4153 315.442 46.7067 313.338 46.5881 311.162C46.47 308.985 46.9456 306.817 47.9652 304.892C48.9845 302.966 50.5088 301.355 52.3741 300.23C52.678 300.048 53.0732 300.146 53.2564 300.45ZM56.1651 257.204C55.8285 257.09 55.4642 257.271 55.3508 257.607C55.2374 257.944 55.418 258.309 55.7541 258.422C56.7677 258.765 57.6692 259.377 58.3626 260.193C59.056 261.009 59.5149 261.997 59.6904 263.054C59.8659 264.11 59.7513 265.194 59.3589 266.19C58.967 267.185 58.3117 268.056 57.4634 268.708C57.2645 268.861 57.1724 269.115 57.2283 269.36C57.2839 269.605 57.477 269.795 57.7224 269.847C59.2087 270.161 60.5719 270.903 61.6432 271.981C62.715 273.059 63.4487 274.427 63.7546 275.916C64.0605 277.406 63.9254 278.952 63.3654 280.365C62.8053 281.778 61.8454 282.996 60.6025 283.87C60.3126 284.074 60.2425 284.476 60.4469 284.766C60.6509 285.057 61.0515 285.127 61.3419 284.923C62.789 283.905 63.9074 282.486 64.56 280.84C65.2121 279.194 65.3696 277.393 65.0136 275.658C64.6571 273.924 63.8022 272.33 62.5542 271.074C61.5889 270.103 60.4208 269.366 59.1399 268.913C59.7448 268.26 60.2256 267.497 60.5548 266.662C61.0324 265.449 61.1716 264.13 60.9581 262.843C60.7441 261.558 60.1856 260.353 59.341 259.36C58.4969 258.367 57.3989 257.622 56.1651 257.204Z" fill="#EAEAEA"/>
<path d="M73.4275 258.296L73.1071 258.654L73.1071 258.654L73.4275 258.296ZM65.0964 254.3L64.6211 254.23L64.553 254.697L65.0185 254.774L65.0964 254.3ZM65.0966 254.299L64.8531 253.885L64.6545 254.002L64.6212 254.23L65.0966 254.299ZM73.4742 240.513L72.9945 240.487L72.9945 240.487L73.4742 240.513ZM71.871 232.346L71.4365 232.551L71.4365 232.551L71.871 232.346ZM66.8179 226.081L67.0977 225.69L66.526 226.462L66.8179 226.081ZM78.2602 222.74L78.6828 222.968L78.6828 222.968L78.2602 222.74ZM77.1105 209.631L77.4056 209.252L76.7015 209.882L77.1105 209.631ZM89.6112 208.928L89.2775 208.583L89.2753 208.585L89.6112 208.928ZM90.5768 207.8L90.187 207.519L90.1839 207.524L90.5768 207.8ZM90.6012 196.436L90.7641 195.984L89.267 195.443L90.2155 196.722L90.6012 196.436ZM94.1085 196.911L94.0778 196.432L94.0711 196.432L94.1085 196.911ZM97.6658 195.871L97.4328 195.451L97.4328 195.451L97.6658 195.871ZM100.435 193.407L100.825 193.687L100.825 193.687L100.435 193.407ZM101.727 186.285L102.191 186.161L102.109 185.856L101.796 185.81L101.727 186.285ZM101.405 186.238L100.978 186.458L101.091 186.678L101.335 186.714L101.405 186.238ZM88.2466 189.633L88.6289 189.925L88.6312 189.922L88.2466 189.633ZM87.2182 191.432L86.9899 191.854L87.4608 192.109L87.663 191.614L87.2182 191.432ZM73.2755 195.58L73.6749 195.847L73.6782 195.842L73.2755 195.58ZM71.7711 199.99L71.5733 200.428L72.2032 200.713L72.2504 200.023L71.7711 199.99ZM65.1721 199.284L65.2736 199.754L65.2736 199.754L65.1721 199.284ZM56.8484 208.754L56.3697 208.713L56.3697 208.713L56.8484 208.754ZM58.3881 215.215L58.1359 215.624L58.7971 214.963L58.3881 215.215ZM46.2566 230.353L46.1825 230.828L47.6014 231.05L46.6014 230.019L46.2566 230.353ZM36.9103 255.753L37.0454 256.214L38.0832 255.91L37.1618 255.343L36.9103 255.753ZM16.1695 296.435L16.622 296.274L16.6219 296.273L16.1695 296.435ZM24.859 307.774L25.0992 307.358L25.099 307.358L24.859 307.774ZM26.2419 335.531L25.7668 335.601L25.7668 335.602L26.2419 335.531ZM75.9026 350.733L76.2966 351.009L75.5483 350.409L75.9026 350.733ZM112.195 364.007L112.669 364.08L111.756 363.811L112.195 364.007ZM154.543 369.265L155.016 369.182L154.065 369.219L154.543 369.265ZM201.694 368.018L202.171 368.077L202.174 368.049L202.174 368.022L201.694 368.018ZM201.695 367.893L202.175 367.897L202.178 367.422L201.705 367.412L201.695 367.893ZM201.6 367.891L201.609 367.411L201.595 367.411L201.6 367.891ZM201.504 367.891L201.506 367.411L201.504 367.411L201.504 367.891ZM201.439 367.891L201.439 367.411L201.438 367.411L201.439 367.891ZM201.206 367.891L201.21 367.41L201.209 367.41L201.206 367.891ZM180.4 364.33L180.611 363.898L180.61 363.898L180.4 364.33ZM176.677 360.349L177.154 360.289L177.154 360.288L176.677 360.349ZM178.569 356.428L178.268 356.053L178.268 356.053L178.569 356.428ZM181.75 354.655L181.552 354.217L181.552 354.217L181.75 354.655ZM182.562 354.284L182.358 353.849L182.358 353.849L182.562 354.284ZM199.832 329.275L199.528 328.903L199.368 329.033L199.353 329.238L199.832 329.275ZM200.529 328.715L200.23 328.339L200.23 328.339L200.529 328.715ZM200.586 328.67L200.885 329.046L202.237 327.975L200.525 328.193L200.586 328.67ZM199.777 328.759L199.732 328.28L199.729 328.281L199.777 328.759ZM182.392 325.869L181.988 326.128L182.046 326.218L182.137 326.275L182.392 325.869ZM182.23 325.615L182.634 325.356L182.374 324.951L181.97 325.211L182.23 325.615ZM177.046 328.927L176.787 328.521L176.787 328.521L177.046 328.927ZM161.903 336.611L162.032 337.074L162.033 337.073L161.903 336.611ZM158.191 336.504L158.45 336.1L158.449 336.1L158.191 336.504ZM157.68 330.594L157.239 330.403L157.238 330.404L157.68 330.594ZM170.542 312.928L170.194 312.596L170.194 312.596L170.542 312.928ZM174.273 309.104L174.614 309.443L174.955 309.1L174.61 308.761L174.273 309.104ZM174.247 309.078L173.771 309.012L173.738 309.252L173.91 309.421L174.247 309.078ZM174.514 306.988L174.039 306.919L174.038 306.929L174.514 306.988ZM174.515 306.987L174.99 307.057L174.991 307.046L174.515 306.987ZM177.368 296.309L176.956 296.062L176.952 296.068L177.368 296.309ZM180.618 291.093L181.021 291.354L181.281 290.952L180.88 290.69L180.618 291.093ZM179.914 290.634L180.176 290.232L180.053 290.152L179.907 290.154L179.914 290.634ZM164.503 294.157L164.3 293.722L164.3 293.722L164.503 294.157ZM151.892 303.692L151.529 303.378L151.527 303.38L151.892 303.692ZM149.341 305.363L149.321 305.843L149.322 305.843L149.341 305.363ZM146.961 302.532L146.495 302.648L146.495 302.648L146.961 302.532ZM149.324 282.585L149.773 282.755L149.773 282.755L149.324 282.585ZM153.46 273.487L153.883 273.715L154.109 273.293L153.688 273.065L153.46 273.487ZM153.294 273.398L153.522 272.975L153.506 272.966L153.489 272.959L153.294 273.398ZM119.369 301.735L118.889 301.753L119.841 301.824L119.369 301.735ZM91.5606 298.551L91.1716 298.269L91.8813 298.909L91.5606 298.551ZM73.1965 283.135L72.8828 282.771L73.4132 283.564L73.1965 283.135ZM78.2285 275.387L78.6885 275.526L78.6885 275.526L78.2285 275.387ZM78.3144 266.143L77.8519 266.273L77.852 266.273L78.3144 266.143ZM38.5701 307.423L38.8407 307.82L38.8536 307.811L38.866 307.801L38.5701 307.423ZM38.5706 307.422L38.3033 307.023L38.2887 307.033L38.2748 307.043L38.5706 307.422ZM38.586 307.412L38.8833 307.79L38.3186 307.013L38.586 307.412ZM143.588 324.292L143.981 324.017L143.981 324.016L143.588 324.292ZM132.141 317.274L132.165 316.794L132.165 316.794L132.141 317.274ZM122.051 323.696L121.689 324.011L122.239 324.642L122.506 323.85L122.051 323.696ZM117.429 320.53L117.592 320.078L117.592 320.078L117.429 320.53ZM110.509 320.309L110.375 319.848L110.375 319.848L110.509 320.309ZM104.791 324.211L105.172 324.505L105.172 324.505L104.791 324.211ZM102.471 330.737L102.951 330.751L102.951 330.75L102.471 330.737ZM103.096 331.398L103.082 331.878L103.083 331.878L103.096 331.398ZM103.755 330.772L103.275 330.759L103.275 330.759L103.755 330.772ZM116.993 321.739L117.156 321.287L117.156 321.287L116.993 321.739ZM121.827 325.508L121.429 325.777L121.429 325.777L121.827 325.508ZM122.502 325.775L122.396 325.307L122.395 325.307L122.502 325.775ZM122.995 325.243L123.47 325.315L123.47 325.314L122.995 325.243ZM132.077 318.559L132.101 318.079L132.101 318.079L132.077 318.559ZM142.537 325.032L142.93 324.756L142.93 324.756L142.537 325.032ZM143.432 325.189L143.709 325.582L143.709 325.581L143.432 325.189ZM53.2564 300.45L53.668 300.203L53.6678 300.202L53.2564 300.45ZM53.0374 301.332L53.2855 301.744L53.2856 301.744L53.0374 301.332ZM49.1006 305.494L48.676 305.269L48.676 305.269L49.1006 305.494ZM47.8715 311.092L48.3511 311.066L48.3511 311.066L47.8715 311.092ZM49.7009 316.526L49.3032 316.795L49.3033 316.795L49.7009 316.526ZM54.0665 320.24L53.8646 320.675L53.8647 320.675L54.0665 320.24ZM56.6672 320.797L56.6446 320.317L56.6446 320.317L56.6672 320.797ZM58.6229 319.887L58.2363 319.602L58.236 319.602L58.6229 319.887ZM59.3831 319.674L59.5654 319.23L59.5649 319.229L59.3831 319.674ZM59.7763 320.36L59.3007 320.292L59.3007 320.292L59.7763 320.36ZM60.9282 328.387L61.3656 328.189L61.3656 328.189L60.9282 328.387ZM66.2072 334.541L66.4696 334.138L66.4695 334.138L66.2072 334.541ZM73.9615 336.896L73.9565 337.376L73.9565 337.376L73.9615 336.896ZM81.7633 334.715L82.0172 335.123L82.0173 335.123L81.7633 334.715ZM82.6483 334.921L82.2402 335.174L82.2404 335.175L82.6483 334.921ZM82.4423 335.807L82.6962 336.215L82.6963 336.215L82.4423 335.807ZM73.9479 338.182L73.9429 338.662L73.943 338.662L73.9479 338.182ZM65.5057 335.618L65.2433 336.02L65.2433 336.02L65.5057 335.618ZM59.7577 328.918L59.3203 329.116L59.3203 329.116L59.7577 328.918ZM58.3628 321.702L58.8427 321.724L58.8773 320.934L58.1605 321.266L58.3628 321.702ZM56.7275 322.082L56.75 322.562L56.7503 322.562L56.7275 322.082ZM53.5267 321.406L53.3248 321.842L53.3249 321.842L53.5267 321.406ZM48.6378 317.247L49.0355 316.978L49.0354 316.977L48.6378 317.247ZM46.5881 311.162L46.1084 311.187L46.1084 311.188L46.5881 311.162ZM47.9652 304.892L48.3898 305.117L48.3898 305.117L47.9652 304.892ZM52.3741 300.23L52.1264 299.818L52.126 299.819L52.3741 300.23ZM56.1651 257.204L56.3187 256.749L56.3186 256.749L56.1651 257.204ZM55.7541 258.422L55.6006 258.878L55.6006 258.878L55.7541 258.422ZM59.6904 263.054L59.2165 263.132L59.2165 263.132L59.6904 263.054ZM59.3589 266.19L58.912 266.013L58.9119 266.013L59.3589 266.19ZM57.4634 268.708L57.1705 268.327L57.1704 268.327L57.4634 268.708ZM57.2283 269.36L57.6968 269.254L57.6966 269.253L57.2283 269.36ZM57.7224 269.847L57.6231 270.317L57.6235 270.317L57.7224 269.847ZM61.6432 271.981L61.3026 272.319L61.3027 272.319L61.6432 271.981ZM63.3654 280.365L62.9188 280.187L62.9188 280.187L63.3654 280.365ZM60.6025 283.87L60.326 283.477L60.3259 283.477L60.6025 283.87ZM60.4469 284.766L60.8401 284.49L60.8396 284.49L60.4469 284.766ZM61.3419 284.923L61.6182 285.316L61.6185 285.316L61.3419 284.923ZM64.56 280.84L65.0066 281.017L65.0066 281.017L64.56 280.84ZM65.0136 275.658L65.4841 275.562L65.4841 275.562L65.0136 275.658ZM62.5542 271.074L62.2136 271.413L62.2136 271.413L62.5542 271.074ZM59.1399 268.913L58.7874 268.586L58.2912 269.122L58.9799 269.366L59.1399 268.913ZM60.5548 266.662L61.0017 266.839L61.0017 266.839L60.5548 266.662ZM60.9581 262.843L61.432 262.765L61.432 262.765L60.9581 262.843ZM59.341 259.36L58.9751 259.671L58.9752 259.671L59.341 259.36ZM73.4275 258.296L73.7478 257.938C71.3385 255.779 68.3645 254.353 65.1744 253.826L65.0964 254.3L65.0185 254.774C68.0282 255.271 70.834 256.617 73.1071 258.654L73.4275 258.296ZM65.0964 254.3L65.5718 254.37L65.5719 254.369L65.0966 254.299L64.6212 254.23L64.6211 254.23L65.0964 254.3ZM65.0966 254.299L65.3401 254.714C67.835 253.248 69.9282 251.187 71.4316 248.713L71.021 248.463L70.6105 248.213C69.1896 250.551 67.2112 252.5 64.8531 253.885L65.0966 254.299ZM71.021 248.463L71.4316 248.713C72.9349 246.239 73.8012 243.43 73.9539 240.539L73.4742 240.513L72.9945 240.487C72.8502 243.221 72.0314 245.875 70.6105 248.213L71.021 248.463ZM73.4742 240.513L73.9539 240.539C74.1066 237.647 73.5402 234.762 72.3055 232.142L71.871 232.346L71.4365 232.551C72.6035 235.027 73.1388 237.754 72.9945 240.487L73.4742 240.513ZM71.871 232.346L72.3055 232.142C71.1118 229.609 69.3299 227.4 67.1098 225.699L66.8179 226.081L66.526 226.462C68.6241 228.07 70.3083 230.157 71.4365 232.551L71.871 232.346ZM66.8179 226.081L66.5381 226.471C68.4996 227.878 70.9909 228.025 73.2384 227.327C75.4848 226.628 77.5479 225.069 78.6828 222.968L78.2602 222.74L77.8375 222.511C76.8351 224.366 74.9877 225.776 72.9525 226.409C70.9184 227.041 68.7573 226.881 67.0977 225.69L66.8179 226.081ZM78.2602 222.74L78.6828 222.968C80.974 218.728 79.9821 213.382 77.5196 209.379L77.1105 209.631L76.7015 209.882C79.0545 213.707 79.9104 218.674 77.8375 222.511L78.2602 222.74ZM77.1105 209.631L76.8155 210.01C80.6017 212.96 86.5196 212.624 89.9472 209.272L89.6112 208.928L89.2753 208.585C86.1907 211.602 80.8119 211.906 77.4056 209.252L77.1105 209.631ZM89.6112 208.928L89.945 209.274C90.3239 208.909 90.667 208.507 90.9697 208.077L90.5768 207.8L90.1839 207.524C89.916 207.904 89.6124 208.259 89.2775 208.583L89.6112 208.928ZM90.5768 207.8L90.9666 208.081C93.4371 204.653 93.5388 199.59 90.9869 196.15L90.6012 196.436L90.2155 196.722C92.5046 199.808 92.4264 204.412 90.1871 207.519L90.5768 207.8ZM90.6012 196.436L90.4384 196.888C91.6246 197.316 92.8884 197.487 94.1458 197.39L94.1085 196.911L94.0711 196.432C92.9493 196.519 91.822 196.366 90.7641 195.984L90.6012 196.436ZM94.1085 196.911L94.1391 197.391C95.4581 197.307 96.7427 196.932 97.8988 196.291L97.6658 195.871L97.4328 195.451C96.4013 196.022 95.2549 196.357 94.0779 196.432L94.1085 196.911ZM97.6658 195.871L97.8987 196.292C99.0552 195.651 100.055 194.761 100.825 193.687L100.435 193.407L100.044 193.126C99.3568 194.085 98.4648 194.879 97.4328 195.451L97.6658 195.871ZM100.435 193.407L100.825 193.687C101.596 192.612 102.118 191.379 102.354 190.078L101.881 189.992L101.409 189.906C101.198 191.067 100.732 192.167 100.044 193.126L100.435 193.407ZM101.881 189.992L102.354 190.078C102.59 188.776 102.534 187.438 102.191 186.161L101.727 186.285L101.263 186.41C101.569 187.55 101.619 188.744 101.409 189.906L101.881 189.992ZM101.727 186.285L101.796 185.81L101.474 185.763L101.405 186.238L101.335 186.714L101.657 186.761L101.727 186.285ZM101.405 186.238L101.831 186.018C101.228 184.85 100.207 184.207 99.005 183.976C97.8201 183.748 96.4578 183.916 95.0999 184.341C92.3878 185.189 89.5355 187.11 87.862 189.345L88.2466 189.633L88.6312 189.922C90.1727 187.863 92.8491 186.052 95.3872 185.258C96.6544 184.862 97.8475 184.732 98.8243 184.92C99.7841 185.105 100.531 185.592 100.978 186.458L101.405 186.238ZM88.2466 189.633L87.8644 189.342C87.4188 189.927 87.0517 190.568 86.7734 191.25L87.2182 191.432L87.663 191.614C87.9091 191.011 88.234 190.443 88.6289 189.925L88.2466 189.633ZM87.2182 191.432L87.4465 191.009C82.4392 188.3 75.8417 190.754 72.8728 195.317L73.2755 195.58L73.6782 195.842C76.4328 191.608 82.5113 189.431 86.9899 191.854L87.2182 191.432ZM73.2755 195.58L72.8762 195.312C71.9514 196.695 71.4054 198.296 71.2919 199.957L71.7711 199.99L72.2504 200.023C72.3525 198.53 72.8435 197.09 73.6748 195.847L73.2755 195.58ZM71.7711 199.99L71.9689 199.552C69.8071 198.574 67.389 198.315 65.0705 198.815L65.1721 199.284L65.2736 199.754C67.3908 199.298 69.5991 199.534 71.5733 200.428L71.7711 199.99ZM65.1721 199.284L65.0706 198.815C62.7517 199.314 60.6553 200.546 59.089 202.327L59.4498 202.645L59.8107 202.962C61.2413 201.335 63.1559 200.21 65.2736 199.754L65.1721 199.284ZM59.4498 202.645L59.089 202.327C57.5226 204.109 56.5697 206.347 56.3697 208.713L56.8484 208.754L57.3271 208.794C57.5097 206.634 58.3801 204.589 59.8107 202.962L59.4498 202.645ZM56.8484 208.754L56.3697 208.713C56.1698 211.078 56.7341 213.445 57.9792 215.467L58.3881 215.215L58.7971 214.963C57.6598 213.117 57.1445 210.954 57.3271 208.794L56.8484 208.754ZM58.3881 215.215L58.6404 214.806C54.4232 212.2 48.3615 213.253 45.2639 217.117L45.6388 217.417L46.0136 217.718C48.8087 214.232 54.3328 213.274 58.1359 215.624L58.3881 215.215ZM45.6388 217.417L45.2639 217.117C42.166 220.981 42.4581 227.124 45.9118 230.687L46.2566 230.353L46.6014 230.019C43.4845 226.803 43.2189 221.204 46.0136 217.718L45.6388 217.417ZM46.2566 230.353L46.3308 229.878C39.8659 228.864 32.9913 232.904 30.7338 239.047L31.1847 239.213L31.6356 239.379C33.7351 233.666 40.1702 229.884 46.1825 230.828L46.2566 230.353ZM31.1847 239.213L30.7338 239.047C28.4765 245.189 31.084 252.732 36.6588 256.162L36.9103 255.753L37.1618 255.343C31.9775 252.154 29.5358 245.093 31.6356 239.379L31.1847 239.213ZM36.9103 255.753L36.7752 255.291C28.4527 257.725 21.739 263.982 17.8316 271.646C13.9242 279.31 12.8013 288.422 15.7171 296.596L16.1695 296.435L16.6219 296.273C13.8088 288.388 14.8803 279.55 18.6876 272.083C22.4948 264.616 29.016 258.562 37.0454 256.214L36.9103 255.753ZM16.1695 296.435L15.717 296.595C17.3713 301.244 20.2793 305.683 24.6189 308.19L24.859 307.774L25.099 307.358C21.0218 305.002 18.2293 300.79 16.622 296.274L16.1695 296.435ZM24.859 307.774L24.6187 308.19C28.6994 310.551 34.1648 310.881 38.1493 308.307L37.8885 307.903L37.6276 307.5C34.0037 309.841 28.932 309.576 25.0992 307.358L24.859 307.774ZM37.8885 307.903L37.6068 307.514C28.9599 313.767 24.1822 325.022 25.7668 335.601L26.2419 335.531L26.717 335.46C25.1859 325.238 29.8118 314.337 38.1701 308.293L37.8885 307.903ZM26.2419 335.531L25.7668 335.602C27.3977 346.464 35.6464 356.051 46.1474 359.264L46.2876 358.805L46.4278 358.345C36.2818 355.241 28.2929 345.957 26.7169 335.46L26.2419 335.531ZM46.2876 358.805L46.1474 359.264C56.648 362.478 68.8415 359.155 76.257 351.058L75.9026 350.733L75.5483 350.409C68.3829 358.232 56.5742 361.45 46.4278 358.345L46.2876 358.805ZM75.9026 350.733L75.5087 350.458C72.3098 355.043 72.1976 360.908 74.1655 366.026C76.1329 371.143 80.2061 375.587 85.4882 377.328L85.6383 376.872L85.7883 376.416C80.8262 374.78 76.9448 370.578 75.0622 365.682C73.1799 360.786 73.3221 355.271 76.2966 351.009L75.9026 350.733ZM85.6383 376.872L85.4882 377.328C96.0044 380.795 108.165 374.244 112.633 364.202L112.195 364.007L111.756 363.811C107.454 373.479 95.7607 379.703 85.7883 376.416L85.6383 376.872ZM112.195 364.007L111.72 363.934C109.96 375.456 119.056 387.482 130.618 388.919L130.677 388.442L130.736 387.966C119.711 386.595 110.992 375.067 112.669 364.08L112.195 364.007ZM130.677 388.442L130.618 388.919C142.181 390.356 153.924 380.92 155.021 369.311L154.543 369.265L154.065 369.219C153.018 380.291 141.761 389.336 130.736 387.966L130.677 388.442ZM154.543 369.265L154.07 369.348C156.076 380.736 167.136 389.778 178.683 389.471L178.67 388.991L178.657 388.511C167.586 388.805 156.939 380.101 155.016 369.182L154.543 369.265ZM178.67 388.991L178.683 389.471C190.23 389.164 200.782 379.546 202.171 368.077L201.694 368.018L201.217 367.96C199.885 378.958 189.727 388.216 178.657 388.511L178.67 388.991ZM201.694 368.018L202.174 368.022L202.175 367.897L201.695 367.893L201.214 367.889L201.214 368.015L201.694 368.018ZM201.695 367.893L201.705 367.412C201.693 367.412 201.609 367.411 201.609 367.411L201.6 367.891L201.591 368.372C201.653 368.373 201.633 368.372 201.685 368.373L201.695 367.893ZM201.6 367.891L201.595 367.411C201.568 367.411 201.54 367.411 201.506 367.411L201.504 367.891L201.502 368.372C201.532 368.372 201.568 368.372 201.604 368.372L201.6 367.891ZM201.504 367.891L201.504 367.411L201.439 367.411L201.439 367.891L201.439 368.372L201.504 368.372L201.504 367.891ZM201.439 367.891L201.438 367.411C201.361 367.411 201.286 367.411 201.21 367.41L201.206 367.891L201.202 368.371C201.282 368.372 201.362 368.372 201.441 368.372L201.439 367.891ZM201.206 367.891L201.209 367.41C194.113 367.362 186.88 366.968 180.611 363.898L180.4 364.33L180.189 364.761C186.674 367.936 194.107 368.323 201.203 368.371L201.206 367.891ZM180.4 364.33L180.61 363.898C179.78 363.493 178.957 362.994 178.319 362.385C177.684 361.778 177.254 361.086 177.154 360.289L176.677 360.349L176.201 360.408C176.337 361.491 176.916 362.374 177.656 363.08C178.394 363.784 179.315 364.335 180.19 364.762L180.4 364.33ZM176.677 360.349L177.154 360.288C176.991 359.012 177.764 357.694 178.871 356.802L178.569 356.428L178.268 356.053C177.02 357.059 175.98 358.674 176.201 360.409L176.677 360.349ZM178.569 356.428L178.871 356.802C179.762 356.084 180.823 355.601 181.948 355.093L181.75 354.655L181.552 354.217C180.447 354.716 179.27 355.245 178.268 356.053L178.569 356.428ZM181.75 354.655L181.948 355.093C182.219 354.97 182.494 354.846 182.766 354.719L182.562 354.284L182.358 353.849C182.093 353.973 181.824 354.094 181.552 354.217L181.75 354.655ZM182.562 354.284L182.766 354.719C192.535 350.145 199.485 340.075 200.31 329.312L199.832 329.275L199.353 329.238C198.553 339.656 191.814 349.422 182.358 353.849L182.562 354.284ZM199.832 329.275L200.136 329.647C200.363 329.462 200.594 329.278 200.828 329.091L200.529 328.715L200.23 328.339C199.996 328.525 199.76 328.712 199.528 328.903L199.832 329.275ZM200.529 328.715L200.827 329.092L200.885 329.046L200.586 328.67L200.288 328.293L200.23 328.339L200.529 328.715ZM200.586 328.67L200.525 328.193C200.261 328.227 199.998 328.256 199.732 328.28L199.777 328.759L199.821 329.237C200.099 329.212 200.373 329.181 200.647 329.146L200.586 328.67ZM199.777 328.759L199.729 328.281C193.898 328.861 187.64 328.6 182.647 325.462L182.392 325.869L182.137 326.275C187.408 329.589 193.935 329.823 199.825 329.237L199.777 328.759ZM182.392 325.869L182.796 325.609L182.634 325.356L182.23 325.615L181.825 325.875L181.988 326.128L182.392 325.869ZM182.23 325.615L181.97 325.211C180.241 326.32 178.514 327.423 176.787 328.521L177.046 328.927L177.304 329.332C179.031 328.233 180.759 327.129 182.489 326.02L182.23 325.615ZM177.046 328.927L176.787 328.521C171.985 331.581 167.16 334.633 161.772 336.148L161.903 336.611L162.033 337.073C167.579 335.513 172.522 332.379 177.304 329.332L177.046 328.927ZM161.903 336.611L161.773 336.148C160.532 336.494 159.329 336.664 158.45 336.1L158.191 336.504L157.932 336.909C159.207 337.727 160.809 337.415 162.032 337.074L161.903 336.611ZM158.191 336.504L158.449 336.1C157.728 335.638 157.421 334.846 157.415 333.855C157.408 332.859 157.711 331.739 158.121 330.784L157.68 330.594L157.238 330.404C156.797 331.433 156.446 332.688 156.454 333.86C156.462 335.036 156.836 336.207 157.932 336.909L158.191 336.504ZM157.68 330.594L158.121 330.784C160.983 324.142 165.835 318.555 170.889 313.26L170.542 312.928L170.194 312.596C165.132 317.899 160.174 323.592 157.239 330.403L157.68 330.594ZM170.542 312.928L170.889 313.261C172.117 311.976 173.359 310.703 174.614 309.443L174.273 309.104L173.933 308.765C172.673 310.03 171.427 311.307 170.194 312.596L170.542 312.928ZM174.273 309.104L174.61 308.761L174.583 308.736L174.247 309.078L173.91 309.421L173.937 309.447L174.273 309.104ZM174.247 309.078L174.723 309.144C174.82 308.439 174.906 307.739 174.991 307.047L174.514 306.988L174.038 306.929C173.952 307.622 173.867 308.315 173.771 309.012L174.247 309.078ZM174.514 306.988L174.99 307.058L174.99 307.057L174.515 306.987L174.039 306.917L174.039 306.919L174.514 306.988ZM174.515 306.987L174.991 307.046C175.453 303.309 175.889 299.819 177.783 296.55L177.368 296.309L176.952 296.068C174.945 299.532 174.496 303.218 174.038 306.928L174.515 306.987ZM177.368 296.309L177.78 296.557C178.836 294.797 179.917 293.063 181.021 291.354L180.618 291.093L180.214 290.832C179.104 292.549 178.018 294.293 176.956 296.062L177.368 296.309ZM180.618 291.093L180.88 290.69L180.176 290.232L179.914 290.634L179.652 291.037L180.356 291.495L180.618 291.093ZM179.914 290.634L179.907 290.154C174.511 290.226 169.191 291.442 164.3 293.722L164.503 294.157L164.706 294.593C169.475 292.371 174.66 291.185 179.921 291.115L179.914 290.634ZM164.503 294.157L164.3 293.722C159.409 296.001 155.056 299.292 151.529 303.378L151.892 303.692L152.256 304.006C155.694 300.023 159.938 296.815 164.706 294.593L164.503 294.157ZM151.892 303.692L151.527 303.38C151.182 303.784 150.838 304.174 150.463 304.462C150.093 304.746 149.734 304.898 149.36 304.883L149.341 305.363L149.322 305.843C150.003 305.87 150.578 305.586 151.048 305.225C151.514 304.867 151.919 304.401 152.258 304.004L151.892 303.692ZM149.341 305.363L149.361 304.883C148.897 304.863 148.503 304.597 148.165 304.128C147.825 303.656 147.581 303.026 147.427 302.415L146.961 302.532L146.495 302.648C146.665 303.324 146.948 304.082 147.386 304.689C147.826 305.301 148.46 305.807 149.321 305.843L149.341 305.363ZM146.961 302.532L147.427 302.415C145.81 295.962 147.381 289.09 149.773 282.755L149.324 282.585L148.874 282.415C146.461 288.806 144.806 295.906 146.495 302.648L146.961 302.532ZM149.324 282.585L149.773 282.755C150.943 279.654 152.316 276.634 153.883 273.715L153.46 273.487L153.036 273.26C151.45 276.216 150.059 279.275 148.874 282.415L149.324 282.585ZM153.46 273.487L153.688 273.065L153.522 272.975L153.294 273.398L153.066 273.82L153.231 273.91L153.46 273.487ZM153.294 273.398L153.489 272.959C145.491 269.391 135.733 272.506 129.616 278.609L129.955 278.949L130.295 279.29C136.215 273.383 145.561 270.474 153.098 273.836L153.294 273.398ZM129.955 278.949L129.616 278.609C123.497 284.713 120.461 293.245 118.897 301.647L119.369 301.735L119.841 301.824C121.39 293.503 124.376 285.195 130.295 279.29L129.955 278.949ZM119.369 301.735L119.849 301.718C119.734 298.617 118.069 295.932 115.706 294.027C113.345 292.123 110.255 290.971 107.21 290.945L107.207 291.426L107.203 291.906C110.022 291.93 112.904 293.001 115.103 294.775C117.302 296.547 118.786 298.991 118.889 301.753L119.369 301.735ZM107.207 291.426L107.21 290.945C101.169 290.894 95.6406 294.25 91.24 298.193L91.5606 298.551L91.8813 298.909C96.2154 295.026 101.517 291.858 107.203 291.906L107.207 291.426ZM91.5606 298.551L91.9497 298.833C93.6519 296.483 94.0642 293.517 93.4961 290.73C92.9282 287.945 91.3736 285.299 89.0817 283.569L88.7925 283.953L88.5033 284.336C90.5911 285.912 92.0292 288.345 92.5547 290.922C93.08 293.498 92.6865 296.177 91.1716 298.269L91.5606 298.551ZM88.7925 283.953L89.0817 283.569C84.5249 280.129 78.0033 280.172 72.9799 282.706L73.1965 283.135L73.4132 283.564C78.1847 281.157 84.3005 281.163 88.5033 284.336L88.7925 283.953ZM73.1965 283.135L73.5103 283.5C75.959 281.389 77.7558 278.623 78.6885 275.526L78.2285 275.387L77.7685 275.248C76.8885 278.17 75.1933 280.78 72.8828 282.771L73.1965 283.135ZM78.2285 275.387L78.6885 275.526C79.6212 272.428 79.6523 269.129 78.7769 266.013L78.3144 266.143L77.852 266.273C78.6779 269.212 78.6486 272.325 77.7685 275.248L78.2285 275.387ZM78.3144 266.143L78.7769 266.013C77.9019 262.898 76.1576 260.097 73.7478 257.938L73.4275 258.296L73.1071 258.654C75.3807 260.69 77.0264 263.333 77.8519 266.273L78.3144 266.143ZM37.8885 307.903L38.1779 308.287C38.3882 308.128 38.6092 307.977 38.8407 307.82L38.5701 307.423L38.2996 307.025C38.0705 307.181 37.8308 307.345 37.5991 307.52L37.8885 307.903ZM38.5701 307.423L38.866 307.801L38.8665 307.801L38.5706 307.422L38.2748 307.043L38.2743 307.044L38.5701 307.423ZM38.5706 307.422L38.838 307.822L38.8534 307.811L38.586 307.412L38.3186 307.013L38.3033 307.023L38.5706 307.422ZM38.586 307.412L38.2887 307.034C38.0805 307.198 37.8577 307.354 37.6311 307.498L37.8885 307.903L38.1459 308.309C38.3961 308.151 38.6461 307.976 38.8833 307.79L38.586 307.412ZM143.588 324.292L143.981 324.016C141.298 320.201 137.05 317.039 132.165 316.794L132.141 317.274L132.118 317.754C136.615 317.979 140.621 320.909 143.195 324.569L143.588 324.292ZM132.141 317.274L132.165 316.794C127.761 316.574 123.037 319.274 121.596 323.542L122.051 323.696L122.506 323.85C123.788 320.053 128.07 317.552 132.118 317.754L132.141 317.274ZM122.051 323.696L122.413 323.38C121.117 321.893 119.46 320.754 117.592 320.078L117.429 320.53L117.265 320.982C118.98 321.602 120.5 322.647 121.689 324.011L122.051 323.696ZM117.429 320.53L117.592 320.078C115.271 319.239 112.744 319.158 110.375 319.848L110.509 320.309L110.644 320.771C112.818 320.138 115.136 320.211 117.266 320.982L117.429 320.53ZM110.509 320.309L110.375 319.848C108.006 320.538 105.917 321.963 104.411 323.918L104.791 324.211L105.172 324.505C106.554 322.711 108.471 321.404 110.644 320.771L110.509 320.309ZM104.791 324.211L104.411 323.918C102.904 325.872 102.057 328.255 101.991 330.724L102.471 330.737L102.951 330.75C103.012 328.485 103.789 326.298 105.172 324.505L104.791 324.211ZM102.471 330.737L101.991 330.723C101.973 331.344 102.463 331.861 103.082 331.878L103.096 331.398L103.109 330.917C103.019 330.915 102.948 330.84 102.951 330.751L102.471 330.737ZM103.096 331.398L103.083 331.878C103.703 331.895 104.219 331.406 104.235 330.785L103.755 330.772L103.275 330.759C103.272 330.849 103.198 330.92 103.108 330.917L103.096 331.398ZM103.755 330.772L104.235 330.786C104.289 328.793 104.973 326.868 106.189 325.291L105.809 324.997L105.428 324.703C104.088 326.442 103.334 328.563 103.275 330.759L103.755 330.772ZM105.809 324.997L106.189 325.291C107.406 323.713 109.091 322.562 111.004 322.005L110.869 321.544L110.734 321.083C108.627 321.697 106.769 322.964 105.428 324.703L105.809 324.997ZM110.869 321.544L111.004 322.005C112.916 321.448 114.956 321.513 116.829 322.191L116.993 321.739L117.156 321.287C115.091 320.54 112.842 320.469 110.734 321.083L110.869 321.544ZM116.993 321.739L116.829 322.191C118.703 322.869 120.313 324.125 121.429 325.777L121.827 325.508L122.225 325.24C120.996 323.418 119.221 322.035 117.156 321.287L116.993 321.739ZM121.827 325.508L121.429 325.777C121.688 326.161 122.156 326.347 122.608 326.244L122.502 325.775L122.395 325.307C122.33 325.322 122.262 325.295 122.225 325.24L121.827 325.508ZM122.502 325.775L122.608 326.244C123.06 326.142 123.402 325.772 123.47 325.315L122.995 325.243L122.52 325.172C122.51 325.239 122.46 325.292 122.396 325.307L122.502 325.775ZM122.995 325.243L123.47 325.314C124.018 321.62 128.059 318.839 132.054 319.039L132.077 318.559L132.101 318.079C127.73 317.86 123.156 320.882 122.52 325.172L122.995 325.243ZM132.077 318.559L132.054 319.039C136.034 319.238 139.717 321.857 142.144 325.309L142.537 325.032L142.93 324.756C140.393 321.149 136.469 318.298 132.101 318.079L132.077 318.559ZM142.537 325.032L142.144 325.308C142.501 325.816 143.202 325.938 143.709 325.582L143.432 325.189L143.156 324.795C143.082 324.847 142.981 324.829 142.93 324.756L142.537 325.032ZM143.432 325.189L143.709 325.581C144.216 325.224 144.337 324.524 143.981 324.017L143.588 324.292L143.195 324.568C143.247 324.642 143.229 324.744 143.155 324.796L143.432 325.189ZM53.2564 300.45L52.8447 300.697C52.891 300.774 52.8661 300.874 52.7893 300.921L53.0374 301.332L53.2856 301.744C53.8165 301.424 53.9873 300.734 53.668 300.203L53.2564 300.45ZM53.0374 301.332L52.7894 300.921C51.0488 301.969 49.6268 303.473 48.676 305.269L49.1006 305.494L49.5252 305.719C50.3944 304.077 51.6944 302.703 53.2855 301.744L53.0374 301.332ZM49.1006 305.494L48.676 305.269C47.7251 307.066 47.2814 309.088 47.3918 311.118L47.8715 311.092L48.3511 311.066C48.2502 309.21 48.6559 307.362 49.5252 305.719L49.1006 305.494ZM47.8715 311.092L47.3918 311.118C47.5021 313.149 48.1633 315.111 49.3032 316.795L49.7009 316.526L50.0986 316.257C49.0565 314.717 48.452 312.923 48.3511 311.066L47.8715 311.092ZM49.7009 316.526L49.3033 316.795C50.4438 318.479 52.021 319.82 53.8646 320.675L54.0665 320.24L54.2684 319.804C52.5829 319.022 51.1411 317.795 50.0986 316.256L49.7009 316.526ZM54.0665 320.24L53.8647 320.675C54.7273 321.076 55.7495 321.321 56.6897 321.277L56.6672 320.797L56.6446 320.317C55.8871 320.352 55.0187 320.152 54.2683 319.804L54.0665 320.24ZM56.6672 320.797L56.6897 321.277C57.6301 321.233 58.4717 320.903 59.0097 320.173L58.6229 319.887L58.236 319.602C57.9201 320.031 57.393 320.282 56.6446 320.317L56.6672 320.797ZM58.6229 319.887L59.0094 320.173C59.0541 320.112 59.1334 320.091 59.2014 320.119L59.3831 319.674L59.5649 319.229C59.0887 319.034 58.5415 319.188 58.2363 319.602L58.6229 319.887ZM59.3831 319.674L59.2009 320.118C59.2707 320.147 59.3111 320.219 59.3007 320.292L59.7763 320.36L60.2518 320.428C60.3246 319.918 60.0405 319.425 59.5654 319.23L59.3831 319.674ZM59.7763 320.36L59.3007 320.292C58.901 323.113 59.3134 325.99 60.4908 328.585L60.9282 328.387L61.3656 328.189C60.2638 325.76 59.8779 323.068 60.2519 320.428L59.7763 320.36ZM60.9282 328.387L60.4907 328.585C61.6675 331.18 63.5594 333.386 65.9449 334.943L66.2072 334.541L66.4695 334.138C64.2373 332.681 62.4669 330.617 61.3656 328.189L60.9282 328.387ZM66.2072 334.541L65.9448 334.943C68.3299 336.5 71.1094 337.345 73.9565 337.376L73.9615 336.896L73.9665 336.416C71.3023 336.386 68.7014 335.596 66.4696 334.138L66.2072 334.541ZM73.9615 336.896L73.9565 337.376C76.8032 337.408 79.5999 336.626 82.0172 335.123L81.7633 334.715L81.5094 334.306C79.2473 335.713 76.6302 336.445 73.9665 336.416L73.9615 336.896ZM81.7633 334.715L82.0173 335.123C82.0936 335.075 82.1933 335.099 82.2402 335.174L82.6483 334.921L83.0564 334.668C82.729 334.14 82.0358 333.979 81.5093 334.307L81.7633 334.715ZM82.6483 334.921L82.2404 335.175C82.2879 335.251 82.2646 335.351 82.1883 335.399L82.4423 335.807L82.6963 336.215C83.2228 335.887 83.3839 335.195 83.0562 334.668L82.6483 334.921ZM82.4423 335.807L82.1885 335.399C79.7184 336.935 76.8613 337.734 73.9529 337.702L73.9479 338.182L73.943 338.662C77.0343 338.697 80.071 337.848 82.6962 336.215L82.4423 335.807ZM73.9479 338.182L73.953 337.702C71.0442 337.669 68.2048 336.807 65.768 335.216L65.5057 335.618L65.2433 336.02C67.8333 337.711 70.8512 338.628 73.9429 338.662L73.9479 338.182ZM65.5057 335.618L65.768 335.216C63.3309 333.625 61.3976 331.371 60.1952 328.719L59.7577 328.918L59.3203 329.116C60.5983 331.934 62.653 334.329 65.2433 336.02L65.5057 335.618ZM59.7577 328.918L60.1952 328.719C59.1981 326.52 58.7375 324.123 58.8427 321.724L58.3628 321.702L57.8829 321.681C57.771 324.23 58.2605 326.779 59.3203 329.116L59.7577 328.918ZM58.3628 321.702L58.1605 321.266C57.7149 321.473 57.2158 321.578 56.7048 321.602L56.7275 322.082L56.7503 322.562C57.3601 322.533 57.9856 322.407 58.565 322.138L58.3628 321.702ZM56.7275 322.082L56.7051 321.602C55.7027 321.648 54.6289 321.388 53.7285 320.971L53.5267 321.406L53.3249 321.842C54.3374 322.312 55.565 322.616 56.75 322.562L56.7275 322.082ZM53.5267 321.406L53.7285 320.971C51.8312 320.09 50.2085 318.71 49.0355 316.978L48.6378 317.247L48.2401 317.516C49.5111 319.393 51.2692 320.889 53.3248 321.842L53.5267 321.406ZM48.6378 317.247L49.0354 316.977C47.8619 315.245 47.1816 313.225 47.0677 311.136L46.5881 311.162L46.1084 311.188C46.2318 313.451 46.9687 315.639 48.2401 317.516L48.6378 317.247ZM46.5881 311.162L47.0678 311.136C46.9544 309.046 47.411 306.965 48.3898 305.117L47.9652 304.892L47.5407 304.667C46.4802 306.669 45.9856 308.924 46.1084 311.187L46.5881 311.162ZM47.9652 304.892L48.3898 305.117C49.3683 303.268 50.8316 301.721 52.6223 300.642L52.3741 300.23L52.126 299.819C50.1859 300.988 48.6007 302.664 47.5406 304.667L47.9652 304.892ZM52.3741 300.23L52.6219 300.642C52.6986 300.596 52.7987 300.621 52.8449 300.698L53.2564 300.45L53.6678 300.202C53.3476 299.671 52.6573 299.499 52.1264 299.818L52.3741 300.23ZM56.1651 257.204L56.3186 256.749C55.7304 256.55 55.0937 256.866 54.8956 257.453L55.3508 257.607L55.806 257.761C55.8347 257.676 55.9266 257.63 56.0116 257.659L56.1651 257.204ZM55.3508 257.607L54.8956 257.453C54.6976 258.041 55.0127 258.679 55.6006 258.878L55.7541 258.422L55.9077 257.967C55.8233 257.939 55.7772 257.846 55.806 257.761L55.3508 257.607ZM55.7541 258.422L55.6006 258.878C56.5315 259.192 57.3596 259.755 57.9967 260.504L58.3626 260.193L58.7284 259.882C57.9787 259 57.0039 258.338 55.9077 257.967L55.7541 258.422ZM58.3626 260.193L57.9967 260.504C58.6337 261.253 59.0553 262.162 59.2165 263.132L59.6904 263.054L60.1643 262.976C59.9745 261.833 59.4783 260.764 58.7284 259.882L58.3626 260.193ZM59.6904 263.054L59.2165 263.132C59.3778 264.102 59.2725 265.098 58.912 266.013L59.3589 266.19L59.8058 266.366C60.2301 265.289 60.3541 264.117 60.1643 262.975L59.6904 263.054ZM59.3589 266.19L58.9119 266.013C58.5519 266.928 57.9499 267.728 57.1705 268.327L57.4634 268.708L57.7562 269.089C58.6735 268.384 59.3821 267.443 59.8059 266.366L59.3589 266.19ZM57.4634 268.708L57.1704 268.327C56.8235 268.593 56.6621 269.038 56.76 269.467L57.2283 269.36L57.6966 269.253C57.6827 269.192 57.7054 269.128 57.7563 269.089L57.4634 268.708ZM57.2283 269.36L56.7599 269.466C56.8569 269.894 57.1943 270.226 57.6231 270.317L57.7224 269.847L57.8218 269.377C57.7596 269.364 57.7108 269.316 57.6968 269.254L57.2283 269.36ZM57.7224 269.847L57.6235 270.317C59.0182 270.612 60.2974 271.308 61.3026 272.319L61.6432 271.981L61.9838 271.642C60.8464 270.498 59.3992 269.71 57.8214 269.377L57.7224 269.847ZM61.6432 271.981L61.3027 272.319C62.3084 273.331 62.9969 274.615 63.2841 276.013L63.7546 275.916L64.2251 275.82C63.9004 274.239 63.1216 272.787 61.9838 271.642L61.6432 271.981ZM63.7546 275.916L63.2841 276.013C63.5712 277.411 63.4443 278.862 62.9188 280.187L63.3654 280.365L63.812 280.542C64.4065 279.043 64.5499 277.401 64.2251 275.82L63.7546 275.916ZM63.3654 280.365L62.9188 280.187C62.3932 281.514 61.4923 282.657 60.326 283.477L60.6025 283.87L60.879 284.264C62.1985 283.336 63.2175 282.042 63.812 280.542L63.3654 280.365ZM60.6025 283.87L60.3259 283.477C59.8195 283.834 59.6966 284.535 60.0543 285.043L60.4469 284.766L60.8396 284.49C60.7884 284.417 60.8057 284.315 60.8791 284.263L60.6025 283.87ZM60.4469 284.766L60.0538 285.042C60.4106 285.55 61.1111 285.672 61.6182 285.316L61.3419 284.923L61.0657 284.529C60.9919 284.581 60.8912 284.563 60.8401 284.49L60.4469 284.766ZM61.3419 284.923L61.6185 285.316C63.1421 284.244 64.3196 282.75 65.0066 281.017L64.56 280.84L64.1135 280.662C63.4953 282.221 62.436 283.565 61.0653 284.53L61.3419 284.923ZM64.56 280.84L65.0066 281.017C65.6932 279.284 65.8589 277.388 65.4841 275.562L65.0136 275.658L64.543 275.755C64.8802 277.398 64.7311 279.104 64.1134 280.662L64.56 280.84ZM65.0136 275.658L65.4841 275.562C65.1088 273.736 64.2087 272.058 62.8947 270.736L62.5542 271.074L62.2136 271.413C63.3956 272.602 64.2054 274.112 64.543 275.755L65.0136 275.658ZM62.5542 271.074L62.8948 270.736C61.8784 269.713 60.6485 268.937 59.2999 268.46L59.1399 268.913L58.9799 269.366C60.1931 269.795 61.2994 270.493 62.2136 271.413L62.5542 271.074ZM59.1399 268.913L59.4924 269.239C60.1376 268.543 60.6506 267.729 61.0017 266.839L60.5548 266.662L60.1079 266.486C59.8007 267.265 59.3519 267.976 58.7874 268.586L59.1399 268.913ZM60.5548 266.662L61.0017 266.839C61.5113 265.545 61.6598 264.137 61.432 262.765L60.9581 262.843L60.4842 262.922C60.6835 264.122 60.5536 265.354 60.1078 266.486L60.5548 266.662ZM60.9581 262.843L61.432 262.765C61.2037 261.393 60.6079 260.109 59.7068 259.049L59.341 259.36L58.9752 259.671C59.7632 260.598 60.2845 261.722 60.4843 262.922L60.9581 262.843ZM59.341 259.36L59.7069 259.049C58.8064 257.989 57.6351 257.194 56.3187 256.749L56.1651 257.204L56.0115 257.659C57.1628 258.049 58.1874 258.744 58.9751 259.671L59.341 259.36Z" fill="#EAEAEA" mask="url(#path-77-inside-1_2037_1332)"/>
</svg>
