<svg width="100" height="100" viewBox="0 0 100 100" fill="none" xmlns="http://www.w3.org/2000/svg">
<path d="M38.4 3.62012L2.02002 14.5501L29.15 22.0001L65.53 11.0601L38.4 3.62012Z" stroke="#4D494A" stroke-width="3" stroke-linecap="round" stroke-linejoin="round"/>
<path d="M65.53 50.6301V11.0701L29.15 22.0101V63.8401L65.53 50.6301Z" fill="white" stroke="#4D494A" stroke-width="3" stroke-linecap="round" stroke-linejoin="round"/>
<path d="M2.02002 54.2401V14.55L29.15 22.0001V63.83L2.02002 54.2401Z" fill="white" stroke="#4D494A" stroke-width="3" stroke-linecap="round" stroke-linejoin="round"/>
<path d="M61.57 60.6402L95.31 47.9102L70.82 38.6602L37.08 51.3902L61.57 60.6402Z" fill="white" stroke="#4D494A" stroke-width="3" stroke-linecap="round" stroke-linejoin="round"/>
<path d="M37.08 84.9001V51.3901L61.57 60.6401V96.3801L37.08 84.9101V84.9001Z" fill="white" stroke="#4D494A" stroke-width="3" stroke-linecap="round" stroke-linejoin="round"/>
<path d="M95.32 80.3001V47.9001L61.57 60.6302V96.3701L95.32 80.3001Z" fill="white" stroke="#4D494A" stroke-width="3" stroke-linecap="round" stroke-linejoin="round"/>
<path d="M97.96 79.31V64.04L61.58 79.4V96.38L97.96 79.31Z" fill="white" stroke="#4D494A" stroke-width="3" stroke-linecap="round" stroke-linejoin="round"/>
<path d="M34.44 83.9101V68.6401L61.58 79.4001V96.3801L34.44 83.9101Z" fill="white" stroke="#4D494A" stroke-width="3" stroke-linecap="round" stroke-linejoin="round"/>
<path d="M70.82 38.6602L95.31 47.9102Z" fill="white"/>
<path d="M70.82 38.6602L95.31 47.9102" stroke="#4D494A" stroke-width="3" stroke-linecap="round" stroke-linejoin="round"/>
<path d="M37.07 51.3902L70.82 38.6602Z" fill="white"/>
<path d="M37.07 51.3902L70.82 38.6602" stroke="#4D494A" stroke-width="3" stroke-linecap="round" stroke-linejoin="round"/>
<path d="M70.81 57.1502V40.4502Z" fill="white"/>
<path d="M70.81 57.1502V40.4502" stroke="#4D494A" stroke-width="3" stroke-linecap="round" stroke-linejoin="round"/>
</svg>
