<svg width="100" height="100" viewBox="0 0 100 100" fill="none" xmlns="http://www.w3.org/2000/svg">
<path d="M38.44 3.79004L2.20001 14.6801L29.24 22.1L65.48 11.2001L38.44 3.79004Z" stroke="#4D494A" stroke-width="3" stroke-linecap="round" stroke-linejoin="round"/>
<path d="M65.48 50.6202V11.2002L29.24 22.1002V63.7702L65.48 50.6102V50.6202Z" fill="white" stroke="#4D494A" stroke-width="3" stroke-linecap="round" stroke-linejoin="round"/>
<path d="M2.20001 54.2299V14.6899L29.24 22.1099V63.78L2.20001 54.2199V54.2299Z" fill="white" stroke="#4D494A" stroke-width="3" stroke-linecap="round" stroke-linejoin="round"/>
<path d="M61.53 60.6L95.15 47.91L70.74 38.7L37.13 51.39L61.53 60.6Z" fill="white" stroke="#4D494A" stroke-width="3" stroke-linecap="round" stroke-linejoin="round"/>
<path d="M37.13 84.7802V51.3901L61.53 60.6001V96.2001L37.13 84.7701V84.7802Z" fill="white" stroke="#4D494A" stroke-width="3" stroke-linecap="round" stroke-linejoin="round"/>
<path d="M95.15 80.1901V47.9102L61.53 60.6001V96.2001L95.15 80.1901Z" fill="white" stroke="#4D494A" stroke-width="3" stroke-linecap="round" stroke-linejoin="round"/>
<path d="M97.79 79.2V63.99L61.54 79.29V96.21L97.79 79.2Z" fill="white" stroke="#4D494A" stroke-width="3" stroke-linecap="round" stroke-linejoin="round"/>
<path d="M34.49 83.7799V68.5698L61.53 79.2899V96.2098L34.49 83.7899V83.7799Z" fill="white" stroke="#4D494A" stroke-width="3" stroke-linecap="round" stroke-linejoin="round"/>
<path d="M70.74 38.7L95.14 47.91Z" fill="white"/>
<path d="M70.74 38.7L95.14 47.91" stroke="#4D494A" stroke-width="3" stroke-linecap="round" stroke-linejoin="round"/>
<path d="M37.12 51.39L70.74 38.7Z" fill="white"/>
<path d="M37.12 51.39L70.74 38.7" stroke="#4D494A" stroke-width="3" stroke-linecap="round" stroke-linejoin="round"/>
<path d="M70.74 52.38V43.4399Z" fill="white"/>
<path d="M70.74 52.38V43.4399" stroke="#4D494A" stroke-width="3" stroke-linecap="round" stroke-linejoin="round"/>
<path d="M49.69 51.39L70.74 43.4399L82.58 47.91L61.53 55.86L49.69 51.39Z" stroke="#4D494A" stroke-width="3" stroke-linecap="round" stroke-linejoin="round"/>
</svg>
