<svg width="100" height="100" viewBox="0 0 100 100" fill="none" xmlns="http://www.w3.org/2000/svg">
<path d="M54.78 90.84L6.88 72.05V54.75L54.78 73.53V90.84Z" fill="white" stroke="#4D494A" stroke-width="3" stroke-linecap="round" stroke-linejoin="round"/>
<path d="M92.56 76.26L54.78 90.84V73.53L92.56 58.96V76.26Z" fill="white" stroke="#4D494A" stroke-width="3" stroke-linecap="round" stroke-linejoin="round"/>
<path d="M29.13 63.47L44.66 57.48L70.32 67.54L54.79 73.53L29.13 63.47Z" fill="white" stroke="#4D494A" stroke-width="3" stroke-linecap="round" stroke-linejoin="round"/>
<path d="M70.31 67.5399L44.65 57.4799V40.1799L92.56 58.9599L70.31 67.5399Z" fill="white" stroke="#4D494A" stroke-width="3" stroke-linecap="round" stroke-linejoin="round"/>
<path d="M44.65 57.4799L29.13 63.4699L6.88 54.7499L44.65 40.1799V57.4799Z" fill="white" stroke="#4D494A" stroke-width="3" stroke-linecap="round" stroke-linejoin="round"/>
<path d="M44.65 9.10986L55.16 18.2199C57.21 19.9999 60.05 20.5499 62.62 19.6699C66.7 18.2699 71.12 20.5299 72.38 24.6599L73.91 29.6899C75.5 34.9099 81.9 36.8199 86.09 33.3099L92.56 27.8899V58.9599L44.65 40.1799V9.10986Z" stroke="#4D494A" stroke-width="3" stroke-linecap="round" stroke-linejoin="round"/>
</svg>
