<svg width="94" height="94" viewBox="0 0 94 94" fill="none" xmlns="http://www.w3.org/2000/svg">
<path d="M59.408 64.4088L59.3705 25.145L39.5176 17.6438L39.5364 71.9194L59.408 64.4088Z" fill="white" stroke="#4D494A" stroke-width="3" stroke-linecap="round" stroke-linejoin="round"/>
<path d="M39.5176 79.2703L39.5364 10.3025Z" fill="white"/>
<path d="M39.5176 79.2703L39.5364 10.3025" stroke="#4D494A" stroke-width="3" stroke-linecap="round" stroke-linejoin="round"/>
<path d="M39.5176 17.6438L39.5364 10.293L59.3798 17.7847V25.1544L39.527 17.6532L39.5176 17.6438Z" stroke="#4D494A" stroke-width="3" stroke-linecap="round" stroke-linejoin="round"/>
<path d="M79.2233 79.2703V10.3025Z" fill="white"/>
<path d="M79.2233 79.2703V10.3025" stroke="#4D494A" stroke-width="3" stroke-linecap="round" stroke-linejoin="round"/>
<path d="M79.2233 79.2703V10.3025Z" fill="white"/>
<path d="M79.2233 79.2703V10.3025" stroke="#4D494A" stroke-width="3" stroke-linecap="round" stroke-linejoin="round"/>
<path d="M79.2233 17.6438L59.3705 25.145L59.408 64.3994L79.2233 71.91" stroke="#4D494A" stroke-width="3" stroke-linecap="round" stroke-linejoin="round"/>
<path d="M79.2608 10.2836L59.3986 17.7848L39.527 10.2836L59.3986 2.79175L79.2608 10.2836Z" stroke="#4D494A" stroke-width="3" stroke-linecap="round" stroke-linejoin="round"/>
<path d="M39.527 79.2702L39.5458 71.9194L59.3892 79.4112V86.7808L39.5364 79.2796L39.527 79.2702Z" fill="white" stroke="#4D494A" stroke-width="3" stroke-linecap="round" stroke-linejoin="round"/>
<path d="M59.3798 86.7712L79.2326 79.27Z" fill="white"/>
<path d="M59.3798 86.7712L79.2326 79.27" stroke="#4D494A" stroke-width="3" stroke-linecap="round" stroke-linejoin="round"/>
<path d="M59.408 64.4087L39.5364 71.9005L59.408 79.4016L79.2702 71.9005L59.408 64.4087Z" fill="white" stroke="#4D494A" stroke-width="3" stroke-linecap="round" stroke-linejoin="round"/>
<path d="M19.6178 17.7847L39.4612 10.293L39.4894 79.2702L19.6366 86.7714L19.6178 17.7847Z" fill="white" stroke="#4D494A" stroke-width="3" stroke-linecap="round" stroke-linejoin="round"/>
<path d="M19.6178 17.7847L14.7205 22.2309V91.2081L19.6366 86.7713L19.6178 17.7847Z" fill="white" stroke="#4D494A" stroke-width="3" stroke-linecap="round" stroke-linejoin="round"/>
<path d="M59.3516 75.7732C63.9045 75.7732 67.5954 74.0435 67.5954 71.9098C67.5954 69.7761 63.9045 68.0464 59.3516 68.0464C54.7987 68.0464 51.1078 69.7761 51.1078 71.9098C51.1078 74.0435 54.7987 75.7732 59.3516 75.7732Z" stroke="#4D494A" stroke-width="3" stroke-linecap="round" stroke-linejoin="round"/>
<path d="M59.3705 17.7847L79.2139 10.293L79.2326 79.2702L59.3798 86.7714L59.3705 17.7847Z" fill="white" stroke="#4D494A" stroke-width="3" stroke-linecap="round" stroke-linejoin="round"/>
</svg>
