<svg width="101" height="100" viewBox="0 0 101 100" fill="none" xmlns="http://www.w3.org/2000/svg">
<path d="M27.0601 65L44.0601 58.5L72.5601 69.5L55.5601 76L27.0601 65Z" fill="white"/>
<path d="M55.4825 96.0293L1.5 74.8533V55.3564L55.4825 76.5212V96.0293Z" fill="white" stroke="#4D494A" stroke-width="3" stroke-linecap="round" stroke-linejoin="round"/>
<path d="M81.4596 31.6334L27.4658 10.4574L44.0663 3.9209L98.0601 25.0857L81.4596 31.6334Z" stroke="#4D494A" stroke-width="3" stroke-linecap="round" stroke-linejoin="round"/>
<path d="M98.06 79.5979L55.4825 96.0293V76.5212L98.06 60.1011V79.5979Z" fill="white" stroke="#4D494A" stroke-width="3" stroke-linecap="round" stroke-linejoin="round"/>
<path d="M72.9846 69.7706L44.0662 58.4331V38.9363L98.06 60.101L72.9846 69.7706Z" fill="white" stroke="#4D494A" stroke-width="3" stroke-linecap="round" stroke-linejoin="round"/>
<path d="M44.0662 58.4331L26.5754 65.1837L1.5 55.3564L44.0662 38.9363V58.4331Z" fill="white" stroke="#4D494A" stroke-width="3" stroke-linecap="round" stroke-linejoin="round"/>
<path d="M44.0662 3.9209L98.06 25.0857V60.1011L44.0662 38.9363V16.9714" stroke="#4D494A" stroke-width="3" stroke-linecap="round" stroke-linejoin="round"/>
</svg>
