<svg width="100" height="100" viewBox="0 0 100 100" fill="none" xmlns="http://www.w3.org/2000/svg">
<path d="M51.01 25.0399V9.39993C51.31 3.84993 56.19 0.279936 60.59 2.37994C63.3 3.66994 65.03 6.79992 64.92 10.2099V30.5099" stroke="#4D494A" stroke-width="3" stroke-linecap="round" stroke-linejoin="round"/>
<path d="M19.76 19.87L38.06 15.02L80.24 32.21L61.94 37.06L19.76 19.87Z" fill="white" stroke="#4D494A" stroke-width="3" stroke-linecap="round" stroke-linejoin="round"/>
<path d="M80.2401 91.31V32.21L61.9401 37.06V98.23L80.2401 91.31Z" fill="white" stroke="#4D494A" stroke-width="3" stroke-linecap="round" stroke-linejoin="round"/>
<path d="M71.51 84.6499L80.24 91.3099" stroke="#4D494A" stroke-width="3" stroke-linecap="round" stroke-linejoin="round"/>
<path d="M71.45 84.5499V35.6699Z" fill="white"/>
<path d="M71.45 84.5499V35.6699" stroke="#4D494A" stroke-width="3" stroke-linecap="round" stroke-linejoin="round"/>
<path d="M71.5101 84.6499L61.9401 98.2299" stroke="#4D494A" stroke-width="3" stroke-linecap="round" stroke-linejoin="round"/>
<path d="M33.89 29.8898V12.0198C34.19 6.4698 39.07 2.89981 43.47 4.99981C46.18 6.28981 47.91 9.4198 47.8 12.8298V35.3498" stroke="#4D494A" stroke-width="3" stroke-linecap="round" stroke-linejoin="round"/>
<path d="M19.76 19.8699L61.94 37.0599V98.2299L19.76 81.0399V19.8699Z" fill="white" stroke="#4D494A" stroke-width="3" stroke-linecap="round" stroke-linejoin="round"/>
</svg>
