<svg viewBox="0 0 356 272" fill="none" xmlns="http://www.w3.org/2000/svg">
<mask id="mask0_469_1019" style="mask-type:luminance" maskUnits="userSpaceOnUse" x="14" y="42" width="328" height="260">
<path d="M341.092 42.5781H14.0918V301.578H341.092V42.5781Z" fill="white"/>
</mask>
<g mask="url(#mask0_469_1019)">
<path d="M313.948 161.453C313.44 159.502 312.872 157.563 312.235 155.649L312.355 155.609C317.209 157.224 321.796 159.897 325.112 163.79C328.428 167.684 330.371 172.874 329.794 177.956C329.359 181.754 327.574 185.301 325.254 188.347C322.6 191.797 319.279 194.679 315.488 196.819C311.698 198.96 307.515 200.316 303.19 200.807L302.893 200.795L303.558 183.885L302.941 183.539C305.314 183.396 307.663 182.961 309.675 181.738C312.842 179.806 314.657 176.138 315.124 172.457C315.592 168.777 314.875 165.047 313.948 161.453Z" fill="#FF6900"/>
<path d="M306.941 97.9149L305.082 146.581L304.549 160.577L304.607 160.982C302.518 161.267 300.447 161.479 298.355 161.64L298.307 161.046L300.732 97.9131C300.892 93.8591 299.48 89.9001 296.792 86.8615C294.103 83.8232 290.345 81.9402 286.302 81.6057L286.306 81.5508L290.451 81.5693C292.632 81.464 294.811 81.8137 296.85 82.5958C298.889 83.3783 300.742 84.576 302.293 86.1131C303.844 87.6506 305.058 89.4937 305.858 91.5255C306.658 93.5569 307.027 95.7329 306.941 97.9149Z" fill="#EAEAEA"/>
<path d="M289.436 239.684C290.195 242.624 289.421 248.887 287.836 249.603L220.273 280.074C209.422 284.964 197.146 285.67 185.806 282.054L185.671 282.01L161.27 274.22L161.113 273.971C162.577 273.058 164.043 272.146 165.51 271.236C166.442 270.725 167.279 270.056 167.983 269.26L168.28 269.285L185.807 274.749C197.146 278.365 209.422 277.66 220.273 272.77L287.837 242.299C288.316 242.09 288.704 241.714 288.929 241.242C289.154 240.769 289.201 240.231 289.06 239.727L289.436 239.684Z" fill="#EAEAEA"/>
<path d="M302.894 200.796L302.054 222.103C301.703 231.062 294.007 238.228 285.078 237.406H280.684L280.673 237.516L278.748 237.34L278.774 237.07C280.889 237.265 283.022 237.028 285.042 236.372C287.062 235.716 288.928 234.655 290.525 233.255C292.123 231.855 293.418 230.144 294.332 228.227C295.247 226.309 295.762 224.226 295.845 222.103L297.349 183.886L297.36 183.546C298.463 183.587 299.541 183.605 300.574 183.605C301.359 183.601 302.152 183.587 302.941 183.539L303.558 183.886L302.894 200.796Z" fill="#EAEAEA"/>
<path d="M266.583 106.699V125.053H265.853C263.249 132.221 258.687 134.903 254.491 134.238C250.294 133.572 246.321 130.053 242.39 126.801C238.46 123.549 234.37 120.472 230.163 120.741C224.02 121.129 218.384 128.581 212.267 129.863H212.245L212.782 113.423L266.583 106.699Z" fill="#FF6900"/>
<path d="M266.583 143.626L211.58 150.28L212.245 129.861H212.266C218.385 128.576 224.02 121.127 230.163 120.739C234.37 120.47 238.457 123.55 242.39 126.799C246.324 130.047 250.294 133.563 254.491 134.236C258.687 134.908 263.249 132.219 265.853 125.051H266.583V143.626Z" fill="#EAEAEA"/>
<path d="M247.526 240.672L266.791 242.973C267.007 242.998 267.209 243.095 267.364 243.247C267.52 243.399 267.62 243.599 267.65 243.815C267.679 244.03 267.637 244.25 267.528 244.438C267.42 244.627 267.252 244.774 267.051 244.857L251.031 251.458L232.254 248.449C240.875 244.065 247.526 240.672 247.526 240.672Z" fill="#EAEAEA"/>
<path d="M230.357 238.621L247.526 240.67C247.526 240.67 240.876 244.063 232.256 248.446L215.693 245.79L230.357 238.621Z" fill="#EAEAEA"/>
<path d="M232.256 248.445L251.032 251.455L234.033 258.46L218.566 255.388C223.234 253.027 227.986 250.616 232.256 248.445Z" fill="#EAEAEA"/>
<path d="M202.566 252.21L215.694 245.793L232.257 248.448C227.987 250.618 223.236 253.028 218.568 255.391L202.566 252.21Z" fill="#EAEAEA"/>
<path d="M204.984 262.235C209.002 260.223 213.739 257.834 218.567 255.391L234.034 258.462L217.475 265.286L204.984 262.235Z" fill="#EAEAEA"/>
<path d="M217.475 265.282L206.989 269.602C205.4 270.256 203.639 270.361 201.983 269.902L193.842 267.639C194.083 267.639 198.63 265.408 204.985 262.23L217.475 265.282Z" fill="#EAEAEA"/>
<path d="M197.424 242.863L215.693 245.793L202.565 252.21L185.952 248.91C189.867 246.844 193.852 244.744 197.424 242.863Z" fill="#EAEAEA"/>
<path d="M215.693 245.79L197.424 242.861C204.564 239.095 210.057 236.195 210.057 236.195L230.356 238.62L215.693 245.79Z" fill="#EAEAEA"/>
<path d="M204.984 262.233L189.7 258.5L202.568 252.207L218.568 255.388C213.739 257.831 209.002 260.22 204.984 262.233Z" fill="#EAEAEA"/>
<path d="M179.269 263.599L189.7 258.5L204.984 262.233C198.629 265.41 194.082 267.642 193.841 267.642H193.835L179.269 263.599Z" fill="#EAEAEA"/>
<path d="M202.567 252.208L189.699 258.501L174.691 254.834C178.026 253.081 181.952 251.014 185.951 248.906L202.567 252.208Z" fill="#EAEAEA"/>
<path d="M192.859 234.145L210.057 236.197C210.057 236.197 204.564 239.097 197.424 242.862L180.715 240.182C187.585 236.778 192.859 234.145 192.859 234.145Z" fill="#EAEAEA"/>
<path d="M192.859 234.143C192.859 234.143 187.585 236.776 180.715 240.181L167.198 238.015L179.265 232.52H179.268L192.859 234.143Z" fill="#EAEAEA"/>
<path d="M189.7 258.503L179.269 263.601L165.35 259.737C165.741 259.544 169.503 257.572 174.692 254.836L189.7 258.503Z" fill="#EAEAEA"/>
<path d="M185.952 248.907C181.953 251.015 178.027 253.082 174.692 254.835L158.841 250.963C162.055 249.4 165.813 247.552 169.637 245.668L185.952 248.907Z" fill="#EAEAEA"/>
<path d="M169.638 245.669C173.42 243.803 177.271 241.896 180.715 240.184L197.424 242.864C193.852 244.745 189.868 246.845 185.953 248.909L169.638 245.669Z" fill="#EAEAEA"/>
<path d="M167.804 231.148L179.265 232.518L167.198 238.014L155.24 236.097L167.8 231.148H167.804Z" fill="#EAEAEA"/>
<path d="M156.241 243.005L167.198 238.016L180.715 240.182C177.271 241.895 173.422 243.801 169.638 245.667L156.241 243.005Z" fill="#EAEAEA"/>
<path d="M167.198 238.015L156.241 243.004L143.922 240.557L155.24 236.098L167.198 238.015Z" fill="#EAEAEA"/>
<path d="M156.241 243.004L169.638 245.666C165.814 247.551 162.056 249.399 158.842 250.962L145.775 247.77L156.241 243.004Z" fill="#EAEAEA"/>
<path d="M156.197 229.767L167.802 231.15L155.242 236.099L143.051 234.145L154.614 229.948C155.12 229.764 155.662 229.702 156.197 229.767Z" fill="#EAEAEA"/>
<path d="M145.775 247.77L158.843 250.961C153.514 253.557 149.679 255.384 149.515 255.337L137.528 252.014L137.681 251.455L145.775 247.77Z" fill="#EAEAEA"/>
<path d="M133.327 244.729L143.922 240.559L156.241 243.006L145.774 247.772L133.327 244.729Z" fill="#EAEAEA"/>
<path d="M165.35 259.734L149.516 255.337C149.68 255.384 153.515 253.557 158.843 250.961L174.694 254.832C169.502 257.568 165.74 259.541 165.35 259.734Z" fill="#EAEAEA"/>
<path d="M89.2255 147.447L109.441 146.807L117.056 146.566V154.302H149.513L148.71 214.757C148.672 217.565 149.695 220.283 151.572 222.37C153.45 224.457 156.046 225.759 158.841 226.017L278.774 237.068L278.749 237.339L153.655 225.927C152.132 225.787 150.596 225.975 149.152 226.478L102.217 242.832C101.849 242.957 101.512 243.157 101.227 243.42L101.223 243.416C98.7066 244.292 99.7475 254.585 102.286 255.394L147.048 269.663L147.044 269.678C147.044 269.678 146.694 270.737 146.051 272.468C145.328 274.422 144.232 277.231 142.855 280.328C139.521 287.841 134.535 297.059 129.172 299.959C119.631 305.119 30.6869 293.775 23.7293 235.255C16.7717 176.734 84.8282 154.302 84.8282 154.302L84.3205 147.6L89.2255 147.447Z" fill="#FF6900"/>
<path d="M145.774 247.773L137.68 251.458L137.527 252.017L124.218 248.321L133.327 244.73L145.774 247.773Z" fill="#EAEAEA"/>
<path d="M143.922 240.557L133.327 244.728L121.702 241.89L131.939 238.176L143.922 240.557Z" fill="#EAEAEA"/>
<path d="M131.939 238.177L143.049 234.145L155.24 236.098L143.922 240.558L131.939 238.177Z" fill="#EAEAEA"/>
<path d="M133.327 244.729L124.218 248.319L115.716 245.959C115.515 245.903 115.338 245.784 115.209 245.621C115.08 245.458 115.007 245.257 114.999 245.049C114.991 244.841 115.05 244.636 115.166 244.464C115.282 244.291 115.451 244.16 115.646 244.089L121.702 241.891L133.327 244.729Z" fill="#EAEAEA"/>
<path d="M121.702 96.1429C119.579 97.0459 117.391 97.7879 115.157 98.3634C108.941 99.9814 102.498 100.493 96.0922 100.996L95.9461 101.037C94.788 106.945 93.0406 112.721 90.7307 118.281C89.3274 121.665 87.678 124.943 85.7964 128.087C85.2661 122.444 85.8186 116.751 87.4251 111.316C86.3088 113.953 84.6846 116.344 82.6443 118.354C82.2134 118.781 81.5488 119.208 81.0556 118.861C80.6848 118.606 80.6648 118.08 80.6796 117.634C80.8873 111.44 81.0931 105.246 81.2967 99.0513L81.5014 98.781C90.8326 96.4692 97.6441 89.7964 104.708 83.2772C108.811 79.4902 112.899 75.6881 116.972 71.8711C117.092 76.9552 114.419 81.6374 111.83 86.0165C116.866 82.89 121.901 79.7635 126.935 76.6374C126.185 81.2732 124.347 85.6654 121.57 89.4527C123.941 87.4387 126.689 85.9164 129.654 84.9752C130.834 84.6025 132.335 84.409 133.121 85.3694C134.092 86.5639 133.062 88.3168 131.971 89.4052C129.006 92.2818 125.521 94.5683 121.702 96.1429Z" fill="#EAEAEA"/>
<path d="M102.286 255.396C99.7478 254.585 98.7069 244.293 101.223 243.418L101.227 243.422C100.874 243.753 100.614 244.171 100.473 244.634C100.331 245.097 100.313 245.589 100.42 246.061C100.527 246.533 100.756 246.969 101.083 247.325C101.41 247.682 101.825 247.947 102.286 248.094L157.395 265.684L157.501 265.932C156.308 266.463 155.16 267.09 154.068 267.809C150.869 269.905 148.75 269.763 146.052 272.473C146.694 270.742 147.045 269.683 147.045 269.683L147.048 269.668L102.286 255.396Z" fill="#EAEAEA"/>
<path d="M96.157 135.141C94.3455 134.246 93.6699 131.883 94.1082 129.914C94.5465 127.945 95.8392 126.288 97.1431 124.746C97.4294 126.562 98.4087 128.196 99.875 129.304C99.9518 129.359 100.029 129.417 100.105 129.469L99.9006 129.717C97.6875 130.681 96.4493 133.081 97.198 135.378L97.1798 135.469C96.8246 135.412 96.4797 135.301 96.157 135.141Z" fill="#EAEAEA"/>
<path d="M297.35 183.887L295.846 222.105C295.762 224.227 295.248 226.311 294.334 228.228C293.419 230.146 292.124 231.856 290.527 233.257C288.929 234.657 287.063 235.718 285.043 236.373C283.023 237.029 280.89 237.267 278.775 237.072L158.842 226.021C156.046 225.763 153.45 224.46 151.572 222.373C149.695 220.285 148.673 217.567 148.71 214.76L149.514 154.304L150.175 104.798C150.234 100.262 152.022 95.9205 155.172 92.6576C158.322 89.3946 162.598 87.4563 167.129 87.2375L284.244 81.573C284.931 81.5396 285.619 81.5518 286.304 81.6101C290.348 81.9449 294.105 83.8277 296.794 86.8663C299.482 89.9045 300.894 93.8635 300.734 97.9175L298.309 161.051" stroke="#EAEAEA" stroke-width="3" stroke-linecap="round" stroke-linejoin="round"/>
<path d="M285.798 182.733L284.746 214.154C284.698 215.587 284.357 216.996 283.743 218.292C283.13 219.589 282.257 220.746 281.179 221.693C280.101 222.639 278.84 223.354 277.475 223.795C276.11 224.235 274.669 224.391 273.241 224.253L168.688 216.893C165.834 216.617 163.189 215.277 161.277 213.14C159.366 211.004 158.328 208.227 158.37 205.36L161.887 110.558C161.935 107.308 163.233 104.2 165.512 101.882C167.791 99.5631 170.876 98.2114 174.125 98.1076L275.852 94.8813C277.505 94.8279 279.153 95.1146 280.691 95.7238C282.229 96.3331 283.626 97.2513 284.796 98.4224C285.965 99.5935 286.881 100.992 287.488 102.532C288.095 104.071 288.379 105.719 288.323 107.372L286.506 161.714" stroke="#EAEAEA" stroke-width="3" stroke-linecap="round" stroke-linejoin="round"/>
<path d="M157.395 265.681L102.286 248.092C101.728 247.919 101.239 247.574 100.889 247.106C100.539 246.638 100.346 246.072 100.339 245.488C100.331 244.903 100.508 244.332 100.846 243.855C101.183 243.378 101.663 243.02 102.217 242.833L149.152 226.479C150.596 225.976 152.132 225.788 153.655 225.928L278.749 237.341L280.674 237.517L287.131 238.105C287.615 238.148 288.072 238.351 288.428 238.681C288.785 239.011 289.023 239.451 289.103 239.931C289.184 240.41 289.103 240.903 288.874 241.332C288.644 241.761 288.279 242.102 287.835 242.301L220.272 272.771C209.421 277.66 197.145 278.366 185.806 274.75L168.279 269.286" stroke="#EAEAEA" stroke-width="3" stroke-linecap="round" stroke-linejoin="round"/>
<path d="M147.044 269.681C147.044 269.681 146.694 270.74 146.051 272.471C145.328 274.425 144.232 277.234 142.855 280.331C139.521 287.844 134.535 297.062 129.172 299.962C119.631 305.119 30.6869 293.775 23.7293 235.255C16.7717 176.735 84.8282 154.302 84.8282 154.302L84.3205 147.6L89.2255 147.447L109.441 146.807L117.056 146.566V154.302H149.513" stroke="#EAEAEA" stroke-width="3" stroke-linecap="round" stroke-linejoin="round"/>
<path d="M72.7104 183.434C72.7104 183.434 41.2608 203.543 77.8672 239.894" stroke="#EAEAEA" stroke-width="3" stroke-linecap="round" stroke-linejoin="round"/>
<path d="M303.559 183.887L302.894 200.797L302.054 222.104C301.704 231.063 294.007 238.229 285.078 237.407H280.684" stroke="#EAEAEA" stroke-width="3" stroke-linecap="round" stroke-linejoin="round"/>
<path d="M286.306 81.5547L290.451 81.5732C292.632 81.4679 294.81 81.8176 296.849 82.5997C298.888 83.3818 300.741 84.5796 302.292 86.1163C303.843 87.6534 305.057 89.4964 305.857 91.5279C306.657 93.5593 307.026 95.735 306.941 97.917L305.082 146.583L304.548 160.579" stroke="#EAEAEA" stroke-width="3" stroke-linecap="round" stroke-linejoin="round"/>
<path d="M148.418 270.104L147.048 269.665L102.286 255.396C99.7478 254.585 98.7069 244.293 101.223 243.418" stroke="#EAEAEA" stroke-width="3" stroke-linecap="round" stroke-linejoin="round"/>
<path d="M288.329 238.176C288.848 238.223 289.209 238.804 289.436 239.684C290.195 242.624 289.421 248.888 287.836 249.604L220.273 280.074C209.422 284.965 197.146 285.67 185.806 282.054L185.671 282.01L161.27 274.22" stroke="#EAEAEA" stroke-width="3" stroke-linecap="round" stroke-linejoin="round"/>
<path d="M146.051 272.47C148.75 269.76 150.868 269.902 154.068 267.806C155.159 267.087 156.307 266.46 157.501 265.929C159.801 264.871 162.312 264.349 164.844 264.402C166.312 264.461 167.996 264.924 168.565 266.279C168.973 267.258 168.635 268.42 167.985 269.26C167.281 270.057 166.444 270.725 165.512 271.236C164.047 272.148 162.582 273.06 161.115 273.971C159.581 274.924 158.047 275.879 156.509 276.834" stroke="#EAEAEA" stroke-width="3" stroke-linecap="round" stroke-linejoin="round"/>
<path d="M95.9461 101.036C94.788 106.944 93.0406 112.721 90.7307 118.28C89.3274 121.665 87.678 124.942 85.7964 128.086C85.2661 122.443 85.8186 116.751 87.4251 111.315C86.3088 113.952 84.6846 116.344 82.6443 118.353C82.2134 118.78 81.5488 119.208 81.0556 118.861C80.6848 118.605 80.6648 118.079 80.6796 117.634C80.8873 111.439 81.0931 105.245 81.2967 99.0508" stroke="#EAEAEA" stroke-width="3" stroke-linecap="round" stroke-linejoin="round"/>
<path d="M81.501 98.781C90.8323 96.4692 97.6437 89.7964 104.707 83.2772C108.811 79.4902 112.899 75.6881 116.972 71.8711C117.092 76.9552 114.419 81.6374 111.829 86.0165C116.866 82.89 121.901 79.7635 126.935 76.6374C126.185 81.2739 124.347 85.6661 121.57 89.4538C123.941 87.4398 126.689 85.9179 129.654 84.9763C130.834 84.6037 132.335 84.4101 133.12 85.3705C134.092 86.565 133.062 88.3179 131.971 89.4063C129.007 92.2829 125.523 94.5698 121.704 96.1447C119.581 97.0477 117.393 97.7898 115.159 98.3653C108.943 99.9832 102.501 100.495 96.0944 100.998" stroke="#EAEAEA" stroke-width="3" stroke-linecap="round" stroke-linejoin="round"/>
<path d="M121.702 96.1289V96.1434C121.698 103.131 121.694 110.115 121.691 117.095C121.691 121.752 121.406 127.044 117.834 130.032C116.096 131.482 113.765 132.182 112.268 133.878C109.299 137.234 110.928 142.574 109.441 146.799" stroke="#EAEAEA" stroke-width="3" stroke-linecap="round" stroke-linejoin="round"/>
<path d="M105.383 124.989C106.841 125.654 108.615 124.618 109.328 123.185C110.04 121.752 109.982 120.073 109.901 118.474C109.737 115.125 109.571 111.777 109.405 108.43C109.35 107.283 109.313 106.057 109.912 105.077C110.635 103.901 112.137 103.393 113.509 103.483C114.881 103.572 116.179 104.14 117.44 104.702" stroke="#EAEAEA" stroke-width="3" stroke-linecap="round" stroke-linejoin="round"/>
<path d="M114.134 113.827V110.387" stroke="#EAEAEA" stroke-width="3" stroke-linecap="round" stroke-linejoin="round"/>
<path d="M102.286 112.793C102.345 111.763 102.401 110.732 102.454 109.699" stroke="#EAEAEA" stroke-width="3" stroke-linecap="round" stroke-linejoin="round"/>
<path d="M105.02 130.641C103.294 130.864 101.545 130.447 100.105 129.469C100.028 129.417 99.9511 129.357 99.8743 129.304C98.4077 128.196 97.4287 126.562 97.1424 124.746C95.8385 126.288 94.5466 127.946 94.1075 129.914C93.6684 131.882 94.3448 134.246 96.1563 135.141C96.479 135.301 96.8235 135.412 97.1791 135.469C98.8108 135.739 100.597 134.95 102.084 134.07" stroke="#EAEAEA" stroke-width="3" stroke-linecap="round" stroke-linejoin="round"/>
<path d="M97.1984 135.376C96.4497 133.076 97.6879 130.679 99.901 129.715" stroke="#EAEAEA" stroke-width="3" stroke-linecap="round" stroke-linejoin="round"/>
<path d="M90.7633 118.293C90.2486 128.012 89.7361 137.729 89.2259 147.446C89.2259 147.468 89.2222 147.489 89.2222 147.511" stroke="#EAEAEA" stroke-width="3" stroke-linecap="round" stroke-linejoin="round"/>
<path d="M200.616 108.145C199.732 141.493 198.847 174.842 197.961 208.191" stroke="#EAEAEA" stroke-width="3" stroke-linecap="round" stroke-linejoin="round"/>
<path d="M177.914 124.268C181.266 123.785 184.655 123.599 188.041 123.712" stroke="#EAEAEA" stroke-width="3" stroke-linecap="round" stroke-linejoin="round"/>
<path d="M174.634 138.616C179.776 138.167 184.932 137.959 190.101 137.992" stroke="#EAEAEA" stroke-width="3" stroke-linecap="round" stroke-linejoin="round"/>
<path d="M175.339 158.71C179.789 159.279 184.296 159.238 188.736 158.59" stroke="#EAEAEA" stroke-width="3" stroke-linecap="round" stroke-linejoin="round"/>
<path d="M175.145 176.113C179.557 176.062 183.969 176.013 188.38 175.965" stroke="#EAEAEA" stroke-width="3" stroke-linecap="round" stroke-linejoin="round"/>
<path d="M174.283 188.461C177.607 188.665 180.943 188.588 184.254 188.23" stroke="#EAEAEA" stroke-width="3" stroke-linecap="round" stroke-linejoin="round"/>
<path d="M212.782 158.174C232.004 156.709 251.255 155.763 270.535 155.336" stroke="#EAEAEA" stroke-width="3" stroke-linecap="round" stroke-linejoin="round"/>
<path d="M211.58 168.697C227.336 168.463 243.092 168.228 258.848 167.992" stroke="#EAEAEA" stroke-width="3" stroke-linecap="round" stroke-linejoin="round"/>
<path d="M211.58 180.299C220.003 180.174 228.425 180.048 236.847 179.922" stroke="#EAEAEA" stroke-width="3" stroke-linecap="round" stroke-linejoin="round"/>
<path d="M266.583 125.053V106.699L212.782 113.423L212.245 129.863L211.58 150.282L266.583 143.629V125.053Z" stroke="#EAEAEA" stroke-width="3" stroke-linecap="round" stroke-linejoin="round"/>
<path d="M212.265 129.861C218.384 128.576 224.018 121.127 230.162 120.739C234.369 120.47 238.456 123.55 242.389 126.799C246.322 130.047 250.293 133.563 254.489 134.236C258.686 134.908 263.247 132.219 265.851 125.051" stroke="#EAEAEA" stroke-width="3" stroke-linecap="round" stroke-linejoin="round"/>
<path d="M300.894 176.436C294.798 176.362 288.959 176.154 282.224 175.851C281.062 175.8 279.601 175.253 278.615 175.874C277.629 176.495 277.322 177.987 277.585 179.12C277.936 180.622 279.686 181.253 281.186 181.596C282.651 181.93 284.218 182.221 285.836 182.473C289.654 183.052 293.503 183.411 297.362 183.547C298.465 183.587 299.543 183.605 300.576 183.605C301.361 183.602 302.154 183.587 302.943 183.54C305.316 183.397 307.665 182.962 309.678 181.739C312.844 179.807 314.66 176.139 315.127 172.458C315.594 168.777 314.875 165.048 313.947 161.455C313.439 159.504 312.872 157.565 312.234 155.651C311.661 153.909 311.034 152.184 310.353 150.476C309.908 149.351 309.415 148.204 308.542 147.368C307.669 146.532 306.314 146.075 305.218 146.586" stroke="#EAEAEA" stroke-width="3" stroke-linecap="round" stroke-linejoin="round"/>
<path d="M300.895 176.434C301.753 176.463 302.586 176.474 303.389 176.459C302.547 176.455 301.718 176.444 300.895 176.434Z" stroke="#EAEAEA" stroke-width="3" stroke-linecap="round" stroke-linejoin="round"/>
<path d="M290.009 168.562C286.211 168.566 282.449 168.668 279.096 168.986C278.149 169.062 277.246 169.417 276.5 170.005C275.774 170.604 275.354 171.678 275.781 172.514C276.267 173.467 277.527 173.603 278.586 173.749C286.029 174.768 294.21 176.21 300.894 176.437" stroke="#EAEAEA" stroke-width="3" stroke-linecap="round" stroke-linejoin="round"/>
<path d="M290.009 168.563C294.996 168.905 299.998 168.993 304.994 168.825C300.575 168.749 295.253 168.559 290.009 168.563Z" stroke="#EAEAEA" stroke-width="3" stroke-linecap="round" stroke-linejoin="round"/>
<path d="M305.685 160.832C305.323 160.883 304.965 160.934 304.609 160.98C302.52 161.265 300.449 161.477 298.357 161.638C294.58 161.93 290.723 162.058 286.516 162.146C285.986 162.153 285.449 162.164 284.905 162.175C283.996 162.193 280.522 162.448 279.748 162.927C279.356 163.154 279.037 163.488 278.828 163.89C278.619 164.291 278.529 164.744 278.569 165.195C278.843 167.145 284.084 168.113 290.011 168.559" stroke="#EAEAEA" stroke-width="3" stroke-linecap="round" stroke-linejoin="round"/>
<path d="M312.353 155.609C317.207 157.224 321.794 159.897 325.11 163.79C328.425 167.684 330.369 172.874 329.792 177.956C329.357 181.754 327.571 185.301 325.252 188.347C322.598 191.797 319.277 194.679 315.486 196.819C311.696 198.96 307.513 200.316 303.188 200.807" stroke="#EAEAEA" stroke-width="3" stroke-linecap="round" stroke-linejoin="round"/>
<path d="M100.859 147.219C101.885 177.731 108.589 207.784 120.629 235.839" stroke="#EAEAEA" stroke-width="3" stroke-linecap="round" stroke-linejoin="round"/>
<path d="M117.583 300.836C127.454 291.767 134.541 280.078 138.016 267.133" stroke="#EAEAEA" stroke-width="3" stroke-linecap="round" stroke-linejoin="round"/>
<path d="M143.216 73.7315L152.925 67.6094" stroke="#EAEAEA" stroke-width="3" stroke-linecap="round" stroke-linejoin="round"/>
<path d="M136.847 70.3324C140.268 61.2559 143.93 52.2754 147.831 43.3906" stroke="#EAEAEA" stroke-width="3" stroke-linecap="round" stroke-linejoin="round"/>
<path d="M130.847 66.0041L129.687 55.1758" stroke="#EAEAEA" stroke-width="3" stroke-linecap="round" stroke-linejoin="round"/>
<path d="M163.331 78.9775L167.202 78.1172" stroke="#EAEAEA" stroke-width="3" stroke-linecap="round" stroke-linejoin="round"/>
<path d="M165.442 80.7082L164.134 75.9805" stroke="#EAEAEA" stroke-width="3" stroke-linecap="round" stroke-linejoin="round"/>
<path d="M173.225 50.7184L168.358 49.8555" stroke="#EAEAEA" stroke-width="3" stroke-linecap="round" stroke-linejoin="round"/>
<path d="M170.205 53.1627L171.065 48" stroke="#EAEAEA" stroke-width="3" stroke-linecap="round" stroke-linejoin="round"/>
<path d="M81.4764 68.9846L77.5645 66.5" stroke="#EAEAEA" stroke-width="3" stroke-linecap="round" stroke-linejoin="round"/>
<path d="M77.3999 70.8822L81.2988 63.4492" stroke="#EAEAEA" stroke-width="3" stroke-linecap="round" stroke-linejoin="round"/>
<path d="M97.3996 51.3241L99.7506 53.3151C99.8215 53.3752 99.8723 53.4556 99.896 53.5454C99.9201 53.6355 99.9157 53.7304 99.8842 53.8176C99.8523 53.9051 99.7944 53.9808 99.7188 54.0342C99.6427 54.0879 99.5519 54.1168 99.4592 54.1172L96.3779 54.1332C96.2878 54.1339 96.2003 54.161 96.1258 54.211C96.0512 54.2615 95.9934 54.3327 95.9592 54.4157L94.7922 57.2671C94.757 57.3531 94.6962 57.4265 94.6179 57.477C94.5401 57.5274 94.4485 57.5526 94.3554 57.5493C94.2627 57.5463 94.1729 57.5148 94.0984 57.4592C94.0242 57.4032 93.9686 57.326 93.9393 57.2378L92.9726 54.3123C92.9444 54.227 92.8913 54.1521 92.8205 54.0968C92.7497 54.0412 92.664 54.0082 92.5743 54.0015L89.5016 53.7723C89.4089 53.7657 89.3206 53.7304 89.2483 53.6718C89.1763 53.6129 89.1241 53.5335 89.0981 53.4442C89.0725 53.3552 89.0751 53.2599 89.1048 53.172C89.1348 53.0841 89.1912 53.0073 89.2661 52.9521L91.7507 51.1283C91.823 51.0753 91.8782 51.0018 91.909 50.9173C91.9398 50.8327 91.9446 50.7412 91.9235 50.6536L91.1914 47.6606C91.1692 47.5705 91.1755 47.4756 91.2089 47.3888C91.2422 47.302 91.3016 47.2275 91.3787 47.1756C91.4559 47.1233 91.5471 47.0962 91.6402 47.0977C91.7332 47.0992 91.8233 47.1289 91.899 47.183L94.401 48.9815C94.4741 49.0342 94.5608 49.0639 94.6506 49.0668C94.7403 49.0702 94.8293 49.0464 94.9057 48.999L97.526 47.3781C97.605 47.3295 97.697 47.3058 97.7901 47.3109C97.8828 47.3161 97.9718 47.3495 98.0452 47.4066C98.1182 47.4637 98.1724 47.542 98.1998 47.631C98.2273 47.7196 98.2269 47.8149 98.1987 47.9032L97.2616 50.8383C97.2342 50.924 97.2323 51.0159 97.2572 51.1023C97.2816 51.1887 97.331 51.2659 97.3996 51.3241Z" fill="#EAEAEA"/>
<g opacity="0.1">
<path d="M85.0108 149.536C84.9827 153.895 81.0429 156.096 77.5571 157.72C74.0805 159.34 70.5483 160.755 67.1738 162.595C60.373 166.304 54.0559 170.596 48.4159 175.929C36.787 186.923 27.7387 201.781 24.6753 217.578C23.1512 225.25 23.2307 233.154 24.9088 240.795C26.5868 248.435 29.8271 255.645 34.4259 261.973C43.4122 274.458 55.9542 283.465 70.0381 289.404C88.0906 297.016 107.822 299.934 127.24 301.419C131.1 301.716 132.046 295.231 128.164 294.59C111.583 291.852 94.7523 289.863 78.8265 284.218C65.1891 279.383 52.6356 271.547 43.3748 260.307C34.4063 249.42 29.8869 235.412 32.185 221.357C34.6844 206.07 42.902 192.121 53.6131 181.127C59.2524 175.34 65.6007 170.148 72.6969 166.261C76.4665 164.196 80.7919 162.804 84.1264 160.041C87.3018 157.408 89.4742 153.217 88.3231 149.087C87.8125 147.256 85.0227 147.621 85.0108 149.536Z" fill="#EAEAEA"/>
</g>
</g>
</svg>
