<svg width="750" height="750" viewBox="0 0 750 750" fill="none" xmlns="http://www.w3.org/2000/svg">
<path d="M202.504 289.387C192.984 290.325 183.291 291.262 173.922 289.35C164.553 287.437 155.374 282.211 151.031 273.689C146.381 264.54 148.029 253.637 149.073 243.437C151.379 220.904 150.237 197.675 157.443 176.209C158.313 173.607 159.318 170.999 159.507 168.254C159.696 165.51 158.917 162.538 156.8 160.791C154.857 159.196 152.218 158.901 149.67 158.795C149.406 158.78 149.141 158.764 148.884 158.757C143.334 158.575 137.778 158.392 132.218 158.205C132.173 158.199 132.127 158.196 132.082 158.197C127.238 158.032 121.776 158.1 118.374 161.557C115.561 164.414 115.039 168.744 114.684 172.732C111.417 209.253 109.693 246.047 113.013 282.56C113.602 289.045 114.388 295.635 117.027 301.592C120.287 308.936 126.192 314.825 132.756 319.46C145.316 328.26 160.31 332.917 175.646 332.783L175.654 333.585C175.446 358.856 172.346 384.019 166.414 408.585C165.28 413.265 164.357 419.011 167.977 422.178C170.268 424.189 173.58 424.333 176.612 424.6C186.841 425.502 196.713 428.802 205.428 434.233C205.436 429.553 205.436 424.872 205.428 420.192C205.436 416.842 205.433 413.496 205.42 410.15C205.338 369.946 204.859 329.75 203.984 289.562L203.667 288.609L202.504 289.387Z" fill="#EAEAEA"/>
<path d="M304.163 206.771C306.553 219.928 306.788 234.193 300.345 245.916C295.483 254.763 287.196 261.341 278.175 265.871C269.184 270.377 259.408 273.039 249.706 275.67C244.988 282.687 244.799 291.73 245.231 300.177C245.934 313.87 247.854 327.466 249.767 341.046C252.67 361.605 255.571 382.165 258.47 402.724C258.856 405.423 259.236 408.123 259.612 410.822L260.565 417.559C260.599 418.551 260.955 419.504 261.581 420.274C263.002 421.673 265.369 420.69 267.07 419.654C270.811 417.458 274.412 415.031 277.851 412.388C282.244 408.887 285.995 404.797 288.036 399.609C290.562 393.175 290.04 385.984 289.286 379.111C286.662 355.247 281.695 331.701 276.708 308.208C296.919 308.148 315.188 294.174 325.342 276.677C335.542 259.119 338.87 238.473 340.662 218.239C342.317 199.638 342.771 180.447 336.714 162.777C335.694 159.782 334.31 156.637 331.581 155.034C328.806 153.4 325.331 153.755 322.136 154.164L319.301 154.527C314.249 155.177 309.195 155.825 304.14 156.47C303.084 156.582 302.037 156.773 301.009 157.044C300.023 157.292 299.105 157.755 298.318 158.398C295.845 160.508 295.777 164.258 296.095 167.495C297.406 180.805 301.768 193.615 304.163 206.771Z" fill="#EAEAEA"/>
<path d="M617.652 455.591C611.829 454.661 605.894 455.991 600.192 457.511C585.349 461.466 570.839 466.752 555.731 469.511C540.624 472.27 524.518 472.362 510.462 466.184C496.526 460.059 485.086 446.834 484.178 431.674C481.207 431.627 478.248 431.272 475.35 430.616C455.063 426.373 435.479 419.379 415.975 412.34L415.734 413.013C402.252 428.135 388.422 453.186 383.129 472.74C377.836 492.294 375.908 512.603 374.948 532.837C373.62 560.86 374.124 589.215 380.362 616.572C382.282 625.033 384.808 633.487 389.442 640.821C392.166 645.188 395.723 648.975 399.911 651.966C402.81 654.013 406.06 655.509 409.499 656.383C416.984 658.227 425.567 656.322 430.928 650.923C431.606 650.247 432.225 649.515 432.781 648.736C437.892 641.62 437.363 632.04 436.425 623.33C433.408 595.148 428.456 567.111 427.707 538.778C426.958 510.445 429.66 481.486 442.941 456.45H442.948C444.401 466.016 446.056 475.566 449.112 484.731C452.658 495.393 458.208 505.609 466.586 513.091C477.172 522.55 491.341 526.913 505.292 529.545C530.896 534.249 557.137 534.321 582.766 529.756C595.674 527.503 608.679 524.032 619.506 516.66C623.551 513.918 627.173 510.6 630.257 506.811C635.491 500.354 638.952 492.581 639.248 484.331C639.428 476.769 636.771 469.413 631.799 463.712C628.179 459.433 623.173 456.559 617.652 455.591Z" fill="#EAEAEA"/>
<path d="M192.099 671.555C190.866 677.58 189.664 684.03 191.993 689.732C194.079 694.836 198.669 698.443 203.243 701.535C210.889 706.712 219.027 711.121 227.539 714.699C235.43 718.019 244.571 720.59 252.364 717.043C256.091 715.341 259.328 711.984 259.729 707.902C260.023 704.909 258.768 701.952 257.072 699.456C253.964 694.874 249.436 691.48 244.989 688.175C238.721 683.517 232.45 678.859 226.177 674.202L225.996 673.65C221.723 674.978 216.635 674.978 212.097 674.693C205.784 674.302 198.918 673.589 193.164 671.215L192.099 671.555Z" fill="#343434"/>
<path d="M221.535 205.968C229.468 203.881 237.4 201.792 245.332 199.7C247.683 199.079 250.037 198.459 252.393 197.84C254.152 197.493 255.83 196.818 257.339 195.851C258.775 194.793 259.826 193.008 259.493 191.254C258.904 188.138 254.617 187.284 251.66 188.441C248.704 189.598 246.321 191.972 243.297 192.933C244.658 191.344 246.064 189.673 246.586 187.64C247.108 185.606 246.458 183.103 244.568 182.187C242.76 181.311 240.545 182.172 239.055 183.511C237.565 184.849 236.514 186.626 235.108 188.055C231.706 191.488 226.655 192.532 221.967 193.689C216.712 194.987 211.547 196.623 206.503 198.588C204.357 199.42 202.128 200.403 200.787 202.278C198.337 205.715 199.888 210.422 200.871 214.535C203.085 224.047 201.65 234.044 196.848 242.55C195.978 244.077 195.051 246.143 196.266 247.404C197.498 248.675 199.728 247.722 200.848 246.346C201.968 244.97 202.731 243.185 204.318 242.383C204.107 244.402 202.708 246.066 201.853 247.904C200.999 249.741 200.901 252.35 202.647 253.386C203.985 254.187 205.808 253.575 206.866 252.418C207.828 251.18 208.496 249.74 208.819 248.206L209.243 248.145C208.056 239.806 207.382 231.402 207.224 222.981C207.163 219.579 207.231 215.987 208.978 213.068C211.508 208.826 216.757 207.231 221.535 205.968Z" fill="#EAEAEA"/>
<path d="M227.909 277.477C230.752 279.98 233.597 282.483 236.445 284.985C236.363 280.6 236.282 276.217 236.204 271.836L235.697 271.844C233.134 272.902 230.578 274.709 228.015 275.768C227.74 275.843 227.502 276.018 227.349 276.259C227.152 276.698 227.546 277.159 227.909 277.477Z" fill="#EAEAEA"/>
<path d="M241.952 317.169C242.7 309.88 245.006 294.628 239.472 288.556C237.294 286.175 234.375 286.825 232.153 288.973C229.09 291.921 230.356 296.836 230.284 300.889C229.816 328.548 224.439 355.903 214.406 381.682C215.298 385.675 216.188 389.667 217.075 393.659C221.083 393.811 224.802 391.238 227.086 387.943C229.37 384.649 230.451 380.684 231.442 376.798C236.407 357.207 239.92 337.277 241.952 317.169Z" fill="#EAEAEA"/>
<path d="M311.575 652.295C319.069 571.094 308.082 488.935 278.335 413.016L277.851 412.391C274.412 415.034 270.812 417.461 267.07 419.657C265.369 420.693 263.002 421.675 261.581 420.277C260.956 419.507 260.599 418.554 260.566 417.562L259.612 410.824C242.105 416.577 223.851 419.733 205.428 420.193C205.436 424.874 205.436 429.555 205.428 434.234C199.533 430.557 193.087 427.846 186.336 426.205L186.245 426.552C191.606 498.846 182.298 571.337 180.03 643.798C179.818 650.588 179.787 657.839 183.467 663.54C185.831 667.035 189.217 669.716 193.161 671.216C198.915 673.59 205.781 674.3 212.094 674.693C216.632 674.98 221.72 674.981 225.993 673.651C229.237 672.645 232.008 670.867 233.712 667.869C235.58 664.564 235.573 660.572 235.509 656.775C234.481 588.942 233.448 521.107 232.409 453.27L232.658 453.095C251.819 480.044 254.322 507.825 256.219 541.17C258.163 575.155 255.962 609.434 260.938 643.105C261.611 647.657 262.48 652.367 265.127 656.14C266.805 658.477 269.009 660.385 271.56 661.713C276.392 664.337 282.341 665.419 287.893 666.266C292.823 667.014 298.524 667.437 303.069 665.909C305.623 665.134 307.821 663.481 309.276 661.245C310.933 658.609 311.287 655.384 311.575 652.295Z" fill="#FF6900"/>
<path d="M270.04 661.891C267.742 669.331 265.519 677.763 269.284 684.59C272.037 689.59 277.428 692.515 282.722 694.662C298.642 701.085 316.036 702.952 332.956 700.052C334.665 699.75 336.45 699.372 337.788 698.255C339.58 696.766 340.185 694.248 340.094 691.919C339.883 686.49 336.457 681.598 332.14 678.309C327.822 675.02 322.643 673.074 317.554 671.178C312.487 669.288 308.17 668.153 303.101 666.263L303.063 665.908C298.519 667.435 292.817 667.012 287.887 666.263C282.34 665.416 276.387 664.335 271.554 661.711L270.04 661.891Z" fill="#343434"/>
<path d="M367.19 677.829C366.096 680.748 367.719 684.006 369.798 686.32C375.689 692.868 385.141 695.243 393.92 694.577C402.698 693.912 411.023 690.6 419.189 687.326C422.773 685.889 426.463 684.392 429.223 681.693C433.177 677.852 434.682 672.029 434.47 666.517C434.259 661.179 432.618 656.007 430.94 650.926C425.579 656.324 416.996 658.23 409.511 656.385C406.071 655.512 402.821 654.015 399.923 651.969L399.824 652.105C392.596 660.63 383.691 667.577 373.662 672.513C371.091 673.776 368.203 675.149 367.19 677.829Z" fill="url(#paint0_linear_3034_1478)"/>
<path d="M477.222 302.43C479.445 302.157 481.388 300.297 482.266 298.173C483.263 295.737 483.196 293.016 483.113 290.377L483.173 290.013C480.675 289.632 478.281 288.75 476.133 287.42C474.465 286.356 472.979 285.031 471.732 283.496L471.082 283.887C468.535 286.961 466.673 290.545 465.623 294.397C465.283 295.659 465.071 297.112 465.835 298.17C466.065 298.478 466.356 298.735 466.689 298.926C467.687 299.501 469.033 299.591 470.19 299.947C472.292 300.582 474.061 302.253 476.246 302.447C476.571 302.479 476.899 302.473 477.222 302.43Z" fill="#FF6900"/>
<path d="M473.435 375.784C469.214 363.909 467.375 351.317 468.025 338.73C468.675 326.144 471.801 313.809 477.224 302.432C476.9 302.477 476.573 302.484 476.248 302.455C474.06 302.258 472.294 300.587 470.192 299.955C469.035 299.599 467.692 299.509 466.691 298.934C452.789 323.337 448.064 351.905 453.368 379.485C454.721 386.366 456.755 393.254 460.763 399.009C467.243 408.331 478.139 413.696 485.216 422.57C486.963 414.585 485.368 406.214 482.675 398.495C479.983 390.775 476.218 383.474 473.435 375.784Z" fill="#FF6900"/>
<path d="M502.137 278.256C507.822 275.467 512.259 270.653 514.575 264.758C516.518 259.662 516.669 253.757 514.484 248.812C514.152 248.051 513.762 247.315 513.319 246.612C512.194 244.748 510.641 243.18 508.788 242.037C505.105 239.814 500.659 239.73 495.812 239.625C489.234 239.469 482.913 233.356 476.426 234.717C476.305 234.74 476.191 234.762 476.07 234.795C473.265 235.498 471.057 237.782 469.82 240.39C468.97 242.287 468.426 244.305 468.21 246.372C468.104 247.181 468.021 247.998 467.96 248.806C467.482 253.545 467.791 258.331 468.876 262.969C469.354 264.808 470.035 266.589 470.907 268.277C475.164 276.413 484.631 281.441 493.78 280.632C496.689 280.362 499.522 279.556 502.137 278.256ZM488.208 257.576C485.123 255.043 482.74 250.831 484.239 247.133C486.817 240.767 504.034 241.365 507.747 246.352C509.934 249.293 509.778 253.626 507.716 256.651C506.633 258.133 505.212 259.336 503.571 260.16C501.93 260.984 500.117 261.406 498.28 261.391C494.583 261.324 491.023 259.976 488.208 257.576Z" fill="#EAEAEA"/>
<path d="M499.931 255.499C501.247 254.972 502.334 253.995 502.998 252.742C503.663 251.489 503.862 250.041 503.559 248.656C503.318 247.665 502.66 246.644 501.654 246.508C500.755 246.387 499.945 246.992 499.144 247.408C498.804 247.588 498.447 247.733 498.077 247.839L498.108 248.656C498.566 249.095 498.931 249.623 499.183 250.206C499.434 250.79 499.567 251.417 499.573 252.053C499.578 252.688 499.457 253.318 499.216 253.906C498.974 254.494 498.618 255.027 498.168 255.476L498.184 255.816C498.78 255.808 499.37 255.701 499.931 255.499Z" fill="#EAEAEA"/>
<path d="M488.429 187.64C487.601 186.376 486.508 185.307 485.226 184.51C483.335 183.435 480.616 183.481 479.288 185.205C478.215 186.604 478.388 188.66 479.265 190.188C480.242 191.662 481.533 192.902 483.046 193.817C484.77 195.011 486.544 196.123 488.369 197.152C492.39 199.421 496.625 201.289 501.012 202.724C506.683 204.585 513.044 205.992 516.74 210.687C520.248 215.14 520.316 221.567 518.351 226.883C516.385 232.199 512.702 236.683 509.08 241.046L508.793 242.036C510.645 243.179 512.198 244.748 513.324 246.611C513.767 247.314 514.156 248.049 514.489 248.811L514.89 248.637C520.508 242.028 526.255 235.185 528.863 226.918C531.472 218.651 530.179 208.513 523.457 203.039C519.502 199.818 514.337 198.638 509.506 196.99C504.675 195.342 499.676 192.793 497.536 188.162C496.712 186.378 496.296 184.26 494.761 183.021C494.069 182.45 493.207 182.126 492.311 182.099C491.415 182.073 490.535 182.345 489.811 182.873C489.086 183.4 488.557 184.154 488.308 185.016C488.058 185.877 488.102 186.796 488.433 187.63C488.823 188.177 489.196 188.741 489.559 189.301C489.044 188.856 488.654 188.283 488.429 187.64Z" fill="#EAEAEA"/>
<path d="M631.799 463.715C636.771 469.416 639.428 476.772 639.248 484.335C638.952 492.584 635.489 500.357 630.257 506.814L631.187 507.578C636.668 516.78 642.153 525.984 647.641 535.192C649.425 538.179 651.361 541.317 654.461 542.874C659.738 545.536 666.37 542.459 669.97 537.778C674.143 532.334 675.421 525.106 674.884 518.263C674.348 511.42 672.15 504.834 669.97 498.331C667.837 491.956 665.701 485.579 663.563 479.2C661.816 473.983 659.843 468.441 655.473 465.091C648.964 460.116 639.777 461.764 631.799 463.715Z" fill="url(#paint1_linear_3034_1478)"/>
<path d="M496.019 238.989C494.273 237.658 492.531 236.324 490.794 234.989C494.524 228.542 497.841 221.865 500.723 214.997C501.242 213.986 501.494 212.859 501.456 211.723C501.199 209.598 499.006 208.245 496.925 207.723C494.844 207.201 492.608 207.176 490.702 206.188" stroke="#EAEAEA" stroke-width="2.37812" stroke-linecap="round" stroke-linejoin="round"/>
<path d="M505.163 221.794C505.921 221.524 506.725 221.408 507.529 221.45C508.333 221.493 509.12 221.694 509.845 222.043C510.571 222.391 511.22 222.88 511.756 223.481C512.292 224.083 512.703 224.783 512.966 225.544" stroke="#EAEAEA" stroke-width="2.37812" stroke-linecap="round" stroke-linejoin="round"/>
<path d="M494.834 217.719C493.647 214.438 489.072 212.971 486.199 214.952" stroke="#EAEAEA" stroke-width="2.37812" stroke-linecap="round" stroke-linejoin="round"/>
<path d="M487.121 197.789C481.219 209.298 477.589 221.837 476.429 234.719C476.422 234.738 476.42 234.759 476.421 234.78" stroke="#EAEAEA" stroke-width="2.37812" stroke-linecap="round" stroke-linejoin="round"/>
<path d="M508.791 242.039C510.644 243.182 512.198 244.75 513.323 246.614C513.766 247.316 514.156 248.052 514.488 248.814C516.675 253.759 516.519 259.665 514.578 264.761C512.262 270.654 507.826 275.469 502.14 278.258C499.527 279.555 496.698 280.361 493.792 280.632C484.643 281.441 475.176 276.413 470.919 268.277C470.047 266.588 469.366 264.808 468.888 262.969C467.803 258.33 467.494 253.544 467.972 248.806C468.033 247.998 468.116 247.181 468.222 246.372C468.438 244.305 468.982 242.286 469.832 240.391C471.065 237.782 473.27 235.498 476.082 234.795C476.203 234.765 476.316 234.742 476.438 234.717C482.922 233.356 489.25 239.466 495.824 239.625C500.663 239.733 505.109 239.816 508.791 242.039Z" stroke="#EAEAEA" stroke-width="2.37812" stroke-linecap="round" stroke-linejoin="round"/>
<path d="M491.04 245.793C491.898 246.767 493.015 247.477 494.262 247.839C495.509 248.201 496.833 248.199 498.079 247.835C498.448 247.73 498.805 247.585 499.145 247.404C499.947 246.988 500.756 246.383 501.655 246.504C502.662 246.64 503.319 247.661 503.561 248.652C503.863 250.037 503.665 251.485 503 252.738C502.336 253.991 501.248 254.968 499.932 255.495C499.371 255.697 498.78 255.804 498.185 255.812C497.07 255.836 495.97 255.549 495.009 254.984C494.048 254.42 493.262 253.598 492.741 252.613" stroke="#EAEAEA" stroke-width="2.37812" stroke-linecap="round" stroke-linejoin="round"/>
<path d="M498.168 255.473C498.618 255.025 498.974 254.491 499.216 253.903C499.457 253.316 499.578 252.685 499.573 252.05C499.567 251.415 499.434 250.787 499.183 250.203C498.931 249.62 498.566 249.093 498.108 248.652" stroke="#EAEAEA" stroke-width="2.37812" stroke-linecap="round" stroke-linejoin="round"/>
<path d="M507.747 246.358C509.934 249.299 509.778 253.632 507.716 256.657C506.633 258.138 505.212 259.341 503.571 260.165C501.93 260.99 500.117 261.412 498.28 261.397C494.583 261.329 491.022 259.979 488.208 257.579C485.123 255.046 482.74 250.834 484.239 247.136C486.819 240.77 504.034 241.368 507.747 246.358Z" stroke="#EAEAEA" stroke-width="2.37812" stroke-linecap="round" stroke-linejoin="round"/>
<path d="M488.429 187.642C488.098 186.808 488.055 185.888 488.304 185.027C488.553 184.166 489.082 183.412 489.806 182.884C490.531 182.356 491.411 182.085 492.307 182.111C493.203 182.138 494.065 182.462 494.757 183.032C496.292 184.272 496.71 186.392 497.532 188.174C499.672 192.801 504.678 195.349 509.502 197.002C514.326 198.654 519.502 199.83 523.453 203.051C530.172 208.525 531.475 218.657 528.859 226.93C526.244 235.203 520.5 242.037 514.886 248.649" stroke="#EAEAEA" stroke-width="2.37812" stroke-linecap="round" stroke-linejoin="round"/>
<path d="M488.429 187.641C488.819 188.187 489.192 188.752 489.555 189.312C489.039 188.863 488.65 188.287 488.429 187.641Z" stroke="#EAEAEA" stroke-width="2.37812" stroke-linecap="round" stroke-linejoin="round"/>
<path d="M509.079 241.049C512.701 236.686 516.391 232.21 518.349 226.886C520.308 221.563 520.247 215.144 516.738 210.69C513.041 205.995 506.682 204.588 501.011 202.728C496.623 201.291 492.388 199.425 488.368 197.155C486.545 196.127 484.77 195.015 483.045 193.821C481.532 192.904 480.241 191.665 479.264 190.191C478.387 188.664 478.213 186.608 479.287 185.208C480.61 183.485 483.332 183.439 485.224 184.513C486.507 185.311 487.601 186.379 488.427 187.643" stroke="#EAEAEA" stroke-width="2.37812" stroke-linecap="round" stroke-linejoin="round"/>
<path d="M467.333 246.251C460.021 209.692 452.714 173.129 445.413 136.564C444.695 132.95 443.901 129.184 441.617 126.288C438.524 122.371 433.443 120.927 428.324 120.707C426.867 120.652 425.408 120.68 423.954 120.791C419.326 121.139 414.623 122.008 410.033 121.807C408.259 121.746 406.498 121.479 404.786 121.012C407.861 146.207 410.942 171.396 414.026 196.581C417.413 224.315 420.808 252.134 420.635 280.065C420.392 320.221 412.77 359.974 403.599 399.082" stroke="#EAEAEA" stroke-width="2.37812" stroke-linecap="round" stroke-linejoin="round"/>
<path d="M502.674 279.288C505.937 279.69 509.242 279.606 512.481 279.038C525.025 276.913 536.465 268.029 542.247 256.483C549.521 241.973 548.674 224.271 542.481 209.27C536.288 194.268 525.215 181.709 512.772 171.289C509.347 168.424 505.415 164.128 507.45 160.151C508.243 158.609 509.779 157.618 511.245 156.703C511.397 156.605 511.557 156.506 511.707 156.416C516.205 153.595 520.701 150.777 525.196 147.962C526.081 147.41 526.988 146.851 527.925 146.344C530.315 145.044 532.863 144.083 535.504 144.431C539.247 144.923 542.112 147.887 544.585 150.737C562.686 171.637 576.902 196.589 581.529 223.856C586.157 251.122 580.327 280.792 562.505 301.942C548.599 318.433 528.857 328.565 509.311 337.888C508.061 338.486 506.823 339.075 505.583 339.665" stroke="#EAEAEA" stroke-width="2.37812" stroke-linecap="round" stroke-linejoin="round"/>
<path d="M511.279 155.725C507.649 155.855 504.094 154.671 501.268 152.389C500.05 151.399 498.924 150.068 498.894 148.496C498.849 146.197 501.268 144.465 503.567 144.397C505.865 144.329 508.013 145.433 510.039 146.507C504.007 138.089 499.599 128.621 497.041 118.586C496.829 117.739 496.656 116.749 497.215 116.075C497.551 115.757 497.99 115.568 498.453 115.543C498.915 115.518 499.372 115.659 499.741 115.939C500.463 116.528 501.029 117.287 501.389 118.147C505.169 125.452 508.947 132.753 512.724 140.053C509.095 131.057 501.389 113.304 504.789 112.141C509.399 110.149 510.961 119.967 512.532 124.719C514.103 129.471 515.299 134.436 518.052 138.617C515.533 130.38 513.931 121.892 513.273 113.304C513.152 111.777 513.429 109.75 514.944 109.486C516.459 109.222 517.402 111.074 517.817 112.564C520.942 123.807 524.067 135.053 527.192 146.302" stroke="#EAEAEA" stroke-width="2.37812" stroke-linecap="round" stroke-linejoin="round"/>
<path d="M428.361 119.82C431.939 117.671 435.018 114.781 437.389 111.344C438.122 110.285 438.743 108.743 437.835 107.82C437.139 107.117 435.968 107.284 435.014 107.563C431.562 108.576 428.356 110.288 425.593 112.592C425.593 100.771 426.137 77.0503 421.253 77.583C416.368 78.1156 418.909 98.6259 420.338 109.189C419.015 101.666 417.692 94.147 416.368 86.6337C415.907 84.0025 414.697 80.7056 412.028 80.7283C409.007 80.7541 411.594 101.052 413.934 110.943C411.668 106.399 411.628 101.129 410.977 96.0931C410.326 91.0572 407.836 82.4556 404.475 82.8603C398.461 83.5838 405.026 108.844 410.078 120.818" stroke="#EAEAEA" stroke-width="2.37812" stroke-linecap="round" stroke-linejoin="round"/>
<path d="M512.625 279.865C507.12 283.479 501.517 287.139 495.219 289.052C491.327 290.277 487.209 290.605 483.173 290.012C480.677 289.63 478.281 288.748 476.134 287.419C474.466 286.355 472.98 285.03 471.733 283.495C470.125 281.505 468.876 279.251 468.043 276.833C466.501 272.402 466.324 267.359 468.293 263.094" stroke="#EAEAEA" stroke-width="2.37812" stroke-linecap="round" stroke-linejoin="round"/>
<path d="M483.113 290.379C483.195 293.018 483.263 295.74 482.266 298.175C481.388 300.299 479.445 302.159 477.222 302.432C476.899 302.477 476.571 302.484 476.246 302.455C474.059 302.258 472.292 300.587 470.19 299.955C469.033 299.599 467.69 299.509 466.689 298.934C466.356 298.743 466.065 298.485 465.834 298.178C465.071 297.12 465.283 295.667 465.623 294.405C466.674 290.552 468.534 286.969 471.082 283.895" stroke="#EAEAEA" stroke-width="2.37812" stroke-linecap="round" stroke-linejoin="round"/>
<path d="M509.54 338.371C506.243 363.679 502.946 388.991 499.649 414.309C498.999 419.322 498.138 424.766 494.432 428.222C491.665 430.792 488.013 431.655 484.179 431.677C481.208 431.63 478.249 431.276 475.351 430.619C455.064 426.377 435.48 419.382 415.976 412.343C415.523 412.177 415.077 412.018 414.623 411.852C411.833 410.845 408.967 409.795 406.713 407.852C404.46 405.909 402.948 402.83 403.674 399.95" stroke="#EAEAEA" stroke-width="2.37812" stroke-linecap="round" stroke-linejoin="round"/>
<path d="M484.156 431.242L484.179 431.673C485.087 446.834 496.527 460.059 510.463 466.184C524.519 472.361 540.624 472.27 555.732 469.51C570.84 466.75 585.35 461.463 600.193 457.51C605.896 455.991 611.83 454.66 617.652 455.59C623.173 456.559 628.179 459.433 631.799 463.711C636.771 469.412 639.428 476.768 639.248 484.33C638.952 492.58 635.489 500.353 630.257 506.81C627.177 510.6 623.559 513.92 619.52 516.663C608.692 524.035 595.687 527.506 582.779 529.759C557.15 534.324 530.909 534.252 505.306 529.548C491.355 526.916 477.185 522.553 466.599 513.094C458.221 505.609 452.671 495.393 449.125 484.734C446.07 475.57 444.414 466.02 442.962 456.453C442.72 454.903 442.493 453.353 442.259 451.803" stroke="#EAEAEA" stroke-width="2.37812" stroke-linecap="round" stroke-linejoin="round"/>
<path d="M442.955 456.453C429.673 481.489 426.969 510.449 427.72 538.781C428.471 567.113 433.423 595.152 436.438 623.333C437.376 632.043 437.905 641.623 432.794 648.739C432.238 649.519 431.619 650.25 430.941 650.927C425.58 656.325 416.998 658.23 409.512 656.386C406.073 655.513 402.823 654.016 399.924 651.97C395.737 648.979 392.179 645.191 389.455 640.824C384.821 633.49 382.295 625.036 380.375 616.575C374.137 589.218 373.63 560.863 374.961 532.841C375.921 512.606 377.851 492.294 383.142 472.743C388.433 453.192 402.265 428.138 415.747 413.016" stroke="#EAEAEA" stroke-width="2.37812" stroke-linecap="round" stroke-linejoin="round"/>
<path d="M631.519 463.784L631.799 463.716C639.776 461.763 648.964 460.117 655.471 465.092C659.841 468.442 661.815 473.984 663.561 479.201C665.701 485.574 667.836 491.952 669.968 498.331C672.145 504.835 674.342 511.421 674.882 518.263C675.422 525.106 674.141 532.335 669.968 537.779C666.369 542.46 659.733 545.537 654.459 542.875C651.359 541.318 649.423 538.18 647.639 535.193C642.156 525.984 636.672 516.779 631.185 507.579" stroke="#EAEAEA" stroke-width="2.37812" stroke-linecap="round" stroke-linejoin="round"/>
<path d="M430.781 650.457C430.834 650.613 430.887 650.77 430.937 650.926C432.615 656.004 434.256 661.179 434.467 666.517C434.679 672.029 433.174 677.852 429.221 681.693C426.46 684.392 422.771 685.889 419.186 687.326C411.02 690.6 402.688 693.904 393.917 694.577C385.146 695.251 375.686 692.868 369.796 686.32C367.716 684.006 366.09 680.748 367.187 677.829C368.203 675.152 371.088 673.776 373.66 672.516C383.689 667.58 392.596 660.63 399.824 652.102" stroke="#343434" stroke-width="2.37812" stroke-linecap="round" stroke-linejoin="round"/>
<path d="M239.856 207.074C235.831 208.805 231.588 209.977 227.245 210.559C229.588 219.013 231.927 227.467 234.261 235.92C233.104 235.928 231.955 235.928 230.798 235.936" stroke="#EAEAEA" stroke-width="2.37812" stroke-linecap="round" stroke-linejoin="round"/>
<path d="M234.836 217.252C234.885 216.669 235.108 216.113 235.474 215.656C235.841 215.2 236.335 214.862 236.894 214.688C237.453 214.514 238.052 214.51 238.613 214.677C239.174 214.844 239.673 215.174 240.045 215.626C239.811 215.459 239.577 215.285 239.335 215.112" stroke="#EAEAEA" stroke-width="2.37812" stroke-linecap="round" stroke-linejoin="round"/>
<path d="M222.169 218.388C222.018 218.274 221.867 218.168 221.723 218.055" stroke="#EAEAEA" stroke-width="2.37812" stroke-linecap="round" stroke-linejoin="round"/>
<path d="M215.971 220.496C216.171 219.895 216.508 219.347 216.955 218.897C217.402 218.447 217.946 218.107 218.547 217.902C219.147 217.698 219.787 217.636 220.416 217.72C221.044 217.804 221.645 218.032 222.171 218.387C222.269 218.455 222.367 218.523 222.458 218.598" stroke="#EAEAEA" stroke-width="2.37812" stroke-linecap="round" stroke-linejoin="round"/>
<path d="M232.009 244.916C229.952 246.635 226.724 246.292 224.553 244.72C224.153 244.427 223.778 244.102 223.435 243.745C221.964 242.114 220.881 240.173 220.266 238.066C218.322 239.245 216.842 241.055 216.07 243.193C215.698 244.259 215.588 245.398 215.75 246.516C215.912 247.634 216.34 248.695 216.999 249.613C217.459 250.208 218.032 250.706 218.685 251.08C219.331 251.46 220.052 251.699 220.798 251.78C221.543 251.861 222.298 251.782 223.011 251.548" stroke="#EAEAEA" stroke-width="2.37812" stroke-linecap="round" stroke-linejoin="round"/>
<path d="M218.821 250.602C218.867 249.155 219.318 247.749 220.125 246.546C220.931 245.343 222.059 244.391 223.381 243.797" stroke="#EAEAEA" stroke-width="2.37812" stroke-linecap="round" stroke-linejoin="round"/>
<path d="M235.047 268.289C232.34 264.713 233.701 259.42 236.415 255.859C239.13 252.297 242.948 249.712 245.783 246.241C250.549 240.411 252.097 232.479 251.598 224.971C251.099 217.463 247.969 207.95 245.617 200.797" stroke="#EAEAEA" stroke-width="2.37812" stroke-linecap="round" stroke-linejoin="round"/>
<path d="M214.253 272.69C209.904 256.466 207.543 239.774 207.222 222.981C207.161 219.579 207.229 215.987 208.976 213.068C211.509 208.826 216.757 207.231 221.535 205.968C229.468 203.881 237.4 201.792 245.332 199.7C247.683 199.079 250.037 198.459 252.393 197.84C254.152 197.493 255.83 196.818 257.339 195.851C258.775 194.793 259.826 193.008 259.493 191.254C258.904 188.138 254.617 187.284 251.66 188.441C248.704 189.598 246.321 191.972 243.297 192.933C244.658 191.344 246.064 189.673 246.586 187.64C247.108 185.606 246.458 183.103 244.568 182.187C242.76 181.311 240.545 182.172 239.055 183.511C237.565 184.849 236.514 186.626 235.108 188.055C231.706 191.488 226.655 192.532 221.967 193.689C216.712 194.987 211.547 196.623 206.503 198.588C204.357 199.42 202.128 200.403 200.787 202.278C198.337 205.715 199.888 210.422 200.871 214.535C203.085 224.047 201.65 234.044 196.848 242.55C195.978 244.077 195.051 246.143 196.266 247.404C197.498 248.675 199.728 247.722 200.848 246.346C201.968 244.97 202.731 243.185 204.318 242.383C204.107 244.402 202.708 246.066 201.853 247.904C200.999 249.741 200.901 252.35 202.647 253.386C203.985 254.187 205.808 253.575 206.866 252.418C207.828 251.18 208.496 249.74 208.819 248.206" stroke="#EAEAEA" stroke-width="2.37812" stroke-linecap="round" stroke-linejoin="round"/>
<path d="M249.58 275.702L249.663 275.679C249.677 275.672 249.693 275.67 249.708 275.671C259.41 273.04 269.187 270.378 278.177 265.872C287.198 261.341 295.485 254.764 300.348 245.917C306.79 234.198 306.555 219.929 304.165 206.772C301.776 193.615 297.406 180.806 296.098 167.498C295.78 164.262 295.848 160.512 298.321 158.402C299.108 157.759 300.026 157.296 301.012 157.048C302.04 156.777 303.087 156.586 304.143 156.474C309.195 155.831 314.248 155.184 319.304 154.53L322.139 154.168C325.337 153.759 328.808 153.404 331.583 155.037C334.313 156.641 335.697 159.786 336.717 162.78C342.774 180.451 342.32 199.642 340.665 218.243C338.873 238.47 335.545 259.12 325.345 276.68C315.189 294.18 296.922 308.152 276.711 308.212H276.483" stroke="#EAEAEA" stroke-width="2.37812" stroke-linecap="round" stroke-linejoin="round"/>
<path d="M202.502 289.387C192.983 290.325 183.289 291.262 173.92 289.35C164.552 287.437 155.373 282.211 151.03 273.689C146.379 264.54 148.027 253.637 149.071 243.437C151.377 220.904 150.235 197.675 157.442 176.209C158.311 173.607 159.316 170.999 159.506 168.254C159.695 165.51 158.916 162.538 156.799 160.791C154.856 159.196 152.217 158.901 149.668 158.795C149.404 158.78 149.139 158.764 148.882 158.757C143.332 158.575 137.777 158.392 132.217 158.205C132.172 158.199 132.126 158.196 132.081 158.197C127.237 158.032 121.774 158.1 118.372 161.557C115.559 164.414 115.038 168.744 114.682 172.732C111.416 209.253 109.691 246.047 113.011 282.56C113.601 289.045 114.387 295.635 117.026 301.592C120.285 308.936 126.191 314.825 132.754 319.46C145.315 328.26 160.309 332.917 175.645 332.783C177.051 332.768 178.45 332.713 179.842 332.617" stroke="#EAEAEA" stroke-width="2.37812" stroke-linecap="round" stroke-linejoin="round"/>
<path d="M276.544 307.416C276.596 307.68 276.657 307.945 276.71 308.209C281.693 331.702 286.66 355.248 289.288 379.112C290.045 385.987 290.566 393.175 288.038 399.611C285.997 404.798 282.246 408.889 277.853 412.39C274.414 415.034 270.813 417.46 267.072 419.655C265.371 420.691 263.004 421.674 261.583 420.276C260.958 419.506 260.601 418.552 260.567 417.561L259.614 410.823C259.236 408.124 258.856 405.425 258.473 402.726C255.569 382.166 252.668 361.607 249.77 341.048C247.856 327.467 245.936 313.872 245.233 300.178C244.802 291.732 244.991 282.689 249.709 275.672" stroke="#EAEAEA" stroke-width="2.37812" stroke-linecap="round" stroke-linejoin="round"/>
<path d="M203.985 289.559C204.854 329.747 205.333 369.943 205.422 410.147C205.43 413.497 205.432 416.844 205.43 420.188C205.437 424.869 205.437 429.549 205.43 434.23C196.715 428.798 186.842 425.498 176.613 424.597C173.581 424.332 170.27 424.188 167.978 422.175C164.356 419.006 165.279 413.26 166.416 408.581C172.348 384.016 175.448 358.852 175.655 333.581" stroke="#EAEAEA" stroke-width="2.37812" stroke-linecap="round" stroke-linejoin="round"/>
<path d="M249.603 275.465C251.728 273.688 249.686 269.128 247.206 267.887C244.727 266.646 241.77 267.169 239.048 267.721C237.732 267.985 236.409 268.25 235.093 268.514C228.144 269.907 221.198 271.303 214.254 272.703C213.929 272.771 213.603 272.832 213.278 272.9C210.692 273.414 207.94 274.027 206.095 275.917C203.169 278.904 202.942 284.484 203.668 288.605" stroke="#EAEAEA" stroke-width="2.37812" stroke-linecap="round" stroke-linejoin="round"/>
<path d="M278.335 413.016C308.082 488.939 319.069 571.094 311.575 652.295C311.287 655.387 310.933 658.609 309.276 661.24C307.821 663.477 305.623 665.13 303.069 665.905C298.524 667.433 292.823 667.009 287.893 666.261C282.346 665.414 276.392 664.333 271.56 661.709C269.012 660.38 266.81 658.471 265.133 656.136C262.487 652.363 261.618 647.652 260.944 643.1C255.969 609.428 258.169 575.146 256.226 541.166C254.328 507.82 251.825 480.04 232.665 453.091C232.309 452.584 231.939 452.07 231.571 451.563" stroke="#EAEAEA" stroke-width="2.37812" stroke-linecap="round" stroke-linejoin="round"/>
<path d="M232.416 453.263C233.452 521.096 234.485 588.932 235.516 656.77C235.576 660.566 235.584 664.558 233.719 667.863C232.018 670.865 229.243 672.641 225.999 673.644C221.727 674.973 216.638 674.973 212.101 674.687C205.788 674.297 198.922 673.584 193.167 671.209C189.223 669.71 185.838 667.03 183.474 663.534C179.792 657.831 179.822 650.582 180.036 643.792C182.302 571.331 191.613 498.841 186.252 426.547" stroke="#EAEAEA" stroke-width="2.37812" stroke-linecap="round" stroke-linejoin="round"/>
<path d="M257.512 402.859C240.546 407.217 223.146 409.663 205.637 410.148" stroke="#EAEAEA" stroke-width="2.37812" stroke-linecap="round" stroke-linejoin="round"/>
<path d="M259.676 410.805C259.656 410.813 259.636 410.818 259.615 410.82C242.108 416.572 223.852 419.728 205.43 420.188C205.375 420.195 205.32 420.198 205.264 420.196" stroke="#EAEAEA" stroke-width="2.37812" stroke-linecap="round" stroke-linejoin="round"/>
<path d="M236.195 271.43C236.195 271.566 236.202 271.702 236.202 271.838C236.285 276.216 236.366 280.598 236.444 284.987C233.601 282.487 230.756 279.984 227.907 277.478C227.545 277.161 227.151 276.697 227.348 276.261C227.501 276.02 227.738 275.845 228.013 275.77C230.577 274.711 233.132 272.904 235.695 271.845" stroke="#EAEAEA" stroke-width="2.37812" stroke-linecap="round" stroke-linejoin="round"/>
<path d="M241.952 317.169C239.92 337.277 236.407 357.207 231.442 376.798C230.451 380.684 229.363 384.639 227.086 387.943C224.81 391.247 221.083 393.811 217.075 393.659C216.183 389.667 215.293 385.675 214.406 381.682C224.439 355.903 229.816 328.548 230.284 300.889C230.352 296.836 229.09 291.921 232.153 288.973C234.375 286.825 237.294 286.175 239.472 288.556C245.006 294.628 242.7 309.88 241.952 317.169Z" stroke="#EAEAEA" stroke-width="2.37812" stroke-linecap="round" stroke-linejoin="round"/>
<path d="M303.107 666.263C308.173 668.152 312.49 669.287 317.56 671.177C322.649 673.075 327.821 675.018 332.146 678.308C336.471 681.598 339.889 686.489 340.101 691.918C340.191 694.247 339.587 696.762 337.794 698.255C336.456 699.373 334.669 699.752 332.962 700.052C316.041 702.951 298.648 701.084 282.728 694.661C277.435 692.514 272.044 689.588 269.291 684.589C265.525 677.762 267.748 669.33 270.047 661.891" stroke="#343434" stroke-width="2.37812" stroke-linecap="round" stroke-linejoin="round"/>
<path d="M226.177 674.198C232.446 678.855 238.716 683.513 244.99 688.171C249.436 691.476 253.965 694.87 257.073 699.452C258.766 701.948 260.022 704.905 259.729 707.898C259.328 711.982 256.091 715.339 252.364 717.039C244.568 720.585 235.427 718.014 227.54 714.695C219.028 711.116 210.89 706.707 203.243 701.531C198.668 698.439 194.078 694.832 191.993 689.728C189.664 684.025 190.866 677.577 192.099 671.551" stroke="#343434" stroke-width="2.37812" stroke-linecap="round" stroke-linejoin="round"/>
<path d="M313.035 138.999C311.546 130.874 309.008 114.688 312.936 114.688C317.601 113.664 319.972 140.713 319.258 154.174" stroke="#EAEAEA" stroke-width="2.37812" stroke-linecap="round" stroke-linejoin="round"/>
<path d="M313.103 139.355C313.292 140.293 313.466 141.23 313.632 142.168C313.451 141.238 313.277 140.3 313.103 139.355Z" stroke="#EAEAEA" stroke-width="2.37812" stroke-linecap="round" stroke-linejoin="round"/>
<path d="M313.103 139.356C313.08 139.235 313.058 139.114 313.035 139" stroke="#EAEAEA" stroke-width="2.37812" stroke-linecap="round" stroke-linejoin="round"/>
<path d="M300.916 156.73C299.607 155.301 297.883 154.333 296.333 153.176C294.783 152.019 293.309 150.537 292.908 148.645C292.507 146.753 293.581 144.448 295.494 144.153C298.269 143.723 300.031 147.291 302.753 147.972C299.724 139.803 297.628 131.318 296.507 122.679C296.31 121.212 296.499 119.223 297.959 118.944C299.373 118.672 300.296 120.366 300.727 121.741C303.146 129.401 305.563 137.061 307.978 144.72C306.292 136.017 304.606 127.269 304.25 118.407C304.205 117.266 304.719 115.647 305.831 115.926C306.42 116.07 306.715 116.713 306.919 117.28C309.522 124.348 311.567 131.611 313.036 138.999" stroke="#EAEAEA" stroke-width="2.37812" stroke-linecap="round" stroke-linejoin="round"/>
<path d="M132.243 157.608C132.843 147.221 134.208 136.891 136.326 126.704C136.833 124.282 137.461 121.721 139.275 120.043C140.409 118.985 142.478 118.516 143.351 119.801C143.73 120.539 143.835 121.389 143.646 122.198C142.701 130.198 141.758 138.198 140.818 146.198C141.876 138.946 142.995 131.521 146.557 125.117C147.081 123.999 147.903 123.046 148.931 122.364C149.454 122.037 150.074 121.899 150.686 121.973C151.298 122.048 151.867 122.33 152.296 122.773C153.077 123.763 152.772 125.185 152.432 126.395C150.466 133.359 148.501 140.321 146.534 147.279C148.644 140.957 150.768 134.591 153.906 128.701C154.304 127.828 154.891 127.054 155.625 126.435C155.999 126.131 156.457 125.951 156.937 125.917C157.418 125.883 157.897 125.998 158.309 126.246C159.33 126.987 159.247 128.522 159.02 129.762C157.833 136.388 155.855 142.849 153.13 149.005C154.566 148.045 156.094 147.047 157.818 146.986C159.541 146.925 161.433 148.236 161.326 149.95C161.236 151.44 159.814 152.446 158.543 153.224C155.587 155.017 152.633 156.813 149.682 158.615" stroke="#EAEAEA" stroke-width="2.37812" stroke-linecap="round" stroke-linejoin="round"/>
<path d="M477.267 302.339L477.222 302.43C471.799 313.808 468.674 326.142 468.024 338.729C467.374 351.316 469.212 363.907 473.434 375.783C476.216 383.473 479.982 390.777 482.674 398.49C485.365 406.202 486.961 414.584 485.214 422.565C478.137 413.688 467.241 408.327 460.761 399.004C456.753 393.249 454.72 386.361 453.366 379.48C448.063 351.9 452.788 323.333 466.689 298.929C466.712 298.891 466.734 298.846 466.757 298.809" stroke="#EAEAEA" stroke-width="2.37812" stroke-linecap="round" stroke-linejoin="round"/>
<path d="M328.877 552.215C330.715 545.552 331.069 538.567 329.915 531.752C328.761 524.938 326.127 518.459 322.199 512.773" stroke="#343434" stroke-width="2.37812" stroke-linecap="round" stroke-linejoin="round"/>
<path d="M325.536 96.358C318.06 90.283 311.578 83.0798 306.321 75.0078" stroke="#EAEAEA" stroke-width="2.37812" stroke-linecap="round" stroke-linejoin="round"/>
<path d="M357.642 83.5398L353.181 31.25" stroke="#EAEAEA" stroke-width="2.37812" stroke-linecap="round" stroke-linejoin="round"/>
<path d="M383.179 79.2759L390.647 65.3984" stroke="#EAEAEA" stroke-width="2.37812" stroke-linecap="round" stroke-linejoin="round"/>
<path d="M197.354 470.516L196.436 460.359" stroke="#EAEAEA" stroke-width="2.37812" stroke-linecap="round" stroke-linejoin="round"/>
<path d="M219.32 502.001V491.859" stroke="#343434" stroke-width="2.37812" stroke-linecap="round" stroke-linejoin="round"/>
<path d="M200.101 547.367L200.623 537.758" stroke="#343434" stroke-width="2.37812" stroke-linecap="round" stroke-linejoin="round"/>
<path d="M219.487 616.197L218.35 609.27" stroke="#343434" stroke-width="2.37812" stroke-linecap="round" stroke-linejoin="round"/>
<path d="M193.702 594.339L194.235 583.664" stroke="#343434" stroke-width="2.37812" stroke-linecap="round" stroke-linejoin="round"/>
<path d="M259.886 473.712C259.043 469.916 257.2 466.414 254.548 463.57" stroke="#EAEAEA" stroke-width="2.37812" stroke-linecap="round" stroke-linejoin="round"/>
<path d="M291.376 535.629L288.707 526.02" stroke="#343434" stroke-width="2.37812" stroke-linecap="round" stroke-linejoin="round"/>
<path d="M272.696 586.867C271.408 583.823 271.22 580.426 272.162 577.258" stroke="#343434" stroke-width="2.37812" stroke-linecap="round" stroke-linejoin="round"/>
<path d="M305.292 613.564C305.655 612.426 305.789 611.227 305.688 610.036C305.586 608.845 305.25 607.686 304.7 606.625" stroke="#343434" stroke-width="2.37812" stroke-linecap="round" stroke-linejoin="round"/>
<path d="M279.086 647.181L278.021 638.641" stroke="#343434" stroke-width="2.37812" stroke-linecap="round" stroke-linejoin="round"/>
<path d="M227.845 417.141L226.78 410.734" stroke="#EAEAEA" stroke-width="2.37812" stroke-linecap="round" stroke-linejoin="round"/>
<path d="M239.603 416.071L238.002 409.133" stroke="#EAEAEA" stroke-width="2.37812" stroke-linecap="round" stroke-linejoin="round"/>
<path d="M520.101 177.399C526.076 171.71 533.058 167.184 540.69 164.051C542.233 163.418 543.916 162.749 544.771 161.316" stroke="#EAEAEA" stroke-width="2.37812" stroke-linecap="round" stroke-linejoin="round"/>
<path d="M445.056 138.767C434.592 136.9 423.958 136.162 413.337 136.563" stroke="#EAEAEA" stroke-width="2.37812" stroke-linecap="round" stroke-linejoin="round"/>
<path d="M552.909 138.702L556.823 131.941" stroke="#EAEAEA" stroke-width="2.37812" stroke-linecap="round" stroke-linejoin="round"/>
<path d="M558.913 138.046L551.894 132.234" stroke="#EAEAEA" stroke-width="2.37812" stroke-linecap="round" stroke-linejoin="round"/>
<path d="M540.087 107.743C540.129 104.769 540.871 101.846 542.252 99.2109" stroke="#EAEAEA" stroke-width="2.37812" stroke-linecap="round" stroke-linejoin="round"/>
<path d="M545.793 104.543L537.498 100.281L538.09 101.27" stroke="#EAEAEA" stroke-width="2.37812" stroke-linecap="round" stroke-linejoin="round"/>
<path d="M501.056 546.328C494.894 547.273 488.598 546.799 482.647 544.945C476.695 543.09 471.245 539.902 466.712 535.625" stroke="#343434" stroke-width="2.37812" stroke-linecap="round" stroke-linejoin="round"/>
<path d="M186.496 194.565L176.088 186.559" stroke="#EAEAEA" stroke-width="2.37812" stroke-linecap="round" stroke-linejoin="round"/>
<path d="M178.489 196.164L185.694 185.758" stroke="#EAEAEA" stroke-width="2.37812" stroke-linecap="round" stroke-linejoin="round"/>
<path d="M215.318 174.549V167.344" stroke="#EAEAEA" stroke-width="2.37812" stroke-linecap="round" stroke-linejoin="round"/>
<path d="M222.518 172.26L209.705 171.543" stroke="#EAEAEA" stroke-width="2.37812" stroke-linecap="round" stroke-linejoin="round"/>
<path d="M197.4 654.655L196.344 645.402" stroke="#343434" stroke-width="2.37812" stroke-linecap="round" stroke-linejoin="round"/>
<path d="M650.414 462.496C658.95 479.616 666.93 497.989 665.776 517.084C665.48 521.993 664.526 526.986 661.965 531.182C659.404 535.378 655 538.672 650.09 538.925" stroke="#EAEAEA" stroke-width="2.37812" stroke-linecap="round" stroke-linejoin="round"/>
<path d="M636.701 515.713L644.964 508.328" stroke="#343434" stroke-width="2.37812" stroke-linecap="round" stroke-linejoin="round"/>
<path d="M641.551 523.391L647.879 517.266" stroke="#343434" stroke-width="2.37812" stroke-linecap="round" stroke-linejoin="round"/>
<path d="M433.743 673.445C427.294 676.536 420.738 679.409 414.04 681.911C406.384 684.77 398.337 687.172 390.184 686.67C382.031 686.167 373.685 682.272 369.729 675.123" stroke="#343434" stroke-width="2.37812" stroke-linecap="round" stroke-linejoin="round"/>
<path d="M385.464 666.637C387.775 668.389 389.966 670.294 392.021 672.34L391.586 672.132" stroke="#343434" stroke-width="2.37812" stroke-linecap="round" stroke-linejoin="round"/>
<path d="M393.189 659.719C395.376 660.847 397.283 662.448 398.773 664.406" stroke="#343434" stroke-width="2.37812" stroke-linecap="round" stroke-linejoin="round"/>
<path d="M628.168 210.047C630.424 210.266 632.687 209.7 634.574 208.445" stroke="#EAEAEA" stroke-width="2.37812" stroke-linecap="round" stroke-linejoin="round"/>
<path d="M632.971 213.78L630.836 205.773" stroke="#EAEAEA" stroke-width="2.37812" stroke-linecap="round" stroke-linejoin="round"/>
<g opacity="0.1">
<path d="M276.917 416.07C281.282 422.627 283.313 431.366 285.745 438.808C288.298 446.62 290.673 454.485 292.811 462.422C297.02 478.056 300.536 493.856 303.357 509.82C309.101 541.957 312.081 574.528 312.264 607.175C312.252 625.553 311.24 643.916 309.232 662.184C308.535 668.792 298.146 668.938 298.758 662.184C304.561 598.16 299.975 533.178 283.903 470.892C281.612 462.004 279.132 453.163 276.465 444.372C273.887 435.865 269.856 427.095 268.861 418.251C268.343 413.648 274.778 412.86 276.914 416.07H276.917Z" fill="#EAEAEA"/>
</g>
<g opacity="0.1">
<path d="M230.306 452.801C231.606 455.954 231.682 459.651 231.99 463.027C232.321 466.658 232.387 470.305 232.511 473.947C232.76 481.23 232.8 488.498 232.814 495.785C232.841 510.082 232.905 524.379 232.864 538.681L232.617 626.035L232.548 650.213L232.514 661.912C232.503 666.204 233.003 670.542 230.76 674.38C230.345 675.065 229.76 675.631 229.062 676.024C228.364 676.418 227.576 676.624 226.775 676.624C225.974 676.624 225.187 676.418 224.489 676.024C223.791 675.631 223.206 675.065 222.791 674.38C220.905 671.128 221.067 667.896 221.072 664.251L221.08 653.333L221.095 631.494L221.125 588.598C221.147 559.48 221.216 530.362 221.334 501.244C221.378 493.185 221.322 485.121 221.626 477.066C221.773 473.167 221.85 469.259 222.122 465.367C222.406 461.315 222.452 456.572 224.021 452.801C225.296 449.739 229.035 449.716 230.307 452.801H230.306Z" fill="#EAEAEA"/>
</g>
<defs>
<linearGradient id="paint0_linear_3034_1478" x1="400.664" y1="650.926" x2="400.664" y2="694.685" gradientUnits="userSpaceOnUse">
<stop stop-color="#FFB800"/>
<stop offset="1" stop-color="#FF7F0A"/>
</linearGradient>
<linearGradient id="paint1_linear_3034_1478" x1="652.628" y1="461.804" x2="652.628" y2="543.859" gradientUnits="userSpaceOnUse">
<stop stop-color="#FFB800"/>
<stop offset="1" stop-color="#FF7F0A"/>
</linearGradient>
</defs>
</svg>
