<svg width="291" height="290" viewBox="0 0 291 290" fill="none" xmlns="http://www.w3.org/2000/svg">
<g clip-path="url(#clip0_257_727)">
<path fill-rule="evenodd" clip-rule="evenodd" d="M199.63 165.239C200.001 164.668 200.496 163.859 200.877 163.098C204.846 155.102 210.676 136.685 212.632 115.127C213.698 103.42 213.631 90.761 211.456 78.34C208.253 59.9702 200.116 45.6456 190.859 34.7951C173.28 14.1886 151.674 5.90789 151.674 5.90789C150.808 5.57476 150.365 4.62296 150.684 3.76634C151.003 2.90972 151.964 2.43401 152.83 2.76714C152.83 2.76714 175.473 10.8573 194.176 31.9397C204.161 43.171 212.998 58.0666 216.758 77.3882C220.608 97.2808 219.275 117.887 216.239 134.591C213.388 150.344 209 162.669 206.078 167.952C204.755 170.331 203.352 171.617 202.5 172.045C201.577 172.473 200.71 172.52 199.954 172.378C196.275 171.616 192.696 171.616 188.503 172.663C183.878 173.853 178.572 176.375 171.723 180.563C166.093 184.037 161.972 184.085 159.236 182.943C155.424 181.277 153.339 176.661 153.287 171.14C153.178 155.579 148.737 141.73 142.027 131.07C133.594 117.649 121.597 109.083 109.942 108.893C97.3355 108.702 89.8498 115.27 84.0723 125.454C73.1124 144.776 67.9488 176.042 51.2638 203.454C46.6143 211.069 40.7845 215.114 34.8119 216.066C28.3159 217.113 21.4916 214.59 15.6142 208.451C6.31516 198.743 -0.766241 179.707 0.0665838 152.818C0.0856198 151.914 0.847092 151.2 1.76558 151.2C2.68883 151.2 3.42168 151.962 3.40265 152.914C3.19325 178.279 9.95579 196.22 18.936 205.215C23.6331 209.879 28.9014 212.02 33.9649 211.116C38.6763 210.259 43.0593 206.785 46.6143 200.694C55.5136 185.465 60.8199 169.094 65.636 154.293C69.5955 142.063 73.2408 130.879 78.076 122.123C85.0384 109.464 94.4374 101.564 110.018 101.612C121.449 101.707 133.475 108.179 142.946 119.458C153.335 131.831 160.659 150.011 160.763 171.093C160.768 172.426 160.897 173.663 161.249 174.71C161.458 175.328 161.668 175.899 162.196 176.137C162.61 176.328 163.129 176.28 163.757 176.185C164.932 175.899 166.312 175.328 167.935 174.329C175.621 169.713 181.603 167.095 186.781 165.81C191.468 164.668 195.547 164.573 199.63 165.239Z" fill="#343434" fill-opacity="0.9"/>
<path fill-rule="evenodd" clip-rule="evenodd" d="M129.949 8.04904C130.734 7.57314 131.762 7.85878 132.243 8.62022C132.719 9.42925 132.471 10.4285 131.686 10.9044C123.396 16.4249 115.201 26.2284 107.306 37.5548C103.313 43.3132 99.4295 49.4047 95.6604 55.5438C91.8342 61.7781 88.1793 68.1077 84.6719 74.0565C79.7511 82.3847 75.1729 90.1421 71.3847 96.3764C66.7019 104.038 62.9852 109.511 60.8817 111.272C52.0728 118.601 45.5101 121.837 40.4228 122.884C32.8322 124.454 28.3921 121.504 24.8181 119.362C24.0043 118.934 23.7045 117.934 24.1424 117.125C24.5802 116.316 25.5891 116.031 26.4029 116.459C29.4582 117.934 33.2415 120.314 39.3806 118.601C43.8731 117.363 49.503 113.984 56.965 106.894C58.2547 105.656 60.0631 102.563 62.4997 98.28C65.8358 92.4264 70.019 84.4312 75.0159 75.5794C77.3621 71.4391 79.8986 67.1084 82.5874 62.7301C86.4422 56.4483 90.5968 50.1186 94.9561 43.9795C106.04 28.4652 118.327 14.6165 129.949 8.04904Z" fill="#343434" fill-opacity="0.9"/>
<path fill-rule="evenodd" clip-rule="evenodd" d="M8.69468 110.511C7.90469 110.035 7.64296 109.036 8.1141 108.227C8.58524 107.418 9.6131 107.18 10.4031 107.656C15.1145 110.369 21.7866 109.798 31.5521 100.565C38.01 94.4262 45.6529 84.6224 54.7425 69.5839C73.117 39.4119 87.6986 21.185 99.8863 11.1435C112.303 0.864066 122.549 -1.2773 131.619 0.626303C144.692 3.4817 153.887 12.6665 160.111 24.0881C170.372 42.9337 172.518 67.7281 173.127 75.9612C174.45 94.902 173.755 112.748 172.075 128.263C169.33 153.581 164.019 172.569 161.058 179.422C160.706 180.279 159.726 180.659 158.879 180.326C158.027 179.945 157.622 178.994 157.975 178.137C160.659 171.379 165.17 152.629 167.121 127.787C168.321 112.558 168.559 94.997 166.75 76.4845C166.022 68.7273 163.528 45.4082 153.615 27.7047C148.323 18.2819 140.899 10.3821 130.015 8.05016C120.931 6.05138 110.756 9.85876 96.9691 23.4695C86.5184 33.7489 74.2259 49.4536 59.4111 72.4872C46.8379 91.8563 36.8964 102.564 29.0536 107.894C19.9163 114.128 13.368 113.414 8.69468 110.511Z" fill="#343434" fill-opacity="0.9"/>
<path fill-rule="evenodd" clip-rule="evenodd" d="M88.6029 105.371C87.7606 105.752 86.7755 105.371 86.4091 104.514C86.0474 103.658 86.4329 102.658 87.28 102.325C93.9854 98.8989 99.5819 95.6628 104.417 92.8074C108.667 90.2375 112.255 87.9529 115.372 85.8589C119.793 82.9559 123.201 80.4813 126.013 78.4825C129.207 76.2458 131.7 74.6278 133.908 73.5808C136.621 72.2959 139.02 71.7726 141.704 72.1057C148.452 72.9623 153.734 74.0092 158.503 76.2935C163.167 78.5303 167.35 81.8616 171.895 87.2392C172.528 87.9055 172.504 88.9522 171.838 89.5709C171.171 90.2371 170.115 90.1897 169.477 89.5235C164.871 85.2404 160.825 82.7655 156.466 81.2426C152.007 79.6721 147.224 79.1966 141.137 79.0063C138.549 78.8635 136.655 80.3385 133.518 82.5276C131.263 84.0981 128.559 86.0496 125.028 88.2863C121.431 90.5706 117.005 93.1879 111.375 95.9481C105.312 98.8987 97.8687 101.992 88.6029 105.371Z" fill="#343434" fill-opacity="0.9"/>
<path fill-rule="evenodd" clip-rule="evenodd" d="M123.034 106.656C123.953 106.751 124.629 107.56 124.538 108.465C124.457 109.369 123.639 110.035 122.725 109.988C119.427 109.797 116.843 111.796 113.159 117.269C110.818 120.79 108.201 125.692 104.907 132.307C102.709 136.733 100.244 141.92 97.3548 147.964C95.5178 151.819 93.5285 156.007 91.2965 160.528C89.9925 163.193 88.5697 165.953 87.1134 168.856C85.9237 171.141 83.8726 174.282 81.1695 177.708C76.8578 183.276 70.9804 189.749 65.027 195.364C57.917 202.027 50.6929 207.357 45.9387 208.451C45.0535 208.737 44.1302 208.213 43.8732 207.309C43.621 206.452 44.1351 205.501 45.0202 205.263C49.2605 203.835 55.233 198.219 61.2483 191.604C69.6147 182.467 77.8715 171.283 80.4366 165.573C82.4115 161.48 84.2199 157.673 86.0046 154.104C88.0747 149.963 90.0497 146.204 91.9104 142.777C97.1453 133.069 101.4 125.883 104.936 120.553C112.855 108.655 117.761 105.895 123.034 106.656Z" fill="#343434" fill-opacity="0.9"/>
<path fill-rule="evenodd" clip-rule="evenodd" d="M240.048 221.394C240.248 222.298 239.682 223.155 238.787 223.393C237.888 223.583 236.993 223.012 236.793 222.108C234.637 213.446 228.736 202.596 220.232 194.601C212.684 187.51 203.019 182.751 191.949 184.464C178.367 186.463 169.13 195.41 164.142 206.546C161.582 212.257 160.154 218.538 159.816 224.82C159.479 231.197 160.259 237.574 162.301 243.285C165.813 253.374 173.023 262.797 181.713 269.032C190.888 275.551 201.738 278.597 211.694 274.409C220.988 270.554 227.056 264.653 231.011 258.514C238.644 246.664 238.573 234.1 238.573 234.1C238.549 233.196 239.273 232.435 240.191 232.387C241.114 232.387 241.881 233.101 241.909 234.005C241.909 234.005 242.59 247.664 234.828 260.846C230.692 267.889 224.153 274.79 213.926 279.501C202.209 284.879 189.056 282.071 177.886 274.552C167.835 267.794 159.479 257.182 155.234 245.808C152.835 239.193 151.807 231.769 152.24 224.392C152.664 217.206 154.434 209.972 157.504 203.5C163.671 190.46 175.002 180.228 191.131 178.325C201.524 177.135 210.752 180.561 218.347 186.415C230.026 195.457 237.797 210.21 240.048 221.394Z" fill="#343434" fill-opacity="0.9"/>
<path fill-rule="evenodd" clip-rule="evenodd" d="M182.907 226.154C182.931 226.107 183.007 226.059 183.026 226.012C183.098 225.916 183.198 225.584 183.288 225.726C183.426 225.917 183.236 226.059 182.907 226.154ZM182.907 226.154C182.893 226.154 182.893 226.202 182.917 226.202C183.969 226.63 183.816 223.109 184.373 220.634C185.653 215.018 187.247 207.594 188.861 204.073C190.127 201.36 192.006 200.265 193.277 200.218C194.529 200.17 196.213 200.694 197.632 202.55C199.507 204.977 201.715 210.545 203.628 214.638C204.094 215.637 204.518 216.969 204.88 217.588C205.636 217.541 206.812 216.922 208.135 216.351C210.976 215.114 214.145 213.638 216.03 213.4C217.605 213.21 218.728 213.638 219.361 214.352C219.985 215.066 220.413 216.779 219.932 218.968C219.014 223.109 215.801 229.914 215.801 229.914C215.44 230.771 214.455 231.152 213.612 230.819C212.765 230.438 212.375 229.438 212.736 228.629C212.736 228.629 215.397 221.824 215.854 218.112C215.659 218.159 215.459 218.254 215.287 218.302C213.084 219.254 210.267 220.92 208.068 221.919C206.412 222.681 204.951 222.966 204.032 222.918C203.357 222.871 202.59 222.537 201.805 221.871C201.068 221.253 200.201 220.063 199.302 218.54C197.712 215.827 195.909 211.735 194.253 208.927C193.039 213.21 192.035 220.015 191.102 224.537C190.488 227.487 189.713 229.629 189.189 230.39C188.428 231.485 186.871 232.579 184.801 233.341C184.606 233.436 184.402 233.483 184.192 233.579C185.52 233.817 186.81 234.054 187.876 234.34C190.108 234.959 191.654 235.958 192.335 236.957C192.863 237.719 193.472 239.384 193.805 241.621C194.219 244.381 194.448 248.332 194.933 251.282C196.532 248.617 198.269 244.905 199.73 242.478C200.934 240.479 202.157 239.147 202.99 238.814C204.166 238.29 205.665 238.099 207.345 238.29C209.677 238.528 212.451 239.337 214.897 239.765C215.211 239.813 215.454 239.956 215.578 239.813C215.725 239.575 215.797 239.337 215.806 239.004C215.854 237.909 215.487 236.577 214.788 235.34C214.307 234.531 214.554 233.531 215.344 233.055C216.13 232.579 217.153 232.817 217.634 233.579C219.18 235.911 219.761 238.575 219.409 240.384C218.976 242.668 217.386 244.096 214.355 243.81C212.308 243.62 210.024 243.144 207.987 243.001C206.954 242.906 206.012 242.859 205.298 243.097C205.155 243.335 204.156 245.048 203.509 246.428C201.696 250.283 199.564 255.518 197.803 257.754C196.37 259.61 194.662 259.991 193.448 259.848C192.216 259.706 190.807 258.754 189.865 256.66C188.699 254.09 187.961 248.617 187.238 244.382C187.038 243.239 186.672 241.764 186.51 241.145C185.891 241.05 184.906 241.098 184.225 240.955C181.603 240.527 178.534 240.194 176.421 239.527C173.318 238.576 171.762 236.577 171.486 234.721C171.162 232.484 172.185 230.39 174.798 228.915C176.44 227.963 179.048 227.249 181.308 226.535C181.756 226.393 182.455 226.297 182.907 226.154ZM186.614 241.145C186.743 241.383 186.943 241.811 187.048 241.621C187.167 241.383 186.967 241.24 186.614 241.145ZM178.586 235.482C178.557 235.482 178.529 235.53 178.5 235.53C178.443 235.577 178.315 235.577 178.348 235.625C178.429 235.72 178.515 235.625 178.586 235.482ZM178.734 232.674C178.567 232.151 178.339 231.77 178.115 232.151C177.939 232.436 178.239 232.579 178.734 232.674ZM204.894 217.588C205.065 217.921 205.227 218.016 205.37 217.826C205.503 217.636 205.179 217.636 204.894 217.588ZM204.67 217.588C204.641 217.588 204.613 217.588 204.594 217.588C204.618 217.588 204.646 217.588 204.67 217.588Z" fill="#343434" fill-opacity="0.9"/>
<path fill-rule="evenodd" clip-rule="evenodd" d="M288.613 128.642C289.332 128.07 290.384 128.213 290.955 128.927C291.526 129.641 291.402 130.688 290.679 131.259C290.679 131.259 284.311 137.493 275.826 145.155C273.894 146.869 271.833 148.677 269.706 150.438C268.34 151.627 266.96 152.77 265.528 153.864C261.868 156.72 258.099 159.385 254.591 161.812C245.235 168.379 237.726 173.138 237.726 173.138C237.002 173.709 235.951 173.614 235.379 172.852C234.808 172.138 234.932 171.092 235.655 170.521C235.655 170.521 242.042 164.334 250.561 156.72C253.749 153.864 257.214 150.818 260.807 147.915C262.211 146.773 263.662 145.679 265.099 144.632C267.336 142.966 269.549 141.396 271.691 139.92C281.085 133.401 288.613 128.642 288.613 128.642Z" fill="#343434" fill-opacity="0.9"/>
<path fill-rule="evenodd" clip-rule="evenodd" d="M259.417 208.498C258.522 208.688 257.623 208.117 257.418 207.261C257.214 206.356 257.77 205.452 258.67 205.262C258.67 205.262 262.391 203.453 267.479 201.502C268.616 201.074 269.815 200.693 271.067 200.312C271.862 200.074 272.666 199.789 273.494 199.646C275.612 199.218 277.744 198.98 279.738 198.789C285.135 198.266 289.27 198.219 289.27 198.219C290.17 198.028 291.064 198.552 291.274 199.456C291.478 200.36 290.917 201.264 290.017 201.455C290.017 201.455 286.286 203.216 281.194 205.119C279.314 205.785 277.292 206.547 275.198 207.07C274.384 207.261 273.551 207.403 272.728 207.546C271.438 207.736 270.187 207.879 268.973 208.022C263.553 208.498 259.417 208.498 259.417 208.498Z" fill="#343434" fill-opacity="0.9"/>
<path fill-rule="evenodd" clip-rule="evenodd" d="M57.0888 249.428C56.1894 249.618 55.3089 249.047 55.1281 248.143C54.9472 247.238 55.5373 246.334 56.4368 246.192C56.4368 246.192 63.9608 243.717 73.7595 241.004C75.9915 240.386 78.3377 239.814 80.741 239.243C82.2877 238.863 83.8486 238.53 85.4286 238.197C89.469 237.483 93.5331 236.912 97.3023 236.436C107.372 235.103 115.258 234.437 115.258 234.437C116.157 234.246 117.038 234.865 117.219 235.769C117.399 236.673 116.809 237.53 115.91 237.721C115.91 237.721 108.376 240.147 98.5729 242.812C94.9037 243.764 90.9348 244.811 86.9182 245.668C85.3477 246.001 83.7629 246.287 82.1924 246.525C79.7511 246.906 77.3573 247.286 75.0635 247.572C64.9744 248.809 57.0888 249.428 57.0888 249.428Z" fill="#343434" fill-opacity="0.9"/>
<path fill-rule="evenodd" clip-rule="evenodd" d="M131.267 268.843C131.886 268.129 132.938 268.082 133.623 268.7C134.308 269.319 134.365 270.366 133.751 271.033C133.751 271.033 132.29 274.031 129.916 277.838C129.387 278.694 128.802 279.503 128.164 280.36C127.76 280.883 127.351 281.454 126.88 281.93C125.666 283.168 124.343 284.31 123.082 285.31C119.632 288.117 116.824 289.925 116.824 289.925C116.21 290.639 115.153 290.687 114.468 290.069C113.783 289.45 113.726 288.403 114.339 287.689C114.339 287.689 115.824 284.738 118.242 280.979C119.122 279.646 120.084 278.171 121.216 276.838C121.649 276.315 122.149 275.839 122.635 275.41C123.405 274.649 124.172 273.983 124.952 273.364C128.45 270.604 131.267 268.843 131.267 268.843Z" fill="#343434" fill-opacity="0.9"/>
<path fill-rule="evenodd" clip-rule="evenodd" d="M156.457 185.035C157.075 184.369 158.132 184.321 158.812 184.94C159.493 185.558 159.541 186.605 158.922 187.272C152.321 195.314 148.89 205.451 147.776 216.016C147.343 220.109 147.272 224.297 147.529 228.437C147.695 231.15 148.038 233.91 148.462 236.622C149.547 243.57 151.483 250.281 154.439 256.277C159.169 265.89 166.198 273.838 175.764 277.74C176.635 278.026 177.092 278.978 176.787 279.834C176.478 280.738 175.526 281.166 174.66 280.881C163.624 277.597 154.758 269.65 148.714 259.371C144.94 252.946 142.275 245.569 140.952 237.86C140.433 234.862 140.176 231.768 140.105 228.722C140.005 224.154 140.333 219.537 141.176 215.064C143.312 203.642 148.39 193.03 156.457 185.035Z" fill="#343434" fill-opacity="0.9"/>
</g>
<defs>
<clipPath id="clip0_257_727">
<rect width="291" height="290" fill="white"/>
</clipPath>
</defs>
</svg>
