<svg width="532" height="532" viewBox="0 0 532 532" fill="none" xmlns="http://www.w3.org/2000/svg">
<mask id="mask0_270_9054" style="mask-type:luminance" maskUnits="userSpaceOnUse" x="21" y="53" width="490" height="426">
<path d="M510.941 53.7539H21.6123V478.8H510.941V53.7539Z" fill="white"/>
</mask>
<g mask="url(#mask0_270_9054)">
<path fill-rule="evenodd" clip-rule="evenodd" d="M226.901 267.824C226.246 269.734 225.78 271.704 225.513 273.707C224.824 278.794 225.411 283.973 227.219 288.778C228.461 292.03 230.309 295.133 232.992 297.35C235.112 299.136 237.754 300.188 240.522 300.347C241.252 300.376 241.983 300.326 242.703 300.199C247.056 299.413 250.391 295.849 252.663 292.057C255.454 287.299 257.103 281.958 257.481 276.455C257.859 270.951 256.956 265.436 254.842 260.341C253.135 256.317 249.33 251.274 244.836 250.508C243.27 250.243 241.659 250.521 240.273 251.297C234.287 254.497 229.41 261.006 227.105 267.257C227.034 267.447 226.968 267.632 226.901 267.824Z" fill="#FF6900"/>
<path fill-rule="evenodd" clip-rule="evenodd" d="M56.8831 355.647C56.9762 353.598 57.1347 351.552 57.3563 349.52L57.3924 349.52C62.7329 349.412 67.9581 349.323 73.1828 349.236C78.5172 349.147 83.8505 349.057 89.304 348.945C90.1137 348.955 90.9228 348.883 91.7186 348.73C92.3292 348.611 92.9078 348.364 93.416 348.005C95.1904 346.692 95.319 344.134 95.2414 341.935C94.8906 332.326 93.6027 322.781 92.0394 313.284L92.434 313.219C105.102 306.914 116.585 298.565 127.386 289.366C132.16 285.303 136.805 281.075 141.356 276.778C142.647 275.553 143.985 274.241 144.459 272.523C144.982 270.609 144.312 268.585 143.462 266.797C143.459 266.794 143.458 266.79 143.457 266.786C143.456 266.781 143.454 266.778 143.452 266.775C141.484 262.667 138.557 259.093 134.918 256.354C134.198 255.805 133.449 255.299 132.677 254.824C131.521 256.738 130.331 258.63 129.105 260.501C124.665 267.471 119.517 273.965 113.745 279.879C106.326 287.298 97.493 293.468 87.5623 296.837L87.5329 296.76C87.1777 296.885 86.7992 296.931 86.4246 296.895C83.1855 296.812 79.9425 296.731 76.6956 296.651C75.0753 296.613 73.4543 296.571 71.8334 296.526C71.7209 296.523 71.5585 296.532 71.3723 296.543C70.8204 296.575 70.0645 296.619 69.8245 296.385C69.63 296.1 69.5353 295.758 69.5552 295.414L69.4577 295.421C59.8501 301.631 53.3324 311.783 49.4233 322.54C45.5142 333.296 43.9797 344.738 42.4707 356.079C42.8128 356.068 43.1549 356.058 43.4962 356.049C43.8473 356.039 44.1976 356.029 44.5466 356.018L55.4899 355.691L56.8831 355.647Z" fill="#FF6900"/>
<path fill-rule="evenodd" clip-rule="evenodd" d="M99.3203 439.115C101.939 408.774 99.3663 378.208 91.7144 348.73C90.9186 348.882 90.1095 348.954 89.2993 348.944C83.9588 349.053 78.7336 349.141 73.5094 349.228C68.1745 349.318 62.8412 349.407 57.3876 349.519H57.3555C57.1338 351.552 56.9753 353.595 56.8822 355.646L55.489 355.69L55.4918 355.755C57.4486 357.355 58.9343 359.457 59.7894 361.837C60.0271 362.502 60.1806 363.333 59.6819 363.832C59.0401 364.462 57.9573 363.992 57.253 363.434C56.3934 362.749 55.6209 361.962 54.9514 361.091L54.901 361.132C56.0809 387.861 55.2545 414.762 53.2041 441.44C53.7437 441.863 54.3168 442.242 54.9176 442.573C57.8952 444.259 61.3887 444.791 64.7337 444.069C68.078 443.346 71.0406 441.42 73.0578 438.656C73.2069 438.452 73.3471 438.248 73.4839 438.038C74.5479 413.767 75.1403 389.602 75.2168 365.304L75.6164 365.239C79.7444 389.919 81.0428 414.989 79.4861 439.962C79.8014 440.725 80.3534 441.366 81.0605 441.791C81.7477 442.223 82.4947 442.552 83.2772 442.767C85.9715 443.519 88.8083 443.605 91.5437 443.02C94.279 442.433 96.831 441.193 98.9812 439.403C99.0892 439.318 99.1923 439.228 99.2943 439.138L99.3203 439.115ZM90.5035 360.705C90.3927 360.274 89.9538 360.016 89.5232 360.126C89.0926 360.237 88.8333 360.676 88.9441 361.107C93.1569 377.458 95.1513 394.301 94.8737 411.183C94.8665 411.628 95.2211 411.995 95.6656 412.002C96.1106 412.009 96.4769 411.654 96.4841 411.21C96.7634 394.183 94.7523 377.196 90.5035 360.705Z" fill="#EAEAEA"/>
<path d="M360.689 257.009C360.715 256.417 360.691 255.823 360.616 255.235L360.782 255.215C361.94 263.82 363.589 272.73 364.704 281.307C365.22 285.27 365.676 289.546 363.728 293.034C362.617 295.017 360.835 296.525 359.093 297.983C357.218 299.55 355.343 301.119 353.469 302.69C350.291 305.353 347.111 308.015 343.927 310.676C342.796 301.126 342.092 291.763 340.96 282.213L340.993 282.209C345.759 278.942 350.071 275.057 353.816 270.657C354.265 270.137 354.699 269.611 355.127 269.079C357.943 265.56 360.476 261.507 360.689 257.009Z" fill="#FF6900"/>
<path d="M360.616 255.232C360.691 255.82 360.715 256.413 360.688 257.005C360.475 261.504 357.942 265.555 355.128 269.074C354.7 269.606 354.266 270.132 353.817 270.652C353.826 262.746 353.785 254.85 353.693 246.965C357.499 247.594 360.124 251.335 360.616 255.232Z" fill="#FF6900"/>
<path d="M363.017 86.2377C361.511 85.6697 359.975 85.1887 358.414 84.7969C399.941 93.5716 436.538 102.461 478.222 111.237C484.36 112.527 490.988 114.106 494.984 118.94C498.8 123.558 499.259 130 499.544 135.984C504.35 236.768 507.861 337.602 510.077 438.487C510.159 442.144 510.149 446.095 507.991 449.048C504.994 453.149 499.18 453.688 494.101 453.856C442.439 455.564 389.094 457.874 337.377 459.596C345.919 458.313 354.438 456.455 359.998 449.768C364.512 444.03 366.901 437.675 368.238 430.743C370.071 424.904 377.395 359.113 377.721 350.531C381.766 286.227 379.335 222.752 378.552 158.266C378.607 142.691 380.783 127.731 379.762 112.118C378.56 101.328 373.582 90.9348 363.017 86.2377Z" fill="#EAEAEA"/>
<path d="M293.139 196.244C293.54 196.844 293.877 197.609 293.583 198.275C293.403 198.572 293.156 198.823 292.862 199.007C292.567 199.191 292.234 199.303 291.888 199.333C290.829 199.533 289.742 199.522 288.689 199.299C287.635 199.077 286.636 198.648 285.749 198.037C284.19 196.947 282.773 195.051 283.222 193.709C283.44 193.056 284.089 192.538 285.365 192.297C288.2 191.77 291.656 194.001 293.139 196.244Z" fill="#FF6900"/>
<path d="M283.223 193.711C282.774 195.052 284.191 196.949 285.75 198.039C286.637 198.65 287.636 199.078 288.689 199.301C289.743 199.523 290.831 199.535 291.889 199.335C292.234 199.304 292.568 199.193 292.863 199.009C293.157 198.825 293.404 198.574 293.583 198.277L293.639 198.3C291.052 203.735 288.392 209.181 285.656 214.638C278.789 228.317 271.463 241.931 263.738 255.007C262.814 256.578 261.882 258.142 260.94 259.698C259.545 260.902 257.192 259.508 256.804 257.703C256.481 256.171 257.06 254.635 257.759 253.195C257.881 252.942 258.009 252.696 258.136 252.447C265.63 237.963 272.317 223.076 278.167 207.854C279.945 203.173 281.613 198.452 283.172 193.691L283.223 193.711Z" fill="#FF6900"/>
<path d="M273.292 362.263C274.024 363.639 273.075 365.413 272.144 366.742C271.088 368.238 270.015 369.766 268.561 370.877C266.178 372.693 261.246 372.834 261.031 369.571C261.015 369.174 261.052 368.776 261.142 368.388C261.854 365.187 266.025 362.261 268.908 361.313C270.366 360.836 272.265 360.759 273.146 362.016C273.201 362.095 273.249 362.177 273.292 362.263Z" fill="#FF6900"/>
<path d="M261.14 368.39C261.05 368.777 261.012 369.175 261.03 369.573L260.959 369.581C260.421 365.081 259.885 360.54 259.352 355.957C257.224 337.684 255.134 318.971 252.987 300.912C252.869 299.919 252.75 298.932 252.632 297.944L252.644 297.918C252.837 297.319 253.202 296.791 253.694 296.398C254.185 296.004 254.781 295.765 255.408 295.708C256.651 295.621 257.884 295.994 258.87 296.757L258.859 296.772C259.275 298.271 259.685 299.773 260.09 301.278C264.368 317.119 268.15 333.414 271.146 349.625C271.926 353.845 272.652 358.053 273.322 362.25L273.289 362.265C273.246 362.179 273.197 362.097 273.142 362.018C272.26 360.759 270.361 360.838 268.904 361.314C266.024 362.263 261.852 365.189 261.14 368.39Z" fill="#FF6900"/>
<path d="M249.61 433.194C248.178 436.373 246.389 439.379 244.28 442.156C241.953 445.098 238.854 447.569 235.211 448.463C229.621 449.835 223.93 447.348 218.203 446.508C216.658 446.26 215.089 446.188 213.528 446.294C216.749 445.388 219.689 443.684 222.076 441.34C224.464 438.995 226.22 436.086 227.184 432.883C234.668 433.033 242.143 433.137 249.61 433.194Z" fill="url(#paint0_linear_270_9054)"/>
<path d="M258.873 296.756C257.887 295.993 256.654 295.62 255.41 295.707C254.783 295.764 254.186 296.004 253.694 296.398C253.203 296.791 252.837 297.32 252.645 297.92L252.633 297.947C252.752 298.934 252.87 299.921 252.988 300.914L252.842 300.93C248.734 300.775 244.625 300.621 240.517 300.469L240.521 300.351C241.251 300.38 241.982 300.33 242.702 300.203C247.055 299.417 250.392 295.853 252.662 292.061C255.453 287.303 257.102 281.962 257.48 276.459C257.858 270.956 256.955 265.44 254.841 260.345C253.134 256.321 249.329 251.279 244.835 250.512V250.496C249.08 251.183 253.302 252.036 257.46 253.139L257.753 253.198C257.055 254.639 256.475 256.174 256.799 257.706C257.186 259.51 259.54 260.904 260.934 259.701C261.874 258.147 262.807 256.583 263.733 255.01C264.836 255.374 265.923 255.754 267.015 256.155C279.886 267.332 276.452 287.078 269.488 300.778C265.633 301.185 263.932 300.976 260.345 301.216L260.09 301.282C259.683 299.779 259.273 298.277 258.858 296.776L258.873 296.756Z" fill="#FF6900"/>
<path d="M234.827 124.44C238.086 123.914 241.295 127.387 240.514 130.596L240.576 131.095C236.658 131.591 232.745 132.111 228.839 132.654C229.058 131.045 229.54 129.483 230.265 128.03C230.873 126.876 231.768 125.9 232.865 125.195C233.355 125.03 233.829 124.819 234.28 124.566C234.46 124.514 234.643 124.472 234.827 124.44Z" fill="#FF6900"/>
<path d="M227.185 432.883C226.221 436.087 224.464 438.996 222.077 441.341C219.689 443.685 216.75 445.389 213.529 446.294C215.09 446.188 216.659 446.26 218.204 446.509L218.183 446.642C216.975 449.621 213.172 450.621 209.965 450.881C206.759 451.142 203.593 450.216 200.512 449.309C195.875 447.936 191.237 446.565 186.6 445.195C195.893 445.031 204.884 440.252 209.969 432.484C215.716 432.643 221.455 432.776 227.185 432.883Z" fill="url(#paint1_linear_270_9054)"/>
<path d="M226.441 267.793L226.902 267.827C226.246 269.737 225.781 271.707 225.514 273.71L209.642 271.095L189.341 267.748C187.222 267.394 184.774 266.806 183.891 264.851C182.88 262.616 184.765 259.931 187.098 259.176C189.431 258.421 191.97 259.027 194.348 259.633C199.775 261.015 205.201 262.395 210.628 263.773C215.896 265.111 221.167 266.451 226.441 267.793Z" fill="#FF6900"/>
<path d="M213.15 134.914C213.163 134.839 213.182 134.765 213.201 134.692C213.707 132.692 214.373 130.692 215.777 129.206C218.01 126.841 221.541 126.33 224.793 126.173C227.403 126.052 230.367 126.063 232.866 125.195C231.769 125.9 230.873 126.877 230.266 128.03C229.541 129.483 229.059 131.046 228.839 132.655C228.777 133.034 228.72 133.413 228.668 133.787C227.726 140.358 227.57 147.018 228.201 153.626C222.297 153.51 216.394 153.856 210.544 154.661C210.704 148.154 211.541 141.682 213.042 135.348C213.074 135.201 213.112 135.057 213.15 134.914Z" fill="#FF6900"/>
<path d="M213.185 134.686L213.201 134.691C213.182 134.766 213.163 134.841 213.15 134.913C206.71 135.882 200.277 136.902 193.852 137.969L193.848 137.937C192.816 130.456 185.697 123.121 178.149 123.018C182.864 120.239 187.361 117.109 191.604 113.652C194.5 113.252 197.449 113.509 200.233 114.404C203.017 115.298 205.563 116.808 207.684 118.821C211.881 122.872 213.818 128.892 213.185 134.686Z" fill="#FF6900"/>
<path d="M111.576 132.784C111.6 139.13 111.197 145.472 110.369 151.764C104.21 155.516 96.6698 157.486 89.6673 155.744C82.6649 154.002 76.047 148.036 75.438 140.848C80.0575 136.827 84.0187 132.106 87.1775 126.859C88.5629 132.246 91.3825 137.53 96.693 138.988C102.004 140.446 108.639 137.437 111.576 132.784Z" fill="#FF6900"/>
<path d="M66.8686 281.379C66.162 282.163 65.6134 282.883 64.6891 282.628C64.443 282.548 64.2152 282.42 64.0185 282.252C63.8218 282.085 63.66 281.88 63.5425 281.65C63.425 281.419 63.3541 281.168 63.3336 280.91C63.3136 280.653 63.3441 280.393 63.4239 280.147C63.6932 279.416 64.3721 278.931 64.852 278.31C67.3025 275.159 63.8506 270.011 66.1177 266.724C67.1152 265.283 68.9506 264.683 70.6802 264.396C72.4097 264.11 74.2268 264.036 75.8045 263.264C77.114 262.613 78.157 261.529 78.7566 260.196C79.1617 259.276 79.3739 258.221 80.1087 257.536C80.8436 256.85 82.3703 256.971 82.5205 257.966C82.6008 258.533 82.1924 259.113 82.3653 259.657C82.6385 260.521 84.0322 260.311 84.5443 259.562C85.0563 258.812 85.0768 257.836 85.4625 257.018C85.8482 256.2 86.9887 255.567 87.631 256.209C88.0655 256.644 87.9635 257.365 87.7745 257.949C87.5856 258.533 87.3467 259.173 87.5883 259.741C87.81 260.254 88.6806 260.406 88.9228 259.969C89.0231 259.401 89.2259 258.857 89.5207 258.362C89.7058 258.042 89.9751 257.779 90.2988 257.6C90.6229 257.423 90.9898 257.337 91.3589 257.352C92.3265 257.462 92.9432 258.485 93.0945 259.453C93.5417 262.258 91.3517 264.908 88.772 266.084C88.1225 266.377 87.4487 266.612 86.7582 266.786C84.7238 267.322 82.5598 267.439 80.4601 267.703C77.6433 268.053 74.6829 268.778 72.7405 270.848C70.2102 273.551 70.1587 277.754 70.9728 281.368C71.0282 281.612 71.088 281.861 71.1484 282.105L70.9916 282.147C71.0043 282.758 70.8453 283.36 70.5333 283.885C70.2207 284.409 69.7674 284.835 69.2244 285.115C68.648 285.3 68.0262 285.289 67.4571 285.081C66.888 284.874 66.4048 284.483 66.0822 283.97C65.5901 283.081 66.2557 282.097 66.8686 281.379Z" fill="#EAEAEA"/>
<path d="M65.3495 465.957C60.618 470.053 57.4088 473.383 53.2606 477.117C42.8494 476.869 32.8229 477.241 22.4351 477.938C26.1536 474.496 29.6954 470.866 33.0468 467.065C43.8902 466.649 54.5102 466.374 65.3495 465.957Z" fill="url(#paint2_linear_270_9054)"/>
<path d="M84.3128 291.391C83.6168 289.629 83.0089 287.377 84.3644 286.059C85 285.444 85.9221 285.215 86.6137 284.667C87.8822 283.657 88.1011 281.844 88.1466 280.224C88.274 275.705 87.808 271.188 86.7611 266.791C86.7562 266.78 86.7567 266.769 86.7512 266.758" stroke="#EAEAEA" stroke-width="1.61041" stroke-linecap="round" stroke-linejoin="round"/>
<path d="M73.3992 292.187V292.176C73.3039 288.729 71.9827 285.462 71.1476 282.111C71.0872 281.866 71.0274 281.618 70.972 281.374C70.1579 277.76 70.2094 273.556 72.7397 270.854C74.6793 268.784 77.6425 268.058 80.4593 267.709C82.559 267.444 84.723 267.327 86.7574 266.792C87.4484 266.617 88.1223 266.382 88.7712 266.089C91.3509 264.914 93.5409 262.263 93.0937 259.459C92.9424 258.491 92.3257 257.469 91.3581 257.357C90.989 257.342 90.6227 257.428 90.2985 257.606C89.9743 257.784 89.7056 258.047 89.5199 258.367C89.2251 258.862 89.0228 259.407 88.922 259.974C88.8837 260.134 88.8505 260.293 88.8178 260.453" stroke="#EAEAEA" stroke-width="1.61041" stroke-linecap="round" stroke-linejoin="round"/>
<path d="M67.0598 281.157C66.9977 281.225 66.9362 281.297 66.8686 281.379C66.162 282.163 65.6134 282.883 64.6891 282.628C64.443 282.548 64.2152 282.42 64.0185 282.252C63.8218 282.085 63.66 281.88 63.5425 281.65C63.425 281.419 63.3541 281.168 63.3336 280.91C63.3136 280.653 63.3441 280.393 63.4239 280.147C63.6932 279.416 64.3721 278.931 64.852 278.31C67.3025 275.159 63.8506 270.011 66.1177 266.724C67.1152 265.283 68.9506 264.683 70.6802 264.396C72.4097 264.11 74.2268 264.036 75.8045 263.264C77.114 262.613 78.157 261.529 78.7566 260.196C79.1617 259.276 79.3739 258.221 80.1087 257.536C80.8436 256.85 82.3703 256.971 82.5205 257.966C82.6008 258.533 82.1924 259.113 82.3653 259.657C82.6385 260.521 84.0322 260.311 84.5443 259.562C85.0563 258.812 85.0768 257.836 85.4625 257.018C85.8482 256.2 86.9887 255.567 87.631 256.209C88.0655 256.644 87.9635 257.365 87.7745 257.949C87.5856 258.533 87.3467 259.173 87.5883 259.741C87.81 260.254 88.6806 260.406 88.9228 259.969C88.9455 259.925 88.9616 259.879 88.971 259.831" stroke="#EAEAEA" stroke-width="1.61041" stroke-linecap="round" stroke-linejoin="round"/>
<path d="M70.9923 282.153C71.005 282.763 70.846 283.365 70.5334 283.89C70.2209 284.415 69.7675 284.841 69.225 285.121C68.6481 285.306 68.0264 285.294 67.4578 285.086C66.8886 284.879 66.4049 284.488 66.0829 283.976C65.5902 283.081 66.2563 282.097 66.8687 281.379" stroke="#EAEAEA" stroke-width="1.61041" stroke-linecap="round" stroke-linejoin="round"/>
<path d="M84.8989 271.368C83.181 271.122 81.4292 271.38 79.856 272.111C80.8551 275.077 81.5495 278.138 81.9274 281.245C81.268 281.5 80.5498 281.559 79.8582 281.414" stroke="#EAEAEA" stroke-width="1.61041" stroke-linecap="round" stroke-linejoin="round"/>
<path d="M82.541 275.457C82.8386 275.334 83.1622 275.289 83.4814 275.324C83.8012 275.36 84.1065 275.475 84.3698 275.66" stroke="#EAEAEA" stroke-width="1.61041" stroke-linecap="round" stroke-linejoin="round"/>
<path d="M76.9423 275.645C76.6243 275.432 76.2424 275.335 75.8617 275.37C75.4805 275.406 75.1236 275.572 74.8509 275.84C74.8038 275.817 74.8387 275.732 74.8869 275.744" stroke="#EAEAEA" stroke-width="1.61041" stroke-linecap="round" stroke-linejoin="round"/>
<path d="M79.2281 286.073C78.9184 286.262 78.5626 286.363 78.2002 286.364C77.8372 286.365 77.4809 286.267 77.17 286.081C76.8591 285.894 76.6047 285.626 76.4351 285.306C76.2656 284.985 76.1869 284.624 76.2079 284.262" stroke="#EAEAEA" stroke-width="1.61041" stroke-linecap="round" stroke-linejoin="round"/>
<path d="M69.5543 295.414C69.552 295.069 69.5709 294.724 69.6097 294.38C69.6363 294.025 69.7427 293.681 69.9206 293.373C70.099 293.066 70.344 292.802 70.6382 292.602C71.1425 292.356 71.6978 292.234 72.258 292.244L73.3991 292.174C77.0388 291.953 80.678 291.733 84.3162 291.513C84.5256 291.506 84.7301 291.492 84.9401 291.478C85.8878 291.422 86.9518 291.404 87.6362 292.058C88.305 292.696 88.3566 293.734 88.3655 294.659C88.3688 295.405 88.3034 296.29 87.6705 296.685C87.6262 296.715 87.5785 296.74 87.5287 296.76C87.1734 296.885 86.7955 296.931 86.4203 296.895C83.1796 296.815 79.9366 296.734 76.6914 296.65C75.071 296.611 73.4506 296.569 71.8291 296.525C71.3858 296.514 70.1417 296.698 69.8203 296.384C69.6285 296.099 69.5349 295.758 69.5543 295.414Z" stroke="#EAEAEA" stroke-width="1.61041" stroke-linecap="round" stroke-linejoin="round"/>
<path d="M87.5488 296.841C87.5538 296.841 87.5538 296.836 87.5594 296.837C97.49 293.468 106.323 287.298 113.742 279.879C119.515 273.965 124.662 267.471 129.102 260.501C130.329 258.63 131.519 256.738 132.674 254.824C133.446 255.299 134.195 255.805 134.915 256.354C138.554 259.093 141.481 262.667 143.449 266.775C143.454 266.78 143.454 266.791 143.459 266.797C144.309 268.585 144.979 270.609 144.456 272.523C143.982 274.241 142.644 275.553 141.353 276.778C136.802 281.075 132.157 285.303 127.383 289.366C116.582 298.565 105.099 306.914 92.431 313.219" stroke="#EAEAEA" stroke-width="1.61041" stroke-linecap="round" stroke-linejoin="round"/>
<path d="M69.4584 295.422C59.8508 301.632 53.3264 311.79 49.4223 322.541C45.5182 333.291 43.9787 344.739 42.4697 356.08C43.1635 356.058 43.8551 356.041 44.5456 356.019L55.4889 355.692C55.9517 355.678 56.4194 355.663 56.8821 355.648" stroke="#EAEAEA" stroke-width="1.61041" stroke-linecap="round" stroke-linejoin="round"/>
<path d="M56.8813 355.649C56.9744 353.598 57.1329 351.555 57.3546 349.522C58.9811 334.017 64.2728 319.122 72.7931 306.066" stroke="#EAEAEA" stroke-width="1.61041" stroke-linecap="round" stroke-linejoin="round"/>
<path d="M57.3872 349.521C68.1813 349.299 78.5048 349.166 89.2989 348.946C90.1085 348.955 90.9176 348.883 91.7134 348.731C92.3241 348.612 92.9026 348.365 93.4108 348.006C95.1841 346.692 95.3138 344.135 95.2362 341.935C94.8854 332.328 93.5976 322.783 92.0343 313.285C91.5638 310.393 91.0711 307.508 90.5569 304.629" stroke="#EAEAEA" stroke-width="1.61041" stroke-linecap="round" stroke-linejoin="round"/>
<path d="M55.4908 355.754C57.4481 357.354 58.9332 359.457 59.7883 361.836C60.0261 362.501 60.1762 363.332 59.6808 363.831C59.0391 364.463 57.9557 363.992 57.2519 363.433C56.3929 362.748 55.6199 361.961 54.9504 361.09C54.5701 360.598 54.2253 360.079 53.9185 359.538C53.893 359.5 53.8736 359.456 53.8481 359.412" stroke="#EAEAEA" stroke-width="1.61041" stroke-linecap="round" stroke-linejoin="round"/>
<path d="M46.5552 367.616C46.5685 367.542 46.5823 367.467 46.5962 367.395C47.0218 364.806 47.3406 362.2 47.5527 359.578" stroke="#EAEAEA" stroke-width="1.61041" stroke-linecap="round" stroke-linejoin="round"/>
<path d="M44.5487 356.062C43.5308 360.519 43.0427 365.08 43.0946 369.651C43.1029 370.414 43.2708 371.369 44.0106 371.56C44.3075 371.59 44.6065 371.531 44.8699 371.391C45.1333 371.251 45.3492 371.036 45.4902 370.773C46.0676 369.824 46.4305 368.759 46.5537 367.655" stroke="#EAEAEA" stroke-width="1.61041" stroke-linecap="round" stroke-linejoin="round"/>
<path d="M46.6896 366.62C46.6292 366.945 46.5838 367.281 46.5555 367.614V367.651C46.4964 368.49 46.5455 369.333 46.7018 370.16C46.716 370.381 46.7813 370.596 46.8924 370.787C47.0036 370.979 47.1576 371.142 47.3424 371.264C47.5267 371.333 47.7271 371.347 47.9192 371.305C48.1114 371.262 48.2873 371.165 48.4258 371.026C48.6975 370.74 48.9016 370.397 49.0226 370.023C49.5256 368.724 49.8828 367.374 50.0877 365.997C50.3768 363.906 50.5373 361.798 50.5682 359.688" stroke="#EAEAEA" stroke-width="1.61041" stroke-linecap="round" stroke-linejoin="round"/>
<path d="M50.1188 365.996V366.001C50.051 367.383 50.1156 368.769 50.3117 370.139C50.3128 370.383 50.3689 370.624 50.4759 370.844C50.5828 371.064 50.7379 371.257 50.9295 371.408C51.1447 371.503 51.3841 371.528 51.6142 371.48C51.8443 371.432 52.0536 371.313 52.213 371.14C52.5217 370.784 52.7405 370.36 52.8509 369.902C53.8783 366.583 53.8838 363.044 53.8761 359.562" stroke="#EAEAEA" stroke-width="1.61041" stroke-linecap="round" stroke-linejoin="round"/>
<path d="M54.9005 361.129C56.0804 387.859 55.2557 414.76 53.2036 441.437" stroke="#EAEAEA" stroke-width="1.61041" stroke-linecap="round" stroke-linejoin="round"/>
<path d="M53.2036 441.442C53.7433 441.865 54.3163 442.244 54.9171 442.575C57.8953 444.259 61.3882 444.79 64.7321 444.067C68.0759 443.344 71.0379 441.417 73.054 438.653C73.2014 438.449 73.3432 438.245 73.4801 438.035" stroke="#EAEAEA" stroke-width="1.61041" stroke-linecap="round" stroke-linejoin="round"/>
<path d="M75.2143 365.301C75.1378 389.598 74.5454 413.763 73.4814 438.034" stroke="#EAEAEA" stroke-width="1.61041" stroke-linecap="round" stroke-linejoin="round"/>
<path d="M75.6133 365.234C79.7413 389.914 81.0397 414.984 79.483 439.958" stroke="#EAEAEA" stroke-width="1.61041" stroke-linecap="round" stroke-linejoin="round"/>
<path d="M91.6997 348.672C91.7036 348.693 91.7086 348.71 91.7136 348.731C99.3655 378.208 101.938 408.774 99.3195 439.116" stroke="#EAEAEA" stroke-width="1.61041" stroke-linecap="round" stroke-linejoin="round"/>
<path d="M99.3199 439.113C99.2091 439.211 99.0983 439.309 98.9808 439.401C96.8306 441.19 94.2781 442.432 91.5433 443.017C88.808 443.604 85.9712 443.517 83.2768 442.765C82.4938 442.55 81.7473 442.221 81.0602 441.789C80.353 441.364 79.8016 440.723 79.4863 439.961" stroke="#EAEAEA" stroke-width="1.61041" stroke-linecap="round" stroke-linejoin="round"/>
<path d="M127.448 289.445C125.638 326.483 123.68 364.008 121.234 401.236" stroke="#EAEAEA" stroke-width="1.61041" stroke-linecap="round" stroke-linejoin="round"/>
<path d="M121.234 401.237C120.244 412.221 119.838 422.949 123.186 433.818C126.12 441.449 130.684 448.605 138.051 452.644C149.111 458.434 161.448 458.901 173.805 458.832C180.262 458.539 186.182 458.225 192.619 458.469C226.451 458.676 260.222 460.491 294.031 461.234C303.706 461.063 312.845 460.872 322.52 460.701L337.063 459.64C337.166 459.623 337.273 459.61 337.376 459.593C345.917 458.31 354.437 456.452 359.997 449.766C364.511 444.027 366.9 437.672 368.237 430.74C370.07 424.901 377.394 359.11 377.719 350.528C381.765 286.224 379.334 222.749 378.551 158.263C378.603 142.687 380.781 127.728 379.761 112.115C378.558 101.326 373.58 90.9321 363.015 86.235C361.51 85.667 359.973 85.186 358.412 84.7942C353.45 83.5562 348.303 83.2453 343.228 83.8759C289.308 89.3544 238.705 92.2732 184.145 100.414C178.204 101.263 172.8 102.132 167.354 104.076C160.796 107.05 154.217 110.56 149.167 116.279C147.456 118.9 145.229 120.964 144.055 123.605C142.881 126.246 141.707 128.888 140.532 131.53C138.7 137.369 137.424 142.692 136.128 148.551C135.315 153.511 134.767 158.511 134.487 163.529C132.196 195.671 130.957 228.389 128.96 260.418" stroke="#EAEAEA" stroke-width="1.61041" stroke-linecap="round" stroke-linejoin="round"/>
<path d="M356.448 84.375C357.104 84.5124 357.759 84.6521 358.414 84.7928C399.941 93.5681 436.539 102.457 478.222 111.233C484.36 112.523 490.988 114.102 494.984 118.936C498.8 123.555 499.26 129.996 499.544 135.98C504.35 236.765 507.861 337.599 510.078 438.483C510.159 442.141 510.15 446.091 507.991 449.045C504.994 453.146 499.18 453.685 494.102 453.853C442.439 455.56 389.094 457.871 337.378 459.592C336.534 459.625 335.695 459.652 334.85 459.679" stroke="#EAEAEA" stroke-width="1.61041" stroke-linecap="round" stroke-linejoin="round"/>
<path d="M134.967 256.285C136.1 252.616 136.121 248.766 137.376 245.139C137.919 243.57 140.18 240.744 141.558 241.677C142.914 242.604 140.695 247.446 140.105 251.387C139.883 252.867 139.891 254.221 140.407 255.191" stroke="#EAEAEA" stroke-width="1.61041" stroke-linecap="round" stroke-linejoin="round"/>
<path d="M140.136 251.394C142.812 247.029 145.72 242.812 148.848 238.759C149.171 238.285 149.578 237.875 150.049 237.547C150.284 237.363 150.569 237.254 150.867 237.237C151.165 237.22 151.461 237.294 151.716 237.451C151.969 237.608 152.169 237.839 152.288 238.113C152.406 238.387 152.437 238.691 152.377 238.984C152.291 239.574 152.095 240.142 151.798 240.659C149.77 244.588 147.435 248.35 144.815 251.911C144.39 252.507 143.961 253.099 143.528 253.684" stroke="#EAEAEA" stroke-width="1.61041" stroke-linecap="round" stroke-linejoin="round"/>
<path d="M143.481 253.686C143.912 253.08 144.359 252.489 144.811 251.905C147.261 248.823 149.926 245.918 152.784 243.209C153.091 242.909 153.403 242.61 153.715 242.315C154.491 241.576 155.689 240.827 156.517 241.502C157.33 242.167 156.872 243.471 156.328 244.374C154.16 248.004 151.33 251.238 148.466 254.379C147.973 254.918 147.485 255.453 146.993 255.986" stroke="#EAEAEA" stroke-width="1.61041" stroke-linecap="round" stroke-linejoin="round"/>
<path d="M146.923 255.984C147.422 255.433 147.937 254.899 148.467 254.383C150.295 252.582 152.288 250.956 154.419 249.526C155.069 249.094 155.843 248.656 156.587 248.889C156.983 249.059 157.307 249.361 157.505 249.744C157.703 250.126 157.762 250.566 157.673 250.987C157.473 251.827 157.062 252.602 156.482 253.241C155.036 255.093 153.489 256.861 151.875 258.572C149.194 261.414 146.348 264.099 143.501 266.779C143.683 266.674 143.864 266.568 144.04 266.462" stroke="#EAEAEA" stroke-width="1.61041" stroke-linecap="round" stroke-linejoin="round"/>
<path d="M244.837 250.508C243.271 250.243 241.66 250.521 240.274 251.297C234.289 254.497 229.412 261.005 227.106 267.257C227.034 267.447 226.968 267.633 226.902 267.824C226.247 269.734 225.783 271.704 225.517 273.707C224.827 278.795 225.414 283.975 227.224 288.78C228.465 292.034 230.313 295.133 232.996 297.351C235.116 299.138 237.758 300.19 240.527 300.349C241.256 300.377 241.987 300.328 242.707 300.201C247.061 299.415 250.397 295.851 252.668 292.058C255.459 287.3 257.108 281.96 257.486 276.456C257.864 270.953 256.96 265.437 254.846 260.342C253.136 256.317 249.331 251.274 244.837 250.508Z" stroke="#EAEAEA" stroke-width="1.61041" stroke-linecap="round" stroke-linejoin="round"/>
<path d="M260.348 301.213C263.935 300.973 265.635 301.182 269.492 300.775C276.456 287.073 279.889 267.329 267.018 256.152" stroke="#EAEAEA" stroke-width="1.61041" stroke-linecap="round" stroke-linejoin="round"/>
<path d="M240.083 300.453L240.517 300.47C244.626 300.625 248.735 300.779 252.843 300.931" stroke="#EAEAEA" stroke-width="1.61041" stroke-linecap="round" stroke-linejoin="round"/>
<path d="M263.699 254.996C263.709 255.002 263.726 255.002 263.736 255.008C264.839 255.372 265.926 255.752 267.018 256.153" stroke="#EAEAEA" stroke-width="1.61041" stroke-linecap="round" stroke-linejoin="round"/>
<path d="M244.005 250.359C244.282 250.403 244.56 250.445 244.837 250.493C249.081 251.18 253.303 252.033 257.462 253.136" stroke="#EAEAEA" stroke-width="1.61041" stroke-linecap="round" stroke-linejoin="round"/>
<path d="M258.861 296.773C259.278 298.272 259.688 299.774 260.093 301.279C264.37 317.12 268.152 333.415 271.148 349.627C271.929 353.846 272.654 358.054 273.324 362.251" stroke="#EAEAEA" stroke-width="1.61041" stroke-linecap="round" stroke-linejoin="round"/>
<path d="M252.635 297.945C252.754 298.933 252.872 299.92 252.99 300.913C255.137 318.972 257.227 337.685 259.355 355.958C259.885 360.532 260.421 365.074 260.962 369.582C260.967 369.614 260.97 369.647 260.975 369.679" stroke="#EAEAEA" stroke-width="1.61041" stroke-linecap="round" stroke-linejoin="round"/>
<path d="M261.03 369.576C261.246 372.839 266.176 372.698 268.56 370.881C270.015 369.773 271.088 368.243 272.144 366.747C273.075 365.417 274.023 363.643 273.291 362.267C273.248 362.181 273.199 362.099 273.144 362.02C272.262 360.762 270.363 360.84 268.906 361.317C266.024 362.266 261.852 365.191 261.14 368.393C261.05 368.78 261.013 369.178 261.03 369.576Z" stroke="#EAEAEA" stroke-width="1.61041" stroke-linecap="round" stroke-linejoin="round"/>
<path d="M260.937 259.698C261.876 258.144 262.81 256.58 263.735 255.007C271.46 241.929 278.786 228.317 285.653 214.639C288.389 209.193 291.05 203.748 293.636 198.3C293.665 198.245 293.694 198.179 293.723 198.121" stroke="#EAEAEA" stroke-width="1.61041" stroke-linecap="round" stroke-linejoin="round"/>
<path d="M283.254 193.426C283.224 193.516 283.199 193.6 283.169 193.691C281.613 198.45 279.945 203.171 278.164 207.854C272.313 223.075 265.625 237.962 258.131 252.446C258.003 252.693 257.876 252.942 257.753 253.194C257.054 254.635 256.475 256.17 256.798 257.702C257.186 259.506 259.54 260.901 260.934 259.697" stroke="#EAEAEA" stroke-width="1.61041" stroke-linecap="round" stroke-linejoin="round"/>
<path d="M283.223 193.709C282.774 195.051 284.191 196.947 285.75 198.037C286.637 198.648 287.636 199.077 288.69 199.299C289.743 199.522 290.83 199.533 291.889 199.333C292.235 199.303 292.568 199.191 292.863 199.007C293.157 198.823 293.404 198.572 293.583 198.275C293.877 197.61 293.541 196.844 293.14 196.244C291.657 194.001 288.201 191.77 285.367 192.297C284.089 192.538 283.441 193.056 283.223 193.709Z" stroke="#EAEAEA" stroke-width="1.61041" stroke-linecap="round" stroke-linejoin="round"/>
<path d="M226.441 267.79C221.168 266.451 215.898 265.111 210.629 263.769C205.202 262.388 199.776 261.007 194.349 259.629C191.97 259.024 189.437 258.417 187.099 259.172C184.761 259.926 182.881 262.611 183.892 264.846C184.775 266.803 187.223 267.389 189.342 267.744L209.643 271.091L225.513 273.706L225.63 273.726" stroke="#EAEAEA" stroke-width="1.61041" stroke-linecap="round" stroke-linejoin="round"/>
<path d="M271.332 349.589C278.057 344.07 283.188 336.207 287.248 328.303C293.635 315.653 297.361 302.368 299.498 288.481C300.977 277.794 300.846 267.046 300.482 256.086" stroke="#EAEAEA" stroke-width="1.61041" stroke-linecap="round" stroke-linejoin="round"/>
<path d="M209.622 271.227C207.231 299.489 209.231 331.797 233.194 351.503C240.479 357.687 250.65 358.609 259.253 355.97" stroke="#EAEAEA" stroke-width="1.61041" stroke-linecap="round" stroke-linejoin="round"/>
<path d="M278.038 207.809C272.571 203.934 266.095 201.035 259.28 201.148C252.529 201.262 246.32 204.653 240.993 208.561C230.186 216.504 222.066 227.96 217.043 240.307C214.06 247.827 211.919 255.654 210.659 263.646" stroke="#EAEAEA" stroke-width="1.61041" stroke-linecap="round" stroke-linejoin="round"/>
<path d="M300.484 256.087C299.12 241.737 295.954 226.04 285.865 214.746" stroke="#EAEAEA" stroke-width="1.61041" stroke-linecap="round" stroke-linejoin="round"/>
<path d="M146.747 389.762C146.495 403.105 146.269 416.45 145.952 429.796" stroke="#EAEAEA" stroke-width="1.61041" stroke-linecap="round" stroke-linejoin="round"/>
<path d="M151.875 258.41C151.873 258.463 151.873 258.517 151.875 258.571C151.451 282.985 149.472 307.027 148.426 331.379" stroke="#EAEAEA" stroke-width="1.61041" stroke-linecap="round" stroke-linejoin="round"/>
<path d="M154.027 222.582C153.639 229.422 153.196 236.253 152.655 243.081" stroke="#EAEAEA" stroke-width="1.61041" stroke-linecap="round" stroke-linejoin="round"/>
<path d="M159.131 144.227V144.232C158.389 150.913 157.787 157.594 157.281 164.293" stroke="#EAEAEA" stroke-width="1.61041" stroke-linecap="round" stroke-linejoin="round"/>
<path d="M353.495 302.719C352.871 340.924 351.191 378.771 348.406 416.877C348.083 421.302 347.437 426.31 343.836 428.908C341.528 430.571 338.521 430.823 335.683 431.006C306.867 432.864 278.272 433.403 249.61 433.194C242.147 433.137 234.672 433.033 227.185 432.883C221.452 432.772 215.714 432.638 209.968 432.483C188.945 431.913 167.812 431.086 146.457 430.219" stroke="#EAEAEA" stroke-width="1.61041" stroke-linecap="round" stroke-linejoin="round"/>
<path d="M228.774 132.662C228.796 132.658 228.817 132.658 228.839 132.654C232.748 132.114 236.661 131.594 240.576 131.095C273.863 126.811 307.289 123.848 340.852 122.204C342.897 122.103 345.138 122.07 346.727 123.355C348.509 124.803 348.804 127.366 348.964 129.654C351.671 168.828 353.263 207.799 353.693 246.968C353.786 254.857 353.828 262.752 353.817 270.655C353.819 270.69 353.819 270.726 353.817 270.762" stroke="#EAEAEA" stroke-width="1.61041" stroke-linecap="round" stroke-linejoin="round"/>
<path d="M159.136 144.231C170.678 141.982 182.25 139.895 193.852 137.969C200.28 136.902 206.712 135.884 213.149 134.913C213.214 134.905 213.278 134.891 213.343 134.883" stroke="#EAEAEA" stroke-width="1.61041" stroke-linecap="round" stroke-linejoin="round"/>
<path d="M240.513 130.596C241.295 127.387 238.086 123.913 234.827 124.44C234.642 124.471 234.459 124.512 234.279 124.564C233.779 124.703 233.302 124.914 232.864 125.193C231.767 125.897 230.872 126.874 230.265 128.028C229.54 129.481 229.058 131.044 228.838 132.652C228.775 133.031 228.718 133.41 228.667 133.784C227.726 140.356 227.569 147.016 228.2 153.624C222.297 153.508 216.392 153.854 210.543 154.658C210.517 154.658 210.492 154.661 210.467 154.666" stroke="#EAEAEA" stroke-width="1.61041" stroke-linecap="round" stroke-linejoin="round"/>
<path d="M210.542 154.686V154.66C210.702 148.153 211.539 141.681 213.04 135.347C213.072 135.203 213.11 135.06 213.148 134.916C213.162 134.842 213.181 134.767 213.2 134.694C213.705 132.694 214.372 130.694 215.776 129.208C218.009 126.843 221.539 126.332 224.791 126.176C227.401 126.054 230.366 126.065 232.864 125.197C233.354 125.032 233.828 124.822 234.279 124.569C234.394 124.514 234.504 124.449 234.612 124.383" stroke="#EAEAEA" stroke-width="1.61041" stroke-linecap="round" stroke-linejoin="round"/>
<path d="M213.185 134.685C213.818 128.892 211.881 122.872 207.683 118.825C205.563 116.812 203.016 115.302 200.233 114.408C197.449 113.513 194.5 113.256 191.604 113.656C187.361 117.113 182.863 120.244 178.148 123.021C185.697 123.124 192.816 130.457 193.848 137.941" stroke="#EAEAEA" stroke-width="1.61041" stroke-linecap="round" stroke-linejoin="round"/>
<path d="M353.576 246.945C353.614 246.953 353.656 246.959 353.693 246.966C357.5 247.593 360.125 251.334 360.616 255.231C360.691 255.819 360.716 256.413 360.689 257.005C360.475 261.503 357.943 265.554 355.129 269.073C354.701 269.605 354.267 270.131 353.818 270.651C350.073 275.052 345.761 278.936 340.994 282.203" stroke="#EAEAEA" stroke-width="1.61041" stroke-linecap="round" stroke-linejoin="round"/>
<path d="M340.949 282.098C340.953 282.135 340.958 282.173 340.961 282.208C342.092 291.758 342.797 301.121 343.928 310.671" stroke="#EAEAEA" stroke-width="1.61041" stroke-linecap="round" stroke-linejoin="round"/>
<path d="M343.929 310.674C347.106 308.012 350.287 305.35 353.47 302.688C355.345 301.121 357.22 299.551 359.095 297.981C360.836 296.521 362.618 295.015 363.73 293.032C365.677 289.545 365.221 285.268 364.706 281.305C363.591 272.728 361.941 263.819 360.784 255.213C360.733 254.857 360.687 254.5 360.642 254.145" stroke="#EAEAEA" stroke-width="1.61041" stroke-linecap="round" stroke-linejoin="round"/>
<path d="M227.297 432.484C227.26 432.617 227.222 432.75 227.186 432.883C226.222 436.087 224.465 438.996 222.078 441.341C219.691 443.685 216.751 445.388 213.53 446.294C215.091 446.188 216.66 446.26 218.205 446.509C223.931 447.349 229.621 449.834 235.212 448.463C238.856 447.57 241.952 445.098 244.282 442.157C246.391 439.38 248.179 436.374 249.612 433.195C249.675 433.068 249.733 432.936 249.798 432.81" stroke="#EAEAEA" stroke-width="1.61041" stroke-linecap="round" stroke-linejoin="round"/>
<path d="M210.151 432.215C210.096 432.309 210.031 432.398 209.969 432.487C204.884 440.255 195.893 445.034 186.601 445.198C191.237 446.572 195.875 447.943 200.513 449.313C203.594 450.219 206.766 451.145 209.966 450.884C213.166 450.624 216.975 449.624 218.184 446.645" stroke="#EAEAEA" stroke-width="1.61041" stroke-linecap="round" stroke-linejoin="round"/>
<path d="M110.369 151.765C111.197 145.473 111.6 139.132 111.576 132.785" stroke="#EAEAEA" stroke-width="1.61041" stroke-linecap="round" stroke-linejoin="round"/>
<path d="M110.368 151.764C104.21 155.516 96.6693 157.487 89.6668 155.744C82.6644 154.002 76.0465 148.036 75.4375 140.848" stroke="#EAEAEA" stroke-width="1.61041" stroke-linecap="round" stroke-linejoin="round"/>
<path d="M75.4375 140.848C80.057 136.827 84.0182 132.106 87.177 126.859" stroke="#EAEAEA" stroke-width="1.61041" stroke-linecap="round" stroke-linejoin="round"/>
<path d="M87.1777 126.859C88.5632 132.246 91.3827 137.53 96.6933 138.988C102.004 140.446 108.639 137.437 111.576 132.782" stroke="#EAEAEA" stroke-width="1.61041" stroke-linecap="round" stroke-linejoin="round"/>
<path d="M148.414 331.672L150.431 331.748C150.962 331.768 151.483 331.892 151.965 332.114C152.448 332.336 152.881 332.65 153.243 333.039C153.604 333.429 153.884 333.885 154.068 334.383C154.252 334.881 154.337 335.41 154.317 335.94L152.433 385.662C152.413 386.192 152.289 386.714 152.067 387.196C151.845 387.679 151.531 388.113 151.142 388.473C150.752 388.834 150.296 389.115 149.798 389.299C149.3 389.484 148.771 389.568 148.241 389.548L146.755 389.493L143.698 389.377C143.167 389.357 142.646 389.233 142.164 389.012C141.681 388.79 141.247 388.476 140.887 388.086C140.526 387.697 140.245 387.24 140.06 386.743C139.876 386.245 139.791 385.716 139.811 385.185L141.696 335.463C141.716 334.933 141.84 334.412 142.061 333.93C142.283 333.447 142.597 333.013 142.986 332.652C143.376 332.291 143.832 332.01 144.33 331.826C144.828 331.641 145.357 331.557 145.887 331.577L148.414 331.672Z" stroke="#EAEAEA" stroke-width="1.61041" stroke-linecap="round" stroke-linejoin="round"/>
<path d="M157.264 164.478L160.24 164.741C161.308 164.836 162.294 165.351 162.983 166.173C163.672 166.994 164.007 168.055 163.915 169.124L159.567 218.693C159.52 219.222 159.37 219.736 159.124 220.207C158.879 220.677 158.543 221.095 158.136 221.436C157.729 221.776 157.259 222.034 156.753 222.193C156.247 222.352 155.714 222.41 155.185 222.363L154.056 222.266L150.656 221.965C150.128 221.919 149.613 221.77 149.143 221.524C148.672 221.279 148.254 220.944 147.914 220.537C147.573 220.13 147.316 219.661 147.157 219.155C146.998 218.649 146.94 218.116 146.987 217.587L151.328 168.018C151.423 166.95 151.937 165.963 152.759 165.273C153.581 164.585 154.643 164.25 155.711 164.344L157.264 164.478Z" stroke="#EAEAEA" stroke-width="1.61041" stroke-linecap="round" stroke-linejoin="round"/>
<path d="M53.2324 477.143L53.2607 477.118C57.4094 473.38 60.6186 470.053 65.3501 465.957" stroke="#EAEAEA" stroke-width="1.61041" stroke-linecap="round" stroke-linejoin="round"/>
<path d="M22.4351 477.939C26.1536 474.497 29.6954 470.867 33.0468 467.066" stroke="#EAEAEA" stroke-width="1.61041" stroke-linecap="round" stroke-linejoin="round"/>
<path d="M33.0469 467.065C43.8914 466.649 54.5098 466.374 65.3494 465.957" stroke="#EAEAEA" stroke-width="1.61041" stroke-linecap="round" stroke-linejoin="round"/>
<path d="M22.4351 477.941C32.8229 477.244 42.8494 476.871 53.2606 477.12H53.2977" stroke="#EAEAEA" stroke-width="1.61041" stroke-linecap="round" stroke-linejoin="round"/>
<path d="M54.9117 442.588C54.8225 444.657 54.8303 446.732 54.9344 448.798C54.8898 449.596 55.1218 450.384 55.5913 451.03C56.2308 451.731 57.292 451.806 58.2413 451.834C65.5491 452.047 72.8796 452.507 80.1575 451.816C81.8017 451.658 83.5351 451.406 84.8158 450.364C85.1029 450.141 85.3462 449.866 85.5335 449.554C85.6908 449.303 85.7856 449.018 85.8105 448.723C85.8898 447.63 84.9283 446.777 84.0333 446.152C82.9976 445.425 81.922 444.75 80.8402 444.087C78.168 442.454 75.456 440.872 73.1733 438.742" stroke="#EAEAEA" stroke-width="1.61041" stroke-linecap="round" stroke-linejoin="round"/>
<path d="M81.0196 441.855C80.9764 442.569 80.9332 443.287 80.8955 444" stroke="#EAEAEA" stroke-width="1.61041" stroke-linecap="round" stroke-linejoin="round"/>
<path d="M85.6699 449.635C91.5441 450.018 97.4183 450.4 103.292 450.78C104.63 450.952 105.987 450.866 107.293 450.529C108.571 450.11 109.739 449.064 109.88 447.727C109.909 447.259 109.842 446.79 109.685 446.349C109.529 445.907 109.285 445.502 108.968 445.157C108.329 444.472 107.586 443.891 106.766 443.439C104.284 441.99 101.72 440.683 99.088 439.527" stroke="#EAEAEA" stroke-width="1.61041" stroke-linecap="round" stroke-linejoin="round"/>
<path d="M103.083 445.537C103.719 444.511 104.504 443.585 105.411 442.789" stroke="#EAEAEA" stroke-width="1.61041" stroke-linecap="round" stroke-linejoin="round"/>
<path d="M100.102 444.42C100.757 443.27 101.536 442.195 102.425 441.215" stroke="#EAEAEA" stroke-width="1.61041" stroke-linecap="round" stroke-linejoin="round"/>
<path d="M77.6333 446.979C78.3787 445.842 79.2204 444.773 80.1503 443.781" stroke="#EAEAEA" stroke-width="1.61041" stroke-linecap="round" stroke-linejoin="round"/>
<path d="M74.2739 445.325C75.1102 444.11 76.0445 442.965 77.0675 441.902" stroke="#EAEAEA" stroke-width="1.61041" stroke-linecap="round" stroke-linejoin="round"/>
<path d="M252.645 297.922C252.838 297.323 253.203 296.794 253.694 296.401C254.186 296.008 254.782 295.769 255.408 295.712C256.652 295.625 257.885 295.998 258.871 296.761C258.892 296.773 258.907 296.784 258.923 296.795" stroke="#EAEAEA" stroke-width="1.61041" stroke-linecap="round" stroke-linejoin="round"/>
<path d="M78.7039 296.742C79.2242 314.361 82.2805 331.872 78.6606 349.123" stroke="#EAEAEA" stroke-width="1.61041" stroke-linecap="round" stroke-linejoin="round"/>
<path d="M85.3975 296.808C85.8657 295.131 86.0597 293.389 85.9721 291.648" stroke="#EAEAEA" stroke-width="1.61041" stroke-linecap="round" stroke-linejoin="round"/>
<path d="M81.605 296.916C81.6709 295.192 81.7363 293.467 81.8011 291.742" stroke="#EAEAEA" stroke-width="1.61041" stroke-linecap="round" stroke-linejoin="round"/>
<path d="M77.2476 296.625C77.2841 295.152 77.3202 293.679 77.3545 292.207" stroke="#EAEAEA" stroke-width="1.61041" stroke-linecap="round" stroke-linejoin="round"/>
<path d="M72.9194 296.456C72.7133 295.075 72.7149 293.67 72.925 292.289" stroke="#EAEAEA" stroke-width="1.61041" stroke-linecap="round" stroke-linejoin="round"/>
<path d="M93.7227 426.668L95.5442 428.632" stroke="url(#paint3_linear_270_9054)" stroke-width="1.61041" stroke-linecap="round" stroke-linejoin="round"/>
<path d="M88.2498 428.547L85.2534 431.324" stroke="url(#paint4_linear_270_9054)" stroke-width="1.61041" stroke-linecap="round" stroke-linejoin="round"/>
<path d="M67.073 434.569L64.7959 432.113" stroke="url(#paint5_linear_270_9054)" stroke-width="1.61041" stroke-linecap="round" stroke-linejoin="round"/>
<path d="M59.0811 427.82L56.7725 429.961" stroke="url(#paint6_linear_270_9054)" stroke-width="1.61041" stroke-linecap="round" stroke-linejoin="round"/>
<path d="M47.6053 262.586L49.1242 265.331L52.2464 265.636L50.1046 267.929L50.7795 270.993L47.9372 269.664L45.2312 271.253L45.6169 268.139L43.27 266.057L46.3501 265.461L47.6053 262.586Z" stroke="#EAEAEA" stroke-width="1.61041" stroke-linecap="round" stroke-linejoin="round"/>
<path d="M68.9204 227.422L70.9946 231.171L75.2595 231.589L72.334 234.72L73.2556 238.905L69.3731 237.091L65.6779 239.26L66.2038 235.007L62.9985 232.163L67.2058 231.349L68.9204 227.422Z" stroke="#EAEAEA" stroke-width="1.61041" stroke-linecap="round" stroke-linejoin="round"/>
<path d="M115.148 320.798L111.19 314.348" stroke="#EAEAEA" stroke-width="1.61041" stroke-linecap="round" stroke-linejoin="round"/>
<path d="M110.535 320.2L115.821 314.984" stroke="#EAEAEA" stroke-width="1.61041" stroke-linecap="round" stroke-linejoin="round"/>
<path d="M160.329 98.0162L156.401 84.9922" stroke="#EAEAEA" stroke-width="1.61041" stroke-linecap="round" stroke-linejoin="round"/>
<path d="M151.396 101.106L113.962 63.1211" stroke="#EAEAEA" stroke-width="1.61041" stroke-linecap="round" stroke-linejoin="round"/>
<path d="M142.887 107.621L132.39 102.695" stroke="#EAEAEA" stroke-width="1.61041" stroke-linecap="round" stroke-linejoin="round"/>
<path d="M137.01 118.136L78.8872 116.633" stroke="#EAEAEA" stroke-width="1.61041" stroke-linecap="round" stroke-linejoin="round"/>
<path d="M171.924 97.2651L183.856 55.1055" stroke="#EAEAEA" stroke-width="1.61041" stroke-linecap="round" stroke-linejoin="round"/>
<path d="M84.0379 139.151L88.1127 138.148C86.581 140.508 85.0493 142.868 83.5176 145.227" stroke="#EAEAEA" stroke-width="1.61041" stroke-linecap="round" stroke-linejoin="round"/>
<path d="M89.7695 142.577C89.2757 142.858 88.8468 143.24 88.5115 143.698C88.1762 144.157 87.9424 144.682 87.8254 145.237C87.7213 145.796 87.7789 146.373 87.9917 146.9C88.2045 147.427 88.5636 147.882 89.0269 148.212C90.3269 149.056 92.1385 148.539 93.2879 147.5C94.1152 146.788 94.6511 145.796 94.793 144.714C95.1122 141.43 91.9279 141.296 89.7695 142.577Z" stroke="#EAEAEA" stroke-width="1.61041" stroke-linecap="round" stroke-linejoin="round"/>
<path d="M96.0958 147.375C96.1574 148.062 96.4455 148.708 96.916 149.213C97.3859 149.716 98.0105 150.049 98.6916 150.159C101.593 150.453 104.625 145.833 102.213 143.623C99.7062 141.326 95.816 144.452 96.0958 147.375Z" stroke="#EAEAEA" stroke-width="1.61041" stroke-linecap="round" stroke-linejoin="round"/>
<path d="M194.316 120.602C196.469 120.75 198.622 120.897 200.775 121.045L191.507 127.525" stroke="#EAEAEA" stroke-width="1.61041" stroke-linecap="round" stroke-linejoin="round"/>
<path d="M201.127 126.398C199.573 126.59 198.154 127.382 197.175 128.604C196.841 128.975 196.596 129.416 196.458 129.895C196.32 130.374 196.292 130.878 196.377 131.369C196.693 132.607 198.001 133.339 199.258 133.563C200.132 133.731 201.033 133.7 201.892 133.471C202.752 133.242 203.55 132.823 204.225 132.243C205.171 131.383 206.426 129.14 205.681 127.819C204.971 126.564 202.394 126.247 201.127 126.398Z" stroke="#EAEAEA" stroke-width="1.61041" stroke-linecap="round" stroke-linejoin="round"/>
<path d="M208.037 135.501C206.703 134.639 205.096 134.304 203.528 134.561C201.96 134.818 200.544 135.648 199.555 136.891" stroke="#EAEAEA" stroke-width="1.61041" stroke-linecap="round" stroke-linejoin="round"/>
<path d="M216.901 147.408C215.604 146.719 214.514 145.697 213.742 144.448L223.808 143.297" stroke="#EAEAEA" stroke-width="1.61041" stroke-linecap="round" stroke-linejoin="round"/>
<path d="M223.126 138.32C223.602 137.849 223.951 137.266 224.142 136.625C224.235 136.304 224.256 135.967 224.205 135.637C224.153 135.308 224.03 134.993 223.844 134.716C223.634 134.455 223.373 134.241 223.076 134.087C222.779 133.933 222.454 133.842 222.119 133.821C221.452 133.783 220.782 133.868 220.144 134.071C218.397 134.552 213.559 137.09 215.8 139.486C217.617 141.423 221.638 139.886 223.126 138.32Z" stroke="#EAEAEA" stroke-width="1.61041" stroke-linecap="round" stroke-linejoin="round"/>
<path d="M227.951 128.391C226.527 127.874 225.001 127.7 223.498 127.884C221.994 128.068 220.555 128.605 219.298 129.45C216.993 131.03 221.6 131.295 222.502 131.228C223.557 131.156 224.585 130.867 225.523 130.379C226.461 129.89 227.287 129.214 227.951 128.391Z" stroke="#EAEAEA" stroke-width="1.61041" stroke-linecap="round" stroke-linejoin="round"/>
<path d="M349.79 286.713C351.302 283.949 352.502 281.025 353.368 277.996C354.205 283.338 355.04 288.68 355.876 294.022" stroke="#EAEAEA" stroke-width="1.61041" stroke-linecap="round" stroke-linejoin="round"/>
<path d="M358.477 285.633C358.638 286.113 358.895 286.556 359.231 286.936C359.401 287.123 359.615 287.267 359.853 287.354C360.091 287.441 360.346 287.469 360.598 287.435C361.51 287.256 361.867 286.165 362.032 285.251C362.609 282.06 362.9 278.606 361.42 275.719C359.913 272.782 358.347 275.687 357.928 277.486C357.29 280.195 357.481 283.034 358.477 285.633Z" stroke="#EAEAEA" stroke-width="1.61041" stroke-linecap="round" stroke-linejoin="round"/>
<path d="M202.101 445.939C202.271 444.823 202.443 443.706 202.613 442.59L211.03 445.084" stroke="#EAEAEA" stroke-width="1.61041" stroke-linecap="round" stroke-linejoin="round"/>
<path d="M206.64 441.414C207.123 442.328 208.179 442.76 209.168 443.056C210.276 443.437 211.449 443.599 212.619 443.533C213.738 443.426 214.931 442.86 215.296 441.796C215.409 441.357 215.418 440.897 215.323 440.454C215.229 440.011 215.032 439.596 214.75 439.241C213.774 437.856 211.458 436.502 209.699 436.859C207.854 437.229 205.585 439.423 206.64 441.414Z" stroke="#EAEAEA" stroke-width="1.61041" stroke-linecap="round" stroke-linejoin="round"/>
<path d="M212.734 432.68C212.538 432.979 212.437 433.33 212.443 433.688C212.449 434.045 212.562 434.392 212.767 434.685C213.191 435.264 213.783 435.698 214.463 435.928C215.794 436.474 217.277 436.518 218.639 436.054C219.311 435.816 219.921 435.428 220.42 434.919C220.921 434.41 221.298 433.794 221.524 433.117" stroke="#EAEAEA" stroke-width="1.61041" stroke-linecap="round" stroke-linejoin="round"/>
<path d="M224.881 444.975L224.271 442.328L235.685 444.651" stroke="#EAEAEA" stroke-width="1.61041" stroke-linecap="round" stroke-linejoin="round"/>
<path d="M239.357 440.366C239.895 439.965 240.414 439.376 240.32 438.711C240.205 437.894 239.279 437.501 238.491 437.259C236.135 436.539 233.67 435.809 231.246 436.252C230.553 436.344 229.901 436.632 229.367 437.083C229.105 437.312 228.914 437.612 228.818 437.947C228.722 438.282 228.725 438.638 228.825 438.971C229.023 439.397 229.341 439.756 229.74 440.003C232.445 441.934 236.595 442.42 239.357 440.366Z" stroke="#EAEAEA" stroke-width="1.61041" stroke-linecap="round" stroke-linejoin="round"/>
<path d="M232.825 432.977C232.983 433.452 233.237 433.89 233.572 434.263C233.906 434.636 234.314 434.937 234.769 435.147C235.681 435.56 236.655 435.823 237.651 435.927C238.821 436.172 240.031 436.152 241.193 435.868C241.771 435.715 242.293 435.398 242.694 434.956C243.097 434.513 243.362 433.964 243.458 433.374" stroke="#EAEAEA" stroke-width="1.61041" stroke-linecap="round" stroke-linejoin="round"/>
<path d="M33.5275 471.673L37.9497 469.77L33.3086 475.772L33.7724 475.394" stroke="#EAEAEA" stroke-width="1.61041" stroke-linecap="round" stroke-linejoin="round"/>
<path d="M38.3164 472.534C37.9837 472.839 37.7235 473.214 37.5549 473.633C37.4734 473.843 37.4498 474.071 37.4867 474.293C37.5235 474.515 37.6194 474.724 37.7644 474.897C38.19 475.34 38.911 475.27 39.4995 475.096C40.6854 474.743 44.7713 472.576 43.4341 470.902C42.0564 469.181 39.2523 471.581 38.3164 472.534Z" stroke="#EAEAEA" stroke-width="1.61041" stroke-linecap="round" stroke-linejoin="round"/>
<path d="M43.8402 474.271C43.8873 474.485 43.9861 474.684 44.128 474.851C44.27 475.018 44.4506 475.147 44.6543 475.229C45.0642 475.386 45.5071 475.439 45.9427 475.382C47.6119 475.232 51.2627 473.324 49.0571 471.459C48.7107 471.156 48.286 470.956 47.8315 470.883C47.3771 470.809 46.9112 470.865 46.4869 471.044C45.5836 471.463 43.654 473.147 43.8402 474.271Z" stroke="#EAEAEA" stroke-width="1.61041" stroke-linecap="round" stroke-linejoin="round"/>
<path d="M276.21 190.911C270.095 188.556 263.531 187.601 256.998 188.116C250.466 188.631 244.132 190.603 238.462 193.886" stroke="#EAEAEA" stroke-width="1.61041" stroke-linecap="round" stroke-linejoin="round"/>
<path d="M184.284 274.25C181.508 285.242 181.743 296.779 184.965 307.65" stroke="#EAEAEA" stroke-width="1.61041" stroke-linecap="round" stroke-linejoin="round"/>
<path d="M280.413 361.384C290.568 355.666 298.708 346.951 303.721 336.43" stroke="#EAEAEA" stroke-width="1.61041" stroke-linecap="round" stroke-linejoin="round"/>
<path d="M157.518 261.896C159.833 259.928 161.669 257.46 162.89 254.678C164.109 251.895 164.681 248.872 164.56 245.836" stroke="#EAEAEA" stroke-width="1.61041" stroke-linecap="round" stroke-linejoin="round"/>
<path d="M165.601 258.393C166.285 257.564 166.792 256.602 167.09 255.569C167.387 254.536 167.469 253.453 167.331 252.387" stroke="#EAEAEA" stroke-width="1.61041" stroke-linecap="round" stroke-linejoin="round"/>
<g opacity="0.1">
<path d="M72.2845 292.855C69.9647 293.904 68.1111 296.213 66.2141 297.898C64.0202 299.786 61.9598 301.824 60.0468 303.998C56.6143 308.068 53.8103 312.63 51.7273 317.53C47.0568 328.336 44.9349 339.68 43.2813 351.267C42.4877 356.83 50.3536 357.967 50.9327 352.303C52.0543 341.378 52.8357 329.88 57.2056 319.67C59.113 315.061 61.7498 310.789 65.0149 307.019C66.8536 304.955 68.9395 303.139 70.8891 301.188C72.658 299.415 74.6724 297.676 75.2969 295.172C75.7608 293.312 73.8733 292.135 72.2823 292.855H72.2845Z" fill="#EAEAEA"/>
</g>
<g opacity="0.1">
<path d="M73.9166 307.024C71.2344 308.459 68.7717 311.457 67.2511 314.062C65.4578 317.131 64.1805 320.723 63.0084 324.066C60.5961 330.948 59.2439 338.082 57.7405 345.168C56.4781 351.12 65.7205 352.383 65.9554 346.28C66.2137 339.589 68.0186 332.909 70.1765 326.556C71.2416 323.42 72.5184 320.378 73.6861 317.283C74.7346 314.503 75.6994 310.961 75.5581 307.965C75.5542 307.774 75.5015 307.588 75.404 307.424C75.307 307.26 75.169 307.124 75.0039 307.03C74.8387 306.935 74.652 306.884 74.4614 306.883C74.2707 306.882 74.0829 306.931 73.9166 307.024Z" fill="#EAEAEA"/>
</g>
</g>
<defs>
<linearGradient id="paint0_linear_270_9054" x1="231.569" y1="432.883" x2="231.569" y2="448.868" gradientUnits="userSpaceOnUse">
<stop stop-color="#FFB800"/>
<stop offset="1" stop-color="#FF7F0A"/>
</linearGradient>
<linearGradient id="paint1_linear_270_9054" x1="206.893" y1="432.484" x2="206.893" y2="450.925" gradientUnits="userSpaceOnUse">
<stop stop-color="#FFB800"/>
<stop offset="1" stop-color="#FF7F0A"/>
</linearGradient>
<linearGradient id="paint2_linear_270_9054" x1="43.8924" y1="465.957" x2="43.8924" y2="477.938" gradientUnits="userSpaceOnUse">
<stop stop-color="#FFB800"/>
<stop offset="1" stop-color="#FF7F0A"/>
</linearGradient>
<linearGradient id="paint3_linear_270_9054" x1="94.6337" y1="426.668" x2="94.6337" y2="428.632" gradientUnits="userSpaceOnUse">
<stop stop-color="#FFB800"/>
<stop offset="1" stop-color="#FF7F0A"/>
</linearGradient>
<linearGradient id="paint4_linear_270_9054" x1="86.7513" y1="428.547" x2="86.7513" y2="431.324" gradientUnits="userSpaceOnUse">
<stop stop-color="#FFB800"/>
<stop offset="1" stop-color="#FF7F0A"/>
</linearGradient>
<linearGradient id="paint5_linear_270_9054" x1="65.9342" y1="432.113" x2="65.9342" y2="434.569" gradientUnits="userSpaceOnUse">
<stop stop-color="#FFB800"/>
<stop offset="1" stop-color="#FF7F0A"/>
</linearGradient>
<linearGradient id="paint6_linear_270_9054" x1="57.9268" y1="427.82" x2="57.9268" y2="429.961" gradientUnits="userSpaceOnUse">
<stop stop-color="#FFB800"/>
<stop offset="1" stop-color="#FF7F0A"/>
</linearGradient>
</defs>
</svg>
