<svg width="490" height="425" viewBox="0 0 490 425" fill="none" xmlns="http://www.w3.org/2000/svg">
<path fill-rule="evenodd" clip-rule="evenodd" d="M205.271 213.523C204.616 215.433 204.15 217.404 203.883 219.406C203.194 224.494 203.781 229.672 205.589 234.477C206.831 237.729 208.679 240.832 211.362 243.049C213.482 244.835 216.124 245.887 218.892 246.046C219.623 246.075 220.354 246.025 221.073 245.898C225.426 245.112 228.761 241.548 231.033 237.756C233.824 232.998 235.473 227.657 235.851 222.154C236.229 216.65 235.326 211.135 233.212 206.04C231.506 202.017 227.7 196.974 223.206 196.207C221.64 195.942 220.029 196.22 218.643 196.996C212.657 200.197 207.78 206.705 205.475 212.956C205.404 213.146 205.338 213.332 205.271 213.523Z" fill="#FF6900"/>
<path fill-rule="evenodd" clip-rule="evenodd" d="M35.2532 301.346C35.3463 299.298 35.5048 297.252 35.7265 295.219L35.7625 295.219C41.103 295.111 46.3282 295.023 51.5529 294.935C56.8873 294.846 62.2206 294.756 67.6742 294.644C68.4838 294.654 69.2929 294.582 70.0887 294.429C70.6994 294.311 71.2779 294.063 71.7861 293.704C73.5605 292.392 73.6891 289.833 73.6115 287.634C73.2607 278.025 71.9728 268.48 70.4095 258.984L70.8041 258.918C83.4724 252.613 94.9552 244.264 105.756 235.065C110.53 231.003 115.175 226.774 119.726 222.477C121.017 221.253 122.355 219.94 122.829 218.222C123.352 216.308 122.682 214.285 121.832 212.496C121.829 212.493 121.828 212.489 121.827 212.485C121.826 212.481 121.825 212.477 121.822 212.474C119.854 208.366 116.927 204.792 113.288 202.053C112.568 201.504 111.819 200.998 111.047 200.523C109.891 202.437 108.701 204.329 107.475 206.2C103.035 213.17 97.8873 219.664 92.1151 225.578C84.6959 232.998 75.8631 239.168 65.9324 242.536L65.903 242.459C65.5478 242.584 65.1693 242.631 64.7947 242.595C61.5556 242.512 58.3126 242.43 55.0658 242.35C53.4454 242.312 51.8244 242.27 50.2035 242.225C50.091 242.222 49.9286 242.232 49.7424 242.242C49.1905 242.274 48.4346 242.319 48.1947 242.084C48.0001 241.799 47.9054 241.458 47.9253 241.113L47.8278 241.12C38.2202 247.331 31.7025 257.482 27.7934 268.239C23.8843 278.995 22.3498 290.437 20.8408 301.778C21.1829 301.767 21.525 301.757 21.8664 301.748C22.2174 301.738 22.5678 301.728 22.9167 301.717L33.86 301.39L35.2532 301.346Z" fill="#FF6900"/>
<path fill-rule="evenodd" clip-rule="evenodd" d="M77.6904 384.814C80.3089 354.473 77.7364 323.907 70.0845 294.43C69.2887 294.582 68.4796 294.653 67.6694 294.643C62.3289 294.752 57.1037 294.84 51.8796 294.927C46.5446 295.017 41.2113 295.106 35.7577 295.218H35.7256C35.5039 297.251 35.3454 299.295 35.2523 301.345L33.8592 301.389L33.8619 301.454C35.8187 303.054 37.3044 305.157 38.1595 307.536C38.3972 308.201 38.5507 309.032 38.052 309.531C37.4103 310.161 36.3274 309.691 35.6231 309.133C34.7636 308.448 33.9911 307.661 33.3215 306.79L33.2711 306.831C34.451 333.561 33.6246 360.461 31.5742 387.139C32.1139 387.562 32.6869 387.941 33.2877 388.272C36.2654 389.958 39.7588 390.49 43.1038 389.768C46.4482 389.045 49.4107 387.119 51.4279 384.355C51.577 384.151 51.7172 383.947 51.8541 383.737C52.9181 359.466 53.5105 335.301 53.5869 311.004L53.9865 310.938C58.1145 335.618 59.4129 360.688 57.8562 385.662C58.1716 386.424 58.7235 387.065 59.4306 387.49C60.1178 387.922 60.8648 388.251 61.6473 388.466C64.3416 389.218 67.1784 389.305 69.9138 388.719C72.6492 388.133 75.2011 386.892 77.3513 385.102C77.4593 385.018 77.5624 384.927 77.6644 384.837L77.6904 384.814ZM68.8736 306.405C68.7628 305.974 68.3239 305.715 67.8933 305.826C67.4627 305.936 67.2034 306.375 67.3142 306.806C71.527 323.157 73.5214 340 73.2438 356.883C73.2366 357.328 73.5913 357.694 74.0357 357.701C74.4807 357.708 74.847 357.354 74.8542 356.909C75.1335 339.882 73.1224 322.895 68.8736 306.405Z" fill="#EAEAEA"/>
<path d="M339.059 202.708C339.085 202.116 339.061 201.523 338.986 200.935L339.153 200.914C340.31 209.52 341.959 218.429 343.074 227.006C343.59 230.969 344.046 235.245 342.098 238.733C340.987 240.716 339.205 242.224 337.463 243.682C335.588 245.249 333.713 246.818 331.839 248.389C328.662 251.052 325.481 253.714 322.298 256.375C321.166 246.825 320.462 237.462 319.331 227.913L319.363 227.908C324.129 224.641 328.441 220.757 332.186 216.356C332.636 215.836 333.069 215.31 333.497 214.778C336.313 211.259 338.846 207.207 339.059 202.708Z" fill="#FF6900"/>
<path d="M338.986 200.931C339.061 201.519 339.085 202.113 339.058 202.704C338.845 207.203 336.312 211.254 333.498 214.773C333.07 215.305 332.637 215.831 332.187 216.351C332.197 208.445 332.156 200.549 332.063 192.664C335.87 193.293 338.494 197.034 338.986 200.931Z" fill="#FF6900"/>
<path d="M341.387 31.9369C339.881 31.3689 338.345 30.8879 336.784 30.4961C378.311 39.2708 414.908 48.1602 456.592 56.9359C462.73 58.2266 469.358 59.8049 473.354 64.6389C477.17 69.2573 477.63 75.6989 477.914 81.6828C482.72 182.467 486.231 283.301 488.447 384.186C488.529 387.843 488.52 391.794 486.361 394.748C483.364 398.848 477.55 399.388 472.471 399.556C420.809 401.263 367.464 403.573 315.748 405.295C324.289 404.012 332.808 402.154 338.368 395.467C342.882 389.73 345.271 383.374 346.609 376.442C348.441 370.603 355.766 304.812 356.091 296.23C360.136 231.926 357.705 168.451 356.922 103.965C356.978 88.3899 359.153 73.4307 358.132 57.8171C356.93 47.0274 351.952 36.634 341.387 31.9369Z" fill="#EAEAEA"/>
<path d="M271.509 141.943C271.911 142.543 272.247 143.308 271.953 143.974C271.773 144.271 271.526 144.523 271.232 144.706C270.937 144.89 270.604 145.002 270.258 145.032C269.2 145.232 268.112 145.221 267.059 144.998C266.005 144.776 265.006 144.347 264.119 143.737C262.56 142.646 261.144 140.75 261.592 139.408C261.81 138.755 262.459 138.237 263.735 137.996C266.571 137.469 270.026 139.7 271.509 141.943Z" fill="#FF6900"/>
<path d="M261.593 139.41C261.144 140.752 262.561 142.648 264.12 143.739C265.007 144.349 266.006 144.777 267.06 145C268.114 145.222 269.201 145.234 270.259 145.034C270.605 145.003 270.938 144.892 271.233 144.708C271.527 144.524 271.774 144.273 271.953 143.976L272.009 143.999C269.423 149.434 266.762 154.88 264.026 160.338C257.159 174.016 249.833 187.63 242.108 200.706C241.184 202.277 240.252 203.841 239.31 205.397C237.915 206.601 235.562 205.207 235.174 203.402C234.851 201.87 235.43 200.335 236.129 198.894C236.251 198.641 236.379 198.396 236.506 198.146C244 183.662 250.687 168.775 256.537 153.553C258.315 148.872 259.983 144.151 261.542 139.391L261.593 139.41Z" fill="#FF6900"/>
<path d="M251.662 307.962C252.394 309.338 251.446 311.112 250.515 312.441C249.458 313.937 248.385 315.465 246.931 316.576C244.548 318.392 239.616 318.533 239.401 315.27C239.385 314.873 239.422 314.475 239.512 314.088C240.224 310.886 244.395 307.961 247.278 307.012C248.736 306.535 250.635 306.458 251.517 307.715C251.571 307.794 251.619 307.876 251.662 307.962Z" fill="#FF6900"/>
<path d="M239.511 314.089C239.42 314.477 239.382 314.874 239.4 315.272L239.329 315.28C238.791 310.78 238.255 306.239 237.722 301.656C235.594 283.383 233.504 264.67 231.357 246.611C231.239 245.618 231.12 244.631 231.002 243.644L231.014 243.617C231.207 243.018 231.572 242.49 232.064 242.097C232.555 241.703 233.151 241.464 233.778 241.407C235.021 241.32 236.254 241.693 237.24 242.456L237.229 242.471C237.645 243.97 238.055 245.472 238.46 246.977C242.738 262.818 246.52 279.113 249.516 295.325C250.296 299.544 251.022 303.752 251.692 307.949L251.659 307.964C251.616 307.879 251.567 307.796 251.512 307.717C250.63 306.458 248.731 306.537 247.274 307.014C244.394 307.962 240.222 310.888 239.511 314.089Z" fill="#FF6900"/>
<path d="M227.98 378.893C226.548 382.072 224.759 385.079 222.65 387.855C220.323 390.797 217.224 393.269 213.581 394.162C207.991 395.535 202.3 393.047 196.573 392.207C195.028 391.959 193.46 391.887 191.898 391.993C195.119 391.087 198.059 389.383 200.447 387.039C202.834 384.695 204.591 381.786 205.554 378.582C213.038 378.732 220.513 378.836 227.98 378.893Z" fill="url(#paint0_linear_3030_1179)"/>
<path d="M237.243 242.455C236.257 241.692 235.024 241.319 233.78 241.406C233.153 241.463 232.556 241.703 232.064 242.097C231.573 242.49 231.207 243.02 231.015 243.619L231.004 243.646C231.122 244.633 231.24 245.62 231.358 246.613L231.212 246.629C227.104 246.474 222.995 246.32 218.887 246.168L218.891 246.05C219.621 246.079 220.352 246.029 221.072 245.902C225.425 245.117 228.762 241.552 231.032 237.76C233.823 233.002 235.472 227.661 235.85 222.159C236.228 216.655 235.325 211.139 233.211 206.044C231.504 202.02 227.699 196.978 223.205 196.211V196.195C227.45 196.882 231.672 197.735 235.83 198.838L236.124 198.897C235.425 200.338 234.846 201.873 235.169 203.406C235.557 205.209 237.91 206.604 239.304 205.401C240.244 203.846 241.177 202.282 242.103 200.71C243.206 201.074 244.294 201.453 245.385 201.854C258.256 213.031 254.822 232.777 247.859 246.477C244.003 246.884 242.302 246.675 238.715 246.915L238.46 246.981C238.053 245.478 237.643 243.976 237.229 242.475L237.243 242.455Z" fill="#FF6900"/>
<path d="M213.197 70.1392C216.456 69.6127 219.666 73.0862 218.884 76.2954L218.946 76.7942C215.028 77.2907 211.115 77.8105 207.209 78.3536C207.428 76.7443 207.911 75.1821 208.635 73.7291C209.243 72.5753 210.138 71.5989 211.235 70.894C211.725 70.7288 212.199 70.5182 212.65 70.2655C212.83 70.2129 213.013 70.1708 213.197 70.1392Z" fill="#FF6900"/>
<path d="M205.555 378.583C204.591 381.786 202.834 384.695 200.447 387.04C198.06 389.384 195.12 391.088 191.899 391.993C193.46 391.888 195.029 391.96 196.574 392.208L196.553 392.341C195.345 395.32 191.542 396.32 188.336 396.58C185.129 396.841 181.963 395.915 178.883 395.009C174.245 393.635 169.607 392.264 164.97 390.894C174.264 390.73 183.254 385.951 188.339 378.184C194.086 378.342 199.825 378.475 205.555 378.583Z" fill="url(#paint1_linear_3030_1179)"/>
<path d="M204.812 213.492L205.272 213.526C204.616 215.437 204.151 217.407 203.884 219.409L188.012 216.794L167.711 213.447C165.592 213.093 163.144 212.505 162.261 210.55C161.25 208.315 163.135 205.631 165.468 204.875C167.801 204.12 170.34 204.727 172.718 205.332C178.145 206.714 183.571 208.094 188.998 209.473C194.266 210.81 199.538 212.15 204.812 213.492Z" fill="#FF6900"/>
<path d="M191.52 80.613C191.533 80.5387 191.552 80.4639 191.571 80.3913C192.077 78.3913 192.743 76.3913 194.148 74.905C196.38 72.5399 199.911 72.0289 203.163 71.8726C205.773 71.7513 208.737 71.7618 211.236 70.8945C210.139 71.5989 209.243 72.5759 208.636 73.7296C207.911 75.1827 207.429 76.7449 207.209 78.3542C207.147 78.7332 207.09 79.1123 207.038 79.4863C206.097 86.0576 205.94 92.7171 206.571 99.3255C200.667 99.2097 194.764 99.5555 188.914 100.36C189.074 93.8531 189.911 87.381 191.412 81.0474C191.444 80.9006 191.482 80.7565 191.52 80.613Z" fill="#FF6900"/>
<path d="M191.555 80.3847L191.571 80.3903C191.552 80.4651 191.533 80.5399 191.52 80.6119C185.08 81.5817 178.647 82.6008 172.222 83.6682L172.219 83.636C171.186 76.1548 164.067 68.8198 156.519 68.7167C161.234 65.9387 165.732 62.8082 169.974 59.3513C172.87 58.9512 175.82 59.2078 178.603 60.1028C181.387 60.9972 183.933 62.5073 186.054 64.52C190.251 68.5715 192.188 74.5915 191.555 80.3847Z" fill="#FF6900"/>
<path d="M89.9459 78.4832C89.9703 84.8295 89.5668 91.1708 88.7389 97.4628C82.5804 101.216 75.0399 103.186 68.0374 101.443C61.035 99.7011 54.4171 93.7355 53.8081 86.5469C58.4276 82.5258 62.3888 77.8054 65.5476 72.5586C66.933 77.9451 69.7526 83.2296 75.0632 84.6876C80.3737 86.1456 87.0088 83.1365 89.9459 78.4832Z" fill="#FF6900"/>
<path d="M45.2387 227.078C44.5321 227.862 43.9835 228.582 43.0592 228.327C42.8131 228.247 42.5854 228.12 42.3886 227.952C42.1919 227.784 42.0301 227.579 41.9126 227.349C41.7951 227.118 41.7242 226.867 41.7037 226.61C41.6837 226.352 41.7142 226.092 41.794 225.846C42.0633 225.115 42.7422 224.631 43.2221 224.009C45.6726 220.858 42.2207 215.71 44.4878 212.423C45.4853 210.982 47.3207 210.382 49.0503 210.095C50.7798 209.809 52.5969 209.736 54.1746 208.963C55.4841 208.313 56.5271 207.228 57.1267 205.895C57.5318 204.975 57.744 203.92 58.4789 203.235C59.2137 202.549 60.7404 202.671 60.8906 203.665C60.9709 204.232 60.5625 204.812 60.7354 205.356C61.0086 206.22 62.4024 206.01 62.9144 205.261C63.4265 204.512 63.447 203.535 63.8327 202.717C64.2184 201.899 65.3588 201.266 66.0011 201.908C66.4356 202.343 66.3336 203.065 66.1446 203.648C65.9557 204.232 65.7168 204.872 65.9584 205.44C66.1801 205.954 67.0507 206.105 67.2929 205.668C67.3932 205.101 67.596 204.556 67.8908 204.061C68.0759 203.741 68.3452 203.478 68.6689 203.3C68.9931 203.122 69.3599 203.036 69.729 203.051C70.6966 203.162 71.3134 204.185 71.4646 205.152C71.9119 207.957 69.7218 210.607 67.1421 211.783C66.4927 212.076 65.8188 212.311 65.1283 212.485C63.094 213.021 60.9299 213.138 58.8302 213.402C56.0134 213.752 53.053 214.478 51.1107 216.548C48.5803 219.25 48.5288 223.454 49.3429 227.067C49.3983 227.311 49.4581 227.56 49.5185 227.804L49.3617 227.846C49.3745 228.457 49.2154 229.059 48.9034 229.584C48.5909 230.109 48.1376 230.535 47.5945 230.815C47.0181 231 46.3964 230.988 45.8272 230.78C45.2581 230.573 44.7749 230.182 44.4523 229.67C43.9602 228.78 44.6258 227.796 45.2387 227.078Z" fill="#EAEAEA"/>
<path d="M43.7196 411.656C38.9881 415.753 35.779 419.082 31.6307 422.817C21.2196 422.568 11.193 422.94 0.805176 423.637C4.52369 420.195 8.06548 416.566 11.4169 412.765C22.2603 412.348 32.8803 412.073 43.7196 411.656Z" fill="url(#paint2_linear_3030_1179)"/>
<path d="M62.6829 237.09C61.9869 235.329 61.379 233.076 62.7345 231.758C63.3701 231.143 64.2922 230.915 64.9838 230.366C66.2523 229.356 66.4712 227.543 66.5167 225.923C66.6441 221.404 66.1781 216.888 65.1313 212.49C65.1263 212.479 65.1268 212.469 65.1213 212.457" stroke="#EAEAEA" stroke-width="1.61041" stroke-linecap="round" stroke-linejoin="round"/>
<path d="M51.7693 237.886V237.875C51.674 234.428 50.3529 231.161 49.5177 227.81C49.4573 227.566 49.3975 227.317 49.3421 227.073C48.528 223.459 48.5795 219.255 51.1099 216.553C53.0494 214.483 56.0126 213.757 58.8294 213.408C60.9291 213.143 63.0932 213.026 65.1275 212.491C65.8185 212.317 66.4924 212.082 67.1413 211.788C69.721 210.613 71.9111 207.962 71.4638 205.158C71.3126 204.19 70.6958 203.168 69.7282 203.056C69.3591 203.041 68.9928 203.127 68.6686 203.305C68.3444 203.483 68.0757 203.746 67.89 204.066C67.5952 204.561 67.3929 205.106 67.2921 205.673C67.2538 205.833 67.2206 205.992 67.1879 206.152" stroke="#EAEAEA" stroke-width="1.61041" stroke-linecap="round" stroke-linejoin="round"/>
<path d="M45.4299 226.856C45.3678 226.924 45.3063 226.996 45.2387 227.078C44.5321 227.862 43.9835 228.582 43.0592 228.327C42.8131 228.247 42.5854 228.12 42.3886 227.952C42.1919 227.784 42.0301 227.579 41.9126 227.349C41.7951 227.118 41.7242 226.867 41.7037 226.61C41.6837 226.352 41.7142 226.092 41.794 225.846C42.0633 225.115 42.7422 224.631 43.2221 224.009C45.6726 220.858 42.2207 215.71 44.4878 212.423C45.4853 210.982 47.3207 210.382 49.0503 210.095C50.7798 209.809 52.5969 209.736 54.1746 208.963C55.4841 208.313 56.5271 207.228 57.1267 205.895C57.5318 204.975 57.744 203.92 58.4789 203.235C59.2137 202.549 60.7404 202.671 60.8906 203.665C60.9709 204.232 60.5625 204.812 60.7354 205.356C61.0086 206.22 62.4024 206.01 62.9144 205.261C63.4265 204.512 63.447 203.535 63.8327 202.717C64.2184 201.899 65.3588 201.266 66.0011 201.908C66.4356 202.343 66.3336 203.065 66.1446 203.648C65.9557 204.232 65.7168 204.872 65.9584 205.44C66.1801 205.954 67.0507 206.105 67.2929 205.668C67.3156 205.624 67.3317 205.578 67.3411 205.53" stroke="#EAEAEA" stroke-width="1.61041" stroke-linecap="round" stroke-linejoin="round"/>
<path d="M49.3624 227.852C49.3751 228.462 49.2161 229.064 48.9035 229.589C48.591 230.114 48.1377 230.54 47.5951 230.82C47.0182 231.005 46.3965 230.993 45.8279 230.786C45.2588 230.578 44.775 230.188 44.453 229.675C43.9604 228.781 44.6265 227.796 45.2388 227.078" stroke="#EAEAEA" stroke-width="1.61041" stroke-linecap="round" stroke-linejoin="round"/>
<path d="M63.269 217.067C61.5511 216.821 59.7994 217.08 58.2261 217.81C59.2252 220.776 59.9196 223.837 60.2976 226.944C59.6381 227.199 58.9199 227.258 58.2283 227.113" stroke="#EAEAEA" stroke-width="1.61041" stroke-linecap="round" stroke-linejoin="round"/>
<path d="M60.9111 221.156C61.2087 221.033 61.5324 220.988 61.8516 221.023C62.1713 221.059 62.4767 221.175 62.7399 221.359" stroke="#EAEAEA" stroke-width="1.61041" stroke-linecap="round" stroke-linejoin="round"/>
<path d="M55.3125 221.345C54.9944 221.131 54.6126 221.034 54.2318 221.07C53.8506 221.106 53.4937 221.271 53.221 221.54C53.1739 221.516 53.2089 221.432 53.2571 221.444" stroke="#EAEAEA" stroke-width="1.61041" stroke-linecap="round" stroke-linejoin="round"/>
<path d="M57.5983 231.772C57.2885 231.961 56.9327 232.062 56.5703 232.063C56.2073 232.065 55.851 231.966 55.5401 231.78C55.2292 231.593 54.9748 231.325 54.8053 231.005C54.6357 230.684 54.557 230.323 54.5781 229.961" stroke="#EAEAEA" stroke-width="1.61041" stroke-linecap="round" stroke-linejoin="round"/>
<path d="M47.9244 241.113C47.9222 240.768 47.941 240.423 47.9798 240.079C48.0064 239.725 48.1128 239.38 48.2907 239.072C48.4691 238.765 48.7141 238.501 49.0083 238.301C49.5126 238.055 50.0679 237.933 50.6282 237.943L51.7692 237.874C55.409 237.652 59.0482 237.432 62.6863 237.213C62.8957 237.205 63.1002 237.191 63.3103 237.177C64.2579 237.122 65.3219 237.103 66.0063 237.757C66.6752 238.395 66.7267 239.434 66.7356 240.358C66.7389 241.104 66.6735 241.989 66.0406 242.384C65.9963 242.414 65.9487 242.439 65.8988 242.459C65.5436 242.584 65.1656 242.63 64.7904 242.594C61.5497 242.514 58.3067 242.433 55.0615 242.35C53.4411 242.31 51.8207 242.268 50.1992 242.224C49.7559 242.213 48.5118 242.397 48.1904 242.084C47.9986 241.798 47.905 241.457 47.9244 241.113Z" stroke="#EAEAEA" stroke-width="1.61041" stroke-linecap="round" stroke-linejoin="round"/>
<path d="M65.9189 242.54C65.9239 242.54 65.9239 242.535 65.9295 242.536C75.8601 239.168 84.693 232.998 92.1122 225.578C97.8849 219.664 103.032 213.17 107.472 206.2C108.699 204.329 109.889 202.437 111.044 200.523C111.816 200.998 112.565 201.504 113.285 202.053C116.924 204.792 119.852 208.366 121.819 212.474C121.824 212.48 121.824 212.49 121.829 212.496C122.679 214.285 123.349 216.308 122.826 218.222C122.353 219.94 121.014 221.253 119.723 222.477C115.172 226.774 110.527 231.003 105.754 235.065C94.9523 244.264 83.4694 252.613 70.8012 258.918" stroke="#EAEAEA" stroke-width="1.61041" stroke-linecap="round" stroke-linejoin="round"/>
<path d="M47.8285 241.121C38.2209 247.332 31.6965 257.49 27.7924 268.24C23.8883 278.99 22.3488 290.438 20.8398 301.779C21.5337 301.757 22.2253 301.74 22.9157 301.718L33.859 301.391C34.3218 301.377 34.7895 301.362 35.2522 301.347" stroke="#EAEAEA" stroke-width="1.61041" stroke-linecap="round" stroke-linejoin="round"/>
<path d="M35.2515 301.348C35.3446 299.298 35.5031 297.254 35.7247 295.221C37.3512 279.717 42.6429 264.821 51.1633 251.766" stroke="#EAEAEA" stroke-width="1.61041" stroke-linecap="round" stroke-linejoin="round"/>
<path d="M35.7573 295.22C46.5514 294.998 56.875 294.865 67.669 294.645C68.4787 294.654 69.2877 294.582 70.0835 294.43C70.6942 294.311 71.2728 294.064 71.7809 293.705C73.5543 292.391 73.6839 289.834 73.6064 287.635C73.2556 278.028 71.9677 268.483 70.4044 258.984C69.9339 256.093 69.4412 253.207 68.927 250.328" stroke="#EAEAEA" stroke-width="1.61041" stroke-linecap="round" stroke-linejoin="round"/>
<path d="M33.8609 301.453C35.8182 303.054 37.3034 305.156 38.1584 307.535C38.3962 308.2 38.5463 309.031 38.0509 309.53C37.4092 310.162 36.3258 309.691 35.622 309.132C34.763 308.447 33.99 307.66 33.3205 306.789C32.9402 306.297 32.5954 305.778 32.2886 305.238C32.2631 305.199 32.2438 305.156 32.2183 305.111" stroke="#EAEAEA" stroke-width="1.61041" stroke-linecap="round" stroke-linejoin="round"/>
<path d="M24.9253 313.316C24.9386 313.241 24.9524 313.166 24.9663 313.094C25.3919 310.505 25.7107 307.9 25.9228 305.277" stroke="#EAEAEA" stroke-width="1.61041" stroke-linecap="round" stroke-linejoin="round"/>
<path d="M22.9188 301.762C21.901 306.218 21.4129 310.779 21.4647 315.35C21.473 316.114 21.6409 317.068 22.3807 317.26C22.6776 317.289 22.9767 317.23 23.2401 317.09C23.5034 316.95 23.7193 316.735 23.8603 316.472C24.4377 315.523 24.8006 314.458 24.9238 313.354" stroke="#EAEAEA" stroke-width="1.61041" stroke-linecap="round" stroke-linejoin="round"/>
<path d="M25.0597 312.319C24.9993 312.644 24.9539 312.98 24.9256 313.313V313.351C24.8665 314.19 24.9156 315.033 25.0719 315.859C25.0861 316.08 25.1514 316.295 25.2625 316.486C25.3737 316.678 25.5277 316.841 25.7125 316.963C25.8968 317.032 26.0972 317.046 26.2893 317.004C26.4815 316.961 26.6574 316.865 26.7959 316.725C27.0676 316.44 27.2717 316.097 27.3928 315.722C27.8957 314.423 28.2529 313.074 28.4579 311.696C28.7469 309.605 28.9074 307.498 28.9383 305.387" stroke="#EAEAEA" stroke-width="1.61041" stroke-linecap="round" stroke-linejoin="round"/>
<path d="M28.4889 311.695V311.701C28.4212 313.083 28.4857 314.468 28.6818 315.838C28.6829 316.082 28.739 316.323 28.846 316.543C28.9529 316.763 29.108 316.956 29.2996 317.108C29.5149 317.202 29.7542 317.227 29.9843 317.179C30.2144 317.131 30.4238 317.012 30.5831 316.839C30.8918 316.484 31.1106 316.059 31.221 315.601C32.2484 312.282 32.2539 308.744 32.2462 305.262" stroke="#EAEAEA" stroke-width="1.61041" stroke-linecap="round" stroke-linejoin="round"/>
<path d="M33.2706 306.828C34.4505 333.558 33.6258 360.459 31.5737 387.136" stroke="#EAEAEA" stroke-width="1.61041" stroke-linecap="round" stroke-linejoin="round"/>
<path d="M31.5737 387.141C32.1134 387.564 32.6864 387.943 33.2872 388.274C36.2654 389.958 39.7583 390.489 43.1022 389.766C46.446 389.043 49.408 387.116 51.4241 384.352C51.5715 384.148 51.7134 383.944 51.8502 383.734" stroke="#EAEAEA" stroke-width="1.61041" stroke-linecap="round" stroke-linejoin="round"/>
<path d="M53.5844 311C53.508 335.297 52.9156 359.462 51.8516 383.733" stroke="#EAEAEA" stroke-width="1.61041" stroke-linecap="round" stroke-linejoin="round"/>
<path d="M53.9834 310.934C58.1114 335.613 59.4098 360.683 57.8531 385.657" stroke="#EAEAEA" stroke-width="1.61041" stroke-linecap="round" stroke-linejoin="round"/>
<path d="M70.0698 294.371C70.0737 294.392 70.0787 294.409 70.0837 294.43C77.7356 323.908 80.3081 354.473 77.6896 384.815" stroke="#EAEAEA" stroke-width="1.61041" stroke-linecap="round" stroke-linejoin="round"/>
<path d="M77.6901 384.812C77.5792 384.91 77.4684 385.009 77.3509 385.1C75.2008 386.89 72.6483 388.131 69.9134 388.717C67.1781 389.303 64.3413 389.216 61.6469 388.464C60.8639 388.249 60.1174 387.92 59.4303 387.489C58.7232 387.063 58.1718 386.422 57.8564 385.66" stroke="#EAEAEA" stroke-width="1.61041" stroke-linecap="round" stroke-linejoin="round"/>
<path d="M105.818 235.145C104.008 272.182 102.05 309.708 99.6045 346.935" stroke="#EAEAEA" stroke-width="1.61041" stroke-linecap="round" stroke-linejoin="round"/>
<path d="M99.6046 346.936C98.6143 357.921 98.2081 368.648 101.556 379.518C104.49 387.148 109.054 394.304 116.421 398.343C127.481 404.133 139.818 404.6 152.175 404.531C158.632 404.238 164.552 403.925 170.989 404.169C204.821 404.375 238.592 406.191 272.402 406.933C282.076 406.763 291.215 406.571 300.89 406.4L315.433 405.339C315.536 405.322 315.643 405.31 315.746 405.292C324.287 404.009 332.807 402.151 338.367 395.465C342.881 389.726 345.27 383.371 346.607 376.439C348.44 370.6 355.764 304.809 356.09 296.227C360.135 231.923 357.704 168.448 356.921 103.962C356.973 88.3867 359.151 73.4275 358.131 57.8138C356.928 47.0253 351.95 36.6314 341.385 31.9342C339.88 31.3662 338.343 30.8852 336.782 30.4934C331.82 29.2554 326.673 28.9445 321.598 29.5752C267.678 35.0537 217.075 37.9725 162.515 46.1132C156.575 46.9621 151.17 47.8311 145.724 49.7751C139.166 52.7493 132.587 56.2588 127.537 61.9778C125.826 64.599 123.599 66.6633 122.425 69.3045C121.251 71.9456 120.077 74.5873 118.902 77.2291C117.07 83.0683 115.794 88.3911 114.498 94.2503C113.685 99.2101 113.137 104.21 112.857 109.228C110.566 141.37 109.327 174.089 107.33 206.118" stroke="#EAEAEA" stroke-width="1.61041" stroke-linecap="round" stroke-linejoin="round"/>
<path d="M334.818 30.0742C335.474 30.2117 336.13 30.3513 336.785 30.4921C378.312 39.2673 414.909 48.1561 456.592 56.9325C462.731 58.2226 469.358 59.8008 473.354 64.6354C477.17 69.2538 477.63 75.6954 477.914 81.6793C482.72 182.464 486.231 283.298 488.448 384.182C488.529 387.84 488.52 391.79 486.361 394.744C483.364 398.845 477.55 399.384 472.472 399.552C420.81 401.259 367.464 403.57 315.748 405.292C314.904 405.324 314.065 405.351 313.22 405.379" stroke="#EAEAEA" stroke-width="1.61041" stroke-linecap="round" stroke-linejoin="round"/>
<path d="M113.337 201.984C114.47 198.315 114.491 194.465 115.746 190.838C116.289 189.269 118.55 186.443 119.928 187.376C121.284 188.303 119.065 193.145 118.475 197.087C118.253 198.566 118.261 199.92 118.777 200.89" stroke="#EAEAEA" stroke-width="1.61041" stroke-linecap="round" stroke-linejoin="round"/>
<path d="M118.506 197.093C121.182 192.729 124.09 188.511 127.218 184.458C127.542 183.984 127.948 183.574 128.419 183.246C128.654 183.062 128.939 182.953 129.237 182.936C129.535 182.919 129.831 182.994 130.086 183.15C130.34 183.307 130.539 183.538 130.658 183.813C130.776 184.086 130.807 184.391 130.747 184.683C130.662 185.273 130.465 185.841 130.168 186.358C128.14 190.287 125.805 194.049 123.185 197.61C122.76 198.207 122.331 198.798 121.898 199.384" stroke="#EAEAEA" stroke-width="1.61041" stroke-linecap="round" stroke-linejoin="round"/>
<path d="M121.852 199.385C122.282 198.779 122.729 198.188 123.182 197.604C125.632 194.522 128.296 191.617 131.154 188.909C131.461 188.608 131.773 188.309 132.085 188.014C132.861 187.276 134.059 186.526 134.887 187.201C135.7 187.866 135.242 189.17 134.698 190.073C132.53 193.703 129.7 196.937 126.836 200.078C126.343 200.618 125.855 201.152 125.363 201.685" stroke="#EAEAEA" stroke-width="1.61041" stroke-linecap="round" stroke-linejoin="round"/>
<path d="M125.294 201.683C125.792 201.132 126.307 200.598 126.837 200.082C128.665 198.281 130.658 196.655 132.789 195.226C133.439 194.793 134.213 194.356 134.957 194.588C135.353 194.759 135.677 195.061 135.875 195.443C136.073 195.825 136.133 196.265 136.043 196.686C135.843 197.526 135.433 198.301 134.852 198.94C133.407 200.792 131.859 202.56 130.245 204.271C127.565 207.113 124.718 209.799 121.872 212.479C122.053 212.373 122.234 212.267 122.41 212.161" stroke="#EAEAEA" stroke-width="1.61041" stroke-linecap="round" stroke-linejoin="round"/>
<path d="M223.208 196.207C221.641 195.942 220.031 196.22 218.644 196.996C212.659 200.196 207.782 206.704 205.476 212.956C205.404 213.146 205.338 213.332 205.273 213.523C204.618 215.433 204.153 217.404 203.887 219.406C203.197 224.494 203.784 229.674 205.594 234.479C206.835 237.733 208.683 240.832 211.366 243.05C213.486 244.838 216.128 245.889 218.897 246.048C219.627 246.076 220.358 246.027 221.077 245.9C225.431 245.114 228.768 241.55 231.038 237.758C233.829 233 235.478 227.659 235.856 222.156C236.234 216.652 235.33 211.137 233.216 206.042C231.506 202.017 227.701 196.974 223.208 196.207Z" stroke="#EAEAEA" stroke-width="1.61041" stroke-linecap="round" stroke-linejoin="round"/>
<path d="M238.718 246.913C242.305 246.672 244.005 246.881 247.862 246.474C254.826 232.772 258.259 213.028 245.388 201.852" stroke="#EAEAEA" stroke-width="1.61041" stroke-linecap="round" stroke-linejoin="round"/>
<path d="M218.453 246.152L218.888 246.169C222.996 246.325 227.105 246.478 231.213 246.63" stroke="#EAEAEA" stroke-width="1.61041" stroke-linecap="round" stroke-linejoin="round"/>
<path d="M242.069 200.695C242.079 200.701 242.096 200.701 242.106 200.707C243.209 201.072 244.297 201.451 245.388 201.852" stroke="#EAEAEA" stroke-width="1.61041" stroke-linecap="round" stroke-linejoin="round"/>
<path d="M222.375 196.059C222.653 196.102 222.93 196.144 223.207 196.192C227.451 196.879 231.673 197.732 235.832 198.835" stroke="#EAEAEA" stroke-width="1.61041" stroke-linecap="round" stroke-linejoin="round"/>
<path d="M237.231 242.473C237.648 243.971 238.058 245.473 238.463 246.978C242.74 262.819 246.523 279.114 249.518 295.326C250.299 299.545 251.024 303.753 251.694 307.95" stroke="#EAEAEA" stroke-width="1.61041" stroke-linecap="round" stroke-linejoin="round"/>
<path d="M231.005 243.645C231.124 244.632 231.242 245.619 231.36 246.612C233.507 264.671 235.597 283.384 237.725 301.657C238.255 306.232 238.791 310.773 239.332 315.281C239.337 315.313 239.341 315.346 239.345 315.378" stroke="#EAEAEA" stroke-width="1.61041" stroke-linecap="round" stroke-linejoin="round"/>
<path d="M239.401 315.275C239.616 318.538 244.547 318.398 246.93 316.581C248.385 315.472 249.458 313.942 250.514 312.446C251.445 311.116 252.393 309.343 251.661 307.967C251.618 307.881 251.569 307.798 251.514 307.719C250.632 306.461 248.733 306.54 247.276 307.016C244.394 307.965 240.222 310.89 239.51 314.092C239.42 314.479 239.383 314.878 239.401 315.275Z" stroke="#EAEAEA" stroke-width="1.61041" stroke-linecap="round" stroke-linejoin="round"/>
<path d="M239.307 205.398C240.247 203.843 241.18 202.279 242.105 200.707C249.83 187.628 257.156 174.016 264.023 160.338C266.759 154.893 269.42 149.447 272.006 143.999C272.035 143.944 272.064 143.878 272.093 143.82" stroke="#EAEAEA" stroke-width="1.61041" stroke-linecap="round" stroke-linejoin="round"/>
<path d="M261.624 139.125C261.595 139.215 261.569 139.3 261.539 139.39C259.984 144.149 258.315 148.87 256.534 153.553C250.683 168.775 243.995 183.662 236.501 198.145C236.373 198.393 236.246 198.641 236.123 198.894C235.425 200.334 234.845 201.869 235.169 203.402C235.556 205.206 237.91 206.6 239.304 205.397" stroke="#EAEAEA" stroke-width="1.61041" stroke-linecap="round" stroke-linejoin="round"/>
<path d="M261.593 139.408C261.145 140.75 262.561 142.646 264.12 143.737C265.007 144.347 266.006 144.776 267.06 144.998C268.113 145.221 269.2 145.232 270.259 145.032C270.605 145.002 270.938 144.89 271.233 144.706C271.527 144.523 271.774 144.271 271.954 143.974C272.247 143.309 271.911 142.543 271.51 141.943C270.027 139.7 266.572 137.469 263.737 137.996C262.459 138.237 261.811 138.755 261.593 139.408Z" stroke="#EAEAEA" stroke-width="1.61041" stroke-linecap="round" stroke-linejoin="round"/>
<path d="M204.811 213.489C199.538 212.15 194.268 210.81 188.999 209.468C183.572 208.087 178.146 206.706 172.719 205.328C170.341 204.723 167.807 204.116 165.469 204.871C163.131 205.626 161.251 208.31 162.262 210.546C163.145 212.502 165.593 213.089 167.712 213.443L188.013 216.79L203.883 219.405L204.001 219.425" stroke="#EAEAEA" stroke-width="1.61041" stroke-linecap="round" stroke-linejoin="round"/>
<path d="M249.702 295.289C256.427 289.769 261.559 281.906 265.618 274.002C272.005 261.353 275.731 248.067 277.868 234.181C279.347 223.494 279.217 212.745 278.852 201.785" stroke="#EAEAEA" stroke-width="1.61041" stroke-linecap="round" stroke-linejoin="round"/>
<path d="M187.992 216.926C185.601 245.188 187.601 277.496 211.564 297.202C218.849 303.386 229.02 304.308 237.623 301.669" stroke="#EAEAEA" stroke-width="1.61041" stroke-linecap="round" stroke-linejoin="round"/>
<path d="M256.408 153.509C250.941 149.633 244.465 146.734 237.65 146.847C230.899 146.962 224.69 150.353 219.363 154.26C208.556 162.203 200.436 173.659 195.413 186.007C192.43 193.527 190.289 201.354 189.029 209.345" stroke="#EAEAEA" stroke-width="1.61041" stroke-linecap="round" stroke-linejoin="round"/>
<path d="M278.854 201.786C277.49 187.436 274.325 171.739 264.235 160.445" stroke="#EAEAEA" stroke-width="1.61041" stroke-linecap="round" stroke-linejoin="round"/>
<path d="M125.118 335.461C124.865 348.805 124.639 362.149 124.322 375.496" stroke="#EAEAEA" stroke-width="1.61041" stroke-linecap="round" stroke-linejoin="round"/>
<path d="M130.246 204.109C130.243 204.163 130.243 204.216 130.246 204.27C129.821 228.684 127.842 252.726 126.796 277.078" stroke="#EAEAEA" stroke-width="1.61041" stroke-linecap="round" stroke-linejoin="round"/>
<path d="M132.398 168.281C132.01 175.121 131.566 181.953 131.025 188.78" stroke="#EAEAEA" stroke-width="1.61041" stroke-linecap="round" stroke-linejoin="round"/>
<path d="M137.501 89.9258V89.9313C136.759 96.6123 136.157 103.293 135.651 109.992" stroke="#EAEAEA" stroke-width="1.61041" stroke-linecap="round" stroke-linejoin="round"/>
<path d="M331.866 248.418C331.242 286.623 329.561 324.471 326.776 362.576C326.453 367.001 325.807 372.009 322.206 374.607C319.898 376.27 316.891 376.522 314.054 376.705C285.237 378.563 256.642 379.103 227.98 378.893C220.517 378.837 213.042 378.732 205.555 378.582C199.823 378.471 194.084 378.337 188.339 378.182C167.315 377.612 146.183 376.785 124.827 375.918" stroke="#EAEAEA" stroke-width="1.61041" stroke-linecap="round" stroke-linejoin="round"/>
<path d="M207.144 78.361C207.166 78.3571 207.187 78.3576 207.209 78.3532C211.119 77.8135 215.031 77.2936 218.946 76.7938C252.233 72.5106 285.659 69.547 319.223 67.9027C321.267 67.8024 323.509 67.7692 325.097 69.0543C326.879 70.5023 327.174 73.0648 327.334 75.3535C330.042 114.528 331.633 153.498 332.063 192.667C332.156 200.556 332.198 208.452 332.187 216.354C332.19 216.389 332.19 216.425 332.187 216.462" stroke="#EAEAEA" stroke-width="1.61041" stroke-linecap="round" stroke-linejoin="round"/>
<path d="M137.506 89.9303C149.049 87.6815 160.62 85.5945 172.222 83.6682C178.65 82.6014 185.082 81.5829 191.519 80.612C191.584 80.6042 191.649 80.5903 191.713 80.582" stroke="#EAEAEA" stroke-width="1.61041" stroke-linecap="round" stroke-linejoin="round"/>
<path d="M218.883 76.295C219.665 73.0858 216.456 69.6123 213.197 70.1393C213.012 70.1698 212.83 70.2113 212.649 70.2634C212.15 70.402 211.672 70.6137 211.235 70.8919C210.137 71.5962 209.242 72.5732 208.635 73.727C207.91 75.1805 207.428 76.7427 207.209 78.3515C207.145 78.7305 207.088 79.1096 207.037 79.4837C206.096 86.055 205.939 92.7149 206.57 99.3228C200.667 99.207 194.763 99.5528 188.913 100.357C188.887 100.357 188.862 100.36 188.837 100.365" stroke="#EAEAEA" stroke-width="1.61041" stroke-linecap="round" stroke-linejoin="round"/>
<path d="M188.912 100.386V100.359C189.072 93.8525 189.909 87.3798 191.41 81.0462C191.442 80.9027 191.48 80.7592 191.518 80.6151C191.532 80.5408 191.551 80.466 191.57 80.3934C192.075 78.3934 192.742 76.3934 194.146 74.9072C196.379 72.542 199.91 72.031 203.161 71.8748C205.772 71.7534 208.736 71.7639 211.235 70.8967C211.724 70.7315 212.198 70.5209 212.649 70.2682C212.764 70.2128 212.874 70.148 212.982 70.082" stroke="#EAEAEA" stroke-width="1.61041" stroke-linecap="round" stroke-linejoin="round"/>
<path d="M191.555 80.3846C192.188 74.5914 190.251 68.5715 186.053 64.5238C183.933 62.5111 181.386 61.0015 178.603 60.1071C175.819 59.2121 172.87 58.955 169.974 59.3551C165.732 62.812 161.233 65.943 156.519 68.7205C164.067 68.8236 171.186 76.1563 172.218 83.6398" stroke="#EAEAEA" stroke-width="1.61041" stroke-linecap="round" stroke-linejoin="round"/>
<path d="M331.946 192.645C331.984 192.652 332.026 192.658 332.064 192.665C335.87 193.292 338.495 197.034 338.986 200.93C339.062 201.518 339.086 202.112 339.059 202.704C338.845 207.202 336.313 211.253 333.499 214.772C333.071 215.304 332.637 215.83 332.188 216.35C328.443 220.751 324.131 224.635 319.364 227.902" stroke="#EAEAEA" stroke-width="1.61041" stroke-linecap="round" stroke-linejoin="round"/>
<path d="M319.319 227.797C319.323 227.834 319.328 227.872 319.332 227.908C320.463 237.458 321.167 246.82 322.299 256.37" stroke="#EAEAEA" stroke-width="1.61041" stroke-linecap="round" stroke-linejoin="round"/>
<path d="M322.299 256.373C325.476 253.711 328.657 251.049 331.84 248.387C333.715 246.82 335.59 245.251 337.465 243.68C339.206 242.22 340.988 240.714 342.1 238.731C344.047 235.244 343.592 230.967 343.076 227.005C341.961 218.427 340.311 209.518 339.154 200.912C339.103 200.556 339.057 200.2 339.012 199.844" stroke="#EAEAEA" stroke-width="1.61041" stroke-linecap="round" stroke-linejoin="round"/>
<path d="M205.667 378.184C205.63 378.317 205.592 378.449 205.556 378.583C204.593 381.786 202.835 384.695 200.448 387.04C198.061 389.384 195.121 391.087 191.9 391.993C193.462 391.888 195.03 391.96 196.575 392.208C202.302 393.048 207.991 395.533 213.582 394.162C217.226 393.269 220.322 390.797 222.652 387.856C224.761 385.079 226.549 382.073 227.982 378.894C228.045 378.768 228.104 378.635 228.168 378.509" stroke="#EAEAEA" stroke-width="1.61041" stroke-linecap="round" stroke-linejoin="round"/>
<path d="M188.521 377.914C188.466 378.008 188.401 378.097 188.339 378.187C183.254 385.954 174.264 390.734 164.971 390.897C169.607 392.271 174.245 393.642 178.883 395.012C181.964 395.918 185.136 396.844 188.336 396.583C191.536 396.323 195.345 395.323 196.554 392.345" stroke="#EAEAEA" stroke-width="1.61041" stroke-linecap="round" stroke-linejoin="round"/>
<path d="M88.7388 97.464C89.5667 91.172 89.9701 84.8312 89.9457 78.4844" stroke="#EAEAEA" stroke-width="1.61041" stroke-linecap="round" stroke-linejoin="round"/>
<path d="M88.7384 97.4628C82.5799 101.216 75.0394 103.186 68.0369 101.443C61.0345 99.7011 54.4166 93.7355 53.8076 86.5469" stroke="#EAEAEA" stroke-width="1.61041" stroke-linecap="round" stroke-linejoin="round"/>
<path d="M53.8076 86.5469C58.4272 82.5258 62.3883 77.8054 65.5471 72.5586" stroke="#EAEAEA" stroke-width="1.61041" stroke-linecap="round" stroke-linejoin="round"/>
<path d="M65.5479 72.5586C66.9333 77.9451 69.7529 83.2296 75.0634 84.6876C80.374 86.1456 87.0091 83.136 89.9461 78.481" stroke="#EAEAEA" stroke-width="1.61041" stroke-linecap="round" stroke-linejoin="round"/>
<path d="M126.784 277.372L128.801 277.448C129.332 277.468 129.853 277.592 130.336 277.813C130.818 278.035 131.252 278.349 131.613 278.738C131.974 279.128 132.254 279.584 132.439 280.082C132.623 280.58 132.707 281.109 132.687 281.639L130.803 331.361C130.783 331.892 130.659 332.413 130.437 332.895C130.215 333.378 129.901 333.812 129.512 334.173C129.122 334.533 128.666 334.814 128.168 334.998C127.671 335.183 127.141 335.268 126.611 335.247L125.125 335.192L122.068 335.076C121.538 335.056 121.016 334.932 120.534 334.711C120.051 334.489 119.617 334.175 119.257 333.785C118.896 333.396 118.615 332.94 118.43 332.442C118.246 331.944 118.162 331.415 118.182 330.884L120.066 281.163C120.086 280.632 120.21 280.111 120.431 279.629C120.653 279.146 120.967 278.712 121.356 278.351C121.746 277.99 122.203 277.71 122.7 277.525C123.198 277.341 123.727 277.256 124.257 277.276L126.784 277.372Z" stroke="#EAEAEA" stroke-width="1.61041" stroke-linecap="round" stroke-linejoin="round"/>
<path d="M135.634 110.177L138.61 110.44C139.678 110.535 140.664 111.05 141.353 111.872C142.042 112.693 142.377 113.755 142.285 114.823L137.937 164.393C137.89 164.921 137.74 165.436 137.495 165.906C137.249 166.377 136.913 166.794 136.507 167.135C136.099 167.476 135.629 167.733 135.123 167.892C134.617 168.051 134.084 168.109 133.556 168.062L132.426 167.965L129.026 167.664C128.498 167.618 127.983 167.469 127.513 167.223C127.042 166.978 126.625 166.643 126.284 166.236C125.943 165.83 125.686 165.36 125.527 164.854C125.368 164.348 125.31 163.815 125.357 163.287L129.699 113.717C129.793 112.649 130.307 111.662 131.129 110.973C131.951 110.284 133.013 109.949 134.081 110.043L135.634 110.177Z" stroke="#EAEAEA" stroke-width="1.61041" stroke-linecap="round" stroke-linejoin="round"/>
<path d="M31.6025 422.843L31.6308 422.817C35.7795 419.079 38.9887 415.753 43.7202 411.656" stroke="#EAEAEA" stroke-width="1.61041" stroke-linecap="round" stroke-linejoin="round"/>
<path d="M0.805176 423.638C4.52369 420.196 8.06548 416.567 11.4169 412.766" stroke="#EAEAEA" stroke-width="1.61041" stroke-linecap="round" stroke-linejoin="round"/>
<path d="M11.417 412.765C22.2615 412.348 32.8799 412.073 43.7195 411.656" stroke="#EAEAEA" stroke-width="1.61041" stroke-linecap="round" stroke-linejoin="round"/>
<path d="M0.805176 423.64C11.193 422.943 21.2196 422.571 31.6307 422.82H31.6678" stroke="#EAEAEA" stroke-width="1.61041" stroke-linecap="round" stroke-linejoin="round"/>
<path d="M33.2818 388.287C33.1926 390.357 33.2004 392.431 33.3046 394.497C33.2599 395.295 33.4919 396.083 33.9614 396.73C34.6009 397.431 35.6621 397.505 36.6114 397.534C43.9192 397.746 51.2497 398.206 58.5276 397.515C60.1718 397.357 61.9053 397.105 63.1859 396.063C63.473 395.84 63.7163 395.565 63.9036 395.253C64.061 395.002 64.1557 394.717 64.1807 394.422C64.2599 393.329 63.2984 392.476 62.4035 391.851C61.3677 391.125 60.2921 390.45 59.2103 389.786C56.5382 388.153 53.8261 386.572 51.5435 384.441" stroke="#EAEAEA" stroke-width="1.61041" stroke-linecap="round" stroke-linejoin="round"/>
<path d="M59.3898 387.555C59.3465 388.268 59.3033 388.986 59.2656 389.699" stroke="#EAEAEA" stroke-width="1.61041" stroke-linecap="round" stroke-linejoin="round"/>
<path d="M64.04 395.334C69.9142 395.717 75.7884 396.099 81.6625 396.479C82.9997 396.651 84.3575 396.565 85.6631 396.228C86.941 395.809 88.1092 394.763 88.2505 393.426C88.2787 392.958 88.2122 392.489 88.0554 392.048C87.8991 391.607 87.6547 391.201 87.3383 390.856C86.6994 390.171 85.9562 389.591 85.1366 389.138C82.6539 387.689 80.0898 386.383 77.4581 385.227" stroke="#EAEAEA" stroke-width="1.61041" stroke-linecap="round" stroke-linejoin="round"/>
<path d="M81.4536 391.236C82.0892 390.211 82.8739 389.284 83.7811 388.488" stroke="#EAEAEA" stroke-width="1.61041" stroke-linecap="round" stroke-linejoin="round"/>
<path d="M78.4717 390.119C79.1267 388.969 79.9059 387.894 80.7953 386.914" stroke="#EAEAEA" stroke-width="1.61041" stroke-linecap="round" stroke-linejoin="round"/>
<path d="M56.0034 392.678C56.7488 391.541 57.5906 390.472 58.5204 389.48" stroke="#EAEAEA" stroke-width="1.61041" stroke-linecap="round" stroke-linejoin="round"/>
<path d="M52.644 391.025C53.4803 389.809 54.4146 388.664 55.4376 387.602" stroke="#EAEAEA" stroke-width="1.61041" stroke-linecap="round" stroke-linejoin="round"/>
<path d="M231.015 243.621C231.208 243.022 231.573 242.494 232.064 242.1C232.556 241.707 233.152 241.468 233.778 241.411C235.022 241.324 236.255 241.697 237.241 242.46C237.262 242.472 237.277 242.483 237.293 242.494" stroke="#EAEAEA" stroke-width="1.61041" stroke-linecap="round" stroke-linejoin="round"/>
<path d="M57.074 242.441C57.5944 260.061 60.6506 277.572 57.0308 294.822" stroke="#EAEAEA" stroke-width="1.61041" stroke-linecap="round" stroke-linejoin="round"/>
<path d="M63.7676 242.508C64.2358 240.83 64.4298 239.088 64.3423 237.348" stroke="#EAEAEA" stroke-width="1.61041" stroke-linecap="round" stroke-linejoin="round"/>
<path d="M59.9751 242.616C60.041 240.891 60.1064 239.167 60.1713 237.441" stroke="#EAEAEA" stroke-width="1.61041" stroke-linecap="round" stroke-linejoin="round"/>
<path d="M55.6177 242.325C55.6543 240.852 55.6903 239.379 55.7246 237.906" stroke="#EAEAEA" stroke-width="1.61041" stroke-linecap="round" stroke-linejoin="round"/>
<path d="M51.2895 242.156C51.0834 240.774 51.085 239.369 51.2951 237.988" stroke="#EAEAEA" stroke-width="1.61041" stroke-linecap="round" stroke-linejoin="round"/>
<path d="M72.0928 372.367L73.9143 374.332" stroke="url(#paint3_linear_3030_1179)" stroke-width="1.61041" stroke-linecap="round" stroke-linejoin="round"/>
<path d="M66.6199 374.246L63.6235 377.024" stroke="url(#paint4_linear_3030_1179)" stroke-width="1.61041" stroke-linecap="round" stroke-linejoin="round"/>
<path d="M45.4431 380.268L43.166 377.812" stroke="url(#paint5_linear_3030_1179)" stroke-width="1.61041" stroke-linecap="round" stroke-linejoin="round"/>
<path d="M37.4512 373.52L35.1426 375.66" stroke="url(#paint6_linear_3030_1179)" stroke-width="1.61041" stroke-linecap="round" stroke-linejoin="round"/>
<path d="M25.9754 208.285L27.4944 211.031L30.6165 211.335L28.4747 213.628L29.1497 216.692L26.3073 215.364L23.6013 216.952L23.987 213.838L21.6401 211.756L24.7202 211.16L25.9754 208.285Z" stroke="#EAEAEA" stroke-width="1.61041" stroke-linecap="round" stroke-linejoin="round"/>
<path d="M47.2905 173.121L49.3647 176.871L53.6296 177.288L50.7041 180.419L51.6257 184.605L47.7432 182.79L44.048 184.959L44.574 180.707L41.3687 177.862L45.5759 177.048L47.2905 173.121Z" stroke="#EAEAEA" stroke-width="1.61041" stroke-linecap="round" stroke-linejoin="round"/>
<path d="M93.5184 266.497L89.5605 260.047" stroke="#EAEAEA" stroke-width="1.61041" stroke-linecap="round" stroke-linejoin="round"/>
<path d="M88.9053 265.899L94.1909 260.684" stroke="#EAEAEA" stroke-width="1.61041" stroke-linecap="round" stroke-linejoin="round"/>
<path d="M138.699 43.7154L134.771 30.6914" stroke="#EAEAEA" stroke-width="1.61041" stroke-linecap="round" stroke-linejoin="round"/>
<path d="M129.766 46.8057L92.332 8.82031" stroke="#EAEAEA" stroke-width="1.61041" stroke-linecap="round" stroke-linejoin="round"/>
<path d="M121.257 53.3205L110.76 48.3945" stroke="#EAEAEA" stroke-width="1.61041" stroke-linecap="round" stroke-linejoin="round"/>
<path d="M115.38 63.8355L57.2573 62.332" stroke="#EAEAEA" stroke-width="1.61041" stroke-linecap="round" stroke-linejoin="round"/>
<path d="M150.294 42.9643L162.226 0.804688" stroke="#EAEAEA" stroke-width="1.61041" stroke-linecap="round" stroke-linejoin="round"/>
<path d="M62.4081 84.8501L66.4828 83.8477C64.9511 86.2073 63.4194 88.5669 61.8877 90.926" stroke="#EAEAEA" stroke-width="1.61041" stroke-linecap="round" stroke-linejoin="round"/>
<path d="M68.1396 88.2766C67.6458 88.557 67.2169 88.9388 66.8816 89.3977C66.5463 89.856 66.3125 90.3808 66.1956 90.9366C66.0914 91.4952 66.149 92.0727 66.3618 92.5997C66.5746 93.1267 66.9337 93.5816 67.397 93.9114C68.6971 94.7554 70.5086 94.2383 71.658 93.1987C72.4853 92.4872 73.0212 91.4952 73.1631 90.4135C73.4823 87.1289 70.2981 86.9954 68.1396 88.2766Z" stroke="#EAEAEA" stroke-width="1.61041" stroke-linecap="round" stroke-linejoin="round"/>
<path d="M74.466 93.0742C74.5275 93.7608 74.8156 94.4075 75.2861 94.9118C75.7561 95.4155 76.3806 95.7486 77.0617 95.8578C79.9633 96.152 82.9951 91.5325 80.5829 89.3219C78.0764 87.0249 74.1861 90.151 74.466 93.0742Z" stroke="#EAEAEA" stroke-width="1.61041" stroke-linecap="round" stroke-linejoin="round"/>
<path d="M172.687 66.3008C174.839 66.4487 176.992 66.5962 179.145 66.7441L169.877 73.224" stroke="#EAEAEA" stroke-width="1.61041" stroke-linecap="round" stroke-linejoin="round"/>
<path d="M179.497 72.0972C177.943 72.2895 176.525 73.0809 175.545 74.3033C175.211 74.6741 174.966 75.1152 174.828 75.5946C174.69 76.0734 174.662 76.5776 174.747 77.0686C175.063 78.3061 176.371 79.0381 177.628 79.2626C178.502 79.4305 179.403 79.3989 180.262 79.17C181.122 78.9417 181.92 78.5222 182.595 77.9426C183.541 77.0825 184.797 74.8392 184.051 73.5186C183.341 72.2629 180.764 71.9465 179.497 72.0972Z" stroke="#EAEAEA" stroke-width="1.61041" stroke-linecap="round" stroke-linejoin="round"/>
<path d="M186.407 81.2003C185.073 80.3386 183.466 80.0033 181.898 80.2599C180.33 80.517 178.914 81.3477 177.925 82.5902" stroke="#EAEAEA" stroke-width="1.61041" stroke-linecap="round" stroke-linejoin="round"/>
<path d="M195.271 93.1075C193.974 92.4181 192.884 91.3962 192.112 90.1471L202.178 88.9961" stroke="#EAEAEA" stroke-width="1.61041" stroke-linecap="round" stroke-linejoin="round"/>
<path d="M201.496 84.0188C201.972 83.5478 202.321 82.9654 202.512 82.3242C202.605 82.0033 202.626 81.6664 202.575 81.3367C202.523 81.0069 202.4 80.6927 202.214 80.4156C202.005 80.1546 201.743 79.9407 201.446 79.7867C201.15 79.6326 200.824 79.5417 200.49 79.5207C199.822 79.4824 199.152 79.5672 198.514 79.77C196.767 80.2516 191.929 82.7891 194.17 85.1848C195.987 87.1222 200.008 85.5849 201.496 84.0188Z" stroke="#EAEAEA" stroke-width="1.61041" stroke-linecap="round" stroke-linejoin="round"/>
<path d="M206.321 74.09C204.897 73.5729 203.372 73.3989 201.868 73.5829C200.364 73.7669 198.925 74.3039 197.669 75.149C195.363 76.7295 199.971 76.9938 200.872 76.9267C201.927 76.8553 202.955 76.566 203.893 76.0778C204.831 75.5895 205.657 74.9129 206.321 74.09Z" stroke="#EAEAEA" stroke-width="1.61041" stroke-linecap="round" stroke-linejoin="round"/>
<path d="M328.16 232.412C329.672 229.648 330.872 226.724 331.738 223.695C332.575 229.037 333.41 234.38 334.246 239.721" stroke="#EAEAEA" stroke-width="1.61041" stroke-linecap="round" stroke-linejoin="round"/>
<path d="M336.847 231.332C337.008 231.812 337.265 232.256 337.601 232.635C337.772 232.823 337.985 232.966 338.223 233.053C338.461 233.14 338.716 233.168 338.968 233.134C339.88 232.956 340.237 231.864 340.402 230.95C340.979 227.759 341.27 224.305 339.79 221.418C338.283 218.481 336.718 221.386 336.299 223.186C335.66 225.894 335.851 228.733 336.847 231.332Z" stroke="#EAEAEA" stroke-width="1.61041" stroke-linecap="round" stroke-linejoin="round"/>
<path d="M180.471 391.638C180.641 390.522 180.813 389.406 180.983 388.289L189.4 390.783" stroke="#EAEAEA" stroke-width="1.61041" stroke-linecap="round" stroke-linejoin="round"/>
<path d="M185.01 387.114C185.493 388.027 186.549 388.46 187.538 388.756C188.647 389.136 189.819 389.298 190.989 389.233C192.109 389.125 193.301 388.559 193.666 387.495C193.779 387.056 193.788 386.596 193.693 386.154C193.599 385.71 193.402 385.295 193.12 384.941C192.144 383.555 189.828 382.201 188.069 382.558C186.224 382.928 183.955 385.122 185.01 387.114Z" stroke="#EAEAEA" stroke-width="1.61041" stroke-linecap="round" stroke-linejoin="round"/>
<path d="M191.104 378.379C190.908 378.679 190.807 379.029 190.813 379.387C190.819 379.744 190.932 380.091 191.137 380.384C191.561 380.963 192.153 381.397 192.833 381.627C194.164 382.173 195.647 382.217 197.009 381.753C197.681 381.515 198.291 381.128 198.79 380.618C199.291 380.11 199.668 379.493 199.894 378.816" stroke="#EAEAEA" stroke-width="1.61041" stroke-linecap="round" stroke-linejoin="round"/>
<path d="M203.251 390.675L202.642 388.027L214.055 390.35" stroke="#EAEAEA" stroke-width="1.61041" stroke-linecap="round" stroke-linejoin="round"/>
<path d="M217.728 386.065C218.265 385.665 218.784 385.076 218.69 384.411C218.575 383.594 217.649 383.2 216.861 382.959C214.506 382.238 212.04 381.508 209.616 381.951C208.923 382.043 208.271 382.331 207.737 382.782C207.475 383.011 207.284 383.312 207.188 383.646C207.093 383.982 207.095 384.337 207.196 384.67C207.393 385.096 207.711 385.455 208.11 385.702C210.815 387.633 214.966 388.119 217.728 386.065Z" stroke="#EAEAEA" stroke-width="1.61041" stroke-linecap="round" stroke-linejoin="round"/>
<path d="M211.195 378.676C211.353 379.151 211.607 379.589 211.942 379.963C212.277 380.335 212.684 380.636 213.139 380.846C214.052 381.259 215.025 381.523 216.021 381.627C217.191 381.872 218.401 381.851 219.563 381.567C220.141 381.414 220.663 381.097 221.065 380.655C221.467 380.212 221.732 379.663 221.828 379.073" stroke="#EAEAEA" stroke-width="1.61041" stroke-linecap="round" stroke-linejoin="round"/>
<path d="M11.8976 417.372L16.3199 415.469L11.6787 421.471L12.1425 421.094" stroke="#EAEAEA" stroke-width="1.61041" stroke-linecap="round" stroke-linejoin="round"/>
<path d="M16.6865 418.234C16.3538 418.538 16.0936 418.914 15.925 419.332C15.8435 419.542 15.8199 419.77 15.8568 419.992C15.8936 420.215 15.9896 420.423 16.1345 420.596C16.5601 421.039 17.2811 420.969 17.8696 420.795C19.0555 420.442 23.1414 418.276 21.8042 416.601C20.4265 414.88 17.6225 417.28 16.6865 418.234Z" stroke="#EAEAEA" stroke-width="1.61041" stroke-linecap="round" stroke-linejoin="round"/>
<path d="M22.2103 419.97C22.2574 420.184 22.3562 420.383 22.4982 420.55C22.6401 420.717 22.8207 420.847 23.0244 420.928C23.4343 421.086 23.8773 421.139 24.3128 421.081C25.982 420.931 29.6328 419.023 27.4272 417.159C27.0808 416.856 26.6561 416.656 26.2017 416.582C25.7472 416.509 25.2813 416.565 24.857 416.743C23.9537 417.162 22.0241 418.847 22.2103 419.97Z" stroke="#EAEAEA" stroke-width="1.61041" stroke-linecap="round" stroke-linejoin="round"/>
<path d="M254.58 136.61C248.465 134.255 241.901 133.301 235.368 133.815C228.836 134.33 222.502 136.302 216.832 139.585" stroke="#EAEAEA" stroke-width="1.61041" stroke-linecap="round" stroke-linejoin="round"/>
<path d="M162.654 219.949C159.878 230.942 160.113 242.478 163.335 253.349" stroke="#EAEAEA" stroke-width="1.61041" stroke-linecap="round" stroke-linejoin="round"/>
<path d="M258.783 307.083C268.938 301.365 277.078 292.65 282.091 282.129" stroke="#EAEAEA" stroke-width="1.61041" stroke-linecap="round" stroke-linejoin="round"/>
<path d="M135.888 207.595C138.203 205.628 140.039 203.159 141.26 200.377C142.479 197.594 143.051 194.571 142.931 191.535" stroke="#EAEAEA" stroke-width="1.61041" stroke-linecap="round" stroke-linejoin="round"/>
<path d="M143.971 204.093C144.656 203.263 145.162 202.301 145.46 201.269C145.757 200.236 145.839 199.152 145.701 198.086" stroke="#EAEAEA" stroke-width="1.61041" stroke-linecap="round" stroke-linejoin="round"/>
<g opacity="0.1">
<path d="M50.6546 238.554C48.3349 239.603 46.4812 241.912 44.5843 243.597C42.3903 245.485 40.3299 247.524 38.4169 249.697C34.9844 253.767 32.1804 258.329 30.0975 263.229C25.4269 274.036 23.305 285.379 21.6514 296.966C20.8578 302.529 28.7237 303.666 29.3028 298.002C30.4244 287.077 31.2058 275.579 35.5757 265.369C37.4832 260.76 40.1199 256.488 43.385 252.718C45.2238 250.654 47.3096 248.839 49.2592 246.887C51.0281 245.114 53.0425 243.375 53.667 240.871C54.1309 239.011 52.2434 237.834 50.6524 238.554H50.6546Z" fill="#EAEAEA"/>
</g>
<g opacity="0.1">
<path d="M52.2867 252.723C49.6046 254.158 47.1418 257.156 45.6212 259.761C43.8279 262.83 42.5506 266.422 41.3785 269.766C38.9662 276.647 37.6141 283.781 36.1106 290.867C34.8482 296.819 44.0906 298.082 44.3256 291.979C44.5838 285.288 46.3887 278.608 48.5467 272.255C49.6118 269.119 50.8886 266.078 52.0562 262.983C53.1047 260.202 54.0695 256.66 53.9282 253.664C53.9243 253.474 53.8716 253.288 53.7741 253.123C53.6771 252.959 53.5391 252.824 53.374 252.729C53.2089 252.634 53.0221 252.584 52.8315 252.582C52.6408 252.581 52.453 252.63 52.2867 252.723Z" fill="#EAEAEA"/>
</g>
<defs>
<linearGradient id="paint0_linear_3030_1179" x1="209.939" y1="378.582" x2="209.939" y2="394.567" gradientUnits="userSpaceOnUse">
<stop stop-color="#FFB800"/>
<stop offset="1" stop-color="#FF7F0A"/>
</linearGradient>
<linearGradient id="paint1_linear_3030_1179" x1="185.263" y1="378.184" x2="185.263" y2="396.625" gradientUnits="userSpaceOnUse">
<stop stop-color="#FFB800"/>
<stop offset="1" stop-color="#FF7F0A"/>
</linearGradient>
<linearGradient id="paint2_linear_3030_1179" x1="22.2625" y1="411.656" x2="22.2625" y2="423.637" gradientUnits="userSpaceOnUse">
<stop stop-color="#FFB800"/>
<stop offset="1" stop-color="#FF7F0A"/>
</linearGradient>
<linearGradient id="paint3_linear_3030_1179" x1="73.0038" y1="372.367" x2="73.0038" y2="374.332" gradientUnits="userSpaceOnUse">
<stop stop-color="#FFB800"/>
<stop offset="1" stop-color="#FF7F0A"/>
</linearGradient>
<linearGradient id="paint4_linear_3030_1179" x1="65.1214" y1="374.246" x2="65.1214" y2="377.024" gradientUnits="userSpaceOnUse">
<stop stop-color="#FFB800"/>
<stop offset="1" stop-color="#FF7F0A"/>
</linearGradient>
<linearGradient id="paint5_linear_3030_1179" x1="44.3043" y1="377.812" x2="44.3043" y2="380.268" gradientUnits="userSpaceOnUse">
<stop stop-color="#FFB800"/>
<stop offset="1" stop-color="#FF7F0A"/>
</linearGradient>
<linearGradient id="paint6_linear_3030_1179" x1="36.2969" y1="373.52" x2="36.2969" y2="375.66" gradientUnits="userSpaceOnUse">
<stop stop-color="#FFB800"/>
<stop offset="1" stop-color="#FF7F0A"/>
</linearGradient>
</defs>
</svg>
