<svg width="0" height="0" class="hidden">
    <symbol fill="none" xmlns="http://www.w3.org/2000/svg" viewBox="0 0 24 24" id="icon-vk">
        <rect width="24" height="24" rx="12" fill="white"></rect>
        <path d="M12.7702 17.2908C7.30024 17.2908 4.18029 13.5408 4.05029 7.30078H6.79029C6.88029 11.8808 8.90024 13.8208 10.5002 14.2208V7.30078H13.0803V11.2508C14.6603 11.0808 16.3201 9.28078 16.8801 7.30078H19.4602C19.0302 9.74078 17.2302 11.5408 15.9502 12.2808C17.2302 12.8808 19.2803 14.4508 20.0603 17.2908H17.2202C16.6102 15.3908 15.0903 13.9208 13.0803 13.7208V17.2908H12.7702Z" fill="#232323"></path>
    </symbol>
    <symbol fill="none" xmlns="http://www.w3.org/2000/svg" viewBox="0 0 24 24" id="icon-tg">
        <path d="M12 24C18.6274 24 24 18.6274 24 12C24 5.37258 18.6274 0 12 0C5.37258 0 0 5.37258 0 12C0 18.6274 5.37258 24 12 24Z" fill="white"></path>
        <path fill-rule="evenodd" clip-rule="evenodd" d="M5.43201 11.872C8.93026 10.3479 11.263 9.34305 12.4301 8.85759C15.7627 7.47147 16.4551 7.23069 16.9065 7.22274C17.0058 7.22099 17.2277 7.24559 17.3715 7.36226C17.4929 7.46076 17.5263 7.59384 17.5423 7.68723C17.5583 7.78063 17.5782 7.99339 17.5623 8.15963C17.3818 10.0571 16.6003 14.6618 16.2028 16.787C16.0346 17.6863 15.7034 17.9878 15.3827 18.0173C14.6858 18.0814 14.1567 17.5568 13.4817 17.1143C12.4256 16.422 11.8289 15.991 10.8037 15.3154C9.61896 14.5347 10.387 14.1056 11.0622 13.4043C11.2389 13.2208 14.3093 10.428 14.3687 10.1747C14.3762 10.143 14.3831 10.0249 14.3129 9.9625C14.2427 9.90014 14.1392 9.92146 14.0644 9.93843C13.9585 9.96247 12.2713 11.0777 9.00276 13.284C8.52385 13.6129 8.09007 13.7731 7.70141 13.7647C7.27295 13.7554 6.44876 13.5224 5.83606 13.3233C5.08456 13.079 4.48728 12.9498 4.53929 12.535C4.56638 12.3189 4.86395 12.0979 5.43201 11.872Z" fill="#232323"></path>
    </symbol>
    <symbol viewBox="0 0 24 24" fill="none" id="user" xmlns="http://www.w3.org/2000/svg">
        <path d="M12 12C9.71113 12 7.69486 9.78128 7.50015 7.05359C7.40063 5.66966 7.816 4.3884 8.66838 3.44643C9.50777 2.5134 10.6933 2 12 2C13.298 2 14.4792 2.51786 15.323 3.45536C16.1797 4.40626 16.595 5.68305 16.4955 7.05359C16.3008 9.78128 14.2845 12 12 12ZM12 3.42858C11.0827 3.42858 10.2563 3.78126 9.68084 4.41965C9.09673 5.06698 8.81116 5.96877 8.88039 6.95091C9.01885 8.91521 10.4467 10.5759 11.9957 10.5759C13.5447 10.5759 14.9725 8.91521 15.1109 6.95091C15.1802 5.98216 14.8946 5.08483 14.3018 4.42858C13.7307 3.78126 12.9086 3.42858 12 3.42858Z" fill="#343434" fill-opacity="0.9"/>
        <path d="M19.6151 22H4.38489C3.96952 22 3.59742 21.8214 3.33781 21.5045C3.05657 21.1562 2.94407 20.683 3.02628 20.2053C3.38973 18.1161 4.532 16.3571 6.32328 15.1294C7.91553 14.0357 9.9318 13.433 12 13.433C14.0682 13.433 16.0845 14.0357 17.6767 15.1294C19.468 16.3616 20.6103 18.1161 20.9737 20.2053C21.0559 20.683 20.9434 21.1562 20.6622 21.5045C20.4026 21.8214 20.0305 22 19.6151 22ZM4.39354 20.5714H19.6065C19.6151 20.5491 19.6194 20.5134 19.6108 20.4554C18.9401 16.6116 15.1932 14.8571 12 14.8571C8.80684 14.8571 5.05986 16.6116 4.38921 20.4554C4.38056 20.5134 4.38489 20.5491 4.39354 20.5714Z" fill="#343434" fill-opacity="0.9"/>
    </symbol>
    <symbol  viewBox="0 0 24 24" fill="none" id="cart" xmlns="http://www.w3.org/2000/svg">
        <path d="M8.02884 21.4275C8.90905 21.4275 9.6226 20.7239 9.6226 19.856C9.6226 18.9882 8.90905 18.2846 8.02884 18.2846C7.14864 18.2846 6.43509 18.9882 6.43509 19.856C6.43509 20.7239 7.14864 21.4275 8.02884 21.4275Z" fill="#343434" fill-opacity="0.9"/>
        <path d="M19.1851 21.4275C20.0654 21.4275 20.7789 20.7239 20.7789 19.856C20.7789 18.9882 20.0654 18.2846 19.1851 18.2846C18.3049 18.2846 17.5914 18.9882 17.5914 19.856C17.5914 20.7239 18.3049 21.4275 19.1851 21.4275Z" fill="#343434" fill-opacity="0.9"/>
        <path d="M22.0838 5.4529C21.9045 5.19263 21.6356 5.01094 21.3218 4.95201C21.2471 4.93728 21.1674 4.92746 21.0877 4.92746H5.93206L5.62825 3.21853C5.5635 2.84531 5.22981 2.57031 4.84133 2.57031H1.65381C1.21553 2.57031 0.856934 2.92388 0.856934 3.35603C0.856934 3.78817 1.21553 4.14174 1.65381 4.14174H4.17394L6.45003 16.8507C6.51477 17.2239 6.84847 17.4989 7.23695 17.4989H19.987C20.4253 17.4989 20.7839 17.1453 20.7839 16.7132C20.7839 16.281 20.4253 15.9275 19.987 15.9275H7.89935L7.62044 14.356H19.6583C20.2261 14.356 20.7191 13.9583 20.8287 13.4083L22.2631 6.33683C22.3229 6.02746 22.2631 5.71317 22.0838 5.4529ZM19.3296 12.7846H7.33656L6.21096 6.49888H20.5996L19.3296 12.7846Z" fill="#343434" fill-opacity="0.9"/>
    </symbol>
    	<symbol fill="none" xmlns="http://www.w3.org/2000/svg" viewBox="0 0 20 20" id="call">
	  <path fill-rule="evenodd" clip-rule="evenodd" d="M5.7446 2.25377C5.8644 2.34786 5.99895 2.47444 6.15374 2.62733C6.48539 2.95372 6.87014 3.47666 7.20029 3.97868C7.53414 4.48633 7.84349 5.02073 8.01688 5.39269L8.01699 5.39293L8.0171 5.39317C8.11538 5.60451 8.20396 5.79602 8.26622 5.96387C8.32946 6.13433 8.382 6.32182 8.38234 6.52643C8.38305 6.95471 8.15058 7.28526 7.92665 7.59014C7.86232 7.67772 7.80766 7.74949 7.76055 7.81135C7.659 7.94469 7.59243 8.0321 7.53914 8.1332C7.48715 8.23181 7.47198 8.30301 7.49659 8.41762C7.53207 8.58289 7.68631 8.94466 7.98583 9.41792C8.27549 9.87561 8.67208 10.3919 9.14593 10.8642C9.61968 11.3364 10.1277 11.7225 10.5763 12.0019C11.0385 12.2898 11.3945 12.4376 11.5645 12.4739C11.6829 12.4991 11.7568 12.4833 11.8556 12.4319C11.9598 12.3776 12.0525 12.3068 12.1967 12.1968C12.2534 12.1535 12.318 12.1042 12.3944 12.0474L12.3946 12.0473L12.4003 12.043C12.7062 11.8157 13.0462 11.5632 13.477 11.5636C13.6899 11.5639 13.8809 11.624 14.0492 11.6926C14.2099 11.7582 14.3945 11.8513 14.5971 11.9533L14.614 11.9618C14.9691 12.1409 15.4969 12.4441 16.0079 12.7747C16.5099 13.0995 17.0396 13.4786 17.3694 13.8109L17.3699 13.8114C17.5232 13.9662 17.6501 14.1008 17.7445 14.2205C17.8358 14.3364 17.936 14.4864 17.9782 14.6729C18.0259 14.883 17.9827 15.0578 17.9384 15.1791C17.9185 15.2337 17.895 15.2862 17.8781 15.3237C17.8754 15.3296 17.8729 15.3353 17.8704 15.3409C17.8547 15.3757 17.841 15.4061 17.8264 15.4408L17.8261 15.4417L17.8257 15.4425C17.6765 15.7965 17.4949 16.1359 17.2833 16.4566L17.2827 16.4575L17.282 16.4585C16.8686 17.0796 16.4797 17.4853 15.8752 17.7669C15.561 17.9133 15.1121 18.061 14.4146 17.9741C13.7436 17.8904 12.8707 17.5933 11.6793 16.9261L11.679 16.926C9.77258 15.8568 8.44975 14.935 6.74333 13.2334C5.04191 11.5368 4.20563 10.4295 3.03413 8.30134C1.85475 6.1589 1.85644 4.83772 2.19324 4.11804C2.47603 3.51378 2.8859 3.12666 3.50493 2.71541L3.50615 2.7146L3.50737 2.7138C3.82837 2.5029 4.168 2.32185 4.52202 2.1729L4.52319 2.17241L4.52436 2.17192C4.5594 2.15737 4.59004 2.14363 4.62508 2.12792C4.63057 2.12546 4.63617 2.12295 4.64192 2.12038C4.67956 2.10353 4.73206 2.08011 4.78669 2.06027C4.90777 2.01629 5.08223 1.97333 5.29195 2.02062C5.47842 2.06266 5.62843 2.16254 5.7446 2.25377ZM4.96416 3.22672C4.67529 3.34834 4.39813 3.49608 4.13613 3.66811C3.61318 4.01567 3.38901 4.25913 3.22835 4.60242C3.12159 4.83056 2.92399 5.73143 4.03531 7.75024C5.15449 9.78335 5.92533 10.8038 7.55031 12.4242C9.17019 14.0395 10.4051 14.9012 12.2378 15.929C13.3593 16.5571 14.0863 16.7815 14.556 16.84C14.999 16.8953 15.2314 16.8061 15.3926 16.731C15.7386 16.5699 15.9831 16.3472 16.3301 15.8261C16.5026 15.5646 16.6506 15.2878 16.7724 14.9991C16.7888 14.9598 16.8049 14.9235 16.8186 14.8932C16.7653 14.83 16.6837 14.7425 16.5581 14.6157C16.3207 14.3766 15.8802 14.0532 15.3871 13.7342C14.9031 13.4211 14.4111 13.1394 14.0997 12.9824C13.8749 12.8691 13.7309 12.7971 13.6172 12.7507C13.5067 12.7056 13.4745 12.7064 13.4758 12.7064C13.4861 12.7065 13.4508 12.6863 13.0761 12.9646C13.0378 12.9931 12.9964 13.0248 12.9526 13.0584C12.7857 13.1864 12.5835 13.3413 12.3832 13.4456C12.0839 13.6014 11.7403 13.6799 11.3262 13.5916C10.9637 13.5143 10.4748 13.2851 9.97208 12.972C9.45567 12.6503 8.87856 12.2113 8.3391 11.6736C7.79975 11.1359 7.35099 10.5519 7.02012 10.0291C6.69911 9.52182 6.45765 9.02291 6.3792 8.65749C6.28988 8.24141 6.37131 7.8978 6.52816 7.60027C6.62924 7.40854 6.78034 7.21043 6.9047 7.04739C6.94129 6.99941 6.97556 6.95448 7.00557 6.91363C7.24578 6.58656 7.24015 6.53443 7.23953 6.52874C7.23951 6.52855 7.2395 6.52841 7.2395 6.52832C7.23948 6.51731 7.23694 6.47512 7.19472 6.36133C7.15155 6.24495 7.08435 6.09767 6.98087 5.87517C6.83957 5.57213 6.56259 5.08891 6.24541 4.60661C5.92456 4.11872 5.59362 3.67944 5.3518 3.44154L5.35139 3.44114L5.35098 3.44074C5.22338 3.3147 5.13563 3.23302 5.07227 3.17985C5.04148 3.19361 5.00439 3.20999 4.96416 3.22672Z" fill="#1F1F1F"></path>
	</symbol>
	<symbol fill="none" xmlns="http://www.w3.org/2000/svg" viewBox="0 0 20 20" id="briefcase">
	  <path fill-rule="evenodd" clip-rule="evenodd" d="M6.875 3.125C6.70924 3.125 6.55027 3.19085 6.43306 3.30806C6.31585 3.42527 6.25 3.58424 6.25 3.75V4.375H13.75V3.75C13.75 3.58424 13.6842 3.42527 13.5669 3.30806C13.4497 3.19085 13.2908 3.125 13.125 3.125H6.875ZM15 4.375V3.75C15 3.25272 14.8025 2.77581 14.4508 2.42417C14.0992 2.07254 13.6223 1.875 13.125 1.875H6.875C6.37772 1.875 5.90081 2.07254 5.54918 2.42417C5.19754 2.77581 5 3.25272 5 3.75V4.375H3.125C1.74429 4.375 0.625 5.49429 0.625 6.875V15.625C0.625 17.0057 1.74429 18.125 3.125 18.125H16.875C18.2557 18.125 19.375 17.0057 19.375 15.625V6.875C19.375 5.49429 18.2557 4.375 16.875 4.375H15ZM3.125 5.625C2.43464 5.625 1.875 6.18464 1.875 6.875V8.75H18.125V6.875C18.125 6.18464 17.5654 5.625 16.875 5.625H3.125ZM18.125 10H13.125V10.3125C13.125 10.5611 13.0262 10.7996 12.8504 10.9754C12.6746 11.1512 12.4361 11.25 12.1875 11.25H7.8125C7.56386 11.25 7.3254 11.1512 7.14959 10.9754C6.97377 10.7996 6.875 10.5611 6.875 10.3125V10H1.875V15.625C1.875 16.3154 2.43464 16.875 3.125 16.875H16.875C17.5654 16.875 18.125 16.3154 18.125 15.625V10Z" fill="#343434" fill-opacity="0.9"></path>
	</symbol>
	<symbol fill="none" xmlns="http://www.w3.org/2000/svg" viewBox="0 0 20 20" id="calendar">
	  <path d="M11.5625 10C12.0803 10 12.5 9.58027 12.5 9.0625C12.5 8.54473 12.0803 8.125 11.5625 8.125C11.0447 8.125 10.625 8.54473 10.625 9.0625C10.625 9.58027 11.0447 10 11.5625 10Z" fill="#1F1F1F"></path>
	  <path d="M14.6875 10C15.2053 10 15.625 9.58027 15.625 9.0625C15.625 8.54473 15.2053 8.125 14.6875 8.125C14.1697 8.125 13.75 8.54473 13.75 9.0625C13.75 9.58027 14.1697 10 14.6875 10Z" fill="#1F1F1F"></path>
	  <path d="M11.5625 13.125C12.0803 13.125 12.5 12.7053 12.5 12.1875C12.5 11.6697 12.0803 11.25 11.5625 11.25C11.0447 11.25 10.625 11.6697 10.625 12.1875C10.625 12.7053 11.0447 13.125 11.5625 13.125Z" fill="#1F1F1F"></path>
	  <path d="M14.6875 13.125C15.2053 13.125 15.625 12.7053 15.625 12.1875C15.625 11.6697 15.2053 11.25 14.6875 11.25C14.1697 11.25 13.75 11.6697 13.75 12.1875C13.75 12.7053 14.1697 13.125 14.6875 13.125Z" fill="#1F1F1F"></path>
	  <path d="M5.3125 13.125C5.83027 13.125 6.25 12.7053 6.25 12.1875C6.25 11.6697 5.83027 11.25 5.3125 11.25C4.79473 11.25 4.375 11.6697 4.375 12.1875C4.375 12.7053 4.79473 13.125 5.3125 13.125Z" fill="#1F1F1F"></path>
	  <path d="M8.4375 13.125C8.95527 13.125 9.375 12.7053 9.375 12.1875C9.375 11.6697 8.95527 11.25 8.4375 11.25C7.91973 11.25 7.5 11.6697 7.5 12.1875C7.5 12.7053 7.91973 13.125 8.4375 13.125Z" fill="#1F1F1F"></path>
	  <path d="M5.3125 16.25C5.83027 16.25 6.25 15.8303 6.25 15.3125C6.25 14.7947 5.83027 14.375 5.3125 14.375C4.79473 14.375 4.375 14.7947 4.375 15.3125C4.375 15.8303 4.79473 16.25 5.3125 16.25Z" fill="#1F1F1F"></path>
	  <path d="M8.4375 16.25C8.95527 16.25 9.375 15.8303 9.375 15.3125C9.375 14.7947 8.95527 14.375 8.4375 14.375C7.91973 14.375 7.5 14.7947 7.5 15.3125C7.5 15.8303 7.91973 16.25 8.4375 16.25Z" fill="#1F1F1F"></path>
	  <path d="M11.5625 16.25C12.0803 16.25 12.5 15.8303 12.5 15.3125C12.5 14.7947 12.0803 14.375 11.5625 14.375C11.0447 14.375 10.625 14.7947 10.625 15.3125C10.625 15.8303 11.0447 16.25 11.5625 16.25Z" fill="#1F1F1F"></path>
	  <path fill-rule="evenodd" clip-rule="evenodd" d="M5.625 1.875C5.625 1.52982 5.34518 1.25 5 1.25C4.65482 1.25 4.375 1.52982 4.375 1.875V2.5H3.75C2.36929 2.5 1.25 3.61929 1.25 5V16.25C1.25 17.6307 2.36929 18.75 3.75 18.75H16.25C17.6307 18.75 18.75 17.6307 18.75 16.25V5C18.75 3.61929 17.6307 2.5 16.25 2.5H15.625V1.875C15.625 1.52982 15.3452 1.25 15 1.25C14.6548 1.25 14.375 1.52982 14.375 1.875V2.5H5.625V1.875ZM16.25 3.75C16.9404 3.75 17.5 4.30964 17.5 5V5.625H2.5V5C2.5 4.30964 3.05964 3.75 3.75 3.75H16.25ZM2.5 6.875V16.25C2.5 16.9404 3.05964 17.5 3.75 17.5H16.25C16.9404 17.5 17.5 16.9404 17.5 16.25V6.875H2.5Z" fill="#1F1F1F"></path>
	</symbol>
	<symbol xmlns="http://www.w3.org/2000/svg" viewBox="0 0 20 20" id="arrow-left" fill="none">
	  <path fill-rule="evenodd" clip-rule="evenodd" d="M6.52459 9.33709C6.15847 9.70321 6.15847 10.2968 6.52459 10.6629L12.1496 16.2879C12.5157 16.654 13.1093 16.654 13.4754 16.2879C13.8415 15.9218 13.8415 15.3282 13.4754 14.9621L8.51333 10L13.4754 5.03791C13.8415 4.6718 13.8415 4.0782 13.4754 3.71209C13.1093 3.34597 12.5157 3.34597 12.1496 3.71209L6.52459 9.33709Z" fill="#343434"/>
  </symbol>
	<symbol xmlns="http://www.w3.org/2000/svg" viewBox="0 0 20 20" id="arrow-right" fill="none">
  <path fill-rule="evenodd" clip-rule="evenodd" d="M13.4754 9.33709C13.8415 9.70321 13.8415 10.2968 13.4754 10.6629L7.85041 16.2879C7.4843 16.654 6.8907 16.654 6.52459 16.2879C6.15847 15.9218 6.15847 15.3282 6.52459 14.9621L11.4867 10L6.52459 5.03791C6.15847 4.6718 6.15847 4.0782 6.52459 3.71209C6.89071 3.34597 7.4843 3.34597 7.85041 3.71209L13.4754 9.33709Z" fill="#343434"/>
  </symbol>
	<symbol xmlns="http://www.w3.org/2000/svg" viewBox="0 0 20 20" id="price" fill="none">
  <g opacity="0.9" clip-path="url(#clip0_466_933)">
  <path d="M6.31641 18.125C5.86719 18.125 5.42188 17.957 5.08203 17.6172L0.511719 13.0469C-0.167969 12.3633 -0.167969 11.2539 0.511719 10.5742L10.1094 0.972656C10.3359 0.75 10.6328 0.625 10.9492 0.625H15.7617C16.2266 0.628906 16.6641 0.8125 16.9922 1.14062C17.3203 1.47266 17.5 1.91016 17.4961 2.375V7.17578C17.4961 7.49219 17.375 7.78906 17.1524 8.01562L7.55469 17.6133C7.21485 17.9531 6.76563 18.125 6.31641 18.125ZM10.9766 1.875L1.39453 11.4531C1.20313 11.6484 1.20313 11.9648 1.39453 12.1602L5.96485 16.7305C6.16016 16.9219 6.47657 16.9219 6.67188 16.7305L16.25 7.15625V2.375C16.25 2.09766 16.0313 1.875 15.7578 1.875H10.9766Z" fill="#343434"/>
  <path d="M13.75 5.625C13.0586 5.625 12.5 5.06641 12.5 4.375C12.5 3.68359 13.0586 3.125 13.75 3.125C14.4414 3.125 15 3.68359 15 4.375C15 5.06641 14.4414 5.625 13.75 5.625Z" fill="#343434"/>
  <path d="M8.98437 19.375C8.82422 19.375 8.66406 19.3125 8.54297 19.1914C8.30078 18.9492 8.30078 18.5508 8.54297 18.3086L18.75 8.10156V3.125C18.75 2.78125 19.0312 2.5 19.375 2.5C19.7187 2.5 20 2.78125 20 3.125V8.12109C20.0039 8.43359 19.8828 8.73438 19.664 8.95703L9.42968 19.1914C9.30468 19.3125 9.14453 19.375 8.98437 19.375Z" fill="#343434"/>
  </g>
  <defs>
  <clipPath id="clip0_466_933">
  <rect width="20" height="20" fill="white"/>
  </clipPath>
  </defs>
  </symbol>
  <symbol xmlns="http://www.w3.org/2000/svg" viewBox="0 0 20 20" id="rocket" fill="none">
	<path opacity="0.9" fill-rule="evenodd" clip-rule="evenodd" d="M15.7654 1.38543C16.6038 1.23664 17.4062 1.20391 18.0577 1.36283C18.2041 1.39799 18.3376 1.47391 18.4426 1.58183C18.5465 1.6885 18.6183 1.82207 18.6501 1.96738C18.8031 2.63816 18.7713 3.44742 18.6221 4.29217C18.4709 5.14764 18.1917 6.08175 17.8137 7.0194C17.0606 8.88789 15.8918 10.8289 14.4831 12.2302C14.0691 12.6468 13.6254 13.0325 13.1556 13.3844C13.1864 14.1514 13.0989 14.9449 12.7863 15.6622L12.786 15.6629C12.2796 16.8213 11.3672 17.5486 10.4884 18.0003C9.61211 18.4506 8.7314 18.6475 8.20876 18.7315C8.06096 18.7554 7.90964 18.745 7.7665 18.701C7.62337 18.6571 7.49225 18.5809 7.38328 18.4782C7.27431 18.3755 7.19041 18.2492 7.13806 18.1089C7.08571 17.9686 7.06632 17.8182 7.08138 17.6692C7.08155 17.6674 7.08174 17.6657 7.08194 17.6639L7.35726 15.1554C7.32937 15.1526 7.3015 15.1496 7.27365 15.1465C6.96688 15.1149 6.68052 14.9779 6.46334 14.7589C6.46284 14.7584 6.46234 14.7579 6.46185 14.7574L5.24081 13.5364C5.24031 13.5359 5.2398 13.5354 5.2393 13.5349C5.02037 13.3178 4.8834 13.0316 4.85165 12.725C4.8484 12.6957 4.84532 12.6664 4.84241 12.6371L2.33157 12.9127L2.32898 12.913L2.32705 12.9132C2.17789 12.9285 2.02722 12.9092 1.88671 12.8569C1.7462 12.8046 1.61963 12.7206 1.51681 12.6115C1.41398 12.5023 1.33766 12.371 1.29377 12.2276C1.24987 12.0843 1.23957 11.9327 1.26368 11.7847L1.26386 11.7836C1.34968 11.2626 1.54749 10.3832 1.99849 9.50751C2.45066 8.62949 3.17774 7.71772 4.33524 7.20878L4.33689 7.20805C5.05449 6.89501 5.85232 6.80765 6.624 6.84134C6.97598 6.37327 7.36146 5.93115 7.77745 5.51849C9.18279 4.11448 11.1532 2.94613 13.0339 2.19352C13.9779 1.81578 14.9151 1.53634 15.7654 1.38543ZM13.4983 3.35405C11.7296 4.06185 9.91615 5.14848 8.66022 6.40349L8.65856 6.40515C8.20998 6.85004 7.80096 7.3331 7.43611 7.84888C7.30739 8.03084 7.09152 8.13049 6.86954 8.11041C6.10876 8.04157 5.40498 8.10613 4.8376 8.35339C4.02326 8.71171 3.47751 9.36576 3.10978 10.0798C2.8265 10.6299 2.66098 11.1933 2.56573 11.6295L5.36195 11.3225C5.53754 11.3033 5.71307 11.3592 5.84515 11.4765C5.97723 11.5938 6.05351 11.7614 6.05513 11.9381C6.05713 12.1557 6.0702 12.3731 6.09429 12.5895C6.09453 12.5917 6.09476 12.5938 6.09498 12.596C6.09694 12.6155 6.10561 12.6336 6.1195 12.6473L6.1221 12.6499L7.34827 13.8761L7.35081 13.8786C7.36456 13.8925 7.38272 13.9012 7.40218 13.9032C7.40452 13.9034 7.40686 13.9036 7.4092 13.9039C7.62418 13.9279 7.84025 13.941 8.05655 13.9431C8.23312 13.9448 8.40071 14.0211 8.51792 14.1532C8.63513 14.2852 8.691 14.4607 8.67174 14.6362L8.36505 17.4305C8.80125 17.3366 9.36596 17.1717 9.91698 16.8885C10.6315 16.5213 11.2848 15.9759 11.6405 15.1626C11.8884 14.5936 11.9529 13.893 11.8875 13.1345C11.8685 12.913 11.9685 12.6981 12.1502 12.57C12.6674 12.2056 13.1518 11.7966 13.5978 11.3478L13.6004 11.3452C14.8623 10.0903 15.9482 8.30423 16.6544 6.5521C17.0062 5.67916 17.2578 4.82931 17.3911 4.0747C17.4992 3.46304 17.5248 2.9401 17.4785 2.5283C17.0906 2.48456 16.5855 2.50942 15.9839 2.6162C15.2335 2.74937 14.3793 3.00152 13.4983 3.35405ZM8.01011 17.4974C8.00986 17.4974 8.00962 17.4975 8.00937 17.4975L8.00993 17.4974L8.01011 17.4974ZM12.8462 6.12479C12.6399 6.12479 12.4382 6.18596 12.2667 6.30058C12.0952 6.41519 11.9615 6.57809 11.8826 6.76868C11.8036 6.95928 11.783 7.16899 11.8233 7.37132C11.8635 7.57364 11.9629 7.75948 12.1088 7.90533L12.1093 7.90585C12.206 8.00275 12.3208 8.07963 12.4473 8.13208C12.5737 8.18454 12.7093 8.21154 12.8462 8.21154C12.9831 8.21154 13.1186 8.18454 13.2451 8.13208C13.3715 8.07963 13.4864 8.00275 13.5831 7.90585L13.5836 7.90533C13.7295 7.75948 13.8288 7.57364 13.8691 7.37132C13.9093 7.16899 13.8887 6.95928 13.8098 6.76868C13.7308 6.57809 13.5972 6.41519 13.4256 6.30058C13.2541 6.18596 13.0525 6.12479 12.8462 6.12479ZM11.5722 5.26126C11.9493 5.00928 12.3926 4.87479 12.8462 4.87479C13.2997 4.87479 13.743 5.00928 14.1201 5.26126C14.4972 5.51324 14.7911 5.87138 14.9647 6.2904C15.1382 6.70941 15.1836 7.17048 15.095 7.61528C15.0066 8.05985 14.7883 8.46822 14.4679 8.7888C14.2551 9.00205 14.0023 9.17124 13.724 9.28668C13.4458 9.40211 13.1474 9.46154 12.8462 9.46154C12.5449 9.46154 12.2466 9.40211 11.9683 9.28668C11.6902 9.1713 11.4375 9.00222 11.2248 8.78912C10.9042 8.46849 10.6858 8.06 10.5973 7.61528C10.5088 7.17048 10.5542 6.70941 10.7277 6.2904C10.9012 5.87138 11.1951 5.51324 11.5722 5.26126ZM4.90363 13.6747C4.94568 14.0173 4.70204 14.3291 4.35943 14.3712C4.10861 14.402 3.87524 14.5156 3.6963 14.694C3.63626 14.7545 3.53932 14.9206 3.44362 15.2339C3.35396 15.5274 3.28684 15.8765 3.238 16.2229C3.20754 16.4389 3.18502 16.6477 3.16847 16.8328C3.35371 16.8163 3.56274 16.7937 3.77891 16.7632C4.12533 16.7143 4.47434 16.6472 4.76766 16.5574C5.08154 16.4614 5.24691 16.3643 5.30645 16.3047L5.30751 16.3037C5.4863 16.1256 5.59988 15.8926 5.62992 15.642C5.67102 15.2993 5.98216 15.0548 6.32489 15.0959C6.66761 15.137 6.91212 15.4482 6.87103 15.7909C6.80755 16.3202 6.56763 16.8127 6.18996 17.189C5.90519 17.4736 5.49273 17.6428 5.13329 17.7528C4.75304 17.8691 4.33308 17.9474 3.95358 18.001C3.57122 18.0549 3.21387 18.0859 2.95313 18.1035C2.82231 18.1123 2.71474 18.1178 2.63919 18.1211C2.60139 18.1227 2.57153 18.1239 2.55072 18.1246C2.54031 18.1249 2.53215 18.1252 2.52639 18.1254L2.51955 18.1255L2.51683 18.1256L2.51659 18.1256C2.51649 18.1256 2.5164 18.1256 2.50047 17.5008C1.87567 17.4849 1.87568 17.4848 1.87568 17.4847L1.87576 17.4817L1.87596 17.4749C1.87613 17.4692 1.87638 17.461 1.87674 17.4506C1.87745 17.4298 1.87856 17.4 1.88022 17.3622C1.88353 17.2867 1.88903 17.1792 1.89783 17.0484C1.91538 16.7878 1.94634 16.4306 2.00025 16.0483C2.05375 15.6689 2.13199 15.249 2.24814 14.8688C2.35805 14.5089 2.52716 14.0963 2.81129 13.8112L2.81235 13.8102C3.18854 13.4345 3.67945 13.1953 4.20713 13.1305C4.54974 13.0884 4.86157 13.3321 4.90363 13.6747ZM2.50047 17.5008L1.87567 17.4849C1.87131 17.6561 1.93741 17.8217 2.05853 17.9428C2.17964 18.0639 2.34516 18.13 2.5164 18.1256L2.50047 17.5008Z" fill="#343434"/>
	</symbol>
</svg>