<svg width="95" height="27" viewBox="0 0 95 27" fill="none" xmlns="http://www.w3.org/2000/svg">
<g clip-path="url(#clip0_469_1134)">
<path fill-rule="evenodd" clip-rule="evenodd" d="M14.8855 20.0659H10.7891C4.39857 20.0659 9.04125 6.4232 14.4213 6.4232H20.8937C21.9314 6.4232 23.7612 6.61538 24.6625 4.03505L26.0552 0.0273438H17.1795C12.3731 0.0273438 8.63157 1.72925 5.92792 4.58405C1.25795 9.47013 -0.326019 17.1013 0.793684 20.7521C1.85876 24.1284 4.7536 26.3519 9.287 26.4068L12.81 26.4342H17.1522L18.2173 23.2226C19.0093 20.9443 17.2342 20.0659 14.8855 20.0659ZM64.7533 14.4111L66.0912 10.0466H51.8083C49.4324 10.0466 48.3673 10.7054 47.9577 12.0779L46.6195 16.4425H60.9025C63.2785 16.4425 64.3436 15.7837 64.7533 14.4111ZM44.4894 22.0972L43.1512 26.4617H57.4342C59.7828 26.4617 60.8752 25.8029 61.2849 24.4304L62.6231 20.0659H48.3401C45.9914 20.0659 44.9263 20.7247 44.4894 22.0972ZM68.0849 4.41935L69.4234 0.0547934H55.1402C52.7642 0.0547934 51.6991 0.713593 51.2895 2.08609L49.9513 6.45065H64.2344C66.5833 6.45065 67.6479 5.79185 68.0849 4.41935ZM46.5103 5.29775C45.9094 1.23515 43.752 0.0547934 38.5085 0.0547934H28.9501L23.3789 16.4425H26.9018C29.0047 16.4425 30.0698 16.4699 31.1895 13.4504L33.5108 6.4232H37.0611C40.0925 6.4232 39.4097 10.2388 37.8804 13.9445C36.5149 17.211 34.1389 20.0933 31.2714 20.0933H25.3452C22.9692 20.0933 21.8769 20.7521 21.4399 22.1246L19.9651 26.4892H24.3074L28.5677 26.4617C32.3365 26.4342 35.4225 26.1598 39.0274 22.8932C42.8508 19.4071 47.275 10.4583 46.5103 5.29775ZM94.5211 0.0273438H86.2463L78.4629 8.34469C77.5613 9.30543 76.633 10.2662 75.7314 11.3917H75.6495L79.5275 0.0273438H72.7825L63.6881 26.4617H70.4337L73.3283 18.1444L76.3322 15.5915L78.7085 23.1128C79.4456 25.446 80.2109 26.4617 81.8494 26.4617H87.0109L81.7125 11.6936L94.5211 0.0273438Z" fill="#343434" fill-opacity="0.2"/>
</g>
<defs>
<clipPath id="clip0_469_1134">
<rect width="95" height="27" fill="white"/>
</clipPath>
</defs>
</svg>
