<svg width="139" height="31" viewBox="0 0 139 31" fill="none" xmlns="http://www.w3.org/2000/svg">
<path d="M138.895 9.67591L138.681 10.2294C138.473 10.7815 138.324 11.1068 138.124 11.5535C137.998 11.8296 137.851 12.1548 137.649 12.6244L133.364 23.3432C132.615 25.2511 131.121 26.3438 129.275 26.3438C128.637 26.3438 127.885 26.1488 127.459 25.9722L127.075 25.809L127.248 25.4202C127.844 24.1354 128.228 23.7223 129.472 23.6192C129.944 23.5816 130.456 23.0219 130.818 22.1558L131 21.7108L127.119 12.6208C126.913 12.1342 126.758 11.7586 126.601 11.3789C126.451 11.0257 126.305 10.6763 126.119 10.2447L125.875 9.67591H127.786C128.891 9.67591 129.381 10.0192 129.805 11.1068C129.805 11.1068 131.939 16.4516 132.099 16.841C132.253 17.2349 132.442 18.1759 132.442 18.1759L132.541 18.1702C132.541 18.1702 132.678 17.3312 132.844 16.841C133.013 16.354 134.914 11.1219 134.914 11.1219C135.311 10.0496 135.855 9.67591 136.98 9.67591H138.895Z" fill="#343434" fill-opacity="0.2"/>
<path d="M115.006 9.53551C113.709 9.53551 112.107 10.6628 111.754 12.1034C111.754 12.086 111.754 11.4026 111.754 11.2412C111.754 10.4783 111.301 9.6769 109.875 9.6769H108.809V22.168H111.83V16.9844C111.83 16.2143 111.91 15.5663 112.085 14.9994C112.537 13.51 113.657 12.548 114.934 12.548C115.244 12.548 115.504 12.6044 115.504 12.6044L116.004 12.7228V9.63919L115.66 9.58788C115.647 9.58788 115.329 9.53551 115.006 9.53551Z" fill="#343434" fill-opacity="0.2"/>
<path d="M123.768 9.53551C122.474 9.53551 120.877 10.6628 120.521 12.1034C120.521 12.086 120.521 11.4026 120.521 11.2412C120.521 10.4783 120.073 9.6769 118.642 9.6769H117.574V22.168H120.595V16.9844C120.595 16.2143 120.679 15.5663 120.849 14.9994C121.302 13.51 122.423 12.548 123.702 12.548C124.015 12.548 124.271 12.6044 124.271 12.6044L124.768 12.7228V9.63919L124.427 9.58788C124.412 9.58788 124.096 9.53551 123.768 9.53551Z" fill="#343434" fill-opacity="0.2"/>
<path d="M60.256 9.82227C56.4887 9.82227 53.6504 12.6165 53.6504 16.3225C53.6504 20.0543 56.4887 22.8711 60.256 22.8711C63.9751 22.8711 66.8879 19.9921 66.8879 16.3225C66.8879 12.6165 64.0402 9.82227 60.256 9.82227ZM60.256 20.1121C58.2375 20.1121 56.7135 18.482 56.7135 16.3225C56.7135 14.1869 58.2375 12.5771 60.256 12.5771C62.2889 12.5771 63.8209 14.1869 63.8209 16.3225C63.8209 18.482 62.2889 20.1121 60.256 20.1121Z" fill="#343434" fill-opacity="0.2"/>
<path d="M46.5611 9.82227C44.8547 9.82227 43.6831 10.5207 43.0021 11.1144H42.9149C42.9149 11.1144 43.0021 10.4303 43.0021 9.7343C43.0021 9.0368 43.0021 7.37139 43.0021 7.37139C43.0021 6.09976 42.3876 5.48374 41.1344 5.48374H39.9795V16.4275C40.1297 20.4019 42.5808 22.8711 46.385 22.8711C49.8887 22.8711 52.5326 20.0659 52.5326 16.3464C52.5326 12.6262 49.9662 9.82227 46.5611 9.82227ZM46.062 20.1335C44.1198 20.1335 42.8808 18.2302 42.8808 16.388C42.8808 13.5937 44.6544 12.598 46.1064 12.598C47.7696 12.598 49.4858 14.0101 49.4858 16.3656C49.4858 18.7266 47.744 20.1335 46.062 20.1335Z" fill="#343434" fill-opacity="0.2"/>
<path d="M87.3962 9.82227C85.6877 9.82227 84.5184 10.5207 83.832 11.1144H83.7458C83.7458 11.1144 83.832 10.4303 83.832 9.7343C83.832 9.0368 83.832 7.37139 83.832 7.37139C83.832 6.09976 83.2221 5.48374 81.9689 5.48374H80.814V16.4275C80.9625 20.4019 83.4169 22.8711 87.2122 22.8711C90.7197 22.8711 93.3633 20.0659 93.3633 16.3464C93.3633 12.6262 90.7977 9.82227 87.3962 9.82227ZM86.8929 20.1335C84.9526 20.1335 83.7126 18.2302 83.7126 16.388C83.7126 13.5937 85.486 12.598 86.9376 12.598C88.6031 12.598 90.3207 14.0101 90.3207 16.3656C90.3207 18.7266 88.5793 20.1335 86.8929 20.1335Z" fill="#343434" fill-opacity="0.2"/>
<path d="M77.5113 19.8552L75.055 15.9201L77.146 12.7629C77.5264 12.1866 77.8233 11.7753 78.1392 11.3397C78.3689 11.0256 78.6013 10.7066 78.8611 10.3253L79.301 9.68854H77.0231C75.7421 9.68854 75.2649 9.96859 74.5791 11.1143C74.5791 11.1143 73.6585 12.6486 73.5304 12.8649C73.41 13.077 73.0922 13.7908 73.0849 13.8088H73.0019C73.0019 13.8088 72.7175 13.1478 72.5447 12.8649C72.3776 12.5788 71.4849 11.1085 71.4849 11.1085C70.762 9.96859 70.2798 9.68854 69.0468 9.68854H66.7739L67.2348 10.3311C67.7844 11.1143 68.1001 11.5745 68.5736 12.2655L71.0077 15.9201L68.9406 19.365C68.5586 19.9341 68.2616 20.3526 67.9441 20.7864C67.7135 21.1037 67.4834 21.4177 67.22 21.7947L66.7835 22.4375H69.0616C70.3411 22.4375 70.8214 22.1615 71.5069 21.0154C71.5069 21.0154 72.4237 19.4833 72.5516 19.2651C72.6728 19.0528 72.9916 18.3376 73.0019 18.3206H73.0849C73.0849 18.3206 73.3672 18.9778 73.5379 19.2651C73.7088 19.5473 74.6 21.0216 74.6 21.0216C75.324 22.1615 75.8031 22.4375 77.0375 22.4375H79.3081L78.8444 21.7947C78.2988 21.0154 77.981 20.5538 77.5113 19.8552Z" fill="#343434" fill-opacity="0.2"/>
<path d="M104.879 19.0301C104.534 19.0301 104.22 19.1766 103.91 19.3173L103.865 19.3361C103.224 19.6328 102.445 19.9953 101.52 19.9953C99.9455 19.9953 97.9105 19.0189 97.731 16.8735C97.731 16.8735 106.325 16.8735 106.429 16.8735C106.483 16.4644 106.515 15.8653 106.515 15.5458C106.515 12.0318 104.207 9.67083 100.794 9.67083C97.1474 9.67083 94.5947 12.3571 94.5947 16.1956C94.5947 19.9751 97.6188 22.7188 101.408 22.7188C104.484 22.7188 106.204 20.8253 106.277 20.7521L106.483 20.5441L106.36 20.2785C106.078 19.7005 105.67 19.0301 104.879 19.0301ZM101.006 12.0561C102.294 12.0561 103.648 12.8545 103.648 14.547H97.7584C97.9587 13.2489 99.2699 12.0561 101.006 12.0561Z" fill="#343434" fill-opacity="0.2"/>
<path d="M16.4627 23.9636C17.7788 22.6359 19.9083 22.6359 21.2231 23.9636C22.5431 25.2935 22.5431 27.4515 21.2231 28.7814C19.9083 30.1145 17.7788 30.1145 16.4627 28.7814C15.1537 27.4515 15.1537 25.2935 16.4627 23.9636Z" fill="#343434" fill-opacity="0.2"/>
<path d="M22.1201 18.2429C20.8076 19.5706 20.8076 21.7272 22.1201 23.0603C23.4367 24.3862 25.5697 24.3862 26.884 23.0603C28.1967 21.7272 28.1967 19.5706 26.884 18.2429C25.5697 16.9151 23.4367 16.9151 22.1201 18.2429Z" fill="#343434" fill-opacity="0.2"/>
<path d="M27.781 12.5214C26.4662 13.8488 26.4662 16.0071 27.781 17.3331C29.0955 18.6702 31.2269 18.6702 32.5435 17.3331C33.8545 16.0071 33.8545 13.8488 32.5435 12.5214C31.2269 11.1897 29.0955 11.1897 27.781 12.5214Z" fill="#343434" fill-opacity="0.2"/>
<path d="M10.809 18.2429C9.49075 19.5706 9.49075 21.7286 10.809 23.0603C12.1237 24.3862 14.2551 24.3862 15.5716 23.0603C16.8845 21.7286 16.8845 19.5706 15.5716 18.2429C14.2551 16.9151 12.1237 16.9151 10.809 18.2429Z" fill="#343434" fill-opacity="0.2"/>
<path d="M5.15045 12.5214C3.83396 13.8524 3.83396 16.0071 5.15045 17.3331C6.46481 18.6702 8.59612 18.6702 9.9108 17.3331C11.227 16.0071 11.227 13.8524 9.9108 12.5214C8.59612 11.1897 6.46481 11.1897 5.15045 12.5214Z" fill="#343434" fill-opacity="0.2"/>
<path d="M16.4627 12.5214C15.1537 13.8488 15.1537 16.0071 16.4627 17.3331C17.7788 18.6702 19.9083 18.6702 21.2288 17.3331C22.5431 16.0071 22.5431 13.8488 21.2288 12.5214C19.9083 11.1897 17.7788 11.1897 16.4627 12.5214Z" fill="#343434" fill-opacity="0.2"/>
<path d="M10.809 6.79833C9.49075 8.12944 9.49075 10.2842 10.809 11.6159C12.1237 12.9458 14.2551 12.9458 15.5716 11.6159C16.8845 10.2842 16.8845 8.12944 15.5716 6.79833C14.2551 5.46638 12.1237 5.46638 10.809 6.79833Z" fill="#343434" fill-opacity="0.2"/>
<path d="M22.1201 6.79833C20.8076 8.12944 20.8076 10.2842 22.1201 11.6159C23.4367 12.9458 25.5697 12.9458 26.884 11.6159C28.1967 10.2842 28.1967 8.12944 26.884 6.79833C25.5697 5.46638 23.4367 5.46638 22.1201 6.79833Z" fill="#343434" fill-opacity="0.2"/>
<path fill-rule="evenodd" clip-rule="evenodd" d="M16.4627 1.07406C17.7788 -0.257263 19.9083 -0.257263 21.2288 1.07406C22.5431 2.4058 22.5431 4.55968 21.2288 5.88933C19.9083 7.21918 17.7788 7.21918 16.4627 5.88933C15.1537 4.55968 15.1537 2.4058 16.4627 1.07406Z" fill="#343434" fill-opacity="0.2"/>
</svg>
