<svg xmlns="http://www.w3.org/2000/svg" width="73" height="35" fill="none"><g clip-path="url(#a)"><path fill="#343434" fill-opacity=".2" d="M0 35h35.37V0H0v35ZM71.94 0h-34.3v35H73V0h-1.06Z"/><path fill="#fff" d="M39.76 32.9h31.12V2.1H39.76v30.8ZM3.24 19.18v7.3h1.21v-2.12c.24.2.5.32.78.32.4 0 .74-.2 1-.62.29-.47.43-1.16.43-2.06 0-.62-.12-1.19-.34-1.67l-.04-.08-.04-.06-.03-.07-.04-.05-.04-.07-.05-.06-.04-.05-.04-.06-.05-.05-.04-.05-.06-.05-.05-.04-.05-.05-.05-.04-.06-.04-.05-.04-.07-.03-.05-.04-.05-.02-.07-.03-.06-.03-.07-.02-.07-.03-.06-.01-.07-.01-.06-.02-.08-.02H4.8l-.08-.02h-.06l-.08-.01H3.24Zm1.15 1.03h.12c.3 0 .54.18.71.51.17.34.25.86.25 1.57a2 2 0 0 1-.16.9c-.1.21-.24.32-.4.32-.14 0-.26-.1-.36-.29-.1-.18-.16-.45-.16-.8v-2.2ZM31.84 18.82l-.1.1L29 21.75v-2.58h-1.18v7.32H29v-3l1.74-1.83.17 4.83h1.22l-.3-7.67ZM26.04 18.92v.01h-.02v.03l-.02.01-.03.02-.02.02-.02.03-.03.03-.03.03-.03.03-.04.04-.04.04-.03.04-.05.04-.04.05-.1.1-.1.1-.1.11-.12.12-.11.12-.12.12-.12.12-.13.13-.24.26-.13.12-.12.12-.11.12-.11.13-.11.1-.1.11-.1.1-.05.05-.04.04-.04.05-.04.04-.04.03-.03.04-.03.03-.03.03-.03.03-.02.02-.02.02-.02.02-.01.01-.01.02v-2.57h-1.2v7.3h1.2v-3l1.73-1.81.17 4.82h1.21l-.29-7.67-.1.1ZM19.13 24.67l-.08-.09-.06-.09-.06-.1-.06-.1-.05-.1-.05-.1-.05-.12-.03-.1-.03-.13-.04-.11-.02-.13-.02-.12-.02-.13-.01-.13v-.14l-.01-.14c0-.76.19-1.38.56-1.83.4-.49 1-.73 1.77-.73h.06V19h-.06c-1.2 0-2.13.37-2.76 1.1a4.1 4.1 0 0 0-.86 2.75 4 4 0 0 0 .93 2.74c.66.74 1.56 1.11 2.7 1.11h.06v-1.28h-.05c-.75 0-1.35-.25-1.76-.75ZM9.57 19c-.64 0-1.15.35-1.52 1.06-.36.69-.54 1.6-.54 2.73 0 1.16.17 2.1.51 2.78.35.7.87 1.06 1.55 1.06.69 0 1.24-.38 1.62-1.1.36-.7.54-1.62.54-2.76 0-1.11-.18-2.03-.55-2.71l-.04-.07-.04-.07-.03-.06-.05-.05-.03-.06-.05-.05-.04-.05-.04-.05-.04-.05-.05-.06-.04-.04-.05-.04-.04-.03-.06-.04-.04-.04-.05-.04-.05-.03-.06-.03-.05-.02-.05-.03-.05-.02-.06-.03-.05-.01-.07-.03-.05-.01-.06-.02h-.11L9.76 19 9.7 19h-.13Zm0 1.17c.34 0 .58.24.74.72.14.44.2 1.07.2 1.89 0 .78-.07 1.44-.23 1.94l-.03.06v.04l-.02.03-.02.04v.04l-.03.04-.02.04-.02.03-.02.04-.02.02-.02.04-.01.03-.03.03-.02.02-.02.03-.02.01-.02.03-.02.02-.03.02-.03.02-.02.01-.03.02-.01.01-.03.01h-.02l-.03.02h-.05l-.03.02h-.09c-.3 0-.51-.24-.68-.73a6.22 6.22 0 0 1-.25-1.92c0-.78.08-1.43.25-1.91.16-.47.38-.7.68-.7ZM14.54 24.67l-.03-.04-.03-.05-.07-.09-.06-.1-.06-.1-.05-.1-.05-.1-.04-.12-.04-.1-.04-.13-.03-.11-.02-.13-.02-.12-.02-.13v-.13l-.02-.14v-.14c0-.76.19-1.38.56-1.83.4-.49 1-.73 1.77-.73h.06V19h-.06c-1.2 0-2.13.37-2.75 1.1a4.07 4.07 0 0 0-.87 2.75c0 1.12.32 2.05.94 2.74.65.74 1.56 1.11 2.7 1.11h.06v-1.28h-.06c-.76 0-1.35-.25-1.77-.75ZM3.25 8.45v7.35h1.37V9.67H6.3v6.13h1.36V8.45H3.25ZM11.87 8.26c-.73 0-1.31.36-1.72 1.07-.4.7-.6 1.62-.6 2.75 0 1.16.18 2.12.57 2.8.4.71.98 1.07 1.75 1.07s1.39-.37 1.82-1.11c.4-.7.62-1.63.62-2.76s-.22-2.06-.63-2.75l-.04-.06-.04-.07-.04-.07-.06-.05-.04-.06-.05-.06-.04-.05-.05-.05-.05-.05-.04-.04-.06-.05-.05-.04-.05-.04L13 8.6l-.06-.04-.05-.03-.06-.04-.05-.02-.07-.03-.05-.03-.06-.02-.07-.03-.05-.01-.07-.03-.07-.01-.06-.01-.07-.02H12.01l-.06-.02h-.08Zm0 1.24c.38 0 .64.24.82.7.15.44.23 1.06.23 1.88 0 .78-.09 1.43-.27 1.92-.18.48-.43.7-.77.7H11.73l-.02-.02h-.03l-.03-.01-.02-.02-.03-.01-.03-.01-.02-.02-.03-.02-.03-.02-.02-.02-.03-.01-.01-.03-.03-.03-.03-.02v-.03l-.03-.03-.03-.04-.01-.02-.03-.03-.01-.04-.03-.04-.01-.02-.02-.06-.02-.03-.02-.04-.01-.04-.03-.04a5.67 5.67 0 0 1-.27-1.91c0-.78.09-1.42.27-1.9.18-.46.43-.69.76-.69ZM21.75 8.45v1.22h1.14v6.13h1.37V9.67h1.15V8.45h-3.66ZM18.76 11.01H18c-.3 0-.54-.07-.68-.2-.1-.1-.15-.23-.15-.4V8.45H15.8v2.1c0 .48.2.9.57 1.22.38.32.84.48 1.38.48h1v3.55h1.36V8.45h-1.36v2.56ZM27.2 8.46l-.26 7.35h1.36l.13-3.6h1.7l.4 3.6h1.38l-.64-5.38v-.32l-.02-.06V10l-.02-.05v-.07l-.02-.05-.01-.05-.02-.06-.01-.05-.03-.05-.01-.05-.01-.06-.03-.05-.03-.04-.02-.05-.02-.04-.02-.05-.03-.04-.04-.04-.03-.05-.02-.03-.04-.05-.03-.03-.04-.04-.04-.04-.04-.02-.03-.04-.05-.04c-.34-.27-.8-.4-1.4-.4H27.2Zm1.3 1.21h.49c.35 0 .6.12.74.33.12.18.2.52.25 1h-1.52v-.21l.01-.04v-.52l.02-.06V9.8l.01-.03V9.66Z"/><path fill="#343434" fill-opacity=".2" d="m48.35 11.31.05.11.06.1.06.12.06.11.04.05.04.06.04.06.04.06.05.05.05.06.04.06.06.06.06.06.05.06.06.06.07.06.06.07.07.06.08.06.08.07.08.06.08.07.08.07.1.07.1.07.09.07.1.07.11.07c.26.18.56.55.33 1.07-.22.52-.63 1.25-.38 1.54.25.29 1.12.44 1.84.15 0 0 .16.45.42.74 0 0-.13.25-.54.12 0 0 .16.37-.06.77 0 0-.48-.08-.69-.52 0 0-.19.34-.57.46 0 0-.32-.16-.25-.79 0 0-.24.56-.95.66 0 0-.42-.52.12-1.22 0 0-.39.34-1.09.18 0 0-.11-.35.53-.85 0 0-.72-.03-1-.62 0 0 .3-.37 1.05-.3 0 0-.7-.14-.85-.96 0 0 .5-.31 1.3.19 0 0-.14-.26-.48-.52-.33-.25-.73-.98-.59-2.05ZM51.24 19.55l-.02-.02-.02-.03-.02-.03-.02-.02-.01-.03-.02-.02-.01-.03-.02-.02-.02-.03-.01-.02-.01-.03-.02-.03v-.02l-.02-.02-.02-.03v-.03c.12 1 .16 1.67.7 2.31 0 0 .34-.43.12-1.47a1.1 1.1 0 0 1-.3-.14s.13.42.06.85c0 0-.2-.14-.34-1.14ZM50.3 19.44l-.01-.01v-.01h-.02v-.02h-.02v-.02h-.01v-.02l-.02-.01-.01-.03-.02-.02-.02-.03-.02-.02-.01-.03-.02-.03-.02-.02-.01-.02-.02-.03v-.01l-.01-.01-.01-.02c-.05.57-.2 2.09.31 2.56 0 0 .35-.25.48-2.47-.08.13-.21.26-.27.33 0 0 .08.7-.17 1.2 0 0-.26-.2-.1-1.26ZM49.08 20.6l.03-.04.04-.06.04-.06.03-.07.04-.07.03-.07.02-.08.04-.08.02-.08.03-.09.02-.08.02-.09.04-.17.02-.08.02-.09.02-.08v-.08l.02-.08.01-.08.01-.07.01-.07.01-.06.01-.06v-.06l.01-.04v-.04l.01-.03v-.07l.19-.14.07-.06v.17c-.06.92-.13 1.87-.42 2.35-.29.46-.81.7-.81.7-.5-.86.1-2.02.6-2.84l.19-.07c-.18.62-.51 1.36-.37 1.93ZM47.85 17.95v.07l.01.01V18.1l.01.02v.03h.01v.03l.03.06c-.41.4-.72.78-1.33 1.62-.61.84-1.58.87-1.58.87.1-.68.28-1.22.8-1.8a10.5 10.5 0 0 1 1.66-1.45c.13.06.3.1.5.07h.05a.73.73 0 0 0-.13.24c-.37.2-1.44.75-1.87 1.6 0 .01.68-.2 1.84-1.43ZM47.09 17.1l.04-.08a.43.43 0 0 1 .04-.06c-.4.15-1.82.68-2.28.92-.45.23-1.12.77-1.48 1.85 0 0 .96.09 1.75-.56.8-.65 1.71-1.55 2.1-1.84a.5.5 0 0 1-.09-.1s-1.06.94-2.2 1.34c0 0 .25-.43.7-.75.54-.38.94-.5 1.42-.72ZM46.28 16.46v-.01l.01-.02v-.01l.01-.01v-.02l.01-.02.01-.01v-.01c-.46.1-1.63.23-2.15.39-.53.16-1.47.54-2.03 1.6 0 0 .83.25 2.37-.48 1.56-.72 2.04-.87 2.34-.95-.24-.01-.4-.1-.5-.14-.6.27-1.43.6-2.26.61 0 0 .4-.28.83-.46.47-.19.97-.36 1.36-.46ZM46.32 15.7l.02.01.03.01.03.01.03.02h.02l.03.01.03.01h.02l.03.02h.03l.03.01h.03l.02.01h.06l.02.01h.03c-.1.08-.2.16-.3.28-.55.16-1.48.32-3.02.43-1.54.12-2.35-.16-2.35-.16a6.92 6.92 0 0 1 1.96-.77c.58-.1 2.1-.1 2.76-.19l.23.16c-.57.05-1.76.1-2.38.4 0 0 1.14.15 2.64-.28ZM46.2 14.82h.02l.01-.01.02-.01.01-.01.02-.01h.02l.01-.02h.02l.02-.01.01-.01h.02l.03-.02h.01l.02-.01.02-.01.03-.01c-.78-.23-1.85-.6-3.46-.71a8.7 8.7 0 0 0-2.47.1s1.07.75 2.3 1.02c1.23.26 2.23.1 2.95.1.06-.08.11-.15.2-.23-.86 0-2.28-.21-2.79-.38 0 0 1.24-.26 2.98.23ZM46.2 13.92v.02l.01.01V14l.01.01.01.02v.02l.02.02v.03l.02.02v.02l.03.03.01.03.02.02.02.03.01.03.03.03.02.02.03.03.02.03.03.03.03.03.03.02.04.03.04.03.04.02.04.03.04.02.05.03c-1.1-.48-3.25-.75-4.4-1.23-1.56-.64-1.85-1.44-1.85-1.44 1.35-.04 2.45.3 3.29.55 1 .3 2.5.85 3.01 1.09-.2 0-.4.05-.59.18-.73-.28-1.08-.4-1.75-.59-.52-.14-.91-.17-1.24-.2 0 0 .47.3 1.23.54.75.24 1.08.28 1.7.4ZM46.12 12.73v.02l.01.01.01.02.01.02h.01v.02h.01l.01.02v.02l.02.02.03.02.01.03.02.02v.02h.01V13h.02v.02h.02v.02l.01.01v.01l.01.01v.01a7.82 7.82 0 0 1-4.21-2.38c-.59-.8-.42-2-.42-2 .57.11 1.81 1.17 2.13 1.49.32.31 1.3 1.25 1.96 1.77l.2.6c-.56-.46-1.24-.96-1.67-1.28a5.22 5.22 0 0 0-1.3-.76 5.94 5.94 0 0 0 2 1.66c.3.17.47.27 1.1.56Z"/><path fill="#343434" fill-opacity=".2" d="M50.99 17.53v-.01l.02-.01.02-.02v-.01h.02v-.02h.01v-.01l.02-.01.01-.02h.01l.01-.01.02-.02c.08.1.34.43.47.76.1.28.2.66.26.88.05.22.2.67.3.83 0 0-.42.06-.73-.3-.3-.36-.4-.72-.46-1.08-.03-.29-.02-.69.02-.95ZM50.32 17.58h.01v.02h.02v.03h.02l.01.02h.01l.01.01v.01h.02v.01h.01v.01h.01v.01h.01l.01.01h.01v.01h.01l.06.04.06-.02.14-.06c.07.16.09.25.11.4.02.18.06.48-.02.73-.09.3-.27.47-.37.6 0 0-.27-.31-.35-.56a1.39 1.39 0 0 1-.01-.86c.06-.17.15-.32.22-.41ZM49.38 17.6h.1l.04-.02.05-.01.05-.02h.05l.04-.02.04-.02.04-.02.04-.01.04-.02.03-.02.04-.02.03-.02.03-.02.03-.02c.04.09.1.23.05.4-.04.2-.17.41-.36.56-.29.22-.66.43-1.08.36 0 0-.1-.3.74-1.07ZM49.06 17.09v.05l.01.02v.03l.01.02v.02l.01.02v.03l.02.02v.03l.02.02v.02l.01.02.01.01v.02l.02.01v.02l.02.02v.03h.01v.01l.01.01.01.01.01.01h.01v.01c-.1.12-.45.72-1.2.62 0 0-.2-.41.3-.74.33-.22.5-.27.72-.34ZM49.12 16.57l-.03.01-.04.01h-.04l-.04.01h-.05l-.04.01H48.53l-.03-.01h-.03l-.02-.01-.03-.01h-.03l-.03-.02-.09-.01-.02-.09c-.38.31-.83.37-.99.64 0 0 .2.35.69.29.49-.06.86-.29 1.12-.62l.05-.2ZM48.27 16.14l.01-.02.02-.02v-.02l.02-.03.02-.02V16l.02-.02.01-.03.02-.02.01-.04.01-.01.01-.01.01-.02.01-.01.01-.02.01-.01.01-.02.01-.01.02-.02.01-.01.02-.02a2.47 2.47 0 0 0-1 0c-.45.09-.91.2-1.14.87 0 0 .29.25.82.14.44-.09.83-.28 1.06-.6ZM48.08 15.4l-.02-.02-.03-.02-.02-.02-.02-.02-.01-.02-.02-.03-.03-.02-.01-.02-.02-.03-.02-.02-.02-.03-.02-.03-.01-.03-.02-.02-.01-.03-.02-.04-.04-.08c-.39-.16-.8-.24-1.2-.1-.4.16-.5.33-.6.48 0 0 .44.37.95.38.51.02.98-.13 1.19-.28ZM48.2 14.6l.02-.01h.03l.01-.01.02-.01.02-.01h.04l.01-.01h.03l.01-.01h.03a1.4 1.4 0 0 1-.42-.74c-.18.04-.62.04-.8-.03a1.01 1.01 0 0 0-.85.12s.1.5.75.67c.62.16.84.12 1.1.04ZM47.96 13.62l.08-.06c.02 0 .16-.1.42-.1-.21-.17-.72-.59-1.08-.78a5.16 5.16 0 0 0-1.36-.55s.31.8.67 1.12c.37.34.63.46 1.27.37ZM48.62 13.25l-.03-.04-.02-.04-.03-.04-.03-.04-.02-.05-.03-.05-.02-.05-.02-.05-.03-.05-.02-.05-.02-.06-.02-.05-.02-.06-.02-.06-.02-.06-.01-.06c-.08-.27-.25-.93-.35-1.1-.1-.18-.47-.78-1.18-.96 0 0-.18.77.17 1.4.31.54.94 1.1 1.72 1.47ZM52.56 16.9l.02.02.02.01.01.02h.02l.01.02.02.01.01.02.02.01.02.01.02.02h.02v.01l.02.01h.01l.01.01h.02v.02h.02l.01.01.02.01h.01s.23.44-.05.95c-.27.52-.5 1.04-.61 1.34 0 0-.15-.02-.31-.83-.11-.55-.25-.69-.4-.87.16.08.29.1.3.1l.1.02.06-.1c.1-.18.12-.36.12-.5v-.15c.25.01.39-.12.44-.18l.01-.02.03.03Z"/><path fill="#343434" fill-opacity=".2" d="M46.53 10.7v.25l.02.2-1.4-1.76a3.7 3.7 0 0 0-.92-.84 4.2 4.2 0 0 0 1.06 1.64c.33.3.8.8 1.27 1.1l.04.15c.04.14.1.28.17.42.11.19.25.37.42.55l-.45-.2-.14-.06a8.28 8.28 0 0 1-3.05-3.02c-.52-.97-.3-2.09-.17-2.69.58.49 1.42 1.44 1.78 1.96.45.64 1.02 1.55 1.37 2.29v.02ZM64.43 14.82h-.01l-.01-.01-.02-.01-.01-.01-.02-.01h-.02l-.02-.02h-.01l-.02-.01-.02-.01h-.02l-.02-.02h-.02l-.02-.01-.02-.01-.02-.01c.78-.23 1.85-.6 3.46-.71a8.67 8.67 0 0 1 2.47.1s-1.08.75-2.3 1.02c-1.23.26-2.23.1-2.96.1-.05-.08-.1-.15-.19-.23.86 0 2.27-.21 2.78-.38 0 0-1.23-.26-2.98.23ZM64.44 13.92v.02l-.01.01V14l-.02.01v.04l-.02.02-.01.03-.01.02-.02.02v.03l-.02.03-.02.02-.02.03-.02.03-.02.03-.02.02-.03.03-.03.03-.03.03-.03.03-.03.02-.03.03-.05.03-.03.02-.04.03-.05.02-.04.03c1.09-.48 3.24-.75 4.4-1.23 1.56-.64 1.85-1.44 1.85-1.44a9.9 9.9 0 0 0-3.3.55c-.98.3-2.48.85-3.01 1.09.2 0 .42.05.6.18.73-.28 1.07-.4 1.74-.59.53-.14.91-.17 1.24-.2 0 0-.46.3-1.22.54-.76.24-1.09.28-1.7.4ZM64.52 12.73v.03h-.01l-.01.02-.01.02-.02.02-.02.04-.02.02-.02.02-.01.03-.02.02v.02h-.02V13h-.01v.02h-.02v.02l-.01.01v.01l-.02.01v.01a7.82 7.82 0 0 0 4.21-2.38c.6-.8.43-2 .43-2-.57.11-1.81 1.17-2.13 1.49-.32.31-1.3 1.25-1.96 1.77l-.21.6c.57-.46 1.25-.96 1.68-1.28.33-.25.8-.59 1.3-.76 0 0-.45.58-.8.86-.43.33-.85.61-1.2.8-.3.17-.47.27-1.1.56ZM64.1 10.7v.25l-.01.2 1.4-1.76c.33-.4.6-.65.9-.85a4.15 4.15 0 0 1-1.04 1.64c-.33.3-.8.8-1.27 1.11l-.04.15a2.16 2.16 0 0 1-.6.97l.45-.2.15-.07a8.28 8.28 0 0 0 3.05-3.01c.52-.97.3-2.1.16-2.7-.58.5-1.41 1.45-1.77 1.97-.45.64-1.02 1.55-1.38 2.28v.02ZM48.17 18.33l-.06.06-.05.05-.06.06-.06.06-.06.06-.06.07-.07.07-.06.08-.07.07-.07.08-.06.09-.07.08-.06.09-.07.1-.06.09-.07.1-.05.1-.06.09-.06.1-.05.1-.06.1-.04.12-.04.1-.04.12-.04.1-.03.12-.02.11-.02.12-.01.11v.12l-.01.12.01.12s1.03-.32 1.45-1.07c.43-.74.69-1.22.87-1.38a1.2 1.2 0 0 1-.34 0l-.1-.02a4.55 4.55 0 0 1-1.25 1.51s-.11-.63 1.26-1.9l.08-.16a1.1 1.1 0 0 1-.43.06M62.29 11.31l-.06.11-.05.1-.06.12-.07.11-.04.05-.03.06-.05.06-.04.06-.04.05-.05.06-.05.06-.05.06-.06.06-.05.06-.06.06-.07.06-.07.07-.06.06-.08.06-.08.07-.08.06-.08.07-.09.07-.09.07-.09.07-.1.07-.1.07-.11.07c-.27.18-.56.55-.33 1.07.22.52.63 1.25.38 1.54-.25.29-1.13.44-1.85.15 0 0-.15.45-.41.74 0 0 .13.25.54.12 0 0-.16.37.06.77 0 0 .48-.08.68-.52 0 0 .2.34.58.46 0 0 .32-.16.25-.79 0 0 .23.56.95.66 0 0 .42-.52-.12-1.22 0 0 .38.34 1.09.18 0 0 .1-.35-.53-.85 0 0 .72-.03 1-.62 0 0-.31-.37-1.06-.3 0 0 .7-.14.85-.96 0 0-.5-.31-1.28.19 0 0 .13-.26.47-.52.32-.25.73-.98.59-2.05ZM59.4 19.55l.02-.02.02-.03.01-.03.03-.02.01-.03.02-.02.01-.03.02-.02.02-.03v-.02l.02-.03.01-.03.02-.02v-.02l.02-.03.01-.03c-.12 1-.16 1.67-.7 2.31 0 0-.34-.43-.12-1.47.09-.03.19-.07.29-.14 0 0-.13.42-.05.85 0 0 .2-.14.34-1.14ZM60.34 19.44l.01-.01v-.01h.01l.01-.02h.01l.01-.02.02-.02v-.01l.02-.03.02-.02.01-.03.03-.02.01-.03.02-.03.01-.02.02-.02.01-.03.02-.01v-.03h.01c.05.57.2 2.09-.31 2.56 0 0-.35-.25-.48-2.47.08.13.21.26.27.33 0 0-.09.7.17 1.2 0 0 .26-.2.1-1.26ZM61.56 20.6l-.04-.04-.04-.06-.03-.06-.03-.07-.04-.07-.03-.07-.03-.08-.03-.08-.02-.08-.03-.09-.02-.08-.03-.09-.03-.17-.02-.08-.02-.09-.02-.08v-.08l-.02-.08-.01-.08-.01-.07-.01-.07-.01-.06-.01-.06v-.06l-.01-.04v-.04l-.01-.03v-.07l-.19-.14-.07-.06-.01.17c.07.92.14 1.87.43 2.35.29.46.81.7.81.7.5-.86-.1-2.02-.6-2.84a1.43 1.43 0 0 1-.19-.07c.18.62.5 1.36.37 1.93ZM62.78 17.95v.14h-.01v.04l-.01.01v.03l-.03.06c.41.4.72.78 1.33 1.62.6.84 1.58.87 1.58.87a3.08 3.08 0 0 0-.8-1.8 10.7 10.7 0 0 0-1.66-1.45.9.9 0 0 1-.5.07h-.05c.06.08.1.16.13.24.36.2 1.44.75 1.87 1.6 0 .01-.68-.2-1.85-1.43ZM63.55 17.1l-.04-.08a.42.42 0 0 0-.04-.06c.4.15 1.8.68 2.27.92a3.1 3.1 0 0 1 1.48 1.85s-.96.09-1.75-.56c-.78-.65-1.7-1.55-2.1-1.84a.41.41 0 0 0 .1-.1s1.06.94 2.2 1.34c0 0-.25-.43-.7-.75-.54-.38-.94-.5-1.42-.72ZM64.36 16.46v-.01l-.01-.02v-.01l-.02-.01v-.03l-.01-.01v-.02c.46.1 1.63.24 2.15.4a3.3 3.3 0 0 1 2.03 1.59s-.83.25-2.38-.47a14.32 14.32 0 0 0-2.33-.95c.24-.02.4-.1.49-.15.62.27 1.44.6 2.27.62 0 0-.41-.28-.84-.46-.46-.2-.96-.37-1.35-.47ZM64.32 15.7l-.02.01-.03.01-.03.01-.03.02h-.02l-.03.01-.03.01h-.02l-.03.02h-.03l-.03.01H64l-.03.01h-.05l-.02.01h-.04c.1.08.21.16.3.28.55.16 1.48.32 3.02.43 1.54.12 2.36-.16 2.36-.16a6.92 6.92 0 0 0-1.97-.77c-.57-.1-2.09-.1-2.76-.19 0 .01-.08.08-.22.16.56.05 1.76.1 2.37.4 0 0-1.13.15-2.63-.28Z"/><path fill="#343434" fill-opacity=".2" d="m59.65 17.53-.02-.02h-.01l-.01-.02-.01-.01-.02-.02-.01-.01v-.01h-.02v-.02h-.02v-.01h-.01v-.02c-.1.1-.36.43-.49.76-.1.28-.2.66-.25.88-.06.22-.21.67-.3.83 0 0 .4.06.72-.3.3-.36.42-.72.46-1.08a3.8 3.8 0 0 0-.01-.95ZM60.31 17.58l-.01.02h-.01v.01l-.02.02-.02.02-.01.01-.01.01-.01.01h-.01l-.01.01-.01.01h-.01l-.01.01h-.01v.01h-.01l-.06.04-.06-.02-.14-.06c-.06.16-.09.25-.1.4-.02.18-.06.48.01.73.1.3.27.47.37.6 0 0 .28-.31.35-.56a1.35 1.35 0 0 0-.2-1.27ZM61.26 17.6h-.1l-.05-.02-.05-.01-.05-.02h-.04l-.04-.02-.04-.02-.04-.02-.04-.01-.04-.02-.04-.02-.03-.02-.03-.02-.04-.02-.02-.02c-.04.09-.1.23-.06.4.05.2.18.41.37.56.28.22.66.43 1.08.36 0 0 .1-.3-.74-1.07ZM61.58 17.09v.02l-.01.03v.05l-.01.02v.02l-.02.02v.05l-.01.01-.01.02v.02l-.01.02-.02.02v.01l-.01.02v.01l-.01.02h-.01v.02l-.01.01v.02h-.02v.02h-.01v.01h-.01v.01h-.01v.01c.1.12.45.72 1.2.62 0 0 .19-.41-.3-.74-.33-.22-.5-.27-.72-.34ZM61.51 16.57l.04.01.04.01h.04l.04.01h.05l.04.01h.35l.03-.01h.03l.02-.01.03-.01h.03l.03-.02.08-.01.03-.09c.38.31.83.37.99.64 0 0-.2.35-.69.29-.49-.06-.86-.29-1.12-.62a1.5 1.5 0 0 0-.06-.2ZM62.37 16.14v-.01l-.01-.01-.02-.02-.01-.02-.01-.03-.02-.02V16l-.02-.02-.02-.03v-.02l-.02-.04-.02-.01v-.01l-.01-.02-.01-.01-.01-.02-.01-.01-.01-.02-.01-.01-.02-.02-.01-.01-.02-.02c.32-.07.61-.08 1 0 .45.09.91.2 1.14.87 0 0-.3.25-.82.14a1.66 1.66 0 0 1-1.06-.6ZM62.56 15.4l.02-.02.02-.02.02-.02.02-.02.02-.02.02-.03.02-.02.02-.02.02-.03.02-.02.01-.03.02-.03.02-.03.01-.02.02-.03.01-.04.04-.08c.4-.16.8-.24 1.2-.1.4.16.51.33.61.48 0 0-.44.37-.95.38-.51.02-.99-.13-1.2-.28ZM62.44 14.6l-.03-.01h-.02l-.02-.01v-.01h-.02l-.02-.01h-.02l-.02-.01h-.03l-.02-.01h-.03c.18-.16.34-.39.43-.74.19.04.61.04.8-.03.19-.07.56-.08.85.12 0 0-.1.5-.75.67-.62.16-.85.12-1.1.04ZM62.67 13.62l-.08-.06c-.01 0-.16-.1-.4-.1a5.3 5.3 0 0 1 2.43-1.32c0-.01-.31.79-.67 1.11-.37.34-.63.46-1.28.37ZM62.01 13.25l.03-.04.03-.04.03-.04.02-.04.03-.05.03-.05.02-.05.02-.05.03-.05.02-.05.02-.06.02-.05.02-.06.02-.06.02-.06.02-.06c.07-.27.24-.93.34-1.1.1-.18.47-.78 1.17-.96 0 0 .19.77-.16 1.4-.32.54-.95 1.1-1.73 1.47ZM58.08 16.9l-.02.02-.02.01-.01.02H58l-.01.02-.02.01-.02.02-.01.01-.02.01-.02.02h-.02l-.01.01-.01.01h-.02v.01h-.02v.02h-.02l-.01.01-.02.01h-.02s-.22.44.05.95c.28.52.5 1.04.62 1.34 0 0 .15-.02.31-.83.11-.55.26-.69.4-.87-.17.08-.3.1-.3.1l-.1.02-.06-.1a1.04 1.04 0 0 1-.12-.65.52.52 0 0 1-.44-.18l-.02-.02-.02.03Z"/><path fill="#343434" fill-opacity=".2" d="m62.47 18.33.06.06.05.05.06.06.05.06.07.06.06.07.06.07.07.08.07.07.06.08.07.09.07.08.06.09.06.1.07.09.06.1.06.1.06.09.06.1.05.1.05.1.05.12.04.1.04.12.03.1.03.12.03.11.02.12v.11l.01.12v.24s-1.03-.32-1.45-1.07c-.43-.74-.69-1.22-.87-1.38h.34l.1-.02c.26.47.78 1.24 1.24 1.51 0 0 .12-.63-1.25-1.9a.94.94 0 0 0-.09-.16c.13.04.27.06.44.06M54.51 8.23V8.2l.01-.01v-.01h.02l.01-.02h.01l.02-.01h.01l.02-.02h.04l.02-.02h.03l.02-.01h.03l.03-.01h.02l.04-.01h.03l.03-.01h.04l.03-.01h.07l.04-.01h.24c.44 0 .8.07.8.16 0 .1-.36.17-.8.17-.45 0-.8-.08-.8-.16ZM51.78 9.14v-.01h.01v-.01h.02l.01-.01h.01l.01-.01h.01l.02-.01h.02v-.01h.06l.02-.01h.04l.02-.01H52.15l.02-.01h.13c.28 0 .52.04.52.1 0 .04-.24.08-.52.08-.29 0-.52-.03-.52-.09ZM55.48 8.6v.03h-.01v.03h-.01v.01l-.01.02-.01.01-.01.01-.01.01-.01.01h-.01l-.01.01h-.01l-.02.01h-.04a.16.16 0 0 1-.16-.15c0-.08.07-.15.16-.15s.16.07.16.14ZM54.46 8.06 54.43 8l-.02-.06-.03-.05-.02-.06-.02-.05-.02-.06-.03-.05-.01-.05-.03-.05-.02-.05-.01-.04-.02-.05-.02-.05-.01-.04-.02-.04-.02-.04-.01-.05-.01-.03-.01-.04-.02-.04-.01-.03-.01-.03v-.03l-.02-.03v-.05l-.01-.03v-.02l-.01-.02V6.8c0-.1.11-.17.22-.2s.2-.04.27.01c.14.11.27.96.32 1.32-.14.02-.22.04-.37.12ZM54.95 7.92H55.1l.05-.01c-.04-.34-.16-.9-.23-1.13-.07-.22-.16-.38-.3-.42 0 0 .11.3.17.63.07.32.1.63.16.93ZM54.1 9.05h.03l.02-.01.03-.01.03-.01.02-.01.03-.02h.03l.03-.03.02-.01.02-.02.03-.01.03-.02.02-.01.02-.02.03-.02.02-.02.02-.01.01-.02.03-.01.01-.01.02-.02.01-.01.02-.02.01-.01.02-.01.01-.02h.01v-.01h.01c-.47.06-.6.37-.6.37Z"/><path fill="#343434" fill-opacity=".2" d="m54.54 9.03-.04.02-.04.02-.04.02-.04.01-.04.02-.03.01-.05.01-.03.02-.04.01h-.04l-.03.02h-.04l-.03.01H54l-.03.01h-.06l-.03.01H53.67c.09-.15.17-.3.43-.48.26-.19.67-.23.84-.21-.04.12-.21.38-.4.5ZM54.45 9.24c-.3.14-1.26.16-1.77.19H52.35l-.04-.02h-.05l-.04-.01h-.04l-.04-.01-.04-.02h-.12l-.04-.02h-.03l-.04-.02h-.05l-.03-.02-.02-.01h-.04l-.02-.02-.04-.01c.05 1.1.81 1.18.81 1.18v-.24c.24.22.73.38.73.38 0-.14-.06-.25-.06-.25.21.12.33.12.33.12-.02-.16-.11-.34-.11-.34.14.18.31.2.31.2.03-.1-.02-.32-.02-.32.07.1.2.33.63.42.43.09.62-.16.62-.16-.41.03-.8-.36-.8-.36.22-.09.3-.24.3-.24-.13-.1-.26-.12-.26-.12.24-.1.3-.3.3-.3ZM53 9.66v.04s-.66 0-.7.33c-.1-.07-.15-.2-.18-.34 0 0 .47.02.88-.03ZM51.54 9.34v.05l.01.04v.05l.01.04.01.05.01.04.01.04.01.04.01.04.01.05.01.03.02.04.01.04.02.03.01.03.02.04s-.3-.22-.38-.42c-.07-.2-.1-.32.21-.23ZM50.66 9.56a.44.44 0 0 0-.33.18c-.16.22-.1.65.22.84 0 0 .49-.42 1.07-.02 0 0 .13-.07.44-.14v-.01h-.02v-.03l-.02-.01H52v-.02l-.02-.02-.01-.02h-.02l-.01-.02h-.01l-.02-.03h-.01l-.01-.02h-.02l-.01-.02-.03-.01v-.01l-.02-.02h-.03l-.01-.02-.01-.01-.03-.02h-.02l-.02-.01-.02-.01c-.17-.08-.54-.2-.66-.53a1.07 1.07 0 0 0-.35-.02Zm.27.44c.07 0 .14.06.14.13v.03h-.02v.04h-.02v.02H51v.01h-.02v.02h-.02l-.02.01h-.02c-.06 0-.11-.06-.11-.13s.05-.13.11-.13ZM52.13 10.5h.01v.02h.01l.01.01v.02l.02.01v.01l.02.02.01.01.02.01v.02l.02.01.01.03.02.01.03.03.03.03.03.04.01.02.02.01.02.02.01.01.02.01.01.02.02.01.01.02s-.79-.01-.98.66c0 0-.27-.41-.08-.68.21-.29.41-.33.7-.39Z"/><path fill="#343434" fill-opacity=".2" d="M53 10.66h.02l.02.01h.02l.02.01h.02l.01.01h.02l.03.01.02.01h.03l.01.01.02.01h.03v.01h.02l.02.01h.02v-.2c.07 0 .16.03.25.05 0 0 .25.55.45.77 0 0 .01.14-.1.32 0 0-.15-.33-.4-.6a3 3 0 0 0-.54-.43ZM52.32 10.54h.03l.01.01h.02l.01.01h.03l.01.01.02.01h.02l.02.01.03.01h.02l.03.02h.02l.03.02.05.02.05.02.05.02.05.02.03.02h.02l.03.02.02.02h.02l.02.02.03.01.01.01c.25.18.42.38.4.73 0 0-.2-.28-.43-.4-.17-.1-.49-.37-.65-.61ZM52.33 8h.07l.01.01h.03v.01h.02v.01h.01v.01l.02.01.02.01v.01l.01.01.01.02v.01h.01v.04c0 .13-.18.42-.24.54-.05-.12-.23-.41-.23-.53 0-.12.14-.16.21-.16h.05ZM52.16 8.93v-.05l-.01-.02v-.02l-.01-.03-.01-.02v-.05l-.01-.02-.01-.06-.02-.05v-.06l-.02-.05v-.03l-.01-.02v-.02l-.02-.03v-.02l-.02-.02v-.02L52 8.32 52 8.3v-.02l-.02-.02v-.01l-.02-.01v-.01a.47.47 0 0 0-.33-.1c-.07 0-.15.08-.12.18.03.1.36.59.4.64l.25-.02ZM52.45 8.93v-.05l.01-.02v-.02l.01-.03V8.8l.01-.02.01-.03v-.02l.02-.06v-.05l.02-.06.01-.05v-.03l.01-.02.01-.02V8.4l.02-.02v-.02l.01-.02.01-.02.01-.02v-.02l.02-.02v-.01l.02-.01v-.01c.1-.1.25-.1.33-.1.07 0 .14.08.12.18-.04.1-.36.59-.4.64l-.25-.02ZM52.66 7.41h-.26v-.28h-.2v.28h-.25v.18h.25v.32h.2V7.6h.26V7.4ZM49.58 9.2V9.04c.02-.14.03-.26.01-.35-.18.07-.3.11-.56.52 0 0 .4-.25.55-.01Z"/><path fill="#343434" fill-opacity=".2" d="M49.93 9.85v-.09l.01-.03V9.7l.01-.02v-.04l.01-.02v-.03l.01-.02.01-.04.02-.05.01-.04.01-.05.02-.05.01-.05.02-.04v-.02l.02-.02c.1-.28.03-.67-.09-.9a1.29 1.29 0 0 1-.16-.7s-.24.07-.38.16c-.02.28.14.56.22.71.1.2.08.43.06.58-.04.26.02.53.19.79ZM49.95 7.71v-.14l.01-.01s.38-.36.69-.43c.2-.04.32.05.39.1 0 0-.12-.01-.28.12-.17.13-.38.3-.54.34-.16.04-.2.03-.27.02ZM51.06 7.26l.03.02.03.03.02.03.02.02.03.03.02.03.02.02v.01l.02.02v.01l.01.01v.02l.02.01v.01l.01.02.01.02v.01l.01.02v.02l.01.02v.03c0 .13-.16.47-.24.6-.08.12-.2.29-.19.48 0 .1.08.21.17.3 0 0-.46-.11-.52-.39-.05-.25.06-.43.13-.57.07-.13.29-.43.33-.56.06-.12.08-.2.06-.27ZM53.75 10.42l.01.06.02.06.03.06.02.05.02.06.02.06.03.06.03.05.02.05.03.06.03.05.02.05.03.05.03.05.03.04.03.05c.14.21.22.57.21.69 0 0 .2-.46.1-.78-.08-.25-.3-.62-.71-.77ZM54.26 10.52h.11l.02.01h.03l.02.01h.05l.02.01h.02l.02.01h.04l.02.02h.04l.01.01.02.01h.01l.02.02h.01c.2.13.37.4.44.72 0 0-.32-.05-.47-.2a1.81 1.81 0 0 1-.43-.62ZM52.63 11.09h-.05l-.02.01h-.02l-.03.01h-.04l-.02.01h-.02l-.02.01h-.02l-.02.01h-.03v.01s.26.08.4.19c.1.1.2.24.25.48.07.34.27.7.33.81h.03c-.05-.24.1-.72.14-.78 0 0-.21-.14-.3-.28-.08-.1-.2-.27-.56-.48ZM54.03 11.82v.01l.01.02.01.02.02.02v.02l.01.02.01.02.02.02V12l.02.02.02.05.02.05v.02l.02.03v.03l.01.03.01.02v.03l.01.03v.03l.01.03.01.03v.15l-.01.03v.03l-.02.03c-.1.33-.3.47-.44.75 0 0-.1-.5-.09-.9.03-.39.17-.53.35-.67ZM54.63 11.82v.01h.01v.02h.01v.02l.01.01.01.02.01.02.01.03.02.02V12l.03.03.01.03.02.03v.03l.02.03.02.04.02.03.03.08.03.06.01.04.02.03.02.03v.04l.02.03v.03l.02.03v.03l.01.02.01.02c.06.24 0 .39-.1.53s-.29.3-.46.6c0 0-.19-.26-.21-.39a1.8 1.8 0 0 1 .06-.58l.34-1ZM54.8 13.75h-.01l-.01.01-.01.02h-.02v.02l-.02.02-.02.02-.02.02-.01.02-.02.02-.02.02-.02.03-.02.02-.02.02-.04.05-.04.05-.02.03-.01.02-.02.03-.02.02-.02.03-.01.02-.02.02-.01.02-.02.02-.01.02-.01.02v.01l-.01.01v.01l-.01.01c-.05.13-.13.37-.02.53.12.17.37.44.6.55 0 0-.24-.38-.22-.7.01-.2.17-.37.2-.5a.94.94 0 0 0-.08-.51ZM54.07 13.5h.01v.02h.01v.02h.02v.02l.01.02v.01l.02.01v.03l.01.02.02.04.02.03v.03l.02.03v.03l.02.03v.09l.01.02c.01.18-.01.32-.11.6-.12.32-.32.7-.41.86 0 0-.17-.25-.27-.46 0 0 .27-.37.38-.62.14-.3.2-.6.24-.83ZM53.95 13.36v.06l-.01.02v.03l-.01.04-.01.03v.04l-.02.04-.01.05-.02.05v.04l-.02.05-.02.06-.02.05-.02.06-.02.06-.02.06-.02.06-.03.07-.03.06-.03.06-.03.07-.04.06-.03.06-.04.07-.04.06-.04.06-.04.06-.05.06c-.34.43-.62.59-.8.59-.29 0-.57-.24-.66-.5-.1-.26-.07-.68.11-.82 0 0 .17.52.53.54.4.02.92-.43 1.44-1.3Z"/><path fill="#343434" fill-opacity=".2" d="M53.54 13v.07l.02.03V13.2l.01.03v.25l-.02.04v.04l-.01.05a.87.87 0 0 1-.35.5c-.17.11-.57.14-.73-.24 0 0 .74.05 1.08-.88ZM54.75 16.45v.02l.02.03.01.03.01.02.02.03.02.03.02.02.01.03.04.05.04.05.04.05.04.06.03.05.02.02.02.03.01.02.02.03.02.02.01.03.01.02.01.02.01.02.02.03v.06l.01.01c0 .54-.25.86-.3 1.04 0 0-.43-.34-.5-.73-.04-.2 0-.8.34-1.09ZM54.27 16.83v-.03l.01-.02.01-.01v-.02l.02-.02v-.02l.01-.02.01-.02.01-.03.02-.02v-.02l.03-.05.02-.04.03-.06.03-.04.01-.02.01-.03.02-.02.01-.02.02-.02.02-.02.01-.02.02-.02.01-.01.02-.02.02-.01.01-.02s.24-.68-.51-1.1c0 0-.31.4-.4.8-.08.37.33.6.52.95ZM53.32 15.1l-.02.04-.03.02-.02.03-.03.04-.02.02-.03.03-.03.03-.03.03-.02.03-.03.03h-.02l-.01.02-.01.02H53v.02h-.02l-.01.02h-.02l-.01.01-.02.01-.02.01s-.05.3-.02.51c.04.3.23.6.32.84 0 0 .33-.43.36-.68.04-.25.03-.46.04-.58l-.28-.5ZM52.45 16.57v-.02l-.02-.01v-.02l-.02-.02-.02-.03v-.02l-.02-.02-.02-.03-.01-.03-.02-.03-.02-.03-.01-.04-.02-.03-.01-.03-.02-.04-.02-.03-.03-.07-.03-.08-.03-.08-.01-.04-.02-.03v-.05l-.02-.03v-.04l-.01-.04v-.04l-.01-.04v-.03l-.01-.04s.38.2.69.05c0 0 .03.5-.02.66-.05.13-.11.21-.27.33ZM52.54 16.67h.01v-.02h.02l.01-.01.01-.01h.01l.01-.02.03-.03.01-.01.02-.02.03-.02.01-.02.02-.02h.01v-.01l.02-.01.01-.01.01-.02h.01v-.01h.01v-.02s.26.45.3.58c0 0-.12.03-.26-.07-.13-.09-.17-.12-.3-.25ZM53.68 16.4v.03l-.01.01-.01.02v.01l-.02.02v.02l-.03.03-.01.02-.02.02-.01.04-.02.02-.02.03-.02.03-.02.03-.04.06-.05.06-.02.03-.02.03-.01.03-.03.02-.02.03-.01.03-.02.02-.02.02-.01.02-.02.01v.02h-.01v.01h-.01v.01h-.01v.01s.02.2.17.48c.15.29.36.49.47.59 0 0 .24-.43.31-.6.09-.22.08-.44.04-.52-.08-.18-.37-.45-.5-.68ZM54.28 17.84v.02l.02.02v.02l.02.01.01.02.01.02.02.02.01.02.02.02.01.03.03.04.03.05.03.04.03.05.04.04.02.05.01.03.02.02v.02l.02.02.01.03.01.02v.02l.01.03.01.02v.02c.03.18 0 .32-.04.45-.05.12-.21.36-.32.54 0 0-.36-.34-.44-.58a.86.86 0 0 1 .05-.6c.09-.17.28-.34.36-.51ZM53.25 17.8l.01.01.01.02.01.02.01.02.01.02.01.02.03.03.03.05.02.03.03.04.03.04.03.03.02.04.03.04.01.01.01.02.01.02.01.02.01.01.01.02v.02l.02.02v.01l.01.02c.06.2.08.34-.02.59-.1.21-.2.34-.24.47 0 0-.3-.38-.35-.53a1.08 1.08 0 0 1 0-.58c.06-.17.17-.39.24-.54ZM54.7 19.24v.01h-.01v.01h-.01v.02h-.01l-.01.02-.02.02-.02.02-.01.02-.02.03-.02.03-.02.03-.03.03-.02.03-.02.04-.03.03-.02.04-.03.04-.02.03-.02.04-.02.04-.02.04-.02.04-.02.04-.01.03-.02.04-.01.04-.02.04v.07l-.01.01v.05c.01.4.28.66.32.91 0 0 .27-.3.37-.5.11-.22.2-.41.17-.67-.03-.25-.1-.42-.37-.67ZM53.77 19.18l.01.02.01.02.02.01v.02l.02.02v.02l.02.02.01.02.01.02.01.03.02.02.01.03.01.02.02.06.01.03.01.02.01.03.01.03.01.03.01.02v.03l.01.02v.04l.01.02v.15c-.07.23-.33.56-.41.71 0 0-.2-.4-.24-.6-.05-.18 0-.49.4-.86ZM58.85 9.14v-.01l-.01-.01h-.02l-.01-.01h-.01l-.01-.01h-.01l-.02-.01-.02-.01h-.06l-.02-.01h-.03l-.03-.01h-.11l-.02-.01h-.14c-.28 0-.51.04-.51.1 0 .04.23.08.51.08.29 0 .52-.03.52-.09ZM55.32 7.57v-.02l.01-.03V7.5l.01-.03.01-.03.01-.02.02-.03v-.04l.02-.03V7.3l.03-.06.03-.07.03-.07.02-.06.03-.07v-.03l.02-.03.02-.03v-.03l.01-.03.01-.03v-.03l.01-.02V6.7l.01-.03v-.04a.3.3 0 0 0-.3-.3.3.3 0 0 0-.31.3c0 .22.27.7.3.94h.01ZM56.18 8.06 56.2 8l.03-.06.02-.05.03-.06.02-.05.02-.06.02-.05.02-.05.02-.05.02-.05.02-.04.02-.05.02-.05.01-.04.02-.04.02-.04V7.2l.02-.03.01-.04.01-.04.01-.03.02-.03v-.03l.01-.03.01-.03v-.02l.01-.03v-.09c0-.1-.1-.17-.2-.2-.13-.03-.22-.04-.29.01a4.3 4.3 0 0 0-.32 1.32c.14.02.23.04.38.12ZM55.7 7.92h-.17l-.02-.01h-.02c.04-.34.15-.9.22-1.13.08-.22.16-.38.31-.42 0 0-.11.3-.17.63-.07.32-.12.63-.16.93ZM55.94 8.67h.01v.01l.01.01.01.01h.01l.01.02.02.01.01.02.02.01.01.02h.02l.02.02.02.02.02.01.02.02.02.02.03.02.02.01.03.02.02.01.02.02.03.01.03.02.02.01.03.02h.03l.03.02h.02l.03.02h.03s-.12-.31-.6-.38Z"/><path fill="#343434" fill-opacity=".2" d="M55.7 8.52h.19l.02.01h.06l.02.01h.06l.03.01.03.01h.03l.03.01.03.01.03.01h.03l.03.02.03.01.03.01.03.02h.02l.04.02.02.02h.03l.02.03.03.02c.26.17.34.32.43.49 0 0-.46.03-.87-.2-.2-.12-.37-.38-.4-.5ZM56.2 9.24s.05.2.28.3c0 0-.13.01-.25.12 0 0 .08.15.3.24 0 0-.4.39-.81.36 0 0 .19.25.62.16.43-.1.55-.33.63-.42 0 0-.05.22-.02.31 0 0 .18 0 .33-.2 0 0-.12.2-.14.35 0 0 .12 0 .33-.12 0 0-.04.11-.05.25 0 0 .5-.16.74-.38V10.38l-.01.01v.05s.76-.06.82-1.17c0 0-.5.18-1.02.15-.5-.02-1.46-.04-1.76-.18Zm1.43.42c.4.05.89.03.89.03v.02h-.01v.03l-.02.03v.02l-.01.01v.03l-.01.01v.03h-.02v.01l-.01.02-.01.02-.02.01v.02h-.01l-.01.01v.01h-.02l-.01.02V10h-.01l-.02.01-.01.02c-.03-.33-.69-.33-.69-.33v-.04ZM59.1 9.34l-.01.05v.04l-.01.05v.04l-.02.05v.04l-.01.04-.01.04-.01.04-.01.05-.02.03-.01.04-.02.04v.03l-.02.03-.02.04s.3-.22.38-.42c.07-.2.09-.32-.21-.23ZM59.73 9.55l-.02.02h-.02l-.04.01h-.02c-.11.34-.5.45-.68.52-.2.1-.38.32-.38.32.3.07.45.14.45.14a.88.88 0 0 1 1.07.01c.32-.18.38-.6.23-.83l-.03-.03-.01-.02-.02-.02-.02-.01-.02-.01-.02-.02-.02-.01-.02-.01-.03-.02h-.04l-.02-.02h-.03l-.01-.01H59.73Zm-.04.45h.04V10h.03v.02h.03v.03h.02v.06h.02c0 .08-.07.14-.14.14s-.12-.06-.12-.13.06-.13.12-.13ZM58.51 10.5h-.01v.02h-.02v.01l-.01.02-.01.01v.01l-.02.02-.02.01v.01l-.02.02-.01.01-.02.03v.01l-.04.03-.03.03-.03.04-.01.02-.02.01-.02.02-.01.01-.02.01-.01.02-.02.01-.02.02s.8-.01 1 .66c0 0 .26-.41.07-.68-.21-.29-.42-.33-.7-.39Z"/><path fill="#343434" fill-opacity=".2" d="M57.65 10.66h-.04l-.01.01h-.03v.01h-.03l-.01.01h-.02l-.03.01-.03.01h-.02l-.02.01-.01.01h-.02l-.02.01h-.02l-.01.01h-.02v-.2c-.07 0-.17.03-.25.05 0 0-.25.55-.45.77 0 0-.01.14.1.32 0 0 .14-.33.4-.6.14-.15.24-.23.54-.43ZM58.32 10.54h-.03l-.02.01h-.01l-.02.01h-.02l-.02.01-.02.01h-.02l-.02.01-.02.01h-.03l-.02.02h-.03l-.02.02-.06.02-.05.02-.05.02-.05.02-.02.02h-.03l-.02.02-.02.02h-.02l-.03.02-.02.01-.01.01c-.25.18-.42.38-.4.73 0 0 .2-.28.42-.4.18-.1.5-.37.66-.61ZM58.31 8H58.24l-.01.01h-.03v.01h-.02v.01h-.01l-.01.01-.01.01-.02.01v.01l-.01.01-.01.02v.01h-.01v.04c0 .13.18.42.23.54.06-.12.24-.41.24-.53 0-.12-.14-.16-.22-.16h-.04ZM58.48 8.93v-.05l.01-.02V8.8l.01-.02v-.02l.01-.03v-.02l.02-.06.01-.05.01-.06.02-.05v-.03l.01-.02v-.02l.01-.03.01-.02v-.02l.02-.02.01-.02V8.3l.02-.02v-.02l.01-.01.01-.01.01-.01c.1-.1.25-.1.33-.1.07 0 .14.08.12.18-.03.1-.36.59-.4.64l-.25-.02ZM58.19 8.93V8.9l-.01-.02v-.04l-.01-.03-.01-.02v-.02l-.01-.03v-.02l-.02-.06v-.05l-.02-.06-.01-.05-.01-.03v-.02l-.01-.02-.01-.03-.01-.02-.01-.02v-.02l-.02-.02V8.3l-.01-.02-.01-.02-.01-.01v-.01l-.02-.01a.45.45 0 0 0-.32-.1c-.07 0-.15.08-.12.18.03.1.36.59.4.64l.25-.02ZM57.98 7.41h.25v-.28h.21v.28h.25v.18h-.25v.32h-.21V7.6h-.25V7.4ZM54.92 5.77h.26v-.28h.2v.28h.26v.17h-.26v.33h-.2v-.33h-.26v-.17ZM61.06 9.2V9.04a1.15 1.15 0 0 1-.02-.35c.19.07.31.11.56.52 0 0-.4-.25-.54-.01Z"/><path fill="#343434" fill-opacity=".2" d="M60.71 9.85v-.08l-.01-.01V9.7l-.01-.02v-.02l-.01-.02v-.02l-.01-.03-.01-.02-.01-.04-.01-.05-.01-.04-.02-.05v-.05l-.02-.05-.02-.04v-.02l-.02-.02c-.1-.28-.04-.67.08-.9.13-.24.2-.46.17-.7 0 0 .24.07.37.16.02.28-.14.56-.21.71a.98.98 0 0 0-.06.58c.03.26-.02.53-.19.79ZM60.69 7.71v-.13l-.01-.01v-.01s-.38-.36-.7-.43a.42.42 0 0 0-.37.1s.1-.01.27.12.38.3.54.34c.16.04.19.03.27.02ZM59.57 7.26l-.03.02-.02.03-.02.03-.03.02-.02.03-.02.03h-.01l-.01.02-.01.01v.02l-.02.01-.01.01v.02l-.01.01-.01.01v.02h-.01v.02l-.01.01v.02l-.01.02v.05c0 .13.16.47.23.6.08.12.21.29.2.48-.02.1-.08.21-.17.3 0 0 .46-.11.51-.39.06-.25-.05-.43-.13-.57-.07-.13-.28-.43-.33-.56-.05-.12-.07-.2-.06-.27ZM56.9 10.42l-.03.06-.02.06-.02.06-.02.05-.02.06-.02.06-.03.06-.03.05-.02.05-.03.06-.03.05-.03.05-.02.05-.03.05-.03.04-.03.05c-.14.21-.23.57-.21.69 0 0-.21-.46-.1-.78.08-.25.3-.62.71-.77ZM56.37 10.52H56.26l-.02.01h-.03l-.02.01h-.06l-.01.01h-.03l-.02.01h-.03l-.02.02h-.04l-.02.01-.01.01h-.02l-.01.02h-.02c-.19.13-.37.4-.43.72 0 0 .31-.05.47-.2.15-.16.35-.4.42-.62ZM58 11.09h.06l.02.01h.04v.01h.05l.02.01h.02l.02.01h.02l.02.01h.02l.02.01s-.27.08-.4.19a.78.78 0 0 0-.26.48c-.07.34-.27.7-.34.81h-.02c.04-.24-.1-.72-.14-.78 0 0 .2-.14.3-.28.08-.1.2-.27.56-.48ZM56.61 11.82v.01l-.01.02-.01.02-.02.02v.02l-.02.02v.02l-.02.02V12l-.02.02-.02.05-.02.05-.01.02-.01.03-.01.03v.03l-.02.02v.06l-.01.03v.03l-.01.03v.18l.01.03v.03c.1.33.32.47.46.75 0 0 .1-.5.08-.9-.02-.39-.16-.53-.34-.67ZM55.32 12.73v-.04l.02-.02v-.02l.02-.02v-.03l.03-.03.01-.02.02-.03.01-.03.02-.03.02-.03.03-.03.01-.04.04-.06.05-.06.02-.03.02-.04.01-.03.03-.03.01-.03.02-.04.01-.03.01-.02.01-.03.01-.03.01-.03v-.07c-.02-.26-.35-.43-.44-.47-.09.04-.43.21-.45.47-.02.25.43.71.44.9h.01ZM56 11.82v.02l-.01.01v.01l-.01.01v.01l-.01.02-.01.02-.02.03-.01.02-.02.03v.03l-.02.03-.02.03-.01.03-.02.03-.02.04-.01.03-.03.08-.03.06-.02.04-.01.03-.02.03v.04l-.02.03-.01.03-.01.03v.03l-.02.02v.02c-.06.24-.01.39.1.53.1.14.29.3.45.6 0 0 .2-.26.22-.39.02-.14-.01-.45-.06-.58l-.35-1ZM55.32 14.15l.03-.02.02-.03.03-.03.02-.02.03-.03.02-.02.03-.03.02-.03.01-.03.02-.02.01-.02.01-.01.01-.02.01-.02.01-.01v-.01l.01-.02v-.01l.01-.01v-.01l.01-.01c.04-.11.05-.27-.04-.39-.12-.14-.26-.3-.27-.43-.01.13-.16.3-.27.43-.1.12-.09.28-.05.39.05.1.17.29.32.41ZM55.85 13.75l.01.01.01.02h.01l.01.02.02.02.01.02.02.02.02.02.02.02.01.02.02.03.02.02.02.02.04.05.04.05.02.03.02.02.02.03.01.02.03.03.01.02.02.02v.02l.02.02.01.02.01.02.01.01.01.01v.02c.06.13.14.37.03.53a1.9 1.9 0 0 1-.6.55s.24-.38.22-.7c-.02-.2-.17-.37-.2-.5a.85.85 0 0 1 .08-.51ZM56.56 13.5l-.01.02-.01.02-.02.02v.02l-.01.01v.01l-.02.02v.01l-.01.02-.02.04-.01.03-.01.03-.01.03-.01.03-.01.03v.04l-.01.02v.01l-.01.02v.02c-.01.18.02.32.12.6.12.32.31.7.4.86 0 0 .18-.25.27-.46 0 0-.27-.37-.38-.62-.14-.3-.19-.6-.24-.83ZM56.69 13.36v.06l.01.02v.03l.01.04v.03l.02.04v.04l.02.05.01.05.02.04.01.05.02.06.01.05.02.06.02.06.03.06.02.06.03.07.03.06.03.06.03.07.03.06.04.06.03.07.05.06.04.06.04.06.05.06c.34.43.62.59.8.59.29 0 .57-.24.66-.5.1-.26.07-.68-.11-.82 0 0-.17.52-.53.54-.4.02-.93-.43-1.44-1.3Z"/><path fill="#343434" fill-opacity=".2" d="M57.1 13v.05l-.01.02v.03l-.01.04v.03l-.01.04v.28l.01.04.01.04.01.05c.05.16.15.38.35.5.17.11.57.14.73-.24 0 0-.74.05-1.08-.88ZM55.32 15.55l.02-.01.01-.02h.02l.02-.01.02-.01.02-.01.02-.02h.01l.02-.02.02-.02.02-.01v-.01l.01-.01.01-.01.01-.01.02-.02.02-.02v-.02l.02-.01v-.02l.02-.02c.1-.14.18-.4.14-.59-.07-.23-.2-.32-.27-.47-.06.06-.1.1-.18.15-.08-.05-.12-.1-.18-.15-.08.15-.2.24-.27.47-.04.19.04.45.13.6.12.18.21.21.32.27ZM55.32 16.98v-.02l.01-.02.01-.03.01-.02.02-.03.02-.02.01-.03.02-.03.02-.03.02-.03.03-.03.02-.03.04-.06.05-.06.04-.07.02-.03.02-.03.02-.03.02-.03.01-.03.02-.03.02-.03v-.03l.02-.02v-.03l.01-.03V16.1c-.07-.36-.3-.3-.48-.44-.18.15-.42.08-.48.44-.05.23.42.67.48.9ZM55.89 16.45v.02l-.02.03-.01.03-.02.02-.01.03-.02.03-.02.02-.01.03-.04.05-.04.05-.04.05-.04.06-.04.05-.01.02-.02.03-.02.02-.02.03-.01.02-.01.03-.02.02v.02l-.02.02v.03l-.01.02v.02l-.01.02v.01c.01.54.24.86.3 1.04 0 0 .43-.34.5-.73.04-.2 0-.8-.34-1.09ZM56.37 16.83v-.03l-.01-.02-.01-.01v-.02l-.02-.02v-.02l-.01-.02-.01-.02-.02-.03v-.02l-.02-.02-.02-.05-.02-.04-.03-.06-.03-.04-.01-.02-.02-.03-.01-.02-.02-.02-.02-.02-.01-.02-.02-.02-.01-.02-.02-.01-.01-.02-.02-.01-.02-.02s-.23-.68.52-1.1c0 0 .3.4.4.8.08.37-.34.6-.53.95ZM57.31 15.1l.03.04.02.02.03.03.02.04.03.02.03.03.02.03.03.03.03.03.03.03.02.02.02.02h.01l.02.02.02.02h.01l.02.01.01.01h.02v.01s.05.3.03.51c-.04.3-.24.6-.32.84 0 0-.33-.43-.36-.68-.05-.25-.04-.46-.05-.58 0 0 .18-.3.28-.5ZM58.18 16.57l.01-.02.01-.01.01-.02.02-.02v-.03l.02-.02.02-.02.01-.03.02-.03.01-.03.02-.03.02-.04.02-.03.01-.03.02-.04.01-.03.04-.07.03-.08.02-.08.02-.04v-.03l.02-.05.01-.03.01-.04v-.04l.01-.04V15.53s-.36.2-.67.05c0 0-.04.5.02.66.04.13.11.21.26.33ZM58.1 16.67h-.01l-.01-.02h-.02v-.01l-.02-.01-.01-.02h-.01v-.02H58l-.02-.02-.02-.02-.02-.02-.02-.02-.01-.02h-.01l-.01-.01-.01-.01-.01-.01h-.01v-.02h-.01l-.01-.01-.01-.02s-.25.45-.29.58c0 0 .12.03.26-.07.13-.09.16-.12.3-.25ZM56.96 16.4v.03l.01.01v.02l.01.01.01.02.02.02v.03l.02.02.02.02.02.04.02.02.02.03.02.03.02.03.04.06.04.06.02.03.02.03.02.03.02.02.02.03.02.03.02.02.01.02.02.02.01.01.02.02v.01h.01v.01l.01.01s-.03.2-.17.48c-.16.29-.36.49-.47.59 0 0-.24-.43-.31-.6-.09-.22-.08-.44-.04-.52.08-.18.36-.45.5-.68ZM55.32 19.66v-.02l.01-.02v-.01l.01-.02h.01v-.02l.02-.02.01-.02.01-.01.01-.02.02-.02v-.01l.03-.04.03-.03.03-.04.03-.03.02-.05.03-.04.02-.02v-.02l.02-.02.01-.02.01-.02.02-.03v-.02l.02-.03a.63.63 0 0 0-.01-.46c-.07-.14-.33-.5-.36-.6-.04.1-.29.46-.36.6a.6.6 0 0 0 0 .46c.09.27.31.44.35.6h.01ZM56.35 17.84v.02l-.01.02-.01.02-.01.01-.02.02-.01.02-.01.02-.02.02-.01.02-.02.03-.03.04-.03.05-.03.04-.03.05-.03.04-.02.05-.02.03-.01.02-.01.02-.02.02v.03l-.01.02-.01.02v.03l-.01.02v.02c-.04.18 0 .32.03.45l.32.54s.37-.34.44-.58a.86.86 0 0 0-.04-.6c-.1-.17-.28-.34-.37-.51ZM57.39 17.8l-.01.01-.01.02-.01.02-.01.02-.01.02-.01.02-.03.03-.03.05-.03.03-.03.04-.03.04-.02.03-.03.04-.03.04v.01l-.02.02v.02l-.02.02v.01l-.02.02v.02l-.01.02-.01.01v.02c-.06.2-.08.34.02.59.09.21.2.34.24.47 0 0 .3-.38.34-.53a.99.99 0 0 0 0-.58c-.05-.17-.16-.39-.23-.54ZM55.32 22.56v-.04l.01-.03.01-.02.01-.03.01-.02.02-.04.01-.03.02-.03.01-.04.02-.04.01-.04.03-.04.01-.04.02-.04.02-.05.02-.04.02-.05.02-.05.01-.05.02-.05.02-.05.02-.06.01-.05.02-.05v-.05l.02-.06v-.05l.02-.06v-.06l.01-.05v-.06c.02-.3-.26-.78-.42-.96-.16.18-.43.66-.43.96.03.6.41 1.18.43 1.37ZM55.94 19.24v.01h.01v.01h.01v.02h.01l.01.02.01.02.02.02.02.02.02.03.02.03.02.03.02.03.03.03.02.04.02.03.03.04.02.04.03.03.02.04.02.04.02.04.02.04.02.04.01.03.02.04.01.04.01.04.01.03v.1c0 .4-.27.66-.32.91 0 0-.26-.3-.36-.5-.12-.22-.2-.41-.17-.67.03-.25.1-.42.37-.67ZM56.87 19.18h-.01v.02l-.02.02v.01l-.02.02v.02l-.02.02-.01.02-.01.02-.02.02v.03l-.02.02-.01.03-.01.02-.03.06-.01.03-.01.02-.01.03v.03l-.02.03v.02l-.01.03v.02l-.01.04v.17c.07.23.32.56.4.71 0 0 .2-.4.25-.6.04-.18 0-.49-.4-.86Z"/><path fill="#343434" fill-opacity=".2" d="M55.67 23.53v-.08l.01-.04v-.04l.02-.05v-.03l.01-.04.01-.04.02-.03.01-.04.01-.03.02-.04.01-.03.01-.03.04-.06.02-.06.03-.06.03-.05.03-.05v-.03l.02-.03v-.02l.02-.03v-.02l.01-.02v-.03l.01-.02c.06-.27.04-.52-.17-.84-.17.58-.36 1-.5 1.3l-.02.02-.01-.02c-.15-.3-.34-.72-.51-1.3-.21.32-.23.57-.18.84.05.24.32.53.35 1 .03.48-.5.66-.5.66.18.06.38.1.71-.22.06-.06.1-.11.14-.18.03.07.08.12.13.18.34.31.54.28.72.22 0 0-.53-.18-.5-.66ZM53.97 20.39v.01l.02.02v.04l.02.02v.02l.01.02.01.02.02.05.02.04.02.04.02.05.02.04v.02l.01.03.01.01.01.02.01.02v.02l.02.02v.03l.01.01v.02h.01v.02c.05.2 0 .43-.35.67 0 0-.22-.16-.31-.36-.09-.2-.04-.33.05-.42.08-.1.29-.33.37-.48ZM54.7 21.09v.09l-.01.03v.05l-.01.02v.03l-.01.04v.03l-.01.03v.03l-.01.03-.02.07-.02.07-.02.07v.03l-.01.03-.02.04v.03l-.02.03-.01.03-.02.04v.02l-.02.03-.01.02c-.22.38-.54.66-.82.66-.25 0-.3-.15-.44-.22 0 0 .07-.32.36-.4.35-.11.9-.53 1.12-.93Z"/><path fill="#343434" fill-opacity=".2" d="M53.77 21.77v-.01h-.02l-.02-.03-.02-.01-.02-.01-.02-.02-.01-.01-.01-.01-.02-.01v-.01h-.01l-.01-.02h-.01v-.01l-.01-.01s-.27.1-.5.25c-.23.15-.45.4-.56.54 0 0 .33.08.55-.01 0 0 .08-.32.31-.46l.38-.16ZM53.49 21.5v-.01l-.01-.01-.01-.02-.01-.02-.01-.02h-.01l-.01-.02v-.02h-.01v-.02l-.01-.01v-.02h-.01l-.01-.02v-.03l-.01-.02v-.02l-.01-.01v-.04l-.01-.01v-.14l-.62.4c-.15.12-.44.42-.51.52 0 0 .36-.08.64-.17.3-.1.5-.23.62-.3ZM52.69 22l-.03.01h-.02l-.03.02-.03.01h-.03l-.03.02h-.04l-.03.01-.04.01h-.04l-.07.02-.07.02-.08.02-.08.02-.08.01-.07.02h-.03l-.04.01h-.03l-.04.02h-.06l-.03.02h-.02l-.03.01-.02.01c-.24.07-.42.19-.65.44l.54.16s.3-.2.63-.33c.22-.08.32-.3.55-.53ZM52.15 23.68l.01-.01.01-.01.01-.02h.01v-.01l.01-.01.01-.01v-.01l.01-.02h.01v-.04h.01v-.08l-.01-.03v-.02c-.04-.1-.25-.22-.38-.27-.2-.1-.78-.25-.96-.31 0 0-.1.1-.14.22-.03.05 0 .1.08.1.16.03.54-.04.64.02.1.07.06.15.06.24 0 0 .18-.1.29-.08.15.03.25.1.33.35ZM51.64 22.9h.02l.02.01h.02v.01h.02l.02.01h.01l.02.01h.02l.01.01.02.01h.01l.02.01.02.01h.02l.02.02.01.01h.02l.03.02h.01l.02.02h.02l.02.02h.02l.02.02.02.01.02.01s.1-.03.15-.12c.04-.08.24-.37.42-.4 0 0-.15-.02-.24-.05l-.32.1c-.13.05-.3.13-.49.26ZM53.12 22.54h-.03v.01h-.03l-.01.01h-.03l-.01.01h-.07l-.01.01h-.04s-.5.35-.56.69c-.05.3.1.44.18.47.08.05.43.18.66-.28 0 0-.39.13-.5-.06-.1-.18.07-.46.17-.53.15-.1.4-.18.55-.15 0 0-.13-.11-.27-.18Z"/><path fill="#343434" fill-opacity=".2" d="m49.83 26.49.02-.1.02-.1.03-.1.01-.04.02-.05.01-.04.02-.05.01-.05.02-.05.02-.05.02-.04.02-.05.02-.05c.23-.47.79-1.74 1.95-1.96.1-.03-.13-.3-.23-.28-.11.01-.32.15-.4.2l-.01-.32c0-.04-.04-.06-.1-.06-.03 0-.32 0-.4.1a8 8 0 0 0-.97 1.73c-.25.6-.43.8-.7.7-.26-.1-.42-.4-.9-.3a.95.95 0 0 0-.47.3c.04.07.09.16.3.16.22 0 .64.09.87.25.23.16.48.21.82.25ZM54.47 22.55v.07l.02.04v.04l.02.03.01.04.01.03.02.04.02.04.01.03.02.04.02.03.02.04.02.03.01.04.02.04s-.35 1.61-1.63 1.73c0 0 .03-.33.4-.58.38-.26.95-.66.91-1.26 0 0-.1.02-.28.25-.18.22-.59.88-1.2.88 0 0 .1-.3.37-.48s.61-.4.77-.67c.16-.27.33-.4.44-.45ZM53.86 28.44l.78 1.08.6-1.04-.22-.37-.41.73-.52-.73-.23.33Z"/><path fill="#343434" fill-opacity=".2" d="m53.66 27.52-.14-.2-.15-.2-.15-.2-.14-.2-.15-.21-.14-.2-.07-.1-.07-.09-.07-.1-.06-.08-.07-.09-.06-.08-.05-.09-.06-.07-.05-.08-.06-.07-.04-.06-.05-.06-.04-.06-.04-.05-.03-.05-.02-.04-.03-.03-.02-.03-.02-.02v-.02l.29-.2-.93-.36.01 1 .32-.23 1.87 2.6.22-.33ZM47.26 21.62l.02-.02.02-.02.03-.02.02-.01.03-.01.02-.01h.03l.03-.01h.15l.03.01.03.01.03.01.03.02.04.01.03.02.04.02.03.02.04.02.03.02.04.02.03.03.04.03.04.03.03.02.04.04.03.03.04.03.04.03c.39.36.64.72.4.97-.2.23-.61.03-1-.32-.4-.36-.64-.72-.41-.97Z"/><path fill="#343434" fill-opacity=".2" d="M47.9 26.02h-.01V26h-.02V26h-.01v-.01a1.07 1.07 0 0 1 .74-1.83c.59 0 1.07.48 1.07 1.06l-.02.2c.05-.08.23-.49.26-.56a1.37 1.37 0 0 0-2.54-.23c.08-.53.35-1.01.54-1.2.23-.2.62-.27.62-.27-.26.03-.59-.12-.97-.46-.35-.32-.53-.6-.55-.84.02.33.02.52-.08.8-.13.36-.48 1.04-.35 1.8.06.43.37 1.06.9 1.57.1.12.14.3.16.38 0 0 .76 0 .94.02 0 0 .18-.02.17-.14 0-.1-.1-.13-.18-.13-.1 0-.48 0-.68-.14ZM52.1 26.27l-.08.03-.1.03-.09.03-.09.03-.09.02-.09.03-.09.02-.09.02-.1.02-.08.02-.1.01-.08.02-.18.03-.18.02c-.3.05-.59.07-.88.06.01.04.01.1-.02.15 0 0 .06.06.06.14.29 0 .59 0 .89-.06.5-.08 1.04-.18 1.57-.37l-.17-.25ZM52.91 26.24l.12-.07.12-.08.13-.07.12-.09.11-.09.13-.1.11-.09.12-.1.12-.11.11-.12.12-.12.1-.14.12-.14.11-.14.11-.15.06-.08.05-.08.1-.17c-.15.07-.35.02-.35.02l-.06.07a4.81 4.81 0 0 1-1.72 1.6l.17.25ZM48.62 26.5H48.3l-.04.01h-.11l-.03.01h-.04c-.2.03-.4.07-.43.17-.02.1.05.2.14.35.06.1.2.05.28.01.08-.03.52-.26.59-.34.07-.07.1-.18-.04-.2ZM49.07 26.8l-.01-.01h-.01l-.01-.01h-.02v-.01h-.03v-.01h-.05l-.01-.01H48.82l-.02.01h-.01c-.12.05-.55.3-.59.42-.02.12.04.18.1.21.07.03.15.05.22.06.1 0 .2-.06.26-.13s.26-.3.29-.36c.03-.05.05-.14 0-.16ZM49.12 27.06v.02h-.02v.01l-.01.01-.01.01v.01l-.02.01-.01.01-.01.02-.01.01-.01.01-.02.03-.02.02v.01l-.02.02-.01.01-.01.01v.01l-.02.01v.01l-.01.01-.01.01v.01h-.01l-.01.02v.01h-.01v.01c-.03.03 0 .09.06.08.06 0 .35-.04.53-.15.17-.12.28-.34.17-.42-.13-.09-.3-.04-.5.17ZM49.22 26.42h-.04l-.01-.01h-.04l-.02-.01H49.04l-.01-.01H48.93v.01h-.02v.01h-.01v.01c-.07.1-.03.2.15.27.17.09.5.16.56.07.07-.1-.02-.24-.4-.34ZM56.66 20.39v.01l-.01.02v.02l-.01.02-.01.02v.02l-.02.02v.02l-.02.05-.03.04-.01.04-.02.05-.02.04-.01.02-.01.03-.01.01-.01.02v.02l-.02.02v.04l-.01.01v.01l-.01.02-.01.02c-.04.2.01.43.36.67 0 0 .22-.16.3-.36.1-.2.04-.33-.04-.42-.09-.1-.3-.33-.38-.48ZM55.94 21.09v.12l.01.02v.05l.01.03v.04l.01.03v.03l.02.03v.03l.02.07.02.07.01.07.01.03.01.03.01.04.01.03.02.03.01.03.01.04.02.02.01.03.01.02c.22.38.53.66.82.66.25 0 .3-.15.43-.22 0 0-.06-.32-.35-.4-.36-.11-.9-.53-1.12-.93Z"/><path fill="#343434" fill-opacity=".2" d="m56.86 21.77.02-.01.03-.03.02-.01v-.01h.02l.01-.02h.01v-.01h.01v-.01H57v-.01l.01-.01.01-.02h.01l.01-.01v-.01s.28.1.5.25c.23.15.45.4.57.54 0 0-.34.08-.55-.01 0 0-.08-.32-.32-.46l-.38-.16ZM57.15 21.5v-.02h.01v-.02h.01v-.02h.01l.01-.02.01-.02v-.02h.01l.01-.02.01-.01v-.02h.01v-.02l.01-.02v-.01l.01-.02v-.02l.01-.01v-.05l.01-.02V21.04l.62.4c.14.12.44.42.5.52 0 0-.36-.08-.63-.17-.3-.1-.51-.23-.62-.3ZM57.95 22l.02.01H58l.03.02.03.01h.03l.03.02h.03l.04.01.03.01h.04l.07.02.08.02.08.02.08.02.07.01.08.02h.03l.04.01h.03l.03.02h.07l.02.02h.03l.03.01.02.01c.24.07.41.19.65.44l-.54.16s-.3-.2-.64-.33c-.21-.08-.31-.3-.54-.53ZM58.48 23.68v-.01l-.02-.01-.01-.02h-.01v-.01l-.01-.01-.01-.01v-.01l-.01-.02v-.01l-.01-.01v-.15c.05-.1.26-.22.38-.27.21-.1.79-.25.97-.31 0 0 .09.1.14.22.02.05 0 .1-.09.1-.15.03-.54-.04-.63.02-.1.07-.07.15-.07.24 0 0-.17-.1-.28-.08-.16.03-.25.1-.34.35ZM59 22.9h-.03v.01h-.02l-.02.01h-.02l-.01.01h-.02l-.01.01h-.02l-.01.01-.02.01h-.02l-.02.01-.01.01h-.02l-.02.02-.02.01h-.02l-.02.02h-.02l-.02.02h-.01l-.03.02h-.02l-.02.02-.02.01-.02.01s-.1-.03-.14-.12c-.05-.08-.25-.37-.42-.4 0 0 .15-.02.24-.05a2.46 2.46 0 0 0 .8.36ZM57.52 22.54h.02l.01.01h.02l.01.01h.04l.01.01H57.7l.02.01h.03s.51.35.57.69c.05.3-.1.44-.19.47-.07.05-.42.18-.65-.28 0 0 .38.13.5-.06.1-.18-.07-.46-.18-.53a.8.8 0 0 0-.54-.15s.12-.11.27-.18Z"/><path fill="#343434" fill-opacity=".2" d="m60.81 26.49-.02-.1-.02-.1-.03-.1-.02-.04-.01-.05-.01-.04-.02-.05-.01-.05-.03-.05-.01-.05-.02-.04-.02-.05-.03-.05c-.22-.47-.78-1.74-1.94-1.96-.11-.03.12-.3.23-.28.1.01.3.15.4.2v-.32c.01-.04.05-.06.1-.06.04 0 .32 0 .41.1a8 8 0 0 1 .96 1.73c.26.6.44.8.7.7.27-.1.42-.4.9-.3a.9.9 0 0 1 .48.3c-.04.07-.09.16-.31.16s-.64.09-.87.25a1.6 1.6 0 0 1-.8.25ZM56.17 22.55v.04l-.01.03-.01.04-.01.04-.01.03-.02.04-.01.03-.02.04v.04l-.03.03-.01.04-.02.03-.02.04-.02.03-.04.08s.35 1.61 1.64 1.73c0 0-.03-.33-.4-.58-.39-.26-.95-.66-.91-1.26 0 0 .1.02.28.25.18.22.58.88 1.2.88 0 0-.1-.3-.37-.48s-.61-.4-.77-.67c-.16-.27-.33-.4-.44-.45ZM55.32 24.12v.02l.02.03v.02l.02.03.02.03.02.03.02.04.02.04.02.03.03.04.02.04.03.04.02.04.04.04.05.08.06.08.06.08.03.04.03.04.03.04.03.03.03.04.02.03.03.03.03.03.02.03.03.02.02.03.02.01 1 .97s-.78-.2-1.22-.6c0 0-.32.18-.54.18h-.02c-.23 0-.54-.17-.54-.17-.44.4-1.23.59-1.23.59l1-.97c.22-.18.7-.86.78-1.08Z"/><path fill="#343434" fill-opacity=".2" d="M55.32 25.91h.13l.03-.01.03-.01h.03l.02-.02h.04l.02-.01.02-.01h.03l.01-.01h.01l.01-.01h.01l.01-.01h.01l.01-.01h.02a2 2 0 0 1-.44.61 1.93 1.93 0 0 1-.44-.62c.1.05.26.11.43.11h.01Z"/><path fill="#343434" fill-opacity=".2" d="m56 29.52 3.07-4.27.31.23.02-1-.93.35.3.21-2.74 3.8-1.4-2.5-.17.26-1.24 1.86-.3-.2v.97l.93-.36-.31-.22 1.06-1.59 1.4 2.46Z"/><path fill="#343434" fill-opacity=".2" d="m56.56 27.84-.08-.11-.04-.06-.04-.06-.04-.05-.03-.06-.04-.05-.03-.05-.04-.05-.03-.05-.02-.02-.01-.03-.01-.02-.02-.02-.01-.02-.02-.02-.01-.02-.01-.02-.01-.02-.02-.01v-.02l-.02-.01-.4.73-.23-.39.6-1.07.17.26.62.92-.23.32ZM57.2 28.12l.21.34.31-.2v.97l-.93-.36.3-.22-.14-.21.24-.32ZM63.38 21.62l-.02-.02-.03-.02-.02-.02-.02-.01-.03-.01-.03-.01h-.02l-.03-.01h-.15l-.03.01-.03.01-.03.01-.04.02-.03.01-.03.02-.04.02-.03.02-.04.02-.03.02-.04.02-.03.03-.04.03-.04.03-.03.02-.04.04-.04.03-.03.03-.04.03c-.4.36-.64.72-.4.97.2.23.6.03 1-.32.4-.36.64-.72.41-.97Z"/><path fill="#343434" fill-opacity=".2" d="M62.74 26.02h.01V26h.01V26h.01v-.01h.01a1.06 1.06 0 0 0-.75-1.83c-.58 0-1.06.48-1.06 1.06l.01.2-.26-.56a1.37 1.37 0 0 1 2.54-.23 2.34 2.34 0 0 0-.54-1.2c-.23-.2-.61-.27-.61-.27.25.03.58-.12.96-.46.35-.32.54-.6.55-.84-.02.33-.01.52.08.8.14.36.48 1.04.36 1.8a3.15 3.15 0 0 1-.9 1.57.7.7 0 0 0-.16.38s-.77 0-.94.02c0 0-.19-.02-.18-.14 0-.1.1-.13.2-.13.09 0 .46 0 .66-.14ZM57.72 26.24l-.12-.07-.12-.08-.12-.07-.12-.09-.12-.09-.12-.1-.12-.09-.11-.1-.12-.11-.12-.12-.11-.12-.11-.14-.11-.14-.12-.14-.1-.15-.06-.08-.06-.08-.1-.17c.16.07.36.02.36.02l.04.07A4.89 4.89 0 0 0 57.9 26l-.18.25ZM58.52 26.27l.1.03.09.03.09.03.1.03.08.02.1.03.09.02.09.02.09.02.09.02.09.01.09.02.18.03.17.02c.3.05.6.07.88.06 0 .04 0 .1.02.15 0 0-.05.06-.05.14-.29 0-.59 0-.9-.06a8.04 8.04 0 0 1-1.58-.37l.18-.25ZM62.01 26.5H62.34l.04.01h.11l.02.01h.05c.19.03.4.07.43.17.02.1-.05.2-.15.35-.06.1-.2.05-.27.01a3.6 3.6 0 0 1-.6-.34c-.06-.07-.09-.18.04-.2ZM61.57 26.8v-.01h.02l.01-.01h.01l.01-.01h.02l.01-.01h.04l.02-.01H61.83l.01.01h.01c.13.05.56.3.6.42.02.12-.04.18-.1.21a.95.95 0 0 1-.22.06.34.34 0 0 1-.27-.13c-.05-.07-.25-.3-.28-.36-.03-.05-.05-.14 0-.16ZM61.51 27.06l.02.02v.01l.02.01v.01l.01.01.01.01.01.01.02.02v.01l.02.01.02.03.02.02.02.03v.01l.02.01v.01l.02.01v.01l.01.01v.01l.02.01.01.02.01.01v.01c.02.03-.01.09-.06.08a1.3 1.3 0 0 1-.53-.15c-.17-.12-.28-.34-.17-.42.12-.09.3-.04.5.17ZM61.42 26.42h.03l.01-.01h.04l.02-.01h.07v-.01H61.72v.01h.02v.01h.01v.01c.07.1.02.2-.15.27-.17.09-.5.16-.57.07-.06-.1.03-.24.4-.34Z"/></g><defs><clipPath id="a"><path fill="#fff" d="M0 0h73v35H0z"/></clipPath></defs></svg>