<svg width="93" height="33" viewBox="0 0 93 33" fill="none" xmlns="http://www.w3.org/2000/svg">
<g clip-path="url(#clip0_469_1351)">
<path d="M31.9824 4.48828C35.9001 4.48828 38.6514 7.64753 38.6514 11.5332C38.6512 15.4186 35.9231 18.5839 32.127 18.584C30.5108 18.584 28.8857 17.7519 28.2324 16.9014V22.1035C28.2324 22.3505 28.1793 22.5847 28.0859 22.7969C28.0583 22.8733 27.8864 23.3359 27.5811 23.9111C27.2464 24.5393 27.1063 24.7782 26.9023 25.1152C24.1789 29.6311 19.2454 32.499 13.8193 32.499C8.01957 32.499 2.78174 29.2202 0.205078 24.1562C-0.305935 23.1546 0.177213 21.9333 1.23828 21.5664C2.10253 21.2684 3.06066 21.6468 3.47559 22.4629C5.42644 26.3187 9.40881 28.8144 13.8193 28.8145C17.556 28.8145 20.9858 27.0219 23.1338 24.1289C23.8188 23.2057 24.7643 21.7417 24.7842 19.3994V6.25586C24.7842 5.30461 25.5566 4.53239 26.5078 4.53223C27.4202 4.53223 28.0466 5.31362 28.0947 6.48047C28.9498 5.27013 30.6322 4.48828 31.9824 4.48828ZM18.0352 4.62891C18.9519 4.62902 19.7175 5.37606 19.7178 6.27441C19.7178 7.17068 18.9612 7.87294 18.0352 7.87305H11.8545V10.8916H13.7754V10.8984H13.9961C15.9583 10.8985 17.5561 11.2997 18.7412 12.0859C20.1602 13.028 20.9831 14.5075 21.123 16.3643C21.2467 18.0147 20.6527 19.6788 19.4883 20.9326C18.1816 22.3402 16.2694 23.1172 14.1055 23.1172C10.2956 23.1171 8.2967 20.703 7.7832 19.9258C7.3524 19.2702 7.26567 18.3881 7.97852 17.7578C8.53787 17.265 9.38114 17.2124 10.2178 17.9619C10.4979 18.2123 11.8485 19.7402 14.1084 19.7402C16.8426 19.7401 17.4989 17.7947 17.499 16.582C17.499 15.3487 16.6686 14.1543 14.0645 14.1543H10.1719C9.24129 14.1543 8.48947 13.3999 8.48926 12.4717V6.31152C8.48926 5.38083 9.24346 4.62894 10.1719 4.62891H18.0352ZM68.5713 0.5C69.5248 0.5 70.2958 1.2724 70.2959 2.22363V4.48633H72.6885C73.6009 4.48633 74.3389 5.19041 74.3389 6.06152C74.3388 6.9303 73.5985 7.63672 72.6885 7.63672H70.2959V13.5645C70.2959 14.4516 70.6692 15.027 71.6777 15.3135C72.2554 15.4786 72.966 15.3938 73.4199 15.3135C73.7569 15.2539 74.3255 15.1925 74.7129 15.3369C75.2515 15.5364 75.4812 15.9673 75.4834 16.6504C75.4832 17.6017 74.7332 18.6172 71.9023 18.6172C69.0712 18.6171 66.8496 16.3497 66.8496 13.5645V7.63672H66.0703C65.1581 7.63659 64.42 6.93251 64.4199 6.06152C64.4199 5.19278 65.1603 4.48646 66.0703 4.48633H66.8496V2.22363C66.8498 1.27249 67.6201 0.500149 68.5713 0.5ZM58.0146 4.48535C60.6688 4.23783 61.9664 4.87871 62.7275 5.28906C63.8164 5.87588 64.0208 7.07303 63.4502 7.75391C63.1866 8.06795 62.4183 8.36359 61.6504 8.02441C59.0256 6.86444 57.6863 7.18341 57.3447 7.86426C56.983 8.58621 57.6368 9.28035 58.4756 9.60352C58.5272 9.62232 59.0289 9.82673 59.7363 10.0557C60.3483 10.2551 61.1069 10.4611 61.9365 10.7705C63.4655 11.339 64.7522 12.55 64.5596 14.5742C64.4564 15.6492 63.821 16.8337 62.8721 17.5352C62.1729 18.0509 60.7884 18.6678 58.9316 18.5762C57.0955 18.4868 55.3482 17.7354 54.5596 17.0225C53.6863 16.2316 53.5215 15.1748 54.2021 14.5811C55.0938 13.8039 55.9976 14.5145 56.3828 14.7529C58.3816 15.9928 59.977 15.8961 60.7334 15.2979C61.1756 14.9494 61.3565 14.5161 61.2969 14.1562C61.1866 13.5032 60.4212 13.272 59.4678 13.0107C58.7502 12.8135 56.8184 12.247 55.9014 11.7197C54.5878 10.9609 53.684 9.69774 53.9912 7.93945C54.3144 6.08035 55.9194 4.6802 58.0146 4.48535ZM46.4043 4.48828C50.2005 4.4883 53.2888 7.64755 53.2842 11.5332C53.284 15.4162 50.1983 18.5769 46.4023 18.5771C42.6084 18.5771 39.5207 15.4187 39.5205 11.5332C39.5205 7.64982 42.608 4.48828 46.4043 4.48828ZM31.7666 7.64746C29.8984 7.64761 28.0352 8.98645 28.0352 11.5332C28.0353 13.8597 29.5616 15.4022 31.7666 15.4023C33.7288 15.4023 35.3244 13.5825 35.3223 11.5332C35.3223 9.48376 33.7266 7.64746 31.7666 7.64746ZM46.4043 7.64746C44.4442 7.64746 42.8486 9.05737 42.8486 11.5332C42.8488 14.0088 44.442 15.4023 46.4043 15.4023C48.3642 15.4023 49.9598 14.0088 49.96 11.5332C49.96 9.05739 48.3643 7.64748 46.4043 7.64746ZM91.9873 5.45996H89.791L89.7041 6.36523C89.7132 6.35493 89.9494 6.09473 90.6348 6.09473C91.4758 6.09031 92.2117 6.65655 92.2119 7.65332C92.2119 8.68944 91.4299 9.3388 90.4053 9.33887C89.5021 9.33887 88.7437 8.84131 88.668 7.75488H89.6436C89.7124 8.22697 90.0888 8.42868 90.499 8.42871C91.0102 8.42871 91.2324 8.08438 91.2324 7.63965C91.2322 7.17454 90.8887 6.88578 90.4121 6.88574C90.0156 6.88574 89.7514 7.07567 89.6299 7.27734H88.6973L89.0205 4.54297H92.0898L91.9873 5.45996ZM86.3867 6.05469L87.3037 4.53906H88.4473L86.9736 6.88379L88.4883 9.25488H87.3379L86.3613 7.63184L85.4033 9.25488H84.2588L85.7305 6.80859L84.2314 4.53906H85.4258L86.3867 6.05469ZM83.1885 0.5C86.6131 0.5 88.2638 1.92353 88.7842 3.95215C88.7864 3.95891 88.7871 3.9659 88.7871 3.97266C88.7871 4.01392 88.757 4.04883 88.7158 4.04883C88.6885 4.04881 88.6636 4.03052 88.6475 4.00781C87.5838 2.32756 85.9032 2.36132 83.7256 2.36133H81.3643L81.623 4.0918C81.9577 6.26262 82.1363 8.42756 83.7041 9.08789C83.7317 9.09935 83.75 9.12645 83.75 9.15625C83.75 9.24022 83.6784 9.23188 83.666 9.22949C81.3483 8.82373 80.037 7.72078 79.6152 4.2959L79.0537 0.5H83.1885Z" fill="#343434" fill-opacity="0.2"/>
</g>
<defs>
<clipPath id="clip0_469_1351">
<rect width="93" height="32" fill="white" transform="translate(0 0.5)"/>
</clipPath>
</defs>
</svg>
