<svg width="191" height="180" viewBox="0 0 191 180" fill="none" xmlns="http://www.w3.org/2000/svg">
<path fill-rule="evenodd" clip-rule="evenodd" d="M43.4555 43.1371C43.9174 43.1673 44.6388 43.1371 45.155 43.1371C47.3648 43.2276 50.13 42.835 51.9593 42.2916C51.6665 42.4123 51.3707 42.5334 51.6031 42.6542C51.8114 42.7749 51.9412 42.5936 52.0348 42.2615C52.1435 42.2313 52.2491 42.2015 52.3518 42.1713C52.2884 42.2015 52.1676 42.2313 52.0348 42.2615C52.2008 41.688 52.2491 40.6316 52.4152 39.7864C53.2906 35.4092 53.9306 28.2547 54.2928 21.6739C54.5585 16.8438 54.7034 12.3157 54.6189 9.4479C54.5826 8.11965 54.5585 7.21367 54.4166 6.82123C54.1298 6.09673 53.2936 5.55347 52.382 5.13085C50.1511 4.04409 47.3648 3.5914 47.3648 3.5914C46.7852 3.53102 46.3686 3.01772 46.435 2.41397C46.5014 1.8404 47.0297 1.41778 47.6093 1.50834C47.6093 1.50834 50.7971 1.7502 53.4053 2.77657C55.0475 3.4407 56.4059 4.46672 56.9976 5.7346C57.3931 6.57985 57.7855 9.90048 57.9666 14.338C58.193 19.9529 58.187 27.3791 57.7975 33.5071C57.4776 38.5485 56.8195 42.7444 56.0135 44.5557C55.4309 45.8839 54.5615 46.488 53.8823 46.7295C50.8877 47.7257 45.2758 48.3293 42.2994 47.5143C39.7938 46.8501 38.6527 45.2802 38.8157 43.4991C39.5281 36.4654 39.507 29.9147 39.2112 24.1791C38.7765 15.7266 37.7078 8.99473 37.0045 4.85904C36.8867 4.28548 37.252 3.71215 37.8256 3.5914C38.3961 3.47065 38.9576 3.83266 39.0783 4.40623C40.1077 8.57211 41.8012 15.3341 42.7914 23.8772C43.4525 29.6128 43.7574 36.1034 43.4555 43.1371ZM43.3408 43.1371C43.2713 42.8654 43.1626 42.6541 43.0359 42.8352C42.9272 43.0163 43.0721 43.0767 43.3408 43.1371Z" fill="#343434" fill-opacity="0.9"/>
<path fill-rule="evenodd" clip-rule="evenodd" d="M106.182 40.6323C106.719 39.5154 108.28 35.9837 110.176 31.6668C112.047 27.3802 114.239 22.3387 115.984 17.9917C117.258 14.7918 118.314 11.9843 118.797 10.1429C118.963 9.50896 119.069 8.72432 119.069 8.72432C119.069 8.72432 119.09 8.75427 119.096 8.78446C118.894 8.09014 118.284 7.51705 117.596 7.00386C115.854 5.73599 113.593 5.01101 113.593 5.01101C113.028 4.82989 112.696 4.2568 112.85 3.68323C113.004 3.13986 113.587 2.80768 114.151 2.95861C114.151 2.95861 116.853 3.59255 118.999 4.9208C120.258 5.67549 121.276 6.73217 121.722 7.90949C121.903 8.3623 121.916 9.38868 121.662 10.7773C121.303 12.7395 120.448 15.7578 119.338 19.1992C117.873 23.7273 115.981 28.9498 114.296 33.3572C112.557 37.8854 111.027 41.5382 110.532 42.6853C109.149 45.704 105.237 46.1569 102.022 44.1947C99.3353 42.5947 97.5633 39.546 98.4629 36.7386C100.706 30.037 101.874 24.2106 102.538 19.2599C103.691 10.5961 103.236 4.52825 103.498 1.02649C103.519 0.452931 104.011 0 104.594 0C105.177 0.0301875 105.635 0.513542 105.614 1.11729C105.635 4.64923 106.701 10.7468 106.137 19.6219C105.805 24.8443 104.857 30.9728 102.907 38.097C102.849 38.3083 102.94 38.489 103.027 38.6701C103.205 39.0324 103.513 39.3648 103.851 39.6365C104.422 40.1195 105.125 40.4514 105.786 40.5722C105.892 40.6024 106.07 40.6323 106.182 40.6323ZM106.182 40.6323C106.251 40.6323 106.294 40.6325 106.272 40.5722C106.26 40.542 106.212 40.6021 106.182 40.6323Z" fill="#343434" fill-opacity="0.9"/>
<path fill-rule="evenodd" clip-rule="evenodd" d="M138.854 34.2601C138.549 34.1696 138.114 34.079 137.752 33.9583C133.804 32.6904 124.877 31.3319 113.563 30.0339C112.983 29.9735 112.558 29.4607 112.615 28.8871C112.672 28.2833 113.192 27.8604 113.771 27.9207C123.217 28.7056 131.038 29.5809 135.793 30.5168C138.625 31.0903 140.463 31.7544 141.148 32.328C141.83 32.9016 141.972 33.5657 141.897 34.1393C141.139 40.0258 140.566 45.7013 140.086 51.1351C138.775 66.0477 138.253 79.2696 137.151 91.0428C136.84 94.2426 136.493 97.3223 136.068 100.281C135.612 103.481 135.065 106.56 134.41 109.518C134.036 111.208 133.622 112.899 133.164 114.499C132.69 116.189 132.164 117.819 131.588 119.419C128.687 127.389 124.506 134.423 118.169 140.611C112.974 145.652 106.324 150.12 97.7718 154.045C97.8775 155.041 98.4389 156.671 98.1884 157.818C97.7265 159.901 96.3831 162.165 92.1539 163.403C89.111 164.308 84.2568 164.701 76.559 164.006C64.6742 162.92 45.7165 159.206 15.529 150.905C14.9645 150.754 14.6264 150.18 14.7713 149.607C14.9193 149.033 15.4989 148.701 16.0634 148.852C46.1874 156.248 65.0636 159.387 76.8609 160.172C83.4538 160.625 87.7344 160.323 90.4996 159.538C92.3712 159.025 93.3704 158.361 93.7961 157.516C94.2157 156.671 94.0345 155.735 93.9379 154.98C93.8081 153.984 93.7267 153.108 93.8353 152.474C94.0225 151.418 94.584 150.694 95.5077 150.241C103.652 146.377 109.931 142.06 114.84 137.2C120.6 131.524 124.442 125.095 127.09 117.789C127.642 116.31 128.14 114.77 128.602 113.201C129.052 111.661 129.466 110.091 129.843 108.491C130.51 105.654 131.066 102.695 131.552 99.6161C132.01 96.7181 132.409 93.6993 132.765 90.59C133.958 80.3866 134.712 69.0361 136.01 56.478C136.735 49.4745 137.637 42.0787 138.854 34.2601ZM97.7658 153.984C98.1673 153.682 98.5536 153.259 98.1581 153.229C97.8019 153.229 97.7235 153.531 97.7658 153.984ZM138.944 34.3209C138.978 34.5624 139.056 34.743 139.204 34.5921C139.295 34.4713 139.171 34.3812 138.944 34.3209ZM17.3976 27.2268C16.5977 35.7397 15.8551 44.0409 15.0762 52.0708C14.5087 57.9272 13.9442 63.6024 13.3495 69.1267C12.8182 74.0171 12.2598 78.7566 11.7043 83.3149C11.1006 88.2354 10.4787 92.975 9.88097 97.473C9.2108 102.514 8.55876 107.254 7.92482 111.631C5.39212 129.14 3.31521 141.064 2.06545 144.656C1.88734 145.2 1.28965 145.501 0.734203 145.32C0.178753 145.139 -0.129163 144.535 0.0519619 143.992C1.28965 139.796 2.81106 124.189 5.06607 101.699C5.9234 93.1259 6.8713 83.5868 8.02749 73.2929C8.70972 67.2252 9.50665 60.9161 10.3368 54.3956C11.493 45.3091 12.7971 35.83 14.1012 26.0794C14.1736 25.536 14.4454 24.902 15.2725 24.4492C16.0211 24.0567 17.8112 23.6644 20.4767 23.5135C24.9717 23.2418 32.2529 23.3322 41.0797 23.6945C41.6624 23.7247 42.1303 24.2076 42.1182 24.7811C42.1091 25.3547 41.6261 25.8377 41.0435 25.8377C30.4447 25.8981 22.131 26.2605 18.3365 26.985C18.0075 27.0454 17.6603 27.1362 17.3976 27.2268ZM56.0497 26.2604C55.4641 26.2302 55.0083 25.7475 55.0324 25.1437C55.0535 24.5702 55.5456 24.1171 56.1282 24.1473C60.7227 23.9662 65.4561 23.7547 70.3011 23.7246C72.1818 23.6944 74.0686 23.7249 75.9643 23.7853C77.2201 23.8155 78.476 23.8457 79.7317 23.9362C82.8863 24.1777 86.0228 24.5096 89.1201 24.902C93.9501 25.5057 98.6291 26.2607 103.142 26.955C103.725 27.0154 104.159 27.5282 104.111 28.1018C104.063 28.6753 103.55 29.1285 102.967 29.0681C98.4148 29.0077 93.6874 29.0678 88.8393 29.0074C85.73 28.9772 82.5905 28.9172 79.4419 28.7662C78.1922 28.7059 76.9424 28.585 75.6957 28.4944C73.815 28.3133 71.9464 28.1621 70.0808 27.9508C65.281 27.4074 60.602 26.7736 56.0497 26.2604Z" fill="#343434" fill-opacity="0.9"/>
<path fill-rule="evenodd" clip-rule="evenodd" d="M128.294 118.455C128.382 117.881 128.922 117.489 129.502 117.579C130.078 117.67 130.474 118.213 130.386 118.787C129.952 123.858 128.421 129.081 126.106 134.032C125.212 135.964 124.183 137.835 123.075 139.616C122.332 140.824 121.557 142.001 120.72 143.149C118.544 146.047 116.141 148.703 113.75 151.027C109.032 155.586 104.35 158.876 101.08 160.446C100.573 160.748 99.9272 160.567 99.6374 160.054C99.3507 159.54 99.5288 158.906 100.036 158.604C101.92 157.367 104.211 155.314 106.725 152.688C108.636 150.695 110.62 148.401 112.624 145.865C113.838 144.356 115.027 142.726 116.234 141.096C117.4 139.526 118.571 137.896 119.694 136.236C121.179 134.032 122.601 131.798 123.857 129.473C125.813 125.881 127.434 122.198 128.294 118.455Z" fill="#343434" fill-opacity="0.9"/>
<path fill-rule="evenodd" clip-rule="evenodd" d="M30.1037 68.7634C29.521 68.703 29.0954 68.1897 29.1497 67.586C29.207 67.0124 29.7233 66.5899 30.3059 66.6503C30.3059 66.6503 38.7282 66.8615 49.481 67.435C51.9382 67.5558 54.5132 67.7066 57.1334 67.9179C58.8209 68.0387 60.5266 68.1595 62.2261 68.3407C66.5731 68.7935 70.905 69.3668 74.9109 69.9102C85.5761 71.3592 93.8897 72.7479 93.8897 72.7479C94.4723 72.8083 94.898 73.3217 94.8436 73.8953C94.7863 74.4688 94.2701 74.8914 93.6875 74.831C93.6875 74.831 85.2652 74.6199 74.5185 74.0162C70.4794 73.8048 66.1203 73.533 61.7673 73.1406C60.0617 72.9897 58.3651 72.8083 56.6837 72.597C54.0725 72.2951 51.5156 71.9633 49.0764 71.6312C38.4142 70.152 30.1037 68.7634 30.1037 68.7634Z" fill="#343434" fill-opacity="0.9"/>
<path fill-rule="evenodd" clip-rule="evenodd" d="M25.5431 96.447C24.9605 96.3866 24.5348 95.8733 24.5891 95.2696C24.6465 94.696 25.1627 94.2735 25.7454 94.3339C25.7454 94.3339 34.1677 94.5451 44.9205 95.1186C47.3777 95.2394 49.9527 95.3908 52.573 95.6021C54.2605 95.7229 55.966 95.8431 57.6656 96.0243C62.0126 96.4771 66.3445 97.051 70.3504 97.5944C81.0156 99.0434 89.3292 100.432 89.3292 100.432C89.9118 100.492 90.3375 101.005 90.2832 101.579C90.2258 102.152 89.7096 102.575 89.127 102.515C89.127 102.515 80.7047 102.303 69.9579 101.7C65.9188 101.488 61.5597 101.217 57.2067 100.824C55.5011 100.673 53.8046 100.492 52.1232 100.281C49.512 99.9793 46.9551 99.6469 44.5159 99.3148C33.8537 97.8356 25.5431 96.447 25.5431 96.447Z" fill="#343434" fill-opacity="0.9"/>
<path fill-rule="evenodd" clip-rule="evenodd" d="M23.7779 119.998C23.1953 119.937 22.7697 119.425 22.824 118.821C22.8814 118.247 23.3975 117.824 23.9801 117.885C23.9801 117.885 32.4025 118.096 43.1553 118.67C45.6125 118.791 48.1875 118.942 50.8078 119.153C52.4952 119.274 54.2008 119.394 55.9004 119.576C60.2473 120.028 64.5793 120.602 68.5852 121.145C79.2504 122.594 87.564 123.983 87.564 123.983C88.1467 124.043 88.5723 124.556 88.5179 125.13C88.4606 125.703 87.9444 126.126 87.3617 126.066C87.3617 126.066 78.9395 125.854 68.1927 125.251C64.1536 125.039 59.7946 124.767 55.4416 124.375C53.736 124.224 52.0394 124.043 50.358 123.832C47.7468 123.53 45.1899 123.198 42.7507 122.866C32.0885 121.386 23.7779 119.998 23.7779 119.998Z" fill="#343434" fill-opacity="0.9"/>
<path fill-rule="evenodd" clip-rule="evenodd" d="M101.808 71.026C101.66 70.4524 101.995 69.8786 102.56 69.7277C103.124 69.5767 103.704 69.9088 103.855 70.4824C104.531 72.2936 105.699 73.8938 107.184 74.4975C108.295 74.9503 109.482 74.3765 110.912 72.8974C111.616 72.203 112.784 70.7842 114.321 69.1239C115.401 67.9768 116.654 66.6786 117.964 65.3805C119.845 63.5089 121.852 61.6072 123.649 59.9167C126.894 56.8376 129.442 54.5437 129.442 54.5437C129.831 54.0909 130.498 54.0604 130.936 54.4529C131.37 54.8453 131.41 55.5095 131.02 55.9623C131.02 55.9623 129.01 58.7395 126.275 62.3016C124.759 64.2638 123.057 66.4373 121.336 68.4901C120.132 69.9089 118.93 71.2672 117.816 72.4445C116.132 74.1954 114.647 75.4937 113.835 76.1578C110.487 78.7238 107.734 78.7842 105.657 77.5163C103.686 76.2786 102.264 73.8032 101.808 71.026Z" fill="#343434" fill-opacity="0.9"/>
<path fill-rule="evenodd" clip-rule="evenodd" d="M97.2469 98.7135C97.0989 98.1399 97.434 97.5667 97.9985 97.4158C98.563 97.2648 99.1426 97.5969 99.2936 98.1704C99.9698 99.9817 101.138 101.581 102.623 102.185C103.734 102.638 104.921 102.065 106.351 100.585C107.055 99.8911 108.223 98.4723 109.76 96.812C110.84 95.6649 112.093 94.3667 113.403 93.0686C115.284 91.197 117.291 89.2953 119.087 87.6048C122.333 84.5257 124.88 82.2312 124.88 82.2312C125.27 81.7784 125.937 81.7479 126.375 82.1404C126.809 82.5328 126.849 83.197 126.459 83.6498C126.459 83.6498 124.449 86.427 121.714 89.9891C120.198 91.9513 118.496 94.1248 116.775 96.1776C115.571 97.5964 114.369 98.9553 113.255 100.133C111.571 101.884 110.086 103.181 109.274 103.845C105.926 106.411 103.173 106.472 101.096 105.204C99.1245 103.966 97.7027 101.491 97.2469 98.7135Z" fill="#343434" fill-opacity="0.9"/>
<path fill-rule="evenodd" clip-rule="evenodd" d="M95.4817 122.256C95.3338 121.683 95.6689 121.109 96.2334 120.958C96.7979 120.807 97.3774 121.14 97.5284 121.713C98.2046 123.524 99.3728 125.124 100.858 125.728C101.969 126.18 103.155 125.607 104.586 124.128C105.29 123.434 106.458 122.015 107.994 120.355C109.075 119.208 110.328 117.909 111.638 116.611C113.519 114.74 115.526 112.838 117.322 111.147C120.568 108.068 123.115 105.774 123.115 105.774C123.505 105.321 124.172 105.291 124.61 105.684C125.044 106.076 125.083 106.74 124.694 107.193C124.694 107.193 122.684 109.97 119.949 113.532C118.433 115.495 116.731 117.668 115.01 119.721C113.805 121.14 112.604 122.498 111.49 123.675C109.806 125.426 108.32 126.724 107.508 127.388C104.161 129.954 101.407 130.014 99.3306 128.746C97.3593 127.509 95.9376 125.033 95.4817 122.256Z" fill="#343434" fill-opacity="0.9"/>
<path fill-rule="evenodd" clip-rule="evenodd" d="M185.663 154.556C185.644 152.654 185.21 149.152 184.555 144.594C183.562 137.651 181.995 128.383 180.259 118.602C176.872 99.5238 172.812 78.4225 170.569 68.7021C170.089 66.6494 169.709 65.1101 169.434 64.2347C169.062 64.2045 168.498 64.174 167.964 64.174C165.488 64.174 161.567 64.5065 157.298 64.9593C149.637 65.7744 140.867 67.0118 137.166 67.5854C136.59 67.676 136.043 67.2834 135.944 66.7098C135.844 66.1363 136.234 65.5929 136.807 65.5023C141.685 64.5665 155.357 62.2123 163.74 61.3368C166.723 61.0349 169.072 60.9441 170.222 61.0951C170.931 61.2158 171.393 61.4575 171.65 61.6688C171.8 61.7895 172.081 62.1216 172.326 62.7253C172.612 63.4196 173.056 64.8987 173.615 66.9817C175.686 74.77 179.495 91.5542 182.931 108.52C184.926 118.331 186.795 128.202 188.156 136.383C189.741 145.892 190.604 153.198 190.402 155.673C190.36 156.156 190.194 156.729 189.729 157.333C189.231 157.937 187.975 158.902 185.925 159.868C180.301 162.616 167.71 166.872 151.56 170.706C134.522 174.751 113.505 178.313 92.6369 179.309C90.5872 179.4 89.1532 178.374 88.1903 176.894C86.5481 174.389 86.4062 170.525 86.4062 170.525C86.382 169.921 86.8348 169.438 87.4174 169.408C88.0001 169.378 88.4952 169.83 88.5193 170.404C88.5193 170.404 88.6974 173.604 90.1042 175.597C90.6415 176.382 91.3962 176.925 92.489 176.864C109.352 175.566 126.248 172.548 141.024 169.106C160.338 164.608 175.984 159.356 182.991 156.035C184.09 155.522 185.137 154.888 185.663 154.556Z" fill="#343434" fill-opacity="0.9"/>
<path fill-rule="evenodd" clip-rule="evenodd" d="M165.799 46.7274C166.146 46.2746 166.81 46.1837 167.281 46.5158C167.749 46.878 167.849 47.5423 167.502 47.9951C167.502 47.9951 165.552 51.6176 162.838 56.2967C162.228 57.3532 161.573 58.4402 160.879 59.5572C160.441 60.2515 159.994 60.976 159.511 61.6703C158.297 63.391 156.996 65.0812 155.777 66.7114C153.492 69.7603 151.409 72.3865 150.382 74.2883C150.162 74.8317 149.543 75.1035 149.003 74.862C148.462 74.6507 148.203 74.0469 148.423 73.5036C149.06 71.2999 150.431 68.04 152.293 64.508C153.259 62.6666 154.331 60.7647 155.511 58.9534C155.979 58.2289 156.489 57.5647 156.996 56.8703C157.79 55.8138 158.584 54.8175 159.375 53.8817C162.889 49.6856 165.799 46.7274 165.799 46.7274Z" fill="#343434" fill-opacity="0.9"/>
<path fill-rule="evenodd" clip-rule="evenodd" d="M170.994 52.8842C170.463 52.6427 170.234 52.0083 170.478 51.4951C170.723 50.9518 171.354 50.7106 171.882 50.9521C172.791 51.2842 173.593 51.3443 174.276 51.3141C174.831 51.284 175.233 51.0425 175.414 50.7104C175.526 50.4991 175.314 50.2576 175.178 49.9557C174.91 49.3218 174.315 48.7179 173.485 48.0236C171.912 46.6048 169.959 45.6089 168.127 44.7637C167.1 44.3109 166.113 43.8882 165.195 43.5562C164.081 43.1939 163.118 42.8919 162.397 42.8316C162.062 42.8014 161.775 43.1336 161.654 43.5562C161.452 44.2505 161.458 45.1256 161.947 46.0614C162.5 47.1481 163.438 48.3256 164.993 49.5029C165.491 49.8048 165.651 50.4389 165.346 50.9521C165.044 51.4351 164.392 51.616 163.894 51.3141C159.885 49.352 158.379 46.7258 157.987 44.6428C157.495 42.0467 158.907 39.9639 160.501 39.028C161.108 38.696 161.787 38.5447 162.472 38.5145C163.659 38.4843 165.383 38.6961 167.312 39.2999C168.238 39.5715 169.213 39.9336 170.182 40.4166C172.422 41.5033 174.641 43.103 176.434 45.0048C179.233 48.2047 179.323 50.9823 178.164 52.4615C177.608 53.186 176.833 53.7898 175.755 53.9709C174.499 54.1822 172.827 53.971 170.994 52.8842Z" fill="#343434" fill-opacity="0.9"/>
<path fill-rule="evenodd" clip-rule="evenodd" d="M135.093 91.8561C134.513 91.9467 133.982 91.5241 133.909 90.9505C133.834 90.3769 134.244 89.8334 134.824 89.7731C134.824 89.7731 136.297 89.0185 138.459 88.2336C138.93 88.0827 139.419 87.9316 139.938 87.8109C140.264 87.7203 140.596 87.66 140.937 87.6299C141.815 87.5393 142.679 87.5997 143.494 87.6299C145.767 87.811 147.394 88.1428 147.394 88.1428C147.974 88.0824 148.505 88.4748 148.581 89.0785C148.653 89.6521 148.242 90.1654 147.666 90.2559C147.666 90.2559 146.181 91.0107 144.022 91.7352C143.246 92.0069 142.422 92.2482 141.553 92.3991C141.215 92.4595 140.874 92.4598 140.539 92.4899C140.004 92.4899 139.497 92.4902 138.999 92.4298C136.714 92.2487 135.093 91.8561 135.093 91.8561Z" fill="#343434" fill-opacity="0.9"/>
<path fill-rule="evenodd" clip-rule="evenodd" d="M132.263 110.049C131.683 110.11 131.152 109.717 131.076 109.144C131.004 108.57 131.411 108.027 131.991 107.936C131.991 107.936 133.352 107.212 135.387 106.457C135.825 106.276 136.28 106.155 136.767 106.034C137.071 105.944 137.382 105.883 137.699 105.853C138.526 105.793 139.332 105.823 140.099 105.883C142.243 106.064 143.755 106.427 143.755 106.427C144.335 106.367 144.866 106.759 144.941 107.363C145.014 107.936 144.603 108.45 144.027 108.54C144.027 108.54 142.653 109.265 140.624 109.989C139.9 110.231 139.133 110.502 138.318 110.623C138.001 110.684 137.684 110.683 137.367 110.713C136.866 110.713 136.392 110.683 135.927 110.653C133.766 110.442 132.263 110.049 132.263 110.049Z" fill="#343434" fill-opacity="0.9"/>
<path fill-rule="evenodd" clip-rule="evenodd" d="M124.837 133.232C124.256 133.311 123.725 132.905 123.654 132.301C123.578 131.727 123.989 131.198 124.566 131.119C124.566 131.119 127.597 130.141 131.626 129.161C132.537 128.918 133.49 128.736 134.472 128.552C135.103 128.44 135.743 128.299 136.383 128.247C138.035 128.072 139.689 128.018 141.226 127.968C145.366 127.863 148.55 128.032 148.55 128.032C149.13 127.983 149.657 128.39 149.733 128.964C149.809 129.537 149.398 130.066 148.821 130.145C148.821 130.145 145.783 131.093 141.754 132.073C140.257 132.426 138.646 132.781 137 133.017C136.361 133.129 135.712 133.18 135.076 133.231C134.076 133.294 133.105 133.326 132.167 133.357C128.017 133.401 124.837 133.232 124.837 133.232Z" fill="#343434" fill-opacity="0.9"/>
<path fill-rule="evenodd" clip-rule="evenodd" d="M112.866 156.381C112.285 156.448 111.75 156.057 111.673 155.483C111.606 154.879 112.01 154.366 112.591 154.298C112.591 154.298 118.271 152.961 125.619 151.547C127.292 151.226 129.049 150.901 130.847 150.633C132.004 150.438 133.179 150.241 134.352 150.105C137.363 149.76 140.371 149.536 143.169 149.327C150.623 148.819 156.458 148.628 156.458 148.628C157.038 148.561 157.563 148.984 157.641 149.557C157.718 150.13 157.304 150.674 156.729 150.741C156.729 150.741 151.04 152.049 143.697 153.432C140.945 153.943 137.971 154.469 134.966 154.904C133.795 155.071 132.619 155.177 131.452 155.312C129.636 155.49 127.86 155.634 126.159 155.743C118.697 156.221 112.866 156.381 112.866 156.381Z" fill="#343434" fill-opacity="0.9"/>
<path fill-rule="evenodd" clip-rule="evenodd" d="M153.338 88.0216C153.033 87.5386 153.187 86.8748 153.685 86.5729C154.183 86.2711 154.835 86.4219 155.14 86.9049C155.792 87.6596 156.797 87.6896 157.76 87.5387C158.56 87.3878 159.236 86.8142 159.755 86.0293L165.968 74.196C166.134 73.6225 166.726 73.2903 167.284 73.4714C167.846 73.6525 168.163 74.2262 167.994 74.7998C167.994 74.7998 167.785 76.6409 167.29 79.1163C167.019 80.4747 166.671 81.9542 166.222 83.4032C165.908 84.3994 165.548 85.3651 165.129 86.2103C164.525 87.4178 163.807 88.3841 163.191 89.018C161.6 90.467 159.692 91.2516 157.842 91.0403C155.888 90.7988 154.089 89.863 153.338 88.0216Z" fill="#343434" fill-opacity="0.9"/>
<path fill-rule="evenodd" clip-rule="evenodd" d="M155.705 109.92C155.4 109.437 155.554 108.773 156.052 108.471C156.55 108.169 157.202 108.32 157.507 108.803C158.159 109.558 159.164 109.588 160.127 109.437C160.927 109.286 161.603 108.713 162.123 107.928L168.335 96.0945C168.501 95.5209 169.093 95.1887 169.651 95.3699C170.213 95.551 170.53 96.1247 170.361 96.6982C170.361 96.6982 170.153 98.5393 169.657 101.015C169.386 102.373 169.039 103.853 168.589 105.302C168.275 106.298 167.916 107.264 167.496 108.109C166.892 109.316 166.174 110.282 165.558 110.916C163.967 112.365 162.059 113.15 160.209 112.939C158.256 112.697 156.456 111.761 155.705 109.92Z" fill="#343434" fill-opacity="0.9"/>
<path fill-rule="evenodd" clip-rule="evenodd" d="M157.844 128.643C157.539 128.16 157.693 127.496 158.191 127.194C158.689 126.892 159.341 127.043 159.646 127.526C160.298 128.281 161.303 128.311 162.266 128.16C163.066 128.009 163.743 127.435 164.262 126.65L170.474 114.817C170.64 114.244 171.232 113.911 171.791 114.093C172.352 114.274 172.669 114.847 172.5 115.421C172.5 115.421 172.292 117.262 171.797 119.737C171.525 121.096 171.178 122.575 170.728 124.024C170.414 125.021 170.055 125.986 169.635 126.831C169.031 128.039 168.313 129.005 167.697 129.639C166.106 131.088 164.198 131.873 162.348 131.661C160.395 131.42 158.596 130.484 157.844 128.643Z" fill="#343434" fill-opacity="0.9"/>
<path fill-rule="evenodd" clip-rule="evenodd" d="M162.076 147.369C161.771 146.886 161.925 146.222 162.423 145.92C162.922 145.618 163.574 145.77 163.879 146.253C164.531 147.007 165.536 147.037 166.499 146.886C167.299 146.735 167.975 146.162 168.494 145.377L174.707 133.543C174.873 132.97 175.465 132.638 176.023 132.819C176.584 133 176.901 133.573 176.732 134.147C176.732 134.147 176.524 135.989 176.029 138.464C175.757 139.822 175.41 141.301 174.96 142.75C174.646 143.747 174.287 144.713 173.868 145.558C173.264 146.766 172.545 147.732 171.93 148.366C170.339 149.815 168.431 150.599 166.58 150.388C164.627 150.147 162.828 149.211 162.076 147.369Z" fill="#343434" fill-opacity="0.9"/>
</svg>
