<svg width="138" height="192" viewBox="0 0 138 192" fill="none" xmlns="http://www.w3.org/2000/svg">
<g clip-path="url(#clip0_257_852)">
<path fill-rule="evenodd" clip-rule="evenodd" d="M23.7875 48.2726C23.8335 47.5423 23.8902 46.7972 23.9575 46.0423C23.9858 45.361 24.5597 44.8318 25.2362 44.8563C25.9163 44.8758 26.4511 45.4396 26.4405 46.1209C26.4582 46.7777 26.4653 47.4148 26.4653 48.0373C26.5929 53.0564 27.1809 57.2424 28.4454 60.247C29.5399 62.8496 31.2472 64.3395 33.9356 64.1729C35.0054 64.1485 35.9582 64.8493 36.2558 65.8786C36.5498 66.9079 36.1141 68.0059 35.1967 68.5549C31.7998 70.7164 29.593 72.7652 28.2966 75.8923C27.3933 78.0783 26.9223 80.7593 26.77 84.2981C26.7594 84.999 26.7416 85.7197 26.7133 86.4647C26.7133 86.4991 26.7097 86.5332 26.7097 86.5675C26.6247 88.1065 25.3212 89.2927 23.7839 89.2388C22.2431 89.18 21.0352 87.8958 21.0636 86.3568C21.099 85.151 21.1592 84.0238 21.2478 82.9602C21.3363 79.9801 21.1628 77.4608 20.5358 75.0934C19.6928 71.8977 18.0599 68.9813 15.1447 65.5797C14.5283 64.9131 14.3902 63.9327 14.794 63.119C15.1978 62.3054 16.0621 61.825 16.9654 61.9132C18.995 62.1878 20.4544 60.9722 21.556 58.4921C22.6292 56.0806 23.3766 52.6937 23.7875 48.2726ZM24.6624 71.3681C25.7108 69.8095 27.0002 68.4715 28.5764 67.2363C27.5386 66.4913 26.6708 65.5012 25.9659 64.266C25.3956 63.2759 24.9422 62.1141 24.588 60.8005C24.3825 61.2956 24.1594 61.7516 23.9221 62.1731C23.0826 63.6484 22.0589 64.6975 20.8687 65.369C22.5371 67.3982 23.7662 69.3536 24.6624 71.3681Z" fill="#343434" fill-opacity="0.9"/>
<path fill-rule="evenodd" clip-rule="evenodd" d="M9.241 83.4664C9.2835 82.985 9.33662 82.4907 9.40392 81.9866C9.44643 81.3101 10.0239 80.7961 10.7004 80.8254C11.3734 80.858 11.9011 81.4272 11.8834 82.1004C11.8976 82.5459 11.9011 82.9783 11.8976 83.3978C11.9932 86.2762 12.4537 88.7057 13.4278 90.5335C14.5082 92.5467 16.428 93.4705 19.3963 93.2624C20.5368 93.2461 21.5286 94.046 21.7482 95.1681C21.9714 96.2869 21.3622 97.4057 20.2995 97.8253C17.3242 99.136 15.2697 100.359 13.9379 102.056C12.8575 103.439 12.3617 105.166 12.2058 107.546C12.1952 107.985 12.1774 108.437 12.1526 108.903C12.1491 108.951 12.1455 109.003 12.1455 109.055C12.0145 110.578 10.7004 111.722 9.17372 111.638C7.64706 111.55 6.46752 110.265 6.51002 108.737C6.54544 107.878 6.60922 107.072 6.70131 106.314C6.7757 104.48 6.5915 102.928 5.89724 101.448C5.02942 99.5911 3.48502 97.8414 0.913427 95.7957C0.116446 95.2233 -0.202333 94.1923 0.130628 93.2686C0.460047 92.345 1.36329 91.7533 2.34092 91.8151C4.59014 92.0785 6.32226 91.3497 7.45575 89.3983C8.30586 87.9315 8.90449 85.9674 9.241 83.4664ZM10.038 98.2934C10.8456 97.4283 11.809 96.6641 12.9531 95.9649C12.266 95.4413 11.6815 94.8267 11.1892 94.1177C10.7393 93.4705 10.3639 92.7452 10.0628 91.9452C9.90694 92.2249 9.74396 92.4882 9.57039 92.7354C8.89738 93.6981 8.08984 94.4462 7.15472 95.0024C8.37321 96.0951 9.31538 97.1811 10.038 98.2934Z" fill="#343434" fill-opacity="0.9"/>
<path fill-rule="evenodd" clip-rule="evenodd" d="M130.218 24.1049C130.313 24.1899 130.342 24.2607 130.239 24.2997C130.186 24.3209 130.189 24.1935 130.218 24.1049ZM130.218 24.1049C130.03 23.9384 129.587 23.7117 129.314 23.5416C128.489 23.0244 127.402 22.6275 126.438 22.422L126.137 22.3583L117.271 20.7851C117.271 20.7851 107.828 19.6763 107.789 19.6728C102.642 19.1768 96.7799 18.9394 90.1278 18.858C86.4404 18.8119 82.5122 18.8188 78.3219 18.8932C73.7101 18.9712 68.79 19.12 63.5335 19.4105C58.865 19.6656 53.9379 19.9775 48.7274 20.4665L45.7591 20.9163C43.9526 21.3201 42.4968 21.873 41.5829 22.5497C41.3881 22.6949 41.211 22.8295 41.0835 22.9818C41.0055 23.0739 40.8355 23.1129 40.9135 23.2015C41.5156 23.903 42.9643 24.4134 45.3907 24.7889C46.0708 24.8633 46.5632 25.476 46.4888 26.1563C46.4109 26.8401 45.798 27.3327 45.1179 27.2548C41.6679 27.0245 39.6702 26.153 38.7386 25.246C37.931 24.4559 37.729 23.5347 37.8636 22.6064C37.9876 21.7278 38.5863 20.7747 39.6595 19.8748C40.7895 18.9289 42.5676 18.0324 44.8098 17.3415L48.2244 16.555C53.4596 15.6977 58.4116 14.9785 63.1262 14.4577C68.4606 13.8695 73.4691 13.4869 78.166 13.3062C82.4555 13.1432 86.483 13.1433 90.2589 13.2744C97.0952 13.5153 103.092 14.1882 108.352 14.9393C108.366 14.9393 108.377 14.9431 108.391 14.9431L118.019 16.7073C119.616 17.0616 121.114 17.4158 122.521 17.7736C124.125 18.1846 125.609 18.5923 126.98 18.9891L127.281 19.0777C128.833 19.5312 130.575 20.3991 131.688 21.384C132.591 22.1847 133.133 23.0706 133.204 23.8748C133.278 24.6968 133.062 25.5362 132.18 26.2307C131.358 26.8755 129.693 27.5096 126.725 27.708C126.045 27.7789 125.432 27.2864 125.358 26.6026C125.283 25.9224 125.779 25.3096 126.459 25.2387C128.556 24.9234 130.809 24.5796 130.303 24.034C130.267 23.9985 130.235 24.0411 130.218 24.1049Z" fill="#343434" fill-opacity="0.9"/>
<path fill-rule="evenodd" clip-rule="evenodd" d="M121.214 8.00943C120.551 7.82874 120.162 7.14476 120.346 6.48223C120.527 5.8197 121.21 5.43379 121.869 5.61448C123.909 5.84832 125.857 6.10339 127.837 6.48603C129.173 6.74467 130.455 7.08466 131.759 7.42124C132.425 7.62319 133.491 7.98803 134.529 8.57616C135.205 8.95879 135.85 9.45849 136.385 10.0466C137.461 11.237 138.131 12.7535 137.979 14.5604C137.656 16.5692 137.327 20.8206 135.768 23.3503C134.762 24.9836 133.498 26.1352 131.663 26.0289C130.979 26.0892 130.377 25.5858 130.313 24.902C130.253 24.2218 130.756 23.616 131.436 23.5558C131.787 23.4672 131.957 23.1696 132.159 22.9074C132.524 22.4185 132.57 21.7205 132.676 20.973C132.821 19.9632 132.754 18.8685 132.719 17.8127C132.673 16.4274 132.57 15.1592 132.531 14.3089C132.531 14.1388 132.364 14.0607 132.269 13.9473C132.095 13.7347 131.893 13.5401 131.677 13.3771C131.018 12.874 130.324 12.4805 129.892 12.2786L121.214 8.00943ZM40.8109 23.5489C41.4733 23.7189 41.8735 24.3955 41.7035 25.0615C41.5335 25.7241 40.8569 26.1246 40.1946 25.9545C38.1082 25.5329 36.5037 24.2007 35.3738 21.5754C34.5272 19.6126 34.003 16.8172 33.7904 12.9519C33.716 11.5099 34.4174 9.46908 36.6029 7.61258C38.0622 6.369 40.2937 5.22451 43.549 4.47341C47.0238 3.70459 50.4525 2.98541 53.8601 2.3902C57.3739 1.77727 60.8488 1.253 64.2882 0.880993C69.0559 0.367267 73.7457 0.105117 78.3327 0.0236294C84.3827 -0.0826588 90.2484 0.172433 95.9229 0.732217C101.948 1.32743 107.725 2.30534 113.265 3.62331C113.938 3.75086 114.377 4.40262 114.25 5.07578C114.122 5.74893 113.471 6.1919 112.798 6.06081C104.165 4.78535 95.0196 4.49843 85.3992 4.87752C81.3718 5.03696 77.2701 5.32732 73.0868 5.69579C70.3877 5.93671 67.6602 6.21662 64.8973 6.50714C61.5323 6.86143 58.1177 7.24064 54.657 7.6835C51.2885 8.11574 47.8774 8.56207 44.4274 9.10414C42.4969 9.39466 41.0128 9.85873 39.9112 10.4646C38.4164 11.2901 37.6159 12.1582 37.5876 12.9235C37.4601 16.2787 37.6406 18.7411 38.2109 20.509C38.7458 22.1813 39.5641 23.1627 40.8109 23.5489Z" fill="#343434" fill-opacity="0.9"/>
<path fill-rule="evenodd" clip-rule="evenodd" d="M131.359 170.909C131.362 170.924 131.366 170.934 131.369 170.945C131.366 170.934 131.362 170.92 131.362 170.906C131.394 170.874 131.401 170.846 131.366 170.821C131.359 170.817 131.355 170.817 131.352 170.817C131.309 170.194 131.741 169.623 132.372 169.51C133.045 169.389 133.689 169.836 133.813 170.513C134.008 171.459 133.59 172.44 132.386 173.283C131.036 174.229 128.383 175.104 124.912 175.841C114.913 177.96 97.8465 179.15 87.8259 179.568C76.9445 179.958 67.4834 179.395 60.0273 178.357C53.3999 177.439 48.3276 176.132 45.1822 174.891C45.0299 174.831 44.8776 174.768 44.7323 174.707C44.619 176.079 44.5659 177.645 44.5659 178.987C44.5694 179.884 44.5517 180.66 44.6119 181.127C44.5871 181.025 44.5446 180.946 44.4702 181.003C44.3462 181.092 44.4384 181.212 44.658 181.357C44.6615 181.375 44.6651 181.393 44.6721 181.407C44.6686 181.393 44.665 181.379 44.658 181.357C45.0122 181.591 45.6958 181.882 46.305 182.19C48.8554 183.473 53.329 184.908 60.6046 185.928C67.579 186.906 77.0188 187.515 89.6571 187.171C105.455 186.814 115.844 185.832 122.592 184.55C127.101 183.689 129.92 182.732 131.603 181.697C132.853 180.929 133.381 180.231 133.36 179.49C133.321 178.803 133.849 178.218 134.532 178.183C135.22 178.147 135.804 178.675 135.839 179.359C135.946 180.769 135.368 182.378 133.055 183.947C131.245 185.173 128.192 186.435 123.237 187.593C116.425 189.18 105.898 190.594 89.8413 191.586C73.5688 192.511 62.397 191.774 54.9089 190.463C47.056 189.092 42.9896 187.023 41.2186 185.641C40.0355 184.716 39.536 183.816 39.3377 183.25C39.1039 182.583 38.9091 180.961 38.9055 179.001C38.8949 176.036 39.2101 172.203 39.6883 170.47C40.2586 168.408 41.6931 167.714 42.398 167.597C43.2552 167.455 44.2754 167.565 45.1893 168.607C45.5116 168.975 46.2554 169.287 47.2756 169.708C50.1376 170.884 54.7743 172.104 60.8242 173.092C68.0254 174.272 77.1747 175.132 87.7338 175.079C94.9987 175.079 106.018 174.814 115.306 174.027C121.306 173.521 126.566 172.826 129.542 171.781C130.115 171.579 130.597 171.377 130.958 171.147C131.079 171.069 131.284 170.98 131.359 170.909ZM44.6119 181.127C44.6331 181.202 44.6473 181.294 44.658 181.357C44.6403 181.29 44.626 181.216 44.6119 181.127ZM131.359 170.909C131.348 170.867 131.337 170.821 131.352 170.817C131.355 170.849 131.359 170.877 131.362 170.906L131.359 170.909Z" fill="#343434" fill-opacity="0.9"/>
<path fill-rule="evenodd" clip-rule="evenodd" d="M44.045 19.1233C44.0485 18.436 44.6047 17.8832 45.2918 17.8867C45.9755 17.8903 46.5316 18.4502 46.528 19.134C46.528 19.134 47.1302 39.2364 47.5552 64.8625C47.6544 70.7296 47.7182 76.8836 47.7536 83.1546C47.7784 87.1865 47.7997 91.2679 47.7642 95.3494C47.6757 105.769 47.4454 116.189 47.2116 125.829C46.5882 151.452 45.8232 171.547 45.8232 171.547C45.8196 172.235 45.2599 172.788 44.5763 172.784C43.8891 172.781 43.3366 172.221 43.3401 171.537C43.3401 171.537 42.7591 151.434 42.373 125.808C42.2278 116.164 42.0933 105.744 42.1004 95.321C42.1039 91.2431 42.1641 87.1619 42.2243 83.1301C42.3199 76.8626 42.4404 70.7085 42.5927 64.8414C43.2551 39.2189 44.045 19.1233 44.045 19.1233Z" fill="#343434" fill-opacity="0.9"/>
<path fill-rule="evenodd" clip-rule="evenodd" d="M125.316 20.684C125.312 20.0002 125.865 19.4407 126.552 19.4336C127.236 19.4301 127.795 19.9825 127.799 20.6698C127.799 20.6698 128.613 40.8575 129.315 66.5969C129.474 72.4888 129.602 78.6714 129.704 84.9707C129.772 89.0203 129.839 93.1196 129.846 97.2188C129.867 107.692 129.747 118.157 129.616 127.847C129.265 153.59 128.713 173.789 128.713 173.789C128.716 174.476 128.164 175.036 127.476 175.039C126.793 175.043 126.233 174.49 126.23 173.803C126.23 173.803 125.433 153.615 124.777 127.876C124.529 118.189 124.285 107.723 124.182 97.254C124.143 93.1549 124.157 89.0557 124.179 85.0025C124.207 78.7067 124.26 72.521 124.349 66.6291C124.742 40.879 125.316 20.684 125.316 20.684Z" fill="#343434" fill-opacity="0.9"/>
<path fill-rule="evenodd" clip-rule="evenodd" d="M111.569 33.9853C110.888 33.8932 110.414 33.2659 110.506 32.5892C110.598 31.909 111.225 31.4342 111.905 31.5263C113.704 31.3067 115.245 31.0905 116.85 31.0693C117.541 31.0586 118.185 31.1118 118.83 31.1862C119.28 31.2358 119.719 31.2997 120.133 31.4166C121.32 31.7568 122.344 32.2313 123.25 32.7414C125.323 33.9106 126.679 35.0551 127.476 36.2207C127.993 36.6742 128.039 37.4574 127.586 37.9711C127.133 38.4848 126.346 38.5343 125.833 38.0808C125.004 37.6591 123.895 37.6097 122.429 37.4113C121.851 37.3333 121.263 37.2976 120.608 37.2019C120.024 37.1205 119.411 37.0783 118.784 36.9224C117.859 36.6885 116.921 36.334 115.922 35.9443C114.484 35.3845 113.177 34.6549 111.569 33.9853ZM45.6566 38.0064C45.019 38.2579 44.3 37.9424 44.0485 37.3047C43.797 36.667 44.1122 35.9443 44.7498 35.6927C49.089 33.6166 54.9264 31.7991 61.621 30.4953C63.8525 30.0595 66.169 29.7089 68.5529 29.4255C70.0796 29.2412 71.6311 29.0746 73.2002 28.9861C77.0293 28.7699 80.9468 28.7878 84.8396 28.9366C90.8507 29.1669 96.7376 29.8117 102.185 30.5593C102.869 30.6053 103.386 31.1968 103.337 31.8806C103.291 32.5644 102.699 33.0816 102.015 33.0355C97.446 33.0462 92.5969 33.2941 87.6343 33.5988C84.4641 33.7937 81.2762 34.0453 78.1025 34.2897C75.9737 34.4492 73.8591 34.6228 71.7727 34.761C68.5104 34.9736 65.3331 35.1613 62.294 35.4128C55.8119 35.9478 50.0382 36.6388 45.6566 38.0064Z" fill="#343434" fill-opacity="0.9"/>
<path fill-rule="evenodd" clip-rule="evenodd" d="M43.4963 155.955C43.2483 155.318 43.5671 154.595 44.2047 154.35C44.8458 154.102 45.5649 154.418 45.8128 155.059C46.1139 155.728 47.0986 156.154 48.4411 156.671C51.8273 157.971 57.4948 158.793 64.2744 159.424C69.8851 159.945 76.2326 160.21 82.6899 160.433C86.8059 160.575 90.9573 160.734 94.9917 160.795C98.7854 160.851 102.469 160.88 105.916 160.798C112.49 160.643 118.154 160.189 121.954 159.183C123.389 158.8 124.544 158.393 125.316 157.851C125.794 157.514 126.177 157.224 126.138 156.77C126.046 156.093 126.52 155.466 127.197 155.371C127.877 155.275 128.504 155.75 128.599 156.43C128.837 157.666 128.341 158.825 127.186 159.891C126.01 160.979 123.945 161.957 121.182 162.793C116.145 164.313 108.661 165.422 100.266 165.936C95.7781 166.209 91.0351 166.339 86.2851 166.212C81.8645 166.095 77.4405 165.748 73.2147 165.287C68.5532 164.781 64.1433 164.083 60.2257 163.289C54.2147 162.07 49.3833 160.586 46.5815 158.995C44.8741 158.028 43.8328 156.983 43.4963 155.955Z" fill="#343434" fill-opacity="0.9"/>
<path fill-rule="evenodd" clip-rule="evenodd" d="M55.4826 159.947C55.511 160.631 54.9761 161.208 54.289 161.233C53.6053 161.258 53.0279 160.723 53.0031 160.039C51.9121 143.745 54.1721 132.366 57.7284 124.022C62.1454 113.663 68.5212 107.944 72.9949 103.299C75.3965 100.805 77.334 98.8527 77.3199 96.1778C77.3269 94.3001 76.4946 93.0993 75.2336 92.0754C73.6786 90.8177 71.6241 89.7831 69.3926 88.5325C63.92 85.4608 57.4556 81.3474 53.5344 71.7035C50.3713 63.9232 48.8872 52.3943 51.2214 34.538C51.2923 33.8577 51.9015 33.3617 52.5816 33.4325C53.2653 33.4998 53.7611 34.1092 53.6903 34.793C52.4293 51.8309 54.3456 62.6653 57.6929 69.8964C62.3473 79.9548 69.977 82.6193 75.2477 85.4926C79.9091 88.0294 82.9483 90.8492 82.9837 96.1778C82.9589 100.21 80.6423 103.515 76.9266 107.186C72.6477 111.413 66.5021 116.476 61.9222 125.932C58.1534 133.712 55.3657 144.383 55.4826 159.947Z" fill="#343434" fill-opacity="0.9"/>
<path fill-rule="evenodd" clip-rule="evenodd" d="M120.07 34.6206C120.094 33.9368 120.672 33.4018 121.356 33.4266C122.039 33.4514 122.578 34.0289 122.549 34.7127C122.439 51.0208 120.116 62.2446 116.839 70.2233C112.111 81.7343 105.487 86.6662 100.666 90.2977C99.2066 91.3995 97.9172 92.3421 96.9608 93.3625C96.2063 94.1667 95.7104 95.0064 95.7175 96.165C95.6963 101.019 98.3352 103.258 101.516 105.997C105.919 109.791 111.402 114.191 115.008 123.864C117.888 131.601 119.538 142.808 118.281 160.048C118.253 160.735 117.672 161.266 116.985 161.234C116.301 161.202 115.77 160.625 115.801 159.938C116.064 143.406 113.924 132.802 110.811 125.546C107.176 117.072 102.097 113.401 98.0624 110.131C93.4718 106.411 90.1564 103.031 90.0537 96.193C90.0502 92.7634 91.6299 90.3685 94.414 88.0692C96.6881 86.1914 99.8937 84.3101 103.28 81.2348C106.433 78.3757 109.748 74.4465 112.61 68.3633C116.138 60.8629 119.018 50.2556 120.07 34.6206Z" fill="#343434" fill-opacity="0.9"/>
<path fill-rule="evenodd" clip-rule="evenodd" d="M55.8614 143.312C55.3797 143.794 54.5898 143.794 54.1081 143.309C53.6228 142.823 53.6228 142.037 54.1081 141.555C57.0799 138.231 63.6612 132.269 70.4018 127.982C73.0514 126.299 75.7434 124.91 78.2158 123.982C80.5678 123.1 82.771 122.689 84.6412 122.738C86.5363 122.827 88.3357 123.135 90.0288 123.677C92.6039 124.503 94.9524 125.789 97.0953 127.372C101.838 130.876 105.596 135.762 109.096 139.67C111.809 142.695 114.218 145.2 117.087 145.427C117.774 145.441 118.316 146.008 118.302 146.692C118.288 147.379 117.721 147.921 117.034 147.907C113.534 148.035 110.091 145.643 106.432 142.313C102.763 138.975 98.8132 134.724 94.1199 131.712C91.2437 129.87 88.0842 128.488 84.3791 128.375C82.7993 128.269 80.883 128.751 78.7861 129.509C76.8769 130.2 74.8508 131.121 72.7999 132.173C66.0025 135.652 59.0423 140.474 55.8614 143.312Z" fill="#343434" fill-opacity="0.9"/>
<path fill-rule="evenodd" clip-rule="evenodd" d="M79.0516 93.9583C78.3963 93.7564 78.0244 93.062 78.2228 92.4066C78.4247 91.7511 79.1189 91.3826 79.7742 91.581C83.8796 92.2506 86.1111 93.9193 87.5846 98.7129C88.031 100.173 88.3604 101.98 88.4844 104.215C88.5481 105.292 88.5268 106.472 88.4454 107.762C88.3497 109.335 88.1478 111.053 87.8715 112.97C87.535 115.283 87.0533 117.788 86.5291 120.672C86.4972 121.356 85.9162 121.887 85.2326 121.852C84.549 121.82 84.0177 121.239 84.0496 120.555C83.7769 117.182 83.451 114.316 83.2597 111.726C83.1003 109.544 82.9409 107.645 82.8842 105.951C82.824 104.155 82.8594 102.631 82.8028 101.324C82.7248 99.6022 82.6894 98.3091 82.3104 97.2781C81.7259 95.6944 80.7518 94.7555 79.0516 93.9583Z" fill="#343434" fill-opacity="0.9"/>
<path fill-rule="evenodd" clip-rule="evenodd" d="M91.5164 68.7547C93.6523 67.1427 96.1283 65.8422 98.6184 64.9104C102.628 63.4118 106.68 63.0009 109.535 63.6351C114.19 64.7122 116.131 68.2196 115.674 71.1213C115.213 74.0407 111.802 77.4454 103.96 77.2221C101.789 77.1229 99.2241 76.6695 96.4293 75.9361C94.2545 75.3692 91.9309 74.6396 89.5258 73.846C82.9976 71.6919 75.8638 69.109 69.4773 68.4004C64.3625 67.8336 59.7577 68.3543 56.5308 71.6209C56.0739 72.1311 55.2875 72.1734 54.7775 71.7164C54.2674 71.2558 54.2249 70.4728 54.6854 69.9626C58.1673 65.6863 63.5656 64.3012 69.7466 64.4748C76.4766 64.6591 84.1559 66.7317 91.0985 68.6378C91.2366 68.6768 91.3783 68.7158 91.5164 68.7547ZM95.3561 69.8069C96.2027 70.0336 97.035 70.2532 97.8391 70.4587C100.237 71.0646 102.405 71.5643 104.261 71.6777C106.053 71.8158 107.509 71.7235 108.653 71.4223C109.479 71.2062 110.123 70.9584 110.509 70.5438C110.895 70.1258 110.803 69.5766 110.392 69.1443C109.921 68.6483 109.245 68.2125 108.366 67.9361C106.167 67.224 102.958 67.4083 99.6882 68.2728C98.2288 68.6589 96.7588 69.1692 95.3561 69.8069Z" fill="#343434" fill-opacity="0.9"/>
<path fill-rule="evenodd" clip-rule="evenodd" d="M63.5337 63.167C63.3991 62.4938 63.8349 61.8384 64.5043 61.7038C65.1773 61.5656 65.8325 62.0015 65.9672 62.6746C66.7181 64.3788 67.6249 65.8667 68.4573 67.4894C68.9886 68.524 69.5518 69.5017 70.0264 70.5186C70.4196 71.3724 70.7137 72.237 71.0785 73.0661C71.4646 73.9376 71.7657 74.7809 72.1978 75.5887C72.7787 76.6693 73.2959 77.6648 74.0752 78.5718C74.6206 78.9828 74.7304 79.7623 74.316 80.3115C73.9051 80.8571 73.1259 80.9667 72.5804 80.5557C71.1954 79.9145 70.0123 79.089 68.8186 78.0757C68.0535 77.4238 67.3911 76.701 66.7429 75.8897C66.0911 75.0748 65.5103 74.1856 65.0321 73.2149C64.7912 72.7188 64.5999 72.1908 64.4335 71.6558C64.1891 70.8693 63.9766 70.0793 63.849 69.2467C63.5373 67.2237 63.5054 65.2608 63.5337 63.167ZM62.3365 39.6241C62.3968 38.9438 63.0024 38.4408 63.686 38.501C64.3696 38.5648 64.8691 39.1707 64.8089 39.8545C64.8089 39.8545 65.3296 41.6648 65.8113 44.8073C65.9601 45.7887 66.1443 46.8732 66.1478 48.0707C66.1513 49.1159 65.9778 50.1927 65.829 51.3441C65.613 52.981 65.2446 54.554 65.0179 56.3361C65.0887 57.0163 64.5928 57.6295 63.9128 57.7003C63.2291 57.7712 62.6199 57.2752 62.549 56.5914C61.9362 54.827 61.3731 53.2396 60.9941 51.5638C60.7249 50.3734 60.5371 49.2361 60.484 48.1413C60.4628 47.6666 60.5017 47.2061 60.5442 46.7632C60.615 46.0228 60.7106 45.3462 60.8488 44.7049C61.5466 41.4525 62.3365 39.6241 62.3365 39.6241Z" fill="#343434" fill-opacity="0.9"/>
</g>
<defs>
<clipPath id="clip0_257_852">
<rect width="138" height="192" fill="white"/>
</clipPath>
</defs>
</svg>
