<svg width="168" height="195" viewBox="0 0 168 195" fill="none" xmlns="http://www.w3.org/2000/svg">
<g clip-path="url(#clip0_258_872)">
<path fill-rule="evenodd" clip-rule="evenodd" d="M5.47256 118.731C5.69725 118.85 5.96532 118.93 6.15848 119.049C7.81802 119.921 10.3842 120.634 13.518 121.189C16.912 121.784 20.9287 122.26 25.2609 122.339C30.6455 122.537 35.5888 122.219 39.444 121.546C42.0181 121.07 44.0875 120.475 45.4041 119.683C45.7432 119.485 46.0349 119.326 46.2359 119.088C46.3581 118.969 46.5 118.89 46.5079 118.731C46.5237 118.414 46.2714 118.097 45.9048 117.78C45.4554 117.423 44.868 117.027 44.1466 116.67C43.5475 116.432 43.2755 115.719 43.5356 115.124C43.7958 114.53 44.4935 114.252 45.0966 114.49C46.6379 115.085 47.7535 115.838 48.4354 116.552C49.0504 117.225 49.3105 117.978 49.3499 118.731C49.3972 119.762 48.8927 120.793 47.8284 121.744C46.7799 122.695 45.0297 123.647 42.7316 124.439C38.4822 125.906 32.246 126.937 25.2609 127.174C21.4451 127.293 17.8383 127.135 14.6493 126.738C11.9333 126.421 9.517 125.906 7.52241 125.312C5.02717 124.558 3.13501 123.607 1.97611 122.616C0.572792 121.387 -0.0303566 120.039 0.00117216 118.731C0.0248272 117.701 0.359935 116.67 1.19168 115.759C2.2836 114.53 4.47126 113.261 7.60508 112.429C11.957 111.279 18.264 110.685 25.2609 110.923C27.5708 111.042 29.7942 111.2 31.8952 111.478C34.2761 111.755 36.4836 112.152 38.4624 112.627C39.1049 112.746 39.5268 113.341 39.4085 114.014C39.2864 114.649 38.6674 115.085 38.0248 114.966C36.0972 114.688 33.9567 114.49 31.6586 114.411C29.6246 114.372 27.4802 114.371 25.2609 114.45C20.8933 114.609 16.8529 115.164 13.4431 115.838C10.2896 116.512 7.72732 117.344 6.08357 118.295C5.87858 118.414 5.65784 118.573 5.47256 118.731ZM5.18875 118.573C5.19652 118.414 5.20056 118.295 5.1178 118.335C5.0153 118.414 5.06263 118.493 5.18875 118.573Z" fill="#343434" fill-opacity="0.9"/>
<path fill-rule="evenodd" clip-rule="evenodd" d="M1.43413 118.413C1.58282 117.771 2.21819 117.366 2.8535 117.535C3.49219 117.67 3.89099 118.312 3.74568 118.954C2.46493 126.422 5.26628 131.897 9.62215 135.648C12.4337 138.081 15.9145 139.703 19.412 140.717C21.8891 141.393 24.3728 141.832 26.6572 141.798C32.6757 141.899 36.9436 140.176 39.9546 137.743C44.689 133.857 46.4394 128.349 46.7435 125.24C46.774 124.597 47.3282 124.09 47.9804 124.124C48.6326 124.124 49.1395 124.699 49.1125 125.341C49.1497 128.991 47.8081 135.749 42.6818 140.784C39.2687 144.13 34.1626 146.63 26.762 147.07C23.9673 147.137 20.8954 146.766 17.8879 145.853C13.6976 144.535 9.59516 142.237 6.45918 139.027C1.64372 134.127 -1.0733 127.166 1.43413 118.413Z" fill="#343434" fill-opacity="0.9"/>
<path fill-rule="evenodd" clip-rule="evenodd" d="M77.0994 18.6895C77.2853 18.8247 78.157 19.3655 78.8633 19.6697C80.8875 20.5483 83.7702 21.3592 86.8622 22.1365C93.6579 23.8937 101.471 25.3808 104.144 25.8877C105.962 24.7387 110.203 22.2717 114.64 20.6834C117.81 19.5345 121.077 18.8586 123.727 19.2641C129.397 20.1427 134.24 23.2178 138.46 26.6309C143.066 30.3819 146.848 34.5047 150.413 35.6536C152.312 36.2619 154.096 35.8227 155.918 33.6937C156.33 33.1868 157.077 33.1192 157.584 33.5248C158.091 33.9303 158.168 34.6738 157.756 35.1807C155.225 38.4925 152.515 39.1345 149.629 38.3911C146.371 37.5462 142.762 34.5724 138.673 31.3959C134.253 27.9828 129.211 24.2992 123.159 23.6572C121.138 23.4544 118.705 24.164 116.33 25.1102C111.061 27.2391 106.138 30.72 106.138 30.72C105.59 31.1255 104.914 31.2606 104.255 31.1593C104.255 31.1593 99.2371 30.4157 93.2929 29.1653C89.7007 28.4219 85.7739 27.4757 82.398 26.4619C79.137 25.4819 76.3694 24.4008 74.7575 23.3532C73.4531 22.5084 72.7064 21.5621 72.4157 20.7511C71.1418 17.1015 67.607 13.2489 62.7374 11.3227C58.7702 9.76827 53.9377 9.39648 48.6221 11.4241C42.4752 13.6882 37.9638 14.0938 34.6386 13.5869C29.9448 12.8435 27.5118 10.3767 26.2345 8.6533C25.8323 8.11261 25.9269 7.36917 26.4405 6.96365C26.9576 6.59193 27.7044 6.65925 28.1031 7.19994C29.2014 8.51786 31.2526 10.3092 35.0036 10.6809C37.9673 10.9512 41.9177 10.3092 47.2333 7.97744C53.539 5.24021 59.4257 5.40898 64.3087 7.09863C70.6111 9.29517 75.1969 14.1275 77.0994 18.6895ZM77.2042 18.9601C77.2076 18.9601 77.2075 18.9601 77.2075 18.9601H77.2042Z" fill="#343434" fill-opacity="0.9"/>
<path fill-rule="evenodd" clip-rule="evenodd" d="M95.5672 17.1347C95.7362 17.7429 95.3576 18.4187 94.7257 18.5877C94.0937 18.7567 93.445 18.3512 93.2794 17.7429L90.8598 9.56492C90.701 10.6463 90.5355 11.7278 90.3699 12.7416C89.9779 15.1071 89.5385 17.067 89.2343 17.7429C88.6294 19.1284 88.6329 20.1424 88.9843 20.9872C89.5723 22.3727 90.8902 23.2513 91.7688 24.1299C92.1642 24.5692 92.3873 25.1097 92.3907 25.6842C92.3907 25.6842 92.7488 37.005 92.938 52.4146C93.0056 57.9229 93.0326 63.9715 93.009 70.2232C92.9786 79.0432 92.8469 88.2688 92.7151 96.9536C92.3873 118.716 91.9445 137.032 91.9445 137.032C91.9479 137.674 91.4207 138.215 90.7685 138.215C90.113 138.215 89.5791 137.708 89.5757 137.032C89.5757 137.032 88.9202 118.75 88.3355 96.9873C88.1024 88.3025 87.8623 79.0772 87.7272 70.2572C87.6326 64.0055 87.5854 57.9565 87.5887 52.4483C87.5955 39.5394 87.7542 29.5029 87.8049 26.5967C86.4667 25.1436 84.9191 23.4877 84.5609 21.1898C84.3379 19.7367 84.4933 18.0469 85.5138 15.9856C85.8585 15.3097 86.3619 13.0121 86.8823 10.5114C87.7609 6.25348 88.6093 1.42096 88.6093 1.42096C88.7242 0.643724 89.3695 0.0353851 90.1569 0.0015922C90.9409 -0.0322007 91.6506 0.474759 91.85 1.252L95.5672 17.1347Z" fill="#343434" fill-opacity="0.9"/>
<path fill-rule="evenodd" clip-rule="evenodd" d="M78.4344 172.344C78.0356 172.885 77.2923 172.986 76.7753 172.581C76.2549 172.175 76.1569 171.432 76.5557 170.925C77.9817 168.661 78.5696 165.383 78.8568 161.159C78.9852 159.3 79.0123 157.273 79.0258 155.042C79.0393 153.116 78.9988 151.055 79.0022 148.858C79.0089 146.898 79.063 144.803 79.0867 142.641C79.1103 140.613 79.1746 138.518 79.1814 136.321C79.2118 134.429 80.0464 132.536 82.3038 131.523C83.8211 130.847 86.0108 130.509 89.0015 131.049C89.6537 131.117 90.1302 131.692 90.0694 132.334C90.0052 133.01 89.4239 133.482 88.7751 133.415C86.957 133.415 85.5816 133.719 84.5577 134.158C83.5473 134.598 83.1182 135.341 83.2298 136.085C83.5305 138.349 83.8244 140.511 84.017 142.607C84.2299 144.904 84.3719 147.101 84.4023 149.196C84.4192 150.413 84.3786 151.595 84.3178 152.744C84.213 154.637 84.0339 156.428 83.7974 158.084C83.571 159.672 83.304 161.159 82.9661 162.544C81.9016 166.904 80.4147 170.215 78.4344 172.344Z" fill="#343434" fill-opacity="0.9"/>
<path fill-rule="evenodd" clip-rule="evenodd" d="M96.2668 133.348C95.6146 133.315 95.1043 132.774 95.1246 132.098C95.1516 131.456 95.699 130.949 96.3513 130.983C98.2369 130.848 99.9401 130.881 101.214 133.044C101.914 134.193 102.377 136.254 102.491 139.87C102.508 141.188 102.647 143.419 102.785 146.19C102.88 148.082 103.019 150.211 103.11 152.509C103.191 154.536 103.221 156.665 103.306 158.794C103.39 160.923 103.475 163.018 103.644 165.08C103.975 169.135 104.485 172.818 105.614 175.387C105.925 175.961 105.712 176.671 105.137 176.975C104.563 177.279 103.843 177.076 103.532 176.502C102.083 174.305 100.883 171.162 99.9401 167.546C99.1831 164.64 98.6121 161.464 98.1998 158.287C98.0376 157.037 97.9024 155.821 97.8145 154.57C97.7266 153.32 97.6827 152.07 97.6691 150.853C97.6522 149.265 97.6895 147.744 97.7503 146.392C97.8889 143.418 98.1424 141.019 98.3046 139.634C98.6831 136.93 98.7337 135.342 98.3755 134.396C97.9869 133.348 97.1015 133.45 96.2668 133.348Z" fill="#343434" fill-opacity="0.9"/>
<path fill-rule="evenodd" clip-rule="evenodd" d="M80.8944 135.375C80.3774 134.969 80.2827 134.226 80.6849 133.685C81.0836 133.178 81.8304 133.077 82.3474 133.482C82.3474 133.482 84.7737 134.361 88.447 134.395C89.062 134.395 89.7076 134.361 90.4003 134.327C91.0221 134.327 91.6742 134.361 92.3602 134.327C93.4315 134.259 94.5468 134.226 95.7836 133.989C96.9258 133.786 98.0814 133.584 99.3587 133.111C99.9197 132.773 100.65 132.975 100.988 133.516C101.326 134.091 101.146 134.8 100.586 135.138C99.3758 136.253 98.2166 137.098 97.0102 137.808C96.064 138.382 95.138 138.754 94.2053 139.092C93.0699 139.464 91.9581 139.666 90.897 139.734C90.2718 139.768 89.6671 139.734 89.0892 139.632C88.1295 139.497 87.2507 139.294 86.4532 138.99C85.5239 138.652 84.7265 138.281 84.0338 137.842C81.9285 136.557 80.8944 135.375 80.8944 135.375Z" fill="#343434" fill-opacity="0.9"/>
<path fill-rule="evenodd" clip-rule="evenodd" d="M75.6903 177.684C75.2206 177.245 75.2036 176.502 75.6565 176.029C76.1059 175.555 76.856 175.521 77.3291 175.995C77.3291 175.995 79.4344 177.11 84.3411 177.617C85.5611 177.752 86.9366 177.786 88.5113 177.887C89.3899 177.921 90.3224 178.022 91.3193 178.09C92.9617 178.225 94.7324 178.394 96.7262 178.462C98.4598 178.495 100.264 178.597 102.285 178.563C102.927 178.428 103.542 178.867 103.65 179.509C103.762 180.151 103.329 180.759 102.684 180.895C99.7035 181.841 97.0811 182.55 94.6244 182.922C92.5664 183.26 90.6943 183.395 88.9979 183.328C88.1936 183.294 87.4366 183.193 86.7236 183.057C85.4699 182.855 84.3514 182.584 83.3511 182.246C82.0771 181.841 81.0126 181.402 80.107 180.929C76.8459 179.205 75.6903 177.684 75.6903 177.684Z" fill="#343434" fill-opacity="0.9"/>
<path fill-rule="evenodd" clip-rule="evenodd" d="M109.794 170.993C109.176 170.791 108.852 170.115 109.064 169.507C109.281 168.865 109.956 168.56 110.575 168.763C114.444 169.912 116.955 171.298 118.432 172.717C119.881 174.103 120.388 175.623 120.358 177.076C120.321 178.867 119.263 180.658 117.354 182.28C115.718 183.7 113.376 184.95 110.599 185.998C107.449 187.147 103.489 188.025 99.1664 188.498C95.483 188.904 91.5428 189.073 87.66 188.938C82.7702 188.735 77.9784 188.059 73.9029 187.045C70.2162 186.099 67.1005 184.815 64.931 183.328C60.6629 180.32 57.9121 176.333 61.1461 172.818C62.9202 170.892 67.1071 168.864 75.3627 167.378C76.0014 167.242 76.6367 167.648 76.7786 168.29C76.9239 168.932 76.5218 169.574 75.8831 169.709C68.8847 171.602 65.3026 173.393 63.9137 175.184C63.3561 175.894 63.64 176.535 64.1368 177.177C64.8667 178.09 66.0529 178.901 67.31 179.645C69.199 180.794 71.8888 181.571 75.0045 182.213C78.84 182.99 83.3075 183.362 87.8593 183.531C91.5157 183.666 95.2194 183.666 98.7034 183.396C102.644 183.125 106.293 182.652 109.213 181.774C111.981 180.996 114.289 179.949 115.694 178.664C116.326 178.09 116.816 177.515 116.887 176.84C116.979 175.995 116.499 175.116 115.468 174.238C114.241 173.156 112.393 172.041 109.794 170.993Z" fill="#343434" fill-opacity="0.9"/>
<path fill-rule="evenodd" clip-rule="evenodd" d="M60.5716 176.839C60.5784 176.163 61.1157 175.656 61.7679 175.656C62.4201 175.656 62.9474 176.197 62.9406 176.839C63.0318 178.258 62.9067 181.131 63.9374 183.429C64.3699 184.409 65.1068 185.186 66.2828 185.592C68.067 186.234 69.7837 186.774 71.443 187.247C74.17 188.059 76.7382 188.599 79.2322 189.004C80.7055 189.207 82.1517 189.41 83.5879 189.545C85.0579 189.681 86.5178 189.782 87.9878 189.816C91.6003 189.917 95.2601 189.714 99.2342 189.275C102.779 188.87 106.53 188.363 110.683 187.687C111.322 187.552 111.957 187.957 112.102 188.599C112.248 189.241 111.849 189.849 111.214 190.018C105.084 191.843 99.812 193.364 94.7701 194.209C90.8062 194.851 87.0046 195.155 83.1522 194.885C80.0162 194.682 76.8497 194.074 73.5616 193.026C70.7095 192.147 67.7933 190.897 64.6641 189.376C62.5115 188.261 61.2577 186.605 60.6934 184.611C59.8824 181.773 60.4331 178.461 60.5716 176.839Z" fill="#343434" fill-opacity="0.9"/>
<path fill-rule="evenodd" clip-rule="evenodd" d="M117.553 177.248C117.283 176.639 117.543 175.93 118.138 175.659C118.736 175.389 119.439 175.66 119.709 176.268C119.709 176.268 120.297 176.876 121.088 178.16C121.355 178.566 121.517 179.039 121.72 179.58C121.902 180.087 121.96 180.627 122.01 181.202C122.044 181.573 122.031 181.945 121.956 182.317C121.818 182.993 121.578 183.669 121.155 184.311C120.868 184.716 120.628 185.121 120.219 185.459C119.412 186.169 118.678 186.811 117.455 187.217C116.952 187.622 116.205 187.555 115.789 187.048C115.377 186.541 115.451 185.798 115.958 185.392C116.31 184.784 116.337 184.209 116.506 183.635C116.631 183.195 116.533 182.824 116.593 182.418C116.654 182.046 116.59 181.675 116.648 181.303C116.732 180.796 116.948 180.357 117.029 179.884C117.317 178.261 117.553 177.248 117.553 177.248Z" fill="#343434" fill-opacity="0.9"/>
<path fill-rule="evenodd" clip-rule="evenodd" d="M29.5802 9.96979C30.0195 9.4629 30.7698 9.42917 31.253 9.86848C31.7396 10.3078 31.7768 11.0512 31.3375 11.5581C30.736 12.5381 30.6548 14.2277 30.9893 15.7146C31.1583 16.458 31.7632 16.8973 32.8344 16.9987C33.5981 17.2352 34.4125 17.1677 34.8552 16.5594C34.9904 16.3904 35.1865 16.2216 35.2743 16.0189C35.6055 15.1402 35.7743 14.0927 35.2945 12.8762C34.9565 12.3017 35.1324 11.5581 35.69 11.2202C36.251 10.8823 36.9774 11.0851 37.3188 11.6258C39.3734 13.9575 39.4004 16.4244 38.782 18.3844C38.1501 20.3443 36.3963 21.6621 34.4228 22.2366C33.5982 22.4393 32.7026 22.4394 31.7903 22.3042C31.084 22.1352 30.452 21.9665 29.9214 21.6623C28.1574 20.7161 27.0829 19.3644 26.7517 17.7762C26.5625 16.83 26.4745 15.85 26.7043 14.9038C27.1876 12.8424 28.3265 10.916 29.5802 9.96979Z" fill="#343434" fill-opacity="0.9"/>
<path fill-rule="evenodd" clip-rule="evenodd" d="M3.72504 119.018C3.54256 119.626 2.88357 119.998 2.25502 119.829C1.62985 119.626 1.26822 118.984 1.45409 118.342C1.45409 118.342 6.78994 98.4379 12.974 76.4049C15.6031 67.0105 18.3776 57.278 20.9695 48.4918C25.4876 33.2174 29.4448 20.9167 30.614 18.5174C31.1344 17.4698 32.2833 16.8954 33.4491 17.0644C34.6116 17.2333 35.5241 18.1458 35.6998 19.3286C35.6998 19.3286 38.3897 37.8808 41.2553 58.9676C45.0131 86.5764 49.0986 118.511 49.0986 118.511C49.1966 119.153 48.7505 119.761 48.1017 119.863C47.4562 119.93 46.8514 119.491 46.7567 118.849C46.7567 118.849 41.2655 87.1509 36.7203 59.6435C34.8719 48.458 33.189 37.9824 32.0164 30.6155C31.1141 33.3865 30.0733 36.5966 28.9311 40.1449C25.981 49.3028 22.3956 60.5561 18.8474 71.6739C11.1831 95.7007 3.72504 119.018 3.72504 119.018Z" fill="#343434" fill-opacity="0.9"/>
<path fill-rule="evenodd" clip-rule="evenodd" d="M28.3533 124.835C28.3161 125.477 27.7551 125.984 27.1029 125.95C26.4507 125.916 25.9506 125.342 25.9878 124.7C25.9878 124.7 26.0958 110.811 26.5622 93.1033C26.6703 89.082 26.819 84.8241 26.9981 80.4986C27.113 77.7276 27.2313 74.8889 27.4037 72.0841C27.843 64.92 28.4174 57.756 28.9683 51.0988C30.4349 33.4589 31.8474 19.6714 31.8474 19.6714C31.8846 19.0293 32.4455 18.5225 33.0977 18.5563C33.7499 18.5901 34.2501 19.1308 34.2129 19.8067C34.2129 19.8067 34.0846 33.6616 33.5777 51.3691C33.3884 58.0263 33.1586 65.2242 32.797 72.3883C32.6551 75.1932 32.4591 77.9981 32.2631 80.8029C31.9589 85.0946 31.6345 89.3523 31.2932 93.3736C29.786 111.014 28.3533 124.835 28.3533 124.835Z" fill="#343434" fill-opacity="0.9"/>
<path fill-rule="evenodd" clip-rule="evenodd" d="M124.484 146.487C126.131 147.25 128.624 147.905 131.659 148.45C134.961 148.995 138.862 149.431 143.066 149.576C148.295 149.794 153.095 149.54 156.868 148.958C159.424 148.595 161.487 148.086 162.825 147.432C163.266 147.214 163.628 146.996 163.858 146.741C163.94 146.669 164.047 146.632 164.05 146.523C164.05 145.869 164.583 145.324 165.236 145.324C165.889 145.324 166.418 145.869 166.418 146.523C166.464 147.432 165.942 148.377 164.821 149.249C163.773 150.085 162.083 150.848 159.882 151.539C155.757 152.847 149.768 153.756 143.066 154.047C139.59 154.156 136.292 154.083 133.335 153.828C129.273 153.465 125.844 152.774 123.437 151.902C121.676 151.248 120.391 150.449 119.606 149.685C118.609 148.668 118.197 147.577 118.204 146.523C118.215 145.469 118.609 144.343 119.621 143.362C120.412 142.598 121.697 141.835 123.462 141.217C127.619 139.763 134.861 138.928 143.066 139.182C147.539 139.364 151.696 139.836 155.186 140.527C158.533 141.181 161.27 142.017 163.12 142.962C163.716 143.216 163.983 143.907 163.717 144.524C163.45 145.106 162.751 145.397 162.154 145.106C160.39 144.416 157.823 143.907 154.724 143.58C151.337 143.216 147.343 143.107 143.066 143.289C138.855 143.434 134.946 143.87 131.638 144.452C128.609 144.997 126.128 145.687 124.484 146.487ZM123.579 146.887C123.38 146.996 123.267 147.105 123.384 147.214C123.515 147.286 123.561 147.105 123.579 146.887ZM123.579 146.124C123.565 145.906 123.519 145.724 123.394 145.833C123.284 145.906 123.387 146.015 123.579 146.124Z" fill="#343434" fill-opacity="0.9"/>
<path fill-rule="evenodd" clip-rule="evenodd" d="M147.412 35.2488C147.953 34.877 148.69 35.0123 149.058 35.553C149.426 36.0937 149.288 36.8373 148.747 37.209C147.869 38.0876 147.754 39.1012 147.828 39.9798C147.855 40.3515 148.102 40.5881 148.264 40.8922C148.362 41.0612 148.558 41.129 148.7 41.2642C148.974 41.5345 149.369 41.6358 149.802 41.6358C150.325 41.7371 150.842 41.8385 151.265 41.6358C151.647 41.433 152.089 41.2642 152.255 40.7573C152.539 39.9124 152.721 38.8309 152.451 37.4116C152.214 36.8034 152.518 36.1275 153.127 35.891C153.735 35.6544 154.424 35.9585 154.657 36.5668C156.154 38.9999 156.252 40.9936 155.962 42.5819C155.833 43.2915 155.482 43.8662 155.134 44.4068C154.296 45.7586 152.853 46.5018 151.241 46.9073C150.656 47.0425 150.035 47.0428 149.403 47.009C148.457 46.9414 147.564 46.7048 146.818 46.2655C144.996 45.1841 143.675 43.3593 143.634 41.2642C143.59 39.0338 144.476 36.5329 147.412 35.2488Z" fill="#343434" fill-opacity="0.9"/>
<path fill-rule="evenodd" clip-rule="evenodd" d="M149.362 57.6517C147.93 62.7206 146.108 68.972 144.077 75.7982C141.404 84.7533 138.366 94.7223 135.409 104.252C128.478 126.69 122.031 146.865 122.031 146.865C121.845 147.473 121.186 147.845 120.561 147.642C119.932 147.473 119.574 146.831 119.757 146.189C119.757 146.189 125.775 123.852 132.253 100.028C134.815 90.5996 137.454 80.9688 139.806 72.3516C141.749 65.2551 143.503 58.8682 144.834 53.9344C146.308 48.46 147.308 44.9117 147.315 44.3035C147.338 42.918 148.433 41.7349 149.836 41.6674C151.238 41.566 152.475 42.5462 152.684 43.9655C152.684 43.9655 155.439 63.126 158.372 84.8886C162.217 113.41 166.404 146.358 166.404 146.358C166.502 147 166.056 147.608 165.407 147.71C164.762 147.777 164.16 147.338 164.062 146.696C164.062 146.696 158.463 113.951 153.83 85.5645C152.113 75.0211 150.532 65.0861 149.362 57.6517Z" fill="#343434" fill-opacity="0.9"/>
<path fill-rule="evenodd" clip-rule="evenodd" d="M144.246 151.903C144.202 152.545 143.637 153.052 142.985 152.985C142.333 152.951 141.84 152.377 141.88 151.734C141.88 151.734 142.144 137.542 142.803 119.429C142.955 115.272 143.151 110.946 143.377 106.52C143.523 103.647 143.671 100.775 143.874 97.9024C144.391 90.5693 145.043 83.2363 145.669 76.4439C147.328 58.3985 148.892 44.2729 148.892 44.2729C148.936 43.6309 149.501 43.1241 150.153 43.1578C150.805 43.2254 151.298 43.7661 151.258 44.4419C151.258 44.4419 150.974 58.6351 150.275 76.7481C150.011 83.5405 149.707 90.9071 149.264 98.274C149.092 101.146 148.865 104.019 148.639 106.858C148.287 111.284 147.919 115.61 147.531 119.732C145.831 137.778 144.246 151.903 144.246 151.903Z" fill="#343434" fill-opacity="0.9"/>
<path fill-rule="evenodd" clip-rule="evenodd" d="M165.011 153.69C165.157 153.081 165.792 152.676 166.431 152.811C167.066 152.946 167.465 153.588 167.319 154.23C166.228 160.685 163.058 165.652 159.233 169.234C156.428 171.836 153.241 173.661 150.257 174.81C147.554 175.824 144.979 176.229 142.928 176.162C139.775 175.993 136.899 175.418 134.344 174.472C129.853 172.783 126.295 170.012 123.747 166.7C119.077 160.617 117.691 152.811 119.746 146.221C119.908 145.579 120.553 145.208 121.185 145.377C121.821 145.546 122.203 146.188 122.04 146.83C120.888 152.574 122.76 159.029 127.17 163.794C129.448 166.294 132.452 168.254 136.125 169.471C138.254 170.181 140.606 170.687 143.201 170.823C144.705 170.924 146.591 170.654 148.622 170.045C151.177 169.268 153.937 167.95 156.492 165.99C160.138 163.186 163.41 159.232 165.011 153.69Z" fill="#343434" fill-opacity="0.9"/>
</g>
<defs>
<clipPath id="clip0_258_872">
<rect width="167.35" height="194.984" fill="white"/>
</clipPath>
</defs>
</svg>
