<svg width="273" height="195" viewBox="0 0 273 195" fill="none" xmlns="http://www.w3.org/2000/svg">
<g clip-path="url(#clip0_257_789)">
<path fill-rule="evenodd" clip-rule="evenodd" d="M77.1534 183.827C89.773 166.99 101.804 148.142 112.521 129.906C131.811 97.0643 146.716 65.9717 152.321 50.9282C153.115 48.8291 154.149 46.6862 154.633 45.2431C137.215 37.9837 123.514 30.9429 113.062 25.0392C102.746 19.223 95.614 14.5876 91.1559 12.0075C90.3445 11.5701 89.4808 11.1327 88.8134 10.8266C75.4304 35.1849 61.4411 58.0997 48.6776 77.6913C23.1941 116.918 2.74709 143.201 2.74709 143.201C2.2376 143.857 1.27793 143.988 0.605296 143.507C-0.0673444 142.982 -0.199528 142.02 0.310405 141.364C0.310405 141.364 19.9548 114.6 44.5196 75.0674C57.1095 54.7762 71.0203 31.1616 84.1721 6.01621C84.7871 4.83547 85.7905 4.09212 87.291 3.9172C87.9846 3.82973 88.9268 3.9172 90.1002 4.35451C91.4088 4.79182 93.289 5.75365 95.7536 7.15304C105.429 12.7506 125.35 25.8262 159.026 39.5141C160.117 39.9514 161.796 41.3947 161.438 44.4996C161.185 46.7736 159.658 51.5401 156.923 58.0998C153.578 66.1026 148.439 77.0356 141.9 89.6302C126.794 118.668 104.273 156.495 80.0325 187.5C79.6617 187.981 78.5232 188.769 76.5471 188.375C74.5537 187.938 70.4576 186.319 65.3277 184.045C48.1655 176.48 18.849 161.568 18.849 161.568C18.0921 161.218 17.7807 160.3 18.1541 159.512C18.527 158.769 19.4448 158.463 20.2017 158.813C20.2017 158.813 57.7944 176.874 72.8961 182.515C74.5144 183.127 76.2418 183.608 77.1534 183.827ZM89.7949 9.0334C89.7992 9.0334 89.7992 9.0334 89.7992 9.0334H89.7949ZM154.817 44.6307C154.974 43.9747 154.926 43.581 154.537 43.581C154.031 43.581 154.481 44.2371 154.817 44.6307Z" fill="#343434" fill-opacity="0.9"/>
<path fill-rule="evenodd" clip-rule="evenodd" d="M72.8786 72.9251C73.7118 72.7939 74.497 73.3621 74.6322 74.193C74.7674 75.0239 74.2003 75.8111 73.3672 75.9423C71.3039 76.3796 69.498 77.954 67.9756 79.9656C65.8818 82.7644 64.4684 86.4816 64.006 90.1113C63.5655 93.5661 64.0191 96.8897 66.2612 98.7264C67.4957 99.7323 69.2886 100.038 71.679 99.7757C77.3498 99.2947 81.2495 96.1901 84.7348 93.3476C88.2987 90.4176 91.5223 87.6625 94.916 86.4817C97.7732 85.5196 100.774 85.3885 104.168 87.0066C106.846 88.2748 108.622 90.6797 109.276 93.872C110.157 98.2014 109.071 104.105 106.367 109.309C102.524 116.7 95.7536 122.516 88.5299 120.417C87.7098 120.242 87.2038 119.411 87.3957 118.58C87.592 117.749 88.4165 117.268 89.2365 117.443C93.8517 118.318 97.6685 114.951 100.316 110.534C102.619 106.729 103.937 102.006 103.893 98.114C103.867 95.6651 103.409 93.5224 101.621 92.8227C99.976 92.123 98.5627 92.254 97.2279 92.7788C94.4798 93.8283 92.0676 96.4085 89.1362 98.77C84.6868 102.4 79.3956 105.811 72.1414 106.248C67.7007 106.423 64.5164 105.199 62.3703 103.231C59.9144 100.913 58.6363 97.5894 58.6232 93.8285C58.6058 89.6303 59.9929 84.9072 62.3659 81.0589C65.0486 76.6421 68.8567 73.3624 72.8786 72.9251Z" fill="#343434" fill-opacity="0.9"/>
<path fill-rule="evenodd" clip-rule="evenodd" d="M64.4729 81.3627C65.245 81.7125 65.6027 82.587 65.2624 83.3741C64.9265 84.1613 64.0279 84.5115 63.2515 84.1616C61.9036 84.2054 60.9352 84.4238 59.6353 84.3363C58.8807 84.2488 58.1522 84.2054 57.4674 83.943C56.7563 83.6369 56.2111 83.1555 55.6265 82.7182C54.5709 81.8873 53.9558 81.1001 53.0049 80.313C52.1979 80.0506 51.7443 79.1762 51.9929 78.389C52.2415 77.5581 53.0965 77.1209 53.9035 77.3833C55.2078 77.2084 56.2241 77.0334 57.6244 77.0771C58.4139 77.0771 59.1729 77.1647 59.9581 77.3833C60.2504 77.4708 60.5208 77.6457 60.7826 77.8206C61.197 78.0393 61.5634 78.3014 61.9298 78.6513C62.9331 79.5259 63.5438 80.3131 64.4729 81.3627ZM118.171 112.281C118.868 112.762 119.047 113.724 118.567 114.423C118.092 115.079 117.141 115.298 116.443 114.817C116.443 114.817 114.938 114.642 112.033 113.68C111.51 113.505 110.986 113.287 110.406 113.024C110.074 112.849 109.725 112.718 109.403 112.455C108.665 111.931 107.994 111.231 107.278 110.487C106.266 109.394 105.507 108.257 104.434 106.945C103.719 106.464 103.505 105.546 103.954 104.802C104.408 104.103 105.355 103.884 106.066 104.365C107.732 104.759 109.084 104.977 110.506 105.458C111.514 105.808 112.413 106.158 113.215 106.596C113.564 106.814 113.856 107.077 114.14 107.339C114.629 107.733 115.034 108.126 115.401 108.564C117.442 110.925 118.171 112.281 118.171 112.281Z" fill="#343434" fill-opacity="0.9"/>
<path fill-rule="evenodd" clip-rule="evenodd" d="M175.685 39.2069C170.751 36.5831 159.131 30.1983 146.969 23.4637C135.527 17.1227 123.614 10.5197 116.312 6.75878C114.04 5.57804 112.234 4.65969 111.065 4.13491C110.624 4.92208 110.053 5.84009 109.394 6.8459C106.894 10.6068 103.3 15.5921 103.3 15.5921C102.825 16.2918 101.874 16.4669 101.176 15.9859C100.482 15.5048 100.303 14.5426 100.783 13.8429C100.783 13.8429 103.413 9.81988 105.612 6.23392C106.947 4.04737 108.151 2.03556 108.282 1.46706C108.421 0.811093 108.831 0.286234 109.686 0.0675784C109.939 -0.0198838 110.55 -0.0632733 111.444 0.199113C112.587 0.548963 114.943 1.55478 118.127 3.04164C125.621 6.4964 137.874 12.5748 149.578 18.5222C164.435 26.044 178.394 33.3471 180.562 34.2654C181.644 34.7464 182.621 35.7085 182.786 37.5452C182.887 38.6385 182.368 41.044 180.937 44.3676C178.621 49.7902 174.001 58.5361 167.838 68.9441C163.58 76.116 158.564 84.0752 153.155 92.2967C144.875 104.848 135.641 117.967 126.646 129.774C115.239 144.687 104.186 157.412 95.9324 164.103C95.2868 164.672 94.3184 164.584 93.7775 163.928C93.2323 163.272 93.3151 162.31 93.9607 161.786C101.778 154.876 111.981 141.844 122.624 126.801C133.407 111.539 144.548 94.1336 153.922 78.6965C157.456 72.8802 160.749 67.3261 163.676 62.2533C167.458 55.7374 170.629 50.0523 172.854 45.6355C174.08 43.2303 175.109 40.6938 175.685 39.2069ZM111.741 2.86654C111.828 2.73535 111.893 2.56059 111.941 2.38567C111.906 2.51686 111.841 2.69162 111.741 2.86654ZM177.814 40.3002C177.831 40.3002 177.853 40.3442 177.875 40.3442C177.853 40.3442 177.835 40.3002 177.814 40.3002Z" fill="#343434" fill-opacity="0.9"/>
<path fill-rule="evenodd" clip-rule="evenodd" d="M211.219 37.8084C209.801 36.9775 207.664 35.7965 205.051 34.266C195.956 29.062 181.43 20.9281 169.526 14.5434C160.047 9.47058 152.339 5.44714 150.598 5.18476C149.133 4.9661 147.562 6.40923 145.992 8.02728C142.59 11.482 139.689 16.5113 139.689 16.5113C139.279 17.211 138.345 17.517 137.608 17.0797C136.871 16.6861 136.605 15.724 137.01 15.0243C137.01 15.0243 140.714 8.02736 144.801 4.17902C146.869 2.21112 149.128 1.16141 151.087 1.38006C153.329 1.59872 165.155 7.06528 178.202 13.5812C191.602 20.2721 206.355 28.0125 213.142 31.7296C215.777 33.1728 217.347 34.2224 217.583 34.4411C217.919 34.7909 219.136 36.4524 217.91 38.9888C217.304 40.2133 215.799 42.75 213.474 46.2485C208.615 53.5953 200.161 65.4901 189.199 79.1779C181.395 88.8862 172.3 99.4693 162.455 109.965C141.167 132.749 116.317 155.227 93.0577 168.127C92.3249 168.564 91.3914 168.302 90.9683 167.558C90.5495 166.859 90.7981 165.897 91.531 165.503C109.656 154.571 128.434 137.34 145.761 119.017C159.82 104.192 172.828 88.58 183.663 74.9359C193.753 62.2539 201.967 51.2775 207.018 44.0619C208.854 41.3943 210.276 39.2953 211.219 37.8084Z" fill="#343434" fill-opacity="0.9"/>
<path fill-rule="evenodd" clip-rule="evenodd" d="M242.853 64.4389C239.734 60.8092 233.95 55.0368 227.245 48.5646C211.856 33.6085 191.598 15.023 185.949 9.81896L180.793 17.8652C180.352 18.6087 179.41 18.8274 178.69 18.3901C177.971 17.9528 177.748 16.9905 178.189 16.2471L184.086 6.18893C184.361 5.70789 184.815 5.44576 185.33 5.3583C185.844 5.27083 186.368 5.40177 186.76 5.75162C186.76 5.75162 212.484 27.3989 231.145 44.3666C239.734 52.1944 246.814 59.0601 249.426 62.4274C250.02 63.1709 250.77 65.0949 248.973 67.369C247.904 68.7246 245.125 71.2172 240.899 74.497C233.047 80.6631 220.048 89.978 204.361 100.474C191.109 109.351 175.925 119.015 160.487 128.593C136.657 143.417 112.159 157.761 93.0446 168.126C92.3118 168.563 91.3783 168.3 90.9639 167.557C90.5495 166.813 90.8069 165.895 91.5441 165.458C103.985 158.111 118.703 148.884 134.057 138.957C147.929 129.992 162.284 120.502 175.912 111.362C185.661 104.846 195.022 98.4617 203.568 92.6455C214.342 85.2986 223.808 78.7827 230.94 73.6224C236.528 69.5554 240.676 66.4505 242.853 64.4389Z" fill="#343434" fill-opacity="0.9"/>
<path fill-rule="evenodd" clip-rule="evenodd" d="M252.995 86.0416C251.42 82.3682 247.564 74.7151 242.971 65.7502C233.387 46.9459 220.528 22.5441 216.82 15.5034L205.177 24.8181C204.532 25.3428 203.563 25.2554 203.027 24.5994C202.486 23.9435 202.578 22.9812 203.228 22.4564L216.222 11.1739C216.654 10.824 217.217 10.6927 217.766 10.7801C218.312 10.8676 218.787 11.2177 219.058 11.6987C219.058 11.6987 236.105 41.1734 248.101 62.9953C254.338 74.3654 259.172 83.7239 259.878 86.0416C260.061 86.6539 260.275 88.3154 258.548 89.9335C257.684 90.7644 255.625 92.2516 252.546 94.2195C246.421 98.1115 236.026 104.234 223.154 111.318C214.155 116.26 203.939 121.639 193.182 127.149C176.719 135.545 158.978 144.16 142.341 151.726C121.556 161.216 102.476 168.956 89.7253 172.585C88.9183 172.848 88.0633 172.367 87.819 171.58C87.5747 170.749 88.0284 169.918 88.8397 169.656C101.328 165.589 119.885 157.149 140.173 147.134C160.928 136.901 183.432 125.006 203.018 114.336C208.837 111.187 214.412 108.126 219.603 105.283C229.54 99.8607 238.072 95.0937 244.271 91.4641C248.253 89.1026 251.254 87.2661 252.995 86.0416ZM253.68 87.8345C253.684 87.8782 253.684 87.8784 253.684 87.8784L253.68 87.8345Z" fill="#343434" fill-opacity="0.9"/>
<path fill-rule="evenodd" clip-rule="evenodd" d="M266.805 115.869C266.683 114.776 266.221 113.114 266.051 111.54C265.353 105.243 263.795 95.4031 261.911 84.8639C258.84 67.6775 254.901 48.6981 252.079 40.3892C251.686 39.2085 251.193 38.1154 250.914 37.5031C249.309 37.853 246.966 38.4653 244.519 39.1213C239.176 40.5644 233.339 42.3136 233.339 42.3136C232.532 42.5322 231.673 42.095 231.42 41.3078C231.167 40.4769 231.612 39.6022 232.414 39.3835C232.414 39.3835 238.212 37.4154 243.52 35.7099C246.626 34.7478 249.575 33.8296 251.136 33.4798C251.765 33.3486 252.502 33.48 253.261 34.0922C253.714 34.4858 254.286 35.2727 254.87 36.4534C256.655 40.0831 259.206 48.5672 261.797 58.8003C266.408 76.9487 271.242 100.563 272.65 111.627C273.143 115.519 273.052 118.187 272.764 119.018C272.589 119.542 272.214 120.199 271.416 120.898C270.696 121.467 269.056 122.385 266.574 123.391C262.164 125.184 254.665 127.764 245.226 130.65C238.848 132.618 231.581 134.718 223.79 136.86C209.832 140.752 194.211 144.819 179.087 148.668C148.771 156.277 120.461 162.836 111.531 164.455C110.703 164.629 109.896 164.061 109.73 163.23C109.564 162.399 110.101 161.612 110.929 161.437C121.001 159.207 155.868 149.498 190.302 139.571C205.308 135.242 220.218 130.869 232.964 127.064C244.798 123.522 254.757 120.505 261.078 118.231C263.481 117.356 265.894 116.307 266.805 115.869ZM266.831 116.219C266.674 116.438 266.517 116.7 266.478 116.831C266.461 116.875 266.321 117.006 266.413 117.006C266.744 117.05 266.849 116.744 266.831 116.219Z" fill="#343434" fill-opacity="0.9"/>
<path fill-rule="evenodd" clip-rule="evenodd" d="M156.793 163.315C156.583 162.484 157.085 161.653 157.901 161.434C158.721 161.259 159.55 161.741 159.755 162.571C159.755 162.571 161.543 166.289 163.127 171.536C163.484 172.717 163.781 173.942 164.038 175.253C164.204 176.084 164.357 176.915 164.431 177.79C164.61 179.976 164.566 182.163 164.352 184.262C163.955 188.198 163.039 191.653 161.582 194.058C161.255 194.845 160.361 195.195 159.58 194.888C158.804 194.539 158.433 193.664 158.756 192.877C159.122 191.303 158.965 189.422 158.769 187.28C158.634 185.793 158.35 184.262 158.114 182.644C157.892 181.069 157.595 179.495 157.434 177.921C157.229 175.953 157.168 173.985 157.085 172.148C156.854 167.075 156.793 163.315 156.793 163.315Z" fill="#343434" fill-opacity="0.9"/>
<path fill-rule="evenodd" clip-rule="evenodd" d="M171.898 127.586C171.331 126.974 171.384 126.012 172.008 125.443C172.636 124.875 173.604 124.919 174.167 125.531C174.167 125.531 180.714 131.566 188.112 141.187C189.74 143.329 191.367 145.603 192.968 148.052C193.971 149.627 194.97 151.201 195.89 152.863C198.106 156.93 200.073 161.259 201.696 165.764C204.161 172.542 205.735 179.626 206.097 186.536C206.202 187.367 205.605 188.11 204.767 188.241C203.93 188.329 203.166 187.716 203.062 186.886C202.207 182.6 200.732 178.358 198.992 174.16C197.286 170.049 195.236 166.07 193.111 162.134C191.807 159.772 190.459 157.411 189.155 155.137C187.777 152.732 186.446 150.37 185.133 148.14C183.353 145.123 181.665 142.323 180.082 139.787C175.419 132.353 171.898 127.586 171.898 127.586Z" fill="#343434" fill-opacity="0.9"/>
<path fill-rule="evenodd" clip-rule="evenodd" d="M163.615 90.855C162.795 90.6801 162.28 89.8491 162.468 89.0182C162.651 88.231 163.475 87.7064 164.295 87.8814C164.295 87.8814 178.861 90.374 195.82 101.132C199.467 103.493 203.197 106.204 206.9 109.397C209.16 111.321 211.415 113.42 213.583 115.782C218.482 120.986 223.097 127.196 227.127 134.367C232.201 143.42 236.266 154.046 238.896 166.422C239.106 167.253 238.617 168.084 237.797 168.303C236.981 168.521 236.148 167.997 235.935 167.209C232.392 155.577 227.472 145.825 222.032 137.472C217.81 131 213.195 125.446 208.527 120.592C206.464 118.449 204.427 116.394 202.377 114.513C199 111.365 195.633 108.61 192.361 106.204C176.985 94.7906 163.615 90.855 163.615 90.855Z" fill="#343434" fill-opacity="0.9"/>
</g>
<defs>
<clipPath id="clip0_257_789">
<rect width="273" height="195" fill="white"/>
</clipPath>
</defs>
</svg>
